<svg width="782" height="501" viewBox="0 0 782 501" fill="none" xmlns="http://www.w3.org/2000/svg">
<path d="M139.295 374.674L139.136 345.399L158.717 333.388L158.583 327.843L139.103 339.787L138.944 309.676L157.872 298.903L157.738 293.458L138.91 304.172L138.727 270.883L156.935 260.537L156.801 255.091L138.701 265.371L138.517 232.257L156.032 223.5L155.898 218.189L138.484 226.896L138.275 188.496L155.003 180.718L154.877 175.482L138.266 183.218L138.057 146.056L153.999 139.683L153.874 134.623C153.707 134.648 153.544 134.693 153.389 134.757L138.032 140.888L137.857 108.794L153.104 103.149L152.979 98.0715L137.823 103.684L137.681 76.5004L145.861 73.7821L141.027 70.3276L137.681 71.4484V67.8937L132.855 64.4478L132.905 73.0377L116.177 78.5998C116.177 66.6224 116.252 57.6392 116.302 52.5956L111.551 49.2C111.484 53.3151 111.426 64.3723 111.376 80.1889L92.6818 86.3952L92.8072 60.7674L88.2657 87.8673L87.8557 90.2761L87.3623 93.2203L87.8475 93.0614L87.6968 122.286L82.1429 124.352L81.2232 129.813L87.6719 127.421L87.5044 161.104L75.1506 166.039L74.2223 171.584L87.4795 166.281L87.2786 206.989L66.5859 216.591L65.6237 222.338L87.1699 212.301L86.969 252.666L63.0561 264.618L62.7048 239.735L58.2716 266.166V267.002L58.096 267.086L57.1175 272.941L58.3472 272.321L58.8826 310.671L49.9328 315.757L49.038 321.084C49.1867 321.116 49.3374 321.136 49.4893 321.143C49.9232 321.152 50.3517 321.042 50.7275 320.825L58.9577 316.15L59.4262 349.372L42.6979 358.89L41.6773 365.005L59.5013 354.859L59.9698 388.315L35.2621 403.505L34.2084 409.786L60.087 393.894L60.6306 432.754L26.0615 458.315L24.9155 465.132L159.511 365.724L159.369 359.869L139.295 374.674ZM133.223 142.853L115.934 149.762C115.934 138.144 115.934 127.179 115.993 116.949L133.047 110.626L133.223 142.853ZM132.863 78.1397L133.014 105.516L116.001 111.822C116.001 101.417 116.051 91.9656 116.076 83.7186L132.863 78.1397ZM111.275 85.3079C111.275 93.672 111.225 103.224 111.2 113.604L92.431 120.554L92.5731 91.514L111.275 85.3079ZM63.1312 270.005L86.9441 258.094L86.7599 294.896L63.7001 308.02L63.1312 270.005ZM63.7418 313.498L86.735 300.442L86.5675 333.99L64.2102 346.712L63.7418 313.498ZM64.2858 352.199L86.5426 339.536L86.3752 372.156L64.7538 385.422L64.2858 352.199ZM65.3648 429.258L64.8294 390.992L86.3503 377.793L86.1747 413.893L65.3648 429.258ZM92.4057 125.64L111.183 118.672C111.183 128.985 111.142 140.06 111.125 151.636L92.2387 159.163L92.4057 125.64ZM92.2133 164.366L111.116 156.838C111.116 169.384 111.117 182.541 111.058 195.898L92.0128 204.773L92.2133 164.366ZM91.9875 210.059L111.049 201.176C111.049 214.249 111.049 227.498 111.049 240.647L91.8119 250.257L91.9875 210.059ZM91.7616 255.635L110.999 246.016C110.999 257.91 110.999 269.678 110.999 281.146L91.6113 292.153L91.7616 255.635ZM91.5525 297.673L110.957 286.649C110.957 298.259 110.957 309.483 110.957 320.106L91.4104 331.23L91.5525 297.673ZM91.3602 336.759L110.924 325.618C110.924 336.993 110.924 347.574 110.924 357.059L91.2099 369.145L91.3602 336.759ZM90.9922 410.305L91.1678 374.799L110.899 362.696C110.899 376.447 110.899 387.529 110.899 394.873C110.903 395.097 110.936 395.319 110.999 395.534L90.9922 410.305ZM115.926 154.889L133.248 147.964L133.457 185.443L115.892 193.64C115.884 180.291 115.901 167.293 115.926 154.923V154.889ZM115.859 198.935L133.482 190.729L133.7 229.296L115.809 238.238C115.825 224.997 115.842 211.824 115.859 198.968V198.935ZM115.809 243.616L133.725 234.65L133.909 268.106L115.775 278.411C115.783 266.876 115.792 255.234 115.809 243.649V243.616ZM115.767 283.923L133.959 273.635L134.143 306.924L115.742 317.388C115.75 306.439 115.759 295.214 115.767 283.956V283.923ZM115.767 322.883L134.168 312.403L134.335 342.697L115.725 354.114C115.717 344.077 115.725 333.631 115.733 322.916L115.767 322.883ZM115.717 392.063C115.717 381.967 115.717 371.152 115.717 359.752L134.36 348.31L134.519 378.161L115.717 392.063Z" fill="#161616"/>
<path d="M643.185 77.9807L644.021 50.0862L688.025 51.0566L695.168 46.4061L644.147 45.2852L644.414 36.3189L639.613 36.2102L639.346 45.1765L609.895 44.5241L610.155 35.5662L605.354 35.4573L605.086 44.4237L575.636 43.7712L575.895 34.8049L571.094 34.7046L570.827 43.6626L537.211 42.9183L537.479 33.9601L532.678 33.8515L532.41 42.8178L495.608 41.9814L495.876 33.0234L491.066 32.9146L490.807 41.8811L455.585 41.1031L455.853 32.1535L451.044 32.0449L450.785 40.9945L415.563 40.2165L415.831 31.2501L411.03 31.1499L410.762 40.1078L378.418 39.3968L378.686 30.4305L373.885 30.3302L373.617 39.2882L345.447 38.6692L345.706 29.7029L340.905 29.6024L340.645 38.5604L308.945 37.8663L309.213 28.9L304.404 28.7911L304.145 37.7575L274.686 37.105L274.953 28.1471L270.153 28.0384L269.885 36.9964L240.426 36.3523L240.694 27.386L235.893 27.2772L235.625 36.2435L202.002 35.4992L202.269 26.6082V26.5412L197.46 26.4324L197.192 35.3989L160.39 34.5625L160.658 25.6211L155.857 25.5125L155.589 34.462L124.642 33.7761L127.803 36.0344L131.567 38.7362L155.48 39.263L154.995 55.4894L159.687 58.835L160.265 39.3468L197.067 40.1832L196.339 64.6483L170.118 63.8703C169.75 63.8652 169.386 63.943 169.053 64.098C168.72 64.2529 168.427 64.481 168.194 64.7653C169.942 65.9363 171.673 67.2745 172.376 68.7466L196.172 69.4493L195.335 97.6196L173.112 96.9588C173.112 98.4895 173.187 100.095 173.229 101.768L195.193 102.421L194.231 134.756L174.023 134.154C174.023 135.735 174.099 137.333 174.141 138.964L194.081 139.557L193.035 174.77L175.002 174.227C175.002 175.824 175.077 177.43 175.119 179.036L192.893 179.571L191.848 214.776L175.956 214.308C175.997 215.905 176.031 217.511 176.073 219.117L191.68 219.577L190.585 256.379L176.976 255.97C176.976 257.584 177.051 259.181 177.093 260.779L190.476 261.18L189.472 294.787L177.946 294.445C177.988 296.067 178.03 297.665 178.063 299.254L189.33 299.588L188.452 329.039L178.783 328.754C178.824 330.427 178.866 331.991 178.9 333.564L188.31 333.84L187.473 362.562C187.467 362.808 187.501 363.054 187.574 363.29L179.644 363.056C179.644 364.921 179.728 366.527 179.761 367.865L233.024 369.454L233.116 364.653L230.699 364.578L231.536 335.128L233.627 335.186L233.718 330.385L231.678 330.327L232.514 300.877L234.229 300.927L234.312 296.126L232.639 296.076L233.635 262.46H234.923L235.015 257.659L233.777 257.617L234.873 220.815L264.323 221.651L260.902 368.818L265.711 368.76L269.199 221.902L298.649 222.781L295.195 368.375L300.004 368.308L303.45 222.923L335.134 223.868L334.038 260.67L175.529 257.115L175.228 261.908L333.896 265.471L332.9 299.078L178.732 295.607L178.44 300.408L332.758 303.879L331.88 333.329L174.634 329.783L174.341 334.584L331.713 338.13L330.876 367.581L170.963 363.967L170.67 368.768L629.342 381.314C629.265 380.76 629.246 380.2 629.284 379.642C629.284 379.55 629.284 379.466 629.284 379.382L629.484 376.539L599.9 375.702C600.019 375.438 600.087 375.155 600.101 374.866L600.938 346.285L630.354 347.122L629.601 372.457C629.596 372.706 629.63 372.954 629.702 373.193L629.752 372.482C630.103 367.396 630.452 362.314 630.797 357.234C631.031 353.888 631.263 350.543 631.492 347.197C631.6 345.6 631.718 344.002 631.826 342.404C631.985 340.021 632.152 337.645 632.311 335.27L633.842 312.988C633.951 311.39 634.068 309.784 634.176 308.187C634.176 308.187 634.176 308.095 634.176 308.045C634.879 297.746 635.587 287.452 636.301 277.164C636.359 276.328 636.418 275.491 636.468 274.655C636.585 273.049 636.697 271.449 636.803 269.854C637.188 264.278 637.57 258.702 637.949 253.126L638.551 233.052H639.329L639.655 228.259H638.693L639.739 193.046L642.073 193.121C642.181 191.524 642.29 189.918 642.407 188.32L639.898 188.245L640.943 153.04L644.841 153.149L645.167 148.356L641.094 148.239L642.056 115.904L647.383 116.063C647.489 114.462 647.601 112.865 647.718 111.27L642.198 111.103L643.034 82.9322L649.558 83.1329C649.532 81.5224 649.672 79.9136 649.976 78.3319L643.185 77.9807ZM225.881 364.486L192.115 363.482C192.197 363.248 192.245 363.003 192.258 362.754L193.094 334.032L226.734 335.036L225.881 364.486ZM226.893 330.193L193.253 329.189L194.089 299.739L227.73 300.743L226.893 330.193ZM227.914 295.942L194.273 294.938L195.277 261.331L228.909 262.326L227.914 295.942ZM229.051 257.525L195.419 256.53L196.515 219.728L230.147 220.773L229.051 257.525ZM230.289 215.914L196.69 214.918L197.736 179.714L231.36 180.709L230.289 215.914ZM231.477 175.9L197.845 174.904L198.899 139.691L232.514 140.687L231.477 175.9ZM232.656 135.886L199.041 134.89L200.003 102.554L233.618 103.558L232.656 135.886ZM233.76 98.7573L200.145 97.7534L200.981 69.5914L234.597 70.5867L233.76 98.7573ZM234.739 65.7857L201.123 64.782L201.851 40.2751L235.475 41.0196L234.739 65.7857ZM264.54 216.934L235.09 216.056L236.136 180.843L265.577 181.721L264.54 216.934ZM265.728 176.92L236.278 176.084L237.315 140.879L266.765 141.715L265.728 176.92ZM266.907 136.906L237.457 136.028L238.419 103.7L267.869 104.579L266.907 136.906ZM268.011 99.7777L238.561 98.9412L239.398 70.7707L268.848 71.649L268.011 99.7777ZM268.99 66.8061L239.54 65.9697L240.276 41.1701L269.734 41.8225L268.99 66.8061ZM298.791 217.954L269.341 217.118L270.387 181.905L299.829 182.741L298.791 217.954ZM299.971 177.94L270.529 177.062L271.566 141.849L301.016 142.686L299.971 177.94ZM301.158 137.926L271.708 137.048L272.67 104.721L302.12 105.557L301.158 137.926ZM302.263 100.798L272.812 99.9198L273.649 71.7494L303.099 72.5858L302.263 100.798ZM303.241 67.8265L273.791 66.9484L274.535 41.856L303.994 42.5084L303.241 67.8265ZM335.276 219.042L303.592 218.097L304.638 182.884L336.321 183.829L335.276 219.042ZM336.463 179.028L304.78 178.083L305.817 142.87L337.509 143.815L336.463 179.028ZM337.651 139.014L305.96 138.069L306.921 105.741L338.613 106.686L337.651 139.014ZM338.755 101.877L307.064 100.94L307.9 72.7698L339.592 73.7149L338.755 101.877ZM339.734 68.9139L308.042 67.9688L308.795 42.6422L340.487 43.3365L339.734 68.9139ZM363.848 368.551L335.669 367.714L336.505 338.264L364.684 339.101L363.848 368.551ZM364.86 334.3L336.689 333.463L337.526 304.021L365.704 304.858L364.86 334.3ZM365.88 300.007L337.701 299.17L338.697 265.563L366.876 266.4L365.88 300.007ZM367.018 261.59L338.839 260.754L339.934 223.952L368.105 224.788L367.018 261.59ZM368.247 219.979L340.077 219.142L341.122 183.929L369.293 184.766L368.247 219.979ZM369.435 179.965L341.265 179.128L342.31 143.915L370.48 144.752L369.435 179.965ZM370.623 139.951L342.452 139.114L343.414 106.787L371.585 107.623L370.623 139.951ZM371.727 102.822L343.556 101.986L344.393 73.8153L372.563 74.6518L371.727 102.822ZM372.705 69.8508L344.535 69.0143L345.296 43.4033L373.467 44.0222L372.705 69.8508ZM400.976 369.613L368.649 368.651L369.485 339.201L401.821 340.163L400.976 369.613ZM401.996 335.32L369.661 334.525L370.539 305.075L402.866 306.037L401.996 335.32ZM403.008 301.069L370.664 300.233L371.66 266.617L403.987 267.579L403.008 301.069ZM404.146 262.652L371.819 261.69L372.906 224.888L405.242 225.85L404.146 262.652ZM405.384 221.041L373.048 220.079L374.094 184.866L406.429 185.828L405.384 221.041ZM406.572 181.027L374.236 180.065L375.281 144.852L407.617 145.814L406.572 181.027ZM407.759 141.013L375.424 140.051L376.385 107.724L408.713 108.685L407.759 141.013ZM408.855 103.884L376.528 102.923L377.364 74.752L409.692 75.714L408.855 103.884ZM409.834 70.913L377.506 69.951L378.267 44.0892L410.611 44.8086L409.834 70.913ZM440.99 370.759L405.777 369.713L406.63 340.38L441.835 341.426L440.99 370.759ZM442.002 336.508L406.798 335.462L407.634 306.012L442.847 307.058L442.002 336.508ZM443.022 302.257L407.81 301.211L408.805 267.596L444.018 268.65L443.022 302.257ZM444.16 263.849L408.947 262.795L410.043 225.992L445.256 227.046L444.16 263.849ZM445.398 222.229L410.185 221.183L411.23 185.97L446.435 187.024L445.398 222.229ZM446.586 182.223L411.373 181.169L412.418 145.956L447.614 147.169L446.586 182.223ZM447.765 142.209L412.56 141.155L413.514 108.828L448.727 109.873L447.765 142.209ZM448.869 105.072L413.656 104.027L414.492 75.8561L449.706 76.9017L448.869 105.072ZM449.848 72.1007L414.635 71.0551L415.413 44.9088L450.634 45.6866L449.848 72.1007ZM481.004 371.955L445.791 370.901L446.627 341.451L481.84 342.505L481.004 371.955ZM482.016 337.662L446.803 336.617L447.681 307.166L482.895 308.22L482.016 337.662ZM483.037 303.419L447.824 302.365L448.819 268.758L484.032 269.804L483.037 303.419ZM484.174 265.003L448.961 263.957L450.057 227.155L485.261 228.2L484.174 265.003ZM485.404 223.391L450.199 222.346L451.244 187.133L486.449 188.178L485.404 223.391ZM486.591 183.377L451.387 182.332L452.424 147.119L487.637 148.164L486.591 183.377ZM487.779 143.363L452.566 142.318L453.528 109.982L488.741 111.036L487.779 143.363ZM488.883 106.235L453.67 105.181L454.507 77.0187L489.719 78.0642L488.883 106.235ZM489.862 73.2632L454.649 72.2093L455.435 45.762L490.656 46.5398L489.862 73.2632ZM522.649 373.159L485.805 372.064L486.642 342.614L523.444 343.709L522.607 372.842C522.624 373.109 522.641 373.21 522.649 373.318V373.159ZM523.628 338.866L486.825 337.771L487.704 308.321L524.506 309.416L523.628 338.866ZM524.648 304.615L487.846 303.52L488.841 269.904L525.644 271L524.648 304.615ZM525.786 266.199L488.983 265.103L490.071 228.301L526.873 229.397L525.786 266.199ZM527.024 224.587L490.221 223.492L491.259 188.278L528.061 189.374L527.024 224.587ZM528.211 184.573L491.409 183.477L492.455 148.265L529.257 149.36L528.211 184.573ZM529.391 144.559L492.588 143.464L493.55 111.136L530.352 112.232L529.391 144.559ZM530.495 107.431L493.692 106.335L494.529 78.1647L531.331 79.2604L530.495 107.431ZM531.473 74.4594L494.671 73.3636L495.466 46.5984L532.268 47.4348L531.473 74.4594ZM561.116 374.263L527.383 373.26C527.406 373.155 527.419 373.049 527.425 372.942L528.261 343.81L561.877 344.805L561.04 373.653C561.013 373.926 561.039 374.201 561.116 374.464V374.263ZM562.044 339.971L528.437 338.975L529.273 309.525L562.881 310.52L562.044 339.971ZM563.056 305.719L529.449 304.724L530.444 271.109L564.06 272.112L563.056 305.719ZM564.202 267.311L530.587 266.308L531.682 229.505L565.289 230.509L564.202 267.311ZM565.432 225.7L531.825 224.696L532.87 189.483L566.477 190.487L565.432 225.7ZM566.619 185.686L533.012 184.682L534.049 149.469L567.665 150.473L566.619 185.686ZM567.807 145.672L534.191 144.668L535.154 112.341L568.769 113.336L567.807 145.672ZM568.911 108.535L535.296 107.54L536.132 79.369L569.748 80.3727L568.911 108.535ZM569.89 75.5633L536.274 74.568L537.111 47.4851L570.726 48.2294L569.89 75.5633ZM595.451 375.25L565.741 374.364C565.803 374.168 565.84 373.966 565.85 373.762L566.686 344.914L596.136 345.792L595.3 374.372C595.256 374.758 595.308 375.149 595.451 375.51V375.25ZM596.287 340.957L566.837 340.079L567.673 310.629L597.123 311.507L596.287 340.957ZM597.299 306.664L567.849 305.828L568.853 272.221L598.303 273.099L597.299 306.664ZM598.445 268.256L568.995 267.42L570.082 230.618L599.532 231.454L598.445 268.256ZM599.674 226.636L570.224 225.8L571.27 190.587L600.72 191.465L599.674 226.636ZM600.862 186.622L571.412 185.786L572.457 150.573L601.908 151.409L600.862 186.622ZM602.05 146.617L572.6 145.739L573.562 113.403L603.012 114.281L602.05 146.617ZM603.154 109.48L573.704 108.644L574.54 80.4815L603.99 81.318L603.154 109.48ZM604.132 76.5086L574.682 75.6722L575.519 48.2964L604.969 48.9488L604.132 76.5086ZM630.505 341.936L601.088 341.058L601.925 311.608L631.349 312.486L630.505 341.936ZM631.525 307.685L602.1 306.807L603.104 273.2L632.529 274.036L631.525 307.685ZM632.671 269.268L603.246 268.432L604.333 231.63L633.767 232.466L632.671 269.268ZM633.909 227.657L604.476 226.82L605.521 191.616L634.954 192.452L633.909 227.657ZM635.097 187.643L605.663 186.806L606.709 151.593L636.142 152.43L635.097 187.643ZM636.293 147.629L606.851 146.792L607.813 114.457L637.255 115.335L636.293 147.629ZM637.397 110.5L607.955 109.622L608.792 81.4517L638.233 82.2881L637.397 110.5ZM638.375 77.529L608.934 76.6507L609.77 49.049L639.22 49.7015L638.375 77.529Z" fill="#161616"/>
<path d="M734.671 448.863C734.816 448.574 734.901 448.258 734.922 447.935L737.222 408.356L752.495 418.97L752.052 412.814L737.557 402.777L739.447 370.24L749.484 376.53L749.057 370.592L739.782 364.737L741.722 331.539L746.498 334.542L746.072 328.604L742.04 326.094L743.772 296.343L743.144 287.477L742.734 281.748L741.128 259.164L739.899 280.142L716.571 267.152L718.144 227.004L739.631 238.187L739.23 232.558L718.319 221.685L719.9 181.294L736.06 188.596L735.675 183.151L720.109 176.117L721.422 142.585L733.132 147.528L732.747 142.15L721.615 137.458L722.753 108.418L730.556 111.395L730.18 106.109L722.953 103.358L724.492 64.1631L727.261 65.2086L726.884 59.9391L724.141 58.902C723.929 58.6195 723.657 58.3875 723.344 58.2226C723.032 58.0578 722.687 57.9643 722.334 57.9486C722.152 57.9437 721.969 57.9604 721.79 57.9986L717.107 56.2339L712.088 59.4874L719.766 62.3814L718.236 101.542L699.834 94.5166C700.336 82.3384 700.713 72.7698 700.939 66.7477L696.021 69.9426C695.812 75.5215 695.502 83.2499 695.109 92.7181L678.606 86.4118L678.874 81.1004L673.897 84.3291V84.6133L673.63 84.5131L669.607 87.131L669.54 88.093L673.647 89.6569L672.3 116.648L667.708 114.707L667.365 119.776L672.049 121.75L670.46 153.684L665.199 151.309L664.848 156.42L670.209 158.837L668.377 195.639L662.363 192.511L662.003 197.738L668.11 200.917L666.211 239.124L659.419 235.343L659.051 240.638L665.952 244.477L664.32 277.281L656.86 272.597L656.483 278.034L664.011 282.776L662.338 316.141L654.167 311.022L653.798 316.459L662.062 321.645L660.69 349.313L651.958 343.241L651.574 348.828L660.406 354.967L658.867 385.915L649.55 378.186L649.365 380.938C649.295 381.89 649.063 382.824 648.68 383.698L756.309 473.069L755.841 466.436L734.671 448.863ZM699.634 99.5602L718.035 106.586L716.939 135.459L698.488 127.672C698.889 117.409 699.283 107.949 699.634 99.5602ZM678.356 91.4386L694.9 97.7534C694.565 106.017 694.172 115.402 693.737 125.665L677.009 118.605L678.356 91.4386ZM676.791 123.749L693.561 130.825C693.135 140.988 692.675 151.945 692.181 163.445L675.202 155.775L676.791 123.749ZM674.943 160.97L691.964 168.656C691.437 180.943 690.885 193.832 690.291 207.089L673.069 198.123L674.943 160.97ZM681.752 404.926L663.568 389.829L665.14 358.246L683.24 370.792C682.646 382.845 682.178 394.287 681.709 404.893L681.752 404.926ZM683.491 365.147L665.425 352.6L666.813 324.622L684.762 335.889C684.319 345.867 683.859 355.662 683.483 365.113L683.491 365.147ZM684.997 330.36L667.081 319.11L668.754 285.746L686.46 296.862C685.917 308.153 685.431 319.361 684.955 330.343L684.997 330.36ZM686.67 291.341L668.996 280.251L670.669 247.12L688.183 256.873C687.665 268.323 687.146 279.866 686.644 291.308L686.67 291.341ZM688.393 251.503L670.912 241.776L672.818 203.401L690.074 212.384C689.496 225.156 688.936 238.263 688.367 251.47L688.393 251.503ZM705.589 424.733L685.766 408.272C686.193 407.85 686.444 407.282 686.469 406.683C686.795 399.272 687.305 388.031 687.891 374.063L707.053 387.387L705.589 424.733ZM707.262 381.699L688.125 368.392C688.509 359.417 688.961 349.472 689.405 338.816L708.475 350.785L707.262 381.699ZM708.692 345.248L689.647 333.296C690.107 322.69 690.592 311.449 691.102 299.839L710.005 311.708L708.692 345.248ZM710.248 306.087L691.362 294.235C691.855 282.91 692.357 271.234 692.867 259.441L711.67 269.904L710.248 306.087ZM711.879 264.526L693.102 254.071C693.662 240.998 694.231 227.816 694.774 214.759L713.435 224.47L711.879 264.526ZM713.661 219.201L695.017 209.498C695.586 196.266 696.138 183.252 696.69 170.747L715.25 179.111L713.661 219.201ZM696.865 165.57C697.359 154.069 697.819 143.054 698.254 132.766L716.722 140.553L715.409 173.942L696.865 165.57ZM730.272 445.191L710.148 428.463C710.209 428.276 710.246 428.082 710.256 427.886L711.72 390.582L732.63 405.11L730.272 445.191ZM732.94 399.506L711.921 384.919L713.151 353.696L734.797 367.288L732.94 399.506ZM735.131 361.801L713.385 348.142L714.698 314.56L737.072 328.604L735.131 361.801ZM714.915 309.032L716.345 272.514L739.581 285.453L737.39 323.133L714.915 309.032Z" fill="#161616"/>
<path d="M745.378 35.2316C742.811 28.2928 738.182 22.3062 732.112 18.0767L94.6479 4C88.3827 8.49327 83.0649 14.1778 78.9987 20.7283L4.13964 467.005C3.91996 468.312 3.95981 469.649 4.25685 470.94C4.55388 472.231 5.10234 473.451 5.87087 474.53C6.63939 475.609 7.61281 476.527 8.73583 477.23C9.85885 477.933 11.1094 478.407 12.416 478.627C13.7225 478.847 15.0594 478.807 16.3505 478.51C17.6417 478.213 18.8616 477.664 19.9408 476.896C21.02 476.127 21.9374 475.154 22.6404 474.031C23.3433 472.908 23.8183 471.657 24.038 470.351L24.916 465.123L26.062 458.315L34.2003 409.803L35.2544 403.521L41.7031 365.046L42.7233 358.932L49.0634 321.126L49.9582 315.798L57.1433 272.982L58.1218 267.127L58.2807 266.199L62.7135 239.768L65.6328 222.362L66.5946 216.616L74.1223 171.617L75.0506 166.072L81.1232 129.847L82.0433 124.385L87.2623 93.2537L87.7557 90.3095L88.1657 87.9005L92.7076 60.8008L94.5225 49.986L95.4174 44.6245L96.4461 38.5021L101.975 42.4499L106.809 45.9126L111.451 49.2582L116.202 52.6541L132.772 64.506L137.598 67.9522L140.994 70.386L145.828 73.8405L152.469 78.5913L152.946 98.13L153.072 103.207L153.841 134.681L153.966 139.742L154.845 175.54L154.97 180.776L155.882 218.247L156.016 223.559L156.785 255.15L156.919 260.595L157.756 293.516L157.889 298.961L158.6 327.876L158.734 333.421L159.378 359.869L159.52 365.724L159.704 373.068C159.768 375.273 160.7 377.363 162.298 378.885C163.896 380.406 166.03 381.234 168.236 381.189L171.749 381.105C173.954 381.042 176.044 380.11 177.566 378.512C179.087 376.914 179.915 374.78 179.87 372.574C179.87 372.574 179.828 370.901 179.761 367.932C179.761 366.594 179.686 364.988 179.644 363.122C179.477 356.314 179.226 346.143 178.917 333.63C178.917 332.058 178.841 330.46 178.799 328.821L178.08 299.321C178.08 297.732 178.005 296.134 177.963 294.511C177.704 283.822 177.428 272.489 177.127 260.846C177.127 259.248 177.043 257.651 177.01 256.036C176.709 243.925 176.407 231.521 176.106 219.167C176.065 217.561 176.031 215.956 175.989 214.358C175.696 202.406 175.404 190.545 175.153 179.086C175.111 177.48 175.069 175.874 175.036 174.277C174.726 161.848 174.442 149.954 174.199 139.014C174.157 137.383 174.116 135.785 174.082 134.204C173.781 121.826 173.505 110.785 173.288 101.819C173.246 100.146 173.204 98.5398 173.17 97.0092C172.861 84.1869 172.668 76.5421 172.668 76.5421C172.618 74.2838 173.354 71.3731 172.627 69.2486C172.573 69.0937 172.509 68.9428 172.434 68.7969C171.707 67.3332 169.975 65.9866 168.252 64.8156C167.048 63.9792 165.844 63.2765 164.957 62.6408L159.729 58.9021L155.037 55.5564L131.618 38.8282L127.854 36.1266L124.692 33.8683L120.51 30.8906L115.818 27.545L111.727 24.6175L115.909 24.7096L120.711 24.8182L155.932 25.5961L160.733 25.7049L197.535 26.5413L202.344 26.6499L235.96 27.3861L240.761 27.4947L270.22 28.1472L275.02 28.256L304.471 28.9L309.28 29.0087L340.972 29.7113L345.773 29.8116L373.952 30.4389L378.753 30.5394L411.097 31.2586L415.898 31.3591L451.111 32.1369L455.92 32.2457L491.133 33.0235L495.942 33.1321L532.744 33.9686L537.546 34.0774L571.161 34.8217L575.962 34.9222L605.421 35.5746L610.222 35.6832L639.68 36.3273L644.481 36.4361L708.551 37.8496L695.193 46.4061L688.05 51.0566L652.653 74.0831C651.964 74.5574 651.376 75.1638 650.924 75.8675C650.472 76.5711 650.164 77.3577 650.018 78.1815C649.714 79.7632 649.574 81.372 649.6 82.9825C649.6 83.7436 649.6 84.4879 649.541 85.1822C649.475 86.3113 649.383 87.4321 649.307 88.5278L648.404 101.635C648.187 104.785 647.972 107.938 647.76 111.094C647.643 112.689 647.531 114.287 647.425 115.887C647.292 117.903 647.149 119.919 647.015 121.934C646.424 130.583 645.828 139.226 645.225 147.863C645.225 147.964 645.225 148.072 645.225 148.173L644.899 152.965C644.342 161.279 643.77 169.588 643.185 177.89L642.482 188.136C642.365 189.734 642.256 191.34 642.148 192.937L640.943 210.46C640.542 216.337 640.137 222.22 639.73 228.109L639.404 232.901C639.147 236.604 638.894 240.309 638.643 244.017C638.434 246.995 638.233 249.972 638.024 252.95C637.639 258.526 637.257 264.102 636.878 269.678C636.766 271.273 636.655 272.873 636.544 274.479C636.493 275.316 636.435 276.152 636.376 276.989C635.668 287.282 634.96 297.575 634.252 307.869C634.252 307.919 634.252 307.969 634.252 308.011C634.143 309.609 634.026 311.215 633.917 312.812L632.387 335.094C632.228 337.47 632.06 339.845 631.902 342.229C631.793 343.826 631.676 345.424 631.567 347.021C631.344 350.367 631.113 353.713 630.873 357.058C630.533 362.144 630.184 367.226 629.827 372.306L629.777 373.017L629.551 376.363L629.35 379.207C629.35 379.29 629.35 379.374 629.35 379.466C629.313 380.024 629.332 380.585 629.409 381.139C629.674 383.035 630.582 384.784 631.981 386.091C633.38 387.399 635.186 388.187 637.096 388.324L640.6 388.558C642.312 388.669 644.016 388.251 645.483 387.361C646.949 386.471 648.106 385.151 648.797 383.581C649.18 382.707 649.413 381.773 649.483 380.821L649.667 378.069L651.691 348.678L652.076 343.09L653.916 316.325L654.284 310.888L656.55 277.9L656.927 272.464L659.119 240.504L659.486 235.21L662.071 197.571L662.431 192.344L664.94 156.219L665.291 151.108L667.457 119.576L667.8 114.507L669.632 87.8921L669.699 86.9303L673.722 84.3125L673.998 84.1283L678.975 80.8998L696.121 69.742L701.04 66.547L712.197 59.2868L717.216 56.0333L726.349 50.0946L727.035 59.7385L727.412 65.008L730.33 105.909L730.707 111.195L732.899 141.95L733.283 147.328L735.792 182.951L736.177 188.396L739.314 232.349L739.715 237.978L741.212 258.989L742.818 281.572L743.228 287.302L743.856 296.167L746.156 328.453L746.582 334.392L749.142 370.408L749.568 376.346L752.153 412.672L752.596 418.828L755.984 466.336L756.452 472.969L757.514 487.89C757.608 489.212 757.961 490.502 758.554 491.687C759.146 492.871 759.966 493.928 760.967 494.796C761.968 495.664 763.129 496.326 764.386 496.745C765.643 497.164 766.97 497.331 768.291 497.237C769.613 497.143 770.903 496.79 772.087 496.198C773.272 495.605 774.329 494.785 775.197 493.784C776.065 492.784 776.727 491.622 777.146 490.365C777.565 489.108 777.732 487.781 777.638 486.46L745.378 35.2316Z" fill="white" stroke="#020772" stroke-width="7" stroke-miterlimit="10" stroke-linecap="round"/>
</svg>
