<svg width="964" height="521" viewBox="0 0 964 521" fill="none" xmlns="http://www.w3.org/2000/svg">
<path d="M94.5389 69.3571L106.826 65.2837L101.992 61.821L95.4342 63.9956L94.5389 69.3571Z" fill="#161616"/>
<path d="M139.295 394.045L139.136 364.77L158.717 352.759L158.583 347.214L139.103 359.158L138.944 329.047L157.872 318.274L157.738 312.829L138.91 323.544L138.726 290.254L156.935 279.908L156.801 274.463L138.701 284.742L138.517 251.629L156.032 242.871L155.898 237.56L138.484 246.267L138.275 207.867L155.003 200.089L154.877 194.853L138.266 202.59L138.057 165.428L153.999 159.054L153.874 153.994C153.707 154.019 153.544 154.064 153.389 154.128L138.032 160.259L137.857 128.166L153.104 122.52L152.979 117.443L137.823 123.055L137.681 95.8717L145.861 93.1534L141.027 89.6989L137.681 90.8198V87.265L132.855 83.8191L132.905 92.4091L116.177 97.9711C116.177 85.9937 116.252 77.0105 116.302 71.967L111.551 68.5713C111.484 72.6864 111.426 83.7437 111.376 99.5603L92.6817 105.767L92.807 80.1388L88.2656 107.239L87.8555 109.647L87.3622 112.592L87.8474 112.433L87.6967 141.657L82.1428 143.723L81.223 149.185L87.6717 146.793L87.5043 180.475L75.1505 185.41L74.2222 190.955L87.4794 185.652L87.2785 226.361L66.5858 235.963L65.6236 241.709L87.1698 231.672L86.9689 272.037L63.0559 283.989L62.7047 259.106L58.2715 285.537V286.373L58.0959 286.457L57.1173 292.312L58.347 291.693L58.8825 330.042L49.9327 335.128L49.0379 340.456C49.1866 340.488 49.3372 340.507 49.4891 340.514C49.9231 340.524 50.3516 340.414 50.7274 340.197L58.9576 335.521L59.426 368.743L42.6978 378.262L41.6772 384.376L59.5012 374.23L59.9696 407.687L35.2619 422.876L34.2083 429.157L60.0868 413.266L60.6304 452.125L26.0614 477.686L24.9154 484.503L159.511 385.095L159.369 379.24L139.295 394.045ZM133.223 162.225L115.934 169.133C115.934 157.516 115.934 146.55 115.993 136.321L133.047 129.997L133.223 162.225ZM132.863 97.5111L133.014 124.887L116.001 131.193C116.001 120.788 116.051 111.337 116.076 103.09L132.863 97.5111ZM111.275 104.679C111.275 113.043 111.225 122.595 111.2 132.975L92.4309 139.926L92.573 110.885L111.275 104.679ZM63.1311 289.376L86.944 277.466L86.7598 314.268L63.7 327.391L63.1311 289.376ZM63.7417 332.87L86.7349 319.813L86.5674 353.362L64.2101 366.084L63.7417 332.87ZM64.2857 371.57L86.5425 358.907L86.3751 391.527L64.7537 404.793L64.2857 371.57ZM65.3647 448.629L64.8292 410.363L86.3501 397.165L86.1745 433.264L65.3647 448.629ZM92.4056 145.011L111.183 138.044C111.183 148.357 111.142 159.431 111.125 171.007L92.2385 178.535L92.4056 145.011ZM92.2132 183.737L111.116 176.209C111.116 188.756 111.116 201.912 111.058 215.27L92.0127 224.144L92.2132 183.737ZM91.9874 229.43L111.049 220.548C111.049 233.621 111.049 246.87 111.049 260.018L91.8118 269.628L91.9874 229.43ZM91.7615 275.006L110.999 265.388C110.999 277.281 110.999 289.05 110.999 300.517L91.6112 311.524L91.7615 275.006ZM91.5524 317.045L110.957 306.021C110.957 317.63 110.957 328.855 110.957 339.477L91.4103 350.602L91.5524 317.045ZM91.3601 356.13L110.924 344.989C110.924 356.364 110.924 366.945 110.924 376.43L91.2098 388.516L91.3601 356.13ZM90.9921 429.676L91.1677 394.17L110.899 382.067C110.899 395.818 110.899 406.9 110.899 414.244C110.903 414.468 110.936 414.69 110.999 414.905L90.9921 429.676ZM115.926 174.26L133.248 167.335L133.457 204.815L115.892 213.012C115.884 199.662 115.901 186.664 115.926 174.294V174.26ZM115.859 218.306L133.482 210.101L133.699 248.668L115.808 257.609C115.825 244.369 115.842 231.195 115.859 218.339V218.306ZM115.808 262.987L133.725 254.021L133.909 287.477L115.775 297.782C115.783 286.248 115.792 274.605 115.808 263.021V262.987ZM115.767 303.294L133.959 293.006L134.143 326.295L115.742 336.759C115.75 325.81 115.758 314.586 115.767 303.327V303.294ZM115.767 342.254L134.168 331.774L134.335 362.069L115.725 373.486C115.717 363.449 115.725 353.002 115.733 342.288L115.767 342.254ZM115.717 411.434C115.717 401.338 115.717 390.523 115.717 379.123L134.36 367.681L134.519 397.533L115.717 411.434Z" fill="#161616"/>
<path d="M643.185 97.352L644.021 69.4575L688.025 70.4279L695.168 65.7774L644.147 64.6565L644.414 55.6902L639.613 55.5816L639.346 64.5479L609.895 63.8955L610.155 54.9375L605.354 54.8287L605.086 63.795L575.636 63.1426L575.895 54.1762L571.094 54.076L570.827 63.0339L537.211 62.2896L537.479 53.3314L532.678 53.2228L532.41 62.1891L495.608 61.3527L495.876 52.3948L491.066 52.2859L490.807 61.2525L455.585 60.4745L455.853 51.5249L451.044 51.4162L450.785 60.3658L415.563 59.5878L415.831 50.6215L411.03 50.5212L410.762 59.4792L378.418 58.7681L378.686 49.8018L373.885 49.7015L373.617 58.6595L345.447 58.0406L345.706 49.0742L340.905 48.9738L340.645 57.9317L308.945 57.2376L309.213 48.2713L304.404 48.1625L304.145 57.1288L274.686 56.4764L274.953 47.5184L270.153 47.4098L269.885 56.3677L240.426 55.7237L240.694 46.7573L235.893 46.6485L235.625 55.6148L202.002 54.8705L202.269 45.9795V45.9126L197.46 45.8037L197.192 54.7703L160.39 53.9338L160.658 44.9924L155.857 44.8838L155.589 53.8334L124.642 53.1475L127.803 55.4057L131.567 58.1075L155.48 58.6344L154.995 74.8607L159.687 78.2064L160.265 58.7181L197.067 59.5545L196.339 84.0196L170.118 83.2416C169.75 83.2365 169.386 83.3143 169.053 83.4693C168.72 83.6242 168.427 83.8524 168.194 84.1366C169.942 85.3076 171.673 86.6459 172.376 88.118L196.172 88.8206L195.335 116.991L173.112 116.33C173.112 117.861 173.187 119.467 173.229 121.14L195.193 121.792L194.231 154.128L174.023 153.525C174.023 155.106 174.099 156.704 174.141 158.335L194.081 158.929L193.035 194.142L175.002 193.598C175.002 195.196 175.077 196.802 175.119 198.408L192.893 198.943L191.848 234.148L175.956 233.679C175.997 235.277 176.031 236.883 176.073 238.488L191.68 238.949L190.585 275.751L176.976 275.341C176.976 276.955 177.051 278.553 177.093 280.15L190.476 280.552L189.472 314.159L177.946 313.816C177.988 315.439 178.03 317.036 178.063 318.625L189.33 318.96L188.452 348.41L178.783 348.126C178.824 349.798 178.866 351.363 178.9 352.935L188.31 353.211L187.473 381.933C187.467 382.18 187.501 382.425 187.574 382.661L179.644 382.427C179.644 384.292 179.728 385.898 179.761 387.236L233.024 388.825L233.116 384.024L230.699 383.949L231.536 354.499L233.627 354.558L233.718 349.757L231.678 349.698L232.514 320.248L234.229 320.298L234.312 315.497L232.639 315.447L233.635 281.831H234.923L235.015 277.03L233.777 276.989L234.873 240.186L264.323 241.023L260.902 388.19L265.711 388.131L269.199 241.274L298.649 242.152L295.195 387.746L300.004 387.679L303.45 242.294L335.134 243.239L334.038 280.041L175.529 276.487L175.228 281.279L333.896 284.842L332.9 318.45L178.732 314.978L178.44 319.779L332.758 323.251L331.88 352.701L174.634 349.154L174.341 353.955L331.713 357.502L330.876 386.952L170.963 383.339L170.67 388.14L629.342 400.686C629.265 400.132 629.246 399.571 629.284 399.013C629.284 398.921 629.284 398.837 629.284 398.754L629.484 395.91L599.9 395.073C600.019 394.81 600.087 394.526 600.101 394.237L600.938 365.657L630.354 366.493L629.601 391.828C629.596 392.077 629.63 392.326 629.702 392.564L629.752 391.853C630.103 386.768 630.452 381.685 630.797 376.605C631.031 373.26 631.263 369.914 631.492 366.568C631.6 364.971 631.718 363.373 631.826 361.776C631.985 359.392 632.152 357.017 632.311 354.641L633.842 332.359C633.951 330.762 634.068 329.156 634.176 327.558C634.176 327.558 634.176 327.466 634.176 327.416C634.879 317.117 635.587 306.823 636.301 296.535C636.359 295.699 636.418 294.863 636.468 294.026C636.585 292.42 636.697 290.82 636.803 289.225C637.188 283.649 637.57 278.073 637.949 272.497L638.551 252.423H639.329L639.655 247.63H638.693L639.739 212.418L642.073 212.493C642.181 210.895 642.29 209.289 642.407 207.692L639.898 207.616L640.943 172.412L644.841 172.52L645.167 167.728L641.094 167.611L642.056 135.275L647.383 135.434C647.489 133.834 647.601 132.236 647.718 130.641L642.198 130.474L643.034 102.304L649.558 102.504C649.532 100.894 649.672 99.2849 649.976 97.7032L643.185 97.352ZM225.881 383.857L192.115 382.854C192.197 382.619 192.245 382.374 192.258 382.126L193.094 353.403L226.734 354.407L225.881 383.857ZM226.893 349.564L193.253 348.561L194.089 319.11L227.73 320.114L226.893 349.564ZM227.914 315.313L194.273 314.309L195.277 280.702L228.909 281.698L227.914 315.313ZM229.051 276.897L195.419 275.901L196.515 239.099L230.147 240.145L229.051 276.897ZM230.289 235.285L196.69 234.29L197.736 199.085L231.36 200.08L230.289 235.285ZM231.477 195.271L197.845 194.276L198.899 159.063L232.514 160.058L231.477 195.271ZM232.656 155.257L199.041 154.262L200.003 121.926L233.618 122.93L232.656 155.257ZM233.76 118.129L200.145 117.125L200.981 88.9628L234.597 89.958L233.76 118.129ZM234.739 85.157L201.123 84.1534L201.851 59.6464L235.475 60.3909L234.739 85.157ZM264.54 236.305L235.09 235.427L236.136 200.214L265.577 201.092L264.54 236.305ZM265.728 196.291L236.278 195.455L237.315 160.25L266.765 161.087L265.728 196.291ZM266.907 156.277L237.457 155.399L238.419 123.072L267.869 123.95L266.907 156.277ZM268.011 119.149L238.561 118.313L239.398 90.142L268.848 91.0203L268.011 119.149ZM268.99 86.1774L239.54 85.341L240.276 60.5414L269.734 61.1939L268.99 86.1774ZM298.791 237.326L269.341 236.489L270.387 201.276L299.829 202.113L298.791 237.326ZM299.971 197.312L270.529 196.434L271.566 161.22L301.016 162.057L299.971 197.312ZM301.158 157.298L271.708 156.419L272.67 124.092L302.12 124.929L301.158 157.298ZM302.263 120.169L272.812 119.291L273.649 91.1208L303.099 91.9572L302.263 120.169ZM303.241 87.1978L273.791 86.3198L274.535 61.2273L303.994 61.8798L303.241 87.1978ZM335.276 238.413L303.592 237.468L304.638 202.255L336.321 203.2L335.276 238.413ZM336.463 198.399L304.78 197.454L305.817 162.241L337.509 163.186L336.463 198.399ZM337.651 158.385L305.96 157.44L306.921 125.113L338.613 126.058L337.651 158.385ZM338.755 121.248L307.064 120.312L307.9 92.1412L339.592 93.0862L338.755 121.248ZM339.734 88.2852L308.042 87.3402L308.795 62.0135L340.487 62.7078L339.734 88.2852ZM363.848 387.922L335.669 387.086L336.505 357.636L364.684 358.472L363.848 387.922ZM364.86 353.671L336.689 352.835L337.526 323.393L365.704 324.229L364.86 353.671ZM365.88 319.378L337.701 318.542L338.697 284.935L366.876 285.771L365.88 319.378ZM367.018 280.962L338.839 280.125L339.934 243.323L368.105 244.159L367.018 280.962ZM368.247 239.35L340.077 238.514L341.122 203.3L369.293 204.137L368.247 239.35ZM369.435 199.336L341.265 198.499L342.31 163.287L370.48 164.123L369.435 199.336ZM370.623 159.322L342.452 158.486L343.414 126.158L371.585 126.994L370.623 159.322ZM371.727 122.193L343.556 121.357L344.393 93.1867L372.563 94.0231L371.727 122.193ZM372.705 89.2221L344.535 88.3857L345.296 62.7746L373.467 63.3935L372.705 89.2221ZM400.976 388.984L368.649 388.023L369.485 358.572L401.821 359.534L400.976 388.984ZM401.996 354.691L369.661 353.897L370.539 324.447L402.866 325.409L401.996 354.691ZM403.008 320.44L370.664 319.604L371.66 285.988L403.987 286.95L403.008 320.44ZM404.146 282.024L371.819 281.062L372.906 244.26L405.242 245.222L404.146 282.024ZM405.384 240.412L373.048 239.45L374.094 204.237L406.429 205.199L405.384 240.412ZM406.572 200.398L374.236 199.436L375.281 164.223L407.617 165.185L406.572 200.398ZM407.759 160.384L375.424 159.422L376.385 127.095L408.713 128.057L407.759 160.384ZM408.855 123.256L376.528 122.294L377.364 94.1234L409.692 95.0854L408.855 123.256ZM409.834 90.2844L377.506 89.3224L378.267 63.4605L410.611 64.1799L409.834 90.2844ZM440.99 390.13L405.777 389.085L406.63 359.752L441.835 360.797L440.99 390.13ZM442.002 355.879L406.798 354.834L407.634 325.383L442.847 326.429L442.002 355.879ZM443.022 321.628L407.81 320.582L408.805 286.967L444.018 288.021L443.022 321.628ZM444.16 283.22L408.947 282.166L410.043 245.364L445.256 246.418L444.16 283.22ZM445.398 241.6L410.185 240.554L411.23 205.341L446.435 206.395L445.398 241.6ZM446.586 201.594L411.373 200.54L412.418 165.327L447.614 166.54L446.586 201.594ZM447.765 161.58L412.56 160.526L413.514 128.199L448.727 129.244L447.765 161.58ZM448.869 124.443L413.656 123.398L414.492 95.2275L449.706 96.273L448.869 124.443ZM449.848 91.472L414.635 90.4265L415.413 64.2802L450.634 65.058L449.848 91.472ZM481.004 391.326L445.791 390.272L446.627 360.822L481.84 361.876L481.004 391.326ZM482.016 357.033L446.803 355.988L447.681 326.538L482.895 327.592L482.016 357.033ZM483.037 322.791L447.824 321.737L448.819 288.13L484.032 289.175L483.037 322.791ZM484.174 284.374L448.961 283.328L450.057 246.526L485.261 247.572L484.174 284.374ZM485.404 242.762L450.199 241.717L451.244 206.504L486.449 207.55L485.404 242.762ZM486.591 202.749L451.387 201.703L452.424 166.49L487.637 167.535L486.591 202.749ZM487.779 162.734L452.566 161.689L453.528 129.353L488.741 130.407L487.779 162.734ZM488.883 125.606L453.67 124.552L454.507 96.39L489.719 97.4355L488.883 125.606ZM489.862 92.6345L454.649 91.5806L455.435 65.1333L490.656 65.9111L489.862 92.6345ZM522.649 392.531L485.805 391.435L486.642 361.985L523.444 363.081L522.607 392.213C522.624 392.481 522.641 392.581 522.649 392.69V392.531ZM523.628 358.238L486.825 357.142L487.704 327.692L524.506 328.788L523.628 358.238ZM524.648 323.987L487.846 322.891L488.841 289.275L525.644 290.371L524.648 323.987ZM525.786 285.57L488.983 284.474L490.071 247.672L526.873 248.768L525.786 285.57ZM527.024 243.959L490.221 242.863L491.259 207.65L528.061 208.746L527.024 243.959ZM528.211 203.945L491.409 202.849L492.455 167.636L529.257 168.732L528.211 203.945ZM529.391 163.93L492.588 162.835L493.55 130.507L530.352 131.603L529.391 163.93ZM530.495 126.802L493.692 125.706L494.529 97.536L531.331 98.6317L530.495 126.802ZM531.473 93.8307L494.671 92.735L495.466 65.9697L532.268 66.8062L531.473 93.8307ZM561.116 393.635L527.383 392.631C527.406 392.526 527.419 392.42 527.425 392.313L528.261 363.181L561.877 364.176L561.04 393.024C561.013 393.297 561.039 393.572 561.116 393.836V393.635ZM562.044 359.342L528.437 358.347L529.273 328.896L562.881 329.892L562.044 359.342ZM563.056 325.091L529.449 324.095L530.444 290.48L564.06 291.484L563.056 325.091ZM564.202 286.683L530.587 285.679L531.682 248.877L565.289 249.88L564.202 286.683ZM565.432 245.071L531.825 244.067L532.87 208.854L566.477 209.858L565.432 245.071ZM566.619 205.057L533.012 204.053L534.049 168.84L567.665 169.844L566.619 205.057ZM567.807 165.043L534.191 164.039L535.154 131.712L568.769 132.707L567.807 165.043ZM568.911 127.906L535.296 126.911L536.132 98.7404L569.748 99.744L568.911 127.906ZM569.89 94.9347L536.274 93.9394L537.111 66.8564L570.726 67.6007L569.89 94.9347ZM595.451 394.622L565.741 393.735C565.803 393.54 565.84 393.337 565.85 393.133L566.686 364.285L596.136 365.163L595.3 393.743C595.256 394.129 595.308 394.52 595.451 394.881V394.622ZM596.287 360.329L566.837 359.451L567.673 330L597.123 330.879L596.287 360.329ZM597.299 326.036L567.849 325.199L568.853 291.592L598.303 292.471L597.299 326.036ZM598.445 287.628L568.995 286.791L570.082 249.989L599.532 250.826L598.445 287.628ZM599.674 246.008L570.224 245.171L571.27 209.958L600.72 210.837L599.674 246.008ZM600.862 205.994L571.412 205.157L572.457 169.944L601.908 170.781L600.862 205.994ZM602.05 165.988L572.6 165.11L573.562 132.774L603.012 133.652L602.05 165.988ZM603.154 128.851L573.704 128.015L574.54 99.8529L603.99 100.689L603.154 128.851ZM604.132 95.8799L574.682 95.0435L575.519 67.6677L604.969 68.3201L604.132 95.8799ZM630.505 361.308L601.088 360.429L601.925 330.979L631.349 331.857L630.505 361.308ZM631.525 327.056L602.1 326.178L603.104 292.571L632.529 293.407L631.525 327.056ZM632.671 288.64L603.246 287.803L604.333 251.001L633.767 251.838L632.671 288.64ZM633.909 247.028L604.476 246.192L605.521 210.987L634.954 211.823L633.909 247.028ZM635.097 207.014L605.663 206.178L606.709 170.965L636.142 171.801L635.097 207.014ZM636.293 167L606.851 166.164L607.813 133.828L637.255 134.706L636.293 167ZM637.397 129.872L607.955 128.994L608.792 100.823L638.233 101.659L637.397 129.872ZM638.375 96.9003L608.934 96.022L609.77 68.4204L639.22 69.0728L638.375 96.9003Z" fill="#161616"/>
<path d="M120.426 50.2033L120.485 48.5974L120.619 44.1226L115.818 44.0139L115.734 46.8493L120.426 50.2033Z" fill="#161616"/>
<path d="M734.672 468.234C734.816 467.945 734.902 467.629 734.922 467.306L737.223 427.727L752.495 438.341L752.052 432.185L737.557 422.148L739.448 389.612L749.485 395.901L749.058 389.963L739.782 384.108L741.722 350.911L746.498 353.914L746.072 347.975L742.04 345.466L743.772 315.715L743.144 306.848L742.734 301.119L741.129 278.536L739.899 299.513L716.572 286.524L718.144 246.376L739.631 257.559L739.23 251.93L718.32 241.056L719.9 200.666L736.06 207.968L735.675 202.523L720.11 195.488L721.423 161.957L733.132 166.9L732.748 161.522L721.615 156.829L722.753 127.789L730.556 130.767L730.18 125.48L722.953 122.729L724.492 83.5344L727.261 84.5799L726.885 79.3105L724.141 78.2733C723.929 77.9909 723.657 77.7588 723.345 77.594C723.032 77.4291 722.687 77.3356 722.335 77.3199C722.152 77.3151 721.969 77.3318 721.791 77.3699L717.107 75.6052L712.089 78.8588L719.767 81.7527L718.236 120.914L699.835 113.888C700.337 101.71 700.713 92.1412 700.939 86.119L696.021 89.314C695.812 94.8928 695.502 102.621 695.109 112.089L678.607 105.783L678.875 100.472L673.898 103.7V103.985L673.63 103.884L669.607 106.502L669.54 107.464L673.647 109.028L672.3 136.019L667.708 134.079L667.365 139.148L672.049 141.122L670.46 173.056L665.199 170.68L664.848 175.791L670.209 178.208L668.377 215.01L662.364 211.882L662.004 217.11L668.11 220.288L666.211 258.495L659.419 254.715L659.051 260.009L665.952 263.849L664.321 296.653L656.86 291.969L656.484 297.405L664.011 302.148L662.339 335.512L654.167 330.393L653.798 335.83L662.063 341.016L660.691 368.684L651.959 362.612L651.574 368.2L660.406 374.339L658.867 405.286L649.55 397.558L649.366 400.309C649.295 401.262 649.063 402.195 648.68 403.07L756.309 492.44L755.841 485.808L734.672 468.234ZM699.634 118.931L718.035 125.957L716.94 154.83L698.488 147.043C698.89 136.78 699.283 127.321 699.634 118.931ZM678.356 110.81L694.9 117.125C694.565 125.388 694.172 134.773 693.737 145.036L677.009 137.977L678.356 110.81ZM676.792 143.121L693.562 150.197C693.135 160.359 692.675 171.316 692.182 182.817L675.203 175.147L676.792 143.121ZM674.943 180.341L691.964 188.028C691.437 200.314 690.885 213.204 690.292 226.461L673.069 217.494L674.943 180.341ZM681.752 424.298L663.568 409.201L665.14 377.618L683.24 390.164C682.647 402.216 682.178 413.658 681.71 424.264L681.752 424.298ZM683.491 384.518L665.425 371.972L666.813 343.994L684.763 355.26C684.319 365.238 683.859 375.033 683.483 384.484L683.491 384.518ZM684.997 349.731L667.081 338.482L668.754 305.117L686.461 316.233C685.917 327.525 685.432 338.733 684.955 349.715L684.997 349.731ZM686.67 310.713L668.996 299.622L670.669 266.492L688.184 276.244C687.665 287.695 687.146 299.237 686.644 310.679L686.67 310.713ZM688.393 270.874L670.912 261.147L672.819 222.772L690.074 231.755C689.497 244.527 688.936 257.634 688.368 270.841L688.393 270.874ZM705.59 444.104L685.766 427.643C686.194 427.222 686.445 426.654 686.469 426.054C686.795 418.644 687.305 407.402 687.891 393.434L707.053 406.758L705.59 444.104ZM707.262 401.07L688.125 387.763C688.51 378.788 688.962 368.843 689.405 358.187L708.475 370.157L707.262 401.07ZM708.693 364.62L689.647 352.667C690.107 342.062 690.592 330.82 691.103 319.211L710.006 331.079L708.693 364.62ZM710.248 325.459L691.362 313.607C691.855 302.282 692.358 290.605 692.868 278.812L711.67 289.275L710.248 325.459ZM711.879 283.897L693.102 273.442C693.662 260.369 694.231 247.187 694.775 234.131L713.435 243.841L711.879 283.897ZM713.661 238.572L695.017 228.87C695.586 215.638 696.138 202.623 696.69 190.119L715.25 198.483L713.661 238.572ZM696.866 184.941C697.359 173.441 697.819 162.425 698.254 152.137L716.722 159.924L715.409 193.314L696.866 184.941ZM730.272 464.563L710.148 447.834C710.21 447.648 710.246 447.454 710.256 447.257L711.72 409.953L732.63 424.482L730.272 464.563ZM732.94 418.878L711.921 404.291L713.151 373.067L734.797 386.659L732.94 418.878ZM735.132 381.172L713.385 367.514L714.698 333.931L737.072 347.975L735.132 381.172ZM714.915 328.403L716.346 291.885L739.581 304.824L737.39 342.505L714.915 328.403Z" fill="#161616"/>
<path d="M745.378 54.6029C742.811 47.6642 738.182 41.6776 732.112 37.448L94.6479 23.3713C88.3827 27.8646 83.0649 33.5491 78.9987 40.0996L4.13964 486.376C3.91996 487.683 3.95981 489.02 4.25685 490.311C4.55388 491.602 5.10234 492.822 5.87087 493.901C6.63939 494.981 7.61281 495.898 8.73583 496.601C9.85885 497.304 11.1094 497.779 12.416 497.998C13.7225 498.218 15.0594 498.178 16.3505 497.881C17.6417 497.584 18.8616 497.036 19.9408 496.267C21.02 495.499 21.9374 494.525 22.6404 493.402C23.3433 492.279 23.8183 491.029 24.038 489.722L24.916 484.494L26.062 477.686L34.2003 429.174L35.2544 422.893L41.7031 384.418L42.7233 378.303L49.0634 340.497L49.9582 335.17L57.1433 292.353L58.1218 286.499L58.2807 285.57L62.7135 259.14L65.6328 241.734L66.5946 235.988L74.1223 190.989L75.0506 185.443L81.1232 149.218L82.0433 143.756L87.2623 112.625L87.7557 109.681L88.1657 107.272L92.7076 80.1721L94.5225 69.3573L95.4174 63.9958L96.4461 57.8734L101.975 61.8212L106.809 65.2839L111.451 68.6296L116.202 72.0255L132.772 83.8774L137.598 87.3235L140.994 89.7574L145.828 93.2119L152.469 97.9626L152.946 117.501L153.072 122.578L153.841 154.053L153.966 159.113L154.845 194.911L154.97 200.147L155.882 237.619L156.016 242.93L156.785 274.521L156.919 279.966L157.756 312.887L157.889 318.333L158.6 347.247L158.734 352.793L159.378 379.24L159.52 385.095L159.704 392.439C159.768 394.644 160.7 396.735 162.298 398.256C163.896 399.777 166.03 400.605 168.236 400.56L171.749 400.477C173.954 400.413 176.044 399.481 177.566 397.883C179.087 396.285 179.915 394.151 179.87 391.945C179.87 391.945 179.828 390.272 179.761 387.303C179.761 385.965 179.686 384.359 179.644 382.494C179.477 375.685 179.226 365.515 178.917 353.002C178.917 351.429 178.841 349.832 178.799 348.192L178.08 318.692C178.08 317.103 178.005 315.505 177.963 313.883C177.704 303.193 177.428 291.86 177.127 280.217C177.127 278.62 177.043 277.022 177.01 275.408C176.709 263.296 176.407 250.893 176.106 238.539C176.065 236.933 176.031 235.327 175.989 233.729C175.696 221.777 175.404 209.917 175.153 198.458C175.111 196.852 175.069 195.246 175.036 193.648C174.726 181.219 174.442 169.325 174.199 158.385C174.157 156.754 174.116 155.157 174.082 153.576C173.781 141.197 173.505 130.156 173.288 121.19C173.246 119.517 173.204 117.911 173.17 116.38C172.861 103.558 172.668 95.9135 172.668 95.9135C172.618 93.6552 173.354 90.7445 172.627 88.62C172.573 88.4651 172.509 88.3141 172.434 88.1683C171.707 86.7046 169.975 85.3579 168.252 84.1869C167.048 83.3505 165.844 82.6479 164.957 82.0122L159.729 78.2734L155.037 74.9278L131.618 58.1995L127.854 55.4979L124.692 53.2396L120.51 50.262L115.818 46.9163L111.727 43.9889L115.909 44.0809L120.711 44.1896L155.932 44.9674L160.733 45.0762L197.535 45.9126L202.344 46.0213L235.96 46.7574L240.761 46.8661L270.22 47.5185L275.02 47.6273L304.471 48.2714L309.28 48.38L340.972 49.0827L345.773 49.1829L373.952 49.8103L378.753 49.9107L411.097 50.6299L415.898 50.7304L451.111 51.5082L455.92 51.617L491.133 52.3948L495.942 52.5035L532.744 53.3399L537.546 53.4487L571.161 54.1931L575.962 54.2935L605.421 54.946L610.222 55.0546L639.68 55.6986L644.481 55.8075L708.551 57.221L695.193 65.7775L688.05 70.428L652.653 93.4545C651.964 93.9287 651.376 94.5352 650.924 95.2388C650.472 95.9424 650.164 96.7291 650.018 97.5528C649.714 99.1345 649.574 100.743 649.6 102.354C649.6 103.115 649.6 103.859 649.541 104.553C649.475 105.683 649.383 106.803 649.307 107.899L648.404 121.006C648.187 124.156 647.972 127.31 647.76 130.466C647.643 132.061 647.531 133.658 647.425 135.258C647.292 137.274 647.149 139.29 647.015 141.306C646.424 149.954 645.828 158.597 645.225 167.234C645.225 167.335 645.225 167.443 645.225 167.544L644.899 172.336C644.342 180.65 643.77 188.959 643.185 197.262L642.482 207.508C642.365 209.105 642.256 210.711 642.148 212.309L640.943 229.832C640.542 235.709 640.137 241.592 639.73 247.48L639.404 252.273C639.147 255.975 638.894 259.68 638.643 263.389C638.434 266.366 638.233 269.344 638.024 272.321C637.639 277.897 637.257 283.474 636.878 289.05C636.766 290.644 636.655 292.245 636.544 293.851C636.493 294.687 636.435 295.524 636.376 296.36C635.668 306.653 634.96 316.947 634.252 327.24C634.252 327.29 634.252 327.341 634.252 327.383C634.143 328.98 634.026 330.586 633.917 332.184L632.387 354.466C632.228 356.841 632.06 359.216 631.902 361.6C631.793 363.198 631.676 364.795 631.567 366.393C631.344 369.738 631.113 373.084 630.873 376.43C630.533 381.515 630.184 386.598 629.827 391.678L629.777 392.389L629.551 395.734L629.35 398.578C629.35 398.662 629.35 398.745 629.35 398.837C629.313 399.395 629.332 399.956 629.409 400.51C629.674 402.407 630.582 404.155 631.981 405.463C633.38 406.77 635.186 407.558 637.096 407.695L640.6 407.929C642.312 408.04 644.016 407.622 645.483 406.732C646.949 405.842 648.106 404.522 648.797 402.952C649.18 402.078 649.413 401.145 649.483 400.192L649.667 397.441L651.691 368.049L652.076 362.462L653.916 335.696L654.284 330.26L656.55 297.272L656.927 291.835L659.119 259.876L659.486 254.581L662.071 216.942L662.431 211.715L664.94 175.59L665.291 170.48L667.457 138.947L667.8 133.878L669.632 107.263L669.699 106.302L673.722 103.684L673.998 103.5L678.975 100.271L696.121 89.1133L701.04 85.9184L712.197 78.6582L717.216 75.4046L726.349 69.466L727.035 79.1099L727.412 84.3793L730.33 125.28L730.707 130.566L732.899 161.321L733.283 166.699L735.792 202.322L736.177 207.767L739.314 251.721L739.715 257.35L741.212 278.36L742.818 300.943L743.228 306.673L743.856 315.539L746.156 347.824L746.582 353.763L749.142 389.779L749.568 395.718L752.153 432.043L752.596 438.199L755.984 485.707L756.452 492.34L757.514 507.262C757.608 508.583 757.961 509.873 758.554 511.058C759.146 512.243 759.966 513.299 760.967 514.167C761.968 515.035 763.129 515.697 764.386 516.116C765.643 516.535 766.97 516.702 768.291 516.608C769.613 516.515 770.903 516.161 772.087 515.569C773.272 514.976 774.329 514.157 775.197 513.156C776.065 512.155 776.727 510.993 777.146 509.736C777.565 508.48 777.732 507.153 777.638 505.831L745.378 54.6029Z" fill="white" stroke="#020772" stroke-width="7" stroke-miterlimit="10" stroke-linecap="round"/>
<path d="M516.293 301.203C514.745 301.203 513.181 301.153 511.634 301.053C511.499 301.046 511.369 301.002 511.257 300.927C509.292 299.631 508.154 297.983 507.962 296.16C507.703 293.65 509.292 291.141 512.42 289.075C515.893 286.966 519.812 285.697 523.862 285.37C524.932 285.256 526.007 285.201 527.082 285.203C535.187 285.203 541.168 288.297 541.619 292.73C541.731 294.324 541.219 295.899 540.189 297.122C540.095 297.243 539.967 297.333 539.821 297.381C532.235 299.914 524.29 301.204 516.293 301.203Z" fill="#020302"/>
<path d="M527.074 286.005C534.518 286.005 540.456 288.799 540.833 292.822C540.924 294.216 540.468 295.59 539.561 296.653C532.056 299.157 524.196 300.433 516.284 300.433C514.753 300.433 513.214 300.383 511.675 300.283C510.902 299.853 510.236 299.253 509.727 298.529C509.219 297.805 508.881 296.974 508.74 296.101C508.271 291.517 515.071 287.067 523.937 286.164C524.979 286.058 526.026 286.005 527.074 286.005ZM527.074 284.433C525.986 284.433 524.882 284.491 523.778 284.6C519.599 284.942 515.557 286.257 511.977 288.439C508.589 290.647 506.883 293.458 507.175 296.26C507.384 298.326 508.648 300.166 510.814 301.596C511.041 301.747 511.303 301.837 511.575 301.855C513.139 301.956 514.72 301.997 516.284 301.997C524.364 302 532.39 300.698 540.055 298.142C540.351 298.047 540.611 297.862 540.799 297.615C541.956 296.235 542.529 294.459 542.397 292.663C541.895 287.82 535.597 284.433 527.074 284.433Z" fill="black"/>
<path d="M516.293 303.126C514.704 303.126 513.098 303.068 511.517 302.976C494.48 301.888 478.305 295.097 465.598 283.697C452.891 272.297 444.391 256.951 441.468 240.132C438.545 223.312 441.369 205.999 449.485 190.98C457.601 175.961 470.536 164.111 486.207 157.339C488.215 156.503 490.289 155.666 492.371 154.989C493.475 154.621 494.605 154.278 495.717 153.96C498.117 153.283 500.585 152.722 503.036 152.287C507.453 151.5 511.931 151.102 516.418 151.1C530.943 151.118 545.159 155.295 557.384 163.138C569.61 170.98 579.334 182.16 585.406 195.354C591.852 209.42 593.873 225.113 591.202 240.353C588.805 253.823 582.821 266.398 573.881 276.754C564.94 287.11 553.374 294.866 540.399 299.203C532.626 301.798 524.487 303.122 516.293 303.126Z" fill="#D8DBD8"/>
<path d="M516.435 153.802C530.44 153.819 544.148 157.845 555.939 165.404C567.73 172.963 577.11 183.739 582.972 196.459C588.216 207.84 590.451 220.377 589.463 232.869C588.474 245.362 584.295 257.391 577.326 267.805C570.618 277.847 561.536 286.078 550.885 291.768C540.234 297.458 528.344 300.432 516.268 300.426C514.737 300.426 513.198 300.375 511.659 300.275C495.248 299.198 479.675 292.635 467.444 281.641C455.213 270.646 447.033 255.859 444.22 239.655C441.406 223.451 444.122 206.772 451.932 192.297C459.741 177.823 472.19 166.395 487.278 159.849C489.226 159.013 491.209 158.252 493.216 157.591C494.287 157.232 495.366 156.905 496.453 156.596C498.778 155.943 501.137 155.4 503.512 154.973C507.779 154.217 512.102 153.837 516.435 153.836M516.435 148.449C511.785 148.453 507.145 148.864 502.567 149.679C500.058 150.13 497.482 150.716 494.998 151.418C493.843 151.736 492.681 152.096 491.518 152.481C489.369 153.192 487.228 154.011 485.145 154.906C468.923 161.92 455.533 174.19 447.133 189.739C438.733 205.289 435.81 223.213 438.836 240.625C441.862 258.038 450.66 273.925 463.814 285.729C476.968 297.532 493.712 304.565 511.35 305.695C513.023 305.795 514.653 305.845 516.293 305.845C524.781 305.847 533.215 304.48 541.268 301.797C554.705 297.309 566.683 289.281 575.94 278.557C585.197 267.834 591.391 254.812 593.87 240.865C595.867 229.55 595.363 217.935 592.394 206.836C589.426 195.737 584.063 185.422 576.684 176.615C569.305 167.809 560.088 160.724 549.68 155.858C539.272 150.992 527.924 148.464 516.435 148.449Z" fill="#001477"/>
<path d="M454.573 266.593C447.777 255.946 443.845 243.725 443.157 231.113C442.47 218.501 445.051 205.925 450.651 194.603C456.506 188.974 472.665 175.959 495.733 178.017C473.351 194.87 446.954 216.726 454.573 266.593Z" fill="#001477"/>
<path d="M507.778 235.344C504.081 178.853 491.217 163.413 487.277 159.816C489.226 158.98 491.208 158.219 493.216 157.558L494.052 157.29L494.771 157.064L495.131 156.964C495.24 156.922 495.352 156.888 495.466 156.863L495.817 156.755L496.486 156.562C522.984 170.062 532.644 183.997 532.644 183.997C532.644 183.997 518.4 218.022 507.778 235.344Z" fill="#001477"/>
<path d="M532.61 183.996C532.61 183.996 522.95 170.061 496.452 156.562C498.777 155.909 501.136 155.365 503.511 154.939C512.101 158.025 529.816 165.302 538.214 170.496C534.4 181.027 532.61 183.996 532.61 183.996Z" fill="#F6B602"/>
<path d="M561.634 229.497C500.727 262.05 524.146 253.051 486.717 264.626C471.711 250.826 460.922 241.926 458.529 220.639C458.529 220.623 486.725 247.02 561.634 229.497Z" fill="#001477"/>
<path d="M561.634 229.497C561.35 229.781 523.996 265.94 500.718 273.961C487.888 266.533 486.717 264.61 486.717 264.61C524.146 253.05 500.726 262.05 561.634 229.497Z" fill="#6FDB11"/>
<path d="M561.634 229.496C561.634 229.496 578.906 210.853 582.971 196.483C586.9 205.057 589.148 214.305 589.596 223.725L561.634 229.496Z" fill="#7ED92B"/>
<path d="M561.634 229.497C575.259 223.274 586.551 205.969 586.551 205.969C588.291 211.741 589.313 217.705 589.596 223.726L561.634 229.497Z" fill="#090C08"/>
<path d="M890.228 273.217C891.639 273.35 893.038 273.596 894.41 273.953C897.546 268.341 911.514 239.803 886.506 214.961C863.68 192.294 841.632 197.781 835.409 199.998C828.768 202.381 825.54 205.744 825.372 207.375C825.063 210.403 826.576 212.393 829.32 216.09C834.365 222.599 838.47 229.784 841.515 237.436C848.767 255.084 841.849 269.989 838.587 275.518C843.606 275.518 849.821 274.974 856.545 274.346C867.151 273.359 879.204 272.239 890.228 273.217Z" fill="#FAA327"/>
<path d="M895.313 274.957L891.809 274.672L881.045 273.836C881.045 273.836 890.856 259.91 891.082 242.713C891.266 231.003 883.779 217.378 879.003 209.942C876.787 206.488 875.156 204.347 875.156 204.347C875.156 204.347 896.568 214.677 901.662 237.736C906.756 260.796 895.313 274.957 895.313 274.957Z" fill="white"/>
<path d="M920.682 303.32C915.32 293.208 904.689 277.483 889.96 276.17C879.187 275.216 867.302 276.32 856.813 277.299C848.851 278.035 841.624 278.704 835.903 278.395C833.431 278.334 830.983 277.897 828.643 277.098C824.762 275.626 821.366 272.548 818.564 269.136C819.359 282.125 819.743 315.138 804.437 326.48C796.198 332.603 787.307 333.431 779.863 332.41H779.688C779.494 332.407 779.304 332.364 779.127 332.285C773.744 331.408 768.548 329.633 763.754 327.032C760.919 328.998 751.208 335.078 739.448 335.078C735.28 335.091 731.151 334.284 727.294 332.703C720.787 330.018 716.421 324.715 714.623 317.38C711.938 306.306 715.685 291.535 723.547 282.251C728.465 276.446 741.948 262.846 760.784 261.909C765.808 261.676 770.833 262.342 775.623 263.875H775.664C784.12 266.534 792.476 271.829 800.64 279.716C800.779 279.852 800.891 280.014 800.967 280.192C801.044 280.371 801.086 280.563 801.088 280.758C801.091 280.952 801.055 281.145 800.983 281.326C800.911 281.507 800.805 281.672 800.669 281.811C800.533 281.951 800.371 282.062 800.193 282.139C800.014 282.216 799.822 282.257 799.627 282.26C799.433 282.263 799.24 282.227 799.059 282.155C798.878 282.083 798.713 281.976 798.574 281.841C792.44 275.897 786.209 271.5 779.88 268.651C800.263 296.001 786.964 322.181 782.297 329.709C789.55 330.443 796.815 328.444 802.672 324.105C819.308 311.751 815.653 268.977 815.218 264.552C813.216 261.446 811.475 258.178 810.016 254.783C808.836 253.11 796.633 236.507 782.807 229.473C779.119 231.422 761.245 240.346 735.876 244.077C709.881 247.924 670.502 247.046 629.844 221.268C625.955 226.838 609.335 253.595 620.568 289.946C626.891 309.392 631.575 319.555 640.207 322.875C639.73 322.34 639.281 321.782 638.86 321.202C630.195 309.283 631.776 286.516 638.919 274.882C649.575 257.509 673.153 257.769 675.353 258.354C701.14 265.271 707.137 292.697 706.652 307.82C706.251 319.688 700.797 328.789 692.048 333.289C691.817 333.504 691.525 333.644 691.212 333.69C687.622 335.344 683.737 336.263 679.786 336.392H678.431C676.67 336.391 674.913 336.237 673.179 335.932H673.12C667.479 334.991 662.295 332.25 658.341 328.119C653.038 329.232 648.897 328.529 645.677 326.999C644.459 326.925 643.249 326.76 642.056 326.505C646.354 338.624 652.334 350.077 659.821 360.53C672.409 378.196 695.285 401.205 732.765 410.582C738.745 410.933 744.759 411.15 750.764 411.242C756.77 411.334 762.917 411.242 768.99 410.782C762.976 411.761 756.895 412.296 750.806 412.723C746.005 413.041 741.196 413.25 736.37 413.408C745.801 421.013 756.209 427.317 767.317 432.153C783.568 439.254 807.741 445.878 836.204 441.219C839.332 438.534 862.308 417.147 847.914 380.446C841.641 379.801 836.572 379.166 836.145 379.116C835.899 379.084 835.665 378.991 835.465 378.845C835.265 378.698 835.105 378.504 834.999 378.279C829.969 383.002 824.115 386.761 817.728 389.37C823.61 385.737 828.989 381.348 833.728 376.314C838.347 371.287 842.167 365.58 845.053 359.393C846.528 356.314 847.772 353.129 848.775 349.866C849.801 346.596 850.639 343.27 851.285 339.905C852.595 333.101 853.211 326.182 853.124 319.254C854.378 326.19 854.524 333.282 853.559 340.264C852.848 345.847 851.463 351.324 849.436 356.574C854.279 355.085 865.788 351.305 869.753 347.909C869.907 347.779 870.087 347.681 870.281 347.622C870.475 347.563 870.678 347.545 870.879 347.567C871.081 347.59 871.275 347.654 871.451 347.754C871.627 347.855 871.78 347.99 871.902 348.151C871.961 348.235 873.734 350.602 876.544 353.914C876.361 348.138 877.355 342.384 879.463 337.002C883.578 326.463 894.084 312.161 920.682 303.32Z" fill="#FAA327"/>
<path d="M825.331 330.946C823.7 349.54 803.048 391.101 741.271 388.433C694.499 386.409 675.337 356.014 668.779 341.377C667.624 338.857 666.655 336.258 665.877 333.598C666.396 333.64 682.421 334.986 687.783 334.05C693.144 333.113 702.529 323.243 704.511 316.844C706.418 310.68 707.296 289.586 694.641 272.858C694.167 272.211 693.665 271.575 693.136 270.951C689.602 266.538 684.905 263.2 679.576 261.313C674.248 259.426 668.498 259.065 662.974 260.269C661.905 260.474 660.851 260.753 659.821 261.106C659.821 261.106 659.821 260.93 659.754 260.604C659.252 257.116 656.367 236.465 657.136 233.906C657.186 233.705 657.278 233.613 657.396 233.663C660.751 235.006 664.173 236.173 667.65 237.159C675.685 239.542 683.851 241.461 692.107 242.906C699.634 244.219 708.618 244.403 716.781 244.135C729.57 243.717 740.359 242.195 740.359 242.195L740.493 242.445L751.467 263.473C751.467 263.473 744.943 267.555 744.307 267.939L741.012 269.989C736.537 272.782 729.009 277.558 728.123 278.52C726.885 279.858 720.093 288.172 717.325 294.964C714.556 301.756 711.202 324.397 727.872 331.348C744.541 338.299 763.001 325.25 763.001 325.25C763.001 325.25 777.22 334.811 794.734 329.073C812.249 323.335 815.227 302.759 815.227 302.759C815.227 302.759 826.945 312.353 825.331 330.946Z" fill="white"/>
<path d="M693.178 329.223C699.56 324.874 703.382 317.388 703.709 307.719C704.185 293.5 698.598 267.671 674.618 261.222C672.05 260.721 650.864 261.097 641.454 276.428C634.939 287.059 633.399 308.622 641.27 319.462C642.677 321.46 644.545 323.089 646.715 324.213H646.807C649.776 325.677 653.281 326.045 657.288 325.292L656.016 320.876C655.456 318.843 654.971 316.785 654.594 314.711C654.211 312.64 653.949 310.548 653.808 308.446C653.669 306.361 653.655 304.269 653.766 302.182C653.903 304.253 654.163 306.314 654.544 308.354C654.926 310.383 655.423 312.388 656.033 314.36C656.644 316.325 657.346 318.257 658.124 320.164L659.328 323.025L659.939 324.506C660.039 324.79 660.14 325.016 660.24 325.342L660.365 325.852C663.577 329.311 667.772 331.702 672.385 332.702C672.51 332.217 672.627 331.732 672.728 331.247C672.937 330.268 673.121 329.281 673.271 328.286C673.581 326.295 673.773 324.28 673.89 322.256C674.09 318.175 673.948 314.084 673.464 310.027C674.441 314.04 675.079 318.128 675.371 322.247C675.504 324.313 675.555 326.429 675.488 328.487C675.488 329.541 675.388 330.586 675.287 331.632C675.245 332.159 675.187 332.686 675.12 333.213C676.64 333.396 678.173 333.455 679.703 333.388C683.211 333.277 686.663 332.481 689.866 331.046C690.503 329.244 691.025 327.403 691.43 325.534C691.883 323.444 692.199 321.326 692.375 319.194C692.559 317.051 692.559 314.897 692.375 312.754C692.172 310.594 691.746 308.461 691.104 306.389C691.985 308.397 692.655 310.49 693.103 312.637C693.55 314.805 693.81 317.007 693.881 319.219C693.95 321.453 693.872 323.688 693.646 325.911C693.521 327.032 693.362 328.127 693.178 329.223Z" fill="white"/>
<path d="M841.331 440.274C844.977 439.512 848.682 438.601 852.446 437.413C854.387 436.803 856.369 436.066 858.301 435.297C860.233 434.527 862.207 433.624 864.098 432.704C865.999 431.764 867.843 430.711 869.618 429.551C871.403 428.388 873.055 427.034 874.545 425.511C873.223 427.214 871.719 428.767 870.061 430.145C868.396 431.527 866.651 432.809 864.833 433.984C863.027 435.18 861.145 436.267 859.246 437.329C857.758 438.166 856.252 438.893 854.713 439.621C855.959 442.967 860.141 452.535 868.43 456.349C870.631 457.38 873.019 457.949 875.448 458.022L874.502 457.186L873.532 456.149C872.28 454.743 871.247 453.155 870.471 451.44C869.685 449.763 869.176 447.969 868.965 446.128C868.847 445.227 868.8 444.319 868.823 443.41C868.823 442.507 868.965 441.612 869.032 440.725C869.091 441.62 869.032 442.515 869.191 443.393C869.294 444.269 869.462 445.136 869.693 445.986C870.125 447.671 870.826 449.275 871.767 450.737C872.686 452.175 873.814 453.469 875.113 454.576L876.1 455.371C876.451 455.613 876.786 455.864 877.137 456.09C877.809 456.531 878.517 456.914 879.253 457.236H879.295C879.525 457.336 879.726 457.491 879.881 457.688C882.146 457.265 884.353 456.574 886.455 455.63C889.836 454.155 892.841 451.936 895.246 449.14C894.604 448.659 893.995 448.137 893.422 447.575C892.775 446.938 892.163 446.265 891.591 445.56C890.463 444.161 889.523 442.62 888.797 440.976C888.066 439.379 887.551 437.691 887.266 435.958C886.991 434.247 886.907 432.51 887.015 430.78C887.153 432.484 887.478 434.167 887.986 435.799C888.996 438.967 890.802 441.824 893.23 444.096C893.82 444.646 894.443 445.16 895.095 445.635C895.698 446.074 896.333 446.469 896.994 446.814C898.485 444.616 899.688 442.235 900.573 439.73C906.579 423.077 901.41 401.071 898.181 394.697C893.799 385.932 879.58 381.942 868.221 381.942C863.78 381.942 857.222 381.432 851.183 380.855C862.625 411.61 848.415 432.386 841.331 440.274Z" fill="white"/>
<path d="M946.585 307.778C937.242 303.646 928.678 310.856 927.273 312.127C927.181 312.247 927.071 312.351 926.946 312.437L926.838 312.504H926.779C924.318 313.899 921.989 315.515 919.82 317.33C917.599 319.153 915.527 321.15 913.622 323.302C912.635 324.347 911.774 325.502 910.862 326.647C909.95 327.793 909.139 328.973 908.403 330.219C906.847 332.676 905.499 335.258 904.371 337.939C905.271 335.151 906.407 332.445 907.767 329.851C908.403 328.521 909.206 327.283 909.95 326.012C910.694 324.74 911.564 323.503 912.459 322.373C914.231 319.992 916.189 317.754 918.314 315.682C920.139 313.88 922.096 312.216 924.169 310.706C923.751 309.702 923.024 308.037 921.995 305.955C875.055 321.345 879.195 353.948 879.848 357.712C887.417 366.076 898.843 376.673 907.19 375.653C919.176 374.181 941.199 368.242 953.988 345.057C959.349 335.338 960.896 326.94 958.596 320.09C956.296 313.24 950.826 309.66 946.585 307.778Z" fill="white"/>
<path d="M766.623 320.441C766.461 321.245 766.249 322.038 765.987 322.816C765.852 323.22 765.695 323.616 765.519 324.004C765.452 324.171 765.36 324.347 765.276 324.514C769.58 326.846 774.231 328.468 779.052 329.315C782.883 323.506 785.579 317.024 786.998 310.211C790.193 294.612 785.961 279.958 774.452 266.659C770.09 265.299 765.525 264.708 760.96 264.911C743.27 265.748 730.498 278.704 725.831 284.207C718.537 292.814 715.042 306.481 717.526 316.71C718.138 319.311 719.249 321.767 720.796 323.945C720.67 322.992 720.595 322.022 720.545 321.06C720.394 316.685 721.252 312.335 723.054 308.346C723.484 307.364 723.967 306.407 724.501 305.477C725.02 304.549 725.639 303.679 726.174 302.784C725.714 303.746 725.204 304.674 724.802 305.645C724.385 306.612 724.02 307.6 723.706 308.606C723.068 310.59 722.661 312.642 722.494 314.72C722.321 316.764 722.391 318.822 722.703 320.851C722.87 321.863 723.063 322.858 723.33 323.853L723.732 325.359C723.807 325.635 723.882 325.869 723.949 326.195L724.05 326.68C724.08 326.939 724.08 327.2 724.05 327.458C725.369 328.504 726.828 329.362 728.382 330.009C732.446 331.665 736.835 332.366 741.213 332.058C740.244 327.824 740.034 323.452 740.594 319.144C740.711 318.007 740.962 316.886 741.179 315.799C741.313 315.238 741.48 314.694 741.631 314.126C741.766 313.573 741.939 313.031 742.15 312.503C742.898 310.375 743.882 308.339 745.085 306.431C744.108 308.434 743.362 310.541 742.861 312.712C742.713 313.245 742.604 313.787 742.534 314.335C742.451 314.878 742.342 315.414 742.275 316.008C742.183 317.103 742.066 318.191 742.074 319.295C742.034 321.477 742.196 323.658 742.559 325.81C742.899 327.849 743.428 329.851 744.14 331.791C750.603 330.708 756.756 328.246 762.181 324.573C762.147 324.36 762.161 324.142 762.222 323.935C762.283 323.728 762.389 323.537 762.533 323.377C762.613 323.306 762.686 323.227 762.75 323.142C762.842 323.008 762.943 322.891 763.026 322.749C763.21 322.473 763.386 322.164 763.553 321.854C763.892 321.214 764.189 320.552 764.44 319.872C764.967 318.467 765.397 317.028 765.728 315.564C766.079 314.084 766.339 312.578 766.564 311.065C766.79 309.551 766.933 308.012 767.066 306.473C767.175 308.012 767.267 309.551 767.3 311.106C767.334 312.662 767.301 314.218 767.192 315.782C767.114 317.346 766.924 318.903 766.623 320.441Z" fill="white"/>
<path d="M773.046 233.956C773.046 233.956 767.007 257.1 741.011 269.989L744.307 267.94C744.942 267.555 751.466 263.473 751.466 263.473L740.493 242.446C760.265 239.552 773.046 233.956 773.046 233.956Z" fill="#EF7F25"/>
<path d="M659.754 260.604L657.002 260.922C638.258 256.74 626.289 227.131 626.289 227.131C626.138 224.797 629.484 219.268 629.484 219.268C634 223.969 643.904 229.305 657.136 233.906C656.366 236.465 659.227 257.116 659.754 260.604Z" fill="#EF7F25"/>
<g opacity="0.25">
<path d="M751.467 263.472C751.467 263.472 744.943 267.554 744.307 267.939L741.011 269.988C738.264 271.355 735.431 272.542 732.53 273.543C713.034 280.309 701.14 276.889 694.641 272.857C692.09 271.375 689.886 269.364 688.175 266.96C688.175 266.96 682.053 262.653 680.43 262.268C678.808 261.883 671.832 259.884 669.841 259.759C668.871 259.709 665.851 259.976 662.974 260.261L659.754 260.595C659.252 257.107 656.367 236.456 657.136 233.897C660.44 235.043 663.961 236.13 667.65 237.151C680.876 240.748 694.435 242.99 708.116 243.842C711.06 244.017 713.97 244.11 716.781 244.118C724.716 244.157 732.642 243.598 740.493 242.445L751.467 263.472Z" fill="#020772"/>
</g>
<path d="M925.728 333.724C926.808 330.339 925.961 327.046 923.835 326.368C921.71 325.689 919.111 327.883 918.031 331.267C916.951 334.651 917.799 337.944 919.924 338.623C922.05 339.301 924.648 337.108 925.728 333.724Z" fill="#F95089"/>
<path d="M940.906 330.525C941.971 327.189 941.132 323.942 939.033 323.272C936.934 322.602 934.369 324.763 933.304 328.099C932.24 331.435 933.078 334.682 935.178 335.352C937.277 336.022 939.841 333.861 940.906 330.525Z" fill="#F95089"/>
<path d="M925.051 369.837C933.717 368.444 940.035 362.919 939.164 357.496C938.292 352.073 930.561 348.806 921.895 350.199C913.229 351.591 906.911 357.116 907.783 362.539C908.654 367.962 916.386 371.229 925.051 369.837Z" fill="#F95089"/>
<path d="M953.403 342.556C954.551 338.961 953.647 335.461 951.385 334.739C949.123 334.017 946.36 336.346 945.212 339.942C944.065 343.537 944.968 347.037 947.23 347.759C949.492 348.481 952.256 346.151 953.403 342.556Z" fill="#F95089"/>
<g opacity="0.25">
<path d="M715.267 322.281C715.267 322.281 722.167 343.768 739.113 341.978C756.058 340.188 758.484 334.844 763.712 336.759C768.939 338.674 789.833 346.746 804.487 333.597C819.141 320.449 816.857 302.533 816.807 302.767C816.757 303.001 805.198 332.042 788.561 331.305C771.925 330.569 765.334 324.012 762.181 326.111C759.028 328.211 750.613 332.426 739.439 334.049C728.264 335.672 715.267 322.281 715.267 322.281Z" fill="#020772"/>
</g>
<path d="M894.158 274.672C893.991 274.915 893.824 275.149 893.648 275.375C893.648 275.375 881.403 275.634 876.811 275.375C872.22 275.116 841.139 277.516 838.838 277.341C836.538 277.165 842.602 253.143 842.795 245.431C842.795 244.645 849.168 259.324 856.043 261.616C862.919 263.908 877.455 264.033 881.018 245.941C884.582 227.85 872.06 204.84 864.708 200.574C859.506 197.555 870.613 201.829 881.386 209.942C886.162 217.378 893.648 230.97 893.464 242.713C893.213 259.91 883.427 273.836 883.427 273.836L894.158 274.672Z" fill="#EF7F25"/>
<g opacity="0.25">
<path d="M894.159 274.672L883.403 273.835C883.403 273.835 893.214 259.909 893.44 242.712C893.624 231.002 886.138 217.377 881.362 209.941C885.913 213.238 889.957 217.183 893.365 221.651C904.004 236.464 902.624 262.953 894.159 274.672Z" fill="#020772"/>
</g>
<g opacity="0.4">
<path d="M623.88 248.326C622.099 249.271 620.376 255.519 621.371 260.236C622.367 264.954 624.892 267.112 626.256 262.336C627.619 257.56 626.708 246.837 623.88 248.326Z" fill="white"/>
</g>
<g opacity="0.4">
<path d="M628.981 265.055C628.424 265.318 627.983 265.777 627.742 266.345C627.501 266.912 627.478 267.549 627.676 268.133C628.212 269.354 629.534 269.906 630.245 268.677C630.956 267.447 630.47 264.67 628.981 265.055Z" fill="white"/>
</g>
<g opacity="0.4">
<path d="M840.001 217.637C840.143 220.941 847.019 237.042 852.464 237.134C857.909 237.226 854.664 224.42 849.31 218.691C843.957 212.962 839.767 212.092 840.001 217.637Z" fill="white"/>
</g>
<g opacity="0.4">
<path d="M860.26 234.532C859.699 235.544 859.875 240.462 862.995 240.562C864.668 240.604 866.131 238.011 864.81 235.878C863.488 233.745 861.121 232.976 860.26 234.532Z" fill="white"/>
</g>
<g opacity="0.25">
<path d="M646.681 324.213H646.773C647.494 324.557 648.244 324.837 649.015 325.049L650.905 325.459C653.017 325.75 655.163 325.685 657.253 325.267L655.982 320.85C655.422 318.818 654.936 316.76 654.56 314.686C654.177 312.615 653.915 310.523 653.774 308.421C653.634 306.336 653.621 304.244 653.732 302.156C653.869 304.228 654.129 306.289 654.51 308.329C654.891 310.358 655.389 312.363 655.999 314.335C656.609 316.3 657.312 318.232 658.09 320.139L659.294 323L659.905 324.481C660.005 324.765 660.105 324.991 660.206 325.317L660.331 325.827C663.542 329.286 667.738 331.677 672.351 332.677C672.476 332.192 672.593 331.707 672.694 331.222C672.903 330.243 673.087 329.256 673.237 328.261C673.547 326.27 673.739 324.255 673.856 322.23C673.94 320.624 673.948 319.01 673.915 317.388C660.482 313.206 664.714 285.805 646.405 294.386C643.184 296.022 639.591 296.784 635.983 296.594C635.565 305.067 637.104 313.707 641.236 319.403C642.636 321.423 644.504 323.073 646.681 324.213Z" fill="#020772"/>
</g>
<g opacity="0.25">
<path d="M623.119 305.97C621.538 302.089 620.016 297.706 618.435 292.897C619.572 297.395 621.14 301.773 623.119 305.97Z" fill="#020772"/>
</g>
<g opacity="0.25">
<path d="M692.994 312.302C692.994 312.427 693.053 312.553 693.078 312.678C693.525 314.846 693.785 317.048 693.855 319.261C693.925 321.494 693.847 323.729 693.621 325.952C693.504 327.065 693.362 328.16 693.178 329.256C699.56 324.907 703.382 317.421 703.709 307.752C703.826 303.218 703.424 298.686 702.512 294.244C702.487 294.511 701.618 305.301 692.994 312.302Z" fill="#020772"/>
</g>
<path d="M640.224 322.865C639.747 322.331 639.298 321.772 638.878 321.193C634.244 314.819 632.538 305.342 633.023 296.1C622.559 293.198 618.227 280.15 618.034 279.564C618.663 283.057 619.501 286.51 620.543 289.902C626.909 309.382 631.626 319.545 640.224 322.865Z" fill="#EF7F25"/>
<g opacity="0.25">
<path d="M674.886 317.696C675.095 319.219 675.262 320.741 675.371 322.28C675.504 324.346 675.555 326.462 675.488 328.519C675.488 329.573 675.388 330.619 675.287 331.664C675.245 332.191 675.187 332.718 675.12 333.245C676.64 333.429 678.173 333.488 679.703 333.421C683.211 333.309 686.663 332.514 689.866 331.079C690.502 329.276 691.025 327.435 691.43 325.567C691.883 323.476 692.199 321.359 692.375 319.227C692.559 317.092 692.559 314.946 692.375 312.812C688.765 315.465 684.545 317.168 680.105 317.763C678.375 318.058 676.607 318.035 674.886 317.696Z" fill="#020772"/>
</g>
<g opacity="0.25">
<path d="M767.175 307.25C767.258 308.505 767.325 309.759 767.35 311.031C767.35 312.586 767.35 314.142 767.242 315.706C767.15 317.292 766.943 318.868 766.622 320.424C766.46 321.228 766.248 322.021 765.987 322.799C765.851 323.203 765.695 323.599 765.518 323.987C765.452 324.154 765.36 324.33 765.276 324.497C769.579 326.829 774.231 328.45 779.051 329.298C782.432 324.172 784.934 318.519 786.454 312.57C780.289 311.733 775.329 308.672 770.687 307.183C769.546 306.787 768.3 306.811 767.175 307.25Z" fill="#020772"/>
</g>
<g opacity="0.25">
<path d="M800.122 310.278C796.769 311.906 793.093 312.763 789.366 312.787C787.902 318.769 785.52 324.488 782.306 329.741C789.559 330.475 796.824 328.477 802.681 324.137C809.858 318.809 813.254 307.827 814.768 296.695C811.383 302.608 806.273 307.347 800.122 310.278Z" fill="#020772"/>
</g>
<g opacity="0.25">
<path d="M717.508 316.693C718.121 319.293 719.231 321.75 720.778 323.928C720.653 322.974 720.578 322.004 720.527 321.042C720.447 318.845 720.63 316.647 721.071 314.493C721.247 313.657 721.464 312.82 721.698 311.984C719.755 309.13 718.299 305.972 717.391 302.641C716.455 307.282 716.495 312.068 717.508 316.693Z" fill="#020772"/>
</g>
<g opacity="0.25">
<path d="M742.609 325.734C742.949 327.772 743.478 329.774 744.19 331.714C750.652 330.631 756.805 328.17 762.231 324.496C762.197 324.283 762.211 324.065 762.272 323.858C762.332 323.651 762.438 323.46 762.582 323.3C762.662 323.229 762.735 323.15 762.8 323.066C762.892 322.932 762.993 322.815 763.076 322.672C763.26 322.396 763.436 322.087 763.603 321.778C763.942 321.137 764.238 320.475 764.49 319.795C765.017 318.39 765.447 316.951 765.778 315.488C766.129 314.007 766.388 312.502 766.614 310.988C766.781 309.767 766.915 308.537 767.032 307.308C761.922 309.424 757.665 319.017 742.132 320.69C742.17 322.381 742.329 324.066 742.609 325.734Z" fill="#020772"/>
</g>
<g opacity="0.25">
<path d="M722.694 313.314C722.635 313.774 722.577 314.242 722.535 314.702C722.362 316.747 722.432 318.805 722.744 320.833C722.911 321.845 723.104 322.841 723.371 323.836L723.773 325.341C723.848 325.617 723.923 325.852 723.99 326.178L724.09 326.663C724.121 326.921 724.121 327.182 724.09 327.441C725.41 328.487 726.868 329.345 728.423 329.992C732.487 331.648 736.876 332.349 741.254 332.041C740.412 328.369 740.144 324.588 740.459 320.833C731.819 321.402 726.248 317.747 722.694 313.314Z" fill="#020772"/>
</g>
<g opacity="0.25">
<path d="M841.33 440.273C844.977 439.512 848.682 438.6 852.446 437.412C854.386 436.802 856.369 436.066 858.301 435.296C860.233 434.527 862.207 433.623 864.097 432.703C864.808 432.335 865.528 431.959 866.23 431.574C859.262 434.046 852.003 435.603 844.634 436.208C843.455 437.805 842.317 439.211 841.33 440.273Z" fill="#020772"/>
</g>
<g opacity="0.25">
<path d="M871.802 450.695C872.703 452.123 873.814 453.406 875.098 454.501L876.085 455.296C876.436 455.538 876.771 455.789 877.122 456.015C877.794 456.455 878.502 456.839 879.238 457.161H879.28C879.509 457.261 879.711 457.416 879.866 457.612C882.131 457.19 884.338 456.499 886.44 455.555C889.821 454.08 892.825 451.861 895.231 449.064C894.597 448.608 893.993 448.11 893.424 447.575C892.776 446.938 892.165 446.265 891.592 445.56C890.464 444.161 889.525 442.62 888.799 440.976C888.531 440.374 888.297 439.755 888.079 439.136C887.745 439.855 887.402 440.566 887.017 441.269C883.713 447.341 877.423 449.792 871.802 450.695Z" fill="#020772"/>
</g>
<g opacity="0.25">
<path d="M861.422 450.979C863.368 453.229 865.753 455.056 868.431 456.349C870.632 457.38 873.02 457.949 875.448 458.022L874.503 457.186L873.533 456.148C872.28 454.743 871.248 453.155 870.472 451.44L870.28 450.988C867.335 451.298 864.366 451.295 861.422 450.979Z" fill="#020772"/>
</g>
<g opacity="0.25">
<path d="M665.918 373L666.203 373.317L665.86 372.933L665.918 373Z" fill="#020772"/>
</g>
<g opacity="0.25">
<path d="M888.723 437.639C889.124 438.548 889.59 439.426 890.12 440.265C890.994 441.654 892.046 442.922 893.248 444.038C893.839 444.587 894.462 445.101 895.113 445.577C895.716 446.016 896.351 446.41 897.012 446.756C898.503 444.557 899.706 442.176 900.592 439.672C906.597 423.019 901.428 401.013 898.2 394.639C893.817 385.873 879.598 381.884 868.24 381.884C863.798 381.884 857.241 381.374 851.202 380.796C853.814 387.627 855.258 394.849 855.476 402.158C869.561 402.276 881.865 403.831 885.127 406.591C891.751 412.254 893.558 425.762 888.723 437.639Z" fill="#020772"/>
</g>
<g opacity="0.25">
<path d="M923.609 364.41C909.591 368.358 901.561 359.182 890.094 345.172C884.892 338.824 886.063 332.626 888.329 327.608C877.682 341.434 879.489 355.377 879.898 357.719C887.468 366.083 898.893 376.68 907.241 375.66C919.226 374.187 941.249 368.249 954.038 345.064C955.504 342.452 956.746 339.721 957.752 336.9C957.033 336.189 937.594 360.47 923.609 364.41Z" fill="#020772"/>
</g>
<path d="M893.289 318.065C887.187 323.143 882.44 329.655 879.471 337.018C877.359 342.401 876.366 348.159 876.552 353.939C873.742 350.593 871.977 348.251 871.91 348.176C871.788 348.011 871.634 347.874 871.457 347.772C871.28 347.67 871.084 347.605 870.881 347.582C870.68 347.559 870.477 347.579 870.284 347.639C870.091 347.7 869.913 347.8 869.761 347.933C865.796 351.329 854.287 355.11 849.444 356.598C851.469 351.347 852.854 345.871 853.568 340.288C854.533 333.303 854.386 326.209 853.133 319.269C853.22 326.198 852.603 333.117 851.292 339.92C850.647 343.286 849.81 346.612 848.783 349.882C847.781 353.143 846.538 356.325 845.061 359.4C842.18 365.591 838.363 371.301 833.745 376.329C828.999 381.359 823.617 385.748 817.735 389.386C824.123 386.777 829.978 383.018 835.008 378.295C835.113 378.52 835.273 378.714 835.473 378.86C835.674 379.007 835.907 379.1 836.153 379.131C836.58 379.19 841.657 379.826 847.93 380.47C850.732 387.374 852.317 394.712 852.614 402.158C836.003 402.25 817.644 404.257 808.945 408.372C792.217 416.276 784.221 424.942 785.241 428.254C785.986 430.688 813.528 438.157 840.804 436.501C839.409 438.195 837.886 439.778 836.246 441.235C807.808 445.885 783.61 439.27 767.358 432.168C756.249 427.332 745.84 421.025 736.411 413.416C741.237 413.265 746.038 413.048 750.848 412.739C756.928 412.312 763.026 411.777 769.023 410.79C762.959 411.283 756.887 411.325 750.814 411.258C744.742 411.191 738.787 410.94 732.815 410.597C695.335 401.213 672.451 378.203 659.871 360.546C652.379 350.095 646.396 338.641 642.097 326.521C643.29 326.776 644.501 326.941 645.719 327.015C648.931 328.545 653.079 329.248 658.382 328.135C660.536 330.401 663.088 332.253 665.91 333.597C666.688 336.257 667.658 338.857 668.812 341.376C664.488 341.335 660.172 340.983 655.898 340.322C655.898 340.322 679.409 388.24 730.832 395.308C782.255 402.375 815.101 384.844 829.855 363.708C844.61 342.572 848.014 302.759 848.014 302.759C848.014 302.759 856.378 306.422 857.767 320.189C859.155 333.957 886.204 316.175 892.168 316.936C893.013 317.095 893.322 317.446 893.289 318.065Z" fill="#EF7F25"/>
<g opacity="0.25">
<path d="M694.114 332.151C694.114 332.151 688.685 341.251 675.629 341.444C673.12 341.444 670.82 341.444 668.779 341.444C667.624 338.924 666.654 336.325 665.877 333.665C668.183 334.779 670.631 335.57 673.153 336.015H673.212C674.946 336.32 676.704 336.474 678.465 336.475H679.82C683.773 336.346 687.661 335.428 691.253 333.773C691.565 333.727 691.855 333.59 692.09 333.38C692.784 333.021 693.453 332.619 694.106 332.209L694.114 332.151Z" fill="#020772"/>
</g>
<g opacity="0.25">
<path d="M650.938 325.527L649.048 325.117C649.668 325.297 650.3 325.434 650.938 325.527Z" fill="#020772"/>
</g>
<g opacity="0.25">
<path d="M650.938 325.527L649.048 325.117C649.668 325.297 650.3 325.434 650.938 325.527Z" fill="#020772"/>
</g>
<g opacity="0.4">
<path d="M805.826 262.369C811.321 278.044 815.327 291.443 815.403 290.757C816.067 282.03 816.011 273.262 815.235 264.544C813.233 261.437 811.492 258.17 810.033 254.774C808.853 253.102 796.65 236.499 782.824 229.465C782.088 229.858 780.775 230.527 778.96 231.372C778.96 231.372 800.28 246.544 805.826 262.369Z" fill="white"/>
</g>
<g opacity="0.4">
<path d="M799.937 283.362C800.046 283.128 799.937 282.751 799.678 282.283C799.477 282.294 799.276 282.264 799.087 282.193C798.898 282.123 798.726 282.014 798.582 281.873C792.448 275.929 786.217 271.532 779.888 268.683C782.418 272.066 784.578 275.712 786.329 279.556V279.615C786.329 279.615 799.184 284.876 799.937 283.362Z" fill="white"/>
</g>
<g opacity="0.4">
<path d="M834.783 284.927C845.589 284.442 885.921 279.992 894.235 283.078C901.37 285.73 911.591 301.429 915.079 305.36C916.869 304.649 918.725 303.972 920.682 303.32C915.321 293.207 904.69 277.483 889.961 276.17C879.188 275.216 867.303 276.32 856.814 277.299C848.851 278.035 841.625 278.704 835.904 278.394C833.432 278.334 830.983 277.897 828.643 277.098C824.762 275.626 821.367 272.548 818.565 269.135C818.732 271.829 818.874 275.392 818.866 279.432C819.17 280.079 819.573 280.674 820.062 281.196C820.062 281.196 824.002 285.404 834.783 284.927Z" fill="white"/>
</g>
<g opacity="0.4">
<path d="M856.537 274.346L858.536 274.162C850.883 274.513 844.074 275.174 839.098 275.509C844.074 275.5 850.038 274.948 856.537 274.346Z" fill="white"/>
</g>
<path d="M678.466 337.763C674.671 337.829 670.901 337.142 667.374 335.742C663.847 334.342 660.632 332.257 657.915 329.608C647.318 331.54 641.137 326.614 637.774 321.997C628.816 309.668 630.414 286.165 637.774 274.17C648.832 256.146 673.414 256.438 675.706 257.049C698.983 263.289 708.702 287.068 707.999 307.853C707.406 325.325 696.365 337.052 679.862 337.729L678.466 337.763ZM658.918 323.669C659.353 323.67 659.782 323.77 660.171 323.961C660.561 324.152 660.902 324.43 661.168 324.773C661.411 325.083 667.433 332.585 679.636 332.084C693.161 331.523 701.86 322.172 702.354 307.669C702.814 293.843 697.435 268.809 674.334 262.544C671.406 262.126 651.45 262.703 642.6 277.131C636.285 287.419 634.771 308.237 642.358 318.668C646.013 323.686 651.366 325.409 658.25 323.745C658.472 323.694 658.699 323.668 658.927 323.669H658.918Z" fill="#020772"/>
<path d="M656.207 325.718C656.12 325.989 656.105 326.277 656.165 326.555C656.114 325.821 655.985 325.095 655.781 324.388L655.061 321.294C654.593 319.194 654.225 317.112 653.932 314.954C653.367 310.746 653.311 306.486 653.765 302.265C654.537 308.406 656.332 314.374 659.076 319.922C659.77 321.428 660.942 323.552 661.502 325.1C662.43 327.433 660.716 329.909 658.156 329.282C657.435 329.074 656.825 328.588 656.461 327.931C656.097 327.274 656.009 326.499 656.216 325.777L656.207 325.718Z" fill="#020772"/>
<path d="M672.945 337.278C672.564 337.201 672.203 337.047 671.883 336.825C671.564 336.604 671.292 336.32 671.086 335.991C670.879 335.662 670.742 335.294 670.682 334.91C670.622 334.526 670.64 334.133 670.737 333.757C671.991 330.041 672.833 326.198 673.246 322.298C673.673 318.233 673.757 314.14 673.497 310.061C675.847 317.94 677.093 326.421 676.291 334.685V334.852C676.389 334.136 676.209 333.408 675.787 332.82C675.366 332.232 674.735 331.828 674.024 331.691C674.389 331.759 674.737 331.898 675.049 332.101C675.36 332.304 675.628 332.566 675.838 332.872C676.049 333.179 676.197 333.523 676.273 333.887C676.35 334.25 676.355 334.625 676.286 334.991C676.218 335.356 676.079 335.704 675.876 336.015C675.674 336.327 675.412 336.595 675.105 336.805C674.799 337.015 674.454 337.163 674.09 337.24C673.727 337.317 673.352 337.321 672.987 337.253L672.945 337.278Z" fill="#020772"/>
<path d="M688.392 331.213C690.922 325.415 692.158 319.135 692.014 312.811C691.925 310.646 691.611 308.496 691.077 306.396C692.071 308.375 692.853 310.452 693.411 312.594C695.02 319.281 695.14 326.239 693.762 332.977C693.672 333.363 693.502 333.725 693.264 334.041C693.026 334.357 692.724 334.62 692.378 334.813C692.033 335.006 691.651 335.124 691.257 335.161C690.863 335.198 690.465 335.152 690.09 335.026C689.715 334.9 689.37 334.698 689.077 334.431C688.785 334.165 688.551 333.84 688.391 333.478C688.231 333.116 688.149 332.724 688.149 332.328C688.15 331.933 688.232 331.541 688.392 331.179V331.213Z" fill="#020772"/>
<path d="M876.018 462.321C872.767 462.335 869.554 461.629 866.608 460.255C857.692 456.123 852.991 446.872 851.134 442.297C815.47 452.468 784.983 444.606 765.502 436.066C746.173 427.601 733.928 417.096 731.209 414.637C692.734 404.843 669.248 381.18 656.292 362.955C644.248 346.026 638.936 330.912 637.523 326.404C627.159 321.661 622.216 308.839 616.487 291.274C603.188 248.249 626.298 218.757 627.293 217.528C627.729 216.98 628.354 216.614 629.045 216.501C629.736 216.388 630.445 216.536 631.032 216.917C670.887 242.654 709.597 243.599 735.04 239.868C762.734 235.803 781.227 225.474 781.402 225.373C781.802 225.147 782.25 225.021 782.709 225.005C783.167 224.989 783.623 225.083 784.037 225.281C799.804 232.909 813.103 251.662 813.663 252.456C813.786 252.632 813.889 252.82 813.972 253.017C814.039 253.184 820.781 269.519 830.199 273.091C835.218 274.989 845.505 274.036 856.42 273.015C867.093 272.028 879.188 270.899 890.354 271.895C910.428 273.684 923.058 297.522 927.198 306.731C931.43 303.821 939.443 299.914 948.334 303.854C955.452 307.007 960.563 312.302 962.737 318.767C965.447 326.805 963.791 336.332 957.827 347.205C943.608 373 918.081 378.73 907.776 379.993C893.984 381.665 875.943 360.362 870.138 352.96C864.183 356.565 853.736 359.86 849.821 361.031C847.73 366.167 844.075 371.788 841.457 375.459C848.425 376.296 861.247 377.609 868.222 377.609C877.967 377.609 896.066 380.796 902.038 392.74C905.978 400.619 910.955 423.637 904.631 441.168C901.461 449.95 895.916 456.131 888.154 459.569C884.343 461.318 880.21 462.255 876.018 462.321ZM852.882 435.999C853.349 436.002 853.808 436.116 854.221 436.334C854.549 436.508 854.839 436.746 855.074 437.033C855.31 437.32 855.486 437.651 855.593 438.006C855.593 438.123 859.49 450.711 868.975 455.103C873.851 457.361 879.531 457.093 885.854 454.266C892.177 451.439 896.66 446.412 899.278 439.144C905.133 422.884 900.056 401.397 896.953 395.174C892.821 386.927 879.154 383.163 868.197 383.163C858.001 383.163 836.815 380.52 835.92 380.402C835.422 380.341 834.949 380.149 834.55 379.844C834.151 379.54 833.841 379.135 833.65 378.671C833.459 378.207 833.395 377.701 833.465 377.204C833.535 376.707 833.735 376.238 834.046 375.844C834.13 375.744 842.21 365.406 844.92 357.66C845.072 357.235 845.324 356.852 845.654 356.544C845.984 356.235 846.383 356.01 846.818 355.887C851.578 354.532 864.818 350.267 868.816 346.837C869.111 346.585 869.455 346.396 869.826 346.282C870.197 346.168 870.588 346.132 870.973 346.175C871.359 346.218 871.732 346.34 872.069 346.533C872.406 346.726 872.699 346.986 872.931 347.297C878.828 355.243 896.443 375.585 907.015 374.28C918.725 372.833 940.288 367.037 952.792 344.37C957.961 335.002 959.484 326.964 957.3 320.482C955.168 314.159 949.965 310.713 945.967 308.948C936.691 304.833 928.294 312.871 927.942 313.214C927.606 313.541 927.193 313.78 926.741 313.908C926.29 314.036 925.813 314.051 925.355 313.949C924.896 313.848 924.47 313.635 924.114 313.328C923.759 313.022 923.485 312.632 923.317 312.193C923.192 311.858 910.662 279.305 889.777 277.448C879.121 276.503 867.302 277.599 856.872 278.569C844.778 279.698 834.331 280.669 828.108 278.293C817.093 274.111 809.874 257.952 808.787 255.375C807.248 253.259 795.781 237.811 782.766 230.927C777.923 233.436 760.676 241.675 736.019 245.33C710.048 249.186 670.779 248.35 630.179 223.031C625.445 230.224 611.343 255.651 621.815 289.468C628.197 309.098 632.613 318.433 640.475 321.511C640.668 321.56 640.856 321.627 641.036 321.711C642.707 322.277 644.45 322.601 646.213 322.673C646.963 322.713 647.666 323.049 648.168 323.608C648.67 324.166 648.93 324.901 648.89 325.651C648.85 326.401 648.514 327.104 647.955 327.606C647.397 328.108 646.662 328.367 645.912 328.327C645.285 328.286 644.674 328.235 644.08 328.168C648.307 339.396 653.984 350.022 660.967 359.777C673.438 377.249 696.097 400.008 733.209 409.259C733.684 409.373 734.12 409.613 734.471 409.953C734.597 410.07 747.177 421.855 767.928 430.905C786.956 439.202 816.984 446.797 852.004 436.057C852.292 435.993 852.588 435.973 852.882 435.999Z" fill="#020772"/>
<path d="M835.911 279.749C835.308 279.748 834.721 279.551 834.238 279.189C833.94 278.968 833.688 278.69 833.497 278.371C833.306 278.053 833.18 277.7 833.126 277.332C833.071 276.965 833.09 276.59 833.18 276.23C833.271 275.87 833.431 275.531 833.653 275.233C834.138 274.564 845.58 258.672 837.525 239.075C834.629 231.756 830.706 224.887 825.874 218.675C822.813 214.584 820.604 211.64 821.081 206.965C821.499 202.933 826.552 198.6 833.962 195.974C840.779 193.54 864.91 187.485 889.55 211.933C905.091 227.373 906.429 244.327 904.815 255.836C903.769 263.364 901.29 270.621 897.513 277.215C897.316 277.53 897.059 277.804 896.757 278.02C896.455 278.236 896.113 278.39 895.751 278.474C895.389 278.558 895.014 278.57 894.648 278.509C894.281 278.448 893.93 278.315 893.615 278.118C893.3 277.922 893.027 277.665 892.811 277.363C892.595 277.06 892.44 276.719 892.356 276.357C892.273 275.995 892.261 275.62 892.322 275.253C892.383 274.887 892.515 274.536 892.712 274.221C893.506 272.933 912.05 242.27 885.561 215.956C863.546 194.092 842.268 199.102 836.271 201.16C829.763 203.393 826.836 206.588 826.711 207.542C826.468 209.926 827.472 211.398 830.408 215.312C835.514 221.913 839.673 229.197 842.761 236.95C852.062 259.583 838.763 277.867 838.195 278.637C837.927 278.988 837.581 279.271 837.185 279.464C836.788 279.657 836.352 279.755 835.911 279.749Z" fill="#020772"/>
<path d="M732.647 409.242C744.725 410.338 756.903 411.242 769.031 410.798C763.043 411.994 756.954 412.764 750.865 413.408C744.776 414.052 738.67 414.537 732.522 414.897C732.133 414.917 731.744 414.856 731.379 414.719C731.014 414.582 730.681 414.371 730.401 414.099C730.122 413.827 729.901 413.501 729.753 413.14C729.605 412.779 729.533 412.392 729.542 412.002C729.551 411.612 729.64 411.228 729.803 410.874C729.967 410.521 730.202 410.204 730.493 409.945C730.785 409.686 731.126 409.49 731.497 409.369C731.868 409.248 732.259 409.205 732.647 409.242Z" fill="#020772"/>
<path d="M853.133 319.27C858.419 340.055 852.154 364.11 836.128 378.705C830.821 383.53 824.549 387.171 817.727 389.386C823.287 385.346 828.397 380.719 832.967 375.586C846.542 360.062 851.803 339.57 853.149 319.27H853.133Z" fill="#020772"/>
<path d="M739.439 336.441C735.1 336.446 730.802 335.593 726.793 333.931C719.867 331.079 715.209 325.458 713.327 317.68C710.542 306.213 714.406 290.915 722.527 281.371C727.546 275.433 741.355 261.515 760.726 260.553C774.636 259.875 788.387 265.981 801.585 278.745C801.852 279.003 802.065 279.312 802.213 279.653C802.36 279.994 802.439 280.361 802.445 280.733C802.451 281.104 802.384 281.474 802.247 281.819C802.11 282.165 801.906 282.48 801.648 282.747C801.389 283.014 801.08 283.227 800.739 283.375C800.398 283.522 800.031 283.602 799.66 283.607C799.288 283.613 798.919 283.546 798.573 283.409C798.228 283.272 797.913 283.068 797.646 282.81C785.618 271.184 773.297 265.613 761.011 266.207C743.847 267.043 731.401 279.656 726.843 285.035C719.917 293.198 716.472 306.656 718.822 316.342C720.286 322.372 723.698 326.529 728.951 328.696C745.353 335.462 761.797 323.133 761.964 322.999C762.425 322.651 762.98 322.451 763.557 322.428C764.134 322.404 764.705 322.556 765.193 322.866C766.029 323.367 785.342 335.27 801.878 322.983C818.731 310.437 813.914 264.752 813.863 264.292C813.781 263.546 813.999 262.799 814.468 262.214C814.937 261.629 815.619 261.254 816.365 261.172C817.11 261.09 817.857 261.307 818.442 261.776C819.028 262.245 819.402 262.927 819.484 263.673C819.71 265.68 824.687 313.088 805.265 327.524C788.403 340.071 769.5 331.648 763.838 328.603C760.191 331.029 750.714 336.441 739.439 336.441Z" fill="#020772"/>
<path d="M779.671 333.772C779.052 333.776 778.448 333.573 777.957 333.195C777.359 332.739 776.967 332.065 776.866 331.32C776.766 330.575 776.966 329.82 777.421 329.222C778.408 327.926 800.339 298.233 773.114 267.194C772.619 266.629 772.369 265.891 772.418 265.142C772.468 264.393 772.813 263.695 773.377 263.2C773.942 262.705 774.68 262.455 775.429 262.505C776.178 262.554 776.877 262.899 777.371 263.463C793.213 281.522 793.623 299.387 791.172 311.189C789.596 318.908 786.447 326.22 781.921 332.668C781.657 333.014 781.316 333.293 780.926 333.484C780.536 333.676 780.106 333.774 779.671 333.772Z" fill="#020772"/>
<path d="M761.588 322.389C761.588 322.389 761.504 322.48 761.546 322.472C762.39 321.623 763.061 320.617 763.52 319.511C765.443 315.455 766.397 310.829 767.116 306.396C767.607 309.51 767.873 312.654 767.911 315.806C767.861 319.152 767.693 322.857 765.995 325.901C763.628 329.113 759.011 325.45 761.588 322.389Z" fill="#020772"/>
<path d="M740.201 333.362C738.277 324.203 739.707 314.125 745.135 306.396C744.262 308.441 743.624 310.58 743.237 312.77C742.172 319.098 742.971 325.599 745.537 331.48C745.719 331.842 745.822 332.239 745.839 332.643C745.856 333.048 745.786 333.452 745.634 333.827C745.483 334.203 745.254 334.542 744.961 334.822C744.668 335.102 744.32 335.317 743.938 335.452C743.556 335.586 743.149 335.638 742.745 335.604C742.342 335.569 741.951 335.449 741.597 335.251C741.243 335.054 740.936 334.783 740.695 334.457C740.454 334.131 740.286 333.758 740.201 333.362Z" fill="#020772"/>
<path d="M719.892 326.554C719.837 326.748 719.837 326.954 719.892 327.148V326.905C719.892 326.487 719.724 325.015 719.674 324.555C719.001 317.816 720.657 311.05 724.366 305.384C724.944 304.481 725.613 303.628 726.223 302.767C725.814 303.754 725.387 304.707 725.002 305.702C723.164 310.5 722.732 315.723 723.756 320.758C724.141 322.698 724.944 324.589 725.429 326.512C726.14 331.196 719.189 331.188 719.908 326.571L719.892 326.554Z" fill="#020772"/>
<path d="M836.848 445.477C836.267 445.471 835.702 445.287 835.229 444.95C834.756 444.612 834.398 444.138 834.203 443.59C834.009 443.043 833.988 442.448 834.142 441.888C834.296 441.328 834.619 440.829 835.066 440.458C836.195 439.538 861.748 418.143 846.324 380.161C846.185 379.817 846.115 379.448 846.118 379.077C846.121 378.705 846.196 378.338 846.341 377.996C846.486 377.654 846.697 377.344 846.962 377.083C847.227 376.822 847.54 376.616 847.884 376.477C848.229 376.337 848.597 376.267 848.969 376.27C849.34 376.273 849.707 376.349 850.049 376.494C850.392 376.639 850.702 376.849 850.963 377.114C851.223 377.379 851.429 377.692 851.569 378.037C860.46 399.926 856.503 416.897 851.627 427.285C848.564 433.983 844.134 439.966 838.621 444.849C838.118 445.253 837.493 445.474 836.848 445.477Z" fill="#020772"/>
<path d="M851.904 436.175C859.875 433.933 868.24 431.156 874.546 425.51C870.782 430.905 865.195 434.769 859.683 438.224C857.784 439.37 855.919 440.448 853.828 441.486C853.469 441.671 853.074 441.779 852.67 441.8C852.267 441.822 851.863 441.758 851.486 441.611C851.109 441.465 850.767 441.24 850.484 440.952C850.2 440.663 849.982 440.318 849.842 439.938C849.702 439.559 849.644 439.154 849.673 438.751C849.701 438.347 849.815 437.955 850.007 437.599C850.199 437.243 850.465 436.932 850.786 436.686C851.107 436.44 851.477 436.266 851.871 436.175H851.904Z" fill="#020772"/>
<path d="M878.519 361.266C877.879 361.265 877.258 361.047 876.758 360.648C876.258 360.248 875.909 359.691 875.767 359.067C875.666 358.648 873.491 348.678 878.217 336.534C882.516 325.476 893.599 310.429 921.97 301.48C922.329 301.35 922.712 301.294 923.093 301.316C923.475 301.339 923.848 301.438 924.19 301.608C924.532 301.778 924.836 302.016 925.083 302.307C925.331 302.598 925.517 302.937 925.63 303.302C925.743 303.667 925.781 304.051 925.742 304.431C925.702 304.811 925.586 305.179 925.401 305.513C925.215 305.847 924.963 306.14 924.661 306.374C924.359 306.608 924.013 306.778 923.643 306.874C874.077 322.515 880.944 356.382 881.262 357.82C881.416 358.549 881.277 359.309 880.875 359.935C880.472 360.561 879.839 361.004 879.112 361.166C878.919 361.222 878.72 361.256 878.519 361.266Z" fill="#020772"/>
<path d="M927.44 313.75C917.322 319.12 909.223 327.632 904.363 338.006C905.165 335.172 906.203 332.41 907.466 329.75C911.395 321.488 917.281 314.31 924.613 308.84C924.935 308.624 925.299 308.476 925.681 308.407C926.063 308.337 926.455 308.347 926.833 308.435C927.211 308.523 927.567 308.687 927.879 308.919C928.191 309.15 928.452 309.443 928.646 309.779C928.84 310.116 928.963 310.488 929.007 310.874C929.051 311.26 929.016 311.651 928.903 312.022C928.79 312.393 928.601 312.738 928.35 313.033C928.098 313.329 927.788 313.57 927.44 313.741V313.75Z" fill="#020772"/>
<path d="M877.364 461.041C874.093 458.867 871.547 455.762 870.057 452.127C868.566 448.493 868.198 444.495 869 440.649C869.079 443.41 869.828 446.11 871.181 448.517C872.535 450.923 874.453 452.965 876.77 454.467C877.714 455.08 878.728 455.577 879.79 455.947C884.432 457.277 881.371 463.793 877.331 461.041H877.364Z" fill="#020772"/>
<path d="M894.961 450.544C892.038 448.212 889.77 445.161 888.38 441.689C886.99 438.217 886.526 434.443 887.032 430.738C887.276 432.423 887.708 434.075 888.32 435.664C889.183 437.893 890.479 439.928 892.135 441.651C893.79 443.374 895.772 444.751 897.964 445.701C901.837 447.659 898.449 453.129 894.961 450.528V450.544Z" fill="#020772"/>
<path d="M795.228 35.3899C797.327 34.935 799.519 35.2623 801.393 36.31C814.315 43.8879 809.497 90.0412 796.667 111.989C799.724 117.955 802.379 124.119 804.613 130.44C822.487 83.1827 828.116 28.6568 806.127 19.9748C784.664 11.4936 746.549 46.5227 739.038 53.7242C746.511 57.6273 753.597 62.2315 760.199 67.4748C764.699 61.3523 782.841 37.6231 795.228 35.3899Z" fill="#FAA327"/>
<path d="M799.652 38.6368C798.515 38.0266 797.194 37.8539 795.939 38.1517C784.605 40.1925 766.38 64.2979 762.616 69.4335C766.594 72.7302 770.389 76.2429 773.983 79.9556C782.211 88.5477 789.244 98.2088 794.893 108.678C806.745 86.3291 809.882 44.6423 799.652 38.6368Z" fill="#FFF3E9"/>
<path d="M805.257 30.774C783.125 25.5381 758.786 58.6685 755.223 63.7121C756.895 64.9277 758.555 66.1823 760.199 67.4759C764.699 61.3534 782.841 37.6243 795.228 35.391C797.327 34.9361 799.519 35.2634 801.393 36.3112C814.315 43.8891 809.497 90.0424 796.667 111.99C799.724 117.956 802.379 124.12 804.613 130.441C809.968 116.317 814.129 101.768 817.05 86.9477C819.534 64.1721 819.869 34.2368 805.257 30.774Z" fill="#EF7F25"/>
<path d="M799.652 38.6368C798.515 38.0266 797.194 37.8539 795.939 38.1517C784.605 40.1925 766.38 64.2979 762.616 69.4335C765.125 71.5412 767.634 73.7662 770.068 76.0831C774.008 69.2747 788.846 44.6756 795.654 48.1133C803.533 52.0946 804.127 79.3534 804.127 79.3785C807.272 60.8018 806.176 42.4676 799.652 38.6368Z" fill="#F9D3B7"/>
<g opacity="0.4">
<path d="M799.343 22.5683C808.443 22.8861 813.922 27.8209 817.142 32.7139C814.825 26.4492 811.22 21.9827 806.126 19.9753C784.664 11.4941 746.549 46.5232 739.038 53.7247C741.053 54.7702 743.036 55.8827 745.001 57.0704C745.001 57.0704 780.975 21.9159 799.343 22.5683Z" fill="white"/>
</g>
<path d="M805.424 137.735C804.793 137.945 804.108 137.924 803.492 137.676C803.146 137.54 802.831 137.336 802.564 137.078C802.297 136.819 802.083 136.511 801.936 136.17C801.788 135.829 801.709 135.462 801.704 135.09C801.698 134.719 801.765 134.35 801.902 134.004C815.636 99.4103 824.661 53.1398 815.352 31.6188C813.102 26.4247 809.865 22.9619 805.725 21.3309C782.606 12.2056 738.954 55.6239 738.519 56.0588C738.261 56.3407 737.948 56.5675 737.6 56.7255C737.252 56.8836 736.875 56.9696 736.493 56.9783C736.111 56.9871 735.731 56.9185 735.376 56.7766C735.021 56.6347 734.698 56.4225 734.427 56.1528C734.156 55.883 733.943 55.5613 733.8 55.2069C733.656 54.8525 733.586 54.4728 733.593 54.0905C733.6 53.7083 733.685 53.3313 733.841 52.9825C733.998 52.6337 734.223 52.3202 734.504 52.0607C736.403 50.1621 781.243 5.58123 807.799 16.095C813.386 18.3031 817.677 22.7864 820.546 29.4108C830.926 53.4075 820.889 101.551 807.164 136.12C807.007 136.499 806.77 136.839 806.47 137.118C806.17 137.396 805.813 137.607 805.424 137.735Z" fill="#020772"/>
<path d="M795.814 114.549C795.258 114.751 794.653 114.773 794.084 114.613C793.515 114.454 793.011 114.119 792.641 113.658C792.272 113.196 792.057 112.631 792.026 112.04C791.995 111.45 792.149 110.865 792.468 110.367C801.987 94.5588 807.332 63.327 803.258 47.3181C802.28 43.4873 800.833 40.9112 799.076 39.8741C792.343 35.9262 773.465 56.251 762.834 71.2396C762.383 71.808 761.731 72.1816 761.013 72.2837C760.294 72.3857 759.564 72.2085 758.972 71.7883C758.38 71.3681 757.972 70.737 757.832 70.025C757.692 69.3129 757.829 68.574 758.217 67.9607C763.119 61.0519 788.278 26.9765 801.937 34.9893C805.082 36.8378 807.373 40.5097 808.745 45.9213C813.203 63.4024 807.649 96.1062 797.328 113.286C796.995 113.878 796.456 114.327 795.814 114.549Z" fill="#020772"/>
<path d="M622.208 99.2432C622.024 96.4329 621.087 80.8421 621.104 65.1342C621.162 33.3505 624.859 28.0226 628.079 26.9102C630.706 25.9985 633.767 26.2327 637.163 27.5877C646.74 31.4185 657.722 43.9395 664.33 58.3843C665.166 57.8574 666.086 57.3473 666.956 56.8622C672.359 53.8972 677.996 51.3796 683.81 49.3345C679.628 43.1701 662.807 19.0897 650.529 10.8092C642.114 5.14669 635.114 3.22294 629.133 4.95432C621.171 7.22936 614.688 16.1287 609.896 31.3932C600.879 60.0069 608.156 103.25 610.841 116.908C614.317 110.825 618.112 104.928 622.208 99.2432Z" fill="#FAA327"/>
<path d="M635.866 30.2049C633.306 29.1761 631.107 28.9754 629.317 29.5859C628.481 29.8703 624.432 32.9316 624.382 65.1754C624.382 77.1026 624.9 88.9461 625.218 95.1356C636.393 80.49 649.081 68.178 661.577 60.0732C655.329 46.0131 644.866 33.8098 635.866 30.2049Z" fill="#FFF3E9"/>
<path d="M635.866 30.2049C633.306 29.1761 631.107 28.9754 629.317 29.5859C628.481 29.8703 624.432 32.9316 624.382 65.1754C624.382 66.6977 624.382 68.2199 624.382 69.7338C624.382 69.7338 627.008 40.5263 632.888 38.6527C638.559 36.8377 651.289 55.2137 653.406 65.9699C656.132 63.8203 658.859 61.8464 661.585 60.115C655.329 46.0131 644.866 33.8098 635.866 30.2049Z" fill="#F9D3B7"/>
<path d="M639.814 22.6779C619.455 14.7319 613.885 31.2845 610.414 48.5397C606.943 65.7949 609.778 110.895 609.812 111.438C610.188 113.538 610.531 115.378 610.815 116.85C614.301 110.774 618.104 104.886 622.207 99.2097C622.023 96.3994 621.086 80.8086 621.103 65.1007C621.162 33.317 624.858 27.9891 628.079 26.8767C630.705 25.965 633.767 26.1992 637.162 27.5542C646.739 31.385 657.721 43.906 664.329 58.3508C665.166 57.8239 666.086 57.3138 666.956 56.8287C668.193 56.1428 669.465 55.4904 670.719 54.8547C667.591 48.6485 656.793 29.3692 639.814 22.6779Z" fill="#EF7F25"/>
<g opacity="0.4">
<path d="M612.012 28.8736C612.012 28.8736 623.128 2.94482 639.613 10.4725C656.099 18.0003 678.808 51.1893 678.808 51.1893H678.883C680.514 50.5285 682.153 49.8929 683.818 49.3074C679.636 43.143 662.815 19.0626 650.537 10.7821C642.123 5.1196 635.122 3.19584 629.141 4.92722C622.45 6.84261 616.796 13.4586 612.305 24.5913C611.918 25.9843 611.819 27.4411 612.012 28.8736Z" fill="white"/>
</g>
<path d="M611 124.126L610.749 124.193C610.387 124.277 610.012 124.289 609.646 124.229C609.279 124.168 608.928 124.036 608.612 123.839C608.297 123.642 608.023 123.386 607.807 123.083C607.591 122.781 607.437 122.439 607.353 122.077C606.818 119.777 594.481 65.343 605.597 30.0715C610.732 13.7781 617.65 4.31821 626.725 1.1482C634.361 -1.53669 642.993 0.479135 653.08 7.27918C667.868 17.2492 687.724 47.2012 688.56 48.4726C688.973 49.0992 689.12 49.864 688.968 50.5989C688.817 51.3338 688.38 51.9784 687.753 52.391C687.127 52.8036 686.362 52.9504 685.627 52.799C684.892 52.6476 684.247 52.2107 683.835 51.584C683.634 51.2829 663.761 21.3057 649.918 11.9713C641.412 6.24191 634.436 4.44358 628.59 6.49279C621.413 9.00204 615.5 17.5002 611.025 31.7694C600.378 65.5354 612.765 120.22 612.89 120.772C613.055 121.466 612.952 122.197 612.602 122.819C612.251 123.441 611.679 123.908 611 124.126Z" fill="#020772"/>
<path d="M624.758 102.321C624.534 102.396 624.3 102.441 624.064 102.455C623.692 102.481 623.319 102.433 622.966 102.315C622.613 102.196 622.287 102.01 622.007 101.765C621.726 101.52 621.497 101.222 621.332 100.888C621.166 100.555 621.069 100.191 621.044 99.8199C621.044 99.6526 619.882 82.4978 619.915 65.159C619.965 32.6559 623.913 26.9097 627.777 25.5798H627.895C638.994 21.908 656.851 37.7246 666.186 59.5383C666.481 60.2282 666.49 61.007 666.21 61.7034C665.931 62.3999 665.387 62.9569 664.697 63.2519C664.007 63.5469 663.228 63.5558 662.532 63.2766C661.835 62.9974 661.278 62.453 660.983 61.7631C652.41 41.7393 636.878 28.5657 629.685 30.9495H629.626C629.266 31.1921 625.536 34.5379 625.569 66.2212C625.569 82.9997 626.682 99.293 626.69 99.4603C626.729 100.084 626.561 100.702 626.211 101.22C625.862 101.737 625.351 102.124 624.758 102.321Z" fill="#020772"/>
<path d="M781.427 79.0516C778.359 75.398 775.077 71.9293 771.599 68.6635C771.48 68.5844 771.373 68.4886 771.282 68.379C765.459 62.9191 759.026 58.148 752.111 54.16C751.871 54.1196 751.648 54.0124 751.467 53.8506C751.421 53.8131 751.379 53.7711 751.341 53.7252C740.458 47.5705 728.428 43.7131 715.995 42.3918C695.894 40.2666 675.661 44.9528 658.541 55.699C646.405 63.4359 633.365 77.5546 622.233 94.6593L622.174 94.7512C617.989 101.196 614.183 107.88 610.774 114.767C610.736 115.06 610.604 115.333 610.397 115.544C597.299 142.31 590.198 172.513 597.073 196.493C607.888 234.232 666.069 241.333 687.966 244.009L689.413 244.185C693.595 244.695 700.621 245.339 704.519 245.557L705.79 245.624C726.215 246.778 780.474 249.806 798.39 225.633C820.822 195.355 817.393 121.767 781.427 79.0516Z" fill="#FAA327"/>
<path d="M595.417 148.14C595.417 148.14 596.889 145.037 608.357 147.73C624.55 151.536 625.921 169.209 654.317 160.627C670.653 155.684 685.131 141.582 704.502 143.615C723.874 145.647 735.96 165.997 747.017 174.512C759.179 183.888 773.891 184.842 786.053 181.722C798.214 178.602 806.478 167.929 813.863 172.145C813.863 172.145 818.882 233.253 771.374 243.123C723.865 252.993 654.276 243.959 628.029 230.376C593.803 212.636 591.478 186.899 595.417 148.14Z" fill="white"/>
<g opacity="0.25">
<path d="M685.508 187.985C690.466 188.751 695.534 187.69 699.769 184.999C701.786 187.068 704.203 188.703 706.874 189.805C709.545 190.907 712.413 191.452 715.301 191.406C725.422 191.406 728.6 180.106 728.6 180.106C721.775 186.923 712.232 185.459 708.986 181.829C706.377 178.919 708.585 169.643 708.585 169.643C708.585 169.643 694.742 167.92 694.734 168.405C694.726 168.89 695.002 179.496 689.197 181.436C684.011 183.168 673.69 174.929 673.69 174.929C672.611 177.279 677.504 186.614 685.508 187.985Z" fill="#020772"/>
</g>
<g opacity="0.25">
<path d="M774.419 227.415C719.425 247.664 638.802 222.564 618.176 204.949C597.55 187.334 604.066 132.967 604.066 132.967C603.328 133.64 602.679 134.404 602.134 135.242C594.707 156.437 591.846 178.25 597.074 196.493C607.889 234.232 666.069 241.333 687.967 244.009L689.414 244.185C693.596 244.695 700.622 245.339 704.519 245.557L705.791 245.624C726.216 246.778 780.474 249.805 798.39 225.633C806.838 214.233 811.622 196.677 812.375 176.946C807.867 196.124 795.613 219.126 774.419 227.415Z" fill="#020772"/>
</g>
<g opacity="0.4">
<path d="M679.845 51.6761C699.567 46.2144 720.754 48.9076 738.979 55.8582C736.671 60.0403 740.844 66.8655 748.364 71.24C755.883 75.6144 764.03 75.8487 766.439 71.7084C766.496 71.6086 766.546 71.5052 766.589 71.3988C771.619 75.2954 776.072 79.8857 779.813 85.0324C795.956 108.009 808.585 136.965 808.778 137.409C804.169 116.197 795.178 95.3454 781.427 79.0187C778.359 75.365 775.078 71.8961 771.599 68.6303C771.48 68.5512 771.373 68.4556 771.282 68.346C765.459 62.8861 759.026 58.115 752.111 54.127C751.871 54.0866 751.648 53.9792 751.467 53.8174C751.421 53.7799 751.379 53.7379 751.341 53.692C740.458 47.5373 728.428 43.6799 715.995 42.3586C695.894 40.2334 675.661 44.9196 658.541 55.6658C646.405 63.4027 633.365 77.5214 622.233 94.6261L622.174 94.7179C617.989 101.163 614.183 107.846 610.774 114.733C610.736 115.027 610.604 115.3 610.397 115.511C610.138 116.047 609.879 116.582 609.628 117.117C609.009 118.878 608.556 120.692 608.273 122.537C608.273 122.537 640.826 62.4742 679.845 51.6761Z" fill="white"/>
</g>
<g opacity="0.4">
<path d="M734.633 70.7681C735.808 69.172 735.092 66.6507 733.034 65.1366C730.977 63.6225 728.357 63.6889 727.182 65.285C726.008 66.8811 726.723 69.4025 728.781 70.9166C730.838 72.4307 733.458 72.3642 734.633 70.7681Z" fill="white"/>
</g>
<path d="M776.718 244.552C752.822 252.465 721.64 250.708 705.547 249.805L704.276 249.73C700.295 249.504 693.11 248.893 688.894 248.341L687.456 248.166C664.806 245.397 604.651 238.053 593.058 197.654C586.81 175.908 591.477 145.947 605.847 115.544C618.887 87.9421 638.216 63.6861 656.307 52.1687C675.296 40.1277 697.998 35.3596 720.227 38.7442C744.733 42.4161 767.007 55.4222 784.63 76.341C801.794 96.7327 813.236 126.066 816.029 156.837C818.656 185.853 813.319 212.501 801.752 228.117C795.947 235.962 787.006 241.148 776.718 244.552ZM704.585 244.075L705.865 244.151C726.073 245.288 779.754 248.333 797.201 224.754C819.316 194.886 815.854 122.227 780.298 79.9878C742.6 35.2229 691.178 36.6615 659.352 56.9362C642.114 67.9267 623.57 91.3128 610.965 117.994C597.173 147.169 592.623 175.649 598.495 196.124C609.042 232.926 666.503 239.935 688.141 242.578L689.588 242.754C693.704 243.264 700.713 243.891 704.585 244.109V244.075Z" fill="#020772"/>
<path d="M705.531 172.771C704.61 173.107 703.623 173.221 702.65 173.105C701.676 172.988 700.744 172.645 699.928 172.102C694.575 168.581 681.71 159.355 688.711 156.06C697.435 151.953 717.091 154.789 717.986 160.091C718.78 164.416 711.177 170.722 705.531 172.771Z" fill="#020772"/>
<path d="M695.545 190.077C692.386 191.067 689.048 191.353 685.767 190.914C678.039 189.952 671.949 185.435 669.039 178.527C668.895 178.184 668.821 177.816 668.82 177.445C668.819 177.073 668.89 176.705 669.031 176.362C669.172 176.018 669.379 175.705 669.641 175.442C669.903 175.178 670.214 174.969 670.557 174.825C670.899 174.682 671.267 174.608 671.639 174.606C672.01 174.605 672.378 174.677 672.722 174.818C673.065 174.959 673.378 175.166 673.641 175.428C673.905 175.69 674.115 176.001 674.258 176.344C677.11 183.169 683.115 184.883 686.436 185.301C690.886 185.853 694.934 184.682 696.59 183.177L698.263 171.384C698.318 171.016 698.445 170.662 698.636 170.343C698.828 170.024 699.081 169.746 699.38 169.525C699.679 169.303 700.018 169.143 700.379 169.053C700.74 168.963 701.115 168.945 701.483 169C701.851 169.055 702.205 169.182 702.524 169.373C702.843 169.565 703.121 169.817 703.342 170.116C703.563 170.415 703.724 170.755 703.814 171.116C703.904 171.477 703.922 171.852 703.867 172.22L702.069 184.85C702.003 185.324 701.816 185.774 701.525 186.155C699.966 188.028 697.884 189.394 695.545 190.077Z" fill="#020772"/>
<path d="M720.603 192.569C718.766 193.175 716.85 193.508 714.916 193.556C703.265 193.883 697.769 187.4 697.544 187.124C697.063 186.548 696.832 185.804 696.9 185.056C696.968 184.309 697.331 183.619 697.907 183.139C698.484 182.658 699.228 182.427 699.976 182.495C700.723 182.564 701.412 182.926 701.893 183.503C702.093 183.737 706.075 188.145 714.757 187.894C723.263 187.66 727.069 180.366 727.228 180.082C727.58 179.445 728.165 178.969 728.859 178.753C729.554 178.536 730.305 178.596 730.957 178.919C731.609 179.242 732.11 179.804 732.358 180.488C732.606 181.172 732.581 181.925 732.288 182.591C729.761 187.248 725.598 190.803 720.603 192.569Z" fill="#020772"/>
<path d="M658.994 94.2653C661.085 95.1974 663.354 95.6625 665.643 95.6285C669.307 95.6285 675.379 95.1518 678.014 92.3415C681.928 88.1594 674.543 82.3631 664.849 82.522C655.155 82.6809 653.975 86.9465 654.736 89.9576C655.238 91.9232 656.878 93.2783 658.994 94.2653Z" fill="white"/>
<path d="M740.61 106.385C742.699 107.324 744.969 107.792 747.26 107.757C750.923 107.757 756.987 107.272 759.63 104.461C763.545 100.279 756.159 94.4913 746.465 94.6502C736.771 94.8091 735.592 99.0747 736.353 102.086C736.855 104.051 738.494 105.406 740.61 106.385Z" fill="white"/>
<path d="M671.824 175.474C671.824 175.474 677.88 164.274 687.507 160.184C697.134 156.094 712.741 158.277 718.237 163.304C723.732 168.331 733.644 179.748 728.734 184.691C723.824 189.634 709.588 193.147 703.466 188.037C697.343 182.926 690.209 190.462 683.919 187.694C677.629 184.925 672.251 180.408 671.824 175.474Z" fill="white"/>
<g opacity="0.25">
<path d="M685.481 187.92C690.426 188.681 695.479 187.62 699.7 184.934C701.717 187.003 704.135 188.638 706.805 189.74C709.476 190.842 712.344 191.386 715.232 191.34C725.353 191.34 728.531 180.049 728.531 180.049C721.715 186.857 712.171 185.394 708.926 181.772C706.316 178.861 708.524 169.577 708.524 169.577C708.524 169.577 694.673 167.854 694.673 168.339C694.673 168.824 694.933 179.43 689.128 181.37C683.942 183.102 673.621 174.863 673.621 174.863C672.609 177.213 677.485 186.514 685.481 187.92Z" fill="#020772"/>
</g>
<path d="M705.514 172.713C704.591 173.047 703.602 173.16 702.627 173.043C701.652 172.925 700.719 172.58 699.902 172.036C694.557 168.523 681.693 159.289 688.694 155.993C697.417 151.887 717.065 154.722 717.968 160.033C718.763 164.358 711.151 170.614 705.514 172.713Z" fill="#020772"/>
<path d="M695.519 190.01C692.36 191.001 689.023 191.286 685.742 190.847C678.013 189.885 671.932 185.368 669.013 178.459C668.724 177.767 668.721 176.988 669.006 176.294C669.29 175.6 669.839 175.048 670.531 174.758C671.224 174.469 672.002 174.466 672.696 174.751C673.391 175.035 673.943 175.584 674.232 176.276C677.093 183.101 683.09 184.816 686.419 185.234C690.86 185.786 694.909 184.615 696.573 183.11L698.246 171.325C698.298 170.957 698.422 170.602 698.611 170.283C698.8 169.963 699.051 169.683 699.348 169.46C699.645 169.236 699.983 169.074 700.343 168.981C700.702 168.889 701.077 168.868 701.445 168.92C701.813 168.972 702.167 169.096 702.487 169.285C702.807 169.474 703.087 169.724 703.31 170.022C703.533 170.319 703.696 170.657 703.789 171.017C703.881 171.377 703.902 171.751 703.85 172.119L702.052 184.757C701.985 185.228 701.801 185.674 701.516 186.054C699.959 187.944 697.87 189.322 695.519 190.01Z" fill="#020772"/>
<path d="M720.586 192.511C718.745 193.114 716.826 193.444 714.89 193.49C703.238 193.824 697.752 187.334 697.526 187.058C697.046 186.481 696.814 185.737 696.882 184.99C696.951 184.242 697.313 183.553 697.89 183.072C698.467 182.592 699.211 182.361 699.958 182.429C700.705 182.497 701.395 182.859 701.875 183.436C702.076 183.67 706.057 188.078 714.731 187.836C723.246 187.593 727.043 180.308 727.202 180.015C727.545 179.352 728.136 178.849 728.846 178.616C729.556 178.383 730.329 178.438 730.999 178.769C731.668 179.103 732.177 179.689 732.414 180.398C732.65 181.107 732.596 181.881 732.262 182.55C729.732 187.196 725.573 190.744 720.586 192.511Z" fill="#020772"/>
<g opacity="0.4">
<path d="M702.327 160.82C700.788 160.427 691.403 158.746 693.787 158.027C696.171 157.307 715.275 157.265 713.242 159.03C711.21 160.795 702.327 160.82 702.327 160.82Z" fill="white"/>
</g>
<g opacity="0.2">
<path d="M794.877 520.402C886.1 520.402 960.052 513.343 960.052 504.635C960.052 495.928 886.1 488.869 794.877 488.869C703.653 488.869 629.702 495.928 629.702 504.635C629.702 513.343 703.653 520.402 794.877 520.402Z" fill="#020772"/>
</g>
<path d="M736.546 190.036L735.35 199.412L784.297 199.144L784.071 190.245L736.546 190.036Z" fill="#E30613"/>
<path d="M735.366 204.145L734.169 213.521L783.116 213.254L782.891 204.354L735.366 204.145Z" fill="#1CA75E"/>
<path d="M616.746 162.834L613.576 170.354L654.351 181.47L656.225 174.017L616.746 162.834Z" fill="#FFD500"/>
<path d="M614.413 174.26L611.31 181.637L651.281 192.528L653.122 185.226L614.413 174.26Z" fill="#004F9F"/>
<path d="M664.63 104.01C672.861 106.076 677.043 117.393 673.973 129.345C670.903 141.298 661.753 149.268 653.523 147.203C645.293 145.137 641.102 133.82 644.172 121.876C647.241 109.932 656.4 101.953 664.63 104.01Z" fill="#390075"/>
<path d="M663.409 109.046C665.558 111.011 665.232 115.336 662.673 118.69C660.113 122.044 656.308 123.164 654.158 121.199C652.008 119.233 652.343 114.917 654.894 111.555C657.445 108.193 661.293 107.072 663.409 109.046Z" fill="white"/>
<path d="M662.982 136.907C663.861 138.228 663.225 140.445 661.56 141.858C659.896 143.272 657.838 143.347 656.968 142.026C656.098 140.704 656.726 138.496 658.39 137.082C660.055 135.669 662.113 135.594 662.982 136.907Z" fill="#B199C5"/>
<path d="M748.213 115.168C756.795 115.427 763.386 125.731 762.934 138.186C762.482 150.64 755.155 160.518 746.574 160.259C737.992 159.999 731.409 149.695 731.861 137.249C732.313 124.803 739.632 114.908 748.213 115.168Z" fill="#390075"/>
<path d="M748.129 120.396C750.638 121.885 751.283 126.25 749.484 130.09C747.686 133.929 744.156 135.894 741.605 134.406C739.054 132.917 738.452 128.551 740.25 124.72C742.049 120.889 745.578 118.915 748.129 120.396Z" fill="white"/>
<path d="M753.742 148.039C754.896 149.151 754.746 151.477 753.408 153.233C752.069 154.99 750.062 155.516 748.899 154.396C747.737 153.275 747.904 150.958 749.234 149.202C750.564 147.445 752.554 146.918 753.742 148.039Z" fill="#B199C5"/>
</svg>
