<svg width="374" height="521" viewBox="0 0 374 521" fill="none" xmlns="http://www.w3.org/2000/svg">
<path d="M300.228 273.217C301.639 273.35 303.038 273.596 304.41 273.953C307.546 268.341 321.514 239.803 296.506 214.961C273.68 192.294 251.632 197.781 245.409 199.998C238.768 202.381 235.54 205.744 235.372 207.375C235.063 210.403 236.576 212.393 239.32 216.09C244.365 222.599 248.47 229.784 251.515 237.436C258.767 255.084 251.849 269.989 248.587 275.518C253.606 275.518 259.821 274.974 266.545 274.346C277.151 273.359 289.204 272.239 300.228 273.217Z" fill="#FAA327"/>
<path d="M305.313 274.957L301.809 274.672L291.045 273.836C291.045 273.836 300.856 259.91 301.082 242.713C301.266 231.003 293.779 217.378 289.003 209.942C286.787 206.488 285.156 204.347 285.156 204.347C285.156 204.347 306.568 214.677 311.662 237.736C316.756 260.796 305.313 274.957 305.313 274.957Z" fill="white"/>
<path d="M330.682 303.32C325.32 293.208 314.689 277.483 299.96 276.17C289.187 275.216 277.302 276.32 266.813 277.299C258.851 278.035 251.624 278.704 245.903 278.395C243.431 278.334 240.983 277.897 238.643 277.098C234.762 275.626 231.366 272.548 228.564 269.136C229.359 282.125 229.743 315.138 214.437 326.48C206.198 332.603 197.307 333.431 189.863 332.41H189.688C189.494 332.407 189.304 332.364 189.127 332.285C183.744 331.408 178.548 329.633 173.754 327.032C170.919 328.998 161.208 335.078 149.448 335.078C145.28 335.091 141.151 334.284 137.294 332.703C130.787 330.018 126.421 324.715 124.623 317.38C121.938 306.306 125.685 291.535 133.547 282.251C138.465 276.446 151.948 262.846 170.784 261.909C175.808 261.676 180.833 262.342 185.623 263.875H185.664C194.12 266.534 202.476 271.829 210.64 279.716C210.779 279.852 210.891 280.014 210.967 280.192C211.044 280.371 211.086 280.563 211.088 280.758C211.091 280.952 211.055 281.145 210.983 281.326C210.911 281.507 210.805 281.672 210.669 281.811C210.533 281.951 210.371 282.062 210.193 282.139C210.014 282.216 209.822 282.257 209.627 282.26C209.433 282.263 209.24 282.227 209.059 282.155C208.878 282.083 208.713 281.976 208.574 281.841C202.44 275.897 196.209 271.5 189.88 268.651C210.263 296.001 196.964 322.181 192.297 329.709C199.55 330.443 206.815 328.444 212.672 324.105C229.308 311.751 225.653 268.977 225.218 264.552C223.216 261.446 221.475 258.178 220.016 254.783C218.836 253.11 206.633 236.507 192.807 229.473C189.119 231.422 171.245 240.346 145.876 244.077C119.881 247.924 80.5022 247.046 39.8441 221.268C35.9548 226.838 19.335 253.595 30.568 289.946C36.8913 309.392 41.5752 319.555 50.207 322.875C49.7303 322.34 49.281 321.782 48.8605 321.202C40.1952 309.283 41.7763 286.516 48.9193 274.882C59.5752 257.509 83.1533 257.769 85.3531 258.354C111.14 265.271 117.137 292.697 116.652 307.82C116.251 319.688 110.797 328.789 102.048 333.289C101.817 333.504 101.525 333.644 101.212 333.69C97.622 335.344 93.737 336.263 89.7863 336.392H88.4312C86.6703 336.391 84.9129 336.237 83.1787 335.932H83.1199C77.4794 334.991 72.2947 332.25 68.3406 328.119C63.0377 329.232 58.8973 328.529 55.6771 326.999C54.4593 326.925 53.249 326.76 52.0558 326.505C56.3537 338.624 62.3338 350.077 69.821 360.53C82.4091 378.196 105.285 401.205 142.765 410.582C148.745 410.933 154.759 411.15 160.764 411.242C166.77 411.334 172.917 411.242 178.99 410.782C172.976 411.761 166.895 412.296 160.806 412.723C156.005 413.041 151.196 413.25 146.37 413.408C155.801 421.013 166.209 427.317 177.317 432.153C193.568 439.254 217.741 445.878 246.204 441.219C249.332 438.534 272.308 417.147 257.914 380.446C251.641 379.801 246.572 379.166 246.145 379.116C245.899 379.084 245.665 378.991 245.465 378.845C245.265 378.698 245.105 378.504 244.999 378.279C239.969 383.002 234.115 386.761 227.728 389.37C233.61 385.737 238.989 381.348 243.728 376.314C248.347 371.287 252.167 365.58 255.053 359.393C256.528 356.314 257.772 353.129 258.775 349.866C259.801 346.596 260.639 343.27 261.285 339.905C262.595 333.101 263.211 326.182 263.124 319.254C264.378 326.19 264.524 333.282 263.559 340.264C262.848 345.847 261.463 351.324 259.436 356.574C264.279 355.085 275.788 351.305 279.753 347.909C279.907 347.779 280.087 347.681 280.281 347.622C280.475 347.563 280.678 347.545 280.879 347.567C281.081 347.59 281.275 347.654 281.451 347.754C281.627 347.855 281.78 347.99 281.902 348.151C281.961 348.235 283.734 350.602 286.544 353.914C286.361 348.138 287.355 342.384 289.463 337.002C293.578 326.463 304.084 312.161 330.682 303.32Z" fill="#FAA327"/>
<path d="M235.331 330.946C233.7 349.54 213.048 391.101 151.271 388.433C104.499 386.409 85.3366 356.014 78.7791 341.377C77.6244 338.857 76.6546 336.258 75.8769 333.598C76.3955 333.64 92.4212 334.986 97.7826 334.05C103.144 333.113 112.529 323.243 114.511 316.844C116.418 310.68 117.296 289.586 104.641 272.858C104.167 272.211 103.665 271.575 103.136 270.951C99.6015 266.538 94.9054 263.2 89.5765 261.313C84.2476 259.426 78.4977 259.065 72.9744 260.269C71.905 260.474 70.8513 260.753 69.8211 261.106C69.8211 261.106 69.821 260.93 69.7541 260.604C69.2523 257.116 66.3668 236.465 67.1363 233.906C67.1864 233.705 67.2785 233.613 67.3956 233.663C70.7507 235.006 74.1733 236.173 77.6498 237.159C85.6851 239.542 93.8511 241.461 102.107 242.906C109.634 244.219 118.618 244.403 126.781 244.135C139.57 243.717 150.359 242.195 150.359 242.195L150.493 242.445L161.467 263.473C161.467 263.473 154.943 267.555 154.307 267.939L151.012 269.989C146.537 272.782 139.009 277.558 138.123 278.52C136.885 279.858 130.093 288.172 127.325 294.964C124.556 301.756 121.202 324.397 137.872 331.348C154.541 338.299 173.001 325.25 173.001 325.25C173.001 325.25 187.22 334.811 204.734 329.073C222.249 323.335 225.227 302.759 225.227 302.759C225.227 302.759 236.945 312.353 235.331 330.946Z" fill="white"/>
<path d="M103.178 329.223C109.56 324.874 113.382 317.388 113.709 307.719C114.185 293.5 108.598 267.671 84.6179 261.222C82.0501 260.721 60.8639 261.097 51.4542 276.428C44.9385 287.059 43.3994 308.622 51.27 319.462C52.6772 321.46 54.5451 323.089 56.7153 324.213H56.8072C59.7764 325.677 63.2812 326.045 67.2877 325.292L66.0163 320.876C65.4559 318.843 64.9706 316.785 64.5942 314.711C64.2114 312.64 63.949 310.548 63.808 308.446C63.6687 306.361 63.6549 304.269 63.7664 302.182C63.9035 304.253 64.1629 306.314 64.544 308.354C64.9257 310.383 65.423 312.388 66.033 314.36C66.6436 316.325 67.3462 318.257 68.1241 320.164L69.3285 323.025L69.939 324.506C70.0394 324.79 70.1396 325.016 70.24 325.342L70.3654 325.852C73.5767 329.311 77.7719 331.702 82.3848 332.702C82.5102 332.217 82.6275 331.732 82.7278 331.247C82.9369 330.268 83.1209 329.281 83.2714 328.286C83.5809 326.295 83.773 324.28 83.8901 322.256C84.0904 318.175 83.9479 314.084 83.4638 310.027C84.4411 314.04 85.0789 318.128 85.3706 322.247C85.5044 324.313 85.5547 326.429 85.4878 328.487C85.4878 329.541 85.3877 330.586 85.2873 331.632C85.2455 332.159 85.1868 332.686 85.1198 333.213C86.6403 333.396 88.1733 333.455 89.7034 333.388C93.211 333.277 96.6631 332.481 99.8657 331.046C100.503 329.244 101.025 327.403 101.43 325.534C101.883 323.444 102.199 321.326 102.375 319.194C102.559 317.051 102.559 314.897 102.375 312.754C102.172 310.594 101.746 308.461 101.104 306.389C101.985 308.397 102.655 310.49 103.103 312.637C103.55 314.805 103.81 317.007 103.881 319.219C103.95 321.453 103.872 323.688 103.646 325.911C103.521 327.032 103.362 328.127 103.178 329.223Z" fill="white"/>
<path d="M251.331 440.274C254.977 439.512 258.682 438.601 262.446 437.413C264.387 436.803 266.369 436.066 268.301 435.297C270.233 434.527 272.207 433.624 274.098 432.704C275.999 431.764 277.843 430.711 279.618 429.551C281.403 428.388 283.055 427.034 284.545 425.511C283.223 427.214 281.719 428.767 280.061 430.145C278.396 431.527 276.651 432.809 274.833 433.984C273.027 435.18 271.145 436.267 269.246 437.329C267.758 438.166 266.252 438.893 264.713 439.621C265.959 442.967 270.141 452.535 278.43 456.349C280.631 457.38 283.019 457.949 285.448 458.022L284.502 457.186L283.532 456.149C282.28 454.743 281.247 453.155 280.471 451.44C279.685 449.763 279.176 447.969 278.965 446.128C278.847 445.227 278.8 444.319 278.823 443.41C278.823 442.507 278.965 441.612 279.032 440.725C279.091 441.62 279.032 442.515 279.191 443.393C279.294 444.269 279.462 445.136 279.693 445.986C280.125 447.671 280.826 449.275 281.767 450.737C282.686 452.175 283.814 453.469 285.113 454.576L286.1 455.371C286.451 455.613 286.786 455.864 287.137 456.09C287.809 456.531 288.517 456.914 289.253 457.236H289.295C289.525 457.336 289.726 457.491 289.881 457.688C292.146 457.265 294.353 456.574 296.455 455.63C299.836 454.155 302.841 451.936 305.246 449.14C304.604 448.659 303.995 448.137 303.422 447.575C302.775 446.938 302.163 446.265 301.591 445.56C300.463 444.161 299.523 442.62 298.797 440.976C298.066 439.379 297.551 437.691 297.266 435.958C296.991 434.247 296.907 432.51 297.015 430.78C297.153 432.484 297.478 434.167 297.986 435.799C298.996 438.967 300.802 441.824 303.23 444.096C303.82 444.646 304.443 445.16 305.095 445.635C305.698 446.074 306.333 446.469 306.994 446.814C308.485 444.616 309.688 442.235 310.573 439.73C316.579 423.077 311.41 401.071 308.181 394.697C303.799 385.932 289.58 381.942 278.221 381.942C273.78 381.942 267.222 381.432 261.183 380.855C272.625 411.61 258.415 432.386 251.331 440.274Z" fill="white"/>
<path d="M356.585 307.778C347.242 303.646 338.677 310.856 337.272 312.127C337.181 312.247 337.07 312.351 336.946 312.437L336.837 312.504H336.779C334.318 313.899 331.989 315.515 329.82 317.33C327.599 319.153 325.526 321.15 323.622 323.302C322.635 324.347 321.773 325.502 320.862 326.647C319.95 327.793 319.139 328.973 318.403 330.219C316.847 332.676 315.498 335.258 314.371 337.939C315.27 335.151 316.407 332.445 317.767 329.851C318.403 328.521 319.205 327.283 319.95 326.012C320.694 324.74 321.564 323.503 322.459 322.373C324.231 319.992 326.189 317.754 328.314 315.682C330.139 313.88 332.096 312.216 334.169 310.706C333.751 309.702 333.023 308.037 331.994 305.955C285.055 321.345 289.195 353.948 289.847 357.712C297.417 366.076 308.842 376.673 317.19 375.653C329.176 374.181 351.199 368.242 363.987 345.057C369.349 335.338 370.896 326.94 368.596 320.09C366.296 313.24 360.826 309.66 356.585 307.778Z" fill="white"/>
<path d="M176.623 320.441C176.461 321.245 176.249 322.038 175.987 322.816C175.852 323.22 175.695 323.616 175.519 324.004C175.452 324.171 175.36 324.347 175.276 324.514C179.58 326.846 184.231 328.468 189.052 329.315C192.883 323.506 195.579 317.024 196.998 310.211C200.193 294.612 195.961 279.958 184.452 266.659C180.09 265.299 175.525 264.708 170.96 264.911C153.27 265.748 140.498 278.704 135.831 284.207C128.537 292.814 125.042 306.481 127.526 316.71C128.138 319.311 129.249 321.767 130.796 323.945C130.67 322.992 130.595 322.022 130.545 321.06C130.394 316.685 131.252 312.335 133.054 308.346C133.484 307.364 133.967 306.407 134.501 305.477C135.02 304.549 135.639 303.679 136.174 302.784C135.714 303.746 135.204 304.674 134.802 305.645C134.385 306.612 134.02 307.6 133.706 308.606C133.068 310.59 132.661 312.642 132.494 314.72C132.321 316.764 132.391 318.822 132.703 320.851C132.87 321.863 133.063 322.858 133.33 323.853L133.732 325.359C133.807 325.635 133.882 325.869 133.949 326.195L134.05 326.68C134.08 326.939 134.08 327.2 134.05 327.458C135.369 328.504 136.828 329.362 138.382 330.009C142.446 331.665 146.835 332.366 151.213 332.058C150.244 327.824 150.034 323.452 150.594 319.144C150.711 318.007 150.962 316.886 151.179 315.799C151.313 315.238 151.48 314.694 151.631 314.126C151.766 313.573 151.939 313.031 152.15 312.503C152.898 310.375 153.882 308.339 155.085 306.431C154.108 308.434 153.362 310.541 152.861 312.712C152.713 313.245 152.604 313.787 152.534 314.335C152.451 314.878 152.342 315.414 152.275 316.008C152.183 317.103 152.066 318.191 152.074 319.295C152.034 321.477 152.196 323.658 152.559 325.81C152.899 327.849 153.428 329.851 154.14 331.791C160.603 330.708 166.756 328.246 172.181 324.573C172.147 324.36 172.161 324.142 172.222 323.935C172.283 323.728 172.389 323.537 172.533 323.377C172.613 323.306 172.686 323.227 172.75 323.142C172.842 323.008 172.943 322.891 173.026 322.749C173.21 322.473 173.386 322.164 173.553 321.854C173.892 321.214 174.189 320.552 174.44 319.872C174.967 318.467 175.397 317.028 175.728 315.564C176.079 314.084 176.339 312.578 176.564 311.065C176.79 309.551 176.933 308.012 177.066 306.473C177.175 308.012 177.267 309.551 177.3 311.106C177.334 312.662 177.301 314.218 177.192 315.782C177.114 317.346 176.924 318.903 176.623 320.441Z" fill="white"/>
<path d="M183.046 233.956C183.046 233.956 177.007 257.1 151.011 269.989L154.307 267.94C154.942 267.555 161.466 263.473 161.466 263.473L150.493 242.446C170.265 239.552 183.046 233.956 183.046 233.956Z" fill="#EF7F25"/>
<path d="M69.7536 260.604L67.0017 260.922C48.2577 256.74 36.2889 227.131 36.2889 227.131C36.1383 224.797 39.4838 219.268 39.4838 219.268C44.0005 223.969 53.9036 229.305 67.1357 233.906C66.3662 236.465 69.2266 257.116 69.7536 260.604Z" fill="#EF7F25"/>
<g opacity="0.25">
<path d="M161.467 263.472C161.467 263.472 154.943 267.554 154.307 267.939L151.011 269.988C148.264 271.355 145.431 272.542 142.53 273.543C123.034 280.309 111.14 276.889 104.641 272.857C102.09 271.375 99.8858 269.364 98.1752 266.96C98.1752 266.96 92.0529 262.653 90.4302 262.268C88.8076 261.883 81.8318 259.884 79.8411 259.759C78.8708 259.709 75.8514 259.976 72.9742 260.261L69.7539 260.595C69.252 257.107 66.3665 236.456 67.136 233.897C70.4398 235.043 73.961 236.13 77.6496 237.151C90.8761 240.748 104.435 242.99 118.116 243.842C121.06 244.017 123.97 244.11 126.781 244.118C134.716 244.157 142.642 243.598 150.493 242.445L161.467 263.472Z" fill="#020772"/>
</g>
<path d="M335.728 333.724C336.808 330.339 335.961 327.046 333.835 326.368C331.709 325.689 329.111 327.883 328.031 331.267C326.951 334.651 327.798 337.944 329.924 338.623C332.049 339.301 334.648 337.108 335.728 333.724Z" fill="#F95089"/>
<path d="M350.906 330.525C351.97 327.189 351.132 323.942 349.032 323.272C346.933 322.602 344.369 324.763 343.304 328.099C342.239 331.435 343.078 334.682 345.177 335.352C347.276 336.022 349.841 333.861 350.906 330.525Z" fill="#F95089"/>
<path d="M335.051 369.837C343.717 368.444 350.035 362.919 349.164 357.496C348.292 352.073 340.561 348.806 331.895 350.199C323.229 351.591 316.911 357.116 317.783 362.539C318.654 367.962 326.386 371.229 335.051 369.837Z" fill="#F95089"/>
<path d="M363.404 342.556C364.551 338.961 363.648 335.461 361.386 334.739C359.124 334.017 356.36 336.346 355.212 339.942C354.065 343.537 354.968 347.037 357.23 347.759C359.492 348.481 362.256 346.151 363.404 342.556Z" fill="#F95089"/>
<g opacity="0.25">
<path d="M125.267 322.281C125.267 322.281 132.167 343.768 149.113 341.978C166.058 340.188 168.484 334.844 173.712 336.759C178.939 338.674 199.833 346.746 214.487 333.597C229.141 320.449 226.857 302.533 226.807 302.767C226.757 303.001 215.198 332.042 198.561 331.305C181.925 330.569 175.334 324.012 172.181 326.111C169.028 328.211 160.613 332.426 149.439 334.049C138.264 335.672 125.267 322.281 125.267 322.281Z" fill="#020772"/>
</g>
<path d="M304.158 274.672C303.991 274.915 303.824 275.149 303.648 275.375C303.648 275.375 291.403 275.634 286.811 275.375C282.22 275.116 251.139 277.516 248.838 277.341C246.538 277.165 252.602 253.143 252.795 245.431C252.795 244.645 259.168 259.324 266.043 261.616C272.919 263.908 287.455 264.033 291.018 245.941C294.582 227.85 282.06 204.84 274.708 200.574C269.506 197.555 280.613 201.829 291.386 209.942C296.162 217.378 303.648 230.97 303.464 242.713C303.213 259.91 293.427 273.836 293.427 273.836L304.158 274.672Z" fill="#EF7F25"/>
<g opacity="0.25">
<path d="M304.159 274.672L293.403 273.835C293.403 273.835 303.214 259.909 303.44 242.712C303.624 231.002 296.138 217.377 291.362 209.941C295.914 213.238 299.957 217.183 303.365 221.651C314.004 236.464 312.624 262.953 304.159 274.672Z" fill="#020772"/>
</g>
<g opacity="0.4">
<path d="M33.8804 248.326C32.0989 249.271 30.3759 255.519 31.3712 260.236C32.3665 264.954 34.8924 267.112 36.2557 262.336C37.6191 257.56 36.7075 246.837 33.8804 248.326Z" fill="white"/>
</g>
<g opacity="0.4">
<path d="M38.9814 265.055C38.4237 265.318 37.9825 265.777 37.7418 266.345C37.5012 266.912 37.4778 267.549 37.6765 268.133C38.2118 269.354 39.5336 269.906 40.2446 268.677C40.9555 267.447 40.4702 264.67 38.9814 265.055Z" fill="white"/>
</g>
<g opacity="0.4">
<path d="M250.001 217.637C250.143 220.941 257.019 237.042 262.464 237.134C267.909 237.226 264.664 224.42 259.31 218.691C253.957 212.962 249.767 212.092 250.001 217.637Z" fill="white"/>
</g>
<g opacity="0.4">
<path d="M270.26 234.532C269.699 235.544 269.875 240.462 272.995 240.562C274.668 240.604 276.131 238.011 274.81 235.878C273.488 233.745 271.121 232.976 270.26 234.532Z" fill="white"/>
</g>
<g opacity="0.25">
<path d="M56.681 324.213H56.7729C57.4942 324.557 58.2444 324.837 59.0146 325.049L60.9047 325.459C63.0167 325.75 65.1629 325.685 67.2534 325.267L65.982 320.85C65.4216 318.818 64.9364 316.76 64.56 314.686C64.1772 312.615 63.9147 310.523 63.7738 308.421C63.6345 306.336 63.6207 304.244 63.7321 302.156C63.8692 304.228 64.1287 306.289 64.5097 308.329C64.8914 310.358 65.3887 312.363 65.9988 314.335C66.6094 316.3 67.3119 318.232 68.0898 320.139L69.2942 323L69.9048 324.481C70.0051 324.765 70.1054 324.991 70.2058 325.317L70.3311 325.827C73.5424 329.286 77.7376 331.677 82.3505 332.677C82.476 332.192 82.5932 331.707 82.6936 331.222C82.9027 330.243 83.0866 329.256 83.2371 328.261C83.5466 326.27 83.7392 324.255 83.8563 322.23C83.9399 320.624 83.9481 319.01 83.9147 317.388C70.4819 313.206 74.714 285.805 56.4049 294.386C53.1843 296.022 49.5906 296.784 45.9832 296.594C45.565 305.067 47.1043 313.707 51.2362 319.403C52.6362 321.423 54.5043 323.073 56.681 324.213Z" fill="#020772"/>
</g>
<g opacity="0.25">
<path d="M33.1191 305.97C31.5382 302.089 30.0159 297.706 28.4351 292.897C29.5716 297.395 31.1403 301.773 33.1191 305.97Z" fill="#020772"/>
</g>
<g opacity="0.25">
<path d="M102.994 312.302C102.994 312.427 103.053 312.553 103.078 312.678C103.525 314.846 103.785 317.048 103.855 319.261C103.925 321.494 103.847 323.729 103.621 325.952C103.504 327.065 103.362 328.16 103.178 329.256C109.56 324.907 113.382 317.421 113.709 307.752C113.826 303.218 113.424 298.686 112.512 294.244C112.487 294.511 111.618 305.301 102.994 312.302Z" fill="#020772"/>
</g>
<path d="M50.2241 322.865C49.7474 322.331 49.2981 321.772 48.8775 321.193C44.2438 314.819 42.5375 305.342 43.0226 296.1C32.5591 293.198 28.2266 280.15 28.0342 279.564C28.6631 283.057 29.501 286.51 30.5434 289.902C36.9085 309.382 41.6257 319.545 50.2241 322.865Z" fill="#EF7F25"/>
<g opacity="0.25">
<path d="M84.8857 317.696C85.0948 319.219 85.2618 320.741 85.3705 322.28C85.5043 324.346 85.5546 326.462 85.4877 328.519C85.4877 329.573 85.3876 330.619 85.2872 331.664C85.2454 332.191 85.1867 332.718 85.1198 333.245C86.6402 333.429 88.1732 333.488 89.7033 333.421C93.2109 333.309 96.663 332.514 99.8656 331.079C100.502 329.276 101.025 327.435 101.43 325.567C101.883 323.476 102.199 321.359 102.375 319.227C102.559 317.092 102.559 314.946 102.375 312.812C98.7651 315.465 94.5455 317.168 90.1048 317.763C88.3754 318.058 86.607 318.035 84.8857 317.696Z" fill="#020772"/>
</g>
<g opacity="0.25">
<path d="M177.175 307.25C177.258 308.505 177.325 309.759 177.35 311.031C177.35 312.586 177.35 314.142 177.242 315.706C177.15 317.292 176.943 318.868 176.622 320.424C176.46 321.228 176.248 322.021 175.987 322.799C175.851 323.203 175.695 323.599 175.518 323.987C175.452 324.154 175.36 324.33 175.276 324.497C179.579 326.829 184.231 328.45 189.051 329.298C192.432 324.172 194.934 318.519 196.454 312.57C190.289 311.733 185.329 308.672 180.687 307.183C179.546 306.787 178.3 306.811 177.175 307.25Z" fill="#020772"/>
</g>
<g opacity="0.25">
<path d="M210.122 310.278C206.769 311.906 203.093 312.763 199.366 312.787C197.902 318.769 195.52 324.488 192.306 329.741C199.559 330.475 206.824 328.477 212.681 324.137C219.858 318.809 223.254 307.827 224.768 296.695C221.383 302.608 216.273 307.347 210.122 310.278Z" fill="#020772"/>
</g>
<g opacity="0.25">
<path d="M127.508 316.693C128.121 319.293 129.231 321.75 130.778 323.928C130.653 322.974 130.578 322.004 130.527 321.042C130.447 318.845 130.63 316.647 131.071 314.493C131.247 313.657 131.464 312.82 131.698 311.984C129.755 309.13 128.299 305.972 127.391 302.641C126.455 307.282 126.495 312.068 127.508 316.693Z" fill="#020772"/>
</g>
<g opacity="0.25">
<path d="M152.609 325.734C152.949 327.772 153.478 329.774 154.19 331.714C160.652 330.631 166.805 328.17 172.231 324.496C172.197 324.283 172.211 324.065 172.272 323.858C172.332 323.651 172.438 323.46 172.582 323.3C172.662 323.229 172.735 323.15 172.8 323.066C172.892 322.932 172.993 322.815 173.076 322.672C173.26 322.396 173.436 322.087 173.603 321.778C173.942 321.137 174.238 320.475 174.49 319.795C175.017 318.39 175.447 316.951 175.778 315.488C176.129 314.007 176.388 312.502 176.614 310.988C176.781 309.767 176.915 308.537 177.032 307.308C171.922 309.424 167.665 319.017 152.132 320.69C152.17 322.381 152.329 324.066 152.609 325.734Z" fill="#020772"/>
</g>
<g opacity="0.25">
<path d="M132.694 313.314C132.635 313.774 132.577 314.242 132.535 314.702C132.362 316.747 132.432 318.805 132.744 320.833C132.911 321.845 133.104 322.841 133.371 323.836L133.773 325.341C133.848 325.617 133.923 325.852 133.99 326.178L134.09 326.663C134.121 326.921 134.121 327.182 134.09 327.441C135.41 328.487 136.868 329.345 138.423 329.992C142.487 331.648 146.876 332.349 151.254 332.041C150.412 328.369 150.144 324.588 150.459 320.833C141.819 321.402 136.248 317.747 132.694 313.314Z" fill="#020772"/>
</g>
<g opacity="0.25">
<path d="M251.33 440.273C254.977 439.512 258.682 438.6 262.446 437.412C264.386 436.802 266.369 436.066 268.301 435.296C270.233 434.527 272.207 433.623 274.097 432.703C274.808 432.335 275.528 431.959 276.23 431.574C269.262 434.046 262.003 435.603 254.634 436.208C253.455 437.805 252.317 439.211 251.33 440.273Z" fill="#020772"/>
</g>
<g opacity="0.25">
<path d="M281.803 450.695C282.703 452.123 283.814 453.406 285.098 454.501L286.085 455.296C286.437 455.538 286.771 455.789 287.122 456.015C287.794 456.455 288.502 456.839 289.239 457.161H289.28C289.51 457.261 289.711 457.416 289.866 457.612C292.131 457.19 294.338 456.499 296.44 455.555C299.821 454.08 302.826 451.861 305.231 449.064C304.597 448.608 303.993 448.11 303.424 447.575C302.777 446.938 302.165 446.265 301.592 445.56C300.464 444.161 299.525 442.62 298.799 440.976C298.531 440.374 298.297 439.755 298.079 439.136C297.745 439.855 297.402 440.566 297.017 441.269C293.713 447.341 287.423 449.792 281.803 450.695Z" fill="#020772"/>
</g>
<g opacity="0.25">
<path d="M271.422 450.979C273.368 453.229 275.753 455.056 278.431 456.349C280.632 457.38 283.02 457.949 285.448 458.022L284.503 457.186L283.533 456.148C282.28 454.743 281.248 453.155 280.472 451.44L280.28 450.988C277.335 451.298 274.366 451.295 271.422 450.979Z" fill="#020772"/>
</g>
<g opacity="0.25">
<path d="M75.9183 373L76.2025 373.317L75.8599 372.933L75.9183 373Z" fill="#020772"/>
</g>
<g opacity="0.25">
<path d="M298.723 437.639C299.124 438.548 299.59 439.426 300.12 440.265C300.994 441.654 302.046 442.922 303.248 444.038C303.839 444.587 304.462 445.101 305.113 445.577C305.716 446.016 306.351 446.41 307.012 446.756C308.503 444.557 309.706 442.176 310.592 439.672C316.597 423.019 311.428 401.013 308.2 394.639C303.817 385.873 289.598 381.884 278.24 381.884C273.798 381.884 267.241 381.374 261.202 380.796C263.814 387.627 265.258 394.849 265.476 402.158C279.561 402.276 291.865 403.831 295.127 406.591C301.751 412.254 303.558 425.762 298.723 437.639Z" fill="#020772"/>
</g>
<g opacity="0.25">
<path d="M333.609 364.41C319.591 368.358 311.561 359.182 300.094 345.172C294.892 338.824 296.063 332.626 298.329 327.608C287.682 341.434 289.489 355.377 289.898 357.719C297.468 366.083 308.893 376.68 317.241 375.66C329.226 374.187 351.249 368.249 364.038 345.064C365.504 342.452 366.746 339.721 367.752 336.9C367.033 336.189 347.594 360.47 333.609 364.41Z" fill="#020772"/>
</g>
<path d="M303.289 318.065C297.187 323.143 292.44 329.655 289.471 337.018C287.359 342.401 286.366 348.159 286.552 353.939C283.742 350.593 281.977 348.251 281.91 348.176C281.788 348.011 281.634 347.874 281.457 347.772C281.28 347.67 281.084 347.605 280.881 347.582C280.68 347.559 280.477 347.579 280.284 347.639C280.091 347.7 279.913 347.8 279.761 347.933C275.796 351.329 264.287 355.11 259.444 356.598C261.469 351.347 262.854 345.871 263.568 340.288C264.533 333.303 264.386 326.209 263.133 319.269C263.22 326.198 262.603 333.117 261.292 339.92C260.647 343.286 259.81 346.612 258.783 349.882C257.781 353.143 256.538 356.325 255.061 359.4C252.18 365.591 248.363 371.301 243.745 376.329C238.999 381.359 233.617 385.748 227.735 389.386C234.123 386.777 239.978 383.018 245.008 378.295C245.113 378.52 245.273 378.714 245.473 378.86C245.674 379.007 245.907 379.1 246.153 379.131C246.58 379.19 251.657 379.826 257.93 380.47C260.732 387.374 262.317 394.712 262.614 402.158C246.003 402.25 227.644 404.257 218.945 408.372C202.217 416.276 194.221 424.942 195.241 428.254C195.986 430.688 223.528 438.157 250.804 436.501C249.409 438.195 247.886 439.778 246.246 441.235C217.808 445.885 193.61 439.27 177.358 432.168C166.249 427.332 155.84 421.025 146.411 413.416C151.237 413.265 156.038 413.048 160.848 412.739C166.928 412.312 173.026 411.777 179.023 410.79C172.959 411.283 166.887 411.325 160.814 411.258C154.742 411.191 148.787 410.94 142.815 410.597C105.335 401.213 82.4506 378.203 69.871 360.546C62.3793 350.095 56.396 338.641 52.0972 326.521C53.2904 326.776 54.501 326.941 55.7189 327.015C58.9307 328.545 63.0795 329.248 68.3823 328.135C70.5359 330.401 73.0875 332.253 75.91 333.597C76.6877 336.257 77.6575 338.857 78.8122 341.376C74.4877 341.335 70.1718 340.983 65.898 340.322C65.898 340.322 89.4095 388.24 140.832 395.308C192.255 402.375 225.101 384.844 239.855 363.708C254.61 342.572 258.014 302.759 258.014 302.759C258.014 302.759 266.378 306.422 267.767 320.189C269.155 333.957 296.204 316.175 302.168 316.936C303.013 317.095 303.322 317.446 303.289 318.065Z" fill="#EF7F25"/>
<g opacity="0.25">
<path d="M104.114 332.151C104.114 332.151 98.6854 341.251 85.629 341.444C83.1198 341.444 80.8197 341.444 78.7788 341.444C77.6242 338.924 76.6544 336.325 75.8767 333.665C78.1827 334.779 80.6311 335.57 83.1533 336.015H83.2121C84.9463 336.32 86.7037 336.474 88.4646 336.475H89.8197C93.773 336.346 97.6605 335.428 101.253 333.773C101.565 333.727 101.855 333.59 102.09 333.38C102.784 333.021 103.453 332.619 104.106 332.209L104.114 332.151Z" fill="#020772"/>
</g>
<g opacity="0.25">
<path d="M60.9384 325.527L59.0483 325.117C59.6683 325.297 60.2997 325.434 60.9384 325.527Z" fill="#020772"/>
</g>
<g opacity="0.25">
<path d="M60.9384 325.527L59.0483 325.117C59.6683 325.297 60.2997 325.434 60.9384 325.527Z" fill="#020772"/>
</g>
<g opacity="0.4">
<path d="M215.826 262.369C221.321 278.044 225.327 291.443 225.403 290.757C226.067 282.03 226.011 273.262 225.235 264.544C223.233 261.437 221.492 258.17 220.033 254.774C218.853 253.102 206.65 236.499 192.824 229.465C192.088 229.858 190.775 230.527 188.96 231.372C188.96 231.372 210.28 246.544 215.826 262.369Z" fill="white"/>
</g>
<g opacity="0.4">
<path d="M209.937 283.362C210.046 283.128 209.937 282.751 209.678 282.283C209.477 282.294 209.276 282.264 209.087 282.193C208.898 282.123 208.726 282.014 208.582 281.873C202.448 275.929 196.217 271.532 189.888 268.683C192.418 272.066 194.578 275.712 196.329 279.556V279.615C196.329 279.615 209.184 284.876 209.937 283.362Z" fill="white"/>
</g>
<g opacity="0.4">
<path d="M244.783 284.927C255.589 284.442 295.921 279.992 304.235 283.078C311.37 285.73 321.591 301.429 325.079 305.36C326.869 304.649 328.725 303.972 330.682 303.32C325.321 293.207 314.69 277.483 299.961 276.17C289.188 275.216 277.303 276.32 266.814 277.299C258.851 278.035 251.625 278.704 245.904 278.394C243.432 278.334 240.983 277.897 238.643 277.098C234.762 275.626 231.367 272.548 228.565 269.135C228.732 271.829 228.874 275.392 228.866 279.432C229.17 280.079 229.573 280.674 230.062 281.196C230.062 281.196 234.002 285.404 244.783 284.927Z" fill="white"/>
</g>
<g opacity="0.4">
<path d="M266.537 274.346L268.536 274.162C260.883 274.513 254.074 275.174 249.098 275.509C254.074 275.5 260.038 274.948 266.537 274.346Z" fill="white"/>
</g>
<path d="M88.4656 337.763C84.6712 337.829 80.9015 337.142 77.3741 335.742C73.8468 334.342 70.6319 332.257 67.915 329.608C57.3177 331.54 51.1365 326.614 47.7741 321.997C38.8162 309.668 40.4137 286.165 47.7741 274.17C58.8315 256.146 83.4138 256.438 85.7056 257.049C108.983 263.289 118.702 287.068 117.999 307.853C117.406 325.325 106.365 337.052 89.8623 337.729L88.4656 337.763ZM68.9185 323.669C69.3528 323.67 69.7816 323.77 70.1715 323.961C70.5614 324.152 70.9022 324.43 71.1684 324.773C71.411 325.083 77.4332 332.585 89.6365 332.084C103.161 331.523 111.86 322.172 112.354 307.669C112.814 293.843 107.435 268.809 84.3337 262.544C81.4063 262.126 61.4495 262.703 52.6003 277.131C46.2853 287.419 44.7714 308.237 52.3577 318.668C56.0128 323.686 61.3658 325.409 68.2495 323.745C68.4717 323.694 68.6991 323.668 68.9271 323.669H68.9185Z" fill="#020772"/>
<path d="M66.2074 325.718C66.1201 325.989 66.1055 326.277 66.1653 326.555C66.1136 325.821 65.9846 325.095 65.7806 324.388L65.0614 321.294C64.593 319.194 64.2249 317.112 63.9322 314.954C63.3671 310.746 63.3111 306.486 63.7651 302.265C64.5369 308.406 66.3318 314.374 69.076 319.922C69.7703 321.428 70.9416 323.552 71.502 325.1C72.4304 327.433 70.7157 329.909 68.1563 329.282C67.4347 329.074 66.8248 328.588 66.461 327.931C66.0972 327.274 66.0089 326.499 66.2156 325.777L66.2074 325.718Z" fill="#020772"/>
<path d="M82.9449 337.278C82.564 337.201 82.203 337.047 81.8834 336.825C81.5639 336.604 81.2923 336.32 81.0858 335.991C80.8793 335.662 80.7419 335.294 80.6819 334.91C80.6219 334.526 80.6404 334.133 80.7366 333.757C81.9911 330.041 82.8325 326.198 83.2459 322.298C83.673 318.233 83.7572 314.14 83.497 310.061C85.8474 317.94 87.0935 326.421 86.2905 334.685V334.852C86.3892 334.136 86.2091 333.408 85.7874 332.82C85.3657 332.232 84.7346 331.828 84.0239 331.691C84.3891 331.759 84.7372 331.898 85.0486 332.101C85.3599 332.304 85.6283 332.566 85.8384 332.872C86.0485 333.179 86.1965 333.523 86.2734 333.887C86.3502 334.25 86.3545 334.625 86.2864 334.991C86.2183 335.356 86.0791 335.704 85.8764 336.015C85.6737 336.327 85.4117 336.595 85.1053 336.805C84.7989 337.015 84.4539 337.163 84.0904 337.24C83.727 337.317 83.3521 337.321 82.9869 337.253L82.9449 337.278Z" fill="#020772"/>
<path d="M98.3924 331.213C100.922 325.415 102.158 319.135 102.014 312.811C101.925 310.646 101.611 308.496 101.077 306.396C102.071 308.375 102.853 310.452 103.411 312.594C105.02 319.281 105.14 326.239 103.762 332.977C103.672 333.363 103.502 333.725 103.264 334.041C103.026 334.357 102.724 334.62 102.378 334.813C102.033 335.006 101.651 335.124 101.257 335.161C100.863 335.198 100.465 335.152 100.09 335.026C99.7149 334.9 99.3698 334.698 99.0773 334.431C98.7848 334.165 98.551 333.84 98.3912 333.478C98.2314 333.116 98.1493 332.724 98.1494 332.328C98.1496 331.933 98.2323 331.541 98.3924 331.179V331.213Z" fill="#020772"/>
<path d="M286.018 462.321C282.767 462.335 279.554 461.629 276.608 460.255C267.692 456.123 262.991 446.872 261.134 442.297C225.47 452.468 194.983 444.606 175.502 436.066C156.173 427.601 143.928 417.096 141.209 414.637C102.734 404.843 79.2481 381.18 66.2921 362.955C54.2477 346.026 48.9361 330.912 47.5226 326.404C37.1594 321.661 32.2163 308.839 26.4869 291.274C13.1879 248.249 36.2979 218.757 37.2933 217.528C37.7292 216.98 38.3538 216.614 39.0449 216.501C39.736 216.388 40.4445 216.536 41.0322 216.917C80.8873 242.654 119.597 243.599 145.04 239.868C172.734 235.803 191.227 225.474 191.402 225.373C191.802 225.147 192.25 225.021 192.709 225.005C193.167 224.989 193.623 225.083 194.037 225.281C209.804 232.909 223.103 251.662 223.663 252.456C223.786 252.632 223.889 252.82 223.972 253.017C224.039 253.184 230.781 269.519 240.199 273.091C245.218 274.989 255.505 274.036 266.42 273.015C277.093 272.028 289.188 270.899 300.354 271.895C320.428 273.684 333.058 297.522 337.198 306.731C341.43 303.821 349.443 299.914 358.334 303.854C365.452 307.007 370.563 312.302 372.737 318.767C375.447 326.805 373.791 336.332 367.827 347.205C353.608 373 328.081 378.73 317.776 379.993C303.984 381.665 285.943 360.362 280.138 352.96C274.183 356.565 263.736 359.86 259.821 361.031C257.73 366.167 254.075 371.788 251.457 375.459C258.425 376.296 271.247 377.609 278.222 377.609C287.967 377.609 306.066 380.796 312.038 392.74C315.978 400.619 320.955 423.637 314.631 441.168C311.461 449.95 305.916 456.131 298.154 459.569C294.343 461.318 290.21 462.255 286.018 462.321ZM262.882 435.999C263.349 436.002 263.808 436.116 264.221 436.334C264.549 436.508 264.839 436.746 265.074 437.033C265.31 437.32 265.486 437.651 265.593 438.006C265.593 438.123 269.49 450.711 278.975 455.103C283.851 457.361 289.531 457.093 295.854 454.266C302.177 451.439 306.66 446.412 309.278 439.144C315.133 422.884 310.056 401.397 306.953 395.174C302.821 386.927 289.154 383.163 278.197 383.163C268.001 383.163 246.815 380.52 245.92 380.402C245.422 380.341 244.949 380.149 244.55 379.844C244.151 379.54 243.841 379.135 243.65 378.671C243.459 378.207 243.395 377.701 243.465 377.204C243.535 376.707 243.735 376.238 244.046 375.844C244.13 375.744 252.21 365.406 254.92 357.66C255.072 357.235 255.324 356.852 255.654 356.544C255.984 356.235 256.383 356.01 256.818 355.887C261.578 354.532 274.818 350.267 278.816 346.837C279.111 346.585 279.455 346.396 279.826 346.282C280.197 346.168 280.588 346.132 280.973 346.175C281.359 346.218 281.732 346.34 282.069 346.533C282.406 346.726 282.699 346.986 282.931 347.297C288.828 355.243 306.443 375.585 317.015 374.28C328.725 372.833 350.288 367.037 362.792 344.37C367.961 335.002 369.484 326.964 367.3 320.482C365.168 314.159 359.965 310.713 355.967 308.948C346.691 304.833 338.294 312.871 337.942 313.214C337.606 313.541 337.193 313.78 336.741 313.908C336.29 314.036 335.813 314.051 335.355 313.949C334.896 313.848 334.47 313.635 334.114 313.328C333.759 313.022 333.485 312.632 333.317 312.193C333.192 311.858 320.662 279.305 299.777 277.448C289.121 276.503 277.302 277.599 266.872 278.569C254.778 279.698 244.331 280.669 238.108 278.293C227.093 274.111 219.874 257.952 218.787 255.375C217.248 253.259 205.781 237.811 192.766 230.927C187.923 233.436 170.676 241.675 146.019 245.33C120.048 249.186 80.7786 248.35 40.179 223.031C35.4449 230.224 21.343 255.651 31.8149 289.468C38.1967 309.098 42.6131 318.433 50.4753 321.511C50.668 321.56 50.8555 321.627 51.0357 321.711C52.7067 322.277 54.4502 322.601 56.213 322.673C56.9628 322.713 57.6661 323.049 58.1681 323.608C58.67 324.166 58.9296 324.901 58.8897 325.651C58.8498 326.401 58.5137 327.104 57.9553 327.606C57.3969 328.108 56.6618 328.367 55.912 328.327C55.2847 328.286 54.6742 328.235 54.0803 328.168C58.3068 339.396 63.984 350.022 70.9675 359.777C83.4384 377.249 106.097 400.008 143.209 409.259C143.684 409.373 144.12 409.613 144.471 409.953C144.597 410.07 157.177 421.855 177.928 430.905C196.956 439.202 226.984 446.797 262.004 436.057C262.292 435.993 262.588 435.973 262.882 435.999Z" fill="#020772"/>
<path d="M245.911 279.749C245.308 279.748 244.721 279.551 244.238 279.189C243.94 278.968 243.688 278.69 243.497 278.371C243.306 278.053 243.18 277.7 243.126 277.332C243.071 276.965 243.09 276.59 243.18 276.23C243.271 275.87 243.431 275.531 243.653 275.233C244.138 274.564 255.58 258.672 247.525 239.075C244.629 231.756 240.706 224.887 235.874 218.675C232.813 214.584 230.604 211.64 231.081 206.965C231.499 202.933 236.552 198.6 243.962 195.974C250.779 193.54 274.91 187.485 299.55 211.933C315.091 227.373 316.429 244.327 314.815 255.836C313.769 263.364 311.29 270.621 307.513 277.215C307.316 277.53 307.059 277.804 306.757 278.02C306.455 278.236 306.113 278.39 305.751 278.474C305.389 278.558 305.014 278.57 304.648 278.509C304.281 278.448 303.93 278.315 303.615 278.118C303.3 277.922 303.027 277.665 302.811 277.363C302.595 277.06 302.44 276.719 302.356 276.357C302.273 275.995 302.261 275.62 302.322 275.253C302.383 274.887 302.515 274.536 302.712 274.221C303.506 272.933 322.05 242.27 295.561 215.956C273.546 194.092 252.268 199.102 246.271 201.16C239.763 203.393 236.836 206.588 236.711 207.542C236.468 209.926 237.472 211.398 240.408 215.312C245.514 221.913 249.673 229.197 252.761 236.95C262.062 259.583 248.763 277.867 248.195 278.637C247.927 278.988 247.581 279.271 247.185 279.464C246.788 279.657 246.352 279.755 245.911 279.749Z" fill="#020772"/>
<path d="M142.647 409.242C154.725 410.338 166.903 411.242 179.031 410.798C173.043 411.994 166.954 412.764 160.865 413.408C154.776 414.052 148.67 414.537 142.522 414.897C142.133 414.917 141.744 414.856 141.379 414.719C141.014 414.582 140.681 414.371 140.401 414.099C140.122 413.827 139.901 413.501 139.753 413.14C139.605 412.779 139.533 412.392 139.542 412.002C139.551 411.612 139.64 411.228 139.803 410.874C139.967 410.521 140.202 410.204 140.493 409.945C140.785 409.686 141.126 409.49 141.497 409.369C141.868 409.248 142.259 409.205 142.647 409.242Z" fill="#020772"/>
<path d="M263.133 319.27C268.419 340.055 262.154 364.11 246.128 378.705C240.821 383.53 234.549 387.171 227.727 389.386C233.287 385.346 238.397 380.719 242.967 375.586C256.542 360.062 261.803 339.57 263.149 319.27H263.133Z" fill="#020772"/>
<path d="M149.439 336.441C145.1 336.446 140.802 335.593 136.793 333.931C129.867 331.079 125.209 325.458 123.327 317.68C120.542 306.213 124.406 290.915 132.527 281.371C137.546 275.433 151.355 261.515 170.726 260.553C184.636 259.875 198.387 265.981 211.585 278.745C211.852 279.003 212.065 279.312 212.213 279.653C212.36 279.994 212.439 280.361 212.445 280.733C212.451 281.104 212.384 281.474 212.247 281.819C212.11 282.165 211.906 282.48 211.648 282.747C211.389 283.014 211.08 283.227 210.739 283.375C210.398 283.522 210.031 283.602 209.66 283.607C209.288 283.613 208.919 283.546 208.573 283.409C208.228 283.272 207.913 283.068 207.646 282.81C195.618 271.184 183.297 265.613 171.011 266.207C153.847 267.043 141.401 279.656 136.843 285.035C129.917 293.198 126.472 306.656 128.822 316.342C130.286 322.372 133.698 326.529 138.951 328.696C155.353 335.462 171.797 323.133 171.964 322.999C172.425 322.651 172.98 322.451 173.557 322.428C174.134 322.404 174.705 322.556 175.193 322.866C176.029 323.367 195.342 335.27 211.878 322.983C228.731 310.437 223.914 264.752 223.863 264.292C223.781 263.546 223.999 262.799 224.468 262.214C224.937 261.629 225.619 261.254 226.365 261.172C227.11 261.09 227.857 261.307 228.442 261.776C229.028 262.245 229.402 262.927 229.484 263.673C229.71 265.68 234.687 313.088 215.265 327.524C198.403 340.071 179.5 331.648 173.838 328.603C170.191 331.029 160.714 336.441 149.439 336.441Z" fill="#020772"/>
<path d="M189.671 333.772C189.052 333.776 188.448 333.573 187.957 333.195C187.359 332.739 186.967 332.065 186.866 331.32C186.766 330.575 186.966 329.82 187.421 329.222C188.408 327.926 210.339 298.233 183.114 267.194C182.619 266.629 182.369 265.891 182.418 265.142C182.468 264.393 182.813 263.695 183.377 263.2C183.942 262.705 184.68 262.455 185.429 262.505C186.178 262.554 186.877 262.899 187.371 263.463C203.213 281.522 203.623 299.387 201.172 311.189C199.596 318.908 196.447 326.22 191.921 332.668C191.657 333.014 191.316 333.293 190.926 333.484C190.536 333.676 190.106 333.774 189.671 333.772Z" fill="#020772"/>
<path d="M171.588 322.389C171.588 322.389 171.504 322.48 171.546 322.472C172.39 321.623 173.061 320.617 173.52 319.511C175.443 315.455 176.397 310.829 177.116 306.396C177.607 309.51 177.873 312.654 177.911 315.806C177.861 319.152 177.693 322.857 175.995 325.901C173.628 329.113 169.011 325.45 171.588 322.389Z" fill="#020772"/>
<path d="M150.201 333.362C148.277 324.203 149.707 314.125 155.135 306.396C154.262 308.441 153.624 310.58 153.237 312.77C152.172 319.098 152.971 325.599 155.537 331.48C155.719 331.842 155.822 332.239 155.839 332.643C155.856 333.048 155.786 333.452 155.634 333.827C155.483 334.203 155.254 334.542 154.961 334.822C154.668 335.102 154.32 335.317 153.938 335.452C153.556 335.586 153.149 335.638 152.745 335.604C152.342 335.569 151.951 335.449 151.597 335.251C151.243 335.054 150.936 334.783 150.695 334.457C150.454 334.131 150.286 333.758 150.201 333.362Z" fill="#020772"/>
<path d="M129.892 326.554C129.837 326.748 129.837 326.954 129.892 327.148V326.905C129.892 326.487 129.724 325.015 129.674 324.555C129.001 317.816 130.657 311.05 134.366 305.384C134.944 304.481 135.613 303.628 136.223 302.767C135.814 303.754 135.387 304.707 135.002 305.702C133.164 310.5 132.732 315.723 133.756 320.758C134.141 322.698 134.944 324.589 135.429 326.512C136.14 331.196 129.189 331.188 129.908 326.571L129.892 326.554Z" fill="#020772"/>
<path d="M246.848 445.477C246.267 445.471 245.702 445.287 245.229 444.95C244.756 444.612 244.398 444.138 244.203 443.59C244.009 443.043 243.988 442.448 244.142 441.888C244.296 441.328 244.619 440.829 245.066 440.458C246.195 439.538 271.748 418.143 256.324 380.161C256.185 379.817 256.115 379.448 256.118 379.077C256.121 378.705 256.196 378.338 256.341 377.996C256.486 377.654 256.697 377.344 256.962 377.083C257.227 376.822 257.54 376.616 257.884 376.477C258.229 376.337 258.597 376.267 258.969 376.27C259.34 376.273 259.707 376.349 260.049 376.494C260.392 376.639 260.702 376.849 260.963 377.114C261.223 377.379 261.429 377.692 261.569 378.037C270.46 399.926 266.503 416.897 261.627 427.285C258.564 433.983 254.134 439.966 248.621 444.849C248.118 445.253 247.493 445.474 246.848 445.477Z" fill="#020772"/>
<path d="M261.904 436.175C269.875 433.933 278.24 431.156 284.546 425.51C280.782 430.905 275.195 434.769 269.683 438.224C267.784 439.37 265.919 440.448 263.828 441.486C263.469 441.671 263.074 441.779 262.67 441.8C262.267 441.822 261.863 441.758 261.486 441.611C261.109 441.465 260.767 441.24 260.484 440.952C260.2 440.663 259.982 440.318 259.842 439.938C259.702 439.559 259.644 439.154 259.673 438.751C259.701 438.347 259.815 437.955 260.007 437.599C260.199 437.243 260.465 436.932 260.786 436.686C261.107 436.44 261.477 436.266 261.871 436.175H261.904Z" fill="#020772"/>
<path d="M288.519 361.266C287.879 361.265 287.258 361.047 286.758 360.648C286.258 360.248 285.909 359.691 285.767 359.067C285.666 358.648 283.491 348.678 288.217 336.534C292.516 325.476 303.599 310.429 331.97 301.48C332.329 301.35 332.712 301.294 333.093 301.316C333.475 301.339 333.848 301.438 334.19 301.608C334.532 301.778 334.836 302.016 335.083 302.307C335.331 302.598 335.517 302.937 335.63 303.302C335.743 303.667 335.781 304.051 335.742 304.431C335.702 304.811 335.586 305.179 335.401 305.513C335.215 305.847 334.963 306.14 334.661 306.374C334.359 306.608 334.013 306.778 333.643 306.874C284.077 322.515 290.944 356.382 291.262 357.82C291.416 358.549 291.277 359.309 290.875 359.935C290.472 360.561 289.839 361.004 289.112 361.166C288.919 361.222 288.72 361.256 288.519 361.266Z" fill="#020772"/>
<path d="M337.44 313.75C327.322 319.12 319.223 327.632 314.363 338.006C315.165 335.172 316.203 332.41 317.466 329.75C321.395 321.488 327.281 314.31 334.613 308.84C334.935 308.624 335.299 308.476 335.681 308.407C336.063 308.337 336.455 308.347 336.833 308.435C337.211 308.523 337.567 308.687 337.879 308.919C338.191 309.15 338.452 309.443 338.646 309.779C338.84 310.116 338.963 310.488 339.007 310.874C339.051 311.26 339.016 311.651 338.903 312.022C338.79 312.393 338.601 312.738 338.35 313.033C338.098 313.329 337.788 313.57 337.44 313.741V313.75Z" fill="#020772"/>
<path d="M287.364 461.041C284.093 458.867 281.547 455.762 280.057 452.127C278.566 448.493 278.198 444.495 279 440.649C279.079 443.41 279.828 446.11 281.181 448.517C282.535 450.923 284.453 452.965 286.77 454.467C287.714 455.08 288.728 455.577 289.79 455.947C294.432 457.277 291.371 463.793 287.331 461.041H287.364Z" fill="#020772"/>
<path d="M304.961 450.544C302.038 448.212 299.77 445.161 298.38 441.689C296.99 438.217 296.526 434.443 297.032 430.738C297.276 432.423 297.708 434.075 298.32 435.664C299.182 437.893 300.479 439.928 302.135 441.651C303.79 443.374 305.772 444.751 307.964 445.701C311.837 447.659 308.449 453.129 304.961 450.528V450.544Z" fill="#020772"/>
<path d="M205.228 35.3899C207.327 34.935 209.519 35.2623 211.393 36.31C224.315 43.8879 219.497 90.0412 206.667 111.989C209.724 117.955 212.379 124.119 214.613 130.44C232.487 83.1827 238.116 28.6568 216.127 19.9748C194.664 11.4936 156.549 46.5227 149.038 53.7242C156.511 57.6273 163.597 62.2315 170.199 67.4748C174.699 61.3523 192.841 37.6231 205.228 35.3899Z" fill="#FAA327"/>
<path d="M209.652 38.6368C208.515 38.0266 207.194 37.8539 205.939 38.1517C194.605 40.1925 176.38 64.2979 172.616 69.4335C176.594 72.7302 180.389 76.2429 183.983 79.9556C192.211 88.5477 199.244 98.2088 204.893 108.678C216.745 86.3291 219.882 44.6423 209.652 38.6368Z" fill="#FFF3E9"/>
<path d="M215.257 30.774C193.125 25.5381 168.786 58.6685 165.223 63.7121C166.895 64.9277 168.555 66.1823 170.199 67.4759C174.699 61.3534 192.841 37.6243 205.228 35.391C207.327 34.9361 209.519 35.2634 211.393 36.3112C224.315 43.8891 219.497 90.0424 206.667 111.99C209.724 117.956 212.379 124.12 214.613 130.441C219.968 116.317 224.129 101.768 227.05 86.9477C229.534 64.1721 229.869 34.2368 215.257 30.774Z" fill="#EF7F25"/>
<path d="M209.652 38.6368C208.515 38.0266 207.194 37.8539 205.939 38.1517C194.605 40.1925 176.38 64.2979 172.616 69.4335C175.125 71.5412 177.634 73.7662 180.068 76.0831C184.008 69.2747 198.846 44.6756 205.654 48.1133C213.533 52.0946 214.127 79.3534 214.127 79.3785C217.272 60.8018 216.176 42.4676 209.652 38.6368Z" fill="#F9D3B7"/>
<g opacity="0.4">
<path d="M209.343 22.5683C218.443 22.8861 223.922 27.8209 227.142 32.7139C224.825 26.4492 221.22 21.9827 216.126 19.9753C194.664 11.4941 156.549 46.5232 149.038 53.7247C151.053 54.7702 153.036 55.8827 155.001 57.0704C155.001 57.0704 190.975 21.9159 209.343 22.5683Z" fill="white"/>
</g>
<path d="M215.424 137.735C214.793 137.945 214.108 137.924 213.492 137.676C213.146 137.54 212.831 137.336 212.564 137.078C212.297 136.819 212.083 136.511 211.936 136.17C211.788 135.829 211.709 135.462 211.704 135.09C211.698 134.719 211.765 134.35 211.902 134.004C225.636 99.4103 234.661 53.1398 225.352 31.6188C223.102 26.4247 219.865 22.9619 215.725 21.3309C192.606 12.2056 148.954 55.6239 148.519 56.0588C148.261 56.3407 147.948 56.5675 147.6 56.7255C147.252 56.8836 146.875 56.9696 146.493 56.9783C146.111 56.9871 145.731 56.9185 145.376 56.7766C145.021 56.6347 144.698 56.4225 144.427 56.1528C144.156 55.883 143.943 55.5613 143.8 55.2069C143.656 54.8525 143.586 54.4728 143.593 54.0905C143.6 53.7083 143.685 53.3313 143.841 52.9825C143.998 52.6337 144.223 52.3202 144.504 52.0607C146.403 50.1621 191.243 5.58123 217.799 16.095C223.386 18.3031 227.677 22.7864 230.546 29.4108C240.926 53.4075 230.889 101.551 217.164 136.12C217.007 136.499 216.77 136.839 216.47 137.118C216.17 137.396 215.813 137.607 215.424 137.735Z" fill="#020772"/>
<path d="M205.814 114.549C205.258 114.751 204.653 114.773 204.084 114.613C203.515 114.454 203.011 114.119 202.641 113.658C202.272 113.196 202.057 112.631 202.026 112.04C201.995 111.45 202.149 110.865 202.468 110.367C211.987 94.5588 217.332 63.327 213.258 47.3181C212.28 43.4873 210.833 40.9112 209.076 39.8741C202.343 35.9262 183.465 56.251 172.834 71.2396C172.383 71.808 171.731 72.1816 171.013 72.2837C170.294 72.3857 169.564 72.2085 168.972 71.7883C168.38 71.3681 167.972 70.737 167.832 70.025C167.692 69.3129 167.829 68.574 168.217 67.9607C173.119 61.0519 198.278 26.9765 211.937 34.9893C215.082 36.8378 217.373 40.5097 218.745 45.9213C223.203 63.4024 217.649 96.1062 207.328 113.286C206.995 113.878 206.456 114.327 205.814 114.549Z" fill="#020772"/>
<path d="M32.208 99.2432C32.024 96.4329 31.0869 80.8421 31.1036 65.1342C31.1622 33.3505 34.859 28.0226 38.0792 26.9102C40.7055 25.9985 43.7671 26.2327 47.1629 27.5877C56.7399 31.4185 67.722 43.9395 74.3296 58.3843C75.1661 57.8574 76.0862 57.3473 76.9561 56.8622C82.3592 53.8972 87.9958 51.3796 93.8098 49.3345C89.6277 43.1701 72.8074 19.0897 60.5288 10.8092C52.1145 5.14669 45.1137 3.22294 39.1333 4.95432C31.1706 7.22936 24.6884 16.1287 19.8958 31.3932C10.8792 60.0069 18.1559 103.25 20.8408 116.908C24.3175 110.825 28.1119 104.928 32.208 99.2432Z" fill="#FAA327"/>
<path d="M45.8658 30.2049C43.3064 29.1761 41.1069 28.9754 39.317 29.5859C38.4806 29.8703 34.432 32.9316 34.3818 65.1754C34.3818 77.1026 34.9004 88.9461 35.2182 95.1356C46.3927 80.49 59.0813 68.178 71.5773 60.0732C65.3293 46.0131 54.8656 33.8098 45.8658 30.2049Z" fill="#FFF3E9"/>
<path d="M45.8658 30.2049C43.3064 29.1761 41.1069 28.9754 39.317 29.5859C38.4806 29.8703 34.432 32.9316 34.3818 65.1754C34.3818 66.6977 34.3818 68.2199 34.3818 69.7338C34.3818 69.7338 37.0081 40.5263 42.8881 38.6527C48.559 36.8377 61.2894 55.2137 63.4056 65.9699C66.1323 63.8203 68.8588 61.8464 71.5855 60.115C65.3291 46.0131 54.8656 33.8098 45.8658 30.2049Z" fill="#F9D3B7"/>
<path d="M49.8138 22.6779C29.4555 14.7319 23.885 31.2845 20.4139 48.5397C16.9428 65.7949 19.7781 110.895 19.8115 111.438C20.1879 113.538 20.531 115.378 20.8154 116.85C24.3009 110.774 28.1036 104.886 32.2074 99.2097C32.0234 96.3994 31.0864 80.8086 31.1031 65.1007C31.1616 33.317 34.8585 27.9891 38.0787 26.8767C40.705 25.965 43.7666 26.1992 47.1624 27.5542C56.7393 31.385 67.7214 43.906 74.3291 58.3508C75.1655 57.8239 76.0857 57.3138 76.9556 56.8287C78.1934 56.1428 79.4648 55.4904 80.7194 54.8547C77.5912 48.6485 66.793 29.3692 49.8138 22.6779Z" fill="#EF7F25"/>
<g opacity="0.4">
<path d="M22.0117 28.8736C22.0117 28.8736 33.1276 2.94482 49.6133 10.4725C66.099 18.0003 88.808 51.1893 88.808 51.1893H88.8831C90.5141 50.5285 92.1534 49.8929 93.8179 49.3074C89.6358 43.143 72.8155 19.0626 60.5369 10.7821C52.1226 5.1196 45.1218 3.19584 39.1414 4.92722C32.4501 6.84261 26.796 13.4586 22.3045 24.5913C21.9184 25.9843 21.8187 27.4411 22.0117 28.8736Z" fill="white"/>
</g>
<path d="M20.9998 124.126L20.7491 124.193C20.3871 124.277 20.0122 124.289 19.6455 124.229C19.2789 124.168 18.9277 124.036 18.6123 123.839C18.2969 123.642 18.0234 123.386 17.8073 123.083C17.5913 122.781 17.4369 122.439 17.3532 122.077C16.8179 119.777 4.48068 65.343 15.5966 30.0715C20.7322 13.7781 27.6496 4.31821 36.7246 1.1482C44.3611 -1.53669 52.9927 0.479135 63.0798 7.27918C77.8676 17.2492 97.724 47.2012 98.5604 48.4726C98.973 49.0992 99.1198 49.864 98.9684 50.5989C98.8171 51.3338 98.3801 51.9784 97.7534 52.391C97.1268 52.8036 96.3617 52.9504 95.6269 52.799C94.892 52.6476 94.2474 52.2107 93.8348 51.584C93.634 51.2829 73.761 21.3057 59.9184 11.9713C51.412 6.24191 44.4364 4.44358 38.5898 6.49279C31.4134 9.00204 25.5 17.5002 21.0251 31.7694C10.3776 65.5354 22.7649 120.22 22.8903 120.772C23.0551 121.466 22.952 122.197 22.6016 122.819C22.2512 123.441 21.6792 123.908 20.9998 124.126Z" fill="#020772"/>
<path d="M34.7581 102.321C34.5336 102.396 34.3001 102.441 34.0638 102.455C33.6924 102.481 33.3195 102.433 32.9665 102.315C32.6134 102.196 32.2873 102.01 32.0067 101.765C31.7261 101.52 31.4967 101.222 31.3316 100.888C31.1665 100.555 31.0689 100.191 31.0445 99.8199C31.0445 99.6526 29.8818 82.4978 29.9153 65.159C29.9654 32.6559 33.9132 26.9097 37.7775 25.5798H37.8947C48.9939 21.908 66.8511 37.7246 76.1855 59.5383C76.4805 60.2282 76.4896 61.007 76.2104 61.7034C75.9312 62.3999 75.3868 62.9569 74.6969 63.2519C74.007 63.5469 73.228 63.5558 72.5315 63.2766C71.8351 62.9974 71.2783 62.453 70.9832 61.7631C62.41 41.7393 46.8779 28.5657 39.6847 30.9495H39.6259C39.2662 31.1921 35.5358 34.5379 35.5692 66.2212C35.5692 82.9997 36.6819 99.293 36.6903 99.4603C36.7294 100.084 36.5608 100.702 36.2112 101.22C35.8617 101.737 35.3509 102.124 34.7581 102.321Z" fill="#020772"/>
<path d="M191.427 79.0516C188.359 75.398 185.077 71.9293 181.599 68.6635C181.48 68.5844 181.373 68.4886 181.282 68.379C175.459 62.9191 169.026 58.148 162.111 54.16C161.871 54.1196 161.648 54.0124 161.467 53.8506C161.421 53.8131 161.379 53.7711 161.341 53.7252C150.458 47.5705 138.428 43.7131 125.995 42.3918C105.894 40.2666 85.6612 44.9528 68.5415 55.699C56.4051 63.4359 43.3653 77.5546 32.2326 94.6593L32.1742 94.7512C27.9894 101.196 24.1825 107.88 20.7736 114.767C20.7358 115.06 20.6039 115.333 20.3974 115.544C7.2992 142.31 0.197904 172.513 7.07322 196.493C17.8881 234.232 76.0689 241.333 97.9662 244.009L99.4132 244.185C103.595 244.695 110.621 245.339 114.519 245.557L115.79 245.624C136.215 246.778 190.474 249.806 208.39 225.633C230.822 195.355 227.393 121.767 191.427 79.0516Z" fill="#FAA327"/>
<path d="M5.41716 148.14C5.41716 148.14 6.88943 145.037 18.3567 147.73C34.5496 151.536 35.9211 169.209 64.3173 160.627C80.6525 155.684 95.1308 141.582 114.502 143.615C133.874 145.647 145.96 165.997 157.017 174.512C169.179 183.888 183.891 184.842 196.053 181.722C208.214 178.602 216.478 167.929 223.863 172.145C223.863 172.145 228.882 233.253 181.374 243.123C133.865 252.993 64.2758 243.959 38.0291 230.376C3.80308 212.636 1.47765 186.899 5.41716 148.14Z" fill="white"/>
<g opacity="0.25">
<path d="M95.5081 187.985C100.466 188.751 105.534 187.69 109.769 184.999C111.786 187.068 114.203 188.703 116.874 189.805C119.545 190.907 122.413 191.452 125.301 191.406C135.422 191.406 138.6 180.106 138.6 180.106C131.775 186.923 122.232 185.459 118.986 181.829C116.377 178.919 118.585 169.643 118.585 169.643C118.585 169.643 104.742 167.92 104.734 168.405C104.726 168.89 105.002 179.496 99.1968 181.436C94.011 183.168 83.6896 174.929 83.6896 174.929C82.6107 177.279 87.5036 186.614 95.5081 187.985Z" fill="#020772"/>
</g>
<g opacity="0.25">
<path d="M184.419 227.415C129.425 247.664 48.8024 222.564 28.1764 204.949C7.55048 187.334 14.066 132.967 14.066 132.967C13.3276 133.64 12.6786 134.404 12.1343 135.242C4.70693 156.437 1.84615 178.25 7.07374 196.493C17.8886 234.232 76.0694 241.333 97.9667 244.009L99.4137 244.185C103.596 244.695 110.622 245.339 114.519 245.557L115.791 245.624C136.216 246.778 190.474 249.805 208.39 225.633C216.838 214.233 221.622 196.677 222.375 176.946C217.867 196.124 205.613 219.126 184.419 227.415Z" fill="#020772"/>
</g>
<g opacity="0.4">
<path d="M89.8447 51.6761C109.567 46.2144 130.754 48.9076 148.979 55.8582C146.671 60.0403 150.844 66.8655 158.364 71.24C165.883 75.6144 174.03 75.8487 176.439 71.7084C176.496 71.6086 176.546 71.5052 176.589 71.3988C181.619 75.2954 186.072 79.8857 189.813 85.0324C205.956 108.009 218.585 136.965 218.778 137.409C214.169 116.197 205.178 95.3454 191.427 79.0187C188.359 75.365 185.078 71.8961 181.599 68.6303C181.48 68.5512 181.373 68.4556 181.282 68.346C175.459 62.8861 169.026 58.115 162.111 54.127C161.871 54.0866 161.648 53.9792 161.467 53.8174C161.421 53.7799 161.379 53.7379 161.341 53.692C150.458 47.5373 138.428 43.6799 125.995 42.3586C105.894 40.2334 85.6613 44.9196 68.5415 55.6658C56.4051 63.4027 43.3653 77.5214 32.2326 94.6261L32.1742 94.7179C27.9894 101.163 24.1825 107.846 20.7736 114.733C20.7358 115.027 20.604 115.3 20.3975 115.511C20.1382 116.047 19.879 116.582 19.628 117.117C19.0094 118.878 18.5557 120.692 18.2729 122.537C18.2729 122.537 50.826 62.4742 89.8447 51.6761Z" fill="white"/>
</g>
<g opacity="0.4">
<path d="M144.633 70.7681C145.808 69.172 145.092 66.6507 143.034 65.1366C140.977 63.6225 138.357 63.6889 137.182 65.285C136.008 66.8811 136.723 69.4025 138.781 70.9166C140.838 72.4307 143.458 72.3642 144.633 70.7681Z" fill="white"/>
</g>
<path d="M186.718 244.552C162.822 252.465 131.64 250.708 115.547 249.805L114.276 249.73C110.295 249.504 103.11 248.893 98.8945 248.341L97.4557 248.166C74.8056 245.397 14.6508 238.053 3.05814 197.654C-3.18987 175.908 1.47735 145.947 15.8469 115.544C28.8866 87.9421 48.2158 63.6861 66.3074 52.1687C85.2958 40.1277 107.998 35.3596 130.227 38.7442C154.733 42.4161 177.007 55.4222 194.63 76.341C211.794 96.7327 223.236 126.066 226.029 156.837C228.656 185.853 223.319 212.501 211.752 228.117C205.947 235.962 197.006 241.148 186.718 244.552ZM114.585 244.075L115.865 244.151C136.073 245.288 189.754 248.333 207.201 224.754C229.316 194.886 225.854 122.227 190.298 79.9878C152.6 35.2229 101.178 36.6615 69.3521 56.9362C52.1136 67.9267 33.5702 91.3128 20.9655 117.994C7.17302 147.169 2.62321 175.649 8.49483 196.124C19.042 232.926 76.5034 239.935 98.1414 242.578L99.5884 242.754C103.704 243.264 110.713 243.891 114.585 244.109V244.075Z" fill="#020772"/>
<path d="M115.531 172.771C114.61 173.107 113.623 173.221 112.65 173.105C111.676 172.988 110.744 172.645 109.928 172.102C104.575 168.581 91.7104 159.355 98.7112 156.06C107.435 151.953 127.091 154.789 127.986 160.091C128.78 164.416 121.177 170.722 115.531 172.771Z" fill="#020772"/>
<path d="M105.545 190.077C102.386 191.067 99.0482 191.353 95.767 190.914C88.0386 189.952 81.9495 185.435 79.0387 178.527C78.8954 178.184 78.8211 177.816 78.8198 177.445C78.8186 177.073 78.8904 176.705 79.0314 176.362C79.1724 176.018 79.3794 175.705 79.6411 175.442C79.9029 175.178 80.2141 174.969 80.5568 174.825C80.8995 174.682 81.2672 174.608 81.6387 174.606C82.0101 174.605 82.3781 174.677 82.7217 174.818C83.0654 174.959 83.3779 175.166 83.6415 175.428C83.905 175.69 84.1148 176.001 84.2582 176.344C87.1103 183.169 93.1154 184.883 96.436 185.301C100.886 185.853 104.934 184.682 106.59 183.177L108.263 171.384C108.318 171.016 108.445 170.662 108.636 170.343C108.828 170.024 109.081 169.746 109.38 169.525C109.679 169.303 110.018 169.143 110.379 169.053C110.74 168.963 111.115 168.945 111.483 169C111.851 169.055 112.205 169.182 112.524 169.373C112.843 169.565 113.121 169.817 113.342 170.116C113.563 170.415 113.724 170.755 113.814 171.116C113.904 171.477 113.922 171.852 113.867 172.22L112.069 184.85C112.003 185.324 111.816 185.774 111.525 186.155C109.966 188.028 107.884 189.394 105.545 190.077Z" fill="#020772"/>
<path d="M130.603 192.569C128.766 193.175 126.85 193.508 124.916 193.556C113.265 193.883 107.769 187.4 107.544 187.124C107.063 186.548 106.832 185.804 106.9 185.056C106.968 184.309 107.331 183.619 107.907 183.139C108.484 182.658 109.228 182.427 109.976 182.495C110.723 182.564 111.412 182.926 111.893 183.503C112.093 183.737 116.075 188.145 124.757 187.894C133.263 187.66 137.069 180.366 137.228 180.082C137.58 179.445 138.165 178.969 138.859 178.753C139.554 178.536 140.305 178.596 140.957 178.919C141.609 179.242 142.11 179.804 142.358 180.488C142.606 181.172 142.581 181.925 142.288 182.591C139.761 187.248 135.598 190.803 130.603 192.569Z" fill="#020772"/>
<path d="M68.9938 94.2655C71.085 95.1976 73.3538 95.6628 75.6431 95.6288C79.3066 95.6288 85.379 95.1521 88.0137 92.3417C91.9281 88.1597 84.5428 82.3633 74.8487 82.5222C65.1547 82.6812 63.9751 86.9468 64.7362 89.9579C65.238 91.9234 66.8777 93.2786 68.9938 94.2655Z" fill="white"/>
<path d="M150.61 106.385C152.699 107.324 154.969 107.792 157.26 107.757C160.923 107.757 166.987 107.272 169.63 104.461C173.545 100.279 166.159 94.4913 156.465 94.6502C146.771 94.8091 145.592 99.0747 146.353 102.086C146.855 104.051 148.494 105.406 150.61 106.385Z" fill="white"/>
<path d="M81.8242 175.474C81.8242 175.474 87.8799 164.274 97.507 160.184C107.134 156.094 122.741 158.277 128.237 163.304C133.732 168.331 143.644 179.748 138.734 184.691C133.824 189.634 119.588 193.147 113.466 188.037C107.343 182.926 100.209 190.462 93.9187 187.694C87.6289 184.925 82.2508 180.408 81.8242 175.474Z" fill="white"/>
<g opacity="0.25">
<path d="M95.4813 187.92C100.426 188.681 105.479 187.62 109.7 184.934C111.717 187.003 114.135 188.638 116.805 189.74C119.476 190.842 122.344 191.386 125.232 191.34C135.353 191.34 138.531 180.049 138.531 180.049C131.715 186.857 122.171 185.394 118.926 181.772C116.316 178.861 118.524 169.577 118.524 169.577C118.524 169.577 104.673 167.854 104.673 168.339C104.673 168.824 104.933 179.43 99.1279 181.37C93.9422 183.102 83.6208 174.863 83.6208 174.863C82.6087 177.213 87.4852 186.514 95.4813 187.92Z" fill="#020772"/>
</g>
<path d="M115.514 172.713C114.591 173.047 113.602 173.16 112.627 173.043C111.652 172.925 110.719 172.58 109.902 172.036C104.557 168.523 91.6929 159.289 98.6937 155.993C107.417 151.887 127.065 154.722 127.968 160.033C128.763 164.358 121.151 170.614 115.514 172.713Z" fill="#020772"/>
<path d="M105.519 190.01C102.36 191.001 99.0229 191.286 95.7417 190.847C88.0132 189.885 81.9325 185.368 79.0134 178.459C78.7239 177.767 78.721 176.988 79.0056 176.294C79.2903 175.6 79.8393 175.048 80.5314 174.758C81.2236 174.469 82.0023 174.466 82.6964 174.751C83.3905 175.035 83.9429 175.584 84.2324 176.276C87.093 183.101 93.0899 184.816 96.4188 185.234C100.86 185.786 104.909 184.615 106.573 183.11L108.246 171.325C108.298 170.957 108.422 170.602 108.611 170.283C108.8 169.963 109.051 169.683 109.348 169.46C109.645 169.236 109.983 169.074 110.343 168.981C110.702 168.889 111.077 168.868 111.445 168.92C111.813 168.972 112.167 169.096 112.487 169.285C112.807 169.474 113.087 169.724 113.31 170.022C113.533 170.319 113.696 170.657 113.789 171.017C113.881 171.377 113.902 171.751 113.85 172.119L112.052 184.757C111.985 185.228 111.801 185.674 111.516 186.054C109.959 187.944 107.87 189.322 105.519 190.01Z" fill="#020772"/>
<path d="M130.586 192.511C128.745 193.114 126.826 193.444 124.89 193.49C113.238 193.824 107.752 187.334 107.526 187.058C107.046 186.481 106.814 185.737 106.882 184.99C106.951 184.242 107.313 183.553 107.89 183.072C108.467 182.592 109.211 182.361 109.958 182.429C110.705 182.497 111.395 182.859 111.875 183.436C112.076 183.67 116.057 188.078 124.731 187.836C133.246 187.593 137.043 180.308 137.202 180.015C137.545 179.352 138.136 178.849 138.846 178.616C139.556 178.383 140.329 178.438 140.999 178.769C141.668 179.103 142.177 179.689 142.414 180.398C142.65 181.107 142.596 181.881 142.262 182.55C139.732 187.196 135.573 190.744 130.586 192.511Z" fill="#020772"/>
<g opacity="0.4">
<path d="M112.327 160.82C110.788 160.427 101.403 158.746 103.787 158.027C106.171 157.307 125.275 157.265 123.242 159.03C121.21 160.795 112.327 160.82 112.327 160.82Z" fill="white"/>
</g>
<g opacity="0.2">
<path d="M204.877 520.402C296.1 520.402 370.052 513.343 370.052 504.635C370.052 495.928 296.1 488.869 204.877 488.869C113.653 488.869 39.7019 495.928 39.7019 504.635C39.7019 513.343 113.653 520.402 204.877 520.402Z" fill="#020772"/>
</g>
<path d="M146.546 190.036L145.35 199.412L194.297 199.144L194.071 190.245L146.546 190.036Z" fill="#E30613"/>
<path d="M145.366 204.145L144.169 213.521L193.116 213.254L192.891 204.354L145.366 204.145Z" fill="#1CA75E"/>
<path d="M26.7462 162.834L23.5762 170.354L64.3513 181.47L66.2247 174.017L26.7462 162.834Z" fill="#FFD500"/>
<path d="M24.4126 174.26L21.3096 181.637L61.2814 192.528L63.1217 185.226L24.4126 174.26Z" fill="#004F9F"/>
<path d="M74.6304 104.01C82.8607 106.076 87.0427 117.393 83.973 129.345C80.9034 141.298 71.7533 149.268 63.523 147.203C55.2926 145.137 51.1021 133.82 54.1717 121.876C57.2413 109.932 66.4 101.953 74.6304 104.01Z" fill="#390075"/>
<path d="M73.4088 109.046C75.5584 111.011 75.2323 115.336 72.6729 118.69C70.1135 122.044 66.3076 123.164 64.158 121.199C62.0085 119.233 62.3429 114.917 64.894 111.555C67.4451 108.193 71.2927 107.072 73.4088 109.046Z" fill="white"/>
<path d="M72.9824 136.907C73.8607 138.228 73.2248 140.445 71.5604 141.858C69.8959 143.272 67.8381 143.347 66.9683 142.026C66.0984 140.704 66.7259 138.496 68.3903 137.082C70.0548 135.669 72.1126 135.594 72.9824 136.907Z" fill="#B199C5"/>
<path d="M158.213 115.168C166.795 115.427 173.386 125.731 172.934 138.186C172.482 150.64 165.155 160.518 156.574 160.259C147.992 159.999 141.409 149.695 141.861 137.249C142.313 124.803 149.632 114.908 158.213 115.168Z" fill="#390075"/>
<path d="M158.129 120.396C160.638 121.885 161.283 126.25 159.484 130.09C157.686 133.929 154.156 135.894 151.605 134.406C149.054 132.917 148.452 128.551 150.25 124.72C152.049 120.889 155.578 118.915 158.129 120.396Z" fill="white"/>
<path d="M163.742 148.039C164.896 149.151 164.746 151.477 163.408 153.233C162.069 154.99 160.062 155.516 158.899 154.396C157.737 153.275 157.904 150.958 159.234 149.202C160.564 147.445 162.554 146.918 163.742 148.039Z" fill="#B199C5"/>
</svg>
