<svg width="159" height="158" viewBox="0 0 159 158" fill="none" xmlns="http://www.w3.org/2000/svg">
<path d="M79.2928 155.126C77.7037 155.126 76.0978 155.068 74.5169 154.976C57.4801 153.888 41.3051 147.097 28.5979 135.697C15.8907 124.297 7.39114 108.951 4.46812 92.1317C1.5451 75.3123 4.36883 57.9985 12.4847 42.9795C20.6006 27.9606 33.5362 16.1109 49.2073 9.33922C51.2147 8.50281 53.2887 7.66635 55.3713 6.98885C56.4754 6.62083 57.6045 6.27792 58.717 5.96008C61.1175 5.28258 63.5849 4.72219 66.0356 4.28725C70.453 3.49963 74.9311 3.10226 79.4182 3.09961C93.9429 3.11775 108.159 7.29504 120.384 15.1376C132.61 22.9801 142.334 34.1596 148.406 47.3542C154.852 61.4204 156.873 77.1127 154.202 92.3533C151.805 105.823 145.821 118.398 136.881 128.754C127.94 139.11 116.374 146.866 103.399 151.203C95.6264 153.798 87.4866 155.122 79.2928 155.126Z" fill="#D8DBD8"/>
<path d="M79.4347 5.80218C93.4402 5.81946 107.148 9.84538 118.939 17.4044C130.729 24.9633 140.11 35.7395 145.972 48.4593C151.216 59.8404 153.451 72.3772 152.462 84.8694C151.474 97.3616 147.295 109.391 140.326 119.805C133.618 129.847 124.536 138.078 113.885 143.768C103.234 149.458 91.3434 152.432 79.2676 152.426C77.737 152.426 76.1978 152.375 74.6588 152.275C58.2477 151.198 42.6753 144.635 30.444 133.641C18.2127 122.646 10.0331 107.859 7.21967 91.6549C4.40625 75.4509 7.12228 58.7715 14.9316 44.2974C22.7409 29.8234 35.1897 18.3951 50.2774 11.8494C52.2263 11.013 54.2086 10.2519 56.216 9.59116C57.2866 9.23151 58.3657 8.90535 59.453 8.59588C61.7783 7.94348 64.1369 7.39965 66.5123 6.97308C70.7784 6.21748 75.1022 5.83697 79.4347 5.83567M79.4347 0.449219C74.785 0.45283 70.145 0.864225 65.5673 1.67872C63.058 2.13039 60.4816 2.71574 57.9975 3.41832C56.8432 3.73616 55.6809 4.09584 54.5183 4.48059C52.3687 5.19154 50.2274 6.01135 48.1447 6.90631C31.9226 13.9202 18.5332 26.1897 10.1328 41.7392C1.73242 57.2886 -1.19036 75.2129 1.83567 92.6254C4.8617 110.038 13.6602 125.925 26.8141 137.729C39.9681 149.532 56.7123 156.565 74.3496 157.695C76.0225 157.795 77.6532 157.845 79.2926 157.845C87.7811 157.847 96.2148 156.48 104.268 153.797C117.705 149.309 129.682 141.281 138.94 130.557C148.197 119.834 154.391 106.812 156.87 92.8646C158.867 81.55 158.363 69.9353 155.394 58.836C152.425 47.7368 147.063 37.4219 139.684 28.6153C132.305 19.8087 123.088 12.7239 112.68 7.8581C102.271 2.9923 90.9241 0.463547 79.4347 0.449219Z" fill="#001477"/>
<path d="M17.5734 118.593C10.7768 107.946 6.84451 95.7251 6.15726 83.1129C5.47001 70.5006 8.0511 57.9246 13.6507 46.6027C19.5056 40.9736 35.665 27.9589 58.7333 30.0165C36.3509 46.8702 9.95368 68.7259 17.5734 118.593Z" fill="#001477"/>
<path d="M70.7778 87.3443C67.0809 30.8529 54.2166 15.4126 50.2771 11.8161C52.2259 10.9796 54.2083 10.2186 56.2157 9.55778L57.0521 9.29007L57.7713 9.06423L58.1311 8.96396C58.2398 8.92172 58.3516 8.88806 58.4656 8.86349L58.8169 8.75486L59.4862 8.5625C85.9838 22.0622 95.6444 35.9969 95.6444 35.9969C95.6444 35.9969 81.4003 70.0221 70.7778 87.3443Z" fill="#001477"/>
<path d="M95.6103 35.9959C95.6103 35.9959 85.9497 22.0612 59.4521 8.56152C61.7774 7.90912 64.136 7.36529 66.5114 6.93872C75.1014 10.0251 92.8164 17.302 101.214 22.4961C97.4 33.0265 95.6103 35.9959 95.6103 35.9959Z" fill="#F6B602"/>
<path d="M124.634 81.4971C63.7266 114.05 87.1464 105.051 49.7168 116.626C34.7116 102.826 23.9217 93.9261 21.5295 72.6394C21.5295 72.6227 49.7251 99.02 124.634 81.4971Z" fill="#001477"/>
<path d="M124.634 81.4971C124.35 81.7815 86.9957 117.94 63.7183 125.961C50.8877 118.533 49.7166 116.61 49.7166 116.61C87.1461 105.05 63.7263 114.05 124.634 81.4971Z" fill="#6FDB11"/>
<path d="M124.634 81.4964C124.634 81.4964 141.906 62.8527 145.971 48.4832C149.9 57.0572 152.148 66.3047 152.596 75.7252L124.634 81.4964Z" fill="#7ED92B"/>
<path d="M124.634 81.4974C138.259 75.2745 149.551 57.969 149.551 57.969C151.291 63.7407 152.313 69.7047 152.596 75.7262L124.634 81.4974Z" fill="#090C08"/>
</svg>
