<svg width="361" height="550" viewBox="0 0 361 550" fill="none" xmlns="http://www.w3.org/2000/svg">
<g opacity="0.2">
<path d="M193.682 549.042C285.892 549.042 360.642 536.913 360.642 521.952C360.642 506.99 285.892 494.862 193.682 494.862C101.473 494.862 26.7222 506.99 26.7222 521.952C26.7222 536.913 101.473 549.042 193.682 549.042Z" fill="#001477"/>
</g>
<path d="M40.5923 209.772C43.6462 225.761 45.6203 241.938 46.502 258.192C47.312 274.192 51.062 287.712 66.732 301.752C77.032 310.972 104.562 314.922 138.572 312.042C182.522 308.332 243.152 292.372 269.382 259.622C311.172 207.442 279.762 133.992 244.112 98.5021C226.112 80.5821 198.112 70.2321 167.212 70.0921C161.034 70.0658 154.86 70.4466 148.732 71.2321C121.77 74.7293 96.3304 85.7189 75.3023 102.952C40.3523 131.562 34.4523 176.892 40.5923 209.772ZM119.222 253.962C119.529 253.784 119.893 253.734 120.236 253.824C120.579 253.914 120.873 254.136 121.052 254.442C121.122 254.552 124.772 260.632 130.952 261.562C134.952 262.162 139.152 260.562 143.542 256.742L140.232 245.742C140.129 245.399 140.166 245.028 140.335 244.712C140.503 244.395 140.789 244.158 141.132 244.052C141.473 243.952 141.839 243.991 142.152 244.159C142.464 244.328 142.698 244.613 142.802 244.952L146.092 255.952C161.492 257.352 164.042 240.952 164.142 240.192C164.167 240.017 164.226 239.849 164.316 239.698C164.406 239.546 164.525 239.413 164.666 239.307C164.807 239.201 164.968 239.124 165.139 239.081C165.31 239.037 165.487 239.027 165.662 239.052C165.837 239.077 166.005 239.136 166.157 239.226C166.309 239.316 166.441 239.435 166.547 239.576C166.653 239.717 166.73 239.878 166.773 240.049C166.817 240.22 166.827 240.397 166.802 240.572C166.802 240.752 164.332 256.822 150.492 258.572C148.831 258.769 147.153 258.769 145.492 258.572C141.742 261.882 138.002 263.802 134.352 264.262C133.078 264.442 131.786 264.442 130.512 264.262C123.102 263.112 118.912 256.112 118.742 255.812C118.563 255.503 118.512 255.135 118.602 254.789C118.692 254.442 118.915 254.145 119.222 253.962Z" fill="#FAA327"/>
<path d="M49.8423 283.202C49.8423 283.202 51.902 266.202 64.292 264.942C76.682 263.682 87.422 271.552 100.792 262.032C114.162 252.512 113.272 232.152 135.792 223.772C158.312 215.392 178.932 234.402 199.142 227.842C219.352 221.282 228.052 194.772 253.212 186.842C278.372 178.912 289.912 190.222 289.912 190.222C289.912 190.222 303.852 268.222 211.472 297.712C119.092 327.202 64.4723 316.792 49.8423 283.202Z" fill="white"/>
<path d="M37.802 201.112C37.802 201.112 15.612 166.642 7.26201 134.892C-1.08799 103.142 2.92183 82.892 13.8318 78.562C24.7418 74.232 61.3218 70.362 93.2518 88.042C93.2518 88.112 31.412 112.412 37.802 201.112Z" fill="#FAA327"/>
<path d="M150.102 68.4218C150.102 68.4218 170.102 22.5618 192.902 8.65184C215.702 -5.25816 229.232 13.2218 238.352 31.0318C247.472 48.8418 257.262 91.3518 259.052 112.422C259.022 112.422 230.902 64.4618 150.102 68.4218Z" fill="#FAA327"/>
<path d="M64.7117 108.112C60.8042 113.066 57.1628 118.223 53.802 123.562C46.442 135.162 37.952 151.372 37.262 165.222C37.262 165.222 34.7417 161.112 31.4417 154.952C25.7717 144.372 17.782 127.732 16.262 115.482C13.852 96.1323 19.2617 92.0223 34.4617 95.0023C49.6617 97.9823 64.7117 108.112 64.7117 108.112Z" fill="#FFF3E9"/>
<path d="M239.912 91.2222C239.912 91.2222 217.452 77.4522 193.912 70.5622C189.093 69.1204 184.172 68.0408 179.192 67.3322C179.192 67.3322 198.132 24.1322 213.692 25.0622C229.252 25.9922 236.252 65.5622 238.322 72.4522C239.532 76.4522 239.862 82.1522 239.932 86.2122C240.002 89.1122 239.912 91.2222 239.912 91.2222Z" fill="#FFF3E9"/>
<g opacity="0.25">
<path d="M121.782 253.402C121.782 253.402 131.182 258.532 135.782 256.542C140.382 254.552 137.412 244.282 137.412 244.282L144.102 240.912C144.102 240.912 147.392 250.672 150.802 250.522C154.212 250.372 161.362 244.732 162.882 239.682C162.882 239.682 164.882 244.402 163.042 247.562C161.202 250.722 158.312 254.362 154.722 255.412C151.132 256.462 148.922 256.412 146.232 257.252C143.542 258.092 139.752 261.712 135.042 262.542C130.332 263.372 125.502 261.012 123.842 258.892C122.745 257.244 122.04 255.366 121.782 253.402Z" fill="#001477"/>
</g>
<g opacity="0.25">
<path d="M275.412 162.642C275.412 162.642 285.142 230.022 229.042 264.982C172.942 299.942 110.832 304.432 85.5325 297.112C60.2325 289.792 48.5325 268.492 48.5325 268.492C48.4109 270.158 48.4476 271.833 48.6423 273.492C51.1523 283.252 56.3024 292.362 66.7224 301.702C77.1424 311.042 104.552 314.872 138.562 311.992C182.512 308.282 243.142 292.322 269.372 259.572C276.23 251.07 281.464 241.379 284.812 230.982C291.222 195.112 275.412 162.642 275.412 162.642Z" fill="#001477"/>
</g>
<path d="M90.4693 252.518C100.271 250.369 105.975 238.401 103.209 225.789C100.443 213.176 90.2542 204.694 80.4522 206.844C70.6502 208.994 64.9465 220.961 67.7127 233.574C70.4788 246.186 80.6673 254.668 90.4693 252.518Z" fill="#001477"/>
<path d="M91.3995 233.068C94.7712 232.123 96.39 227.378 95.0149 222.47C93.6398 217.561 89.7914 214.348 86.4198 215.292C83.0481 216.237 81.4297 220.982 82.8048 225.89C84.18 230.799 88.0278 234.012 91.3995 233.068Z" fill="white"/>
<g opacity="0.35">
<path d="M86.0317 245.048C87.7891 243.291 86.9217 239.574 84.0943 236.747C81.2669 233.92 77.5502 233.052 75.7928 234.809C74.0355 236.567 74.9029 240.284 77.7303 243.111C80.5577 245.938 84.2744 246.806 86.0317 245.048Z" fill="white"/>
</g>
<path d="M191.067 217.723C201.495 215.436 207.562 202.701 204.618 189.279C201.675 175.858 190.836 166.831 180.408 169.118C169.98 171.405 163.913 184.139 166.856 197.561C169.8 210.983 180.64 220.01 191.067 217.723Z" fill="#001477"/>
<path d="M192.052 197.022C195.642 196.016 197.366 190.967 195.903 185.745C194.44 180.522 190.344 177.104 186.754 178.11C183.164 179.115 181.44 184.164 182.903 189.387C184.366 194.609 188.463 198.027 192.052 197.022Z" fill="white"/>
<g opacity="0.35">
<path d="M186.35 209.774C188.221 207.903 187.296 203.946 184.286 200.935C181.275 197.924 177.317 197 175.447 198.87C173.576 200.741 174.5 204.698 177.511 207.709C180.522 210.72 184.48 211.645 186.35 209.774Z" fill="white"/>
</g>
<path d="M141.342 247.242C141.342 247.242 127.342 244.242 126.192 239.342C125.042 234.442 143.192 226.752 150.132 230.902C151.512 232.712 146.592 243.642 141.342 247.242Z" fill="#001477"/>
<path d="M79.1019 98.272C79.1019 98.272 61.582 111.482 54.412 124.192L53.8119 123.562C57.1694 118.223 60.8078 113.066 64.7118 108.112C64.7118 108.112 49.6318 97.992 34.4618 95.002C19.2918 92.012 13.8521 96.132 16.2621 115.482C17.7821 127.732 25.7718 144.372 31.4418 154.952L35.3319 163.732L38.0419 170.842L36.7518 197.702C36.7518 197.702 29.9921 190.562 27.3221 185.262C27.3221 185.262 -4.60809 98.022 16.0819 86.412C36.7719 74.802 79.1019 98.272 79.1019 98.272Z" fill="#EF7F25"/>
<path d="M64.7117 108.112C60.8042 113.066 57.1628 118.223 53.802 123.562C50.592 120.232 35.2517 104.712 27.2317 104.562C18.2317 104.412 23.092 136.092 23.092 136.092L31.4417 154.912C25.7717 144.332 17.782 127.692 16.262 115.442C13.852 96.0923 19.2617 91.9823 34.4617 94.9623C49.6617 97.9423 64.7117 108.112 64.7117 108.112Z" fill="#B7B7B7"/>
<path d="M259.022 112.412L241.732 92.8721C241.732 92.8721 241.112 90.2821 239.952 86.2121C239.882 82.1521 239.552 76.4521 238.342 72.4521C236.272 65.5621 229.282 26.0021 213.712 25.0621C198.142 24.1221 179.212 67.3321 179.212 67.3321C184.192 68.0407 189.113 69.1204 193.932 70.5621C193.712 71.1321 193.602 71.4521 193.602 71.4521C193.602 71.4521 175.662 68.9521 163.602 68.6521C163.032 68.6521 188.752 21.1221 207.602 15.8921C226.452 10.6621 245.022 50.7821 245.022 50.7821C245.022 50.7821 250.022 66.3721 253.852 80.9321C256.359 91.2817 258.087 101.804 259.022 112.412Z" fill="#EF7F25"/>
<path d="M239.952 86.2122C236.322 73.4822 227.482 46.2722 216.332 38.6522C208.182 33.4222 196.052 64.8322 193.932 70.5622C189.113 69.1204 184.192 68.0408 179.212 67.3322C179.212 67.3322 198.152 24.1322 213.712 25.0622C229.272 25.9922 236.272 65.5622 238.342 72.4522C239.552 76.4522 239.882 82.1122 239.952 86.2122Z" fill="#B7B7B7"/>
<path d="M80.2324 191.352C88.8094 191.352 95.7622 187.493 95.7622 182.732C95.7622 177.971 88.8094 174.112 80.2324 174.112C71.6554 174.112 64.7021 177.971 64.7021 182.732C64.7021 187.493 71.6554 191.352 80.2324 191.352Z" fill="white"/>
<path d="M168.367 158.944C175.556 154.265 179.278 147.238 176.681 143.248C174.084 139.258 166.151 139.816 158.963 144.495C151.774 149.174 148.052 156.202 150.649 160.192C153.246 164.182 161.179 163.623 168.367 158.944Z" fill="white"/>
<g opacity="0.4">
<path d="M252.152 105.182C252.152 105.182 214.552 53.372 125.922 74.652C37.2917 95.932 33.1019 182.752 39.6619 200.912C39.6619 200.912 43.4516 155.322 67.3616 122.532C71.8416 124.932 82.5118 121.862 93.0618 114.782C105.112 106.712 112.452 96.492 109.462 91.962C109.281 91.683 109.062 91.4306 108.812 91.212C154.102 72.112 211.902 72.982 252.152 105.182Z" fill="white"/>
</g>
<g opacity="0.4">
<path d="M21.6318 79.1622C21.6318 79.1622 56.1622 77.2921 86.8022 91.1021C86.8022 91.1021 93.142 87.3922 92.542 86.7722C91.942 86.1522 50.9218 67.3422 21.6318 79.1622Z" fill="white"/>
</g>
<g opacity="0.4">
<path d="M157.192 67.7619C157.192 67.7619 178.782 23.4419 195.622 13.1019C212.462 2.76191 222.402 10.7319 222.362 10.3819C222.322 10.0319 209.562 -0.998095 198.552 4.81191C187.542 10.6219 172.772 25.4219 162.822 43.9319C152.872 62.4419 150.672 68.6019 150.672 68.6019L157.192 67.7619Z" fill="white"/>
</g>
<path d="M132.602 265.802C131.835 265.8 131.07 265.743 130.312 265.632C122.172 264.382 117.702 256.842 117.512 256.522C117.142 255.889 117.038 255.136 117.224 254.427C117.41 253.718 117.869 253.112 118.502 252.742C119.134 252.372 119.888 252.268 120.597 252.454C121.306 252.64 121.912 253.099 122.282 253.732C122.282 253.812 125.682 259.352 131.182 260.172C134.512 260.672 138.122 259.352 141.912 256.262L138.912 246.142C138.807 245.795 138.772 245.43 138.809 245.069C138.845 244.708 138.952 244.358 139.124 244.039C139.471 243.394 140.06 242.913 140.762 242.702C141.463 242.491 142.22 242.567 142.865 242.914C143.51 243.261 143.991 243.85 144.202 244.552L147.752 256.382C147.904 256.88 147.912 257.412 147.774 257.915C147.636 258.418 147.358 258.871 146.972 259.222C142.102 263.592 137.332 265.802 132.602 265.802Z" fill="#001477"/>
<path d="M147.952 260.112C146.869 260.109 145.787 260.038 144.712 259.902C143.985 259.808 143.326 259.429 142.878 258.848C142.431 258.268 142.233 257.534 142.327 256.807C142.421 256.08 142.8 255.421 143.38 254.974C143.961 254.526 144.695 254.328 145.422 254.422C160.172 256.342 162.642 240.612 162.732 239.942C162.835 239.217 163.223 238.562 163.809 238.122C164.395 237.683 165.132 237.494 165.857 237.597C166.582 237.7 167.237 238.088 167.677 238.674C168.117 239.26 168.306 239.997 168.202 240.722C167.222 247.762 161.712 260.112 147.952 260.112Z" fill="#001477"/>
<path d="M261.102 119.452C260.439 119.449 259.798 119.209 259.297 118.774C258.796 118.339 258.468 117.739 258.372 117.082C250.302 61.0821 235.932 21.9721 218.932 9.7021C214.002 6.1521 209.052 4.88211 203.782 5.82211C178.032 10.4321 151.092 70.4421 150.782 71.0521C150.485 71.72 149.934 72.2426 149.251 72.5051C148.569 72.7676 147.81 72.7485 147.142 72.4521C146.809 72.3057 146.508 72.0951 146.257 71.8322C146.006 71.5693 145.809 71.2593 145.678 70.9201C145.547 70.581 145.485 70.2193 145.494 69.8558C145.503 69.4923 145.584 69.1342 145.732 68.8021C146.882 66.2221 174.152 5.5021 202.732 0.382104C209.452 -0.817896 215.972 0.8121 222.082 5.2221C240.562 18.5621 255.362 58.0021 263.762 116.292C263.814 116.651 263.795 117.017 263.706 117.369C263.617 117.721 263.458 118.052 263.241 118.343C263.024 118.633 262.752 118.878 262.439 119.064C262.127 119.249 261.781 119.371 261.422 119.422C261.316 119.439 261.209 119.449 261.102 119.452Z" fill="#001477"/>
<path d="M38.2718 171.812C37.7872 171.813 37.3112 171.686 36.8915 171.444C36.4718 171.201 36.1231 170.852 35.8817 170.432C32.4217 164.432 2.43174 111.432 16.4217 94.6922C16.66 94.4036 16.9565 94.1685 17.2919 94.0022C35.1119 84.9422 67.2219 105.392 68.5819 106.262C68.8868 106.459 69.15 106.714 69.3563 107.012C69.5626 107.311 69.7079 107.647 69.784 108.002C69.8602 108.357 69.8657 108.723 69.8002 109.08C69.7346 109.437 69.5991 109.778 69.4017 110.082C69.0061 110.697 68.3831 111.13 67.6688 111.285C66.9545 111.441 66.2077 111.307 65.5921 110.912C57.1921 105.502 32.9321 92.9122 20.3221 98.6722C11.3821 110.942 31.892 152.502 40.662 167.672C40.8449 167.985 40.9643 168.331 41.013 168.69C41.0618 169.05 41.0391 169.415 40.9462 169.765C40.8532 170.116 40.6919 170.444 40.4715 170.732C40.2512 171.02 39.976 171.261 39.662 171.442C39.2404 171.689 38.76 171.816 38.2718 171.812Z" fill="#001477"/>
<path d="M241.872 97.3222C241.176 97.3192 240.506 97.0541 239.996 96.5797C239.487 96.1054 239.175 95.4565 239.122 94.7622C238.412 85.3522 235.292 68.2322 230.122 52.8822C224.702 36.8822 218.342 27.2023 213.122 27.0723H212.992C203.132 27.0723 187.792 53.5422 180.402 70.3122C180.106 70.9819 179.557 71.5072 178.875 71.7733C178.193 72.0394 177.433 72.0247 176.762 71.7322C176.092 71.4363 175.567 70.8873 175.301 70.2053C175.034 69.5232 175.05 68.7635 175.342 68.0922C177.452 63.3022 196.342 21.5522 213.012 21.5522H213.262C232.732 22.0222 243.512 79.0722 244.662 94.3522C244.695 94.7173 244.655 95.0852 244.544 95.4346C244.433 95.7839 244.253 96.1077 244.016 96.3869C243.779 96.6662 243.488 96.8954 243.161 97.0611C242.834 97.2269 242.477 97.3258 242.112 97.3522L241.872 97.3222Z" fill="#001477"/>
<path d="M38.4817 207.972C38.0132 207.972 37.5526 207.853 37.1419 207.628C36.7312 207.402 36.3835 207.077 36.1316 206.682C34.9316 204.762 6.56167 159.232 1.44167 119.682C-1.35833 98.1021 -0.158291 87.0721 5.73171 80.3421C11.8117 73.3421 22.3916 71.9921 38.6116 71.9121H39.0921C68.5921 71.9121 95.7316 84.3321 96.8816 84.9121C97.5446 85.2226 98.0578 85.7829 98.3089 86.4706C98.56 87.1583 98.5289 87.9175 98.2219 88.5821C97.9133 89.2469 97.3537 89.7622 96.6658 90.0153C95.9779 90.2683 95.2179 90.2384 94.552 89.9321C94.282 89.8021 67.3418 77.4821 39.0818 77.4821H38.6316C23.9916 77.5421 14.6319 78.6421 9.89186 84.0221C5.15187 89.4021 4.38187 99.4721 6.89187 119.022C11.8919 157.322 40.502 203.302 40.782 203.762C41.0445 204.179 41.1905 204.659 41.2049 205.152C41.2192 205.644 41.1014 206.132 40.8635 206.564C40.6257 206.995 40.2764 207.356 39.8523 207.607C39.4282 207.858 38.9448 207.991 38.4519 207.992L38.4817 207.972Z" fill="#001477"/>
<path d="M117.382 317.112C92.172 317.112 72.8724 312.792 63.9924 304.842C47.2724 289.842 43.2721 275.452 42.4021 258.422C41.5303 242.352 39.5762 226.359 36.5525 210.552C33.3324 192.894 33.6924 174.768 37.612 157.252C43.032 133.752 54.8421 114.412 72.7121 99.792C131.312 51.792 210.142 58.9119 247.002 95.6019C267.172 115.682 283.152 144.442 289.762 172.532C295.422 196.592 297.032 231.682 272.582 262.212C245.422 296.122 183.322 312.492 138.392 316.212C131.042 316.792 124.012 317.112 117.382 317.112ZM47.9221 258.112C48.7421 274.202 52.3323 286.942 67.6823 300.692C77.6323 309.602 104.562 313.432 137.942 310.692C185.232 306.782 243.872 289.202 268.272 258.752C309.512 207.252 278.382 134.632 243.102 99.512C225.362 81.852 197.702 71.6519 167.212 71.5119H166.602C133.625 71.6301 101.698 83.1236 76.2121 104.052C41.7421 132.272 35.9321 177.052 41.9821 209.532C45.0507 225.58 47.0351 241.817 47.9221 258.132V258.112Z" fill="#001477"/>
<path d="M135.682 262.492C135.682 262.492 138.322 276.492 147.002 276.162C155.682 275.832 157.862 267.162 154.682 256.852L154.402 256.382L145.402 257.562C139.102 261.822 135.682 262.492 135.682 262.492Z" fill="#F63C6B"/>
<path d="M146.672 278.932C136.092 278.932 133.092 263.662 132.972 263.002C132.836 262.292 132.984 261.557 133.384 260.955C133.784 260.353 134.404 259.932 135.112 259.782C135.232 259.782 138.282 259.012 143.902 255.272C144.25 255.033 144.652 254.882 145.072 254.832L154.072 253.642C154.609 253.574 155.153 253.664 155.64 253.9C156.126 254.136 156.533 254.509 156.812 254.972L157.092 255.442C157.205 255.626 157.292 255.825 157.352 256.032C159.682 263.572 159.352 270.032 156.352 274.242C155.298 275.697 153.913 276.881 152.312 277.696C150.711 278.512 148.939 278.935 147.142 278.932H146.672ZM139.002 264.272C140.002 267.602 142.442 273.412 146.712 273.412H146.892C147.841 273.446 148.784 273.25 149.64 272.841C150.497 272.431 151.242 271.821 151.812 271.062C153.512 268.652 153.762 264.382 152.532 259.432L146.422 260.232C144.076 261.801 141.593 263.153 139.002 264.272Z" fill="#001477"/>
<path d="M185.192 236.042L187.972 244.592L229.932 224.482L226.122 216.922L185.192 236.042Z" fill="#E30613"/>
<path d="M189.912 248.652L192.692 257.202L234.642 237.092L230.842 229.532L189.912 248.652Z" fill="#1CA75E"/>
<path d="M69.9624 268.132L70.3521 277.112L116.162 269.002L114.532 260.702L69.9624 268.132Z" fill="#FFD500"/>
<path d="M72.5825 281.062L72.9624 290.042L118.782 281.922L117.142 273.622L72.5825 281.062Z" fill="#004F9F"/>
<path d="M115.802 475.482C115.802 475.482 87.9518 493.642 61.0618 475.812C34.1718 457.982 32.6716 434.312 35.1316 413.812C37.5916 393.312 51.6617 379.962 67.9817 373.652C84.3017 367.342 101.712 371.012 108.652 383.652C108.652 383.652 110.242 385.762 109.492 387.372C108.742 388.982 101.552 404.062 100.202 417.582L97.3318 416.462C97.3318 416.462 80.482 410.382 78.572 426.132C78.572 434.432 90.002 443.992 101.492 442.472C101.492 442.402 105.602 460.112 115.802 475.482Z" fill="#FAA327"/>
<path d="M116.202 474.732C111.103 478.401 105.297 480.969 99.1518 482.272C84.3718 485.702 64.9718 483.852 50.2318 467.562C28.4218 443.462 35.142 413.762 35.142 413.762C36.0157 419.232 37.2787 424.632 38.9218 429.922C41.2518 437.482 44.8321 446.092 50.0521 452.032C72.9721 477.152 103.852 466.032 108.852 464.032C109.312 463.852 109.542 463.742 109.542 463.742L116.202 474.732Z" fill="white"/>
<path d="M337.832 279.482C336.642 250.192 327.242 242.482 317.262 238.482C313.888 237.293 310.266 236.983 306.739 237.581C303.212 238.18 299.895 239.667 297.102 241.902C292.892 245.432 288.452 252.442 291.222 265.802C296.462 291.152 315.672 292.992 316.492 293.062C316.672 293.07 316.849 293.114 317.011 293.191C317.174 293.268 317.319 293.378 317.438 293.512C317.558 293.647 317.649 293.805 317.706 293.975C317.763 294.146 317.786 294.327 317.771 294.506C317.757 294.686 317.707 294.86 317.624 295.02C317.541 295.18 317.426 295.321 317.287 295.436C317.148 295.55 316.988 295.635 316.815 295.686C316.642 295.737 316.461 295.753 316.282 295.732C316.082 295.732 297.222 293.982 290.022 271.732L287.022 275.082C288.822 282.552 287.812 292.662 280.022 305.902C279.282 307.162 278.512 308.406 277.712 309.632C284.932 324.712 289.472 341.102 291.802 350.922C292.712 339.492 297.472 332.872 306.652 328.872C318.752 323.572 338.962 307.222 337.832 279.482Z" fill="#FC8026"/>
<path d="M290.102 270.422C290.102 270.422 296.392 312.212 325.102 317.132C325.102 317.132 341.642 300.382 338.662 271.892C335.682 243.402 318.732 235.282 307.782 236.112C296.832 236.942 285.382 245.292 290.372 268.162L290.782 269.862L290.102 270.422Z" fill="white"/>
<path d="M291.102 360.412V360.292C291.052 360.032 286.542 334.892 275.992 312.212C263.949 329.418 247.722 343.273 228.842 352.472C206.582 363.242 183.892 365.632 164.942 359.212C164.605 359.098 164.327 358.855 164.17 358.536C164.012 358.217 163.988 357.849 164.102 357.512C164.216 357.175 164.459 356.897 164.778 356.74C165.097 356.582 165.465 356.558 165.802 356.672C201.212 368.672 250.112 346.922 275.042 308.862C275.962 307.452 276.862 306.022 277.712 304.572C289.102 285.212 285.212 273.232 279.942 266.572C273.262 258.152 261.942 255.302 258.772 256.302C255.942 257.182 249.562 261.302 240.772 267.102C227.922 275.472 208.512 288.102 184.892 300.422C148.892 319.172 122.962 316.712 117.562 315.912C116.562 318.092 114.112 324.692 115.822 334.342C117.932 346.142 121.452 365.912 109.732 390.072C100.732 408.592 90.8921 445.502 125.872 484.612C125.96 484.715 126.034 484.829 126.092 484.952C126.534 486.026 126.901 487.128 127.192 488.252C127.684 485.091 128.738 482.043 130.302 479.252C130.498 478.967 130.796 478.769 131.134 478.699C131.472 478.628 131.824 478.691 132.117 478.875C132.41 479.058 132.621 479.347 132.706 479.682C132.79 480.017 132.743 480.372 132.572 480.672C129.962 484.842 129.032 492.372 128.742 498.532C128.822 500.122 128.852 501.822 128.802 503.662V504.202C128.802 505.592 128.722 506.962 128.722 508.322V508.382C128.722 508.382 128.722 508.432 128.722 508.462C128.812 518.302 131.662 526.922 156.602 529.062C161.522 529.482 166.192 529.732 170.602 529.842C170.615 529.804 170.631 529.767 170.652 529.732V529.682C171.06 528.947 171.417 528.185 171.722 527.402C172.032 526.592 172.322 525.762 172.562 524.912C173.047 523.208 173.381 521.465 173.562 519.702C173.747 517.915 173.777 516.115 173.652 514.322C173.533 512.516 173.279 510.721 172.892 508.952C173.496 510.678 173.974 512.446 174.322 514.242C174.671 516.059 174.865 517.902 174.902 519.752C174.943 521.623 174.82 523.493 174.532 525.342C174.296 526.885 173.924 528.404 173.422 529.882C180.607 530.032 187.791 529.52 194.882 528.352C194.877 528.305 194.877 528.259 194.882 528.212V528.162C195.442 526.532 195.873 524.86 196.172 523.162C196.482 521.435 196.663 519.686 196.712 517.932C196.76 516.167 196.633 514.402 196.332 512.662C196.017 510.908 195.49 509.199 194.762 507.572C195.701 509.118 196.446 510.774 196.982 512.502C197.519 514.255 197.877 516.057 198.052 517.882C198.229 519.713 198.266 521.555 198.162 523.392C198.089 524.861 197.922 526.324 197.662 527.772C203.352 526.472 207.662 524.592 210.312 522.152C211.298 521.317 212.09 520.277 212.633 519.104C213.175 517.931 213.455 516.654 213.452 515.362C213.452 502.032 199.932 497.482 199.352 497.302H199.302C199.032 497.202 172.102 486.622 153.622 503.552C153.38 503.784 153.057 503.913 152.722 503.912C152.451 503.913 152.186 503.833 151.962 503.681C151.738 503.528 151.565 503.312 151.467 503.06C151.368 502.807 151.349 502.531 151.41 502.267C151.472 502.003 151.612 501.765 151.812 501.582C169.432 485.432 194.002 492.632 199.272 494.452C201.112 491.562 206.882 481.452 206.752 469.182C206.562 467.182 201.342 415.102 173.082 401.082C172.919 401.007 172.773 400.9 172.652 400.768C172.531 400.636 172.438 400.48 172.378 400.311C172.318 400.142 172.293 399.963 172.304 399.784C172.314 399.605 172.361 399.43 172.441 399.269C172.521 399.108 172.632 398.965 172.768 398.849C172.904 398.732 173.062 398.643 173.232 398.588C173.403 398.534 173.583 398.514 173.762 398.53C173.94 398.546 174.114 398.598 174.272 398.682C200.002 411.452 207.272 452.322 208.992 465.172C218.402 464.522 279.152 458.732 292.592 416.972C292.585 416.932 292.585 416.892 292.592 416.852C296.782 407.162 296.482 393.362 295.102 381.852C294.842 380.452 294.582 379.062 294.312 377.692C293.442 373.302 292.782 369.282 292.312 365.582C291.632 362.412 291.102 360.492 291.102 360.412Z" fill="#FAA327"/>
<path d="M211.312 284.112C211.312 284.112 215.922 324.182 257.472 331.402C257.472 331.402 289.112 303.162 286.352 279.842C283.592 256.522 258.632 254.842 257.302 255.472C255.972 256.102 211.312 284.112 211.312 284.112Z" fill="white"/>
<path d="M295.502 405.162C286.502 432.162 246.942 455.662 219.502 437.252C209.828 430.734 201.648 422.237 195.502 412.322C180.032 387.742 179.502 361.012 179.502 361.012V360.012C232.982 369.142 274.502 312.142 275.992 312.232C277.482 312.322 284.642 330.522 284.642 330.522C284.642 330.522 294.422 359.792 297.292 391.522C297.644 396.144 297.034 400.788 295.502 405.162Z" fill="white"/>
<path d="M245.592 460.662C233.807 464.472 221.612 466.872 209.262 467.812C209.262 468.072 209.312 468.302 209.332 468.482C213.792 472.852 223.332 482.402 223.862 484.872C223.978 486.389 223.941 487.913 223.752 489.422C223.242 497.052 222.182 512.952 228.562 517.952C234.492 522.602 263.562 523.282 282.302 522.362C282.297 522.336 282.297 522.308 282.302 522.282V522.212C282.875 520.616 283.307 518.973 283.592 517.302C283.898 515.588 284.068 513.853 284.102 512.112C284.149 510.367 284.024 508.623 283.732 506.902C283.453 505.157 282.998 503.445 282.372 501.792C283.2 503.389 283.87 505.064 284.372 506.792C284.888 508.522 285.239 510.296 285.422 512.092C285.624 513.901 285.681 515.724 285.592 517.542C285.519 519.12 285.331 520.691 285.032 522.242C289.09 522.107 293.13 521.643 297.112 520.852C297.782 520.662 298.682 520.392 299.692 520.002C299.677 519.889 299.677 519.775 299.692 519.662C299.686 519.605 299.686 519.549 299.692 519.492C299.983 517.886 300.17 516.262 300.252 514.632C300.357 512.987 300.357 511.337 300.252 509.692C300.129 508.039 299.864 506.4 299.462 504.792C299.008 503.175 298.335 501.627 297.462 500.192C298.519 501.528 299.391 503.002 300.052 504.572C300.685 506.17 301.181 507.819 301.532 509.502C301.879 511.188 302.116 512.895 302.242 514.612C302.342 516.032 302.392 517.422 302.352 518.862C305.122 517.452 308.052 515.302 309.562 512.122C310.992 509.122 310.862 505.652 309.172 501.822C307.833 498.683 305.694 495.95 302.969 493.895C300.244 491.84 297.028 490.536 293.642 490.112C293.032 490.112 274.642 489.942 264.272 498.552C264.138 498.665 263.982 498.75 263.815 498.803C263.648 498.855 263.472 498.874 263.297 498.858C263.122 498.843 262.952 498.792 262.797 498.711C262.642 498.629 262.504 498.517 262.392 498.382C262.279 498.247 262.193 498.091 262.141 497.922C262.088 497.754 262.069 497.577 262.085 497.402C262.101 497.226 262.151 497.055 262.233 496.899C262.315 496.743 262.427 496.605 262.562 496.492C272.692 488.112 289.012 487.492 292.892 487.432C294.682 484.042 302.422 468.742 302.722 457.652C302.982 447.762 301.562 425.742 298.452 402.832C298.13 407.981 296.985 413.045 295.062 417.832C288.792 437.232 271.692 452.042 245.592 460.662Z" fill="#FAA327"/>
<path d="M283.892 523.632C263.152 525.472 234.312 524.332 227.272 518.632C221.572 514.002 222.092 500.132 222.092 500.132C222.092 500.132 222.522 499.822 223.352 499.312C227.282 496.915 231.521 495.068 235.952 493.822C246.395 490.79 257.519 491.059 267.802 494.592C267.802 494.592 279.232 488.592 291.122 488.852C303.012 489.112 309.912 497.162 311.822 506.012C313.732 514.862 304.622 521.782 283.892 523.632Z" fill="white"/>
<path d="M209.502 524.502C198.852 534.032 151.402 531.862 137.152 525.862C122.902 519.862 127.402 499.962 127.402 499.962C127.402 499.962 127.862 499.802 128.722 499.542C132.792 498.312 145.722 494.872 158.452 496.652C159.162 496.752 159.862 496.862 160.572 497.002C171.213 491.784 183.457 490.874 194.752 494.462C213.922 500.462 220.152 514.962 209.502 524.502Z" fill="white"/>
<g opacity="0.25">
<path d="M231.422 322.332C184.912 353.412 150.322 344.952 152.422 347.202C153.802 348.692 155.572 353.402 164.492 356.942C164.668 356.79 164.879 356.685 165.107 356.638C165.334 356.59 165.57 356.602 165.792 356.672C201.202 368.672 250.102 346.922 275.032 308.862C275.952 307.452 276.852 306.022 277.702 304.572C289.092 285.212 285.202 273.232 279.932 266.572C278.507 264.793 276.856 263.206 275.022 261.852C275.102 262.712 277.232 291.712 231.422 322.332Z" fill="#001477"/>
</g>
<g opacity="0.25">
<path d="M302.342 322.332C313.502 317.152 331.692 298.152 331.582 281.332C331.472 264.512 295.092 257.382 296.012 267.332C296.932 277.282 303.302 286.622 306.012 289.242C309.182 291.291 312.769 292.607 316.512 293.092C316.692 293.1 316.869 293.143 317.031 293.221C317.194 293.298 317.339 293.407 317.458 293.542C317.578 293.677 317.669 293.834 317.726 294.005C317.783 294.176 317.805 294.356 317.791 294.536C317.777 294.715 317.727 294.89 317.644 295.05C317.561 295.21 317.446 295.351 317.307 295.465C317.168 295.58 317.008 295.665 316.835 295.716C316.662 295.767 316.481 295.783 316.302 295.762C316.102 295.762 297.242 294.012 290.042 271.762L287.042 275.112C288.842 282.582 287.832 292.692 280.042 305.932C279.302 307.192 278.532 308.435 277.732 309.662C281.598 317.9 284.867 326.405 287.512 335.112C291.139 329.528 296.284 325.095 302.342 322.332Z" fill="#001477"/>
</g>
<g opacity="0.25">
<path d="M214.502 365.962C239.502 363.312 268.152 336.832 276.662 339.022C281.116 340.232 285.062 342.84 287.922 346.462C284.933 334.716 280.918 323.255 275.922 312.212C263.878 329.417 247.652 343.273 228.772 352.472C209.112 361.982 189.122 364.962 171.672 361.102C171.672 361.102 189.522 368.612 214.502 365.962Z" fill="#001477"/>
</g>
<g opacity="0.25">
<path d="M174.802 519.112V519.782C174.843 521.652 174.72 523.523 174.432 525.372C174.196 526.915 173.825 528.434 173.322 529.912C180.507 530.062 187.691 529.549 194.782 528.382C194.778 528.335 194.778 528.288 194.782 528.242V528.192C195.342 526.561 195.774 524.89 196.072 523.192C196.282 521.992 196.422 520.782 196.512 519.562C189.28 520.181 182.003 520.03 174.802 519.112Z" fill="#001477"/>
</g>
<g opacity="0.25">
<path d="M198.152 519.372C198.226 520.704 198.226 522.04 198.152 523.372C198.079 524.841 197.912 526.304 197.652 527.752C203.342 526.452 207.652 524.572 210.302 522.132C211.289 521.297 212.081 520.257 212.623 519.084C213.165 517.911 213.445 516.634 213.442 515.342C213.442 514.752 213.442 514.192 213.352 513.632C210.582 516.822 204.822 518.572 198.152 519.372Z" fill="#001477"/>
</g>
<path d="M206.712 469.112C206.832 481.402 201.052 491.492 199.222 494.382C194.582 492.792 175.072 487.032 158.452 496.612C145.732 494.832 132.792 498.272 128.722 499.502C128.722 499.172 128.722 498.832 128.672 498.502C128.972 492.342 129.902 484.822 132.512 480.642C132.621 480.493 132.698 480.324 132.738 480.143C132.778 479.963 132.781 479.777 132.746 479.596C132.711 479.415 132.639 479.243 132.534 479.091C132.429 478.939 132.294 478.81 132.138 478.713C131.981 478.615 131.806 478.551 131.623 478.525C131.44 478.498 131.255 478.51 131.077 478.559C130.899 478.607 130.732 478.692 130.589 478.808C130.445 478.924 130.327 479.069 130.242 479.232C128.67 482.02 127.616 485.069 127.132 488.232C126.844 487.111 126.477 486.011 126.032 484.942C125.977 484.815 125.902 484.697 125.812 484.592C115.132 472.652 108.632 460.912 105.012 449.852C104.462 441.632 103.782 426.052 105.932 419.592C105.932 419.592 143.222 472.892 173.622 474.382C198.862 475.632 202.622 456.242 203.232 449.632C204.823 456.041 205.986 462.549 206.712 469.112Z" fill="#EF7F25"/>
<g opacity="0.25">
<path d="M173.552 518.932C173.552 519.182 173.552 519.452 173.502 519.712C173.316 521.477 172.981 523.223 172.502 524.932C172.262 525.772 171.972 526.602 171.662 527.412C171.357 528.195 171 528.957 170.592 529.692V529.742C170.58 529.777 170.563 529.811 170.542 529.842C166.142 529.742 161.472 529.492 156.542 529.062C131.602 526.932 128.752 518.322 128.672 508.472V508.332C128.672 506.982 128.672 505.602 128.742 504.212V503.672C128.742 502.212 128.742 500.832 128.742 499.542C132.812 498.312 145.742 494.872 158.472 496.652C156.072 498.034 153.831 499.677 151.792 501.552C151.661 501.67 151.555 501.812 151.479 501.971C151.404 502.13 151.361 502.302 151.353 502.478C151.344 502.654 151.371 502.83 151.431 502.995C151.491 503.161 151.583 503.312 151.702 503.442C151.867 503.614 152.074 503.742 152.302 503.812L151.802 504.812C151.802 504.812 156.382 514.222 166.222 517.412C168.62 518.116 171.072 518.624 173.552 518.932Z" fill="#001477"/>
</g>
<g opacity="0.25">
<path d="M285.652 515.322C285.652 516.052 285.652 516.782 285.652 517.512C285.578 519.09 285.392 520.661 285.092 522.212C289.15 522.078 293.19 521.613 297.172 520.822C297.842 520.632 298.742 520.362 299.752 519.972C299.737 519.859 299.737 519.745 299.752 519.632C299.746 519.576 299.746 519.519 299.752 519.462C300.043 517.856 300.23 516.233 300.312 514.602C300.352 513.896 300.372 513.186 300.372 512.472C298.409 513.13 296.405 513.658 294.372 514.052C291.552 514.562 288.632 515.002 285.652 515.322Z" fill="#001477"/>
</g>
<g opacity="0.25">
<path d="M301.992 511.812C302.126 512.725 302.225 513.635 302.292 514.542C302.392 515.962 302.442 517.352 302.402 518.792C305.172 517.382 308.102 515.232 309.612 512.052C310.551 510.026 310.828 507.755 310.402 505.562C309.272 507.472 306.902 509.852 301.992 511.812Z" fill="#001477"/>
</g>
<path d="M295.502 405.162C295.094 409.169 294.111 413.096 292.582 416.822C292.576 416.862 292.576 416.902 292.582 416.942C279.142 458.702 218.402 464.502 208.982 465.142C207.442 453.402 201.212 418.322 180.542 402.582C185.854 405.321 190.879 408.584 195.542 412.322C201.688 422.237 209.868 430.734 219.542 437.252C246.942 455.662 286.522 432.192 295.502 405.162Z" fill="#EF7F25"/>
<g opacity="0.25">
<path d="M295.502 405.162C286.502 432.162 246.942 455.662 219.502 437.252C209.828 430.734 201.648 422.237 195.502 412.322C200.646 416.317 205.477 420.7 209.952 425.432C223.952 440.282 244.812 439.102 266.482 428.512C284.102 419.892 293.212 401.512 296.002 393.842C296.098 397.623 295.931 401.405 295.502 405.162Z" fill="#001477"/>
</g>
<path d="M234.592 469.712C232.592 477.922 236.592 480.592 236.322 488.282C236.252 489.992 236.082 491.862 235.952 493.812C231.521 495.058 227.282 496.905 223.352 499.302C223.352 495.552 223.572 492.012 223.752 489.422C223.941 487.913 223.978 486.388 223.862 484.872C223.332 482.402 213.802 472.872 209.332 468.482C209.332 468.302 209.332 468.072 209.262 467.812C220.691 466.936 231.99 464.82 242.962 461.502C238.582 464.012 235.322 466.692 234.592 469.712Z" fill="#EF7F25"/>
<g opacity="0.25">
<path d="M283.892 515.492C283.812 516.102 283.732 516.702 283.622 517.292C283.339 518.969 282.911 520.619 282.342 522.222V522.272V522.362C263.632 523.272 234.542 522.612 228.602 517.952C224.392 514.652 223.422 506.582 223.402 499.302C227.332 496.905 231.571 495.058 236.002 493.812C235.542 500.612 235.632 508.192 243.362 511.682C251.382 515.332 268.292 516.932 283.892 515.492Z" fill="#001477"/>
</g>
<g opacity="0.4">
<path d="M175.012 409.592C185.012 417.072 201.832 444.402 201.932 444.702C197.382 428.502 188.782 408.862 173.032 401.052C172.738 400.905 172.507 400.654 172.385 400.348C172.264 400.042 172.259 399.702 172.372 399.392C158.342 393.892 165.852 402.752 175.012 409.592Z" fill="white"/>
</g>
<g opacity="0.4">
<path d="M295.102 417.822C294.742 418.952 294.332 420.062 293.892 421.162C294.582 428.022 297.212 455.642 296.052 465.162C294.962 474.102 290.342 484.292 288.722 487.652C290.602 487.512 292.072 487.472 292.932 487.462C294.722 484.072 302.462 468.772 302.762 457.682C303.022 447.822 301.612 425.902 298.522 403.072L298.442 403.322C298.095 408.301 296.968 413.194 295.102 417.822Z" fill="white"/>
</g>
<g opacity="0.4">
<path d="M292.522 495.272C297.332 495.529 302.102 496.293 306.752 497.552C305.165 495.509 303.19 493.801 300.94 492.526C298.69 491.251 296.21 490.434 293.642 490.122C293.032 490.122 274.642 489.952 264.272 498.562C264.034 498.763 263.733 498.873 263.422 498.872L264.292 500.122C264.292 500.122 283.542 494.842 292.522 495.272Z" fill="white"/>
</g>
<g opacity="0.4">
<path d="M189.002 305.752C221.462 294.532 258.242 261.892 261.472 260.512C263.392 259.682 267.372 259.192 270.262 258.922C265.342 256.482 260.632 255.712 258.752 256.302C255.922 257.182 249.542 261.302 240.752 267.102C227.902 275.472 208.492 288.102 184.872 300.422C162.782 311.912 144.522 315.422 132.442 316.252C132.442 316.252 156.532 316.982 189.002 305.752Z" fill="white"/>
</g>
<g opacity="0.4">
<path d="M312.012 242.552C322.852 242.072 332.882 257.812 335.932 263.072C332.472 246.982 325.042 241.612 317.262 238.512C313.891 237.319 310.271 237.004 306.743 237.597C303.216 238.19 299.898 239.671 297.102 241.902C293.252 245.122 289.242 251.272 290.672 262.482C292.932 257.842 301.042 243.032 312.012 242.552Z" fill="white"/>
</g>
<g opacity="0.4">
<path d="M155.502 503.482C155.502 503.482 172.592 496.482 185.772 497.842C196.132 498.922 206.692 503.912 210.772 506.002C206.772 499.802 199.772 497.442 199.362 497.312H199.312C199.052 497.212 174.112 487.432 155.772 501.772C155.516 502.303 155.422 502.898 155.502 503.482Z" fill="white"/>
</g>
<path d="M108.842 464.022C103.842 466.022 72.962 477.162 50.042 452.022C44.822 446.082 41.2421 437.472 38.9121 429.912C38.9121 407.272 49.912 396.622 50.272 396.302C45.132 406.472 46.6221 435.692 66.1421 449.742C71.7348 453.841 78.1924 456.603 85.019 457.816C91.8456 459.029 98.8595 458.662 105.522 456.742C106.357 459.284 107.471 461.725 108.842 464.022Z" fill="#EF7F25"/>
<g opacity="0.25">
<path d="M116.202 474.732C113.825 477.105 110.934 478.898 107.752 479.972C104.936 480.919 102.064 481.687 99.1516 482.272C91.1516 483.912 79.782 484.832 70.242 480.332C56.152 473.692 40.9221 461.732 39.0921 435.122C38.9621 433.322 38.9116 431.592 38.9216 429.922C41.2516 437.482 44.832 446.092 50.052 452.032C72.972 477.152 103.852 466.032 108.852 464.032C111.042 467.77 113.498 471.346 116.202 474.732Z" fill="#001477"/>
</g>
<g opacity="0.25">
<path d="M76.312 428.732C76.312 428.732 72.8823 414.732 82.8223 407.132C88.2223 402.932 98.1121 403.672 102.372 405.872L99.7222 416.412C99.7222 416.412 80.162 404.692 76.312 428.732Z" fill="#001477"/>
</g>
<g opacity="0.4">
<path d="M77.5523 371.112C54.6423 375.292 38.8822 394.392 40.7622 403.392C40.7622 403.392 48.6921 390.392 62.6221 382.922C63.1221 384.922 68.4721 385.522 74.6221 384.202C79.9221 383.072 84.1022 380.902 84.9322 379.012C97.7922 381.732 107.352 391.842 107.352 391.842L109.952 384.722C109.952 384.722 100.462 366.902 77.5523 371.112Z" fill="white"/>
</g>
<g opacity="0.4">
<path d="M75.7422 392.152C77.8243 392.152 79.5122 391.247 79.5122 390.132C79.5122 389.016 77.8243 388.112 75.7422 388.112C73.6601 388.112 71.9722 389.016 71.9722 390.132C71.9722 391.247 73.6601 392.152 75.7422 392.152Z" fill="white"/>
</g>
<path d="M174.672 533.992C167.882 533.992 161.382 533.602 156.172 533.152C123.822 530.382 124.262 515.802 124.622 504.092V503.552C124.892 494.312 122.952 488.442 122.402 486.982C86.2217 446.222 96.5518 407.672 105.962 388.282C117.102 365.282 113.722 346.372 111.712 335.062C109.372 321.912 111.772 314.482 111.872 314.172C112.08 313.548 112.502 313.018 113.065 312.678C113.627 312.337 114.293 312.207 114.942 312.312C115.232 312.312 144.482 316.782 182.942 296.782C206.382 284.582 225.692 271.992 238.472 263.662C248.252 257.292 254.152 253.442 257.532 252.382C262.752 250.752 275.632 254.562 283.142 264.022C289.202 271.662 293.792 285.252 281.232 306.622C269.692 326.222 250.812 343.402 229.422 353.752C206.822 364.692 183.752 367.102 164.422 360.562C164.078 360.445 163.762 360.262 163.489 360.022C163.217 359.783 162.994 359.492 162.833 359.167C162.673 358.841 162.579 358.488 162.556 358.126C162.532 357.764 162.58 357.401 162.697 357.057C162.814 356.714 162.997 356.397 163.237 356.124C163.476 355.852 163.767 355.629 164.092 355.469C164.418 355.309 164.772 355.214 165.134 355.191C165.496 355.167 165.859 355.215 166.202 355.332C202.322 367.582 252.812 343.992 276.442 303.812C285.132 289.042 285.942 276.472 278.792 267.452C272.252 259.222 261.522 256.922 259.162 257.662C256.512 258.492 249.872 262.812 241.472 268.292C228.602 276.682 209.152 289.362 185.472 301.682C151.552 319.332 124.892 318.792 116.652 318.072C115.934 323.396 116.103 328.803 117.152 334.072C119.282 346.072 122.852 366.072 110.932 390.672C100.142 412.902 94.1519 447.082 126.852 483.672C127.04 483.884 127.196 484.123 127.312 484.382C127.442 484.672 130.502 491.662 130.142 503.722V504.272C129.802 515.572 129.502 525.332 156.652 527.662C182.742 529.892 202.442 527.452 209.342 521.122C210.18 520.418 210.853 519.539 211.316 518.548C211.779 517.557 212.02 516.476 212.022 515.382C212.022 503.122 199.442 498.852 198.902 498.672C198.487 498.539 198.111 498.309 197.803 498.001C197.495 497.693 197.265 497.317 197.132 496.902C196.998 496.489 196.963 496.051 197.029 495.622C197.095 495.193 197.26 494.786 197.512 494.432C197.592 494.322 205.442 483.192 205.282 469.142C205.277 468.597 205.433 468.062 205.731 467.605C206.03 467.148 206.457 466.79 206.959 466.576C207.461 466.362 208.015 466.302 208.551 466.402C209.087 466.503 209.582 466.761 209.972 467.142C224.562 481.362 225.082 483.802 225.252 484.602C225.419 486.243 225.392 487.898 225.172 489.532C224.722 496.352 223.652 512.312 229.432 516.852C237.082 522.852 288.312 521.792 296.762 519.462C302.352 517.932 306.672 514.942 308.322 511.462C309.572 508.842 309.432 505.782 307.922 502.352C306.684 499.445 304.701 496.916 302.173 495.021C299.644 493.126 296.66 491.933 293.522 491.562C293.058 491.529 292.609 491.379 292.218 491.128C291.827 490.876 291.505 490.53 291.282 490.122C291.056 489.715 290.937 489.257 290.937 488.792C290.937 488.327 291.056 487.869 291.282 487.462C291.372 487.292 300.972 469.762 301.282 457.642C301.642 444.162 298.862 408.022 292.892 377.942C286.922 347.862 290.512 334.352 306.052 327.572C317.842 322.432 337.502 306.572 336.402 279.572C335.242 251.092 326.262 243.662 316.722 239.872C313.59 238.761 310.226 238.467 306.949 239.018C303.671 239.57 300.588 240.948 297.992 243.022C292.382 247.732 290.522 255.512 292.592 265.542C297.592 289.772 315.822 291.602 316.592 291.672C317.323 291.73 318 292.077 318.475 292.635C318.951 293.193 319.185 293.916 319.127 294.647C319.068 295.378 318.722 296.055 318.164 296.531C317.606 297.006 316.882 297.24 316.152 297.182C315.922 297.182 293.062 295.082 287.152 266.662C284.672 254.662 287.252 244.792 294.412 238.792C297.773 236.074 301.779 234.271 306.042 233.56C310.306 232.848 314.681 233.252 318.742 234.732C333.942 240.732 340.862 254.122 341.892 279.352C343.112 309.292 321.302 326.942 308.232 332.642C297.312 337.412 292.232 346.172 298.282 376.882C304.412 407.752 307.152 443.712 306.782 457.802C306.512 467.992 300.782 480.802 297.782 486.802C301.15 487.74 304.264 489.423 306.893 491.727C309.523 494.031 311.6 496.896 312.972 500.112C315.162 505.112 315.282 509.692 313.312 513.822C310.942 518.822 305.452 522.822 298.232 524.822C289.402 527.252 235.992 529.042 226.022 521.222C217.942 514.892 219.022 498.172 219.662 489.222C219.742 487.942 219.842 486.522 219.832 485.902C218.992 484.432 214.902 480.002 210.432 475.452C209.489 482.272 207.245 488.848 203.822 494.822C209.822 497.822 217.542 504.522 217.542 515.452C217.548 517.313 217.152 519.153 216.381 520.846C215.609 522.54 214.481 524.046 213.072 525.262C205.462 532.172 189.362 533.992 174.672 533.992Z" fill="#001477"/>
<path d="M285.522 277.472C284.988 277.472 284.465 277.318 284.017 277.027C283.569 276.736 283.216 276.322 282.999 275.834C282.782 275.346 282.711 274.805 282.795 274.278C282.879 273.75 283.114 273.258 283.472 272.862L288.562 267.212C289.053 266.668 289.739 266.342 290.471 266.304C291.202 266.267 291.918 266.521 292.462 267.012C293.006 267.503 293.332 268.189 293.37 268.921C293.407 269.652 293.153 270.368 292.662 270.912L287.572 276.562C287.313 276.848 286.996 277.076 286.643 277.233C286.29 277.39 285.908 277.471 285.522 277.472Z" fill="#001477"/>
<path d="M208.042 471.862C207.351 471.86 206.685 471.599 206.176 471.131C205.668 470.662 205.352 470.021 205.292 469.332C205.292 468.802 200.352 416.192 172.392 402.332C171.729 402.006 171.223 401.43 170.985 400.73C170.746 400.031 170.796 399.265 171.122 398.602C171.448 397.939 172.025 397.433 172.724 397.195C173.424 396.956 174.189 397.006 174.852 397.332C205.592 412.582 210.602 466.532 210.792 468.822C210.825 469.184 210.786 469.549 210.678 469.896C210.569 470.243 210.394 470.565 210.16 470.844C209.927 471.122 209.641 471.352 209.319 471.52C208.997 471.688 208.644 471.791 208.282 471.822L208.042 471.862Z" fill="#001477"/>
<path d="M207.762 469.322C207.056 469.294 206.386 468.998 205.892 468.492C205.397 467.987 205.114 467.311 205.101 466.604C205.088 465.897 205.347 465.212 205.823 464.689C206.299 464.166 206.957 463.845 207.662 463.792C208.352 463.792 276.992 460.612 291.182 416.502L291.272 416.252C299.532 397.142 289.812 361.152 289.712 360.792C289.707 360.709 289.707 360.625 289.712 360.542C289.662 360.272 284.892 333.742 273.712 310.732C273.554 310.404 273.462 310.048 273.441 309.684C273.421 309.32 273.472 308.956 273.592 308.612C273.713 308.267 273.899 307.95 274.142 307.679C274.385 307.407 274.678 307.185 275.007 307.027C275.335 306.869 275.692 306.777 276.056 306.756C276.419 306.736 276.784 306.787 277.128 306.907C277.472 307.028 277.789 307.214 278.061 307.457C278.332 307.7 278.554 307.994 278.712 308.322C289.942 331.452 294.712 357.172 295.142 359.452C295.892 362.252 305.232 397.802 296.462 418.322C290.032 438.152 272.612 453.262 246.102 462.012C233.742 466.063 220.915 468.517 207.932 469.312L207.762 469.322Z" fill="#001477"/>
<path d="M127.312 511.232C126.606 511.231 125.927 510.96 125.414 510.475C124.901 509.99 124.593 509.327 124.552 508.622C124.552 507.762 123.452 487.442 129.032 478.512C129.225 478.205 129.476 477.938 129.771 477.728C130.066 477.518 130.4 477.368 130.753 477.287C131.107 477.205 131.473 477.194 131.83 477.255C132.188 477.315 132.53 477.445 132.837 477.637C133.144 477.829 133.411 478.08 133.621 478.376C133.831 478.671 133.981 479.005 134.063 479.358C134.144 479.712 134.155 480.078 134.095 480.435C134.035 480.793 133.904 481.135 133.712 481.442C129.852 487.622 129.772 502.932 130.072 508.322C130.111 509.054 129.857 509.771 129.368 510.316C128.879 510.861 128.193 511.191 127.462 511.232H127.312Z" fill="#001477"/>
<path d="M152.672 505.302C152.114 505.304 151.569 505.137 151.108 504.823C150.647 504.51 150.292 504.063 150.089 503.544C149.887 503.024 149.846 502.455 149.974 501.912C150.101 501.369 150.39 500.878 150.802 500.502C171.202 481.812 199.592 492.992 200.802 493.502C201.158 493.624 201.486 493.817 201.765 494.069C202.044 494.322 202.269 494.629 202.425 494.971C202.582 495.313 202.667 495.684 202.675 496.06C202.684 496.436 202.615 496.81 202.475 497.159C202.334 497.508 202.123 497.825 201.856 498.09C201.589 498.355 201.27 498.563 200.92 498.701C200.57 498.838 200.195 498.903 199.819 498.892C199.443 498.88 199.073 498.791 198.732 498.632C198.432 498.502 172.322 488.312 154.552 504.632C154.032 505.084 153.36 505.323 152.672 505.302Z" fill="#001477"/>
<path d="M263.422 500.302C262.853 500.303 262.298 500.128 261.832 499.801C261.366 499.474 261.013 499.012 260.82 498.477C260.628 497.941 260.605 497.359 260.756 496.811C260.906 496.262 261.223 495.774 261.662 495.412C273.372 485.712 292.942 486.002 293.752 486.022C294.484 486.036 295.18 486.341 295.687 486.869C296.195 487.397 296.472 488.105 296.457 488.837C296.442 489.569 296.138 490.265 295.61 490.772C295.082 491.28 294.374 491.556 293.642 491.542C293.462 491.542 275.292 491.292 265.182 499.662C264.688 500.074 264.065 500.301 263.422 500.302Z" fill="#001477"/>
<path d="M169.332 529.032C173.042 523.162 173.832 515.752 172.822 508.962C175.822 515.962 176.722 524.222 174.232 531.592L173.952 532.252C173.786 532.648 173.533 533.002 173.213 533.288C172.892 533.574 172.512 533.784 172.099 533.904C171.687 534.024 171.252 534.05 170.829 533.98C170.405 533.91 170.002 533.747 169.649 533.501C169.297 533.256 169.004 532.934 168.791 532.561C168.579 532.187 168.454 531.771 168.423 531.342C168.393 530.914 168.458 530.484 168.616 530.084C168.773 529.684 169.018 529.325 169.332 529.032Z" fill="#001477"/>
<path d="M193.502 527.752C196.132 521.482 197.182 514.112 194.752 507.582C195.806 509.086 196.669 510.715 197.322 512.432C199.224 517.887 199.726 523.732 198.782 529.432C198.708 529.819 198.552 530.186 198.326 530.509C198.099 530.832 197.807 531.103 197.468 531.304C197.129 531.506 196.752 531.633 196.36 531.678C195.969 531.723 195.572 531.685 195.196 531.565C194.821 531.446 194.474 531.248 194.181 530.985C193.887 530.722 193.652 530.4 193.492 530.039C193.332 529.679 193.25 529.289 193.252 528.895C193.254 528.5 193.339 528.111 193.502 527.752Z" fill="#001477"/>
<path d="M280.992 521.782C283.782 515.484 284.274 508.406 282.382 501.782C286.174 508.324 287.544 515.992 286.252 523.442C286.194 523.845 286.05 524.231 285.828 524.572C285.606 524.914 285.312 525.203 284.967 525.419C284.622 525.635 284.234 525.774 283.83 525.824C283.426 525.875 283.016 525.838 282.628 525.714C282.241 525.59 281.884 525.383 281.584 525.107C281.285 524.832 281.049 524.494 280.893 524.118C280.737 523.741 280.666 523.336 280.683 522.929C280.7 522.522 280.805 522.124 280.992 521.762V521.782Z" fill="#001477"/>
<path d="M298.312 519.232C299.812 513.032 300.452 506.032 297.512 500.122C301.692 504.702 303.092 511.172 303.662 517.192C303.732 518.122 303.792 519.012 303.782 520.042C303.777 520.44 303.687 520.832 303.518 521.193C303.349 521.553 303.105 521.873 302.802 522.131C302.499 522.389 302.144 522.579 301.761 522.689C301.379 522.799 300.977 522.825 300.583 522.767C300.19 522.709 299.813 522.567 299.479 522.351C299.145 522.135 298.86 521.85 298.645 521.515C298.43 521.18 298.289 520.804 298.231 520.41C298.174 520.016 298.201 519.614 298.312 519.232Z" fill="#001477"/>
<path d="M88.4619 486.632C79.3319 486.632 68.0921 484.112 55.9121 475.792C40.7621 465.452 31.9118 448.912 31.1118 429.232C30.2818 410.032 37.5223 391.232 49.5523 381.442C62.1023 371.192 78.6622 366.302 92.7822 368.692C102.032 370.252 109.422 374.862 113.602 381.692C113.792 382.001 113.919 382.345 113.976 382.703C114.033 383.062 114.019 383.428 113.934 383.78C113.85 384.133 113.697 384.466 113.483 384.76C113.27 385.053 113.001 385.302 112.692 385.492C112.383 385.682 112.039 385.809 111.681 385.866C111.322 385.923 110.956 385.908 110.604 385.824C110.251 385.739 109.918 385.586 109.625 385.373C109.331 385.16 109.082 384.891 108.892 384.582C105.562 379.162 99.5121 375.462 91.8921 374.172C79.3121 372.042 64.4321 376.482 53.0821 385.752C42.3521 394.512 35.9021 411.502 36.6621 429.022C37.1021 439.392 40.6023 458.662 59.0523 471.262C89.9723 492.362 113.482 473.452 114.462 472.632C115.03 472.21 115.739 472.022 116.441 472.107C117.144 472.191 117.787 472.54 118.24 473.084C118.693 473.628 118.921 474.324 118.876 475.03C118.832 475.737 118.519 476.399 118.002 476.882C112.644 480.94 106.484 483.813 99.9322 485.312C96.1738 486.2 92.3238 486.643 88.4619 486.632Z" fill="#001477"/>
<path d="M98.912 445.872C94.497 445.88 90.1671 444.658 86.4081 442.343C82.6492 440.027 79.6097 436.709 77.6318 432.762C73.0918 424.112 77.6318 416.762 83.6918 413.522C89.7518 410.282 98.5118 410.872 102.442 418.322C102.783 418.97 102.852 419.728 102.635 420.427C102.417 421.127 101.931 421.711 101.282 422.052C100.634 422.393 99.8762 422.462 99.1767 422.244C98.4772 422.027 97.893 421.54 97.5522 420.892C95.2722 416.572 90.1521 416.372 86.2621 418.412C82.6721 420.302 79.5422 424.512 82.5322 430.202C84.1947 433.607 86.8839 436.403 90.2211 438.198C93.5584 439.992 97.3748 440.693 101.132 440.202C101.853 440.076 102.595 440.242 103.194 440.663C103.793 441.084 104.201 441.725 104.327 442.447C104.453 443.168 104.287 443.91 103.866 444.509C103.445 445.108 102.803 445.516 102.082 445.642C101.034 445.81 99.9734 445.887 98.912 445.872Z" fill="#001477"/>
<path d="M314.972 194.762C314.639 194.764 314.308 194.699 314.001 194.57C313.693 194.441 313.415 194.251 313.182 194.012C310.203 190.928 306.58 188.538 302.572 187.012C302.065 186.821 301.633 186.469 301.343 186.011C301.052 185.553 300.919 185.013 300.962 184.472C301.352 179.712 301.742 168.052 296.962 162.632C296.188 161.753 295.236 161.05 294.168 160.569C293.101 160.088 291.943 159.84 290.772 159.842H290.242C287.349 159.751 284.532 160.783 282.382 162.722C281.924 163.143 281.324 163.375 280.702 163.372C280.402 163.372 280.104 163.318 279.822 163.212C279.393 163.048 279.016 162.769 278.734 162.406C278.451 162.043 278.275 161.609 278.222 161.152L278.062 159.692C277.782 157.242 277.502 154.692 277.062 152.122C277.047 151.976 277.047 151.828 277.062 151.682C277.072 151.075 277.132 150.469 277.242 149.872C277.311 149.487 277.469 149.124 277.703 148.811C277.938 148.499 278.242 148.246 278.593 148.072C282.349 146.236 286.481 145.298 290.662 145.332C292.758 145.334 294.847 145.541 296.902 145.952C311.592 148.812 321.032 170.222 317.512 192.712C317.44 193.171 317.242 193.601 316.94 193.954C316.638 194.307 316.245 194.569 315.802 194.712C315.53 194.769 315.25 194.786 314.972 194.762Z" fill="#9FA9B2"/>
<path d="M290.592 147.772C292.529 147.777 294.461 147.968 296.362 148.342C309.022 150.812 318.362 170.632 314.972 192.262C311.742 188.898 307.808 186.289 303.452 184.622C304.082 176.942 304.282 157.752 290.802 157.292H290.192C286.677 157.202 283.262 158.466 280.652 160.822C280.322 157.912 280.012 154.822 279.492 151.672C279.502 151.199 279.548 150.728 279.632 150.262C283.056 148.592 286.822 147.743 290.632 147.782M290.632 142.782C286.066 142.748 281.554 143.775 277.452 145.782C276.753 146.128 276.145 146.633 275.676 147.257C275.208 147.88 274.891 148.605 274.752 149.372C274.623 150.102 274.55 150.841 274.532 151.582C274.531 151.884 274.554 152.185 274.602 152.482C275.012 155.002 275.292 157.482 275.602 159.952L275.772 161.392C275.876 162.305 276.23 163.172 276.795 163.897C277.359 164.622 278.113 165.177 278.972 165.502C279.536 165.711 280.131 165.82 280.732 165.822C281.975 165.821 283.173 165.358 284.092 164.522C285.787 163.008 288.001 162.209 290.272 162.292H290.722C291.553 162.278 292.377 162.445 293.137 162.782C293.897 163.119 294.574 163.617 295.122 164.242C298.022 167.502 299.312 174.972 298.552 184.242C298.465 185.324 298.732 186.404 299.313 187.32C299.894 188.237 300.757 188.939 301.772 189.322C305.439 190.73 308.748 192.933 311.462 195.772C311.929 196.251 312.487 196.632 313.104 196.891C313.721 197.15 314.383 197.283 315.052 197.282C315.565 197.285 316.074 197.207 316.562 197.052C317.45 196.771 318.241 196.247 318.847 195.541C319.453 194.834 319.85 193.972 319.992 193.052C323.712 169.272 313.362 146.552 297.392 143.442C295.178 143.009 292.928 142.788 290.672 142.782H290.632Z" fill="#001477"/>
<path d="M217.782 206.802C217.318 206.773 216.871 206.615 216.492 206.346C216.112 206.078 215.814 205.71 215.632 205.282C206.722 184.342 210.632 161.282 224.182 154.902C228.168 152.968 232.532 151.943 236.962 151.902C238.811 151.898 240.655 152.093 242.462 152.482C242.842 152.565 243.197 152.735 243.5 152.98C243.802 153.225 244.042 153.537 244.202 153.892C244.458 154.443 244.665 155.015 244.822 155.602C244.864 155.745 244.891 155.893 244.902 156.042C245.122 158.642 245.462 161.172 245.802 163.612L245.992 165.082C246.056 165.537 245.991 166.001 245.806 166.421C245.62 166.842 245.321 167.202 244.942 167.462C244.527 167.756 244.031 167.914 243.522 167.912C243.111 167.911 242.707 167.812 242.342 167.622C240.77 166.772 239.01 166.328 237.222 166.332C235.966 166.34 234.717 166.526 233.512 166.882C232.436 167.17 231.434 167.684 230.572 168.389C229.71 169.094 229.008 169.974 228.512 170.972C225.362 176.972 227.302 188.092 229.912 195.752C230.082 196.272 230.075 196.834 229.895 197.351C229.714 197.867 229.369 198.31 228.912 198.612C227.832 199.362 226.792 199.962 225.782 200.542C223.402 201.932 221.512 203.022 220.052 205.542C219.832 205.92 219.517 206.234 219.138 206.453C218.759 206.672 218.33 206.789 217.892 206.792L217.782 206.802Z" fill="#9FA9B2"/>
<path d="M236.962 154.412C238.642 154.407 240.318 154.581 241.962 154.932C242.155 155.363 242.315 155.807 242.442 156.262C242.712 159.452 243.162 162.512 243.552 165.422C241.616 164.381 239.45 163.838 237.252 163.842C235.762 163.851 234.281 164.07 232.852 164.492C219.852 168.232 225.082 189.272 227.572 196.562C223.942 199.082 220.452 200.012 217.962 204.312C209.392 184.152 213.602 162.652 225.272 157.172C228.924 155.39 232.929 154.447 236.992 154.412M236.992 149.412C232.18 149.442 227.434 150.546 223.102 152.642C208.372 159.562 203.892 184.112 213.312 206.262C213.681 207.111 214.278 207.841 215.037 208.371C215.796 208.901 216.688 209.209 217.612 209.262H217.922C218.798 209.26 219.658 209.028 220.416 208.59C221.175 208.151 221.804 207.521 222.242 206.762C223.322 204.892 224.572 204.112 227.072 202.672C228.072 202.092 229.202 201.432 230.372 200.622C231.264 200.002 231.93 199.109 232.269 198.077C232.609 197.045 232.602 195.93 232.252 194.902C229.712 187.442 228.102 177.112 230.722 172.112C231.06 171.413 231.547 170.796 232.148 170.304C232.749 169.811 233.45 169.456 234.202 169.262C235.177 168.976 236.186 168.824 237.202 168.812C238.582 168.808 239.94 169.152 241.152 169.812C241.875 170.198 242.682 170.401 243.502 170.402C244.522 170.404 245.518 170.089 246.352 169.502C247.107 168.977 247.702 168.254 248.073 167.412C248.443 166.571 248.574 165.643 248.452 164.732L248.262 163.322C247.932 160.892 247.592 158.372 247.372 155.822C247.344 155.521 247.29 155.224 247.212 154.932C247.019 154.216 246.768 153.517 246.462 152.842C246.139 152.135 245.655 151.512 245.049 151.024C244.443 150.536 243.732 150.197 242.972 150.032C241.001 149.605 238.989 149.391 236.972 149.392L236.992 149.412Z" fill="#001477"/>
<path d="M269.842 383.192C258.132 383.192 250.572 380.762 247.382 375.952C242.302 368.332 247.952 361.582 253.382 355.062C259.462 347.782 265.752 340.262 261.672 329.752C259.672 325.592 254.802 320.222 249.182 314.012C237.322 300.912 221.082 282.962 214.362 258.242C204.972 223.702 207.972 202.892 223.522 194.622C236.712 187.622 240.002 183.722 239.522 175.802V175.522C238.942 166.352 238.402 157.682 235.122 153.782C234.682 153.252 233.932 152.702 231.802 152.702C230.618 152.733 229.436 152.83 228.262 152.992C226.976 153.166 225.68 153.266 224.382 153.292C222.468 153.408 220.578 152.825 219.062 151.652C214.722 147.952 211.272 137.102 209.612 130.952C209.525 130.614 209.51 130.262 209.567 129.917C209.624 129.573 209.751 129.244 209.942 128.952C210.702 127.802 210.772 127.712 221.942 126.312C231.022 125.172 244.942 123.582 258.342 122.052C275.782 120.052 295.512 117.792 298.072 117.242C298.387 117.102 298.727 117.027 299.072 117.022C299.592 117.026 300.1 117.18 300.535 117.465C300.969 117.751 301.312 118.156 301.522 118.632C302.652 120.782 305.962 134.632 301.522 141.142C300.102 143.362 296.792 144.052 292.972 144.852C287.242 146.042 282.812 147.232 282.142 150.772C282.091 151.029 282.061 151.29 282.052 151.552C282.472 154.172 282.752 156.692 283.052 159.132L283.222 160.582C284.532 172.212 285.852 178.872 297.812 180.582C300.066 180.919 302.278 181.492 304.412 182.292C309.114 184.085 313.36 186.899 316.842 190.532C324.342 198.232 332.842 213.472 330.772 242.352C328.842 269.112 317.192 292.802 310.232 306.952C307.392 312.722 304.942 317.702 304.682 319.872C304.172 324.052 303.432 338.462 315.392 348.642C322.602 354.782 328.072 359.912 327.502 365.262C327.182 368.262 324.972 370.872 320.762 373.142C316.032 375.692 304.062 379.012 292.292 381.042C284.881 382.38 277.372 383.099 269.842 383.192Z" fill="#E2EAED"/>
<path d="M299.102 119.472C299.882 119.472 303.392 133.972 299.472 139.672C297.092 143.362 281.352 141.442 279.682 150.252C279.598 150.718 279.551 151.189 279.542 151.662C280.062 154.822 280.372 157.902 280.702 160.812C281.982 172.132 283.442 181.002 297.422 183.052C299.499 183.354 301.538 183.881 303.502 184.622C307.857 186.289 311.791 188.898 315.022 192.262C324.092 201.582 330.022 217.922 328.242 242.162C325.522 280.082 303.242 311.102 302.162 319.562C301.082 328.022 302.772 341.192 313.742 350.562C324.712 359.932 329.582 365.562 319.542 370.952C315.392 373.192 304.172 376.462 291.832 378.592C284.589 379.9 277.251 380.609 269.892 380.712C260.382 380.712 252.492 379.072 249.512 374.592C240.742 361.402 272.742 350.892 264.052 328.772C257.622 315.292 226.702 293.852 216.852 257.602C207.002 221.352 211.662 203.822 224.782 196.842C237.902 189.862 242.692 185.402 242.072 175.662C241.452 165.922 240.922 156.772 237.072 152.192C235.772 150.642 233.892 150.192 231.832 150.192C229.392 150.192 226.692 150.782 224.412 150.782C223.099 150.902 221.786 150.547 220.712 149.782C217.052 146.672 213.712 136.382 212.052 130.342C212.002 130.142 215.982 129.572 222.262 128.782C245.142 125.912 298.532 120.192 299.032 119.542C299.051 119.535 299.073 119.535 299.092 119.542M299.092 114.542C298.491 114.542 297.894 114.65 297.332 114.862C293.962 115.482 274.942 117.652 258.092 119.582C244.642 121.122 230.742 122.712 221.652 123.852C218.372 124.262 215.932 124.592 214.182 124.852C210.992 125.322 209.232 125.582 207.902 127.572C207.501 128.171 207.235 128.849 207.121 129.56C207.007 130.271 207.049 130.998 207.242 131.692C209.362 139.522 212.872 149.692 217.482 153.622C219.441 155.196 221.912 155.993 224.422 155.862C225.817 155.838 227.21 155.731 228.592 155.542C229.67 155.392 230.755 155.302 231.842 155.272C232.321 155.217 232.805 155.282 233.252 155.462C235.992 158.732 236.542 167.382 237.062 175.742V176.032C237.472 182.412 235.502 185.512 222.412 192.482C214.092 196.912 208.992 204.652 207.252 215.482C205.512 226.312 207.042 240.672 212.012 258.942C218.882 284.242 235.362 302.452 247.392 315.742C252.842 321.742 257.552 326.972 259.442 330.802C262.672 339.242 258.442 345.282 251.522 353.502C246.042 360.052 239.222 368.202 245.332 377.392C249.072 383.012 257.092 385.742 269.872 385.742C277.503 385.64 285.112 384.908 292.622 383.552C304.822 381.452 316.842 378.092 321.862 375.382C323.692 374.382 329.282 371.382 329.862 365.562C330.552 358.992 324.662 353.402 316.862 346.782C305.862 337.412 306.542 324.082 307.012 320.222C307.222 318.462 309.812 313.222 312.322 308.102C319.322 293.782 331.152 269.822 333.112 242.572C334.292 226.122 332.722 203.442 318.482 188.822C314.74 184.931 310.185 181.916 305.142 179.992C302.868 179.12 300.508 178.489 298.102 178.112C288.342 176.682 286.992 172.332 285.632 160.262L285.472 158.842C285.202 156.452 284.932 153.982 284.522 151.412C284.522 151.322 284.522 151.242 284.522 151.162C284.892 149.162 288.762 148.222 293.402 147.252C297.562 146.392 301.492 145.572 303.542 142.462C308.632 134.982 305.152 120.212 303.692 117.462C303.27 116.576 302.61 115.826 301.785 115.296C300.96 114.766 300.002 114.477 299.022 114.462L299.092 114.542Z" fill="#001477"/>
<path d="M291.782 378.572C274.322 381.572 254.602 382.302 249.462 374.572C240.692 361.382 272.692 350.872 264.002 328.752C257.572 315.272 226.652 293.832 216.802 257.582C206.952 221.332 211.612 203.802 224.732 196.822C237.852 189.842 242.642 185.382 242.022 175.642C241.402 165.902 240.872 156.752 237.022 152.172C233.172 147.592 224.322 152.862 220.662 149.742C217.002 146.622 213.662 136.342 212.002 130.302C211.952 130.102 215.932 129.532 222.212 128.742C222.212 131.742 223.712 137.912 235.212 141.192C250.842 145.662 256.542 155.132 256.752 178.102C256.962 201.072 235.252 199.242 231.752 223.042C228.252 246.842 231.852 269.402 250.682 290.432C269.512 311.462 294.602 334.372 285.152 351.002C275.702 367.632 268.972 374.352 291.752 378.572H291.782Z" fill="#BCC6C9"/>
<path d="M282.152 267.802C275.152 255.712 257.972 254.802 257.972 254.802L221.372 277.342C221.372 277.342 192.792 295.642 167.312 306.782C159.065 310.35 150.378 312.798 141.482 314.062C139.172 324.502 137.392 342.702 150.042 351.172C168.312 363.412 200.582 361.862 200.682 361.862C211.412 358.862 218.352 356.942 218.352 356.942C251.402 344.162 274.032 312.742 280.352 303.242C286.672 293.742 289.102 279.892 282.152 267.802Z" fill="#FAA327"/>
<path d="M286.352 282.832C286.912 304.362 256.812 332.232 256.812 332.232C256.162 332.142 255.522 332.052 254.882 331.932C246.692 330.467 239.038 326.854 232.702 321.462C215.772 307.402 209.572 285.112 209.572 285.112C209.572 285.112 253.962 255.042 258.362 255.042C268.102 254.782 285.782 261.302 286.352 282.832Z" fill="white"/>
<path d="M337.832 279.482C336.642 250.192 327.242 242.482 317.262 238.482C313.888 237.293 310.266 236.983 306.739 237.581C303.212 238.18 299.895 239.667 297.102 241.902C292.892 245.432 288.452 252.442 291.222 265.802C296.462 291.152 315.672 292.992 316.492 293.062C312.749 292.577 309.162 291.262 305.992 289.212C303.312 286.592 296.932 277.212 295.992 267.302C295.052 257.392 331.442 264.542 331.562 281.302C331.562 286.552 329.842 292.022 327.072 297.222C329.722 297.702 332.432 298.092 335.072 298.332C337.195 292.285 338.132 285.885 337.832 279.482Z" fill="white"/>
<g opacity="0.25">
<path d="M280.002 305.892C279.262 307.152 278.492 308.395 277.692 309.622C278.492 308.389 279.262 307.145 280.002 305.892Z" fill="#001477"/>
</g>
<path d="M317.452 295.182C320.362 295.902 323.672 296.652 327.092 297.272C329.862 292.072 331.612 286.602 331.582 281.352C331.462 264.542 295.092 257.402 296.012 267.352C296.932 277.302 303.302 286.642 306.012 289.262C309.182 291.311 312.769 292.627 316.512 293.112C316.866 293.14 317.194 293.307 317.425 293.577C317.656 293.847 317.77 294.198 317.742 294.552C317.701 294.783 317.601 295 317.452 295.182Z" fill="white"/>
<g opacity="0.25">
<path d="M317.452 295.182C320.362 295.902 323.672 296.652 327.092 297.272C329.862 292.072 331.612 286.602 331.582 281.352C331.462 264.542 295.092 257.402 296.012 267.352C296.932 277.302 303.302 286.642 306.012 289.262C309.182 291.311 312.769 292.627 316.512 293.112C316.866 293.14 317.194 293.307 317.425 293.577C317.656 293.847 317.77 294.198 317.742 294.552C317.701 294.783 317.601 295 317.452 295.182Z" fill="#001477"/>
</g>
<path d="M254.882 331.932C228.682 355.022 193.172 365.932 165.762 356.672C165.539 356.602 165.301 356.59 165.072 356.638C164.843 356.685 164.63 356.79 164.452 356.942C155.542 353.402 153.772 348.692 152.382 347.192C150.312 344.952 184.912 353.412 231.382 322.332L232.662 321.462C239.01 326.86 246.678 330.473 254.882 331.932Z" fill="#EF7F25"/>
<g opacity="0.25">
<path d="M277.692 304.532C276.832 305.992 275.942 307.412 275.022 308.822C269.38 317.379 262.612 325.139 254.902 331.892C246.712 330.427 239.059 326.814 232.722 321.422C277.222 291.132 275.112 262.662 275.032 261.802C276.867 263.16 278.517 264.75 279.942 266.532C285.192 273.202 289.102 285.172 277.692 304.532Z" fill="#001477"/>
</g>
<g opacity="0.4">
<path d="M189.002 305.752C221.462 294.532 258.242 261.892 261.472 260.512C263.392 259.682 267.372 259.192 270.262 258.922C265.342 256.482 260.632 255.712 258.752 256.302C255.922 257.182 249.542 261.302 240.752 267.102C227.902 275.472 208.492 288.102 184.872 300.422C162.782 311.912 144.522 315.422 132.442 316.252C132.442 316.252 156.532 316.982 189.002 305.752Z" fill="white"/>
</g>
<g opacity="0.4">
<path d="M312.012 242.552C322.852 242.072 332.882 257.812 335.932 263.072C332.472 246.982 325.042 241.612 317.262 238.512C313.891 237.319 310.271 237.004 306.743 237.597C303.216 238.19 299.898 239.671 297.102 241.902C293.252 245.122 289.242 251.272 290.672 262.482C292.932 257.842 301.042 243.032 312.012 242.552Z" fill="white"/>
</g>
<path d="M333.602 307.882C333.132 307.879 332.671 307.757 332.262 307.526C331.853 307.295 331.509 306.964 331.264 306.563C331.019 306.163 330.88 305.706 330.86 305.237C330.841 304.768 330.941 304.301 331.152 303.882C335.005 296.383 336.819 288.003 336.412 279.582C335.252 251.102 326.272 243.672 316.732 239.882C313.6 238.771 310.236 238.477 306.958 239.028C303.681 239.579 300.598 240.957 298.002 243.032C292.392 247.742 290.532 255.522 292.602 265.552C297.652 289.942 316.402 291.662 316.602 291.682C316.964 291.71 317.317 291.809 317.64 291.974C317.963 292.138 318.251 292.365 318.487 292.641C318.723 292.917 318.902 293.236 319.014 293.581C319.127 293.926 319.17 294.29 319.142 294.652C319.114 295.014 319.014 295.366 318.85 295.69C318.685 296.013 318.459 296.301 318.183 296.537C317.907 296.773 317.588 296.952 317.243 297.064C316.897 297.177 316.533 297.22 316.172 297.192C315.942 297.192 293.082 295.092 287.172 266.672C284.692 254.672 287.272 244.802 294.432 238.802C297.793 236.084 301.799 234.281 306.062 233.57C310.326 232.858 314.701 233.262 318.762 234.742C333.962 240.742 340.882 254.132 341.912 279.362C342.364 288.741 340.34 298.073 336.042 306.422C335.804 306.862 335.452 307.23 335.023 307.487C334.593 307.744 334.102 307.881 333.602 307.882Z" fill="#001477"/>
<path d="M187.102 364.172C179.399 364.215 171.741 362.996 164.432 360.562C163.739 360.326 163.167 359.824 162.844 359.167C162.52 358.509 162.471 357.751 162.707 357.057C162.943 356.363 163.445 355.792 164.102 355.469C164.759 355.145 165.519 355.096 166.212 355.332C202.332 367.582 252.822 343.992 276.452 303.812C285.142 289.042 285.952 276.472 278.802 267.452C272.262 259.222 261.532 256.922 259.172 257.662C256.522 258.492 249.882 262.812 241.482 268.292C228.612 276.682 209.162 289.362 185.482 301.682C167.422 311.072 148.242 316.902 132.852 317.682C132.12 317.719 131.403 317.464 130.86 316.973C130.316 316.481 129.989 315.794 129.952 315.062C129.915 314.33 130.17 313.613 130.662 313.069C131.153 312.525 131.84 312.199 132.572 312.162C139.492 311.822 158.252 309.622 182.932 296.792C206.372 284.592 225.682 272.002 238.462 263.672C248.242 257.302 254.142 253.452 257.522 252.392C262.742 250.762 275.622 254.572 283.132 264.032C289.192 271.672 293.782 285.262 281.222 306.632C269.682 326.232 250.802 343.412 229.412 353.762C215.152 360.662 200.692 364.172 187.102 364.172Z" fill="#001477"/>
</svg>
