<svg width="446" height="513" viewBox="0 0 446 513" fill="none" xmlns="http://www.w3.org/2000/svg">
<g opacity="0.2">
<path d="M304.594 512.423C380.033 512.423 441.189 502.576 441.189 490.428C441.189 478.28 380.033 468.432 304.594 468.432C229.155 468.432 168 478.28 168 490.428C168 502.576 229.155 512.423 304.594 512.423Z" fill="#001477"/>
</g>
<path d="M440.633 261.597C437.122 270.772 431.005 278.719 423.035 284.461C417.099 288.858 410.896 292.881 404.46 296.507C395.232 301.724 385.467 305.928 375.336 309.045C372.407 309.941 369.452 310.747 366.46 311.427C365.421 311.678 364.365 311.902 363.308 312.126C367.651 354.595 358.158 389.343 339.978 400.923C321.798 412.503 326.947 436.155 326.947 436.155C337.891 457.39 331.139 471.701 321.484 481.687C311.83 491.673 276.598 505.33 265.34 488.108C263.394 485.284 262.119 482.052 261.614 478.66C260.047 466.865 270.884 459.557 270.884 459.557C261.48 438.565 246.999 428.436 246.999 428.436C246.282 428.839 245.556 429.215 244.831 429.564C227.134 437.956 205.228 428.104 191.768 413.3C177.608 397.735 172.746 376.725 191.813 365.691C177.089 325.157 184.809 282.5 207.27 238.455L364.687 248.181C370.768 246.865 377.225 245.154 383.557 243.336C397.976 239.172 411.49 234.38 417.285 232.303C420.143 231.224 423.186 230.715 426.24 230.807C432.859 231.067 437.749 233.861 440.57 238.455C443.866 244.017 444.117 252.167 440.633 261.597Z" fill="#FAA327"/>
<g opacity="0.7">
<path d="M233.548 371.826C254.737 348.845 277.64 345.23 302.257 360.98C302.257 360.98 285.509 340.525 264.203 347.851C242.897 355.177 232.141 359.709 229.016 366.802" fill="white"/>
</g>
<g opacity="0.7">
<path d="M233.547 432.564C198.673 435.305 158.318 385.098 191.804 365.709C177.08 325.175 184.801 282.518 207.262 238.473L212.635 238.805C190.299 282.688 182.66 325.273 197.348 365.709C165.617 384.068 200.169 430.092 233.547 432.564Z" fill="white"/>
</g>
<g opacity="0.7">
<path d="M428.239 230.986C426.39 231.22 424.573 231.659 422.821 232.293C417.035 234.398 403.521 239.163 389.102 243.327C382.833 245.118 376.313 246.856 370.232 248.172L365.888 247.904C371.611 246.632 377.656 245.029 383.549 243.327C397.968 239.163 411.483 234.371 417.277 232.293C420.136 231.214 423.178 230.706 426.233 230.798C426.896 230.852 427.585 230.905 428.239 230.986Z" fill="white"/>
</g>
<g opacity="0.7">
<path d="M365.888 247.931L364.679 248.199L212.644 238.805C212.698 238.697 212.752 238.581 212.814 238.473L365.888 247.931Z" fill="white"/>
</g>
<path d="M307.782 274.073C293.775 283.924 287.954 298.737 292.898 320.025C292.898 320.025 316.067 331.471 316.506 331.668C316.944 331.865 349.463 344.027 351.711 323.115C353.959 302.203 351.711 298.182 351.711 298.182C351.711 298.182 335.447 278.3 307.782 274.073Z" fill="#FFF3E9"/>
<path d="M228.147 367.831C251.611 376.25 262.134 393.382 257.397 420.787C257.397 420.787 247.5 427.558 241.939 430.782C236.377 434.006 214.534 435.179 197.384 418.781C180.233 402.383 178.657 388.752 179.669 381.498C180.681 374.244 186.932 362.753 201.584 364.07C216.236 365.387 225.765 371.181 225.765 371.181L228.147 367.831Z" fill="#FFF3E9"/>
<path d="M267.866 451.013C267.866 451.013 288.617 428.812 326.133 436.773C326.133 436.773 337.954 457.22 329.088 471.253C320.222 485.287 292.593 503.011 275.219 495.774C257.844 488.538 257.844 468.504 270.875 458.16L267.866 451.013Z" fill="#FFF3E9"/>
<path d="M440.634 261.597C437.123 270.772 431.006 278.719 423.036 284.461C417.1 288.858 410.897 292.881 404.461 296.507L402.16 295.737C381.176 288.716 381.176 246.354 381.176 246.354C381.176 246.354 382.071 245.172 383.567 243.354C397.986 239.19 411.5 234.398 417.295 232.321C420.154 231.241 423.196 230.733 426.251 230.825C440.786 231.398 447.01 244.339 440.634 261.597Z" fill="#FFF3E9"/>
<path d="M242.064 310.281C242.064 310.281 230.466 337.148 240.273 356.851C263.612 343.704 284.398 341.51 300.599 358.911C315.519 359.645 327.404 353.538 333.879 335.304C311.194 335.286 273.991 308.23 242.064 310.281Z" fill="#FFF3E9"/>
<path d="M333.862 269.308C333.862 269.308 334.82 272.81 334.945 283.19L312.986 274.072L333.862 269.308Z" fill="white"/>
<path d="M418.19 384.05C410.864 414.742 354.478 423.94 340.749 400.431C346.946 396.266 351.621 389.397 355.463 381.023C357.95 381.832 360.617 381.907 363.145 381.24C365.674 380.573 367.957 379.192 369.721 377.262C371.962 374.994 373.378 372.04 373.742 368.872C374.105 365.704 373.396 362.506 371.727 359.789C369.55 356.523 366.483 353.949 362.888 352.373C364.268 340.782 364.487 329.081 363.542 317.446C374.154 316.255 383.415 317.114 391.233 319.685C403.771 323.795 412.539 332.294 417.097 343.821C421.477 354.863 421.969 368.664 418.19 384.05Z" fill="#FAA327"/>
<path d="M206.644 99.0578C206.644 99.0578 225.37 38.3103 264.346 5.49613C266.59 3.62343 269.475 2.69692 272.39 2.91253C275.304 3.12813 278.021 4.46896 279.965 6.65144C287.005 14.4788 296.417 30.6352 299.596 62.509" fill="#FAA327"/>
<g opacity="0.3">
<path d="M299.596 62.5089L206.644 99.0577C206.644 99.0577 206.993 97.9562 207.674 95.9321L292.674 62.5089C289.494 30.6351 280.091 14.4788 273.051 6.65138C271.705 5.1515 269.983 4.03842 268.063 3.42728C270.145 2.75621 272.376 2.70363 274.487 3.27592C276.598 3.8482 278.498 5.02077 279.956 6.65138C286.995 14.4788 296.417 30.6351 299.596 62.5089Z" fill="#001477"/>
</g>
<g opacity="0.7">
<path d="M280.87 7.65436C278.855 6.37722 276.486 5.77551 274.106 5.93655C271.725 6.0976 269.459 7.01302 267.634 8.54995C235.393 35.722 216.97 82.0416 211.597 97.2128L206.689 99.1383C206.689 99.1383 225.416 38.3908 264.401 5.57662C266.641 3.70285 269.523 2.77546 272.435 2.99114C275.348 3.20682 278.062 4.54861 280.002 6.73191C280.252 6.97372 280.539 7.30509 280.87 7.65436Z" fill="white"/>
</g>
<path d="M347.501 81.2712C347.501 81.2712 383.988 62.464 422.874 68.9659C425.52 69.3929 427.911 70.7936 429.578 72.8929C431.245 74.9922 432.067 77.6387 431.884 80.3129C428.901 116.733 412.753 150.818 386.459 176.194" fill="#FAA327"/>
<g opacity="0.3">
<path d="M431.884 80.3038C428.902 116.728 412.754 150.82 386.46 176.203L347.511 81.271C347.511 81.271 348.568 80.7247 350.529 79.856L383.236 159.563C407.656 135.984 423.389 104.843 427.881 71.1957C429.239 72.2732 430.314 73.6662 431.012 75.2535C431.71 76.8408 432.009 78.5744 431.884 80.3038Z" fill="#001477"/>
</g>
<g opacity="0.7">
<path d="M431.786 77.8771C430.966 76.6068 429.888 75.5225 428.623 74.6941C427.359 73.8657 425.934 73.3117 424.442 73.0678C386.693 66.7987 351.21 84.2984 349.168 85.3283L347.511 81.2713C347.511 81.2713 383.988 62.4641 422.884 68.966C425.116 69.3258 427.179 70.3808 428.777 71.9807C430.375 73.5806 431.428 75.644 431.786 77.8771Z" fill="white"/>
</g>
<path d="M233.95 77.8503C233.95 77.8503 246.829 40.1104 268.063 21.7778C268.063 21.7778 279.939 32.1397 278.667 62.509" fill="#FFF3E9"/>
<path d="M360.882 93.0574C360.882 93.0574 384.723 80.1341 414.08 82.8567C414.662 82.9125 415.226 83.0903 415.735 83.3785C416.243 83.6667 416.686 84.0589 417.033 84.5295C417.381 85.0001 417.625 85.5386 417.75 86.1098C417.875 86.6811 417.879 87.2723 417.761 87.8451C415.405 99.5593 407.175 131.639 385.009 151.351" fill="#FFF3E9"/>
<path d="M386.46 185.213C385.68 203.572 381.892 219.128 375.587 231.783C353.359 276.562 299.856 285.205 237.497 254.719C174.179 224.735 150.912 194.392 165.85 155.202C169.227 146.353 174.547 137.057 181.792 127.215C187.196 119.957 192.999 113.005 199.175 106.392C226.436 78.3785 254.137 62.1684 288.895 61.9804C308.188 61.9486 327.06 67.6193 343.14 78.28C379.08 101.914 386.997 135.929 386.46 185.213Z" fill="#FAA327"/>
<g opacity="0.7">
<path d="M373.689 111.202C367.222 100.84 358.365 91.8033 346.4 83.9132C330.32 73.2525 311.448 67.5818 292.155 67.6136C257.397 67.8106 229.696 84.0118 202.435 112.035C196.253 118.654 190.446 125.615 185.043 132.884C177.797 142.735 172.505 152.022 169.101 160.862C162.976 176.884 163.244 191.419 169.997 205.059C160.199 189.834 158.873 173.472 165.85 155.22C169.226 146.371 174.546 137.075 181.792 127.233C187.196 119.975 192.999 113.023 199.175 106.41C226.436 78.3964 254.137 62.1864 288.895 61.9983C308.188 61.9665 327.06 67.6372 343.14 78.2979C357.263 87.5583 367.052 98.4307 373.689 111.202Z" fill="white"/>
</g>
<path d="M375.587 231.774C353.359 276.553 299.856 285.196 237.497 254.71C174.179 224.726 150.912 194.384 165.85 155.193C169.253 154.736 182.105 148.539 186.118 159.554C191.196 173.427 205.194 177.896 218.359 172.46C231.524 167.023 244.528 165.913 258.364 170.74C272.201 175.567 286.244 184.828 292.235 200.662C298.227 216.496 305.982 223.347 318.207 221.17C330.432 218.994 364.715 215.125 375.587 231.774Z" fill="#FFF3E9"/>
<g opacity="0.3">
<path d="M386.459 185.213C385.68 203.572 381.892 219.128 375.587 231.783C353.358 276.562 299.856 285.205 237.497 254.719C206.689 240.13 185.356 225.451 173.302 209.716C185.714 219.979 202.918 229.884 224.977 239.754C287.327 268.52 340.829 260.352 363.058 218.098C369.327 206.16 373.151 191.482 373.93 174.152C374.468 127.636 366.551 95.5288 330.647 73.2019C326.171 70.4199 321.485 67.9915 316.631 65.9387C326.038 68.7123 334.983 72.862 343.176 78.253C379.08 101.914 386.997 135.929 386.459 185.213Z" fill="#001477"/>
</g>
<path d="M305.946 275.586C284.712 275.586 260.943 269.389 236.234 257.316C170.39 226.123 147.848 194.303 163.19 154.154C166.665 145.064 172.002 135.687 179.507 125.495C184.973 118.152 190.846 111.119 197.097 104.431C227.439 73.2378 255.74 59.2667 288.921 59.0786C308.789 59.034 328.225 64.874 344.778 75.8619C362.448 87.5045 374.333 102.317 381.211 121.152C387.148 137.505 389.665 157.279 389.369 185.257C389.374 185.287 389.374 185.317 389.369 185.347C388.59 203.698 384.829 219.755 378.193 233.082C366.872 255.865 347.465 270.132 322.075 274.279C316.744 275.156 311.349 275.594 305.946 275.586ZM289.458 64.8641H288.93C257.432 65.0432 230.403 78.468 201.279 108.407C195.19 114.922 189.47 121.772 184.146 128.925C177.044 138.553 171.805 147.732 168.572 156.223C161.452 174.851 163.449 191.356 174.653 206.698C185.973 222.191 206.894 237.04 238.723 252.095C268.842 266.818 297.321 272.523 321.117 268.592C344.59 264.723 362.529 251.575 372.989 230.493C379.258 217.955 382.841 202.65 383.566 185.141C384.068 138.051 377.216 104.162 341.581 80.6891C326.132 70.4147 308.003 64.9113 289.449 64.8641H289.458Z" fill="#001477"/>
<path d="M206.644 101.959C206.355 101.958 206.068 101.913 205.793 101.825C205.067 101.6 204.459 101.097 204.1 100.427C203.741 99.7566 203.661 98.9719 203.876 98.2427C204.655 95.7262 223.302 36.2952 262.483 3.31085C265.297 0.943035 268.924 -0.231481 272.592 0.0378983C276.26 0.307277 279.677 1.99921 282.115 4.75272C289.62 13.0996 299.238 29.8291 302.471 62.2582C302.51 62.6363 302.473 63.0183 302.364 63.3824C302.254 63.7464 302.074 64.0853 301.834 64.3797C301.594 64.6742 301.298 64.9183 300.963 65.0983C300.628 65.2783 300.261 65.3905 299.883 65.4285C299.504 65.4669 299.121 65.4301 298.757 65.3202C298.392 65.2103 298.053 65.0295 297.758 64.7882C297.464 64.547 297.22 64.2499 297.04 63.9141C296.861 63.5783 296.749 63.2103 296.712 62.8314C293.632 31.9874 284.73 16.3326 277.807 8.62165C276.374 6.98934 274.36 5.98192 272.194 5.81458C270.029 5.64724 267.884 6.33325 266.218 7.72607C228.353 39.5999 209.599 99.3354 209.411 99.9712C209.218 100.552 208.847 101.057 208.35 101.414C207.853 101.771 207.256 101.962 206.644 101.959Z" fill="#001477"/>
<path d="M233.95 80.2682C233.685 80.2673 233.422 80.2219 233.172 80.1338C232.871 80.0319 232.594 79.8718 232.356 79.6626C232.118 79.4534 231.923 79.1992 231.783 78.9147C231.643 78.6302 231.561 78.3208 231.541 78.0044C231.521 77.688 231.564 77.3708 231.667 77.0709C232.204 75.5037 245.002 38.4981 266.487 19.9506C266.925 19.5676 267.486 19.3566 268.068 19.3566C268.649 19.3566 269.211 19.5676 269.649 19.9506C270.168 20.3984 282.384 31.432 281.076 62.5983C281.066 62.9155 280.993 63.2275 280.861 63.5161C280.728 63.8046 280.54 64.064 280.306 64.2791C280.073 64.4942 279.799 64.6606 279.501 64.7688C279.203 64.8769 278.886 64.9245 278.569 64.9089C278.252 64.8962 277.941 64.8213 277.654 64.6883C277.366 64.5554 277.108 64.3671 276.893 64.1342C276.679 63.9013 276.512 63.6283 276.403 63.331C276.294 63.0336 276.245 62.7177 276.258 62.4013C277.154 39.9042 270.804 28.9602 267.884 25.1718C248.405 43.4059 236.36 78.2621 236.234 78.6203C236.073 79.0991 235.767 79.5155 235.357 79.811C234.948 80.1065 234.455 80.2664 233.95 80.2682Z" fill="#001477"/>
<path d="M386.459 179.096C386.07 179.095 385.685 179.016 385.328 178.862C384.971 178.708 384.649 178.483 384.381 178.2C384.116 177.928 383.908 177.605 383.768 177.252C383.628 176.899 383.559 176.521 383.564 176.141C383.57 175.761 383.651 175.386 383.802 175.037C383.953 174.688 384.171 174.372 384.444 174.107C410.169 149.175 425.994 115.77 428.99 80.0712C429.135 78.1155 428.536 76.1773 427.314 74.6434C426.092 73.1095 424.337 72.0927 422.399 71.796C384.954 65.5806 349.185 83.6356 348.826 83.8237C348.489 83.9985 348.12 84.1048 347.741 84.1363C347.361 84.1679 346.98 84.1242 346.618 84.0076C346.255 83.8911 345.92 83.704 345.631 83.4573C345.341 83.2105 345.103 82.9089 344.93 82.5699C344.579 81.8881 344.513 81.0948 344.746 80.3642C344.98 79.6337 345.494 79.0258 346.175 78.6741C347.707 77.8859 383.969 59.5444 423.348 66.0822C426.714 66.6124 429.758 68.39 431.873 71.0615C433.989 73.733 435.022 77.1028 434.767 80.5011C431.647 117.607 415.203 152.329 388.474 178.254C387.939 178.788 387.215 179.09 386.459 179.096Z" fill="#001477"/>
<path d="M385.009 153.769C384.669 153.767 384.335 153.694 384.026 153.553C383.717 153.413 383.441 153.209 383.217 152.954C383.007 152.717 382.845 152.442 382.741 152.143C382.637 151.844 382.593 151.527 382.611 151.211C382.629 150.895 382.71 150.586 382.847 150.301C382.985 150.016 383.178 149.761 383.415 149.551C404.819 130.519 412.915 99.7203 415.405 87.3702C415.454 87.1235 415.451 86.8692 415.395 86.6239C415.34 86.3785 415.233 86.1476 415.082 85.9462C414.94 85.7511 414.758 85.5886 414.548 85.4696C414.338 85.3507 414.105 85.2781 413.865 85.2566C385.564 82.6326 362.27 95.0543 362.037 95.1797C361.758 95.3307 361.453 95.4252 361.137 95.4578C360.822 95.4904 360.504 95.4606 360.2 95.3699C359.896 95.2792 359.614 95.1295 359.368 94.9293C359.122 94.7292 358.918 94.4825 358.768 94.2035C358.465 93.6413 358.397 92.9821 358.578 92.3696C358.759 91.7572 359.175 91.2413 359.735 90.9346C360.739 90.3973 384.561 77.6979 414.312 80.4473C415.225 80.5355 416.11 80.8137 416.909 81.2641C417.708 81.7144 418.404 82.327 418.952 83.0624C419.505 83.8073 419.896 84.6601 420.1 85.5656C420.304 86.4711 420.315 87.4093 420.134 88.3195C417.554 101.153 409.109 133.161 386.621 153.151C386.179 153.55 385.604 153.771 385.009 153.769Z" fill="#001477"/>
<path d="M325.775 191.554C318.807 184.138 310.783 182.651 301.236 181.299C300.606 181.34 299.98 181.17 299.458 180.814C298.936 180.459 298.548 179.939 298.356 179.338C298.163 178.737 298.177 178.088 298.395 177.496C298.614 176.904 299.024 176.401 299.561 176.069C305.562 170.812 314.312 167.937 322.282 170.095C330.199 172.048 335.76 179.186 337.355 186.726C328.255 172.46 316.514 172.442 303 180.735L301.325 175.505C306.645 174.949 311.965 176.759 316.38 179.633C320.787 182.41 324.105 186.619 325.775 191.554Z" fill="#001477"/>
<path d="M323.366 148.718C329.655 148.977 335.864 150.219 341.77 152.399C344.394 153.357 345.666 152.819 345.567 150.813C345.491 149.678 345.093 148.588 344.421 147.67C340.158 141.661 335.581 136.726 329.733 136.117C327.473 135.923 325.204 136.38 323.195 137.433C313.218 142.431 316.281 149.004 323.366 148.718Z" fill="white"/>
<path d="M227.529 100.392C232.473 94.1229 250.609 92.6094 250.376 106.5C250.372 107.149 250.206 107.787 249.891 108.355C249.576 108.922 249.124 109.402 248.575 109.749C248.026 110.096 247.399 110.299 246.752 110.34C246.104 110.381 245.456 110.259 244.868 109.984C239.664 107.459 234.242 105.415 228.667 103.876C228.315 103.782 227.992 103.602 227.728 103.351C227.463 103.101 227.265 102.789 227.152 102.443C227.039 102.096 227.015 101.728 227.081 101.369C227.146 101.011 227.301 100.675 227.529 100.392Z" fill="white"/>
<path d="M250.5 213.119C247.619 213.162 244.804 212.252 242.494 210.531C236.44 205.856 236.126 194.151 236.7 192.458C236.868 191.972 237.181 191.549 237.598 191.246C238.014 190.943 238.513 190.776 239.028 190.766V195.575C239.558 195.581 240.074 195.408 240.492 195.082C240.91 194.757 241.206 194.299 241.33 193.784C241.151 195.037 241.634 203.778 245.449 206.734C246.648 207.549 248.022 208.07 249.46 208.253C250.898 208.437 252.359 208.278 253.724 207.791C254.996 207.419 256.156 206.741 257.103 205.814C258.049 204.888 258.753 203.743 259.152 202.48L263.782 203.814C263.175 205.839 262.075 207.681 260.581 209.175C259.086 210.669 257.244 211.769 255.22 212.376C253.696 212.872 252.103 213.123 250.5 213.119Z" fill="#001477"/>
<path d="M261.472 203.124C259.296 210.665 249.283 212.725 243.972 208.623C238.662 204.521 238.662 193.183 239.029 193.183H249.319C249.319 193.183 254.316 198.754 254.03 199.264C253.743 199.775 261.472 203.124 261.472 203.124Z" fill="#001477"/>
<path d="M268.959 176.767C266.272 171.743 255.319 166.746 249.256 168.035C248.771 168.146 248.334 168.411 248.011 168.79C247.689 169.17 247.497 169.643 247.465 170.14C247.304 172.361 247.725 176.651 252.059 181.156C252.889 182.026 253.884 182.72 254.988 183.197C256.091 183.674 257.279 183.924 258.481 183.932C262.029 184.042 265.494 182.844 268.216 180.565C268.747 180.106 269.108 179.483 269.243 178.794C269.378 178.106 269.278 177.392 268.959 176.767Z" fill="#001477"/>
<path d="M235.438 178.979C233.602 182.741 232.581 187.416 237.229 189.386C240.811 190.819 245.576 191.41 249.275 190.004C249.59 189.851 249.935 189.771 250.286 189.77C250.636 189.768 250.982 189.846 251.299 189.996C251.615 190.147 251.894 190.366 252.114 190.639C252.334 190.912 252.49 191.23 252.57 191.571C253.339 193.779 254.492 195.835 255.974 197.643C258.875 201.226 264.311 202.462 268.297 199.838C269.342 199.136 270.233 198.228 270.915 197.17C271.597 196.112 272.056 194.926 272.264 193.685C272.293 193.573 272.36 193.474 272.454 193.407C272.548 193.339 272.662 193.307 272.778 193.316C272.893 193.324 273.002 193.373 273.085 193.454C273.168 193.534 273.22 193.642 273.232 193.757C273.724 200.366 267.616 205.569 261.159 205.05C254.559 204.781 249.068 199.193 247.922 192.861C247.922 192.861 251.245 194.419 251.218 194.419C245.943 196.56 239.862 196.47 234.945 193.219C229.026 189.306 230.055 182.687 234.658 178.415C234.742 178.341 234.849 178.297 234.961 178.291C235.073 178.286 235.184 178.319 235.275 178.384C235.365 178.45 235.431 178.545 235.461 178.653C235.491 178.761 235.482 178.877 235.438 178.979Z" fill="#001477"/>
<path d="M250.25 194.625C250.011 194.627 249.772 194.594 249.542 194.527C248.932 194.339 248.421 193.917 248.12 193.353C247.82 192.789 247.755 192.129 247.939 191.518C249.507 186.341 251.208 182.786 253.313 180.332C253.518 180.09 253.769 179.892 254.052 179.747C254.334 179.603 254.643 179.516 254.959 179.491C255.275 179.466 255.593 179.504 255.895 179.602C256.196 179.7 256.475 179.857 256.716 180.063C257.203 180.478 257.506 181.07 257.558 181.707C257.61 182.345 257.407 182.978 256.994 183.466C255.373 185.365 253.922 188.455 252.569 192.915C252.419 193.412 252.111 193.847 251.693 194.155C251.275 194.464 250.769 194.628 250.25 194.625Z" fill="#001477"/>
<path d="M256.241 209.591C255.237 213.446 254.909 217.446 255.274 221.412C255.999 227.207 250.796 231.264 244.017 229.294C237.237 227.323 235.061 219.084 237.578 213.173C240.094 207.262 245.539 205.292 249.318 207.8C249.318 207.737 254.71 206.528 256.241 209.591Z" fill="#FC4F8B"/>
<path d="M247.429 232.231C246.038 232.224 244.656 232.012 243.327 231.604C241.638 231.097 240.077 230.234 238.748 229.074C237.42 227.914 236.355 226.484 235.625 224.878C234.703 222.899 234.203 220.749 234.157 218.566C234.11 216.383 234.519 214.214 235.356 212.197C236.008 210.458 237.033 208.883 238.359 207.583C239.685 206.284 241.28 205.291 243.031 204.674C245.263 203.964 247.684 204.157 249.775 205.211C251.87 204.934 256.528 204.772 258.4 208.507C258.666 209.043 258.723 209.659 258.561 210.236C257.654 213.787 257.351 217.465 257.665 221.117C257.903 222.717 257.732 224.352 257.166 225.868C256.601 227.385 255.66 228.733 254.432 229.786C252.466 231.413 249.981 232.281 247.429 232.231ZM245.772 209.089C245.319 209.093 244.87 209.162 244.437 209.295C243.366 209.705 242.397 210.344 241.597 211.167C240.797 211.99 240.186 212.977 239.807 214.06C239.237 215.453 238.959 216.948 238.99 218.453C239.021 219.958 239.36 221.441 239.986 222.81C240.427 223.802 241.076 224.688 241.889 225.408C242.701 226.128 243.659 226.665 244.697 226.983C247.321 227.762 249.73 227.44 251.307 226.087C251.924 225.551 252.393 224.865 252.669 224.095C252.945 223.325 253.019 222.497 252.883 221.69C252.5 217.855 252.742 213.984 253.599 210.227C252.382 209.839 251.082 209.786 249.838 210.074C249.523 210.145 249.198 210.151 248.881 210.093C248.563 210.034 248.261 209.912 247.993 209.734C247.332 209.304 246.56 209.08 245.772 209.089Z" fill="#001477"/>
<path d="M250.796 209.653C250.921 209.519 250.796 209.582 250.796 209.582C248.852 210.71 247.939 213.048 247.16 215.116C246.945 215.752 246.587 217.06 246.434 217.714C245.702 214.915 245.626 211.985 246.21 209.152C246.458 207.915 247.034 206.768 247.876 205.829L250.823 209.653H250.796Z" fill="#001477"/>
<g opacity="0.3">
<path d="M269.479 23.3359C268.583 23.8643 253.761 50.6602 254.881 67.8286L235.5 73.6767C235.5 73.6767 247.734 46.5853 253.107 39.2415C258.481 31.8977 263.684 25.9331 263.684 25.9331" fill="#001477"/>
</g>
<g opacity="0.3">
<path d="M413.525 82.8024C385.323 87.8266 372.328 100.132 378.257 121.518L361.858 92.5822C361.858 92.5822 377.979 88.1938 378.257 87.2713C378.534 86.3489 395.272 82.883 395.953 82.5068" fill="#001477"/>
</g>
<path d="M283.556 499.231C282.365 499.231 281.192 499.178 280.046 499.07C272.388 498.345 266.478 495.112 262.949 489.711C253.778 475.704 260.952 464.098 267.32 458.688C262.438 448.39 255.416 439.252 246.721 431.883C236.279 437.096 223.615 436.764 210.817 430.889C199.022 425.471 188.248 415.754 182.006 404.917C172.656 388.671 175.128 373.402 188.32 364.509C175.173 326.222 180.546 284.551 204.7 237.183C204.873 236.845 205.11 236.543 205.399 236.296C205.688 236.049 206.022 235.861 206.383 235.744C206.745 235.626 207.126 235.581 207.505 235.61C207.884 235.64 208.253 235.744 208.591 235.916C208.93 236.088 209.232 236.326 209.479 236.615C209.726 236.903 209.913 237.238 210.031 237.599C210.149 237.961 210.194 238.342 210.164 238.721C210.135 239.099 210.031 239.469 209.859 239.807C186.009 286.584 180.994 327.449 194.544 364.741C194.778 365.38 194.779 366.081 194.546 366.72C194.314 367.359 193.862 367.895 193.272 368.234C175.871 378.301 183.108 395.218 187.003 402.025C197.383 420.071 224.681 437.902 245.548 425.955C246.025 425.682 246.569 425.55 247.118 425.576C247.667 425.601 248.197 425.782 248.646 426.098C249.264 426.528 263.871 436.934 273.517 458.411C273.798 459.032 273.849 459.733 273.662 460.389C273.476 461.045 273.062 461.613 272.496 461.993C269.971 463.872 267.866 466.257 266.316 468.996C263.271 474.549 263.755 480.46 267.749 486.559C270.32 490.481 274.619 492.765 280.547 493.329C294.671 494.664 313.281 486.021 319.398 479.708C331.282 467.411 332.831 454.004 324.359 437.517C324.249 437.291 324.165 437.054 324.108 436.809C323.884 435.761 318.735 411.043 338.438 398.514C355.74 387.498 364.58 352.911 360.442 312.457C360.37 311.744 360.563 311.029 360.987 310.45C361.41 309.871 362.033 309.469 362.735 309.323C376.877 306.319 390.471 301.151 403.036 293.999C409.367 290.429 415.471 286.472 421.315 282.151C428.835 276.746 434.605 269.254 437.91 260.603C441.054 252.104 440.982 244.411 437.704 239.503C435.313 235.921 431.292 233.932 426.062 233.735C423.391 233.663 420.732 234.113 418.234 235.061C412.968 236.968 399.122 241.885 384.318 246.148C377.306 248.181 370.885 249.829 365.26 251.047C364.51 251.209 363.726 251.065 363.081 250.649C362.436 250.232 361.983 249.577 361.822 248.826C361.66 248.075 361.803 247.291 362.219 246.646C362.636 246.001 363.292 245.548 364.043 245.387C369.541 244.196 375.82 242.584 382.716 240.587C397.349 236.368 411.043 231.505 416.255 229.616C419.457 228.407 422.865 227.841 426.286 227.95C433.316 228.219 439.074 231.183 442.487 236.288C446.875 242.852 447.171 252.202 443.32 262.618C439.62 272.323 433.155 280.73 424.727 286.799C418.694 291.271 412.386 295.36 405.839 299.041C393.515 306.046 380.243 311.232 366.434 314.436C370.222 356.529 360.541 391.287 341.537 403.395C326.258 413.13 329.159 432.295 329.706 435.224C339.02 453.556 336.96 469.874 323.562 483.72C317.015 490.472 298.898 499.231 283.556 499.231Z" fill="#001477"/>
<path d="M302.123 269.774C320.93 274.126 346.006 281.067 354.962 300.062C358.025 306.788 358.204 314.508 356.556 321.556C355.284 328.721 350.422 334.99 343.302 337.05C331.023 340.328 318.225 336.101 307.299 330.664C303.86 328.873 298.881 326.581 295.352 325.121C288.259 322.165 280.835 320.204 273.41 318.296C268.117 316.908 262.663 315.529 257.29 314.392C248.603 312.484 239.665 311.123 231.013 308.973L237.739 309.099C253.492 309.296 269.568 310.084 284.65 315.099C291.167 317.189 297.555 319.662 303.78 322.506C315.136 328.237 327.96 334.596 340.955 331.685C343.31 331.103 345.454 329.873 347.146 328.136C348.838 326.398 350.01 324.221 350.529 321.852C351.821 317.413 352.127 312.746 351.424 308.176C349.203 295.361 337.158 287.784 325.99 283.1C317.856 279.813 309.443 277.269 300.851 275.496C300.48 275.414 300.129 275.26 299.817 275.041C299.506 274.823 299.241 274.546 299.037 274.226C298.833 273.905 298.693 273.547 298.627 273.173C298.561 272.799 298.57 272.415 298.652 272.044C298.735 271.673 298.889 271.322 299.108 271.01C299.326 270.699 299.603 270.434 299.923 270.23C300.244 270.025 300.601 269.886 300.976 269.821C301.35 269.755 301.734 269.763 302.105 269.845L302.123 269.774Z" fill="#001477"/>
<path d="M352.078 315.314C350.842 311.346 348.562 307.782 345.478 304.997C344.372 304.007 343.172 303.128 341.895 302.373C343.376 302.7 344.822 303.171 346.212 303.779C350.678 305.749 354.521 308.902 357.326 312.896L352.078 315.341V315.314Z" fill="#001477"/>
<path d="M344.967 332.742C343.391 327.441 339.773 322.891 335.761 319.103C335.152 318.538 334.498 318.01 333.862 317.455C335.429 318.117 336.957 318.868 338.438 319.703C343.069 322.39 347.439 325.909 350.314 330.521L344.941 332.742H344.967Z" fill="#001477"/>
<path d="M246.99 431.346C246.419 431.346 245.861 431.178 245.386 430.862C244.911 430.546 244.54 430.096 244.32 429.569C244.099 429.043 244.04 428.463 244.149 427.902C244.257 427.342 244.529 426.826 244.93 426.42C258.606 412.557 277.601 411.195 301.003 410.918C323.939 410.613 335.742 400.421 335.859 400.314C336.438 399.842 337.177 399.612 337.922 399.671C338.666 399.731 339.359 400.075 339.856 400.632C340.354 401.189 340.617 401.917 340.591 402.663C340.566 403.41 340.253 404.118 339.719 404.64C339.182 405.114 326.33 416.372 301.083 416.703C278.282 417.008 261.212 418.172 249.05 430.486C248.781 430.759 248.46 430.975 248.107 431.123C247.753 431.27 247.373 431.346 246.99 431.346Z" fill="#001477"/>
<path d="M192.377 362.87C192.1 362.789 191.805 362.789 191.527 362.87H191.58H191.697L192.171 362.744C204.351 359.323 217.472 361.535 226.777 370.437L222.299 370.993C236.557 349.499 267.32 336.226 291.698 348.075C298.68 352.356 303.795 359.109 306.027 366.989C302.445 363.147 299.086 359.753 294.904 357.013C292.142 355.23 289.247 353.664 286.244 352.329C272.675 346.113 255.928 350.538 243.721 358.123C237.1 362.167 231.447 367.615 227.162 374.082C226.746 374.733 226.09 375.193 225.336 375.36C224.582 375.528 223.793 375.391 223.141 374.978C216.693 369.076 209.412 366.416 200.635 367.115C197.978 367.354 195.349 367.837 192.781 368.557C192.248 368.674 191.7 368.699 191.159 368.628C190.407 368.477 189.744 368.034 189.318 367.395C188.893 366.756 188.738 365.974 188.889 365.221C189.04 364.468 189.484 363.805 190.123 363.38C190.762 362.954 191.544 362.799 192.297 362.95L192.377 362.87Z" fill="#001477"/>
<path d="M227.019 370.617C229.721 375.408 231.655 380.594 232.751 385.985C229.983 381.595 226.544 377.667 222.559 374.342C222.234 374.062 221.973 373.715 221.796 373.324C221.619 372.933 221.53 372.508 221.534 372.079C221.538 371.65 221.636 371.227 221.821 370.84C222.006 370.452 222.273 370.11 222.604 369.837C222.935 369.564 223.321 369.366 223.737 369.258C224.152 369.149 224.586 369.133 225.008 369.21C225.43 369.287 225.83 369.455 226.181 369.702C226.531 369.95 226.823 370.271 227.037 370.644L227.019 370.617Z" fill="#001477"/>
<path d="M217.104 397.574C214.974 396.452 212.518 396.116 210.165 396.624C207.812 397.131 205.713 398.45 204.235 400.35C203.237 401.493 202.477 402.824 202.002 404.266C201.527 405.707 201.345 407.229 201.467 408.742C202.363 416.802 207.333 419.041 212.886 420.33C218.439 421.62 224.385 419.121 224.466 413.649C224.529 409.315 224.394 401.425 217.104 397.574Z" fill="#001477"/>
<path d="M211.399 379.447C213.378 382.501 213.074 386.218 210.71 387.749C208.345 389.281 204.825 388.045 202.846 384.991C200.867 381.937 201.673 378.722 204.037 377.217C206.402 375.713 209.42 376.384 211.399 379.447Z" fill="#001477"/>
<path d="M197.878 394.761C200.394 393.533 201.216 390.044 199.715 386.968C198.213 383.892 194.956 382.394 192.44 383.622C189.925 384.85 189.103 388.339 190.604 391.415C192.106 394.491 195.362 395.989 197.878 394.761Z" fill="#001477"/>
<path d="M191.315 407.883C193.551 406.792 194.271 403.669 192.924 400.909C191.577 398.149 188.672 396.796 186.436 397.888C184.2 398.979 183.48 402.101 184.828 404.862C186.175 407.622 189.08 408.975 191.315 407.883Z" fill="#001477"/>
<path d="M269.165 457.246C277.203 452.928 286.559 451.754 295.415 453.951C287.086 453.713 278.96 456.546 272.586 461.912C269.272 464.868 265.35 459.53 269.165 457.246Z" fill="#001477"/>
<path d="M281.479 498.148C274.601 491.933 271.367 481.66 274.896 472.928C274.358 476.48 274.784 480.11 276.13 483.441C277.475 486.771 279.691 489.679 282.544 491.861C283.252 492.441 284.01 492.956 284.81 493.401L281.479 498.148Z" fill="#001477"/>
<path d="M298.683 494.699C291.518 488.036 287.676 477.11 293.641 468.468C290.309 476.528 294.143 484.544 300.922 489.263C301.209 489.451 301.818 489.899 302.104 490.024L298.683 494.699Z" fill="#001477"/>
<path d="M360.487 312.896C358.751 302.696 355.804 292.738 351.711 283.235C356.13 289.775 359.94 296.705 363.094 303.941C364.16 306.385 365.162 308.795 366.103 311.392C366.241 311.774 366.298 312.181 366.269 312.586C366.24 312.992 366.127 313.386 365.937 313.745C365.746 314.104 365.483 314.42 365.163 314.671C364.843 314.922 364.475 315.103 364.081 315.203C363.687 315.303 363.277 315.319 362.876 315.251C362.475 315.182 362.094 315.031 361.755 314.806C361.417 314.581 361.129 314.288 360.911 313.945C360.692 313.602 360.548 313.218 360.487 312.816V312.896Z" fill="#001477"/>
<path d="M410.604 253.438C410.974 252.493 411.629 251.687 412.478 251.132C413.327 250.577 414.328 250.3 415.342 250.34C418.226 250.411 422.561 251.074 424.504 254.146C427.567 258.973 426.841 269.371 424.11 271.681C421.378 273.992 413.811 268.995 411.634 262.833C410.139 258.561 409.754 255.785 410.604 253.438Z" fill="#001477"/>
<path d="M424.057 244.124C425.715 241.899 425.528 238.955 423.639 237.549C421.751 236.142 418.877 236.806 417.219 239.031C415.562 241.257 415.749 244.201 417.637 245.608C419.525 247.014 422.4 246.35 424.057 244.124Z" fill="#001477"/>
<path d="M435.223 250.26C437.495 248.668 438.127 245.649 436.634 243.519C435.141 241.388 432.088 240.952 429.816 242.544C427.544 244.136 426.912 247.154 428.405 249.285C429.898 251.416 432.95 251.852 435.223 250.26Z" fill="#001477"/>
<path d="M437.128 264.956C439.231 263.483 439.966 260.906 438.771 259.201C437.576 257.495 434.903 257.307 432.801 258.78C430.699 260.253 429.963 262.83 431.158 264.535C432.353 266.241 435.026 266.429 437.128 264.956Z" fill="#001477"/>
<path d="M370.635 416.578C355.938 416.578 343.767 411.205 338.25 401.9C337.874 401.26 337.758 400.501 337.924 399.778C338.091 399.055 338.528 398.423 339.146 398.013C344.403 394.52 348.926 388.564 352.974 379.805C353.271 379.166 353.792 378.656 354.439 378.373C355.085 378.089 355.812 378.051 356.485 378.265C362.969 380.325 368.539 376.196 370.491 371.262C372.444 366.327 371.208 359.44 361.858 354.989C361.311 354.729 360.86 354.304 360.567 353.773C360.275 353.243 360.156 352.635 360.228 352.033C361.595 340.636 361.814 329.129 360.882 317.688C360.821 316.936 361.056 316.19 361.535 315.609C362.015 315.027 362.703 314.655 363.452 314.571C384.848 312.207 401.9 317.527 412.763 329.93C424.119 342.916 427.316 362.386 421.773 384.749C417.169 403.816 396.508 413.408 380.2 415.853C377.034 416.332 373.837 416.575 370.635 416.578ZM344.725 401.094C350.994 408.858 364.186 412.387 379.349 410.13C395.012 407.792 412.485 398.613 416.139 383.37C421.226 362.879 418.477 345.263 408.401 333.746C399.302 323.348 384.982 318.646 366.864 320.07C367.528 330.285 367.309 340.539 366.211 350.717C377.432 356.986 378.516 366.694 375.874 373.393C373.232 380.092 365.951 385.86 357.201 384.382C353.538 391.779 349.427 397.278 344.725 401.094Z" fill="#001477"/>
<g opacity="0.3">
<path d="M219.585 245.629C219.585 245.629 257.728 297.17 323.303 278.837C323.303 278.837 365.951 273.535 366.918 247.492C366.918 247.492 342.549 273.858 306.591 272.622C270.634 271.386 219.585 245.629 219.585 245.629Z" fill="#001477"/>
</g>
<g opacity="0.3">
<path d="M348.324 294.796C348.324 294.796 363.138 330.96 323.965 317.455C284.792 303.949 260.154 301.549 233.511 309.341C233.511 309.341 278.191 322.004 291.133 331.632C304.074 341.259 342.745 355.741 352.677 326.455C362.609 297.17 348.324 294.796 348.324 294.796Z" fill="#001477"/>
</g>
<g opacity="0.3">
<path d="M440.634 261.597C437.123 270.772 431.006 278.719 423.036 284.462C417.1 288.858 410.897 292.881 404.461 296.507C395.233 301.724 385.468 305.928 375.337 309.045C367.93 309.744 362.799 310.147 362.799 310.147L358.786 294.797C436.657 287.587 440.473 238.473 440.473 238.473C443.867 244.017 444.118 252.167 440.634 261.597Z" fill="#001477"/>
</g>
<g opacity="0.3">
<path d="M363.263 312.144C367.607 354.613 358.114 389.361 339.933 400.941C321.753 412.521 326.902 436.173 326.902 436.173C337.846 457.408 331.093 471.719 321.439 481.705C311.785 491.691 276.552 505.348 265.295 488.126C263.348 485.302 262.074 482.07 261.57 478.678C262.358 479.06 263.032 479.644 263.522 480.37C270.283 490.464 277.099 488.995 292.87 482.609C308.641 476.224 315 459.02 308.543 435.072C302.086 411.124 292.36 413.685 292.36 413.685C292.36 413.685 269.8 417.518 255.157 422.641C249.9 424.495 246.712 427.038 244.786 429.564C227.089 437.956 205.183 428.104 191.723 413.3C213.638 429.555 232.123 420.062 250.33 404.944C269.316 389.173 300.357 389.263 300.357 389.263C364.839 363.121 358.749 294.779 358.749 294.779L366.415 311.427C365.412 311.696 364.356 311.92 363.263 312.144Z" fill="#001477"/>
</g>
<g opacity="0.3">
<path d="M418.96 384.05C411.553 414.742 354.612 423.94 340.748 400.431C347.018 396.266 351.729 389.397 355.606 381.023C358.116 381.834 360.804 381.91 363.356 381.244C365.907 380.577 368.215 379.196 370.007 377.262C361.141 401.344 419.918 405.921 417.85 343.839C422.265 354.863 422.775 368.664 418.96 384.05Z" fill="#001477"/>
</g>
<g opacity="0.3">
<path d="M391.234 319.694C391.234 319.694 364.125 329.402 371.737 359.78C369.56 356.514 366.492 353.94 362.897 352.365C364.277 340.773 364.496 329.072 363.551 317.437C374.155 316.264 383.415 317.123 391.234 319.694Z" fill="#001477"/>
</g>
<path d="M240.231 151.113C244.541 140.884 240.845 129.562 231.975 125.825C223.105 122.087 212.42 127.349 208.11 137.577C203.8 147.806 207.497 159.127 216.367 162.865C225.237 166.602 235.921 161.341 240.231 151.113Z" fill="#00046A"/>
<path d="M235.992 143.028C237.532 139.372 236.439 135.422 233.549 134.204C230.659 132.986 227.068 134.963 225.527 138.618C223.987 142.274 225.081 146.224 227.97 147.442C230.86 148.66 234.452 146.684 235.992 143.028Z" fill="white"/>
<g opacity="0.2">
<path d="M218.46 149.27C219.503 146.795 219.051 144.242 217.451 143.568C215.851 142.894 213.709 144.354 212.666 146.829C211.623 149.304 212.075 151.857 213.674 152.531C215.274 153.205 217.417 151.745 218.46 149.27Z" fill="white"/>
</g>
<g opacity="0.7">
<path d="M262.936 175.249C263.287 174.415 261.259 172.764 258.406 171.561C255.552 170.359 252.954 170.06 252.603 170.895C252.251 171.729 254.279 173.38 257.133 174.582C259.986 175.784 262.584 176.083 262.936 175.249Z" fill="white"/>
</g>
<path d="M285.089 218.251L281.829 225.604L321.817 237.318L323.805 230.001L285.089 218.251Z" fill="#E30613"/>
<path d="M280.682 229.472L277.423 236.825L317.411 248.539L319.399 241.222L280.682 229.472Z" fill="#1CA75E"/>
<path d="M189.109 170.677L183.987 176.893L219.371 198.897L223.249 192.386L189.109 170.677Z" fill="#FFD500"/>
<path d="M183.117 180.86L177.995 187.067L213.379 209.08L217.257 202.569L183.117 180.86Z" fill="#004F9F"/>
<path d="M10.7175 332.026C9.01151 331.886 7.42735 331.086 6.30207 329.796C6.18862 329.674 6.11404 329.521 6.08736 329.357C4.36327 319.254 4.61534 308.913 6.83033 298.907C6.86355 298.765 6.93139 298.632 7.02755 298.522C7.67161 297.728 8.47568 297.078 9.38764 296.615C10.2996 296.152 11.2991 295.886 12.3206 295.835H12.607C15.2938 295.978 17.7209 298.065 19.3777 301.71C21.0379 305.736 21.7368 310.093 21.4194 314.436C20.9 324.288 16.3237 332.017 11.0039 332.017L10.7175 332.026Z" fill="#020302"/>
<path d="M12.3199 296.686H12.5617C17.4874 296.946 21.0784 304.872 20.5769 314.401C20.0843 323.769 15.8304 331.184 11.0032 331.184H10.7613C9.26879 331.051 7.88722 330.341 6.91049 329.205C5.22268 319.22 5.47513 309.003 7.6539 299.113C8.21542 298.4 8.92155 297.815 9.72581 297.395C10.5301 296.975 11.4142 296.73 12.3199 296.677M12.3199 294.993C11.1796 295.044 10.063 295.336 9.04407 295.85C8.02508 296.364 7.12685 297.088 6.40891 297.976C6.21337 298.195 6.07478 298.46 6.00573 298.746C3.77793 308.85 3.52263 319.29 5.25358 329.491C5.30384 329.828 5.45735 330.141 5.69262 330.387C6.96102 331.84 8.74863 332.737 10.6717 332.886H11.0032C16.8692 332.886 21.7504 324.987 22.2609 314.508C22.579 310.029 21.8523 305.538 20.1383 301.388C18.3471 297.447 15.6601 295.181 12.6509 295.02L12.3199 294.993Z" fill="black"/>
<path d="M84.2894 397.466C71.4985 397.463 58.8887 394.444 47.4825 388.656C36.0764 382.867 26.1951 374.472 18.6406 364.15C11.0861 353.828 6.07071 341.871 4.00165 329.249C1.93259 316.626 2.86823 303.694 6.73213 291.501C10.596 279.307 17.2796 268.196 26.2408 259.069C35.202 249.942 46.1883 243.056 58.3087 238.969C70.4291 234.882 83.3423 233.71 96.0006 235.547C108.659 237.384 120.706 242.179 131.164 249.543C134.03 251.57 136.765 253.777 139.35 256.152C150.912 266.746 159.156 280.465 163.083 295.647C163.665 297.913 164.158 300.233 164.552 302.552C164.758 303.797 164.937 305.042 165.089 306.269C165.412 308.956 165.599 311.643 165.662 314.329C166.06 332.338 160.473 349.97 149.777 364.463C139.081 378.957 123.879 389.493 106.553 394.421C99.3092 396.469 91.8175 397.509 84.2894 397.511V397.466Z" fill="#D8DBD8"/>
<path d="M84.3253 237.595C100.505 237.588 116.29 242.594 129.508 251.925C132.267 253.872 134.902 255.99 137.397 258.266C148.555 268.478 156.507 281.71 160.289 296.355C160.862 298.558 161.328 300.779 161.704 303.018C161.91 304.209 162.08 305.409 162.223 306.6C162.538 309.166 162.723 311.745 162.779 314.329C163.133 329.936 158.827 345.295 150.413 358.443C141.998 371.592 129.855 381.935 115.535 388.151C101.215 394.367 85.3675 396.174 70.0156 393.342C54.6638 390.509 40.5043 383.165 29.3453 372.249C18.1863 361.332 10.5343 347.337 7.36587 332.05C4.19746 316.764 5.65645 300.881 11.5569 286.428C17.4574 271.975 27.5316 259.609 40.4929 250.907C53.4541 242.206 68.7143 237.566 84.3253 237.578M84.3253 231.81C67.5769 231.798 51.205 236.777 37.2993 246.112C23.3936 255.447 12.5849 268.714 6.25338 284.22C-0.0781792 299.725 -1.64549 316.766 1.75141 333.166C5.14831 349.566 13.3552 364.583 25.3248 376.297C37.2943 388.012 52.4834 395.895 68.953 398.938C85.4226 401.981 102.425 400.048 117.791 393.385C133.157 386.721 146.189 375.63 155.223 361.527C164.256 347.423 168.882 330.948 168.51 314.204C168.456 311.445 168.25 308.651 167.919 305.902C167.767 304.648 167.579 303.349 167.364 302.051C166.961 299.659 166.468 297.259 165.841 294.886C161.777 279.167 153.244 264.963 141.275 253.994C138.599 251.538 135.77 249.256 132.803 247.16C118.624 237.124 101.67 231.753 84.2982 231.792L84.3253 231.81Z" fill="#001477"/>
<path d="M52.6838 244.223C65.0682 238.781 78.6474 236.629 92.1075 237.973C105.568 239.318 118.453 244.114 129.516 251.898C134.504 259 145.636 278.264 139.654 302.319C125.495 275.873 106.741 244.357 52.6838 244.223Z" fill="#001477"/>
<path d="M77.0079 305.651C137.379 311.024 155.819 299.955 160.297 296.364C160.87 298.567 161.336 300.788 161.712 303.027C161.766 303.322 161.811 303.627 161.865 303.922C161.918 304.218 161.945 304.451 161.981 304.719L162.035 305.113L162.088 305.481L162.142 305.875C162.142 306.116 162.205 306.367 162.231 306.618C143.594 332.429 127.304 340.364 127.304 340.364C127.304 340.364 93.5852 319.729 77.0079 305.651Z" fill="#001477"/>
<path d="M127.26 340.364C127.26 340.364 143.586 332.429 162.187 306.618C162.502 309.184 162.687 311.763 162.743 314.347C158.068 322.927 147.464 340.48 140.577 348.514C130.108 342.746 127.26 340.364 127.26 340.364Z" fill="#F6B602"/>
<path d="M74.34 363.595C49.9085 293.802 55.5865 320.061 49.5055 278.514C66.5753 264.902 77.7519 254.952 100.679 255.91C100.679 255.955 68.1157 281.461 74.34 363.595Z" fill="#001477"/>
<path d="M74.3391 363.595C74.0884 363.246 41.9726 317.768 37.3066 291.832C47.2745 279.482 49.5046 278.559 49.5046 278.559C55.5856 320.061 49.9076 293.802 74.3391 363.595Z" fill="#6FDB11"/>
<path d="M74.3396 363.595C74.3396 363.595 91.2302 384.937 105.766 391.6C96.0514 394.35 85.8994 395.207 75.8618 394.126L74.3396 363.595Z" fill="#7ED92B"/>
<path d="M74.3396 363.595C78.6921 379.035 95.144 393.83 95.144 393.83C88.7529 394.717 82.2771 394.816 75.8618 394.126L74.3396 363.595Z" fill="#090C08"/>
</svg>
