<svg width="803" height="427" viewBox="0 0 803 427" fill="none" xmlns="http://www.w3.org/2000/svg">
<path d="M1176.9 122.008L243.636 138.595V109.984L1176.9 122.008Z" fill="#FE0002"/>
<path d="M1116.74 245.412L183.47 262.007V233.388L1116.74 245.412Z" fill="#1E1E28"/>
<path d="M1036.52 160.571L103.256 177.158V148.547L1036.52 160.571Z" fill="#01BA5D"/>
<path d="M1163.01 196.047L229.747 212.642V184.023L1163.01 196.047Z" fill="#FFC900"/>
<path d="M90.0576 263.634C89.7745 263.634 89.4923 263.602 89.2163 263.539L86.9702 263.055C83.0575 262.213 79.0339 261.332 74.8275 260.674C74.589 260.637 74.355 260.576 74.1292 260.491C73.2074 260.163 72.313 259.762 71.4545 259.293C70.9051 258.988 70.4342 258.56 70.0788 258.042C69.7234 257.524 69.4932 256.931 69.4068 256.309C68.4941 249.594 68.8277 239.11 75.5816 227.229C82.034 215.888 97.0099 209.11 115.637 209.11C129.47 209.11 144.391 212.912 157.645 219.817C158.307 220.164 158.86 220.689 159.242 221.332C159.624 221.976 159.819 222.712 159.807 223.46C159.794 224.208 159.575 224.938 159.172 225.569C158.769 226.199 158.199 226.705 157.526 227.031C151.255 229.97 145.715 234.264 141.304 239.602C140.752 240.283 139.992 240.764 139.141 240.972C138.289 241.18 137.393 241.103 136.589 240.753C130.859 238.293 119.78 234.15 109.986 234.15C101.438 234.15 96.1054 237.325 93.6848 243.729C91.7642 248.848 91.7879 253.523 93.7561 258.015C94.0215 258.629 94.1302 259.299 94.0727 259.965C94.0152 260.632 93.7933 261.273 93.4267 261.833C93.0601 262.392 92.5604 262.851 91.9723 263.17C91.3843 263.489 90.7264 263.656 90.0576 263.658V263.634Z" fill="#9FA9B2"/>
<path d="M115.636 213.111C128.208 213.111 142.343 216.365 155.779 223.365C148.976 226.56 142.966 231.225 138.184 237.023C131.954 234.341 120.422 230.087 109.985 230.087C101.303 230.087 93.3827 233.031 89.9145 242.285C87.4065 248.96 87.9301 254.722 90.0571 259.603C85.438 258.61 80.5731 257.507 75.4858 256.666C74.7657 256.411 74.0677 256.098 73.3986 255.73C72.5176 249.206 73.0255 239.857 79.089 229.19C84.962 218.872 98.93 213.111 115.636 213.111ZM115.636 205.047C95.5332 205.047 79.2478 212.587 72.0733 225.198C64.7558 238.063 64.4063 249.491 65.4063 256.817C65.5746 258.062 66.032 259.25 66.7417 260.286C67.4515 261.322 68.3941 262.178 69.4939 262.785C70.5437 263.362 71.6367 263.855 72.7634 264.261C73.2179 264.42 73.6855 264.54 74.1605 264.618C78.2398 265.293 82.2319 266.158 86.0652 266.999L88.3349 267.491C88.8905 267.611 89.457 267.672 90.0253 267.674C91.3647 267.674 92.6832 267.34 93.8614 266.703C95.0396 266.066 96.0403 265.146 96.7736 264.025C97.5069 262.904 97.9495 261.618 98.0614 260.284C98.1732 258.949 97.9507 257.607 97.4142 256.38C95.8904 252.896 95.8983 249.237 97.4142 245.118C98.6285 241.88 101.152 238.158 109.938 238.158C119.01 238.158 129.501 242.126 134.946 244.436C136.556 245.13 138.348 245.281 140.051 244.864C141.755 244.447 143.275 243.486 144.382 242.126C148.414 237.246 153.481 233.323 159.216 230.642C160.566 229.995 161.709 228.985 162.518 227.725C163.326 226.465 163.768 225.005 163.794 223.508C163.819 222.011 163.427 220.537 162.662 219.25C161.897 217.963 160.789 216.914 159.462 216.222C145.438 208.92 130.271 205.055 115.597 205.055L115.636 205.047Z" fill="#001477"/>
<path d="M116.978 382.141C100.906 382.141 85.3669 378.173 73.2161 370.927C60.732 363.506 53.1842 353.538 51.962 342.856C50.3747 329.276 54.2159 319.491 57.6842 313.681C58.0063 313.143 58.4495 312.687 58.9785 312.349C59.5075 312.011 60.108 311.802 60.7321 311.737C61.3352 311.681 61.9462 311.649 62.5573 311.649C62.9224 311.649 63.2876 311.649 63.6606 311.649C63.9038 311.664 64.1451 311.698 64.3825 311.753C68.4936 312.761 72.5651 313.538 76.5016 314.3L78.7558 314.729C79.4847 314.869 80.1605 315.207 80.7089 315.707C81.2573 316.208 81.6568 316.85 81.8629 317.563C82.0691 318.276 82.0741 319.032 81.8773 319.747C81.6805 320.463 81.2894 321.11 80.7476 321.618C77.1762 324.991 75.3269 329.276 75.0809 334.737C74.9647 336.525 75.2313 338.318 75.8621 339.996C76.493 341.674 77.474 343.198 78.7399 344.467C86.2478 352.316 104.081 355.102 117.057 355.102H117.351C118.225 355.102 119.075 355.386 119.774 355.911C120.472 356.437 120.981 357.175 121.224 358.014C121.811 360.062 122.2 361.983 122.573 363.792C123.454 368.149 124.16 371.594 127.263 375.133C127.758 375.696 128.086 376.384 128.212 377.123C128.337 377.861 128.253 378.62 127.972 379.313C127.69 380.007 127.22 380.609 126.616 381.051C126.011 381.493 125.296 381.758 124.549 381.816C122.033 382.006 119.494 382.11 116.986 382.11L116.978 382.141Z" fill="#9FA9B2"/>
<path d="M62.557 315.682H63.4219C68.4378 316.904 73.3426 317.793 77.9854 318.698C74.1124 322.348 71.3744 327.428 71.0569 334.571C70.1045 356.134 104.39 359.174 117.088 359.174H117.382C119.358 366.015 118.969 371.872 124.263 377.84C121.819 378.023 119.406 378.118 117.009 378.118C84.9377 378.118 58.2078 361.634 55.9935 342.404C54.6046 330.221 57.8028 321.412 61.1758 315.761C61.6452 315.713 62.1169 315.689 62.5887 315.69M62.5887 307.626C61.8427 307.626 61.0889 307.626 60.3508 307.737C59.1019 307.865 57.9001 308.283 56.8418 308.959C55.7834 309.634 54.8977 310.547 54.2554 311.626C50.4618 317.975 46.319 328.618 47.9857 343.324C49.3587 355.285 57.5968 366.34 71.184 374.404C83.9538 381.999 100.223 386.181 117.009 386.181C119.62 386.181 122.271 386.078 124.89 385.872C126.382 385.756 127.813 385.227 129.022 384.344C130.231 383.461 131.169 382.259 131.734 380.873C132.298 379.486 132.465 377.97 132.217 376.494C131.968 375.018 131.314 373.64 130.327 372.515C128.025 369.896 127.477 367.594 126.557 363.039C126.184 361.205 125.763 359.142 125.12 356.935C124.638 355.256 123.622 353.779 122.226 352.728C120.83 351.677 119.13 351.109 117.382 351.11H117.088C103.938 351.11 87.8903 348.205 81.684 341.721C80.7923 340.848 80.1026 339.79 79.6638 338.622C79.225 337.454 79.0477 336.204 79.1441 334.959C79.3346 330.594 80.7793 327.205 83.5491 324.594C84.6269 323.578 85.4037 322.285 85.7948 320.856C86.1859 319.428 86.1761 317.919 85.7661 316.495C85.3562 315.072 84.5619 313.789 83.4708 312.787C82.3797 311.786 81.034 311.104 79.5809 310.817L77.303 310.372C73.4221 309.626 69.4141 308.856 65.3983 307.88C64.9297 307.765 64.4512 307.693 63.9695 307.666C63.5171 307.666 63.065 307.666 62.6205 307.666L62.5887 307.626Z" fill="#001477"/>
<path d="M396.62 421.887C385.509 421.887 379.35 411.856 372.85 401.253C365.104 388.554 357.088 375.507 340.04 375.507C339.517 375.507 338.993 375.507 338.453 375.507C331.064 376.443 320.358 381.102 307.977 386.491C283.985 396.943 251.12 411.245 213.581 411.253C210.668 411.253 207.716 411.165 204.851 410.991C147.255 407.554 116.994 392.268 112.351 364.245C108.383 340.435 104.192 333.459 91.827 330.118L91.3906 329.999C80.724 327.142 70.6446 324.443 62.9065 324.443C60.5237 324.375 58.1485 324.743 55.8985 325.531C53.2477 326.57 52.3033 330.197 51.1366 335.61C50.0335 340.848 48.8908 346.261 44.3511 348.983C39.8114 351.705 31.1763 353.102 18.7319 353.102C14.3192 353.102 10.3828 352.919 7.86693 352.776C7.28635 352.739 6.72049 352.579 6.20717 352.305C5.69385 352.031 5.24496 351.651 4.89075 351.189C3.54155 349.435 3.43059 349.292 7.03376 331.538C9.96232 317.11 14.6767 295.11 19.2322 273.832C25.1449 246.213 31.8352 215.007 32.351 210.595C32.2664 209.771 32.4325 208.941 32.8273 208.214C34.121 205.833 36.859 205.833 38.3352 205.833C42.986 205.833 63.343 207.92 70.6128 217.555C73.3033 220.975 72.6603 226.356 71.9063 232.579C70.7794 241.944 70.3193 249.332 75.3828 252.174C75.7561 252.38 76.1433 252.56 76.5415 252.713C80.7002 253.412 84.6447 254.301 88.4462 255.094L90.8826 255.618C97.2318 256.991 102.946 258.126 108.081 258.126C111.003 258.194 113.911 257.695 116.644 256.658C121.525 254.697 125.573 250.444 129.033 243.642C129.533 242.658 130.057 241.705 130.62 240.817C131.941 238.588 133.432 236.465 135.081 234.467C140.235 228.208 146.717 223.174 154.057 219.729C163.501 215.198 174.477 212.896 186.668 212.896C202.969 212.896 221.049 217.007 240.406 225.118C263.612 234.84 286.437 250.19 310.247 272.055C317.231 278.475 323.263 284.467 328.58 289.745C335.937 297.055 342.286 303.364 345.477 304.888C349.181 306.642 353.063 307.994 357.056 308.919C361.136 309.871 365.311 310.356 369.501 310.364C376.741 310.392 383.898 308.812 390.453 305.737C391.961 305.023 393.477 304.213 394.961 303.356C406.636 296.356 414.667 292.301 421.207 292.301C423.174 292.271 425.12 292.704 426.889 293.562C431.175 295.681 433.881 300.332 435.159 307.769C436.619 316.308 435.532 336.34 432.572 355.34C432.572 355.396 432.572 355.443 432.572 355.499C430.81 366.8 427.58 383.062 422.183 396.649C416.556 410.832 409.691 419.102 401.762 421.252C400.084 421.694 398.355 421.908 396.62 421.887Z" fill="#E2EAED"/>
<path d="M38.3275 209.904C44.2561 209.904 61.8353 212.602 67.4147 220.055C71.8353 225.61 60.7877 248.626 73.3988 255.769C74.0659 256.136 74.7609 256.449 75.4779 256.705C80.5731 257.546 85.4382 258.65 90.0573 259.642C96.5493 261.038 102.573 262.237 108.097 262.237C111.534 262.307 114.952 261.709 118.16 260.475C123.629 258.277 128.478 253.769 132.636 245.554C133.089 244.673 133.557 243.808 134.065 242.959C135.281 240.888 136.658 238.917 138.184 237.062C142.968 231.265 148.977 226.6 155.779 223.404C164.271 219.332 174.589 216.967 186.66 216.967C201.47 216.967 218.914 220.531 238.834 228.872C266.922 240.642 289.914 258.919 307.461 275.054C325.247 291.411 337.446 305.578 343.684 308.562C347.652 310.448 351.814 311.896 356.096 312.88C360.471 313.915 364.95 314.447 369.445 314.467C377.279 314.494 385.021 312.781 392.112 309.451C393.699 308.657 395.358 307.864 396.977 306.856C407.413 300.594 415.437 296.372 421.151 296.372C422.496 296.345 423.827 296.633 425.04 297.213C428.04 298.697 430.064 302.253 431.127 308.491C432.413 315.983 431.635 334.808 428.532 354.76C424.143 382.998 415.096 413.49 400.636 417.371C399.327 417.733 397.977 417.92 396.62 417.927C376.271 417.927 374.255 371.522 340.049 371.522C339.414 371.522 338.771 371.522 338.112 371.57C315.342 374.324 270.081 407.284 213.581 407.284C210.771 407.284 207.935 407.199 205.073 407.03C144.613 403.427 120.224 387.276 116.303 363.649C112.383 340.022 108.042 330.387 92.8432 326.348C81.8115 323.395 71.2639 320.538 62.883 320.538C59.9974 320.465 57.1232 320.928 54.4067 321.903C45.4384 325.411 48.9225 341.665 42.2718 345.649C37.6369 348.435 27.7163 349.197 18.7243 349.197C14.8513 349.197 11.145 349.054 8.10537 348.88C7.77997 348.88 8.95448 342.475 10.9862 332.467C18.3751 296.038 37.1131 211.499 36.383 210.396C36.2083 210.134 36.9623 209.991 38.3353 209.991M38.3353 201.928C36.6924 201.928 31.7163 201.928 29.2719 206.451C28.5925 207.715 28.2584 209.136 28.3035 210.57C27.5098 215.975 21.0419 246.285 15.2959 273.086C10.7324 294.388 6.01801 316.411 3.08151 330.864C2.02596 336.086 1.26412 339.983 0.764124 342.768C-0.148571 347.887 -0.656568 350.705 1.69263 353.76C2.39774 354.681 3.2914 355.441 4.31384 355.988C5.33628 356.536 6.46369 356.859 7.62096 356.935C10.2003 357.086 14.2162 357.268 18.732 357.268C38.5732 357.268 44.4942 353.737 46.4307 352.57C52.4783 348.943 53.9224 342.086 55.0891 336.578C55.5256 334.491 56.4465 330.149 57.3592 329.435C59.1486 328.84 61.0303 328.571 62.9147 328.641C70.1211 328.641 79.954 331.276 90.3588 334.062L90.7874 334.181C100.748 336.848 104.47 341.451 108.383 365.046C110.867 380.03 120.081 391.808 135.764 400.062C151.637 408.403 174.136 413.34 204.62 415.141C207.589 415.316 210.613 415.403 213.613 415.403C251.993 415.403 285.303 400.903 309.644 390.316C321.652 385.086 332.041 380.562 338.858 379.649H340.104C353.866 379.649 360.667 389.078 369.469 403.459C372.731 408.776 375.818 413.776 379.58 417.847C384.66 423.284 390.414 426.046 396.675 426.046C398.738 426.05 400.793 425.783 402.786 425.252C412.136 422.744 419.699 413.919 425.905 398.268C431.461 384.356 434.723 367.816 436.525 356.316C436.525 356.237 436.524 356.165 436.564 356.094C439.628 336.38 440.691 316.276 439.136 307.221C438.588 303.991 436.897 294.149 428.675 290.078C426.353 288.947 423.798 288.373 421.215 288.403C413.747 288.403 405.175 292.673 392.89 300.038C391.544 300.846 390.159 301.585 388.739 302.253C382.723 305.075 376.154 306.525 369.509 306.499C365.626 306.489 361.758 306.039 357.977 305.157C354.27 304.298 350.665 303.044 347.223 301.419C344.652 300.189 337.929 293.483 331.429 287.054C326.088 281.745 320.025 275.729 312.985 269.253C288.874 247.031 265.66 231.475 242.009 221.562C222.168 213.245 203.557 209.031 186.724 209.031C173.922 209.031 162.359 211.459 152.359 216.261C144.48 219.977 137.526 225.399 132.002 232.134C130.22 234.305 128.61 236.611 127.184 239.031C126.621 239.983 126.057 241.007 125.518 242.062C121.549 249.904 117.732 252.15 115.2 253.173C112.946 254.017 110.55 254.418 108.145 254.356C103.383 254.356 97.9461 253.253 91.8112 251.935L89.3667 251.412C85.6445 250.618 81.7955 249.769 77.7162 249.031L77.3748 248.864C74.5177 247.221 75.0416 240.832 75.9464 233.277C76.74 226.475 77.5336 220.039 73.851 215.309C65.486 204.277 43.7478 202.015 38.3748 202.015L38.3353 201.928Z" fill="#001477"/>
<path d="M428.532 354.689C424.135 382.927 415.088 413.419 400.628 417.3C375.969 423.919 376.374 369.602 338.104 371.499C314.199 374.388 265.525 410.586 205.065 406.983C144.605 403.38 120.216 387.229 116.295 363.602C112.375 339.975 108.033 330.34 92.8351 326.3C77.6367 322.261 63.3751 318.364 54.3989 321.848C45.4228 325.332 48.9148 341.61 42.264 345.594C35.6133 349.578 18.1766 349.419 8.09725 348.816C7.77186 348.816 8.94636 342.42 10.9781 332.412C15.613 333.999 25.772 334.84 36.6767 319.007C51.5497 297.42 68.9623 293.61 104.137 305.086C139.311 316.562 125.367 348.824 159.962 366.356C194.557 383.888 230.843 390.07 272.66 372.134C314.477 354.197 362.406 327.634 382.977 350.626C403.548 373.618 410.326 387.38 428.5 354.737C428.524 354.697 428.524 354.697 428.532 354.689Z" fill="#BCC6C9"/>
<path d="M343.684 308.523C347.652 310.409 351.814 311.857 356.096 312.84C339.549 344.015 311.858 356.086 278.89 340.427C256.327 329.697 262.708 304.713 276.509 289.023C278.89 286.332 271.795 282.229 268.271 283.467C234.541 335.054 185.073 338.872 163.748 314.364C148.153 296.443 166.518 274.277 166.518 274.277C147.073 271.698 131.184 266.785 118.192 260.451C123.661 258.253 128.51 253.745 132.668 245.531C133.121 244.65 133.589 243.785 134.097 242.936C142.088 245.524 150.224 247.644 158.462 249.285C162.43 250.142 166.589 250.975 170.827 251.84L212.946 260.404L255.065 268.975C274.906 273.007 292.247 276.594 307.493 274.999C325.247 291.372 337.446 305.539 343.684 308.523Z" fill="#BCC6C9"/>
<path d="M425.056 297.142C424.752 303.409 423.279 309.565 420.715 315.292C410.864 315.537 401.088 313.515 392.144 309.38C393.731 308.586 395.39 307.793 397.009 306.785C410.041 298.943 419.326 294.301 425.056 297.142Z" fill="#BCC6C9"/>
<path d="M343.374 187.578C343.374 187.578 348.929 265.356 391.485 290.356C476.024 340.102 541.23 237.253 490.691 182.078C460.532 149.118 410.119 162.563 409.595 197.674C409.453 207.055 414.072 216.721 419.571 217.761C425.794 218.935 427.199 208.396 435.683 209.221C441.849 209.824 443.461 216.309 441.484 221.499C432.754 244.34 379.389 248.07 369.262 185.467" fill="#FFAD40"/>
<path d="M391.485 290.356C348.945 265.324 343.374 187.579 343.374 187.579L369.238 185.468C371.937 202.134 377.707 214.11 384.889 222.269C404.643 244.729 435.064 238.253 441.476 221.475C443.46 216.293 441.841 209.809 435.683 209.206C427.191 208.412 425.786 218.912 419.564 217.745C414.064 216.706 409.444 207.039 409.587 197.658C409.587 196.745 409.643 195.848 409.73 194.968C412.714 161.872 461.27 149.96 490.682 182.055C541.23 237.253 476.024 340.102 391.485 290.356Z" fill="#FFAD40"/>
<path d="M391.485 290.356C348.945 265.325 343.374 187.579 343.374 187.579L369.238 185.468C371.937 202.134 377.707 214.11 384.889 222.269C394.707 233.436 407.175 237.452 418.008 236.555C428.961 235.698 438.254 229.88 441.476 221.475C443.46 216.293 441.841 209.809 435.683 209.206C427.191 208.412 425.786 218.912 419.564 217.745C414.064 216.706 409.444 207.039 409.587 197.658C409.587 196.745 409.643 195.849 409.73 194.968C409.818 194.087 409.905 193.317 410.04 192.507C415.151 161.301 462.016 150.769 490.682 182.055C541.23 237.253 476.024 340.102 391.485 290.356Z" fill="#FFAD40"/>
<path d="M391.485 290.356C348.945 265.325 343.374 187.579 343.374 187.579L369.238 185.468C371.937 202.134 377.707 214.11 384.889 222.269C394.707 233.436 407.175 237.452 418.008 236.555C428.961 235.698 438.254 229.88 441.476 221.475C443.46 216.293 441.841 209.809 435.683 209.206C427.191 208.412 425.786 218.912 419.564 217.745C414.064 216.706 409.444 207.039 409.587 197.658C409.587 196.745 409.643 195.849 409.73 194.968C409.818 194.087 409.905 193.317 410.04 192.507C415.151 161.301 462.016 150.769 490.682 182.055C541.23 237.253 476.024 340.102 391.485 290.356Z" fill="#FFAD40"/>
<path d="M507.881 236.595C502.23 283.706 451.778 325.832 391.485 290.356C348.945 265.325 343.374 187.579 343.374 187.579L369.238 185.468C371.937 202.134 377.707 214.111 384.889 222.269C386.302 223.886 387.827 225.4 389.453 226.801C398.397 234.523 408.794 237.325 418.024 236.595C428.976 235.738 438.27 229.92 441.492 221.515C443.476 216.333 441.857 209.849 435.699 209.246C427.207 208.452 425.802 218.952 419.58 217.785C414.08 216.746 409.46 207.079 409.603 197.698C409.603 196.785 409.659 195.888 409.746 195.008C409.834 194.127 409.921 193.357 410.056 192.547C415.167 161.341 462.032 150.809 490.698 182.095C505.214 197.896 510.158 217.65 507.881 236.595Z" fill="#FFAD40"/>
<path d="M417.913 236.61H417.993C428.945 235.753 438.238 229.936 441.461 221.531C443.445 216.348 441.826 209.864 435.667 209.261C427.175 208.467 425.77 218.967 419.548 217.801C414.048 216.761 409.429 207.094 409.572 197.714C409.572 196.801 409.627 195.904 409.715 195.023C409.802 194.142 409.889 193.372 410.024 192.563C409.604 199.182 413.905 209.856 420.485 206.848C425.413 204.579 441.461 186.214 453.111 202.007C461.794 213.642 444.104 242.19 417.913 236.61Z" fill="#FF9343"/>
<path d="M507.881 236.594C502.23 283.705 451.778 325.832 391.485 290.356C348.945 265.324 343.374 187.579 343.374 187.579L369.238 185.468C371.937 202.134 377.707 214.11 384.889 222.269C386.302 223.885 387.827 225.4 389.453 226.801C390.5 249.475 403.341 266.586 428.564 275.213C467.484 288.539 499.055 264.015 507.881 236.594Z" fill="#FF9343"/>
<path d="M507.881 236.594C502.23 283.705 451.778 325.832 391.485 290.356C348.945 265.324 343.374 187.579 343.374 187.579L369.238 185.468C371.937 202.134 377.707 214.11 384.889 222.269C386.365 238.039 389.024 265.586 415.897 275.991C429.27 281.166 440.794 281.65 450.405 278.951C478.944 278.856 500.786 258.658 507.881 236.594Z" fill="#F9D3B7"/>
<path d="M487.953 272.396C465.58 300.856 426.12 316.483 385.985 288.848C333.199 252.507 343.374 187.579 343.374 187.579L361.532 185.468C365.89 202.737 373.731 214.634 382.85 222.269C384.381 237.213 385.39 261.674 415.897 275.991C429.913 282.57 442.27 282.531 452.508 278.372C473.143 278.475 488.73 266.316 498.77 254.936L498.603 255.285C498.373 255.785 498.127 256.285 497.873 256.785C497.524 257.483 497.159 258.174 496.786 258.872C496.603 259.237 496.405 259.594 496.207 259.943C495.881 260.539 495.54 261.142 495.199 261.729C494.857 262.316 494.405 263.134 493.937 263.816C493.911 263.884 493.876 263.948 493.834 264.007C493.461 264.618 493.04 265.229 492.675 265.824L492.484 266.118C492.016 266.84 491.524 267.554 491.032 268.261C490.54 268.967 490.032 269.666 489.516 270.364C489 271.062 488.476 271.729 487.953 272.396Z" fill="#F9D3B7"/>
<path d="M391.485 290.356C348.945 265.324 343.374 187.579 343.374 187.579L369.238 185.468C371.937 202.134 377.707 214.11 384.889 222.269C386.365 238.039 389.024 265.586 415.897 275.991C471.754 297.618 495.381 237.34 481.603 205.356C470.397 179.372 426.968 165.118 409.73 194.968C412.714 161.872 461.27 149.96 490.682 182.055C541.23 237.253 476.024 340.102 391.485 290.356Z" fill="#FFF3E9"/>
<path d="M507.881 236.594C502.23 283.705 451.778 325.832 391.485 290.356C348.945 265.324 343.374 187.579 343.374 187.579L369.238 185.468C371.937 202.134 377.707 214.11 384.889 222.269C386.365 238.039 389.024 265.586 415.897 275.991C429.27 281.166 440.794 281.65 450.405 278.951C478.944 278.856 500.786 258.658 507.881 236.594Z" fill="#F9D3B7"/>
<path d="M436.056 306.348C420.977 306.348 405.334 301.753 390.064 292.769C372.049 282.166 357.779 260.595 348.795 230.38C344.66 216.485 341.909 202.214 340.58 187.777C340.51 187.39 340.521 186.992 340.614 186.61C340.708 186.227 340.881 185.869 341.122 185.558C341.363 185.246 341.667 184.99 342.015 184.804C342.362 184.618 342.744 184.508 343.137 184.48C343.53 184.452 343.924 184.507 344.294 184.641C344.664 184.776 345.001 184.987 345.284 185.26C345.567 185.534 345.789 185.864 345.936 186.23C346.083 186.595 346.151 186.987 346.136 187.381C346.183 188.174 352.104 263.952 392.874 287.944C435.437 312.991 470.239 297.658 488.612 274.96C508.04 250.96 514.27 211.999 488.612 183.968C471.707 165.523 448.858 163.079 433.707 168.841C420.548 173.841 412.572 184.642 412.374 197.714C412.247 206.222 416.501 214.38 420.08 215.007C421.342 215.246 422.294 214.373 424.31 212.158C426.731 209.5 430.056 205.865 435.945 206.436C437.454 206.548 438.914 207.014 440.208 207.797C441.501 208.581 442.592 209.659 443.39 210.944C445.342 214.119 445.604 218.515 444.08 222.492C439.779 233.753 425.921 240.825 411.144 239.301C402.548 238.42 373.929 231.968 366.477 185.92C366.418 185.555 366.432 185.183 366.517 184.823C366.602 184.464 366.757 184.124 366.973 183.825C367.19 183.525 367.463 183.271 367.778 183.077C368.092 182.883 368.442 182.753 368.806 182.694C369.171 182.635 369.544 182.649 369.903 182.734C370.263 182.819 370.602 182.974 370.902 183.191C371.201 183.407 371.456 183.68 371.65 183.994C371.844 184.309 371.974 184.659 372.033 185.023C378.85 227.142 404.151 232.96 411.715 233.737C424.024 235.007 435.437 229.428 438.85 220.499C439.747 218.119 439.644 215.555 438.628 213.888C438.285 213.334 437.811 212.872 437.248 212.544C436.684 212.216 436.049 212.031 435.397 212.007C432.453 211.722 430.834 213.317 428.445 215.928C426.239 218.309 423.501 221.349 419.04 220.515C411.524 219.095 406.628 207.539 406.779 197.634C407.009 182.174 416.302 169.46 431.715 163.611C448.636 157.174 474.064 159.801 492.738 180.182C520.556 210.555 513.921 252.618 492.993 278.483C481.707 292.42 466.262 301.864 449.516 305.079C445.08 305.928 440.573 306.353 436.056 306.348Z" fill="#390075"/>
<path d="M197.985 134.817C262.89 117.174 321.278 101.238 363.572 139.071C405.135 176.253 397.651 274.396 340.961 285.896C281.072 297.491 234.247 242.055 170.961 243.602L197.985 134.817Z" fill="#FFAD40"/>
<path d="M384.58 242.499C377.334 264.205 362.802 281.483 340.969 285.919C281.073 297.507 234.255 242.078 170.97 243.626L172.914 235.816L197.994 134.817C262.898 117.174 321.287 101.238 363.58 139.071C389.128 161.928 396.136 207.84 384.58 242.499Z" fill="#FFAD40"/>
<path d="M384.58 242.499C377.334 264.206 362.802 281.483 340.969 285.92C329.866 288.021 318.471 288.048 307.358 285.999C262.279 278.142 221.97 242.349 170.97 243.626L172.914 235.817L197.994 134.817C226.105 127.174 252.993 119.857 277.882 117.087C310.422 113.46 339.604 117.627 363.596 139.071C389.128 161.928 396.136 207.841 384.58 242.499Z" fill="#FFAD40"/>
<path d="M389.827 213.73C389.389 223.524 387.622 233.213 384.573 242.531C378.303 261.309 366.581 276.777 349.39 283.483C346.646 284.547 343.816 285.373 340.93 285.952C338.414 286.444 335.93 286.809 333.462 287.063C330.993 287.317 328.47 287.483 326.01 287.523C319.746 287.635 313.486 287.135 307.319 286.031C262.24 278.174 221.93 242.38 170.93 243.658L172.875 235.849L194.541 148.619L194.684 148.023L197.954 134.849C226.065 127.206 252.954 119.889 277.843 117.119C310.382 113.492 339.565 117.658 363.557 139.103C382.469 155.968 391.223 185.46 389.827 213.73Z" fill="#FFAD40"/>
<g opacity="0.5">
<path d="M305.096 125.198C318.208 123.61 340.509 127.245 354.501 144.388C366.128 158.674 358.517 160.507 348.771 157.087C340.906 154.356 337.35 151.031 316.231 142.007C300.779 135.404 291.985 126.761 305.096 125.198Z" fill="white"/>
</g>
<path d="M194.715 147.992L334.207 270.15C332.794 275.436 332.945 281.809 333.493 287.031C333.844 290.435 334.406 293.815 335.175 297.15L326.041 287.491L194.572 148.603L190.604 144.404L194.715 147.992Z" fill="#FF9343"/>
<path d="M389.826 213.729C389.389 223.524 387.622 233.213 384.573 242.531C378.303 261.308 366.58 276.777 349.39 283.483L334.207 270.181C335.795 264.245 339.342 259.674 346.525 259.594C364.969 259.372 385.199 245.523 389.826 213.729Z" fill="#FF9343"/>
<path d="M307.35 285.999C262.271 278.142 221.961 242.349 170.961 243.626L172.906 235.817L197.985 134.817C226.096 127.174 252.985 119.857 277.874 117.087C284.088 129.666 291.366 150.714 290.906 179.968C290.39 214.341 296.747 188.452 328.874 188.444C355.318 188.428 320.501 260.499 307.35 285.999Z" fill="#FF9343"/>
<path d="M384.58 242.499C377.334 264.205 362.802 281.483 340.969 285.92C281.073 297.507 234.255 242.078 170.97 243.626L172.914 235.817C203.501 239.785 263.39 248.428 304.223 259.555C352.485 272.729 373.049 268.65 384.58 242.499Z" fill="#F9D3B7"/>
<path d="M324.081 290.396C298.533 290.396 275.327 279.88 251.01 268.864C225.962 257.515 200.05 245.761 171.034 246.483C170.659 246.493 170.285 246.428 169.935 246.293C169.585 246.158 169.264 245.956 168.992 245.697C168.72 245.438 168.502 245.129 168.35 244.786C168.198 244.443 168.115 244.073 168.105 243.698C168.096 243.322 168.16 242.949 168.295 242.599C168.43 242.249 168.633 241.928 168.892 241.656C169.15 241.385 169.46 241.166 169.803 241.014C170.146 240.862 170.516 240.778 170.891 240.769C201.224 240.023 227.74 252.039 253.375 263.658C282.24 276.737 309.509 289.055 340.422 283.11C360.819 278.967 376.509 261.928 383.438 236.372C392.962 201.071 383.85 161.047 361.668 141.206C320.581 104.452 264.232 119.777 198.97 137.507L198.716 137.571C197.98 137.77 197.194 137.668 196.532 137.288C195.871 136.907 195.388 136.28 195.189 135.543C194.99 134.807 195.091 134.021 195.472 133.359C195.852 132.698 196.479 132.214 197.216 132.016L197.47 131.944C230.113 123.079 260.962 114.698 289.208 113.238C321.335 111.579 345.557 119.103 365.462 136.904C389.168 158.111 399.041 200.555 388.938 237.833C381.43 265.547 364.144 284.086 341.517 288.682C335.773 289.808 329.934 290.382 324.081 290.396Z" fill="#390075"/>
<path d="M284.359 232.729C279.915 259.562 263.645 293.475 231.685 311.3C231.2 311.578 230.716 311.84 230.224 312.094C207.422 324.253 174.256 323.705 169.034 301.777C164.574 283.054 180.065 273.578 196.986 263.213C213.121 253.34 230.558 242.666 233.272 222.428L284.359 232.729Z" fill="#FFAD40"/>
<path d="M273.533 265.968C275.056 251.11 271.485 239.214 260.041 250.023C239.993 268.983 210.93 268.777 195.755 277.801C180.58 286.825 180.763 302.571 203.398 308.285C222.723 313.158 244.858 299.936 255.493 292.356C248.6 299.882 240.548 306.259 231.644 311.245C231.167 311.515 230.684 311.777 230.192 312.039C207.398 324.198 174.223 323.642 169.009 301.769C164.541 283.039 180.025 273.563 196.953 263.198C213.088 253.325 230.525 242.642 233.231 222.412L284.326 232.73C282.369 244.276 278.732 255.474 273.533 265.968Z" fill="#FFAD40"/>
<path d="M232.343 305.173C232.241 307.219 232.018 309.257 231.676 311.277C231.2 311.547 230.716 311.808 230.224 312.07C207.43 324.229 174.256 323.673 169.041 301.8C164.573 283.07 180.057 273.594 196.986 263.229C203.712 264.296 210.136 266.777 215.835 270.507C208.105 272.626 201.097 274.658 195.788 277.832C180.621 286.88 180.795 302.602 203.43 308.316C212.954 310.713 223.16 308.721 232.343 305.173Z" fill="#F9D3B7"/>
<path d="M273.533 265.968C275.056 251.11 271.485 239.214 260.041 250.023C239.993 268.983 210.93 268.777 195.755 277.801C180.58 286.825 180.763 302.571 203.398 308.285C222.723 313.158 244.858 299.936 255.493 292.356C248.6 299.882 240.548 306.259 231.644 311.245C231.167 311.515 230.684 311.777 230.192 312.039C207.398 324.198 174.223 323.642 169.009 301.769C164.541 283.039 180.025 273.563 196.953 263.198C213.088 253.325 230.525 242.642 233.231 222.412L284.326 232.73C282.369 244.276 278.732 255.474 273.533 265.968Z" fill="#FF9343"/>
<path d="M231.685 311.269C231.2 311.547 230.716 311.809 230.224 312.063C207.422 324.221 174.256 323.674 169.034 301.745C164.574 283.023 180.065 273.547 196.986 263.182C207.399 264.999 218.819 269.737 226.137 280.912C232.811 291.15 233.177 302.301 231.685 311.269Z" fill="#FFF3E9"/>
<path d="M232.343 305.173C232.241 307.219 232.018 309.257 231.676 311.277C231.2 311.547 230.716 311.808 230.224 312.07C207.43 324.229 174.256 323.673 169.041 301.8C164.573 283.07 180.057 273.594 196.986 263.229C203.712 264.296 210.136 266.777 215.835 270.507C208.105 272.626 201.097 274.658 195.788 277.832C180.621 286.88 180.795 302.602 203.43 308.316C212.954 310.713 223.16 308.721 232.343 305.173Z" fill="#F9D3B7"/>
<path d="M198.946 322.848C192.208 322.848 185.907 321.721 180.74 319.388C173.081 315.943 168.041 310.086 166.256 302.459C161.311 281.721 178.692 271.086 195.494 260.793C211.43 251.039 227.906 240.952 230.414 222.063C230.466 221.691 230.591 221.333 230.782 221.009C230.972 220.685 231.225 220.402 231.525 220.176C231.825 219.949 232.166 219.784 232.53 219.69C232.893 219.596 233.272 219.574 233.644 219.626C234.016 219.678 234.374 219.803 234.698 219.994C235.022 220.184 235.305 220.437 235.531 220.737C235.758 221.037 235.923 221.378 236.017 221.742C236.111 222.106 236.133 222.484 236.081 222.856C233.192 244.444 214.74 255.745 198.454 265.713C182.01 275.777 167.811 284.475 171.795 301.174C173.208 307.094 177.002 311.491 183.065 314.213C194.914 319.554 213.739 317.65 228.851 309.586C261.088 292.388 277.192 258.388 281.517 232.301C281.659 231.57 282.081 230.923 282.692 230.499C283.303 230.074 284.056 229.904 284.79 230.026C285.525 230.149 286.183 230.552 286.624 231.152C287.065 231.752 287.254 232.5 287.152 233.237C282.613 260.666 265.62 296.451 231.541 314.634C221.488 319.936 210.311 322.752 198.946 322.848Z" fill="#390075"/>
<path d="M351.175 192.88C351.175 192.88 311.866 175.984 289.056 208.015C271.469 232.73 275.953 267.721 284.525 281.713C277.16 288.602 257.136 312.737 276.318 328.745C285.048 336.062 302.509 339.856 313.659 336.086C330.397 330.467 339.85 317.213 344.111 305.134C351.175 285.086 347.977 268.761 346.302 258.206" fill="#FFAD40"/>
<path d="M347.596 266.65C348.913 276.705 349.501 289.84 344.104 305.142C339.85 317.213 330.398 330.467 313.66 336.094C302.485 339.848 285.088 336.094 276.31 328.761C257.398 312.959 276.62 289.269 284.247 282.015L284.557 281.721C275.985 267.729 271.501 232.737 289.088 208.023C311.898 175.991 351.207 192.888 351.207 192.888L346.342 258.221C346.731 260.713 347.207 263.531 347.628 266.65H347.596Z" fill="#FFAD40"/>
<path d="M288.636 272.229C290.906 282.745 308.184 290.309 317.755 287.261C332.247 282.658 319.382 247.857 301.501 246.515C292.025 245.809 284.866 254.761 288.636 272.229Z" fill="#FF9343"/>
<path d="M344.104 305.142C339.85 317.213 330.398 330.467 313.66 336.094C302.485 339.848 285.088 336.094 276.31 328.761C257.398 312.959 276.62 289.269 284.247 282.015C287.937 285.714 293.77 289.626 302.89 292.555C326.548 300.142 345.985 286.285 347.628 266.658C348.913 276.706 349.501 289.841 344.104 305.142Z" fill="#FFF3E9"/>
<path d="M284.866 290.245C284.866 290.245 273.604 304.935 283.85 311.285C299.937 321.269 319.652 308.562 325.247 301.507C330.842 294.451 295.953 306.626 284.866 290.245Z" fill="#F9D3B7"/>
<path d="M351.176 192.88C334.287 188.69 314.731 188.849 300.668 200.118C282.517 215.198 277.771 241.475 281.62 263.912C282.668 269.634 284.263 275.372 286.946 280.221C287.302 280.779 287.449 281.444 287.36 282.1C287.271 282.755 286.953 283.358 286.462 283.801C278.985 291.213 271.708 301.062 271.089 311.848C270.533 323.078 280.977 330.181 290.834 332.777C297.644 334.673 305.398 335.404 312.12 333.356C319.026 331.087 325.26 327.138 330.263 321.864C340.62 311.078 344.779 295.904 346.056 281.309C346.755 273.602 346.295 265.983 346.287 258.213C354.564 280.721 351.842 308.388 334.89 326.293C329.107 332.308 321.888 336.755 313.914 339.213C305.66 341.515 297.247 340.626 289.215 338.372C262.961 330.531 258.977 309.801 274.549 288.793C276.938 285.503 279.618 282.435 282.557 279.626L282.072 283.205C275.326 272.094 273.446 258.936 273.604 246.206C274.081 217.063 292.136 186.46 324.112 186.309C333.535 186.21 342.833 188.469 351.16 192.88H351.176Z" fill="#390075"/>
<path d="M313.89 294.808C305.406 294.864 296.787 293.364 289.287 289.173C286.656 287.623 284.281 285.674 282.247 283.396C281.978 283.097 281.774 282.744 281.65 282.362C281.525 281.979 281.482 281.574 281.523 281.174C281.565 280.774 281.69 280.387 281.891 280.038C282.092 279.689 282.364 279.386 282.689 279.149C283.015 278.912 283.386 278.746 283.78 278.662C284.173 278.578 284.58 278.577 284.974 278.66C285.368 278.743 285.74 278.908 286.066 279.144C286.392 279.38 286.664 279.682 286.866 280.031C288.192 282.138 289.83 284.033 291.724 285.65C297.985 290.705 306.009 293.491 313.946 294.808H313.89Z" fill="#390075"/>
<path d="M302.835 307.443C299.684 313.041 298.182 319.416 298.502 325.832C298.776 329.458 299.749 332.996 301.367 336.253L296.033 338.324C295.244 335.587 294.815 332.759 294.755 329.911C294.711 321.703 297.573 313.744 302.835 307.443Z" fill="#390075"/>
<path d="M284.866 301.507C282.247 305.7 280.368 310.312 279.31 315.142C278.253 319.654 278.51 324.374 280.049 328.745L274.533 330.261C272.683 319.578 277.882 309.173 284.85 301.507H284.866Z" fill="#390075"/>
<path d="M203.43 302.285C196.819 310.42 186.565 319.34 175.24 316.031L177.375 310.721C178.3 311.202 179.285 311.56 180.303 311.785C188.684 313.205 197.216 307.499 203.43 302.261V302.285Z" fill="#390075"/>
<path d="M190.597 285.459C186.153 286.847 182.1 289.267 178.771 292.523C175.602 295.624 173.211 299.431 171.795 303.634L166.605 301.253C171.589 292.626 180.676 286.467 190.597 285.507V285.459Z" fill="#390075"/>
<path d="M222.279 68.3411C255.12 50.8808 291.088 44.6586 302.255 54.73C311.128 62.7379 302.699 101.277 268.009 157.745" fill="#FFAD40"/>
<path d="M268.009 157.753L222.279 68.3486L223.072 67.9122C255.699 50.7376 291.16 44.7377 302.239 54.7297C303.612 55.9678 304.564 57.9043 305.08 60.5709C307.906 75.0471 297.35 109.983 268.009 157.753Z" fill="#FFAD40"/>
<path d="M269.374 155.507L268.009 157.753L253.763 129.904L222.279 68.3486L223.072 67.9122C255.699 50.7376 291.16 44.7377 302.239 54.7297C303.612 55.9678 304.564 57.9043 305.08 60.5709C305.077 60.6132 305.077 60.6557 305.08 60.6979C307.802 75.0233 297.596 109.031 269.374 155.507Z" fill="#FFAD40"/>
<g opacity="0.5">
<path d="M305.096 60.5554L304.914 60.3967C294.231 49.2857 258.271 53.1031 225.914 73.4522L223.089 67.8967C255.715 50.7221 291.176 44.7222 302.255 54.7142C303.628 55.9682 304.58 57.9205 305.096 60.5554Z" fill="white"/>
</g>
<path d="M269.374 155.508L253.763 129.904C254.715 119.079 257.659 103.373 266.413 90.9126C279.183 72.7539 294.683 54.9286 305.12 60.6984C307.802 75.0238 297.596 109.032 269.374 155.508Z" fill="#FF9343"/>
<path d="M268.001 160.658C267.466 160.656 266.942 160.508 266.485 160.23C265.838 159.825 265.376 159.182 265.198 158.44C265.02 157.698 265.14 156.916 265.533 156.261C285.572 123.627 294.62 100.706 298.683 87.2141C304.239 68.7618 303.033 59.3412 300.271 56.8809C291.239 48.7381 258.279 52.4206 223.612 70.9047C223.274 71.1056 222.898 71.2358 222.508 71.2874C222.117 71.3389 221.721 71.3108 221.342 71.2048C220.962 71.0988 220.609 70.917 220.302 70.6704C219.995 70.4238 219.741 70.1176 219.556 69.7702C219.371 69.4228 219.258 69.0414 219.224 68.6492C219.19 68.2569 219.236 67.862 219.36 67.4881C219.483 67.1142 219.681 66.7691 219.941 66.4737C220.201 66.1784 220.519 65.9389 220.874 65.7697C255.39 47.3729 291.977 41.5715 304.168 52.5635C311.31 59.0158 308.136 75.8808 304.207 88.8966C300.048 102.69 290.818 126.103 270.445 159.261C270.19 159.683 269.832 160.032 269.404 160.277C268.977 160.521 268.493 160.653 268.001 160.658Z" fill="#390075"/>
<path d="M112.589 81.9838C115.24 43.4283 137.986 3.00788 149.193 2.84915C163.272 2.65074 185.787 35.7776 194.16 63.0314" fill="#FFAD40"/>
<path d="M194.16 63.0316L178.748 66.611L112.589 81.9839C114.709 51.0952 129.756 19.0159 141.399 7.38102C144.288 4.49214 146.955 2.86518 149.193 2.83343C163.272 2.61915 185.787 35.7698 194.16 63.0316Z" fill="#FFAD40"/>
<path d="M178.748 66.6108L112.589 81.9837C114.709 51.0949 129.756 19.0157 141.399 7.3808C147.994 9.3173 171.462 21.0395 178.748 66.6108Z" fill="#FF9343"/>
<path d="M112.589 84.8489H112.359C111.603 84.796 110.898 84.4455 110.4 83.8743C109.902 83.3031 109.65 82.5577 109.7 81.8013C110.922 64.0633 116.534 43.9999 125.105 26.7539C128.2 20.5159 139.089 0.142857 149.113 0H149.271C165.065 0 188.16 33.9364 196.89 62.2061C197.112 62.9313 197.038 63.7149 196.682 64.3847C196.326 65.0545 195.719 65.5555 194.994 65.7775C194.269 65.9996 193.485 65.9246 192.815 65.5689C192.145 65.2131 191.644 64.6058 191.422 63.8807C182.875 36.103 160.89 5.71432 149.319 5.71432H149.224C141.224 5.83337 118.177 42.2935 115.431 82.1902C115.38 82.9104 115.059 83.5848 114.532 84.078C114.005 84.5713 113.311 84.8467 112.589 84.8489Z" fill="#390075"/>
<path d="M146.057 18.492C150.025 17.1428 158.525 24.2777 164.906 38.984C168.875 48.1585 171.589 57.4204 170.835 62.6347C162.168 63.976 141.605 68.1029 120.669 73.5394C124.462 48.0078 139.525 20.6904 146.057 18.492Z" fill="#FFF3E9"/>
<path d="M170.835 62.6188C162.168 63.968 141.605 68.095 120.669 73.5315C120.724 73.1426 120.787 72.7378 120.859 72.3728C121.977 65.6758 123.671 59.0878 125.922 52.6823C131.978 35.222 141.002 20.5872 145.819 18.5554C145.895 18.5156 145.975 18.4837 146.057 18.4602C150.025 17.111 158.534 24.246 164.914 38.9523C168.891 48.1506 171.581 57.4204 170.835 62.6188Z" fill="#FFF3E9"/>
<path d="M170.835 62.619C162.168 63.9682 141.605 68.0952 120.669 73.5317C120.724 73.1428 120.787 72.738 120.859 72.373C120.994 71.5238 121.137 70.6746 121.303 69.8254C122.333 64.0054 123.658 58.2414 125.272 52.5556L125.938 52.6825C130.986 53.627 139.057 53.5476 145.565 46.2858C153.906 36.9763 149.621 25.7699 145.835 18.5795C145.911 18.5396 145.991 18.5077 146.073 18.4843C150.041 17.1351 158.549 24.27 164.93 38.9763C168.891 48.1509 171.581 57.4206 170.835 62.619Z" fill="#F9D3B7"/>
<path d="M149.145 52.4048C148.62 52.3739 148.097 52.4835 147.629 52.7223C146.986 53.1271 146.835 54.2382 146.756 55.1032C146.676 55.9683 147.081 58.4048 151.034 63.4286C157.502 62.0635 163.581 60.8889 168.049 60.127C167.922 56.7302 166.716 51.77 164.597 46.0081C162.399 44.262 158.819 43.1588 157.748 43.4922C156.954 43.7303 156.851 44.0239 156.788 44.1429C156.51 44.762 156.454 46.1668 157.835 49.3334C158.169 49.9026 158.317 50.5616 158.258 51.2187C158.2 51.8758 157.938 52.4985 157.51 53.0001C157.129 53.4174 156.635 53.7148 156.089 53.8557C155.542 53.9967 154.965 53.9751 154.43 53.7937L154.081 53.6589C152.534 52.9198 150.857 52.4936 149.145 52.4048Z" fill="#512717"/>
<path d="M117.208 77.3886L117.843 73.1109C121.581 47.984 136.891 18.5714 145.145 15.7777C151.621 13.5952 161.017 22.8651 167.533 37.8333C170.271 44.1824 174.676 55.8015 173.668 63.0316L173.367 65.1268L171.271 65.4443C163.446 66.6665 142.986 70.6903 121.391 76.3014L117.208 77.3886ZM146.97 21.1984C142.716 22.6349 128.978 45.4364 124.232 69.6744C142.573 65.0474 159.581 61.6268 168.089 60.1506C167.93 55.603 165.819 48.2459 162.287 40.0872C155.954 25.5158 148.478 20.7302 146.97 21.1984Z" fill="#390075"/>
<path d="M149.144 52.3571C148.595 52.3179 148.046 52.4304 147.557 52.6824C146.898 53.0951 146.708 54.2698 146.668 55.111C146.628 55.9523 146.993 58.4364 150.969 63.4919C157.477 62.1189 163.581 60.9364 168.057 60.1745C167.938 56.7698 166.731 51.7777 164.596 45.9841C162.39 44.2301 158.779 43.119 157.7 43.4523C156.906 43.6983 156.763 44 156.707 44.1349C156.422 44.7619 156.366 46.1746 157.747 49.3571C158.072 49.9195 158.216 50.5681 158.161 51.2153C158.106 51.8624 157.853 52.4769 157.438 52.9761L156.176 54.3412L154.406 53.746C154.29 53.7073 154.176 53.6622 154.065 53.611C152.522 52.8766 150.85 52.4506 149.144 52.3571Z" fill="#390075"/>
<path d="M239.295 72.7538C217.588 56.9284 187.866 50.119 181.89 48.8809C176.395 47.7093 170.826 46.9138 165.223 46.4999C113.858 43.0317 88.0014 84.8252 67.8983 123.484C67.8983 123.484 50.6445 136.587 48.7318 159.063C46.0651 190.317 78.303 238.531 162.723 255.578C214.787 266.094 255.263 255.11 271.453 226.594C284.151 204.166 292.302 162.388 280.906 123.42" fill="#FFAD40"/>
<path d="M278.89 209.444C276.942 215.397 274.431 221.15 271.39 226.626C255.231 255.142 214.755 266.126 162.66 255.61C78.2395 238.563 45.9938 190.348 48.6605 159.095C49.9859 143.611 58.5808 132.587 63.803 127.214C65.0702 125.897 66.4197 124.662 67.8429 123.515C87.9381 84.817 113.795 43.0315 165.16 46.5314C170.763 46.9412 176.332 47.7367 181.826 48.9124C187.802 50.1584 217.541 56.96 239.231 72.7774L280.771 123.571C289.747 153.96 286.707 186.126 278.89 209.444Z" fill="#FFAD40"/>
<g opacity="0.5">
<path d="M178.097 48.9285C172.528 48.1083 166.909 47.6708 161.279 47.6189C109.796 47.3174 86.5655 90.6268 68.8989 130.492C67.5478 131.731 66.2779 133.057 65.0973 134.46C60.2164 140.135 52.3195 151.674 51.9545 167.214C51.8855 172 52.5299 176.769 53.8669 181.364C53.3313 178.401 53.0896 175.392 53.1449 172.38C53.51 156.849 61.4146 145.309 66.2955 139.635C67.4723 138.231 68.7398 136.905 70.0894 135.666C87.7639 95.8014 110.994 53.3649 162.47 53.6665C167.787 53.6665 173.398 53.2459 179.295 54.0951C185.041 54.9285 218.811 61.0872 240.969 73.976C236.485 69.738 225.168 64.0713 220.946 60.8888C201.993 52.746 182.787 49.6031 178.097 48.9285Z" fill="white"/>
</g>
<path d="M278.89 209.444C276.942 215.397 274.431 221.15 271.39 226.626C255.231 255.142 214.755 266.126 162.66 255.61C78.2395 238.563 45.9938 190.349 48.6605 159.095C49.9859 143.611 58.5808 132.587 63.803 127.214C91.3505 132.769 87.6602 154.674 109.676 156.087C120.366 156.777 125.549 148.15 141.827 152.912C163.334 159.261 167.501 177.666 185.676 183.864C205.969 190.793 209.93 176.111 244.287 188.277C259.437 193.65 272.025 202.65 278.778 209.261C278.805 209.328 278.843 209.39 278.89 209.444Z" fill="#FFF3E9"/>
<path d="M278.898 209.443C276.945 215.407 274.429 221.171 271.382 226.658C255.224 255.173 218.271 263.523 174.295 257.507L163.152 255.713L124.803 243.999C79.6687 223.705 55.3672 200.348 49.772 175.229L49.8987 175.142C61.0098 196.094 94.5973 226.348 154.78 240.308C204.779 251.904 253.335 251.213 273.16 218.332C274.842 215.562 277.239 212.674 278.827 209.348L278.898 209.443Z" fill="#F9D3B7"/>
<path d="M239.295 72.7538C224.088 63.7856 207.493 57.984 190.493 53.7062C164.779 46.9602 139.247 46.8809 117.033 63.1824C96.3984 77.6348 81.3189 104.841 70.7792 124.293C70.5941 124.967 70.1995 125.565 69.6523 126L69.581 126.063L69.438 126.174L69.1443 126.42L68.5572 126.92C56.3588 137.682 49.0255 154.484 52.1366 170.769C55.2001 187.761 66.0332 202.587 78.6839 214.071C105.001 237.499 140.089 249.206 174.509 254.483C207.112 259.134 248.794 256.817 268.017 226.102C272.405 218.729 275.548 210.468 277.937 202.182C285.08 176.626 284.985 149.714 280.834 123.563C294.469 154.912 290.136 199.801 273.485 229.372C248.009 270.586 187.835 266.317 147.009 255.237C112.279 245.793 77.073 228.523 56.8985 197.499C49.5017 185.833 44.3906 171.698 45.9382 157.603C47.4858 143.508 55.0253 130.619 65.6364 121.531C66.6205 120.738 65.2159 121.579 64.9381 122.889C68.9063 114.682 73.4063 106.706 78.0809 98.8092C101.033 60.1982 131.835 35.7698 178.787 45.4047C200.39 49.9999 222.334 58.3729 239.295 72.7935V72.7538Z" fill="#390075"/>
<path d="M223.279 123.896C225.517 120.127 217.295 102.095 208.2 102.563C199.105 103.031 197.176 112.198 201.057 116.452C206.629 122.642 221.041 127.658 223.279 123.896Z" fill="#FFF3E9"/>
<path d="M115.636 88.9997C116.358 84.6743 133.033 76.0156 139.081 82.1425C145.128 88.2695 140.93 96.5552 135.66 97.3886C128.009 98.6029 114.914 93.3171 115.636 88.9997Z" fill="#FFF3E9"/>
<path d="M296.183 62.4916C287.493 57.9757 258.993 68.2377 252.017 77.0472C246.668 83.8011 261.993 88.7455 277.929 116.261C291.445 101.706 299.969 64.4598 296.183 62.4916Z" fill="#FFF3E9"/>
<path d="M277.929 116.254L277.699 115.865C261.826 88.706 246.692 83.7696 252.017 77.0474C258.993 68.2379 287.493 57.9998 296.175 62.4918C296.667 62.7378 296.969 63.5791 297.041 64.8728C297.691 73.6584 289.699 103.579 277.929 116.254Z" fill="#FFF3E9"/>
<path d="M280.16 112.619C279.366 113.777 278.572 114.873 277.699 115.865C261.826 88.706 246.692 83.7696 252.017 77.0474C258.993 68.2379 287.493 57.9998 296.175 62.4918C296.667 62.7378 296.969 63.5791 297.041 64.8728C297.041 65.8648 296.993 66.6586 296.961 67.1506C290.271 66.6506 278.81 67.3887 273.612 77.1585C266.771 90.0156 277.763 99.1822 280.16 112.619Z" fill="#F9D3B7"/>
<path d="M277.93 119.119H277.604C277.161 119.067 276.735 118.913 276.362 118.667C275.988 118.422 275.677 118.093 275.454 117.706C267.993 104.833 260.827 97.1743 255.612 91.5791C249.731 85.2854 245.478 80.7459 249.803 75.2856C257.549 65.4999 287.382 54.7062 297.525 59.9681C298.161 60.3437 298.699 60.866 299.092 61.4914C299.486 62.1168 299.724 62.8272 299.787 63.5634C301.311 72.357 292.763 104.531 280.041 118.222C279.771 118.51 279.444 118.739 279.08 118.893C278.716 119.048 278.325 119.125 277.93 119.119ZM290.239 64.1903C279.866 64.1903 259.819 71.8014 254.255 78.8173C253.184 80.1744 254.009 81.4998 259.763 87.6585C266.764 94.8686 272.978 102.802 278.303 111.325C288.779 97.2219 295.152 70.1824 294.176 64.7379C292.903 64.3382 291.573 64.153 290.239 64.1903Z" fill="#512717"/>
<path d="M277.93 119.118C277.824 119.127 277.718 119.127 277.613 119.118C277.167 119.072 276.74 118.92 276.364 118.676C275.989 118.431 275.677 118.102 275.454 117.714C270.644 109.389 264.918 101.629 258.383 94.5789C257.406 93.5154 256.485 92.5313 255.62 91.6106C249.716 85.3091 245.454 80.7535 249.779 75.2932C251.613 72.9837 254.636 70.5949 258.771 68.2218C269.636 61.9758 289.144 55.6425 297.493 59.9758C298.129 60.3525 298.667 60.8748 299.062 61.4999C299.456 62.1249 299.697 62.8349 299.763 63.5711C301.287 72.3726 292.731 104.539 280.025 118.23C279.754 118.512 279.429 118.736 279.069 118.888C278.708 119.041 278.321 119.119 277.93 119.118ZM290.43 64.2457C283.2 64.2457 270.747 67.9123 261.62 73.1583C258.168 75.1424 255.62 77.1266 254.263 78.817C253.184 80.1821 254.009 81.5075 259.819 87.6821C260.692 88.6107 261.628 89.6106 262.628 90.6979C268.512 97.0559 273.769 103.966 278.327 111.333C288.803 97.2296 295.168 70.2139 294.2 64.7615C292.98 64.3856 291.706 64.2113 290.43 64.2457Z" fill="#390075"/>
<path d="M122.375 174.84C124.899 182.42 116.97 199.864 126.026 204.737C138.113 211.245 147.898 190.507 150.208 183.88" fill="#232333"/>
<path d="M150.208 183.849C148.625 188.21 146.531 192.368 143.97 196.237C139.51 202.888 133.161 208.547 126.018 204.706C121.851 202.46 121.256 197.563 121.637 192.166C122.058 185.856 123.74 178.896 122.375 174.809L134.32 170.896L150.208 183.849Z" fill="#390075"/>
<path d="M143.97 196.269C139.51 202.92 133.161 208.579 126.018 204.738C121.851 202.491 121.256 197.595 121.637 192.198C124.304 191.69 127.582 192.198 130.629 195.753C130.613 195.722 139.018 192.301 143.97 196.269Z" fill="#FF67A0"/>
<path d="M135.137 194.547C133.734 194.782 132.398 195.315 131.219 196.111C130.04 196.906 129.046 197.945 128.303 199.158C128.303 199.158 127.819 192.507 131.637 190.991C134.462 189.864 136.399 194.277 135.137 194.547Z" fill="#390075"/>
<path d="M130.701 207.745C128.755 207.731 126.844 207.226 125.145 206.277C118.407 202.65 119.494 193.848 120.447 186.078C120.97 181.832 121.47 177.832 120.645 175.372C120.496 174.922 120.531 174.43 120.744 174.006C120.957 173.582 121.33 173.26 121.78 173.11C122.231 172.961 122.722 172.996 123.146 173.209C123.57 173.422 123.893 173.795 124.042 174.245C125.114 177.467 124.574 181.864 123.994 186.515C123.137 193.467 122.248 200.666 126.836 203.134C127.845 203.72 128.974 204.067 130.138 204.148C131.302 204.229 132.469 204.042 133.55 203.602C141.002 200.697 146.859 187.936 148.486 183.261C148.642 182.814 148.969 182.447 149.395 182.24C149.822 182.034 150.313 182.006 150.76 182.162C151.207 182.318 151.575 182.645 151.781 183.071C151.987 183.497 152.015 183.988 151.859 184.436C149.653 190.785 143.248 203.666 134.851 206.928C133.531 207.457 132.123 207.734 130.701 207.745Z" fill="#390075"/>
<path d="M157.422 179.729C153.453 184.364 149.041 186.452 143.057 185.285C136.565 184.047 134.327 177.793 133.382 173.38C132.239 174.791 130.664 175.788 128.899 176.218C127.134 176.648 125.277 176.488 123.613 175.761C116.732 172.587 118.39 162.372 118.39 162.372C118.39 162.372 127.787 154.253 141.747 160.507C155.707 166.761 157.422 179.729 157.422 179.729Z" fill="#FFF3E9"/>
<path d="M158.232 180.396C156.574 182.855 154.319 184.852 151.676 186.198C145.954 188.849 138.105 187.785 134.62 182.166C132.987 179.63 131.838 176.812 131.232 173.856L135.137 174.706C129.256 182.245 118.121 178.444 117.034 169.285C116.681 166.944 116.783 164.556 117.335 162.253C117.395 161.988 117.555 161.755 117.781 161.603C118.006 161.451 118.282 161.39 118.551 161.434C118.82 161.477 119.062 161.621 119.228 161.837C119.394 162.053 119.472 162.323 119.446 162.595C119.397 164.623 119.645 166.647 120.184 168.603C120.613 170.362 121.588 171.94 122.97 173.11C125.526 175.142 129.589 174.468 131.621 172.087L134.597 168.372C135.39 171.944 135.97 176.817 138.184 179.642C140.906 183.444 146.168 184.452 150.383 183.071C152.728 182.182 154.852 180.793 156.605 178.999C156.799 178.82 157.053 178.718 157.317 178.713C157.582 178.708 157.839 178.801 158.04 178.973C158.241 179.146 158.371 179.386 158.407 179.648C158.442 179.911 158.38 180.177 158.232 180.396Z" fill="#390075"/>
<path d="M136.501 164.277C134.7 163.404 134.303 168.452 131.414 171.976C130.295 173.333 136.445 177.237 135.993 174.174C135.001 167.372 139.065 165.507 136.501 164.277Z" fill="#390075"/>
<path d="M141.24 180.571C137.97 178.841 136.414 170.936 138.319 168.023C139.747 165.841 144.43 165.642 143.692 167.547C138.541 180.88 153.533 179.944 153.533 179.944C153.533 179.944 145.97 183.079 141.24 180.571Z" fill="#F9D3B7"/>
<path d="M124.136 171.968C128.104 174.666 132.581 168.214 134.216 165.126C135.43 162.825 133.866 161.341 132.716 163.039C124.716 174.944 120.295 163.444 120.295 163.444C120.295 163.444 120.295 169.357 124.136 171.968Z" fill="#F9D3B7"/>
<path d="M128.423 154.674C127.137 158.317 130.065 162.96 132.51 165.991C133.337 167.022 134.436 167.801 135.683 168.24C136.93 168.679 138.274 168.761 139.565 168.476C143.367 167.682 148.557 165.856 149.843 162.214C151.922 156.293 130.502 148.753 128.423 154.674Z" fill="#390075"/>
<g opacity="0.35">
<path d="M133.954 155.182C133.716 155.857 135.01 156.976 136.033 157.738C136.801 158.288 137.709 158.607 138.652 158.658C139.93 158.706 141.644 158.658 141.875 157.968C142.263 156.873 134.335 154.087 133.954 155.182Z" fill="white"/>
</g>
<path d="M115.875 107.603C124.939 109.762 129.685 122.174 126.463 135.317C123.24 148.46 113.28 157.357 104.24 155.158C95.2007 152.96 90.431 140.595 93.6532 127.452C96.8754 114.309 106.804 105.436 115.875 107.603Z" fill="#390075"/>
<path d="M114.629 113.143C117.01 115.277 116.709 120.031 113.939 123.746C111.169 127.46 107.002 128.746 104.613 126.611C102.224 124.476 102.542 119.722 105.303 116C108.065 112.277 112.248 111 114.629 113.143Z" fill="white"/>
<path d="M114.478 143.761C115.462 145.198 114.787 147.642 112.978 149.214C111.168 150.785 108.906 150.904 107.93 149.46C106.954 148.015 107.621 145.579 109.43 144.008C111.24 142.436 113.502 142.301 114.478 143.761Z" fill="#B199C5"/>
<path d="M196.073 134.595C205.248 136.785 210.041 149.341 206.787 162.634C203.533 175.928 193.446 184.936 184.271 182.745C175.097 180.555 170.303 168.007 173.557 154.714C176.811 141.42 186.899 132.412 196.073 134.595Z" fill="#390075"/>
<path d="M194.811 140.206C197.192 142.365 196.914 147.174 194.113 150.936C191.311 154.698 187.097 155.992 184.684 153.825C182.272 151.658 182.581 146.857 185.383 143.095C188.184 139.333 192.407 138.039 194.811 140.206Z" fill="white"/>
<path d="M194.661 171.182C195.653 172.635 194.978 175.111 193.145 176.698C191.312 178.285 189.026 178.404 188.034 176.952C187.042 175.5 187.724 172.984 189.558 171.396C191.391 169.809 193.669 169.73 194.661 171.182Z" fill="#B199C5"/>
<path d="M187.406 196.69L183.692 207.412L241.248 219.11L243.176 208.602L187.406 196.69Z" fill="#E30613"/>
<path d="M182.549 212.976L178.843 223.698L236.398 235.396L238.327 224.888L182.549 212.976Z" fill="#1CA75E"/>
<path d="M63.4147 146.087L57.8433 154.142L103.002 177.206L107.042 168.912L63.4147 146.087Z" fill="#FFD500"/>
<path d="M57.8673 158.928L52.4071 166.825L96.6844 189.444L100.637 181.309L57.8673 158.928Z" fill="#004F9F"/>
</svg>
