<svg version="1.2" xmlns="http://www.w3.org/2000/svg" viewBox="0 0 803 427" width="803" height="427">
	<title>neon-cat-svg</title>
	<style>
		.s0 { fill: #fe0002 } 
		.s1 { fill: #1e1e28 } 
		.s2 { fill: #01ba5d } 
		.s3 { fill: #ffc900 } 
		.s4 { fill: #9fa9b2 } 
		.s5 { fill: #001477 } 
		.s6 { fill: #e2eaed } 
		.s7 { fill: #bcc6c9 } 
		.s8 { fill: #ffad40 } 
		.s9 { fill: #ff9343 } 
		.s10 { fill: #f9d3b7 } 
		.s11 { fill: #fff3e9 } 
		.s12 { fill: #390075 } 
		.s13 { fill: #ffffff } 
		.s14 { fill: #512717 } 
		.s15 { fill: #232333 } 
		.s16 { fill: #ff67a0 } 
		.s17 { fill: #b199c5 } 
		.s18 { fill: #e30613 } 
		.s19 { fill: #1ca75e } 
		.s20 { fill: #ffd500 } 
		.s21 { fill: #004f9f } 
	</style>
	<g id="Layer 1">
		<path id="Layer" fill-rule="evenodd" class="s0" d="m1176.9 122l-564.7 10-1.2-2h-12.8l-1.2 2-353.4 6.6v-28.6l353.4 4 1.2-2h12.8l1.2 2z"/>
		<path id="Layer" fill-rule="evenodd" class="s1" d="m1116.7 245.4l-503.7 9.6-1.7-2h-13.1l-1 2-413.7 7v-28.6l413.7 5.6 1-2h13.1l0.9 2z"/>
		<path id="Layer" fill-rule="evenodd" class="s2" d="m1036.5 160.6l-424.3 7.4-0.9-2-13.1 0.1-1 1.9-493.9 9.2v-28.7l493.9 6.5 0.8-2h13.3l0.9 2z"/>
		<path id="Layer" fill-rule="evenodd" class="s3" d="m1163 196l-550.8 10-1.2-2h-12.8l-1 2-367.5 6.6v-28.6l367.5 5 1-2h12.8l1.2 2z"/>
		<path id="Layer" class="s4" d="m90.1 263.6q-0.5 0-0.9-0.1l-2.2-0.4c-3.9-0.9-8-1.8-12.2-2.4q-0.3-0.1-0.7-0.2-1.4-0.5-2.6-1.2-0.9-0.5-1.4-1.3-0.6-0.7-0.7-1.7c-0.9-6.7-0.6-17.2 6.2-29.1 6.4-11.3 21.4-18.1 40-18.1 13.9 0 28.8 3.8 42 10.7 0.7 0.4 1.3 0.9 1.6 1.5 0.4 0.7 0.6 1.4 0.6 2.2 0 0.7-0.2 1.4-0.6 2.1-0.4 0.6-1 1.1-1.7 1.4-6.2 3-11.8 7.3-16.2 12.6-0.5 0.7-1.3 1.2-2.2 1.4-0.8 0.2-1.7 0.1-2.5-0.2-5.7-2.5-16.8-6.7-26.6-6.7-8.6 0-13.9 3.2-16.3 9.6-1.9 5.1-1.9 9.8 0.1 14.3q0.4 1 0.3 2-0.1 1-0.7 1.8-0.5 0.9-1.4 1.4-0.9 0.5-1.9 0.5z"/>
		<path id="Layer" class="s5" d="m115.6 205c-20.1 0-36.4 7.6-43.5 20.2-7.3 12.9-7.7 24.3-6.7 31.6 0.2 1.3 0.6 2.4 1.3 3.5 0.8 1 1.7 1.9 2.8 2.5q1.6 0.9 3.3 1.5 0.6 0.2 1.4 0.3c4 0.7 8 1.6 11.9 2.4l2.2 0.5q0.9 0.2 1.7 0.2c1.4 0 2.7-0.4 3.9-1 1.1-0.6 2.1-1.6 2.9-2.7 0.7-1.1 1.1-2.4 1.3-3.7 0.1-1.4-0.1-2.7-0.7-3.9-1.5-3.5-1.5-7.2 0-11.3 1.2-3.2 3.8-6.9 12.5-6.9 9.1 0 19.6 3.9 25 6.2 1.7 0.7 3.4 0.9 5.2 0.5 1.7-0.5 3.2-1.4 4.3-2.8 4-4.9 9.1-8.8 14.8-11.5 1.4-0.6 2.5-1.6 3.3-2.9 0.8-1.2 1.3-2.7 1.3-4.2 0-1.5-0.4-3-1.1-4.3-0.8-1.2-1.9-2.3-3.2-3-14.1-7.3-29.2-11.1-43.9-11.1zm0 8c12.6 0 26.7 3.3 40.1 10.3-6.8 3.2-12.8 7.8-17.6 13.6-6.2-2.7-17.7-6.9-28.2-6.9-8.6 0-16.6 2.9-20 12.2-2.5 6.7-2 12.4 0.1 17.3-4.6-1-9.5-2.1-14.6-2.9q-1-0.4-2-1c-0.9-6.5-0.4-15.8 5.7-26.5 5.8-10.3 19.8-16.1 36.5-16.1z"/>
		<path id="Layer" class="s4" d="m117 382.1c-16.1 0-31.6-3.9-43.8-11.2-12.5-7.4-20-17.4-21.2-28-1.6-13.6 2.2-23.4 5.7-29.2q0.5-0.8 1.3-1.4 0.8-0.5 1.7-0.6 0.9 0 1.9-0.1 0.5 0 1.1 0 0.3 0.1 0.7 0.2c4.1 1 8.2 1.7 12.1 2.5l2.3 0.4c0.7 0.2 1.4 0.5 1.9 1 0.6 0.5 1 1.1 1.2 1.9 0.2 0.7 0.2 1.4 0 2.1-0.2 0.8-0.6 1.4-1.2 1.9-3.5 3.4-5.4 7.7-5.6 13.1-0.1 1.8 0.1 3.6 0.8 5.3 0.6 1.7 1.6 3.2 2.8 4.5 7.5 7.8 25.4 10.6 38.4 10.6h0.3c0.8 0 1.7 0.3 2.4 0.8 0.7 0.5 1.2 1.3 1.4 2.1 0.6 2.1 1 4 1.4 5.8 0.9 4.3 1.6 7.8 4.7 11.3 0.5 0.6 0.8 1.3 0.9 2 0.1 0.8 0.1 1.5-0.2 2.2-0.3 0.7-0.8 1.3-1.4 1.8-0.6 0.4-1.3 0.7-2.1 0.7q-3.7 0.3-7.5 0.3z"/>
		<path id="Layer" class="s5" d="m62.6 307.6c-0.8 0-1.5 0-2.2 0.1-1.3 0.2-2.5 0.6-3.6 1.3-1 0.6-1.9 1.5-2.5 2.6-3.8 6.4-8 17-6.3 31.7 1.4 12 9.6 23 23.2 31.1 12.8 7.6 29 11.8 45.8 11.8 2.6 0 5.3-0.1 7.9-0.3 1.5-0.1 2.9-0.7 4.1-1.6 1.2-0.8 2.2-2 2.7-3.4 0.6-1.4 0.8-2.9 0.5-4.4-0.2-1.5-0.9-2.9-1.9-4-2.3-2.6-2.8-4.9-3.7-9.5-0.4-1.8-0.8-3.9-1.5-6.1-0.5-1.6-1.5-3.1-2.9-4.2-1.4-1-3.1-1.6-4.8-1.6h-0.3c-13.2 0-29.2-2.9-35.4-9.4-0.9-0.9-1.6-1.9-2-3.1-0.5-1.1-0.7-2.4-0.6-3.6 0.2-4.4 1.7-7.8 4.4-10.4 1.1-1 1.9-2.3 2.3-3.7 0.4-1.5 0.4-3 0-4.4-0.4-1.4-1.2-2.7-2.3-3.7-1.1-1-2.5-1.7-3.9-2l-2.3-0.4c-3.9-0.8-7.9-1.5-11.9-2.5q-0.7-0.2-1.4-0.2-0.7 0-1.4 0zm0 8h0.9c5 1.2 9.9 2.1 14.5 3-3.9 3.7-6.6 8.8-6.9 15.9-1 21.6 33.3 24.6 46 24.6h0.3c2 6.9 1.6 12.7 6.9 18.7q-3.7 0.3-7.3 0.3c-32 0-58.8-16.5-61-35.8-1.4-12.1 1.8-20.9 5.2-26.6q0.7-0.1 1.4-0.1"/>
		<path id="Layer" class="s6" d="m396.6 421.9c-11.1 0-17.3-10-23.8-20.6-7.7-12.7-15.7-25.8-32.8-25.8q-0.7 0-1.5 0c-7.4 0.9-18.1 5.6-30.5 11-24 10.4-56.9 24.7-94.4 24.8-2.9 0-5.9-0.1-8.7-0.3-57.6-3.4-87.9-18.7-92.5-46.8-4-23.8-8.2-30.7-20.6-34.1l-0.4-0.1c-10.7-2.9-20.8-5.6-28.5-5.6-2.4 0-4.8 0.3-7 1.1-2.7 1.1-3.6 4.7-4.8 10.1-1.1 5.2-2.2 10.7-6.7 13.4-4.6 2.7-13.2 4.1-25.7 4.1-4.4 0-8.3-0.2-10.8-0.3q-0.9-0.1-1.7-0.5-0.8-0.4-1.3-1.1c-1.4-1.8-1.5-1.9 2.1-19.7 3-14.4 7.7-36.4 12.2-57.7 5.9-27.6 12.6-58.8 13.2-63.2-0.1-0.8 0-1.7 0.4-2.4 1.3-2.4 4.1-2.4 5.5-2.4 4.7 0 25 2.1 32.3 11.8 2.7 3.4 2.1 8.8 1.3 15-1.1 9.3-1.6 16.7 3.5 19.6q0.5 0.3 1.1 0.5c4.2 0.7 8.1 1.6 11.9 2.4l2.5 0.5c6.3 1.4 12 2.5 17.2 2.5 2.9 0.1 5.8-0.4 8.5-1.4 4.9-2 9-6.3 12.4-13.1q0.8-1.4 1.6-2.8 2-3.3 4.5-6.3c5.1-6.3 11.6-11.3 19-14.8 9.4-4.5 20.4-6.8 32.6-6.8 16.3 0 34.3 4.1 53.7 12.2 23.2 9.7 46 25.1 69.8 47 7 6.4 13.1 12.4 18.4 17.6 7.3 7.4 13.7 13.7 16.9 15.2 3.7 1.7 7.6 3.1 11.6 4 4 1 8.2 1.5 12.4 1.5 7.2 0 14.4-1.6 21-4.7 1.5-0.7 3-1.5 4.5-2.3 11.6-7 19.7-11.1 26.2-11.1 2 0 3.9 0.4 5.7 1.3 4.3 2.1 7 6.7 8.3 14.2 1.4 8.5 0.3 28.5-2.6 47.5q0 0.1 0 0.2c-1.8 11.3-5 27.6-10.4 41.1-5.6 14.2-12.5 22.5-20.4 24.7q-2.6 0.6-5.2 0.6z"/>
		<path id="Layer" class="s5" d="m38.3 201.9c-1.6 0-6.6 0-9 4.6-0.7 1.2-1 2.6-1 4.1-0.8 5.4-7.3 35.7-13 62.5-4.6 21.3-9.3 43.3-12.2 57.8-1.1 5.2-1.8 9.1-2.3 11.9-0.9 5.1-1.5 7.9 0.9 11 0.7 0.9 1.6 1.6 2.6 2.2 1 0.5 2.2 0.9 3.3 0.9 2.6 0.2 6.6 0.4 11.1 0.4 19.9 0 25.8-3.6 27.7-4.7 6.1-3.7 7.5-10.5 8.7-16 0.4-2.1 1.3-6.5 2.3-7.2 1.7-0.6 3.6-0.8 5.5-0.8 7.2 0 17.1 2.7 27.5 5.5l0.4 0.1c9.9 2.6 13.7 7.3 17.6 30.8 2.5 15 11.7 26.8 27.4 35.1 15.8 8.3 38.3 13.2 68.8 15 3 0.2 6 0.3 9 0.3 38.4 0 71.7-14.5 96-25.1 12.1-5.2 22.4-9.7 29.3-10.7h1.2c13.8 0 20.6 9.5 29.4 23.9 3.2 5.3 6.3 10.3 10.1 14.3 5.1 5.5 10.8 8.2 17.1 8.2q3.1 0.1 6.1-0.7c9.3-2.6 16.9-11.4 23.1-27 5.6-13.9 8.8-30.5 10.6-42q0-0.1 0.1-0.2c3-19.7 4.1-39.8 2.5-48.9-0.5-3.2-2.2-13.1-10.4-17.1-2.3-1.2-4.9-1.7-7.5-1.7-7.5 0-16 4.3-28.3 11.6q-2 1.3-4.2 2.3c-6 2.8-12.5 4.2-19.2 4.2-3.9 0-7.7-0.5-11.5-1.3-3.7-0.9-7.3-2.2-10.8-3.8-2.5-1.2-9.3-7.9-15.8-14.3-5.3-5.4-11.4-11.4-18.4-17.8-24.1-22.3-47.3-37.8-71-47.7-19.8-8.4-38.4-12.6-55.3-12.6-12.8 0-24.3 2.5-34.3 7.3-7.9 3.7-14.9 9.1-20.4 15.8q-2.7 3.3-4.8 6.9-0.9 1.5-1.7 3.1c-4 7.8-7.8 10.1-10.3 11.1-2.3 0.8-4.7 1.2-7.1 1.2-4.7 0-10.2-1.1-16.3-2.5l-2.4-0.5c-3.8-0.8-7.6-1.6-11.7-2.4l-0.3-0.1c-2.9-1.7-2.4-8.1-1.5-15.6 0.8-6.8 1.6-13.3-2-18-8.4-11-30.2-13.3-35.5-13.3zm0 8c5.9 0 23.5 2.7 29.1 10.1 4.4 5.6-6.7 28.6 5.9 35.8q1 0.5 2.1 0.9c5.1 0.8 10 1.9 14.6 2.9 6.5 1.4 12.5 2.6 18 2.6 3.5 0.1 6.9-0.5 10.1-1.7 5.5-2.2 10.3-6.7 14.5-15q0.6-1.3 1.4-2.6 1.8-3.1 4.1-5.9c4.8-5.7 10.8-10.4 17.6-13.6 8.5-4.1 18.8-6.4 30.9-6.4 14.8 0 32.3 3.5 52.2 11.9 28.1 11.7 51.1 30 68.6 46.1 17.8 16.4 30 30.6 36.2 33.5 4 1.9 8.2 3.4 12.4 4.4 4.4 1 8.9 1.5 13.4 1.6 7.8 0 15.6-1.7 22.7-5.1 1.5-0.8 3.2-1.5 4.8-2.6 10.5-6.2 18.5-10.4 24.2-10.4 1.3-0.1 2.7 0.2 3.9 0.8 3 1.5 5 5 6.1 11.3 1.3 7.5 0.5 26.3-2.6 46.2-4.4 28.3-13.5 58.8-27.9 62.7q-2 0.5-4 0.5c-20.4 0-22.4-46.4-56.6-46.4q-1 0-1.9 0.1c-22.8 2.7-68.1 35.7-124.6 35.7q-4.2 0-8.5-0.3c-60.4-3.6-84.8-19.7-88.8-43.4-3.9-23.6-8.2-33.2-23.4-37.3-11-2.9-21.6-5.8-30-5.8-2.9 0-5.7 0.4-8.5 1.4-8.9 3.5-5.4 19.8-12.1 23.7-4.6 2.8-14.5 3.6-23.5 3.6-3.9 0-7.6-0.2-10.7-0.3-0.3 0 0.9-6.4 2.9-16.4 7.4-36.5 26.2-121 25.4-122.1-0.2-0.3 0.6-0.4 2-0.4"/>
		<path id="Layer" class="s7" d="m428.5 354.7c-4.4 28.2-13.4 58.7-27.9 62.6-24.6 6.6-24.2-47.7-62.5-45.8-23.9 2.9-72.6 39.1-133 35.5-60.5-3.6-84.9-19.8-88.8-43.4-3.9-23.6-8.3-33.3-23.5-37.3-15.2-4-29.4-7.9-38.4-4.5-9 3.5-5.5 19.8-12.1 23.8-6.7 4-24.1 3.8-34.2 3.2-0.3 0 0.8-6.4 2.9-16.4 4.6 1.6 14.8 2.4 25.7-13.4 14.8-21.6 32.3-25.4 67.4-13.9 35.2 11.5 21.3 43.7 55.9 61.3 34.6 17.5 70.8 23.7 112.7 5.7 41.8-17.9 89.7-44.5 110.3-21.5 20.5 23 27.3 36.8 45.5 4.1q0 0 0 0z"/>
		<path id="Layer" class="s7" d="m343.7 308.5c4 1.9 8.1 3.4 12.4 4.3-16.6 31.2-44.2 43.3-77.2 27.6-22.6-10.7-16.2-35.7-2.4-51.4 2.4-2.7-4.7-6.8-8.2-5.5-33.8 51.6-83.2 55.4-104.6 30.9-15.5-18 2.8-40.1 2.8-40.1-19.4-2.6-35.3-7.5-48.3-13.8 5.5-2.2 10.3-6.8 14.5-15q0.6-1.3 1.4-2.6 12 3.9 24.4 6.4c3.9 0.8 8.1 1.7 12.3 2.5l42.1 8.6 42.2 8.6c19.8 4 37.1 7.6 52.4 6 17.7 16.4 29.9 30.5 36.2 33.5z"/>
		<path id="Layer" class="s7" d="m425.1 297.1c-0.3 6.3-1.8 12.5-4.4 18.2-9.8 0.2-19.6-1.8-28.6-5.9 1.6-0.8 3.3-1.6 4.9-2.6 13-7.9 22.3-12.5 28.1-9.7z"/>
		<path id="Layer" fill-rule="evenodd" class="s8" d="m335.8 215.4c0 0 40.9 66.4 90.2 68.8 98 5 108.2-116.4 37.8-141.9-42-15.2-80.4 20-64.6 51.4 4.2 8.4 12.8 14.8 18.1 13.2 6.1-1.9 2.4-11.9 10.3-15.1 5.8-2.3 10.2 2.7 10.9 8.2 2.8 24.3-42.8 52.3-80.7 1.5"/>
		<path id="Layer" fill-rule="evenodd" class="s8" d="m426 284.2c-49.3-2.5-90.2-68.8-90.2-68.8l22-13.9c10.1 13.6 20.7 21.5 30.9 25.4 27.9 10.8 51.8-9 49.8-26.9-0.7-5.5-5.1-10.5-10.9-8.2-7.9 3.2-4.2 13.2-10.3 15.1-5.4 1.6-13.9-4.9-18.1-13.2q-0.7-1.2-1.2-2.5c-12.6-30.7 24.9-63.7 65.8-48.9 70.4 25.5 60.2 146.9-37.8 141.9z"/>
		<path id="Layer" fill-rule="evenodd" class="s8" d="m426 284.2c-49.3-2.5-90.2-68.8-90.2-68.8l22-13.9c10.1 13.6 20.7 21.5 30.9 25.4 13.8 5.4 26.7 3.2 35.9-2.7 9.3-5.8 14.9-15.2 13.9-24.2-0.7-5.5-5.1-10.5-10.9-8.2-7.9 3.2-4.2 13.2-10.3 15.1-5.4 1.6-13.9-4.9-18.1-13.2q-0.7-1.2-1.2-2.5c-0.3-0.8-0.6-1.5-0.8-2.3-9.9-30 26.7-61.1 66.6-46.6 70.4 25.5 60.2 146.9-37.8 141.9z"/>
		<path id="Layer" fill-rule="evenodd" class="s8" d="m426 284.2c-49.3-2.5-90.2-68.8-90.2-68.8l22-13.9c10.1 13.6 20.7 21.5 30.9 25.4 13.8 5.4 26.7 3.2 35.9-2.7 9.3-5.8 14.9-15.2 13.9-24.2-0.7-5.5-5.1-10.5-10.9-8.2-7.9 3.2-4.2 13.2-10.3 15.1-5.4 1.6-13.9-4.9-18.1-13.2q-0.7-1.2-1.2-2.5c-0.3-0.8-0.6-1.5-0.8-2.3-9.9-30 26.7-61.1 66.6-46.6 70.4 25.5 60.2 146.9-37.8 141.9z"/>
		<path id="Layer" fill-rule="evenodd" class="s8" d="m504.3 182.7c16.8 44.3-8.4 105-78.3 101.5-49.3-2.5-90.2-68.8-90.2-68.8l22-13.9c10.1 13.6 20.7 21.5 30.9 25.4q3 1.2 6.1 1.9c11.5 2.7 22 0.4 29.9-4.5 9.3-5.9 14.8-15.3 13.8-24.3-0.7-5.5-5.1-10.5-10.8-8.2-7.9 3.3-4.3 13.2-10.4 15.1-5.3 1.6-13.9-4.8-18.1-13.2q-0.6-1.2-1.1-2.5c-0.4-0.8-0.6-1.5-0.9-2.3-9.9-30 26.8-61 66.6-46.6 20.2 7.3 33.8 22.5 40.5 40.4z"/>
		<path id="Layer" fill-rule="evenodd" class="s9" d="m424.6 224.3c9.4-5.8 14.9-15.3 13.9-24.2-0.7-5.5-5.1-10.5-10.9-8.2-7.8 3.2-4.2 13.2-10.3 15-5.3 1.6-13.9-4.8-18.1-13.2q-0.7-1.2-1.1-2.4c-0.4-0.8-0.7-1.6-0.9-2.4 2.7 6.1 11.4 13.6 15.9 7.9 3.3-4.3 9-28 26.7-19.4 13 6.3 10.6 39.8-15.2 46.9z"/>
		<path id="Layer" fill-rule="evenodd" class="s9" d="m504.3 182.7c16.8 44.3-8.4 105-78.3 101.5-49.3-2.5-90.2-68.8-90.2-68.8l22-13.9c10.1 13.6 20.7 21.5 30.9 25.4q3 1.2 6.1 1.9c11.4 19.6 30.7 28.9 57.1 24.8 40.7-6.2 57.3-42.5 52.4-70.9z"/>
		<path id="Layer" fill-rule="evenodd" class="s10" d="m504.3 182.7c16.8 44.3-8.4 105-78.3 101.5-49.3-2.5-90.2-68.8-90.2-68.8l22-13.9c10.1 13.6 20.7 21.5 30.9 25.4 8.6 13.3 23.7 36.5 52.3 33.3 14.3-1.6 24.7-6.5 32-13.4 25.2-13.3 35.2-41.3 31.3-64.1z"/>
		<path id="Layer" fill-rule="evenodd" class="s10" d="m503.2 223.6c-6.6 35.6-34.4 67.7-82.7 61.8-63.7-7.7-84.7-70-84.7-70l15.1-10.3c11.9 13.3 24.3 20.2 36 22.8 8.2 12.5 20.4 33.7 54.1 32.3 15.5-0.7 26.4-6.4 33.6-14.9 18.3-9.4 26.5-27.4 30.1-42.2v0.4q0.1 0.9 0.1 1.7 0 1.2 0 2.4 0 0.6 0 1.2 0 1-0.1 2c0 0.7 0 1.6-0.1 2.5q0 0.1 0 0.2c-0.1 0.7-0.2 1.4-0.2 2.1l-0.1 0.4q-0.1 1.3-0.3 2.5-0.1 1.3-0.3 2.6-0.2 1.3-0.5 2.5z"/>
		<path id="Layer" fill-rule="evenodd" class="s11" d="m426 284.2c-49.3-2.5-90.2-68.8-90.2-68.8l22-13.9c10.1 13.6 20.7 21.5 30.9 25.4 8.6 13.3 23.7 36.5 52.3 33.3 59.5-6.7 52.6-71.1 25.6-93.1-22-17.8-67.1-10.3-68.6 24.1-12.6-30.7 24.9-63.7 65.8-48.9 70.4 25.5 60.2 146.9-37.8 141.9z"/>
		<path id="Layer" fill-rule="evenodd" class="s10" d="m504.3 182.7c16.8 44.3-8.4 105-78.3 101.5-49.3-2.5-90.2-68.8-90.2-68.8l22-13.9c10.1 13.6 20.7 21.5 30.9 25.4 8.6 13.3 23.7 36.5 52.3 33.3 14.3-1.6 24.7-6.5 32-13.4 25.2-13.3 35.2-41.3 31.3-64.1z"/>
		<path id="Layer" fill-rule="evenodd" class="s12" d="m472.9 277.8c-13.3 6.9-29.3 10.1-47 9.2-20.9-1-43.5-13.6-65.5-36.2-10.1-10.4-19.1-21.8-27-33.9q-0.3-0.5-0.5-1.1-0.1-0.6 0-1.2 0.1-0.5 0.4-1 0.4-0.5 0.9-0.8 0.5-0.4 1.1-0.4 0.6-0.1 1.1 0 0.6 0.2 1 0.6 0.5 0.4 0.8 0.9c0.4 0.7 40.7 65.1 87.9 67.5 49.4 2.5 73.1-27.2 78.9-55.8 6.1-30.3-6.4-67.7-42.1-80.7-23.6-8.5-44.9-0.1-55.7 12.1-9.4 10.5-11.4 23.7-5.5 35.4 3.8 7.6 11.3 12.9 14.8 11.8 1.2-0.4 1.7-1.6 2.4-4.5 0.9-3.5 2.2-8.2 7.7-10.5 1.4-0.6 2.9-0.8 4.4-0.7 1.5 0.1 3 0.5 4.3 1.3 3.2 1.9 5.4 5.7 5.9 9.9 1.4 12-7.6 24.7-21.4 30.2-8 3.2-36.4 10.7-64.3-26.7q-0.3-0.4-0.5-1-0.1-0.5 0-1.1 0.1-0.5 0.3-1 0.3-0.5 0.8-0.8 0.4-0.3 1-0.5 0.5-0.1 1.1 0 0.5 0 1 0.3 0.5 0.3 0.8 0.8c25.6 34.1 50.7 27.6 57.7 24.8 11.5-4.6 19.1-14.8 18-24.3-0.3-2.6-1.6-4.8-3.3-5.8q-0.8-0.5-1.8-0.5-1-0.1-1.9 0.3c-2.8 1.1-3.5 3.3-4.4 6.7-0.8 3.2-1.8 7.1-6.2 8.5-7.3 2.2-17-5.8-21.4-14.7-7-13.8-4.6-29.3 6.3-41.7 12-13.5 35.8-22.9 61.8-13.5 38.7 14 52.3 54.4 45.7 87-3.5 17.6-12.9 33.1-26.2 43.7q-5.3 4.2-11.4 7.4z"/>
		<path id="Layer" class="s8" d="m198 134.8c64.9-17.6 123.3-33.6 165.6 4.3 41.5 37.2 34.1 135.3-22.6 146.8-59.9 11.6-106.8-43.8-170-42.3z"/>
		<path id="Layer" class="s8" d="m384.6 242.5c-7.3 21.7-21.8 39-43.6 43.4-59.9 11.6-106.7-43.8-170-42.3l1.9-7.8 25.1-101c64.9-17.6 123.3-33.6 165.6 4.3 25.5 22.8 32.5 68.7 21 103.4z"/>
		<path id="Layer" class="s8" d="m384.6 242.5c-7.3 21.7-21.8 39-43.6 43.4-11.1 2.1-22.5 2.1-33.6 0.1-45.1-7.9-85.4-43.7-136.4-42.4l1.9-7.8 25.1-101c28.1-7.6 55-14.9 79.9-17.7 32.5-3.6 61.7 0.5 85.7 22 25.5 22.8 32.5 68.7 21 103.4z"/>
		<path id="Layer" class="s8" d="m389.8 213.7c-0.4 9.8-2.2 19.5-5.2 28.8-6.3 18.8-18 34.3-35.2 41q-4.1 1.6-8.5 2.5-3.7 0.7-7.4 1.1c-2.5 0.2-5 0.4-7.5 0.4-6.3 0.1-12.5-0.4-18.7-1.5-45.1-7.8-85.4-43.6-136.4-42.3l2-7.9 21.6-87.2 0.2-0.6 3.3-13.2c28.1-7.6 55-14.9 79.8-17.7 32.6-3.6 61.8 0.6 85.8 22 18.9 16.9 27.6 46.4 26.2 74.6z"/>
		<g id="Layer" style="opacity: .5">
			<path id="Layer" class="s13" d="m305.1 125.2c13.1-1.6 35.4 2 49.4 19.2 11.6 14.3 4 16.1-5.7 12.7-7.9-2.7-11.4-6.1-32.6-15.1-15.4-6.6-24.2-15.2-11.1-16.8z"/>
		</g>
		<path id="Layer" class="s9" d="m194.7 148l139.5 122.1c-1.4 5.3-1.3 11.7-0.7 16.9q0.5 5.1 1.7 10.1l-9.2-9.6-131.4-138.9-4-4.2z"/>
		<path id="Layer" class="s9" d="m389.8 213.7c-0.4 9.8-2.2 19.5-5.2 28.8-6.3 18.8-18 34.3-35.2 41l-15.2-13.3c1.6-6 5.1-10.5 12.3-10.6 18.5-0.2 38.7-14.1 43.3-45.9z"/>
		<path id="Layer" class="s9" d="m307.4 286c-45.1-7.9-85.4-43.7-136.4-42.4l1.9-7.8 25.1-101c28.1-7.6 55-14.9 79.9-17.7 6.2 12.6 13.5 33.6 13 62.9-0.5 34.3 5.8 8.5 38 8.4 26.4 0-8.4 72.1-21.5 97.6z"/>
		<path id="Layer" class="s10" d="m384.6 242.5c-7.3 21.7-21.8 39-43.6 43.4-59.9 11.6-106.7-43.8-170-42.3l1.9-7.8c30.6 4 90.5 12.6 131.3 23.8 48.3 13.1 68.8 9 80.4-17.1z"/>
		<path id="Layer" class="s12" d="m324.1 290.4c-25.6 0-48.8-10.5-73.1-21.5-25-11.4-51-23.1-80-22.4q-0.5 0-1.1-0.2-0.5-0.2-0.9-0.6-0.4-0.4-0.7-0.9-0.2-0.5-0.2-1.1 0-0.6 0.2-1.1 0.2-0.5 0.6-0.9 0.4-0.5 0.9-0.7 0.5-0.2 1.1-0.2c30.3-0.8 56.8 11.2 82.5 22.9 28.8 13 56.1 25.4 87 19.4 20.4-4.1 36.1-21.2 43-46.7 9.6-35.3 0.4-75.4-21.7-95.2-41.1-36.7-97.5-21.4-162.7-3.7l-0.3 0.1c-0.7 0.2-1.5 0.1-2.2-0.3-0.6-0.4-1.1-1-1.3-1.8-0.2-0.7-0.1-1.5 0.3-2.1 0.4-0.7 1-1.2 1.7-1.4l0.3-0.1c32.6-8.8 63.5-17.2 91.7-18.7 32.1-1.6 56.4 5.9 76.3 23.7 23.7 21.2 33.5 63.7 23.4 100.9-7.5 27.7-24.8 46.3-47.4 50.9-5.7 1.1-11.6 1.7-17.4 1.7z"/>
		<path id="Layer" class="s8" d="m284.4 232.7c-4.5 26.9-20.8 60.8-52.7 78.6q-0.7 0.4-1.5 0.8c-22.8 12.2-55.9 11.6-61.2-10.3-4.4-18.7 11.1-28.2 28-38.6 16.1-9.9 33.6-20.5 36.3-40.8z"/>
		<path id="Layer" class="s8" d="m273.5 266c1.6-14.9-2-26.8-13.5-16-20 19-49.1 18.8-64.2 27.8-15.2 9-15 24.8 7.6 30.5 19.3 4.9 41.5-8.4 52.1-15.9-6.9 7.5-15 13.9-23.9 18.8q-0.7 0.4-1.4 0.8c-22.8 12.2-56 11.6-61.2-10.2-4.5-18.8 11-28.2 28-38.6 16.1-9.9 33.5-20.6 36.2-40.8l51.1 10.3c-1.9 11.6-5.6 22.8-10.8 33.3z"/>
		<path id="Layer" class="s10" d="m232.3 305.2q-0.1 3-0.6 6.1-0.7 0.4-1.5 0.8c-22.8 12.1-55.9 11.6-61.2-10.3-4.4-18.7 11.1-28.2 28-38.6 6.7 1.1 13.1 3.6 18.8 7.3-7.7 2.1-14.7 4.2-20 7.3-15.2 9.1-15 24.8 7.6 30.5 9.6 2.4 19.8 0.4 28.9-3.1z"/>
		<path id="Layer" class="s9" d="m273.5 266c1.6-14.9-2-26.8-13.5-16-20 19-49.1 18.8-64.2 27.8-15.2 9-15 24.8 7.6 30.5 19.3 4.9 41.5-8.4 52.1-15.9-6.9 7.5-15 13.9-23.9 18.8q-0.7 0.4-1.4 0.8c-22.8 12.2-56 11.6-61.2-10.2-4.5-18.8 11-28.2 28-38.6 16.1-9.9 33.5-20.6 36.2-40.8l51.1 10.3c-1.9 11.6-5.6 22.8-10.8 33.3z"/>
		<path id="Layer" class="s11" d="m231.7 311.3q-0.7 0.4-1.5 0.8c-22.8 12.1-55.9 11.6-61.2-10.4-4.4-18.7 11.1-28.2 28-38.5 10.4 1.8 21.8 6.5 29.1 17.7 6.7 10.2 7.1 21.4 5.6 30.4z"/>
		<path id="Layer" class="s10" d="m232.3 305.2q-0.1 3-0.6 6.1-0.7 0.4-1.5 0.8c-22.8 12.1-55.9 11.6-61.2-10.3-4.4-18.7 11.1-28.2 28-38.6 6.7 1.1 13.1 3.6 18.8 7.3-7.7 2.1-14.7 4.2-20 7.3-15.2 9.1-15 24.8 7.6 30.5 9.6 2.4 19.8 0.4 28.9-3.1z"/>
		<path id="Layer" class="s12" d="m198.9 322.8c-6.7 0-13-1.1-18.2-3.4-7.6-3.5-12.7-9.3-14.4-16.9-5-20.8 12.4-31.4 29.2-41.7 15.9-9.8 32.4-19.8 34.9-38.7q0.1-0.6 0.4-1.1 0.3-0.5 0.7-0.8 0.5-0.4 1-0.5 0.6-0.2 1.1-0.1 0.6 0.1 1.1 0.4 0.5 0.3 0.8 0.7 0.4 0.5 0.5 1 0.2 0.6 0.1 1.2c-2.9 21.5-21.4 32.8-37.6 42.8-16.5 10.1-30.7 18.8-26.7 35.5 1.4 5.9 5.2 10.3 11.3 13 11.8 5.4 30.6 3.4 45.8-4.6 32.2-17.2 48.3-51.2 52.6-77.3 0.2-0.7 0.6-1.4 1.2-1.8 0.6-0.4 1.4-0.6 2.1-0.5 0.7 0.1 1.4 0.6 1.8 1.2 0.5 0.6 0.7 1.3 0.6 2-4.6 27.5-21.6 63.3-55.7 81.4-10 5.3-21.2 8.2-32.6 8.2z"/>
		<path id="Layer" class="s8" d="m351.2 192.9c0 0-39.3-16.9-62.1 15.1-17.6 24.7-13.1 59.7-4.6 73.7-7.3 6.9-27.4 31-8.2 47 8.7 7.4 26.2 11.2 37.4 7.4 16.7-5.6 26.2-18.9 30.4-31 7.1-20 3.9-36.3 2.2-46.9"/>
		<path id="Layer" class="s8" d="m347.6 266.6c1.3 10.1 1.9 23.2-3.5 38.5-4.3 12.1-13.7 25.4-30.4 31-11.2 3.7-28.6 0-37.4-7.3-18.9-15.8 0.3-39.5 7.9-46.8l0.4-0.3c-8.6-14-13.1-49 4.5-73.7 22.8-32 62.1-15.1 62.1-15.1l-4.9 65.3c0.4 2.5 0.9 5.3 1.3 8.4z"/>
		<path id="Layer" class="s9" d="m288.6 272.2c2.3 10.5 19.6 18.1 29.2 15.1 14.4-4.6 1.6-39.4-16.3-40.8-9.5-0.7-16.6 8.3-12.9 25.7z"/>
		<path id="Layer" class="s11" d="m344.1 305.1c-4.3 12.1-13.7 25.4-30.4 31-11.2 3.7-28.6 0-37.4-7.3-18.9-15.8 0.3-39.5 7.9-46.8 3.7 3.7 9.6 7.6 18.7 10.6 23.6 7.5 43.1-6.3 44.7-25.9 1.3 10 1.9 23.1-3.5 38.4z"/>
		<path id="Layer" class="s10" d="m284.9 290.2c0 0-11.3 14.7-1 21.1 16 10 35.8-2.7 41.3-9.8 5.6-7-29.2 5.1-40.3-11.3z"/>
		<path id="Layer" class="s12" d="m351.2 192.9c-16.9-4.2-36.5-4.1-50.5 7.2-18.2 15.1-22.9 41.4-19.1 63.8 1.1 5.7 2.7 11.5 5.3 16.3 0.4 0.6 0.5 1.2 0.5 1.9-0.1 0.7-0.4 1.3-0.9 1.7-7.5 7.4-14.8 17.3-15.4 28-0.6 11.3 9.9 18.4 19.7 21 6.8 1.9 14.6 2.6 21.3 0.6 6.9-2.3 13.2-6.3 18.2-11.5 10.3-10.8 14.5-26 15.8-40.6 0.7-7.7 0.2-15.3 0.2-23.1 8.3 22.5 5.5 50.2-11.4 68.1-5.8 6-13 10.5-21 12.9-8.2 2.3-16.7 1.4-24.7-0.8-26.2-7.9-30.2-28.6-14.7-49.6q3.6-5 8.1-9.2l-0.5 3.6c-6.8-11.1-8.7-24.3-8.5-37 0.5-29.1 18.5-59.7 50.5-59.9 9.4-0.1 18.7 2.2 27.1 6.6z"/>
		<path id="Layer" class="s12" d="m313.9 294.8c-8.5 0.1-17.1-1.4-24.6-5.6-2.6-1.6-5-3.5-7.1-5.8q-0.4-0.5-0.5-1-0.2-0.6-0.2-1.2 0.1-0.6 0.4-1.2 0.3-0.5 0.8-0.9 0.5-0.3 1.1-0.4 0.6-0.2 1.2 0 0.6 0.1 1.1 0.4 0.5 0.4 0.8 0.9c1.3 2.1 2.9 4 4.8 5.6 6.3 5.1 14.3 7.9 22.2 9.2z"/>
		<path id="Layer" class="s12" d="m302.8 307.4c-3.1 5.6-4.6 12-4.3 18.4 0.3 3.7 1.2 7.2 2.9 10.5l-5.4 2c-0.8-2.7-1.2-5.5-1.2-8.4-0.1-8.2 2.8-16.2 8-22.5z"/>
		<path id="Layer" class="s12" d="m284.9 301.5c-2.7 4.2-4.5 8.8-5.6 13.6-1 4.6-0.8 9.3 0.7 13.6l-5.5 1.6c-1.8-10.7 3.4-21.1 10.4-28.8z"/>
		<path id="Layer" class="s12" d="m203.4 302.3c-6.6 8.1-16.8 17-28.2 13.7l2.2-5.3q1.4 0.7 2.9 1.1c8.4 1.4 16.9-4.3 23.1-9.5z"/>
		<path id="Layer" class="s12" d="m190.6 285.5c-4.4 1.3-8.5 3.8-11.8 7-3.2 3.1-5.6 6.9-7 11.1l-5.2-2.3c5-8.7 14.1-14.8 24-15.8z"/>
		<path id="Layer" class="s8" d="m222.3 68.3c32.8-17.4 68.8-23.6 80-13.6 8.8 8 0.4 46.6-34.3 103"/>
		<path id="Layer" class="s8" d="m268 157.8l-45.7-89.5 0.8-0.4c32.6-17.2 68.1-23.2 79.1-13.2q2.1 1.9 2.9 5.9c2.8 14.4-7.7 49.4-37.1 97.2z"/>
		<path id="Layer" class="s8" d="m269.4 155.5l-1.4 2.3-14.2-27.9-31.5-61.6 0.8-0.4c32.6-17.2 68.1-23.2 79.1-13.2q2.1 1.9 2.9 5.9 0 0 0 0.1c2.7 14.3-7.5 48.3-35.7 94.8z"/>
		<g id="Layer" style="opacity: .5">
			<path id="Layer" class="s13" d="m305.1 60.6l-0.2-0.2c-10.7-11.1-46.6-7.3-79 13.1l-2.8-5.6c32.6-17.2 68.1-23.2 79.2-13.2q2 1.9 2.8 5.9z"/>
		</g>
		<path id="Layer" class="s9" d="m269.4 155.5l-15.6-25.6c0.9-10.8 3.9-26.5 12.6-39 12.8-18.1 28.3-36 38.7-30.2 2.7 14.3-7.5 48.3-35.7 94.8z"/>
		<path id="Layer" class="s12" d="m268 160.7q-0.8 0-1.5-0.5c-0.7-0.4-1.1-1-1.3-1.8-0.2-0.7-0.1-1.5 0.3-2.1 20.1-32.7 29.1-55.6 33.2-69.1 5.5-18.4 4.3-27.9 1.6-30.3-9.1-8.2-42-4.5-76.7 14q-0.5 0.3-1.1 0.4-0.6 0.1-1.2-0.1-0.5-0.2-1-0.5-0.5-0.4-0.7-0.9-0.3-0.6-0.4-1.2 0-0.5 0.2-1.1 0.1-0.6 0.5-1 0.4-0.5 1-0.7c34.5-18.4 71.1-24.2 83.3-13.2 7.1 6.4 3.9 23.3 0 36.3-4.2 13.8-13.4 37.2-33.8 70.4q-0.3 0.6-1 1-0.6 0.3-1.4 0.4z"/>
		<path id="Layer" class="s8" d="m112.6 82c2.6-38.6 25.4-79 36.6-79.2 14.1-0.1 36.6 33 45 60.2"/>
		<path id="Layer" class="s8" d="m194.2 63l-15.5 3.6-66.1 15.4c2.1-30.9 17.2-63 28.8-74.6 2.9-2.9 5.6-4.5 7.8-4.6 14.1-0.2 36.6 33 45 60.2z"/>
		<path id="Layer" class="s9" d="m178.7 66.6l-66.1 15.4c2.1-30.9 17.2-63 28.8-74.6 6.6 1.9 30.1 13.6 37.3 59.2z"/>
		<path id="Layer" class="s12" d="m112.6 84.8h-0.2c-0.8 0-1.5-0.4-2-0.9-0.5-0.6-0.7-1.3-0.7-2.1 1.2-17.7 6.8-37.8 15.4-55 3.1-6.3 14-26.7 24-26.8h0.2c15.8 0 38.9 33.9 47.6 62.2 0.2 0.7 0.1 1.5-0.2 2.2-0.4 0.7-1 1.2-1.7 1.4-0.7 0.2-1.5 0.1-2.2-0.2-0.7-0.4-1.2-1-1.4-1.7-8.5-27.8-30.5-58.2-42.1-58.2h-0.1c-8 0.1-31 36.6-33.8 76.5 0 0.7-0.3 1.4-0.9 1.9-0.5 0.5-1.2 0.7-1.9 0.7z"/>
		<path id="Layer" class="s11" d="m146.1 18.5c3.9-1.4 12.4 5.8 18.8 20.5 4 9.2 6.7 18.4 5.9 23.6-8.6 1.4-29.2 5.5-50.1 10.9 3.8-25.5 18.8-52.8 25.4-55z"/>
		<path id="Layer" class="s11" d="m170.8 62.6c-8.6 1.4-29.2 5.5-50.1 10.9q0.1-0.6 0.2-1.1c1.1-6.7 2.8-13.3 5-19.7 6.1-17.5 15.1-32.1 19.9-34.1q0.1-0.1 0.3-0.1c3.9-1.4 12.4 5.7 18.8 20.5 4 9.2 6.7 18.4 5.9 23.6z"/>
		<path id="Layer" class="s10" d="m170.8 62.6c-8.6 1.4-29.2 5.5-50.1 10.9q0.1-0.6 0.2-1.1 0.2-1.3 0.4-2.6 1.5-8.7 4-17.2l0.6 0.1c5.1 0.9 13.2 0.8 19.7-6.4 8.3-9.3 4-20.5 0.2-27.7q0.1-0.1 0.3-0.1c3.9-1.4 12.4 5.8 18.8 20.5 4 9.2 6.7 18.4 5.9 23.6z"/>
		<path id="Layer" class="s14" d="m149.1 52.4q-0.8 0-1.5 0.3c-0.6 0.4-0.8 1.5-0.8 2.4-0.1 0.9 0.3 3.3 4.2 8.3 6.5-1.3 12.6-2.5 17-3.3-0.1-3.4-1.3-8.3-3.4-14.1-2.2-1.7-5.8-2.8-6.9-2.5-0.7 0.2-0.8 0.5-0.9 0.6-0.3 0.7-0.3 2.1 1 5.2 0.4 0.6 0.5 1.3 0.5 1.9-0.1 0.7-0.4 1.3-0.8 1.8-0.4 0.4-0.9 0.7-1.4 0.9-0.6 0.1-1.1 0.1-1.7-0.1l-0.3-0.1c-1.6-0.8-3.2-1.2-5-1.3z"/>
		<path id="Layer" class="s12" d="m117.2 77.4l0.6-4.3c3.8-25.1 19.1-54.5 27.3-57.3 6.5-2.2 15.9 7.1 22.4 22 2.8 6.4 7.2 18 6.2 25.2l-0.3 2.1-2.1 0.3c-7.9 1.3-28.3 5.3-49.9 10.9zm29.8-56.2c-4.3 1.4-18 24.2-22.8 48.5 18.4-4.6 35.4-8.1 43.9-9.5-0.2-4.6-2.3-11.9-5.8-20.1-6.4-14.6-13.8-19.4-15.3-18.9z"/>
		<path id="Layer" class="s12" d="m149.1 52.4q-0.8-0.1-1.5 0.3c-0.7 0.4-0.9 1.6-0.9 2.4-0.1 0.9 0.3 3.3 4.3 8.4 6.5-1.4 12.6-2.6 17.1-3.3-0.2-3.4-1.4-8.4-3.5-14.2-2.2-1.8-5.8-2.9-6.9-2.5-0.8 0.2-0.9 0.5-1 0.6-0.3 0.7-0.3 2.1 1 5.3 0.4 0.5 0.5 1.2 0.5 1.8-0.1 0.7-0.3 1.3-0.8 1.8l-1.2 1.3-1.8-0.6q-0.2 0-0.3-0.1c-1.6-0.7-3.3-1.1-5-1.2z"/>
		<path id="Layer" class="s8" d="m239.3 72.8c-21.7-15.9-51.4-22.7-57.4-23.9q-8.3-1.8-16.7-2.4c-51.3-3.5-77.2 38.3-97.3 77 0 0-17.3 13.1-19.2 35.6-2.6 31.2 29.6 79.4 114 96.5 52.1 10.5 92.6-0.5 108.8-29 12.7-22.4 20.8-64.2 9.4-103.2"/>
		<path id="Layer" class="s8" d="m278.9 209.4c-2 6-4.5 11.8-7.5 17.2-16.2 28.5-56.6 39.5-108.7 29-84.5-17-116.7-65.3-114-96.5 1.3-15.5 9.9-26.5 15.1-31.9q1.9-2 4-3.7c20.1-38.7 46-80.5 97.4-77q8.4 0.6 16.6 2.4c6 1.3 35.7 8.1 57.4 23.9l41.6 50.8c8.9 30.4 5.9 62.5-1.9 85.8z"/>
		<g id="Layer" style="opacity: .5">
			<path id="Layer" class="s13" d="m178.1 48.9q-8.4-1.2-16.8-1.3c-51.5-0.3-74.7 43-92.4 82.9q-2 1.9-3.8 4c-4.9 5.6-12.8 17.2-13.1 32.7-0.1 4.8 0.5 9.6 1.9 14.2q-0.8-4.5-0.8-9c0.4-15.6 8.3-27.1 13.2-32.8q1.8-2.1 3.8-3.9c17.7-39.9 40.9-82.3 92.4-82 5.3 0 10.9-0.5 16.8 0.4 5.7 0.8 39.5 7 61.7 19.9-4.5-4.3-15.8-9.9-20.1-13.1-18.9-8.2-38.1-11.3-42.8-12z"/>
		</g>
		<path id="Layer" class="s11" d="m278.9 209.4c-2 6-4.5 11.8-7.5 17.2-16.2 28.5-56.6 39.5-108.7 29-84.5-17-116.7-65.3-114-96.5 1.3-15.5 9.9-26.5 15.1-31.9 27.6 5.6 23.9 27.5 45.9 28.9 10.7 0.7 15.8-7.9 32.1-3.2 21.5 6.4 25.7 24.8 43.9 31 20.3 6.9 24.2-7.8 58.6 4.4 15.1 5.4 27.7 14.4 34.5 21q0 0.1 0.1 0.1z"/>
		<path id="Layer" class="s10" d="m278.9 209.4c-2 6-4.5 11.8-7.5 17.3-16.2 28.5-53.1 36.8-97.1 30.8l-11.1-1.8-38.4-11.7c-45.1-20.3-69.4-43.7-75-68.8l0.1-0.1c11.1 21 44.7 51.2 104.9 65.2 50 11.6 98.5 10.9 118.4-22 1.6-2.7 4-5.6 5.6-9z"/>
		<path id="Layer" class="s12" d="m239.3 72.8c-15.2-9-31.8-14.8-48.8-19.1-25.7-6.7-51.3-6.8-73.5 9.5-20.6 14.4-35.7 41.6-46.2 61.1-0.2 0.7-0.6 1.3-1.1 1.7l-0.1 0.1-0.2 0.1-0.3 0.2-0.5 0.5c-12.2 10.8-19.6 27.6-16.5 43.9 3.1 17 13.9 31.8 26.6 43.3 26.3 23.4 61.4 35.1 95.8 40.4 32.6 4.6 74.3 2.3 93.5-28.4 4.4-7.4 7.5-15.6 9.9-23.9 7.2-25.6 7.1-52.5 2.9-78.6 13.7 31.3 9.3 76.2-7.3 105.8-25.5 41.2-85.7 36.9-126.5 25.8-34.7-9.4-69.9-26.7-90.1-57.7-7.4-11.7-12.5-25.8-11-39.9 1.6-14.1 9.1-27 19.7-36.1 1-0.8-0.4 0.1-0.7 1.4 4-8.2 8.5-16.2 13.2-24.1 22.9-38.6 53.7-63 100.7-53.4 21.6 4.6 43.5 13 60.5 27.4z"/>
		<path id="Layer" class="s11" d="m223.3 123.9c2.2-3.8-6-21.8-15.1-21.3-9.1 0.4-11 9.6-7.1 13.9 5.5 6.1 19.9 11.2 22.2 7.4z"/>
		<path id="Layer" class="s11" d="m115.6 89c0.8-4.3 17.4-13 23.5-6.9 6 6.2 1.8 14.5-3.4 15.3-7.7 1.2-20.8-4.1-20.1-8.4z"/>
		<path id="Layer" class="s11" d="m296.2 62.5c-8.7-4.5-37.2 5.7-44.2 14.5-5.3 6.8 10 11.7 25.9 39.3 13.5-14.6 22.1-51.8 18.3-53.8z"/>
		<path id="Layer" class="s11" d="m277.9 116.3l-0.2-0.4c-15.9-27.2-31-32.1-25.7-38.9 7-8.8 35.5-19 44.2-14.5 0.5 0.2 0.8 1.1 0.8 2.4 0.7 8.8-7.3 38.7-19.1 51.4z"/>
		<path id="Layer" class="s10" d="m280.2 112.6c-0.8 1.2-1.6 2.3-2.5 3.3-15.9-27.2-31-32.1-25.7-38.9 7-8.8 35.5-19 44.2-14.5 0.5 0.2 0.8 1.1 0.8 2.4 0 1 0 1.8 0 2.3-6.7-0.5-18.2 0.2-23.4 10-6.8 12.8 4.2 22 6.6 35.4z"/>
		<path id="Layer" class="s14" d="m277.9 119.1h-0.3q-0.7-0.1-1.2-0.4-0.6-0.4-0.9-1c-7.5-12.9-14.7-20.5-19.9-26.1-5.9-6.3-10.1-10.9-5.8-16.3 7.7-9.8 37.6-20.6 47.7-15.3 0.7 0.3 1.2 0.9 1.6 1.5q0.6 0.9 0.7 2.1c1.5 8.8-7 40.9-19.8 54.6q-0.4 0.5-0.9 0.7-0.6 0.2-1.2 0.2zm12.3-54.9c-10.3 0-30.4 7.6-35.9 14.6-1.1 1.4-0.3 2.7 5.5 8.9 7 7.2 13.2 15.1 18.5 23.6 10.5-14.1 16.9-41.1 15.9-46.6q-1.9-0.6-4-0.5z"/>
		<path id="Layer" class="s12" d="m277.9 119.1q-0.1 0-0.3 0-0.7-0.1-1.2-0.4-0.6-0.4-0.9-1c-4.9-8.3-10.6-16.1-17.1-23.1q-1.5-1.6-2.8-3c-5.9-6.3-10.1-10.8-5.8-16.3 1.8-2.3 4.8-4.7 9-7.1 10.8-6.2 30.3-12.6 38.7-8.2q1 0.6 1.6 1.5 0.6 1 0.7 2.1c1.5 8.8-7.1 40.9-19.8 54.6q-0.4 0.5-0.9 0.7-0.6 0.2-1.2 0.2zm12.5-54.9c-7.2 0-19.7 3.7-28.8 9-3.4 1.9-6 3.9-7.3 5.6-1.1 1.4-0.3 2.7 5.5 8.9q1.3 1.4 2.8 3c5.9 6.4 11.2 13.3 15.7 20.6 10.5-14.1 16.9-41.1 15.9-46.5q-1.8-0.6-3.8-0.6z"/>
		<path id="Layer" class="s15" d="m122.4 174.8c2.5 7.6-5.4 25.1 3.6 29.9 12.1 6.5 21.9-14.2 24.2-20.8"/>
		<path id="Layer" class="s12" d="m150.2 183.8c-1.6 4.4-3.7 8.6-6.2 12.4-4.5 6.7-10.8 12.3-18 8.5-4.1-2.2-4.7-7.1-4.4-12.5 0.5-6.3 2.1-13.3 0.8-17.4l11.9-3.9z"/>
		<path id="Layer" class="s16" d="m144 196.3c-4.5 6.6-10.8 12.3-18 8.4-4.1-2.2-4.7-7.1-4.4-12.5 2.7-0.5 6 0 9 3.6 0-0.1 8.4-3.5 13.4 0.5z"/>
		<path id="Layer" class="s12" d="m135.1 194.5c-1.4 0.3-2.7 0.8-3.9 1.6-1.2 0.8-2.2 1.8-2.9 3.1 0 0-0.5-6.7 3.3-8.2 2.9-1.1 4.8 3.3 3.5 3.5z"/>
		<path id="Layer" class="s12" d="m130.7 207.7c-1.9 0-3.9-0.5-5.6-1.4-6.7-3.6-5.6-12.5-4.7-20.2 0.6-4.3 1.1-8.3 0.2-10.7-0.1-0.5-0.1-1 0.1-1.4 0.3-0.4 0.6-0.7 1.1-0.9 0.4-0.1 0.9-0.1 1.3 0.1 0.5 0.2 0.8 0.6 0.9 1 1.1 3.3 0.6 7.7 0 12.3-0.9 7-1.8 14.2 2.8 16.6 1 0.6 2.2 1 3.3 1 1.2 0.1 2.4-0.1 3.5-0.5 7.4-2.9 13.3-15.7 14.9-20.3 0.1-0.5 0.5-0.9 0.9-1.1 0.4-0.2 0.9-0.2 1.4 0 0.4 0.1 0.8 0.4 1 0.9 0.2 0.4 0.2 0.9 0.1 1.3-2.2 6.4-8.7 19.3-17 22.5-1.4 0.6-2.8 0.8-4.2 0.8z"/>
		<path id="Layer" class="s11" d="m157.4 179.7c-3.9 4.7-8.4 6.8-14.3 5.6-6.5-1.3-8.8-7.5-9.7-11.9-1.2 1.4-2.7 2.4-4.5 2.8-1.8 0.4-3.6 0.3-5.3-0.4-6.9-3.2-5.2-13.4-5.2-13.4 0 0 9.4-8.1 23.3-1.9 14 6.3 15.7 19.2 15.7 19.2z"/>
		<path id="Layer" class="s12" d="m158.2 180.4c-1.6 2.5-3.9 4.5-6.5 5.8-5.7 2.6-13.6 1.6-17.1-4-1.6-2.6-2.8-5.4-3.4-8.3l3.9 0.8c-5.8 7.5-17 3.7-18.1-5.4-0.3-2.4-0.2-4.7 0.3-7q0.1-0.5 0.5-0.7 0.3-0.2 0.8-0.2 0.4 0.1 0.6 0.4 0.3 0.4 0.2 0.8c0 2 0.2 4 0.8 6 0.4 1.8 1.4 3.3 2.8 4.5 2.5 2 6.6 1.4 8.6-1l3-3.7c0.8 3.5 1.4 8.4 3.6 11.2 2.7 3.8 8 4.9 12.2 3.5 2.3-0.9 4.5-2.3 6.2-4.1q0.3-0.3 0.7-0.3 0.4 0 0.7 0.3 0.3 0.2 0.4 0.6 0.1 0.5-0.2 0.8z"/>
		<path id="Layer" class="s12" d="m136.5 164.3c-1.8-0.9-2.2 4.2-5.1 7.7-1.1 1.3 5 5.2 4.6 2.2-1-6.8 3.1-8.7 0.5-9.9z"/>
		<path id="Layer" class="s10" d="m141.2 180.6c-3.2-1.8-4.8-9.7-2.9-12.6 1.4-2.2 6.1-2.4 5.4-0.5-5.2 13.4 9.8 12.4 9.8 12.4 0 0-7.5 3.2-12.3 0.7z"/>
		<path id="Layer" class="s10" d="m124.1 172c4 2.7 8.5-3.8 10.1-6.9 1.2-2.3-0.3-3.8-1.5-2.1-8 11.9-12.4 0.4-12.4 0.4 0 0 0 6 3.8 8.6z"/>
		<path id="Layer" class="s12" d="m128.4 154.7c-1.3 3.6 1.7 8.3 4.1 11.3 0.8 1 1.9 1.8 3.2 2.2 1.2 0.5 2.6 0.6 3.9 0.3 3.8-0.8 9-2.6 10.2-6.3 2.1-5.9-19.3-13.4-21.4-7.5z"/>
		<g id="Layer" style="opacity: .3">
			<path id="Layer" class="s13" d="m134 155.2c-0.3 0.7 1 1.8 2 2.5 0.8 0.6 1.7 0.9 2.7 1 1.2 0 2.9 0 3.2-0.7 0.4-1.1-7.6-3.9-7.9-2.8z"/>
		</g>
		<path id="Layer" class="s12" d="m115.9 107.6c9 2.2 13.8 14.6 10.6 27.7-3.3 13.2-13.2 22.1-22.3 19.9-9-2.2-13.8-14.6-10.5-27.7 3.2-13.2 13.1-22.1 22.2-19.9z"/>
		<path id="Layer" class="s13" d="m114.6 113.1c2.4 2.2 2.1 6.9-0.7 10.6-2.7 3.8-6.9 5-9.3 2.9-2.4-2.1-2.1-6.9 0.7-10.6 2.8-3.7 6.9-5 9.3-2.9z"/>
		<path id="Layer" class="s17" d="m114.5 143.8c1 1.4 0.3 3.8-1.5 5.4-1.8 1.6-4.1 1.7-5.1 0.3-0.9-1.5-0.3-3.9 1.5-5.5 1.8-1.6 4.1-1.7 5.1-0.2z"/>
		<path id="Layer" class="s12" d="m196.1 134.6c9.1 2.2 13.9 14.7 10.7 28-3.3 13.3-13.4 22.3-22.5 20.1-9.2-2.1-14-14.7-10.7-28 3.2-13.3 13.3-22.3 22.5-20.1z"/>
		<path id="Layer" class="s13" d="m194.8 140.2c2.4 2.2 2.1 7-0.7 10.7-2.8 3.8-7 5.1-9.4 2.9-2.4-2.1-2.1-6.9 0.7-10.7 2.8-3.8 7-5.1 9.4-2.9z"/>
		<path id="Layer" class="s17" d="m194.7 171.2c1 1.4 0.3 3.9-1.6 5.5-1.8 1.6-4.1 1.7-5.1 0.3-1-1.5-0.3-4 1.6-5.6 1.8-1.6 4.1-1.7 5.1-0.2z"/>
		<path id="Layer" class="s18" d="m187.4 196.7l-3.7 10.7 57.5 11.7 2-10.5z"/>
		<path id="Layer" class="s19" d="m182.5 213l-3.7 10.7 57.6 11.7 1.9-10.5z"/>
		<path id="Layer" class="s20" d="m63.4 146.1l-5.6 8 45.2 23.1 4-8.3z"/>
		<path id="Layer" class="s21" d="m57.9 158.9l-5.5 7.9 44.3 22.6 3.9-8.1z"/>
	</g>
</svg>