<svg xmlns="http://www.w3.org/2000/svg" fill="none" viewBox="68.32 68.98 375.98 375.98">
<g filter="url(#filter0_d_83_5785)">
<circle cx="256.304" cy="256.97" r="183.988" fill="url(#paint0_linear_83_5785)"/>
<circle cx="256.304" cy="256.97" r="185.988" stroke="white" stroke-width="4"/>
</g>
<path d="M126.316 126.982C96.155 157.143 77.3849 196.829 73.2041 239.278C69.0232 281.727 79.6903 324.312 103.388 359.778C127.085 395.243 162.347 421.395 203.164 433.777C243.982 446.159 287.83 444.005 327.237 427.682C366.644 411.358 399.173 381.876 419.28 344.259C439.387 306.641 445.828 263.215 437.507 221.381C429.186 179.546 406.616 141.891 373.644 114.832C340.672 87.7721 299.337 72.9823 256.683 72.9823L256.683 219.381C265.467 219.381 273.979 222.427 280.77 227.999C287.56 233.572 292.208 241.326 293.921 249.942C295.635 258.557 294.308 267.5 290.168 275.247C286.027 282.994 279.328 289.065 271.213 292.427C263.097 295.788 254.067 296.232 245.661 293.682C237.256 291.132 229.994 285.746 225.114 278.443C220.234 271.139 218.037 262.369 218.898 253.627C219.759 244.886 223.624 236.713 229.836 230.502L126.316 126.982Z" fill="#EA3323"/>
<path d="M259.292 73.0565C228.807 72.6767 198.705 79.8795 171.694 94.0174C144.683 108.155 121.609 128.785 104.547 154.051L225.604 235.799C229.118 230.596 233.87 226.347 239.432 223.436C244.995 220.524 251.194 219.041 257.472 219.119L259.292 73.0565Z" fill="#00BA5D"/>
<path d="M104.6 153.972C87.5251 179.23 76.9954 208.335 73.9576 238.671C70.9199 269.006 75.4693 299.621 87.197 327.763L222.031 271.573C219.616 265.777 218.679 259.473 219.305 253.225C219.93 246.978 222.099 240.984 225.615 235.783L104.6 153.972Z" fill="#FFCB01"/>
<circle cx="259.861" cy="262.788" r="66.4105" fill="#003F00" stroke="white" stroke-width="11"/>
<path d="M351.095 308.664C351.095 308.938 351.017 309.318 350.861 309.807C350.724 310.295 350.539 310.852 350.304 311.477C350.089 312.082 349.835 312.727 349.542 313.41C349.269 314.074 348.996 314.719 348.722 315.344C348.449 315.949 348.195 316.516 347.96 317.043C347.726 317.57 347.541 317.98 347.404 318.273C347.15 318.859 346.828 319.602 346.437 320.5C346.046 321.379 345.626 322.287 345.177 323.225C344.728 324.143 344.259 325.012 343.771 325.832C343.302 326.633 342.863 327.258 342.453 327.707C342.042 328.156 341.554 328.381 340.988 328.381C340.558 328.381 340.197 328.244 339.904 327.971C339.611 327.697 339.464 327.336 339.464 326.887C339.464 326.281 339.591 325.559 339.845 324.719C340.119 323.879 340.431 323.029 340.783 322.17C341.154 321.291 341.535 320.441 341.925 319.621C342.316 318.801 342.648 318.098 342.921 317.512C343.429 316.359 343.937 315.227 344.445 314.113C344.953 312.98 345.46 311.838 345.968 310.686C345.695 310.646 345.402 310.617 345.089 310.598C344.796 310.578 344.513 310.568 344.24 310.568C343.244 310.568 342.218 310.646 341.164 310.803C340.128 310.939 339.123 311.105 338.146 311.301C338.048 311.32 337.902 311.33 337.707 311.33C337.257 311.33 336.886 311.193 336.593 310.92C336.32 310.646 336.183 310.285 336.183 309.836C336.183 309.367 336.339 308.957 336.652 308.605C336.984 308.254 337.404 307.961 337.912 307.727C338.439 307.473 339.015 307.268 339.64 307.111C340.285 306.955 340.91 306.828 341.515 306.73C342.14 306.633 342.716 306.574 343.244 306.555C343.771 306.516 344.191 306.496 344.503 306.496C344.835 306.496 345.314 306.525 345.939 306.584C346.583 306.623 347.238 306.701 347.902 306.818C348.585 306.916 349.21 307.062 349.777 307.258C350.343 307.434 350.724 307.668 350.919 307.961C351.017 308.078 351.066 308.195 351.066 308.312C351.085 308.41 351.095 308.527 351.095 308.664ZM369.318 317.834C369.318 319.162 369.113 320.5 368.703 321.848C368.312 323.176 367.726 324.387 366.945 325.48C366.183 326.555 365.226 327.424 364.074 328.088C362.921 328.771 361.593 329.113 360.089 329.113C358.82 329.113 357.677 328.781 356.662 328.117C355.646 327.453 354.777 326.613 354.054 325.598C353.351 324.562 352.804 323.439 352.414 322.229C352.042 320.998 351.857 319.816 351.857 318.684C351.857 317.883 351.964 317.043 352.179 316.164C352.394 315.285 352.697 314.416 353.087 313.557C353.498 312.697 353.976 311.877 354.523 311.096C355.089 310.295 355.714 309.602 356.398 309.016C357.101 308.41 357.853 307.932 358.654 307.58C359.474 307.229 360.324 307.053 361.203 307.053C362.707 307.053 363.976 307.375 365.011 308.02C366.046 308.664 366.876 309.504 367.501 310.539C368.146 311.555 368.605 312.707 368.878 313.996C369.171 315.266 369.318 316.545 369.318 317.834ZM365.07 317.688C365.07 317.199 365.001 316.623 364.865 315.959C364.728 315.295 364.513 314.67 364.22 314.084C363.947 313.498 363.585 313 363.136 312.59C362.687 312.18 362.15 311.975 361.525 311.975C360.763 311.975 360.08 312.219 359.474 312.707C358.888 313.176 358.39 313.762 357.98 314.465C357.57 315.168 357.248 315.92 357.013 316.721C356.798 317.521 356.691 318.244 356.691 318.889C356.691 319.396 356.759 319.973 356.896 320.617C357.033 321.262 357.248 321.877 357.541 322.463C357.833 323.029 358.205 323.518 358.654 323.928C359.123 324.318 359.669 324.514 360.294 324.514C361.056 324.514 361.73 324.279 362.316 323.811C362.921 323.322 363.419 322.736 363.81 322.053C364.22 321.35 364.533 320.607 364.748 319.826C364.962 319.025 365.07 318.312 365.07 317.688ZM388.273 328.088C387.511 328.088 386.847 327.873 386.281 327.443C385.734 326.994 385.275 326.447 384.904 325.803C384.552 325.139 384.289 324.445 384.113 323.723C383.937 322.98 383.849 322.316 383.849 321.73C383.849 321.125 383.957 320.412 384.171 319.592C384.406 318.771 384.738 318 385.167 317.277C385.597 316.555 386.115 315.939 386.72 315.432C387.345 314.924 388.048 314.67 388.83 314.67C389.708 314.67 390.431 314.895 390.998 315.344C391.564 315.773 392.013 316.32 392.345 316.984C392.677 317.648 392.902 318.361 393.019 319.123C393.156 319.885 393.224 320.588 393.224 321.232C393.224 321.916 393.126 322.658 392.931 323.459C392.755 324.26 392.462 325.002 392.052 325.686C391.662 326.369 391.154 326.945 390.529 327.414C389.904 327.863 389.152 328.088 388.273 328.088ZM387.072 312.268C386.72 312.834 386.359 313.391 385.988 313.938C385.636 314.484 385.294 315.002 384.962 315.49C384.65 315.979 384.357 316.418 384.083 316.809C383.83 317.18 383.625 317.482 383.468 317.717C383.332 317.912 383.126 318.215 382.853 318.625C382.58 319.016 382.257 319.475 381.886 320.002C381.535 320.529 381.134 321.105 380.685 321.73C380.255 322.336 379.816 322.941 379.367 323.547C378.917 324.133 378.468 324.719 378.019 325.305C377.589 325.871 377.169 326.379 376.759 326.828C376.349 327.277 375.978 327.639 375.646 327.912C375.314 328.186 375.05 328.322 374.855 328.322C374.582 328.322 374.406 328.215 374.328 328C374.269 327.805 374.24 327.658 374.24 327.561C374.24 327.189 374.367 326.701 374.621 326.096C374.894 325.471 375.226 324.797 375.617 324.074C376.027 323.332 376.486 322.561 376.994 321.76C377.501 320.959 377.99 320.197 378.458 319.475C378.947 318.732 379.396 318.059 379.806 317.453C380.236 316.828 380.568 316.34 380.802 315.988C380.958 315.754 381.232 315.344 381.623 314.758C382.033 314.172 382.501 313.508 383.029 312.766C383.556 312.023 384.113 311.252 384.699 310.451C385.304 309.65 385.89 308.928 386.457 308.283C387.023 307.619 387.541 307.072 388.009 306.643C388.478 306.213 388.849 305.998 389.123 305.998C389.376 305.998 389.533 306.086 389.591 306.262C389.669 306.438 389.708 306.584 389.708 306.701C389.708 306.955 389.63 307.287 389.474 307.697C389.337 308.088 389.142 308.537 388.888 309.045C388.654 309.533 388.371 310.061 388.039 310.627C387.726 311.174 387.404 311.721 387.072 312.268ZM374.972 319.504C374.21 319.504 373.546 319.279 372.98 318.83C372.433 318.381 371.974 317.834 371.603 317.189C371.251 316.545 370.978 315.861 370.783 315.139C370.607 314.396 370.519 313.732 370.519 313.146C370.519 312.521 370.626 311.809 370.841 311.008C371.076 310.188 371.408 309.416 371.837 308.693C372.287 307.951 372.814 307.336 373.419 306.848C374.044 306.34 374.757 306.086 375.558 306.086C376.437 306.086 377.15 306.311 377.697 306.76C378.263 307.189 378.712 307.736 379.044 308.4C379.376 309.045 379.601 309.758 379.718 310.539C379.855 311.301 379.923 312.004 379.923 312.648C379.923 313.332 379.826 314.074 379.63 314.875C379.455 315.676 379.162 316.418 378.751 317.102C378.361 317.785 377.853 318.361 377.228 318.83C376.603 319.279 375.851 319.504 374.972 319.504ZM389.005 318.039C388.654 318.039 388.332 318.176 388.039 318.449C387.765 318.723 387.531 319.055 387.335 319.445C387.14 319.836 386.994 320.256 386.896 320.705C386.798 321.135 386.75 321.525 386.75 321.877C386.75 322.15 386.779 322.463 386.837 322.814C386.896 323.166 386.994 323.498 387.13 323.811C387.267 324.123 387.433 324.396 387.628 324.631C387.843 324.846 388.087 324.953 388.361 324.953C388.712 324.953 389.025 324.816 389.298 324.543C389.572 324.27 389.806 323.938 390.001 323.547C390.197 323.156 390.343 322.746 390.441 322.316C390.539 321.867 390.587 321.477 390.587 321.145C390.587 320.891 390.548 320.588 390.47 320.236C390.412 319.865 390.314 319.523 390.177 319.211C390.06 318.879 389.894 318.605 389.679 318.391C389.484 318.156 389.259 318.039 389.005 318.039ZM375.705 309.426C375.353 309.426 375.031 309.562 374.738 309.836C374.464 310.109 374.23 310.441 374.035 310.832C373.839 311.223 373.693 311.643 373.595 312.092C373.498 312.521 373.449 312.912 373.449 313.264C373.449 313.537 373.478 313.85 373.537 314.201C373.615 314.553 373.712 314.895 373.83 315.227C373.966 315.539 374.132 315.812 374.328 316.047C374.542 316.262 374.796 316.369 375.089 316.369C375.441 316.369 375.753 316.232 376.027 315.959C376.3 315.686 376.525 315.354 376.701 314.963C376.896 314.572 377.042 314.162 377.14 313.732C377.238 313.283 377.287 312.893 377.287 312.561C377.287 312.287 377.257 311.975 377.199 311.623C377.14 311.252 377.042 310.91 376.906 310.598C376.769 310.266 376.603 309.992 376.408 309.777C376.212 309.543 375.978 309.426 375.705 309.426Z" fill="white"/>
<path d="M199.536 136.557C199.536 137.162 199.526 137.768 199.506 138.373C199.487 138.978 199.467 139.584 199.448 140.189C199.409 141.186 199.389 142.182 199.389 143.178C199.389 144.154 199.36 145.141 199.301 146.137C199.282 146.469 199.262 146.918 199.243 147.484C199.223 148.031 199.145 148.578 199.008 149.125C198.891 149.652 198.696 150.121 198.422 150.531C198.149 150.922 197.768 151.117 197.28 151.117C196.811 151.117 196.43 150.961 196.137 150.648C195.844 150.316 195.61 149.906 195.434 149.418C195.278 148.91 195.17 148.353 195.112 147.748C195.053 147.123 195.014 146.518 194.995 145.932C194.995 145.326 195.004 144.77 195.024 144.262C195.043 143.754 195.053 143.363 195.053 143.09C195.053 141.762 195.053 140.434 195.053 139.105C195.073 137.777 195.092 136.449 195.112 135.121C194.721 134.789 194.409 134.389 194.174 133.92C193.959 133.432 193.852 132.934 193.852 132.426C193.852 131.625 194.086 130.941 194.555 130.375C195.043 129.809 195.708 129.525 196.547 129.525C197.27 129.525 197.836 129.799 198.247 130.346C198.657 130.893 198.95 131.547 199.125 132.309C199.321 133.07 199.438 133.852 199.477 134.652C199.516 135.434 199.536 136.068 199.536 136.557ZM216 144.145C216 145.297 215.815 146.322 215.444 147.221C215.092 148.119 214.584 148.881 213.92 149.506C213.276 150.131 212.495 150.609 211.577 150.941C210.678 151.273 209.672 151.439 208.559 151.439C207.954 151.439 207.28 151.332 206.538 151.117C205.815 150.902 205.131 150.59 204.487 150.18C203.842 149.77 203.305 149.281 202.875 148.715C202.446 148.129 202.231 147.484 202.231 146.781C202.231 146.273 202.387 145.863 202.7 145.551C203.012 145.238 203.422 145.082 203.93 145.082C204.418 145.082 204.829 145.18 205.161 145.375C205.493 145.57 205.815 145.795 206.127 146.049C206.459 146.283 206.831 146.498 207.241 146.693C207.651 146.889 208.178 146.986 208.823 146.986C209.604 146.986 210.239 146.713 210.727 146.166C211.215 145.619 211.459 144.965 211.459 144.203C211.459 143.48 211.293 142.855 210.961 142.328C210.629 141.801 210.083 141.537 209.321 141.537C208.969 141.537 208.647 141.576 208.354 141.654C208.081 141.732 207.807 141.82 207.534 141.918C207.28 142.016 207.016 142.113 206.743 142.211C206.489 142.289 206.225 142.348 205.952 142.387C205.737 142.426 205.463 142.416 205.131 142.357C204.799 142.279 204.458 142.172 204.106 142.035C203.774 141.898 203.471 141.742 203.198 141.566C202.924 141.371 202.749 141.166 202.67 140.951C202.612 140.775 202.553 140.395 202.495 139.809C202.456 139.223 202.417 138.588 202.377 137.904C202.358 137.221 202.338 136.576 202.319 135.971C202.319 135.346 202.319 134.916 202.319 134.682C202.319 134.525 202.319 134.271 202.319 133.92C202.319 133.568 202.329 133.207 202.348 132.836C202.387 132.445 202.426 132.084 202.465 131.752C202.504 131.42 202.573 131.195 202.67 131.078C202.788 130.902 203.071 130.736 203.52 130.58C203.989 130.424 204.526 130.277 205.131 130.141C205.756 130.004 206.43 129.887 207.153 129.789C207.875 129.672 208.559 129.574 209.204 129.496C209.868 129.418 210.463 129.359 210.991 129.32C211.538 129.281 211.928 129.262 212.163 129.262C212.436 129.262 212.719 129.301 213.012 129.379C213.325 129.437 213.598 129.545 213.833 129.701C214.086 129.838 214.292 130.023 214.448 130.258C214.604 130.492 214.682 130.775 214.682 131.107C214.682 131.635 214.497 132.055 214.125 132.367C213.754 132.68 213.344 132.914 212.895 133.07C212.543 133.187 212.114 133.285 211.606 133.363C211.098 133.441 210.581 133.52 210.053 133.598C209.526 133.656 209.008 133.705 208.5 133.744C208.012 133.783 207.583 133.812 207.211 133.832L207.27 138.08C207.661 138.002 208.051 137.943 208.442 137.904C208.833 137.846 209.233 137.816 209.643 137.816C211.713 137.816 213.286 138.353 214.36 139.428C215.454 140.502 216 142.074 216 144.145ZM234.926 151.088C234.165 151.088 233.5 150.873 232.934 150.443C232.387 149.994 231.928 149.447 231.557 148.803C231.206 148.139 230.942 147.445 230.766 146.723C230.59 145.98 230.502 145.316 230.502 144.73C230.502 144.125 230.61 143.412 230.825 142.592C231.059 141.771 231.391 141 231.821 140.277C232.25 139.555 232.768 138.939 233.374 138.432C233.999 137.924 234.702 137.67 235.483 137.67C236.362 137.67 237.084 137.895 237.651 138.344C238.217 138.773 238.667 139.32 238.999 139.984C239.331 140.648 239.555 141.361 239.672 142.123C239.809 142.885 239.877 143.588 239.877 144.232C239.877 144.916 239.78 145.658 239.584 146.459C239.409 147.26 239.116 148.002 238.706 148.686C238.315 149.369 237.807 149.945 237.182 150.414C236.557 150.863 235.805 151.088 234.926 151.088ZM233.725 135.268C233.374 135.834 233.012 136.391 232.641 136.937C232.29 137.484 231.948 138.002 231.616 138.49C231.303 138.978 231.01 139.418 230.737 139.809C230.483 140.18 230.278 140.482 230.122 140.717C229.985 140.912 229.78 141.215 229.506 141.625C229.233 142.016 228.911 142.475 228.54 143.002C228.188 143.529 227.788 144.105 227.338 144.73C226.909 145.336 226.469 145.941 226.02 146.547C225.571 147.133 225.122 147.719 224.672 148.305C224.243 148.871 223.823 149.379 223.413 149.828C223.002 150.277 222.631 150.639 222.299 150.912C221.967 151.186 221.704 151.322 221.508 151.322C221.235 151.322 221.059 151.215 220.981 151C220.922 150.805 220.893 150.658 220.893 150.561C220.893 150.189 221.02 149.701 221.274 149.096C221.547 148.471 221.879 147.797 222.27 147.074C222.68 146.332 223.139 145.561 223.647 144.76C224.155 143.959 224.643 143.197 225.112 142.475C225.6 141.732 226.049 141.059 226.459 140.453C226.889 139.828 227.221 139.34 227.456 138.988C227.612 138.754 227.885 138.344 228.276 137.758C228.686 137.172 229.155 136.508 229.682 135.766C230.209 135.023 230.766 134.252 231.352 133.451C231.958 132.65 232.543 131.928 233.11 131.283C233.676 130.619 234.194 130.072 234.663 129.643C235.131 129.213 235.502 128.998 235.776 128.998C236.03 128.998 236.186 129.086 236.245 129.262C236.323 129.437 236.362 129.584 236.362 129.701C236.362 129.955 236.284 130.287 236.127 130.697C235.991 131.088 235.795 131.537 235.542 132.045C235.307 132.533 235.024 133.061 234.692 133.627C234.379 134.174 234.057 134.721 233.725 135.268ZM221.625 142.504C220.864 142.504 220.2 142.279 219.633 141.83C219.086 141.381 218.627 140.834 218.256 140.189C217.905 139.545 217.631 138.861 217.436 138.139C217.26 137.396 217.172 136.732 217.172 136.146C217.172 135.521 217.28 134.809 217.495 134.008C217.729 133.187 218.061 132.416 218.491 131.693C218.94 130.951 219.467 130.336 220.073 129.848C220.698 129.34 221.411 129.086 222.211 129.086C223.09 129.086 223.803 129.311 224.35 129.76C224.917 130.189 225.366 130.736 225.698 131.4C226.03 132.045 226.254 132.758 226.372 133.539C226.508 134.301 226.577 135.004 226.577 135.648C226.577 136.332 226.479 137.074 226.284 137.875C226.108 138.676 225.815 139.418 225.405 140.102C225.014 140.785 224.506 141.361 223.881 141.83C223.256 142.279 222.504 142.504 221.625 142.504ZM235.659 141.039C235.307 141.039 234.985 141.176 234.692 141.449C234.418 141.723 234.184 142.055 233.989 142.445C233.793 142.836 233.647 143.256 233.549 143.705C233.452 144.135 233.403 144.525 233.403 144.877C233.403 145.15 233.432 145.463 233.491 145.814C233.549 146.166 233.647 146.498 233.784 146.811C233.92 147.123 234.086 147.396 234.282 147.631C234.497 147.846 234.741 147.953 235.014 147.953C235.366 147.953 235.678 147.816 235.952 147.543C236.225 147.27 236.459 146.937 236.655 146.547C236.85 146.156 236.997 145.746 237.094 145.316C237.192 144.867 237.241 144.477 237.241 144.145C237.241 143.891 237.202 143.588 237.124 143.236C237.065 142.865 236.967 142.523 236.831 142.211C236.713 141.879 236.547 141.605 236.333 141.391C236.137 141.156 235.913 141.039 235.659 141.039ZM222.358 132.426C222.006 132.426 221.684 132.562 221.391 132.836C221.118 133.109 220.883 133.441 220.688 133.832C220.493 134.223 220.346 134.643 220.249 135.092C220.151 135.521 220.102 135.912 220.102 136.264C220.102 136.537 220.131 136.85 220.19 137.201C220.268 137.553 220.366 137.895 220.483 138.227C220.62 138.539 220.786 138.812 220.981 139.047C221.196 139.262 221.45 139.369 221.743 139.369C222.094 139.369 222.407 139.232 222.68 138.959C222.954 138.686 223.178 138.353 223.354 137.963C223.549 137.572 223.696 137.162 223.793 136.732C223.891 136.283 223.94 135.893 223.94 135.561C223.94 135.287 223.911 134.975 223.852 134.623C223.793 134.252 223.696 133.91 223.559 133.598C223.422 133.266 223.256 132.992 223.061 132.777C222.866 132.543 222.631 132.426 222.358 132.426Z" fill="white"/>
<path d="M120.353 246.557C120.353 247.162 120.344 247.768 120.324 248.373C120.305 248.979 120.285 249.584 120.266 250.189C120.226 251.186 120.207 252.182 120.207 253.178C120.207 254.154 120.178 255.141 120.119 256.137C120.099 256.469 120.08 256.918 120.06 257.484C120.041 258.031 119.963 258.578 119.826 259.125C119.709 259.652 119.514 260.121 119.24 260.531C118.967 260.922 118.586 261.117 118.098 261.117C117.629 261.117 117.248 260.961 116.955 260.648C116.662 260.316 116.428 259.906 116.252 259.418C116.096 258.91 115.988 258.354 115.93 257.748C115.871 257.123 115.832 256.518 115.812 255.932C115.812 255.326 115.822 254.77 115.842 254.262C115.861 253.754 115.871 253.363 115.871 253.09C115.871 251.762 115.871 250.434 115.871 249.105C115.891 247.777 115.91 246.449 115.93 245.121C115.539 244.789 115.226 244.389 114.992 243.92C114.777 243.432 114.67 242.934 114.67 242.426C114.67 241.625 114.904 240.941 115.373 240.375C115.861 239.809 116.525 239.525 117.365 239.525C118.088 239.525 118.654 239.799 119.064 240.346C119.474 240.893 119.767 241.547 119.943 242.309C120.139 243.07 120.256 243.852 120.295 244.652C120.334 245.434 120.353 246.068 120.353 246.557ZM136.818 254.145C136.818 255.297 136.633 256.322 136.262 257.221C135.91 258.119 135.402 258.881 134.738 259.506C134.094 260.131 133.312 260.609 132.394 260.941C131.496 261.273 130.49 261.439 129.377 261.439C128.771 261.439 128.098 261.332 127.355 261.117C126.633 260.902 125.949 260.59 125.305 260.18C124.66 259.77 124.123 259.281 123.693 258.715C123.264 258.129 123.049 257.484 123.049 256.781C123.049 256.273 123.205 255.863 123.517 255.551C123.83 255.238 124.24 255.082 124.748 255.082C125.236 255.082 125.646 255.18 125.978 255.375C126.31 255.57 126.633 255.795 126.945 256.049C127.277 256.283 127.648 256.498 128.058 256.693C128.469 256.889 128.996 256.986 129.641 256.986C130.422 256.986 131.057 256.713 131.545 256.166C132.033 255.619 132.277 254.965 132.277 254.203C132.277 253.48 132.111 252.855 131.779 252.328C131.447 251.801 130.9 251.537 130.139 251.537C129.787 251.537 129.465 251.576 129.172 251.654C128.898 251.732 128.625 251.82 128.351 251.918C128.098 252.016 127.834 252.113 127.56 252.211C127.307 252.289 127.043 252.348 126.769 252.387C126.555 252.426 126.281 252.416 125.949 252.357C125.617 252.279 125.275 252.172 124.924 252.035C124.592 251.898 124.289 251.742 124.016 251.566C123.742 251.371 123.566 251.166 123.488 250.951C123.43 250.775 123.371 250.395 123.312 249.809C123.273 249.223 123.234 248.588 123.195 247.904C123.176 247.221 123.156 246.576 123.137 245.971C123.137 245.346 123.137 244.916 123.137 244.682C123.137 244.525 123.137 244.271 123.137 243.92C123.137 243.568 123.146 243.207 123.166 242.836C123.205 242.445 123.244 242.084 123.283 241.752C123.322 241.42 123.391 241.195 123.488 241.078C123.605 240.902 123.889 240.736 124.338 240.58C124.807 240.424 125.344 240.277 125.949 240.141C126.574 240.004 127.248 239.887 127.971 239.789C128.693 239.672 129.377 239.574 130.021 239.496C130.685 239.418 131.281 239.359 131.808 239.32C132.355 239.281 132.746 239.262 132.98 239.262C133.254 239.262 133.537 239.301 133.83 239.379C134.142 239.438 134.416 239.545 134.65 239.701C134.904 239.838 135.109 240.023 135.266 240.258C135.422 240.492 135.5 240.775 135.5 241.107C135.5 241.635 135.314 242.055 134.943 242.367C134.572 242.68 134.162 242.914 133.713 243.07C133.361 243.188 132.932 243.285 132.424 243.363C131.916 243.441 131.398 243.52 130.871 243.598C130.344 243.656 129.826 243.705 129.318 243.744C128.83 243.783 128.4 243.812 128.029 243.832L128.088 248.08C128.478 248.002 128.869 247.943 129.26 247.904C129.65 247.846 130.051 247.816 130.461 247.816C132.531 247.816 134.103 248.354 135.178 249.428C136.271 250.502 136.818 252.074 136.818 254.145ZM155.744 261.088C154.982 261.088 154.318 260.873 153.752 260.443C153.205 259.994 152.746 259.447 152.375 258.803C152.023 258.139 151.76 257.445 151.584 256.723C151.408 255.98 151.32 255.316 151.32 254.73C151.32 254.125 151.428 253.412 151.642 252.592C151.877 251.771 152.209 251 152.639 250.277C153.068 249.555 153.586 248.939 154.191 248.432C154.816 247.924 155.519 247.67 156.301 247.67C157.18 247.67 157.902 247.895 158.469 248.344C159.035 248.773 159.484 249.32 159.816 249.984C160.148 250.648 160.373 251.361 160.49 252.123C160.627 252.885 160.695 253.588 160.695 254.232C160.695 254.916 160.598 255.658 160.402 256.459C160.226 257.26 159.933 258.002 159.523 258.686C159.133 259.369 158.625 259.945 158 260.414C157.375 260.863 156.623 261.088 155.744 261.088ZM154.543 245.268C154.191 245.834 153.83 246.391 153.459 246.938C153.107 247.484 152.766 248.002 152.433 248.49C152.121 248.979 151.828 249.418 151.555 249.809C151.301 250.18 151.096 250.482 150.939 250.717C150.803 250.912 150.598 251.215 150.324 251.625C150.051 252.016 149.728 252.475 149.357 253.002C149.006 253.529 148.605 254.105 148.156 254.73C147.726 255.336 147.287 255.941 146.838 256.547C146.389 257.133 145.939 257.719 145.49 258.305C145.06 258.871 144.641 259.379 144.23 259.828C143.82 260.277 143.449 260.639 143.117 260.912C142.785 261.186 142.521 261.322 142.326 261.322C142.053 261.322 141.877 261.215 141.799 261C141.74 260.805 141.711 260.658 141.711 260.561C141.711 260.189 141.838 259.701 142.092 259.096C142.365 258.471 142.697 257.797 143.088 257.074C143.498 256.332 143.957 255.561 144.465 254.76C144.973 253.959 145.461 253.197 145.93 252.475C146.418 251.732 146.867 251.059 147.277 250.453C147.707 249.828 148.039 249.34 148.273 248.988C148.43 248.754 148.703 248.344 149.094 247.758C149.504 247.172 149.973 246.508 150.5 245.766C151.027 245.023 151.584 244.252 152.17 243.451C152.775 242.65 153.361 241.928 153.928 241.283C154.494 240.619 155.012 240.072 155.48 239.643C155.949 239.213 156.32 238.998 156.594 238.998C156.848 238.998 157.004 239.086 157.062 239.262C157.141 239.438 157.18 239.584 157.18 239.701C157.18 239.955 157.101 240.287 156.945 240.697C156.808 241.088 156.613 241.537 156.359 242.045C156.125 242.533 155.842 243.061 155.51 243.627C155.197 244.174 154.875 244.721 154.543 245.268ZM142.443 252.504C141.682 252.504 141.017 252.279 140.451 251.83C139.904 251.381 139.445 250.834 139.074 250.189C138.723 249.545 138.449 248.861 138.254 248.139C138.078 247.396 137.99 246.732 137.99 246.146C137.99 245.521 138.098 244.809 138.312 244.008C138.547 243.188 138.879 242.416 139.308 241.693C139.758 240.951 140.285 240.336 140.891 239.848C141.516 239.34 142.228 239.086 143.029 239.086C143.908 239.086 144.621 239.311 145.168 239.76C145.734 240.189 146.183 240.736 146.516 241.4C146.848 242.045 147.072 242.758 147.189 243.539C147.326 244.301 147.394 245.004 147.394 245.648C147.394 246.332 147.297 247.074 147.101 247.875C146.926 248.676 146.633 249.418 146.223 250.102C145.832 250.785 145.324 251.361 144.699 251.83C144.074 252.279 143.322 252.504 142.443 252.504ZM156.476 251.039C156.125 251.039 155.803 251.176 155.51 251.449C155.236 251.723 155.002 252.055 154.807 252.445C154.611 252.836 154.465 253.256 154.367 253.705C154.269 254.135 154.221 254.525 154.221 254.877C154.221 255.15 154.25 255.463 154.308 255.814C154.367 256.166 154.465 256.498 154.601 256.811C154.738 257.123 154.904 257.396 155.099 257.631C155.314 257.846 155.558 257.953 155.832 257.953C156.183 257.953 156.496 257.816 156.769 257.543C157.043 257.27 157.277 256.938 157.473 256.547C157.668 256.156 157.814 255.746 157.912 255.316C158.01 254.867 158.058 254.477 158.058 254.145C158.058 253.891 158.019 253.588 157.941 253.236C157.883 252.865 157.785 252.523 157.648 252.211C157.531 251.879 157.365 251.605 157.15 251.391C156.955 251.156 156.73 251.039 156.476 251.039ZM143.176 242.426C142.824 242.426 142.502 242.562 142.209 242.836C141.935 243.109 141.701 243.441 141.506 243.832C141.31 244.223 141.164 244.643 141.066 245.092C140.969 245.521 140.92 245.912 140.92 246.264C140.92 246.537 140.949 246.85 141.008 247.201C141.086 247.553 141.183 247.895 141.301 248.227C141.437 248.539 141.603 248.812 141.799 249.047C142.014 249.262 142.267 249.369 142.56 249.369C142.912 249.369 143.224 249.232 143.498 248.959C143.771 248.686 143.996 248.354 144.172 247.963C144.367 247.572 144.514 247.162 144.611 246.732C144.709 246.283 144.758 245.893 144.758 245.561C144.758 245.287 144.728 244.975 144.67 244.623C144.611 244.252 144.514 243.91 144.377 243.598C144.24 243.266 144.074 242.992 143.879 242.777C143.683 242.543 143.449 242.426 143.176 242.426Z" fill="white"/>
<defs>
<filter id="filter0_d_83_5785" x="63.3159" y="60.9826" width="407.975" height="407.975" filterUnits="userSpaceOnUse" color-interpolation-filters="sRGB">
<feFlood flood-opacity="0" result="BackgroundImageFix"/>
<feColorMatrix in="SourceAlpha" type="matrix" values="0 0 0 0 0 0 0 0 0 0 0 0 0 0 0 0 0 0 127 0" result="hardAlpha"/>
<feOffset dx="11" dy="8"/>
<feGaussianBlur stdDeviation="8"/>
<feComposite in2="hardAlpha" operator="out"/>
<feColorMatrix type="matrix" values="0 0 0 0 0 0 0 0 0 0 0 0 0 0 0 0 0 0 0.38 0"/>
<feBlend mode="normal" in2="BackgroundImageFix" result="effect1_dropShadow_83_5785"/>
<feBlend mode="normal" in="SourceGraphic" in2="effect1_dropShadow_83_5785" result="shape"/>
</filter>
<linearGradient id="paint0_linear_83_5785" x1="256.304" y1="72.9826" x2="256.304" y2="440.958" gradientUnits="userSpaceOnUse">
<stop stop-color="#9DECF7"/>
<stop offset="1" stop-color="#F5FEFF"/>
</linearGradient>
</defs>
</svg>