<svg width="276" height="371" viewBox="0 0 276 371" fill="none" xmlns="http://www.w3.org/2000/svg">
<g opacity="0.2">
<path d="M138.213 370.713C195.754 370.713 242.4 363.2 242.4 353.933C242.4 344.665 195.754 337.152 138.213 337.152C80.6718 337.152 34.0256 344.665 34.0256 353.933C34.0256 363.2 80.6718 370.713 138.213 370.713Z" fill="#001477"/>
</g>
<path d="M14.9893 169.54C22.6099 169.54 28.7878 162.754 28.7878 154.384C28.7878 146.013 22.6099 139.228 14.9893 139.228C7.3687 139.228 1.19104 146.013 1.19104 154.384C1.19104 162.754 7.3687 169.54 14.9893 169.54Z" fill="#FCD21D"/>
<path d="M14.9892 170.731C14.681 170.731 14.3847 170.612 14.1634 170.397C13.9421 170.183 13.8131 169.89 13.8036 169.582C13.6574 165.373 12.1481 155.575 1.19091 155.575C1.03454 155.575 0.879673 155.544 0.735202 155.485C0.590732 155.425 0.459431 155.337 0.348858 155.226C0.238285 155.116 0.150626 154.985 0.0907846 154.84C0.0309429 154.696 0 154.541 0 154.384C0 154.228 0.0309429 154.073 0.0907846 153.929C0.150626 153.784 0.238285 153.653 0.348858 153.542C0.459431 153.432 0.590732 153.344 0.735202 153.284C0.879673 153.224 1.03454 153.194 1.19091 153.194C12.1585 153.194 13.6574 143.401 13.8036 139.186C13.8236 138.885 13.9576 138.602 14.1782 138.396C14.3988 138.189 14.6895 138.074 14.9917 138.074C15.2939 138.074 15.5848 138.189 15.8054 138.396C16.0261 138.602 16.1598 138.885 16.1798 139.186C16.3208 143.401 17.8302 153.194 28.7874 153.194C29.1032 153.194 29.4061 153.319 29.6294 153.542C29.8528 153.766 29.9783 154.069 29.9783 154.384C29.9783 154.7 29.8528 155.003 29.6294 155.226C29.4061 155.45 29.1032 155.575 28.7874 155.575C17.8198 155.575 16.3208 165.373 16.1798 169.582C16.169 169.891 16.0388 170.183 15.8167 170.397C15.5945 170.612 15.2979 170.732 14.9892 170.731ZM7.54685 154.384C11.6884 156.15 13.8454 159.607 14.9682 162.882C16.0911 159.607 18.2533 156.15 22.3896 154.384C18.2533 152.619 16.0911 149.162 14.9682 145.887C13.8663 149.162 11.725 152.619 7.54685 154.384Z" fill="#000072"/>
<path d="M260.652 99.2846C268.273 99.2846 274.451 92.499 274.451 84.1284C274.451 75.7579 268.273 68.9723 260.652 68.9723C253.032 68.9723 246.854 75.7579 246.854 84.1284C246.854 92.499 253.032 99.2846 260.652 99.2846Z" fill="#FCD21D"/>
<path d="M260.653 100.476C260.344 100.476 260.048 100.356 259.826 100.142C259.603 99.9277 259.473 99.6354 259.462 99.3269C259.321 95.1174 257.807 85.3197 246.855 85.3197C246.698 85.3197 246.544 85.2889 246.399 85.2291C246.255 85.1692 246.123 85.0815 246.013 84.9709C245.902 84.8604 245.815 84.7291 245.755 84.5846C245.695 84.4402 245.664 84.2853 245.664 84.1289C245.664 83.9726 245.695 83.8177 245.755 83.6732C245.815 83.5288 245.902 83.3975 246.013 83.2869C246.123 83.1764 246.255 83.0886 246.399 83.0288C246.544 82.969 246.698 82.9382 246.855 82.9382C257.822 82.9382 259.321 73.1457 259.462 68.931C259.482 68.6295 259.616 68.3469 259.837 68.1404C260.057 67.9339 260.348 67.819 260.651 67.819C260.953 67.819 261.244 67.9339 261.464 68.1404C261.685 68.3469 261.819 68.6295 261.839 68.931C261.98 73.1457 263.494 82.9382 274.451 82.9382C274.767 82.9382 275.07 83.0636 275.293 83.2869C275.517 83.5102 275.642 83.8131 275.642 84.1289C275.642 84.4447 275.517 84.7476 275.293 84.9709C275.07 85.1943 274.767 85.3197 274.451 85.3197C263.484 85.3197 261.98 95.1174 261.839 99.3269C261.829 99.6349 261.7 99.9272 261.479 100.142C261.258 100.356 260.961 100.476 260.653 100.476ZM253.232 84.1289C257.368 85.8942 259.53 89.3516 260.653 92.6262C261.776 89.3516 263.933 85.8942 268.069 84.1289C263.933 82.3637 261.771 78.9063 260.653 75.6317C259.53 78.9063 257.368 82.3637 253.232 84.1289Z" fill="#000072"/>
<path d="M246.849 239.754C252.137 239.754 256.423 235.047 256.423 229.241C256.423 223.434 252.137 218.728 246.849 218.728C241.562 218.728 237.276 223.434 237.276 229.241C237.276 235.047 241.562 239.754 246.849 239.754Z" fill="#FCD21D"/>
<path d="M246.854 240.578C246.64 240.581 246.433 240.499 246.279 240.351C246.124 240.202 246.034 239.999 246.029 239.784C245.93 236.86 244.88 230.065 237.281 230.065C237.062 230.065 236.852 229.978 236.698 229.823C236.543 229.669 236.456 229.459 236.456 229.24C236.456 229.021 236.543 228.811 236.698 228.656C236.852 228.502 237.062 228.415 237.281 228.415C244.88 228.415 245.93 221.625 246.029 218.695C246.045 218.488 246.139 218.295 246.292 218.155C246.444 218.014 246.644 217.936 246.852 217.936C247.059 217.936 247.259 218.014 247.411 218.155C247.564 218.295 247.658 218.488 247.674 218.695C247.773 221.62 248.823 228.415 256.422 228.415C256.641 228.415 256.851 228.502 257.006 228.656C257.161 228.811 257.247 229.021 257.247 229.24C257.247 229.459 257.161 229.669 257.006 229.823C256.851 229.978 256.641 230.065 256.422 230.065C248.823 230.065 247.773 236.854 247.674 239.784C247.669 239.998 247.58 240.2 247.426 240.349C247.273 240.497 247.068 240.58 246.854 240.578ZM241.705 229.24C244.577 230.462 246.071 232.864 246.854 235.131C247.632 232.864 249.126 230.462 251.999 229.24C249.126 228.012 247.632 225.615 246.854 223.349C246.071 225.615 244.577 228.012 241.705 229.24Z" fill="#000072"/>
<path d="M85.0042 231.675C91.005 230.687 104.85 218.388 100.375 197.278C94.4364 169.144 52.8115 157.252 27.1578 193.387C-1.95855 234.39 20.4939 321.828 102.02 305.711C164.995 293.26 130.164 272.333 130.164 272.333C130.164 272.333 84.1372 265.695 85.0042 231.675Z" fill="#FFAD40"/>
<path d="M102.019 305.711C24.1389 321.107 0.17729 241.994 23.5592 199.168C24.6432 197.183 25.8447 195.265 27.1574 193.423C49.5783 161.847 84.1994 166.955 96.5301 187.527C98.3499 190.553 99.6495 193.863 100.374 197.319C104.834 218.429 91.0045 230.744 84.9984 231.716C84.1367 265.736 130.164 272.374 130.164 272.374C130.164 272.374 164.994 293.265 102.019 305.711Z" fill="#FFAD40"/>
<path d="M102.019 305.711C24.1389 321.107 0.17729 241.994 23.5592 199.168C24.6432 197.183 25.8447 195.265 27.1574 193.423C49.5783 161.847 84.1994 166.955 96.5301 187.527C98.3499 190.553 99.6495 193.863 100.374 197.319C104.516 216.91 92.9004 228.911 86.4086 231.324C85.9529 231.502 85.4804 231.633 84.9984 231.716C84.9463 233.652 85.0566 235.59 85.3276 237.508C89.4535 266.504 130.164 272.374 130.164 272.374C130.164 272.374 164.994 293.265 102.019 305.711Z" fill="#FFAD40"/>
<path d="M102.02 305.711C71.9163 311.659 49.8766 303.496 35.4986 288.763C12.686 265.376 9.20781 225.443 23.5597 199.153C24.6438 197.168 25.8452 195.249 27.1579 193.408C49.5788 161.831 84.1999 166.939 96.5306 187.511C98.3505 190.537 99.65 193.848 100.375 197.304C104.516 216.894 92.9009 228.896 86.4092 231.308C85.9534 231.486 85.4809 231.617 84.9989 231.7C84.9469 233.637 85.0571 235.574 85.3282 237.492C85.781 240.724 86.7435 243.863 88.1797 246.794C98.4684 267.789 130.165 272.385 130.165 272.385C130.165 272.385 164.995 293.265 102.02 305.711Z" fill="#FFAD40"/>
<path d="M85.3281 237.466C81.2858 246.898 64.662 251.144 51.3285 242.584C39.7551 235.152 38.2719 209.911 41.9277 206.119C49.4536 200.463 58.4993 212.282 66.2445 221.176C74.162 230.274 82.1787 231.444 86.3987 231.282C85.9429 231.459 85.4704 231.591 84.9884 231.674C84.9398 233.61 85.0536 235.548 85.3281 237.466Z" fill="#FF9343"/>
<path d="M96.5308 187.485C96.2483 191.379 95.3675 195.207 93.9194 198.834C86.4823 216.643 71.3679 193.945 61.7687 187.688C44.6018 176.491 29.2734 191.799 23.5598 199.147C24.6439 197.162 25.8453 195.244 27.158 193.402C49.579 161.805 84.2 166.913 96.5308 187.485Z" fill="white"/>
<path d="M82.8051 309.46C50.6596 309.46 33.6598 291.51 25.878 279.488C9.01928 253.432 8.95135 215.98 25.7161 192.363C38.2923 174.653 56.3626 166.25 74.0518 169.942C88.2522 172.888 99.2668 183.474 102.103 196.912C104.803 209.702 101.058 218.711 97.4023 224.012C94.0232 228.958 89.8713 231.946 86.7481 233.032C86.8943 245.765 94.0338 255.892 107.984 263.151C115.047 266.727 122.604 269.232 130.405 270.583L130.754 270.635L131.062 270.818C131.548 271.11 142.954 278.077 141.377 287.107C139.81 295.902 127.072 302.556 102.353 307.439C95.9187 308.749 89.3716 309.426 82.8051 309.46ZM65.847 172.627C52.0539 172.627 38.5376 180.403 28.5937 194.405C12.6175 216.91 12.7221 252.659 28.8393 277.571C43.938 300.901 69.8007 310.286 101.68 303.982C130.081 298.362 137.058 291.374 137.909 286.496C138.954 280.558 131.12 275.054 129.522 274.014C121.491 272.606 113.714 270.015 106.443 266.326C90.8897 258.257 82.8678 246.261 83.2386 231.627L83.2751 230.17L84.7164 229.93C86.6958 229.606 90.9367 227.23 94.5038 222.023C97.7419 217.286 101.09 209.211 98.6506 197.638C96.0393 185.391 86.3618 176.1 73.3365 173.394C70.8729 172.883 68.3631 172.626 65.847 172.627Z" fill="#000072"/>
<path d="M41.6715 206.292C49.8241 199.1 59.4652 211.086 64.7035 216.544C67.6804 219.74 70.6262 223.041 73.9896 225.746C77.0918 228.264 80.7109 230.327 84.7271 229.924L85.2757 233.408C80.2306 234.494 75.1593 232.024 71.3938 228.984C65.91 224.545 61.9929 219.15 57.4805 214.016C53.5374 209.582 48.2364 203.049 41.6715 206.287V206.292Z" fill="#512717"/>
<path d="M49.4746 228.838C62.5313 237.451 83.1765 232.494 98.3379 227.308C100.49 226.572 102.516 225.825 104.433 225.115L112.183 197.309L116.45 182.002C106.914 183.73 98.8341 186.509 91.4388 188.175C86.9055 189.193 82.6334 189.794 78.4449 189.486C78.4449 189.486 54.7079 175.588 50.0232 179.28C46.9679 186.415 42.5128 195.821 40.9773 204.924C39.4471 214.037 40.8363 222.853 49.4746 228.838Z" fill="#FFAD40"/>
<path d="M228.988 228.838C215.931 237.45 195.286 232.494 180.13 227.308C177.973 226.571 175.952 225.825 174.035 225.114L166.285 197.309L161.986 181.996C171.523 183.725 179.602 186.503 187.003 188.169C191.531 189.188 195.803 189.788 199.997 189.48C199.997 189.48 223.729 175.583 228.414 179.275C231.469 186.409 235.929 195.815 237.459 204.918C238.99 214.037 237.6 222.853 228.988 228.838Z" fill="#FFAD40"/>
<path d="M116.45 181.997L112.183 197.299L107.54 213.944C95.9199 210.956 84.2786 207.676 78.1733 200.589C78.6538 208.282 74.3191 212.471 74.2198 212.413C63.4716 198.171 53.2716 196.876 45.9703 188.911L45.9287 188.859C47.3284 185.412 48.7906 182.164 50.0232 179.286C54.7236 175.594 78.4449 189.491 78.4449 189.491C82.623 189.799 86.9056 189.193 91.4388 188.175C98.8341 186.504 106.914 183.725 116.45 181.997Z" fill="#FFAD40"/>
<path d="M232.644 189.167C225.368 196.86 215.31 198.317 204.713 212.371C204.619 212.428 200.279 208.245 200.759 200.552C194.576 207.739 182.704 210.997 170.927 214.042L166.263 197.33L161.997 182.027C171.533 183.751 179.613 186.529 187.013 188.195C191.541 189.214 195.813 189.82 200.007 189.511C200.007 189.511 223.739 175.614 228.424 179.306C229.682 182.241 231.197 185.6 232.644 189.167Z" fill="#FFAD40"/>
<path d="M181.519 211.112C165.078 216.231 145.128 218.466 139.472 229.063C133.789 218.424 113.682 216.231 97.194 211.076C99.1002 207.347 100.771 204.051 101.894 201.33C101.894 201.33 106.673 186.299 139.325 186.299C171.977 186.299 176.761 201.32 176.761 201.32C177.921 204.062 179.602 207.368 181.519 211.112Z" fill="#FC7D27"/>
<path d="M130.202 302.98C120.686 304.975 111.771 312.104 110.763 320.627C110.105 325.072 111.557 338.98 109.243 346.218C106.966 353.316 101.649 355.953 93.5228 355.953H69.0545C58.134 355.953 57.5228 345.331 59.1889 340.614C60.0663 338.134 62.4114 333.047 69.4776 331.151C57.9878 291.281 81.4898 274.031 83.2185 263.779" fill="#B5CFDD"/>
<path d="M130.206 302.979C120.69 304.969 111.77 312.103 110.762 320.627C110.099 325.071 111.556 338.979 109.242 346.186C106.965 353.289 101.648 355.932 93.5272 355.932H69.0539C59.9038 355.932 57.9871 348.458 58.6085 343.272C58.7069 342.36 58.9048 341.462 59.1986 340.593C60.0761 338.107 62.4211 333.02 69.4874 331.124C57.9975 291.255 81.4994 274.004 83.2334 263.721L87.563 267.345L130.206 302.979Z" fill="#F99C28"/>
<path d="M130.206 302.979C120.69 304.969 111.77 312.103 110.762 320.627C110.381 323.154 110.694 328.732 110.6 334.399C110.532 338.713 110.24 343.074 109.243 346.186C106.965 353.284 101.654 355.932 93.5274 355.932H69.0541C59.8987 355.932 57.9872 348.464 58.6087 343.272C58.7085 342.36 58.9082 341.462 59.2042 340.593C59.8277 338.686 60.8482 336.933 62.1985 335.45C63.5489 333.966 65.1983 332.786 67.0382 331.986C67.8311 331.637 68.65 331.351 69.4876 331.13C57.9977 291.255 81.4996 274.004 83.2335 263.721L87.5685 267.345L130.206 302.979Z" fill="#FFAD40"/>
<path d="M130.206 302.98C120.69 304.969 111.77 312.103 110.762 320.627C110.099 325.071 111.556 338.979 109.242 346.187C106.965 353.289 101.648 355.932 93.5272 355.932H69.0539C59.9038 355.932 57.9871 348.458 58.6085 343.272C60.7342 345.095 64.3849 346.97 70.4223 346.97C83.855 346.97 102.364 350.537 103.059 335.026C103.644 321.917 102.975 318.715 107.153 309.826C111.222 301.183 84.3248 293.929 82.6484 273.362C82.3402 269.612 84.4294 267.888 87.563 267.345L130.206 302.98Z" fill="#FF9343"/>
<path d="M110.601 334.399V335.412C110.601 336.05 110.559 336.681 110.533 337.308V337.622L110.501 338.253C110.501 338.624 110.454 338.995 110.423 339.361C110.392 339.826 110.35 340.29 110.298 340.745C110.298 340.995 110.246 341.267 110.219 341.492C110.193 341.716 110.152 342.014 110.115 342.301C110.047 342.755 109.979 343.205 109.896 343.638C109.854 343.868 109.812 344.092 109.765 344.312C109.765 344.312 109.765 344.312 109.765 344.348C109.718 344.542 109.676 344.73 109.629 344.912C109.582 345.095 109.504 345.435 109.441 345.654C109.379 345.873 109.337 346.014 109.279 346.176C107.002 353.274 101.691 355.922 93.5645 355.922H69.0909C59.9356 355.922 58.0241 348.453 58.6456 343.262C60.7712 345.09 64.4271 346.965 70.4593 346.965C83.6048 346.965 101.612 350.375 103.028 335.997C105.958 336.253 108.6 335.909 110.601 334.399Z" fill="#F9D3B7"/>
<path d="M110.6 334.399C110.532 338.712 110.24 343.073 109.243 346.186C106.965 353.284 101.654 355.932 93.5274 355.932H69.0541C59.8987 355.932 57.9872 348.463 58.6087 343.272C58.7085 342.36 58.9082 341.461 59.2042 340.593C59.8277 338.686 60.8482 336.933 62.1985 335.449C63.5489 333.966 65.1983 332.785 67.0382 331.986C74.1878 330.856 81.4882 331.115 88.5398 332.748C96.8073 334.728 105.644 338.154 110.6 334.399Z" fill="white"/>
<g opacity="0.15">
<path d="M110.601 334.399V335.412C110.601 336.049 110.559 336.681 110.533 337.308V337.621L110.502 338.253C110.502 338.624 110.455 338.995 110.423 339.36C110.392 339.825 110.35 340.29 110.298 340.744C110.298 340.995 110.246 341.267 110.22 341.491C110.194 341.716 110.152 342.014 110.115 342.301C110.047 342.755 109.98 343.204 109.896 343.638C109.854 343.868 109.812 344.092 109.765 344.312C109.765 344.312 109.765 344.312 109.765 344.348C109.718 344.541 109.677 344.729 109.63 344.912C109.583 345.095 109.504 345.434 109.442 345.654C109.379 345.873 109.337 346.014 109.28 346.176C107.003 353.274 101.691 355.922 93.5648 355.922H69.0912C59.9358 355.922 58.0243 348.453 58.6458 343.262C60.7715 345.09 64.4274 346.965 70.4596 346.965C83.605 346.965 101.613 350.375 103.028 335.997C105.958 336.253 108.601 335.908 110.601 334.399Z" fill="#000072"/>
</g>
<path d="M93.5224 357.692H69.0541C63.492 357.692 60.5465 355.175 59.0528 353.06C56.2378 349.08 56.29 343.503 57.5278 340.003C58.2912 337.696 59.5695 335.593 61.266 333.853C62.9626 332.113 65.0331 330.782 67.3203 329.96C59.4863 300.865 69.9316 283.938 76.8621 272.667C79.2228 268.834 81.0872 265.805 81.4789 263.434L84.9624 264.014C84.4401 267.064 82.4295 270.354 79.8652 274.516C73.1279 285.484 62.9383 302.024 71.1692 330.639C71.2349 330.864 71.2548 331.101 71.2279 331.334C71.2009 331.567 71.1277 331.792 71.0124 331.996C70.8971 332.201 70.742 332.38 70.5564 332.524C70.3708 332.667 70.1584 332.772 69.9316 332.833C67.828 333.328 65.8874 334.357 64.2974 335.821C62.7074 337.284 61.5215 339.133 60.8545 341.189C59.8987 343.879 59.9562 348.239 61.9304 351.034C63.4031 353.123 65.8004 354.167 69.0541 354.167H93.5224C101.45 354.167 105.649 351.619 107.561 345.654C108.971 341.257 108.893 334.008 108.83 328.179C108.793 324.905 108.767 322.074 109.018 320.345C110.188 310.422 120.383 303.215 129.841 301.23L130.567 304.688C121.129 306.662 113.369 313.598 112.517 320.81C112.298 322.298 112.324 324.988 112.36 328.122C112.423 334.206 112.507 341.774 110.924 346.714C108.522 354.209 102.996 357.692 93.5224 357.692Z" fill="#000072"/>
<path d="M88.5244 332.749C82.675 331.97 76.643 331.615 70.8145 332.628C70.5638 332.681 70.0102 332.785 69.77 332.863L69.1327 329.39C75.7394 329.098 82.2625 330.748 88.4984 332.749H88.5244Z" fill="#000072"/>
<path d="M82.0999 338.64C81.178 340.027 80.5615 341.593 80.2914 343.237C80.0213 344.88 80.1037 346.562 80.5331 348.171C81.3165 350.876 83.2332 353.963 86.1161 354.208L85.3432 357.65C77.7756 355.112 77.1383 343.857 82.105 338.64H82.0999Z" fill="#000072"/>
<path d="M70.7096 338.64C66.9127 341.919 67.602 348.239 70.2656 351.947C71.049 353.077 72.2014 353.898 73.5247 354.271L72.3128 357.587C65.5808 354.652 64.4789 342.4 70.7096 338.64Z" fill="#000072"/>
<path d="M148.449 302.98C157.965 304.975 166.885 312.104 167.888 320.627C168.551 325.072 167.099 338.98 169.413 346.218C171.685 353.316 177.001 355.953 185.133 355.953H209.601C220.517 355.953 221.133 345.331 219.467 340.614C218.584 338.134 216.244 333.047 209.178 331.151C220.668 291.281 197.166 274.031 195.432 263.779" fill="#B5CFDD"/>
<path d="M148.449 302.979C157.965 304.969 166.88 312.103 167.888 320.627C168.556 325.071 167.099 338.979 169.413 346.186C171.685 353.289 177.001 355.932 185.128 355.932H209.601C218.751 355.932 220.668 348.458 220.047 343.272C219.947 342.36 219.747 341.462 219.451 340.593C218.574 338.107 216.234 333.02 209.168 331.124C220.658 291.255 197.156 274.004 195.422 263.721L191.087 267.345L148.449 302.979Z" fill="#F99C28"/>
<path d="M148.449 302.979C157.965 304.969 166.88 312.103 167.888 320.627C168.269 323.154 167.961 328.732 168.05 334.399C168.118 338.713 168.415 343.074 169.413 346.186C171.685 353.284 177.001 355.932 185.128 355.932H209.596C218.751 355.932 220.663 348.464 220.041 343.272C219.942 342.36 219.742 341.462 219.446 340.593C218.822 338.687 217.801 336.934 216.451 335.451C215.1 333.967 213.451 332.786 211.612 331.986C210.819 331.636 210 331.35 209.163 331.13C220.652 291.255 197.151 274.004 195.417 263.721L191.082 267.345L148.449 302.979Z" fill="#FFAD40"/>
<path d="M148.449 302.98C157.965 304.969 166.88 312.103 167.888 320.627C168.556 325.071 167.099 338.979 169.413 346.187C171.685 353.289 177.001 355.932 185.128 355.932H209.601C218.751 355.932 220.668 348.458 220.047 343.272C217.921 345.095 214.265 346.97 208.233 346.97C194.8 346.97 176.291 350.537 175.597 335.026C175.012 321.917 175.675 318.715 171.497 309.826C167.433 301.183 194.33 293.929 196.007 273.362C196.31 269.612 194.221 267.888 191.087 267.345L148.449 302.98Z" fill="#FF9343"/>
<path d="M168.05 334.399C168.05 334.733 168.05 335.073 168.05 335.412C168.05 336.05 168.086 336.681 168.118 337.308V337.622C168.118 337.83 168.117 338.045 168.149 338.253C168.149 338.624 168.196 338.995 168.222 339.361C168.259 339.826 168.3 340.29 168.347 340.745C168.374 340.995 168.399 341.267 168.431 341.492C168.462 341.716 168.494 342.014 168.535 342.301C168.598 342.755 168.671 343.205 168.755 343.638C168.796 343.868 168.838 344.092 168.885 344.312C168.885 344.312 168.885 344.312 168.885 344.348C168.927 344.542 168.969 344.73 169.021 344.912C169.073 345.095 169.141 345.435 169.209 345.654C169.277 345.873 169.314 346.014 169.371 346.176C171.643 353.274 176.959 355.922 185.086 355.922H209.554C218.71 355.922 220.621 348.453 220 343.262C217.874 345.09 214.218 346.965 208.186 346.965C195.04 346.965 177.027 350.375 175.617 335.997C172.698 336.253 170.055 335.909 168.05 334.399Z" fill="#F9D3B7"/>
<path d="M168.05 334.398C168.117 338.712 168.415 343.073 169.413 346.186C171.685 353.284 177.001 355.931 185.128 355.931H209.596C218.751 355.931 220.663 348.463 220.041 343.272C219.942 342.36 219.742 341.461 219.446 340.592C218.822 338.686 217.801 336.934 216.451 335.45C215.1 333.967 213.451 332.786 211.612 331.985C204.464 330.856 197.165 331.115 190.115 332.748C181.843 334.727 173.011 338.153 168.05 334.398Z" fill="white"/>
<g opacity="0.15">
<path d="M168.05 334.399C168.05 334.733 168.05 335.073 168.05 335.412C168.05 336.049 168.087 336.681 168.118 337.308V337.621C168.118 337.83 168.118 338.044 168.149 338.253C168.149 338.624 168.196 338.995 168.222 339.36C168.259 339.825 168.301 340.29 168.348 340.744C168.374 340.995 168.4 341.267 168.431 341.491C168.463 341.716 168.494 342.014 168.536 342.301C168.598 342.755 168.671 343.204 168.755 343.638C168.797 343.868 168.839 344.092 168.886 344.312C168.886 344.312 168.886 344.312 168.886 344.348C168.927 344.541 168.969 344.729 169.022 344.912C169.074 345.095 169.142 345.434 169.209 345.654C169.277 345.873 169.314 346.014 169.371 346.176C171.643 353.274 176.96 355.922 185.086 355.922H209.555C218.71 355.922 220.621 348.453 220 343.262C217.874 345.09 214.218 346.965 208.186 346.965C195.041 346.965 177.028 350.375 175.618 335.997C172.698 336.253 170.055 335.908 168.05 334.399Z" fill="#000072"/>
</g>
<path d="M209.601 357.692H185.118C175.649 357.692 170.118 354.208 167.721 346.724C166.154 341.783 166.217 334.19 166.285 328.131C166.316 324.998 166.347 322.313 166.133 320.882C165.277 313.612 157.516 306.677 148.078 304.692L148.799 301.235C158.263 303.219 168.452 310.437 169.632 320.402C169.878 322.057 169.846 324.888 169.81 328.163C169.747 333.991 169.669 341.219 171.079 345.638C172.996 351.602 177.195 354.151 185.118 354.151H209.591C212.845 354.151 215.237 353.106 216.71 351.017C218.689 348.223 218.741 343.857 217.791 341.172C217.123 339.117 215.937 337.269 214.347 335.805C212.757 334.342 210.817 333.312 208.714 332.816C208.257 332.691 207.869 332.39 207.632 331.98C207.516 331.776 207.442 331.551 207.415 331.318C207.387 331.085 207.406 330.848 207.471 330.622C215.707 302.007 205.517 285.452 198.775 274.5C196.216 270.322 194.189 267.047 193.683 263.997L197.161 263.417C197.558 265.788 199.423 268.817 201.783 272.651C208.719 283.921 219.133 300.853 211.325 329.944C213.612 330.765 215.682 332.096 217.379 333.836C219.076 335.576 220.354 337.68 221.118 339.987C222.355 343.481 222.407 349.064 219.592 353.043C218.109 355.174 215.164 357.692 209.601 357.692Z" fill="#000072"/>
<path d="M190.131 332.749C196.367 330.748 202.885 329.093 209.497 329.39L208.86 332.864C208.646 332.785 208.092 332.681 207.815 332.629C201.992 331.615 195.955 331.971 190.11 332.749H190.131Z" fill="#000072"/>
<path d="M196.555 338.64C201.522 343.862 200.885 355.117 193.317 357.65L192.539 354.208C195.427 353.963 197.343 350.876 198.122 348.171C198.551 346.562 198.633 344.88 198.363 343.237C198.093 341.593 197.477 340.027 196.555 338.64Z" fill="#000072"/>
<path d="M207.941 338.64C214.166 342.4 213.075 354.647 206.343 357.587L205.126 354.271C206.45 353.901 207.603 353.079 208.384 351.947C211.053 348.239 211.743 341.919 207.941 338.64Z" fill="#000072"/>
<path d="M49.4746 228.838C62.5313 237.45 83.1765 232.494 98.3379 227.308C100.27 215.86 103.503 201.121 102.406 201.414C100.61 201.879 92.8906 218.811 85.511 218.45C79.9802 218.184 78.4449 210.658 78.4449 210.658C78.4449 210.658 74.5487 223.239 58.7762 221.902C44.1528 220.659 41.0191 205.19 40.9773 204.929C39.4471 214.037 40.8363 222.853 49.4746 228.838Z" fill="#FF9343"/>
<path d="M91.4387 188.175C96.1705 191.982 103.388 195.158 112.183 197.309L116.45 182.002C106.914 183.731 98.834 186.509 91.4387 188.175Z" fill="#FF9343"/>
<path d="M67.6383 235.309C60.6086 235.309 53.981 233.925 48.5024 230.311C31.1266 218.299 40.7625 196.139 47.1394 181.489C47.5781 180.487 48.0012 179.52 48.3981 178.585C48.5108 178.315 48.6905 178.078 48.9204 177.896C50.6804 176.512 54.2943 175.656 66.719 181.4C72.4013 184.012 77.5615 186.947 78.9612 187.757C85.4007 188.133 92.1639 186.278 99.977 184.142C105.017 182.764 110.234 181.333 116.125 180.262C116.355 180.216 116.591 180.217 116.821 180.264C117.05 180.311 117.268 180.403 117.462 180.534C117.655 180.666 117.821 180.835 117.948 181.031C118.076 181.228 118.163 181.447 118.205 181.678C118.247 181.908 118.243 182.144 118.192 182.373C118.142 182.602 118.047 182.818 117.912 183.009C117.777 183.201 117.606 183.364 117.408 183.488C117.209 183.613 116.988 183.697 116.757 183.735C111.012 184.78 105.879 186.184 100.907 187.548C92.6234 189.814 85.4685 191.773 78.303 191.245C78.034 191.227 77.7729 191.147 77.5405 191.01C77.483 190.974 71.5867 187.532 65.2203 184.592C55.4539 180.079 52.2681 180.288 51.3907 180.539L50.3462 182.899C44.079 197.298 35.4875 217.024 50.4505 227.391C65.9827 237.633 94.4305 226.968 103.779 223.459C103.997 223.373 104.23 223.332 104.464 223.337C104.698 223.342 104.929 223.394 105.143 223.489C105.357 223.584 105.55 223.721 105.71 223.892C105.871 224.063 105.996 224.263 106.078 224.483C106.16 224.702 106.198 224.935 106.189 225.17C106.18 225.404 106.124 225.633 106.025 225.846C105.927 226.058 105.786 226.249 105.613 226.407C105.44 226.564 105.237 226.686 105.017 226.765C94.1694 230.843 80.2511 235.309 67.6383 235.309Z" fill="#000072"/>
<path d="M78.4443 210.304C79.447 205.861 79.8841 201.309 79.7449 196.756Z" fill="#B5CFDD"/>
<path d="M78.4448 210.303C78.8775 205.812 78.7231 201.285 77.9852 196.834L81.5105 196.682C81.086 201.337 80.0553 205.916 78.4448 210.303Z" fill="#512717"/>
<path d="M152.831 199.638C143.783 200.613 134.657 200.613 125.61 199.638C129.973 198.107 134.566 197.335 139.189 197.356C143.833 197.329 148.448 198.101 152.831 199.638Z" fill="#93B3C1"/>
<path d="M173.993 195.006C164.593 198.354 152.471 200.37 139.221 200.37C126.086 200.37 114.042 198.391 104.689 195.095C108.867 187.334 119.312 172.904 139.221 172.904C159.13 172.904 169.685 187.219 173.993 195.006Z" fill="#93B3C1"/>
<path d="M228.988 228.838C215.931 237.45 195.286 232.494 180.13 227.308C178.198 215.86 175.43 201.121 176.537 201.414C178.328 201.879 185.577 218.811 192.952 218.45C198.482 218.184 200.023 210.658 200.023 210.658C200.023 210.658 203.914 223.239 219.686 221.902C234.31 220.659 237.444 205.19 237.485 204.929C238.989 214.037 237.6 222.853 228.988 228.838Z" fill="#FF9343"/>
<path d="M187.003 188.175C182.266 191.982 175.048 195.157 166.259 197.309L161.986 181.996C171.539 183.73 179.602 186.509 187.003 188.175Z" fill="#FF9343"/>
<path d="M210.781 235.304C198.163 235.304 184.26 230.843 173.387 226.765C173.166 226.686 172.963 226.564 172.79 226.407C172.617 226.249 172.477 226.058 172.379 225.846C172.28 225.633 172.224 225.404 172.215 225.17C172.206 224.935 172.244 224.702 172.326 224.483C172.408 224.263 172.533 224.063 172.693 223.892C172.854 223.721 173.047 223.584 173.261 223.489C173.475 223.394 173.706 223.342 173.94 223.337C174.174 223.332 174.407 223.373 174.625 223.459C183.973 226.968 212.421 237.633 227.99 227.365C242.916 217.024 234.33 197.298 228.058 182.899L227.013 180.539C226.141 180.288 222.955 180.079 213.189 184.592C206.817 187.532 200.921 190.974 200.863 191.01C200.631 191.148 200.37 191.229 200.101 191.245C192.935 191.768 185.78 189.814 177.497 187.548C172.53 186.184 167.386 184.78 161.651 183.735C161.201 183.641 160.806 183.375 160.549 182.994C160.292 182.613 160.194 182.146 160.276 181.694C160.357 181.241 160.612 180.839 160.986 180.571C161.36 180.304 161.824 180.193 162.278 180.262C168.169 181.333 173.387 182.764 178.432 184.142C186.24 186.278 193.003 188.133 199.443 187.757C200.842 186.947 206.002 184.022 211.685 181.4C224.115 175.656 227.723 176.512 229.489 177.896C229.718 178.079 229.897 178.316 230.011 178.585C230.408 179.52 230.831 180.487 231.27 181.489C237.647 196.139 247.287 218.273 229.938 230.29C224.475 233.914 217.827 235.304 210.781 235.304Z" fill="#000072"/>
<path d="M176.761 201.32C183.812 218.069 210.849 256.602 190.429 284.48L168.049 304.206C162.383 307.079 152.643 309.951 139.325 309.951C126.007 309.951 116.282 307.1 110.6 304.206L88.2107 284.475C67.7901 256.597 94.8278 218.064 101.878 201.315C101.878 201.315 106.657 186.284 139.309 186.284C171.961 186.284 176.761 201.32 176.761 201.32Z" fill="#B5CFDD"/>
<path d="M197.652 266.039C196.919 272.714 194.44 279.078 190.466 284.491L168.05 304.206C162.383 307.074 152.643 309.951 139.325 309.951C126.008 309.951 116.278 307.094 110.601 304.206L88.2164 284.475C84.2431 279.062 81.7647 272.698 81.0302 266.023C78.1629 241.534 96.3011 214.585 101.884 201.315C101.884 201.315 106.668 186.284 139.315 186.284C171.962 186.284 176.762 201.32 176.762 201.32C182.36 214.601 200.499 241.534 197.652 266.039Z" fill="#F99C28"/>
<path d="M197.652 266.039C196.919 272.714 194.44 279.078 190.466 284.491L168.05 304.206C162.383 307.074 152.643 309.951 139.325 309.951C126.008 309.951 116.278 307.094 110.601 304.206L88.2164 284.475C84.2431 279.062 81.7647 272.698 81.0302 266.023C78.1629 241.534 96.3011 214.585 101.884 201.315C101.884 201.315 106.668 186.284 139.315 186.284C171.962 186.284 176.762 201.32 176.762 201.32C182.36 214.601 200.499 241.534 197.652 266.039Z" fill="#FFAD40"/>
<path d="M197.652 266.039C196.919 272.714 194.44 279.078 190.466 284.491L168.05 304.206C162.383 307.073 152.643 309.951 139.325 309.951C126.008 309.951 116.278 307.094 110.601 304.206L88.2164 284.475C84.2431 279.062 81.7647 272.698 81.0302 266.023C89.5588 272.855 108.647 281.733 139.315 281.733C169.982 281.733 189.097 272.87 197.652 266.039Z" fill="#FF9343"/>
<path d="M173.993 195.006C164.593 198.354 152.471 200.37 139.221 200.37C126.086 200.37 114.042 198.391 104.689 195.095C108.867 187.334 119.312 172.904 139.221 172.904C159.13 172.904 169.685 187.219 173.993 195.006Z" fill="#FF9343"/>
<path d="M167.841 196.902C149.117 201.507 129.559 201.526 110.825 196.96C112.392 192.615 113.066 189.262 112.058 187.152C114.278 178.043 130.285 180.101 139.346 180.101C148.408 180.101 164.415 178.043 166.63 187.152C165.622 189.251 166.269 192.588 167.841 196.902Z" fill="#F9D3B7"/>
<path d="M139.341 180.101C148.397 180.101 164.41 178.043 166.63 187.152C162.567 195.639 185.484 224.342 187.28 256.122C189.604 274.067 176.689 299.392 139.341 300.745C101.994 299.392 89.0835 274.067 91.4076 256.122C93.2042 224.342 116.121 195.639 112.058 187.152C114.278 178.043 130.28 180.101 139.341 180.101Z" fill="white"/>
<g opacity="0.15">
<path d="M167.84 196.901C149.116 201.505 129.558 201.525 110.824 196.958C112.391 192.613 113.065 189.26 112.057 187.15C114.276 178.042 130.284 180.1 139.345 180.1C148.407 180.1 164.414 178.042 166.629 187.15C165.621 189.25 166.268 192.587 167.84 196.901Z" fill="#000072"/>
</g>
<g opacity="0.15">
<path d="M185.018 273.393C179.686 287.097 165.511 299.814 139.341 300.759C113.17 299.814 99.0008 287.097 93.6632 273.393C104.109 277.952 119.254 281.749 139.341 281.749C159.427 281.749 174.578 277.936 185.018 273.393Z" fill="#000072"/>
</g>
<path d="M88.2419 284.491C79.8543 276.135 77.7967 263.836 79.3373 252.445C80.9041 241.232 85.6045 230.541 90.8272 220.675C94.2219 214.189 98.3897 207.76 101.91 201.352C99.9095 207.426 95.862 215.928 93.2924 221.892C89.6366 230.337 86.3357 238.835 84.3667 247.744C81.4211 260.859 81.9695 272.39 88.2419 284.512V284.491Z" fill="#000072"/>
<path d="M190.44 284.491C196.707 272.364 197.261 260.837 194.315 247.723C192.346 238.813 189.035 230.316 185.389 221.871C182.82 215.907 178.788 207.441 176.772 201.33C180.292 207.759 184.46 214.189 187.855 220.654C193.077 230.52 197.778 241.211 199.345 252.424C200.911 263.809 198.822 276.103 190.44 284.47V284.491Z" fill="#000072"/>
<path d="M168.05 304.207C154.497 313.32 132.144 313.691 117.233 307.742C114.906 306.817 112.692 305.631 110.632 304.207C127.726 309.549 150.946 309.549 168.05 304.207Z" fill="#000072"/>
<path d="M229.725 153.485C217.874 174.266 188.048 184.931 164.3 187.6C147.725 189.661 130.958 189.661 114.382 187.6C90.6294 184.931 60.8131 174.266 48.9577 153.485C40.9461 139.426 40.5491 125.68 44.675 112.869C45.884 109.159 47.413 105.561 49.2448 102.115C51.36 89.419 56.9432 67.4525 68.3025 51.2153L80.069 37.7251C93.2354 25.8383 112.11 17.4821 139.341 17.4821C166.572 17.4821 185.442 25.807 198.608 37.7042L210.38 51.1944C221.734 67.4316 227.327 89.3982 229.443 102.094C231.272 105.536 232.797 109.131 234.002 112.837L234.038 112.942C238.128 125.753 237.726 139.457 229.725 153.485Z" fill="#FFAD40"/>
<path d="M134.113 38.77L169.137 53.6076L216.532 73.6783C226.784 60.4023 233.381 20.9294 223.766 6.82817C220.862 2.58214 216.485 0.66022 210.281 2.47249C194.665 7.06321 169.706 32.6908 134.113 38.77Z" fill="#FFAD40"/>
<g opacity="0.5">
<path d="M134.112 38.7693L140.379 41.4381C173.01 33.8182 196.168 10.6243 210.953 6.29476C217.158 4.47727 221.534 6.39919 224.438 10.6452C226.069 13.2008 227.219 16.0326 227.833 19.0015C227.144 14.1131 225.822 9.88796 223.744 6.85359C220.84 2.60756 216.463 0.685606 210.259 2.49787C194.664 7.06248 169.705 32.6901 134.112 38.7693Z" fill="white"/>
</g>
<path d="M169.135 53.6073L216.531 73.678C226.783 60.4019 233.38 20.929 223.765 6.82784C221.639 6.00266 218.996 6.15413 215.863 8.44165C207.851 14.3015 188.407 45.862 169.135 53.6073Z" fill="#FF9343"/>
<path d="M216.532 75.4537C216.197 75.4523 215.869 75.3572 215.585 75.1793C215.301 75.0013 215.073 74.7475 214.926 74.4466C214.779 74.1457 214.718 73.8096 214.752 73.4763C214.786 73.143 214.912 72.8257 215.117 72.5604C225.468 59.1434 231.15 20.856 222.293 7.85155C219.603 3.91366 215.837 2.71767 210.803 4.19569C205.376 5.76249 198.477 10.2174 190.486 15.3565C175.764 24.8148 157.448 36.5867 134.432 40.5193C134.2 40.5591 133.962 40.5528 133.732 40.5007C133.502 40.4486 133.285 40.3518 133.093 40.2157C132.901 40.0797 132.737 39.9071 132.611 39.7078C132.486 39.5086 132.401 39.2865 132.361 39.0544C132.321 38.8222 132.327 38.5845 132.379 38.3548C132.431 38.1251 132.528 37.9079 132.664 37.7156C132.8 37.5233 132.973 37.3597 133.172 37.2341C133.371 37.1085 133.594 37.0234 133.826 36.9836C156.127 33.1763 174.098 21.6185 188.544 12.3378C196.769 7.0525 203.872 2.48786 209.795 0.753935C216.344 -1.16278 221.697 0.592044 225.269 5.82516C229.897 12.6146 231.401 25.3422 229.39 40.7752C227.541 55.007 223.165 68.0271 217.973 74.7539C217.804 74.9741 217.585 75.152 217.335 75.2734C217.085 75.3949 216.81 75.4566 216.532 75.4537Z" fill="#000072"/>
<path d="M214.845 66.4391C214.335 67.3723 213.746 68.26 213.084 69.0923L179.659 36.3775C199.626 23.2895 212.996 10.6141 217.007 12.4733C217.634 12.7658 218.271 13.5492 218.871 14.8079C220.475 18.1661 221.77 24.8824 221.723 34.325C221.676 45.6843 218.861 59.211 214.845 66.4391Z" fill="white"/>
<g opacity="0.15">
<path d="M214.845 66.4391C214.336 67.3723 213.747 68.26 213.085 69.0923L179.66 36.3775C199.627 23.2895 212.997 10.6141 217.008 12.4733C217.634 12.7658 218.271 13.5492 218.872 14.8079C217.373 15.4555 215.331 17.0693 212.542 20.3805C203.758 30.8258 203.471 41.8769 207.038 52.2387C208.098 55.2522 211.68 61.3523 214.845 66.4391Z" fill="#000072"/>
</g>
<path d="M213.08 70.8895C212.609 70.8878 212.159 70.7 211.826 70.3672L178.401 37.6577C178.209 37.4703 178.061 37.242 177.969 36.9898C177.877 36.7376 177.842 36.4679 177.868 36.2006C177.894 35.9333 177.98 35.6753 178.12 35.4457C178.259 35.2161 178.448 35.0207 178.673 34.874C185.985 30.0796 192.252 25.4419 197.819 21.3473C209.513 12.7247 214.391 9.28293 217.759 10.8445C221.316 12.4896 223.577 21.7076 223.504 34.3465C223.436 46.6145 220.036 63.395 214.448 70.2367C214.29 70.4294 214.094 70.5873 213.872 70.7006C213.65 70.8138 213.407 70.8799 213.158 70.8947L213.08 70.8895ZM182.506 36.6549L212.824 66.3406C216.772 59.8958 219.869 46.2594 219.932 34.3204C220.005 20.6527 217.221 14.6414 216.276 14.1035C216.187 14.0721 215.232 13.8214 211.325 16.2343C208.359 18.0675 204.478 20.9347 199.981 24.2459C195.103 27.8339 189.155 32.2209 182.506 36.6549Z" fill="#000072"/>
<path d="M144.569 38.77L109.545 53.6076L62.1445 73.6783C51.8977 60.4023 45.3015 20.9294 54.9164 6.82817C57.8202 2.58214 62.1967 0.66022 68.4013 2.47249C84.017 7.06321 108.976 32.6908 144.569 38.77Z" fill="#FFAD40"/>
<g opacity="0.5">
<path d="M144.569 38.7693L138.302 41.4381C105.676 33.8182 82.5135 10.6243 67.7333 6.29476C61.5288 4.47727 57.1521 6.39919 54.2482 10.6452C52.6175 13.2008 51.467 16.0326 50.8535 19.0015C51.5429 14.1131 52.8643 9.88796 54.9429 6.85359C57.8467 2.60756 62.2232 0.685606 68.4277 2.49787C84.0174 7.06248 108.977 32.6901 144.569 38.7693Z" fill="white"/>
</g>
<path d="M109.545 53.6073L62.1445 73.678C51.8977 60.4019 45.3015 20.929 54.9164 6.82784C57.0421 6.00266 59.6847 6.15413 62.8183 8.44165C70.8298 14.3015 90.2737 45.862 109.545 53.6073Z" fill="#FF9343"/>
<path d="M62.1446 75.454C61.8701 75.4536 61.5993 75.3903 61.3531 75.269C61.1068 75.1477 60.8915 74.9715 60.724 74.7541C55.5326 68.0273 51.1561 55.0072 49.3073 40.7755C47.2965 25.3425 48.7851 12.6044 53.428 5.82539C57.0003 0.602727 62.3535 -1.16255 68.9027 0.754173C74.8252 2.4881 81.928 7.05274 90.1537 12.3381C104.594 21.6187 122.571 33.1765 144.872 36.9838C145.104 37.0236 145.326 37.1087 145.525 37.2343C145.724 37.3599 145.897 37.5235 146.033 37.7158C146.169 37.9081 146.266 38.1253 146.318 38.355C146.37 38.5847 146.376 38.8224 146.337 39.0546C146.297 39.2868 146.212 39.5088 146.086 39.7081C145.96 39.9073 145.797 40.0799 145.605 40.216C145.412 40.352 145.195 40.4488 144.965 40.5009C144.736 40.553 144.498 40.5593 144.266 40.5196C121.249 36.5869 102.929 24.815 88.211 15.3568C80.2204 10.2177 73.321 5.78361 67.8947 4.19592C62.8391 2.71791 59.0788 3.9139 56.4048 7.85179C47.5263 20.8301 53.2243 59.1436 63.5809 72.5606C63.7856 72.8263 63.912 73.144 63.9455 73.4778C63.9791 73.8115 63.9184 74.1481 63.7706 74.4492C63.6228 74.7503 63.3934 75.004 63.1088 75.1816C62.8242 75.3592 62.4956 75.4535 62.1602 75.454H62.1446Z" fill="#000072"/>
<path d="M63.8362 66.4391C64.3477 67.3712 64.9365 68.2587 65.5963 69.0923L99.0214 36.3775C79.0551 23.2895 65.6852 10.6141 61.6742 12.4733C61.0423 12.7658 60.405 13.5492 59.8096 14.8079C58.2062 18.1661 56.911 24.8824 56.958 34.325C57.0103 45.6843 59.82 59.211 63.8362 66.4391Z" fill="white"/>
<g opacity="0.15">
<path d="M63.8366 66.4391C64.348 67.3712 64.9368 68.2587 65.5967 69.0923L99.0217 36.3775C79.0555 23.2895 65.6856 10.6141 61.6746 12.4733C61.0426 12.7658 60.4053 13.5492 59.8099 14.8079C61.3036 15.4555 63.351 17.0693 66.1399 20.3805C74.9192 30.8258 75.2118 41.8769 71.6395 52.2387C70.6002 55.2522 67.0015 61.3523 63.8366 66.4391Z" fill="#000072"/>
</g>
<path d="M65.6016 70.8897H65.5179C65.269 70.8755 65.0257 70.8097 64.8036 70.6964C64.5815 70.5831 64.3854 70.4248 64.2278 70.2316C58.6395 63.3899 55.2345 46.6095 55.1718 34.3415C55.1039 21.7183 57.3601 12.5003 60.9167 10.8395C64.2853 9.27267 69.1633 12.7248 80.8516 21.3475C86.4033 25.442 92.6965 30.0797 100.003 34.8742C100.228 35.0208 100.417 35.2162 100.556 35.4459C100.696 35.6755 100.782 35.9335 100.808 36.2008C100.834 36.468 100.799 36.7378 100.707 36.99C100.615 37.2422 100.467 37.4704 100.275 37.6578L66.8496 70.3674C66.5178 70.698 66.0699 70.8854 65.6016 70.8897ZM62.6036 14.088C62.5395 14.0793 62.4744 14.0793 62.4103 14.088C61.4546 14.6102 58.6709 20.632 58.7545 34.2997C58.8171 46.2387 61.9144 59.8907 65.8627 66.3198L96.1541 36.6342C89.5109 32.2001 83.5571 27.8131 78.7 24.2251C74.2033 20.9087 70.3437 18.0467 67.3563 16.2136C64.2854 14.3491 63.0371 14.088 62.6036 14.088Z" fill="#000072"/>
<path d="M164.3 187.595C188.048 184.931 217.869 174.266 229.725 153.485C240.034 135.405 237.731 117.856 229.437 102.115C227.348 89.4138 221.734 67.4525 210.38 51.21L204.828 43.5954L198.608 37.7042C185.442 25.8383 166.572 17.4821 139.341 17.4821C112.11 17.4821 93.2408 25.807 80.0692 37.7042L73.8752 43.5954L68.3236 51.1891C56.9695 67.4316 51.376 89.3929 49.2608 102.094C40.9725 117.836 38.6693 135.384 48.9788 153.465C60.829 174.246 90.6557 184.91 114.403 187.574C130.978 189.642 147.746 189.642 164.321 187.574L164.3 187.595Z" fill="#FFAD40"/>
<path d="M229.725 153.486C217.874 174.267 188.048 184.932 164.3 187.6C147.725 189.662 130.958 189.662 114.382 187.6C90.6294 184.932 60.8131 174.267 48.9577 153.486C40.9461 139.426 40.5491 125.68 44.675 112.869C54.3004 104.852 70.4227 101.071 84.3673 108.978C91.0523 112.786 100.793 115.689 107.29 113.971C116.884 111.428 122.629 98.4338 139.362 98.4338C156.096 98.4338 161.851 111.428 171.445 113.971C177.942 115.689 187.677 112.786 194.367 108.978C208.286 101.071 224.397 104.852 234.018 112.859L234.054 112.963C238.128 125.754 237.726 139.458 229.725 153.486Z" fill="white"/>
<g opacity="0.15">
<path d="M225.855 159.178C212.224 176.235 185.776 185.192 164.306 187.599C147.73 189.661 130.963 189.661 114.387 187.599C92.9118 185.192 66.4749 176.24 52.849 159.183C69.6451 169.268 90.4939 175.023 108.517 177.044C108.517 177.044 124.368 178.956 139.331 178.956C154.294 178.956 170.145 177.044 170.145 177.044C188.2 175.023 209.054 169.268 225.855 159.178Z" fill="#000072"/>
</g>
<path d="M68.3019 51.2103C61.6117 63.0971 57.1463 76.0075 53.8613 89.1895C52.6496 93.7489 51.9759 98.4493 50.9574 103.019C42.246 119.507 41.2483 137.222 51.0408 153.475C63.3454 173.656 92.3888 182.445 114.381 187.595C95.3031 187.297 75.6711 181.328 60.588 169.316C55.035 164.991 50.3967 159.606 46.9423 153.473C43.4878 147.341 41.2859 140.583 40.4649 133.593C39.2481 122.374 42.2668 111.025 47.5365 101.212L47.3381 101.797C48.1319 97.2376 49.1607 92.7305 50.3775 88.2808C54.0595 75.0308 59.4704 61.875 68.3124 51.1998L68.3019 51.2103Z" fill="#000072"/>
<path d="M198.608 37.725C181.806 24.2871 160.482 19.1532 139.341 19.2681C118.205 19.1532 96.8751 24.2871 80.0686 37.725C87.5631 29.9746 97.1103 24.2192 107.321 20.7253C137.132 11.1103 175.91 14.3588 198.608 37.725Z" fill="#000072"/>
<path d="M164.299 187.595C185.007 183.067 206.368 176.397 221.571 161.09C228.759 153.429 233.303 143.665 234.534 133.232C235.719 122.296 232.575 112.07 227.619 102.418C225.181 89.0962 221.371 76.0623 216.249 63.525C214.505 59.3469 212.557 55.2575 210.379 51.21C213.391 54.7048 216.032 58.5029 218.26 62.5432C225.049 74.6597 229.071 88.1342 231.254 101.812L231.071 101.259C233.638 106.21 235.613 111.446 236.957 116.859C240.373 130.553 237.479 145.495 229.698 157.199C215.826 177.405 187.875 186.837 164.299 187.595Z" fill="#000072"/>
<path d="M151.254 105.318C149.003 111.627 139.346 115.183 139.346 115.183C139.346 115.183 129.69 111.627 127.439 105.318C125.83 100.805 137.189 100.095 139.346 100.095C141.503 100.095 152.863 100.805 151.254 105.318Z" fill="#000072"/>
<path d="M134.458 112.738L139.352 111.814V120.979C138.265 115.835 135.957 113.965 134.458 112.738Z" fill="#000072"/>
<path d="M144.246 112.738C142.736 113.965 140.423 115.835 139.347 120.979V111.814L144.246 112.738Z" fill="#000072"/>
<g opacity="0.5">
<path d="M144.282 102.365C143.348 103.958 139.347 103.932 139.347 103.932C139.347 103.932 135.346 103.958 134.412 102.365C133.743 101.227 138.454 101.044 139.347 101.044C140.24 101.044 144.951 101.227 144.282 102.365Z" fill="white"/>
</g>
<path d="M92.6086 48.7818C93.5539 44.0448 102.114 27.9538 111.447 34.1583C114.732 36.3571 114.481 43.0369 110.157 44.4365C103.843 46.4838 102.422 45.7318 92.6086 48.7818Z" fill="white"/>
<path d="M186.084 48.562C185.123 43.825 176.49 27.7706 167.188 34.0378C163.908 36.247 164.185 42.9163 168.52 44.3107C174.84 46.311 176.239 45.5485 186.084 48.562Z" fill="white"/>
<path d="M179.122 141.63C176.511 155.413 160.843 162.897 139.346 162.897C117.85 162.897 102.187 155.413 99.5755 141.63C97.2984 129.65 102.505 121.591 107.853 119.361C108.863 118.934 109.913 118.61 110.987 118.395C119.928 116.583 127.141 123.335 139.367 123.335C151.593 123.335 158.806 116.583 167.747 118.395C168.822 118.61 169.872 118.934 170.881 119.361C176.187 121.591 181.394 129.65 179.122 141.63Z" fill="#363D56"/>
<path d="M179.122 141.63C177.743 148.88 172.76 154.389 165.214 157.977C158.424 161.215 149.546 162.897 139.346 162.897C129.24 162.897 120.429 161.242 113.655 158.066C106.009 154.478 100.964 148.937 99.5543 141.63C97.2772 129.65 102.484 121.596 107.832 119.361C108.842 118.936 109.892 118.613 110.966 118.395C119.902 116.583 127.119 123.335 139.346 123.335C151.572 123.335 158.785 116.583 167.726 118.395C168.8 118.613 169.849 118.936 170.859 119.361C176.181 121.596 181.393 129.65 179.122 141.63Z" fill="#000072"/>
<path d="M156.09 143.912C161.422 146.246 157.657 157.757 139.378 157.757C121.098 157.757 117.406 146.267 122.77 143.912L122.879 143.865C127.705 141.833 136.019 144.356 139.44 149.73C142.861 144.356 151.176 141.833 156.001 143.865L156.09 143.912Z" fill="#FC9595"/>
<path d="M167.731 118.583C167.731 134.251 148.229 135.692 139.346 135.692C130.462 135.692 110.955 134.261 110.955 118.583C110.955 118.52 110.955 118.458 110.955 118.395C119.897 116.583 127.109 123.335 139.335 123.335C151.561 123.335 158.774 116.583 167.715 118.395C167.731 118.458 167.731 118.52 167.731 118.583Z" fill="white"/>
<path d="M139.346 164.662C116.058 164.662 100.536 156.175 97.8415 141.959C95.4913 129.597 100.761 120.415 107.174 117.731C113.75 114.973 119.228 116.78 125.031 118.692C129.324 120.107 133.768 121.57 139.346 121.57C144.924 121.57 149.368 120.107 153.666 118.692C159.464 116.78 164.942 114.973 171.523 117.731C177.936 120.415 183.201 129.597 180.856 141.959C178.155 156.175 162.66 164.662 139.346 164.662ZM114.089 119.846C112.18 119.845 110.291 120.232 108.537 120.985C104.412 122.713 99.0792 129.55 101.315 141.301C103.67 153.72 117.891 161.147 139.351 161.147C160.811 161.147 175.032 153.731 177.393 141.301C179.623 129.55 174.291 122.713 170.165 120.985C164.801 118.739 160.378 120.196 154.774 122.029C150.428 123.46 145.498 125.084 139.351 125.084C133.204 125.084 128.279 123.46 123.929 122.029C120.356 120.891 117.249 119.846 114.089 119.846Z" fill="#000072"/>
<path d="M100.891 114.895C111.108 114.895 119.39 105.332 119.39 93.5346C119.39 81.7374 111.108 72.1739 100.891 72.1739C90.6749 72.1739 82.3926 81.7374 82.3926 93.5346C82.3926 105.332 90.6749 114.895 100.891 114.895Z" fill="#000072"/>
<path d="M104.5 97.6603C108.78 97.6603 112.251 93.6525 112.251 88.7087C112.251 83.7648 108.78 79.757 104.5 79.757C100.22 79.757 96.7496 83.7648 96.7496 88.7087C96.7496 93.6525 100.22 97.6603 104.5 97.6603Z" fill="white"/>
<g opacity="0.6">
<path d="M94.1647 106.163C96.1982 106.163 97.8468 104.26 97.8468 101.912C97.8468 99.5637 96.1982 97.6604 94.1647 97.6604C92.1312 97.6604 90.4828 99.5637 90.4828 101.912C90.4828 104.26 92.1312 106.163 94.1647 106.163Z" fill="white"/>
</g>
<path d="M177.801 114.895C188.017 114.895 196.299 105.332 196.299 93.5346C196.299 81.7374 188.017 72.1739 177.801 72.1739C167.584 72.1739 159.302 81.7374 159.302 93.5346C159.302 105.332 167.584 114.895 177.801 114.895Z" fill="#000072"/>
<path d="M174.191 97.6603C178.472 97.6603 181.942 93.6525 181.942 88.7087C181.942 83.7648 178.472 79.757 174.191 79.757C169.911 79.757 166.441 83.7648 166.441 88.7087C166.441 93.6525 169.911 97.6603 174.191 97.6603Z" fill="white"/>
<g opacity="0.6">
<path d="M184.527 106.163C186.56 106.163 188.209 104.26 188.209 101.912C188.209 99.5637 186.56 97.6604 184.527 97.6604C182.493 97.6604 180.845 99.5637 180.845 101.912C180.845 104.26 182.493 106.163 184.527 106.163Z" fill="white"/>
</g>
<path d="M199.992 210.304C198.989 205.861 198.552 201.309 198.691 196.756L223.494 196.908C223.494 196.908 226.147 205.467 216.182 210.304C206.217 215.14 199.992 210.304 199.992 210.304Z" fill="#FFAD40"/>
<path d="M199.991 210.303C198.806 207.029 197.932 203.651 197.38 200.213C197.182 199.053 197.056 197.873 196.941 196.682C196.954 196.229 197.143 195.798 197.469 195.483C197.795 195.167 198.232 194.992 198.686 194.995C198.712 194.995 223.488 195.152 223.519 195.142V198.667L198.717 198.521L200.488 196.834C199.75 201.284 199.595 205.812 200.028 210.303H199.991Z" fill="#000072"/>
<path d="M209.628 170.553C199.141 172.543 196.864 164.766 198.028 160.88C199.621 155.595 204.818 156.331 209.461 153.652C212.38 151.965 216.25 149.427 220.428 151.333C225.353 153.584 225.129 159.789 228.685 162.149C232.55 164.714 212.526 170.13 212.526 170.13L209.628 170.553Z" fill="white"/>
<g opacity="0.7">
<path d="M227.942 164.379C224.688 162.186 224.881 156.472 220.338 154.399C216.483 152.634 212.922 154.984 210.227 156.54C205.939 159.016 201.129 158.337 199.656 163.22C199.153 165.128 199.42 167.157 200.398 168.871C199.311 167.883 198.517 166.614 198.104 165.205C197.69 163.795 197.672 162.299 198.053 160.88C199.646 155.6 204.842 156.331 209.485 153.652C212.405 151.97 216.275 149.427 220.453 151.333C225.383 153.584 225.153 159.789 228.71 162.149C229.587 162.766 229.138 163.544 227.942 164.379Z" fill="white"/>
</g>
<path d="M206.436 172.642C202.3 172.642 199.835 170.997 198.43 169.436C197.359 168.216 196.608 166.75 196.243 165.168C195.879 163.587 195.912 161.94 196.341 160.374C197.668 155.961 201.161 154.849 204.248 153.867C205.749 153.444 207.201 152.86 208.578 152.128L209.126 151.809C212.02 150.117 216.391 147.563 221.138 149.72C224.476 151.245 225.807 154.133 226.988 156.677C227.787 158.405 228.481 159.899 229.636 160.672C230.083 160.93 230.443 161.317 230.665 161.784C230.888 162.25 230.964 162.773 230.884 163.283C230.732 164.244 230.257 167.158 212.96 171.833L212.04 168.422C217.937 166.856 224.684 164.448 226.867 162.986C225.41 161.68 224.585 159.899 223.786 158.17C222.773 155.987 221.822 153.924 219.671 152.948C216.589 151.538 213.571 153.303 210.907 154.859L210.343 155.188C208.748 156.051 207.063 156.738 205.319 157.235C202.159 158.238 200.477 158.881 199.72 161.414C199.469 162.399 199.459 163.43 199.691 164.42C199.923 165.41 200.39 166.329 201.052 167.101C202.718 168.95 205.569 169.556 209.298 168.845L209.957 172.313C208.796 172.533 207.617 172.643 206.436 172.642Z" fill="#000072"/>
<path d="M224.946 196.568C218.308 200.187 203.616 204.078 197.015 198.923C194.038 197.027 188.366 187.47 190.304 180.241C191.046 177.473 193.641 174.324 198.316 173.097C201.287 165.555 207.826 163.957 212.14 163.571C213.613 160.959 215.765 158.787 220.585 158.787C228.059 158.787 234.963 165.884 237.611 171.843C241.993 181.73 235.72 190.697 224.946 196.568Z" fill="white"/>
<g opacity="0.7">
<path d="M237.586 171.806C234.285 166.677 228.436 161.71 222.184 161.71C217.364 161.71 215.207 163.904 213.739 166.494C209.425 166.886 202.886 168.479 199.909 176.02C195.24 177.253 192.639 180.397 191.898 183.165C190.853 186.998 191.982 191.479 193.7 195.125C191.209 191.203 188.999 185.202 190.305 180.245C191.047 177.472 193.642 174.328 198.317 173.096C201.283 165.554 207.827 163.956 212.141 163.575C213.614 160.963 215.771 158.785 220.586 158.785C228.034 158.785 234.917 165.836 237.586 171.806Z" fill="white"/>
</g>
<g opacity="0.15">
<path d="M206.134 197.607C203.11 197.607 200.765 197.022 199.344 195.925L199.203 195.81L199.046 195.716C198.346 195.262 196.999 193.476 195.834 191.147C194.341 188.17 205.131 195.508 219.947 187.705C235.187 179.672 229.813 166.433 232.633 170.705C233.203 171.563 233.701 172.466 234.122 173.405C238.582 183.448 227.907 190.64 223.112 193.251C219.133 195.403 212.014 197.607 206.134 197.607Z" fill="#000072"/>
</g>
<path d="M206.139 203.169C202.253 203.169 198.629 202.391 195.991 200.365C192.194 197.858 186.517 187.564 188.596 179.787C189.385 176.852 192.001 173.254 197.015 171.64C199.522 166.02 204.254 162.761 211.085 161.91C212.563 159.617 215.169 157.027 220.585 157.027C228.623 157.027 236.19 164.302 239.224 171.128C243.622 181.051 238.598 191.12 225.787 198.103C221.441 200.49 213.32 203.169 206.139 203.169ZM220.585 160.552C216.684 160.552 215.002 162.119 213.675 164.443L213.221 165.247L212.296 165.331C206.003 165.895 201.966 168.647 199.955 173.745L199.626 174.575L198.764 174.805C194.654 175.886 192.581 178.56 192.006 180.701C190.241 187.292 195.74 196.019 197.96 197.414L198.096 197.513C203.956 202.083 217.942 198.364 224.1 195.001C229.39 192.113 241.146 184.153 236.002 172.543C233.38 166.668 226.899 160.552 220.585 160.552Z" fill="#000072"/>
<path d="M203.11 186.06C199.512 181.36 196.09 175.124 198.441 169.081L201.574 170.721C200.904 171.721 200.483 172.867 200.347 174.063C199.877 178.153 201.308 182.388 203.12 186.076L203.11 186.06Z" fill="#000072"/>
<path d="M220.877 172.318C218.438 167.858 213.268 164.646 208.191 166.161L207.267 166.401L206.546 162.949C213.289 162.129 218.788 165.963 220.877 172.318Z" fill="#000072"/>
<path d="M78.4443 210.304C79.447 205.861 79.8841 201.309 79.7449 196.756L54.9423 197.383C54.9423 197.383 49.6309 207.113 54.9423 210.962C65.9569 218.869 78.4443 210.304 78.4443 210.304Z" fill="#FFAD40"/>
<path d="M78.4449 210.303C78.8777 205.812 78.7233 201.284 77.9854 196.834L79.7924 198.521L54.9899 199.142L54.9011 195.617L79.7766 194.99C80.0021 194.985 80.2265 195.025 80.4363 195.108C80.6462 195.191 80.8375 195.315 80.9989 195.472C81.1603 195.63 81.2887 195.818 81.3766 196.026C81.4645 196.234 81.5101 196.457 81.5107 196.682C81.0862 201.337 80.0555 205.916 78.4449 210.303Z" fill="#000072"/>
<path d="M68.8078 170.553C79.3001 172.543 81.5772 164.766 80.4073 160.88C78.8144 155.595 73.618 156.331 68.9751 153.652C66.0609 151.965 62.1855 149.427 58.0335 151.333C53.1085 153.584 53.3331 159.789 49.7765 162.149C45.9169 164.714 65.9353 170.13 65.9353 170.13L68.8078 170.553Z" fill="white"/>
<g opacity="0.7">
<path d="M50.5184 164.38C53.7722 162.187 53.5843 156.473 58.128 154.4C61.9824 152.635 65.5389 154.985 68.239 156.541C72.5216 159.017 77.3317 158.338 78.8045 163.221C79.3094 165.129 79.043 167.159 78.0629 168.872C79.1496 167.884 79.9434 166.615 80.357 165.206C80.7706 163.796 80.788 162.3 80.4078 160.881C78.841 155.601 73.6184 156.332 68.9806 153.653C66.0559 151.971 62.1912 149.428 58.013 151.334C53.0828 153.585 53.3126 159.79 49.756 162.15C48.8472 162.767 49.3277 163.545 50.5184 164.38Z" fill="white"/>
</g>
<path d="M71.9993 172.643C70.8174 172.635 69.6387 172.516 68.4791 172.288L69.1373 168.82C72.8715 169.53 75.7179 168.924 77.3839 167.076C78.0471 166.305 78.5143 165.385 78.7462 164.395C78.978 163.405 78.9676 162.373 78.7156 161.388C77.9635 158.876 76.2765 158.255 73.1168 157.21C71.3726 156.712 69.6881 156.026 68.0928 155.163L67.5287 154.834C64.8651 153.267 61.8463 151.512 58.7649 152.917C56.6184 153.904 55.6627 155.967 54.6495 158.14C53.8504 159.868 53.0253 161.649 51.5682 162.955C53.7512 164.417 60.499 166.799 66.3954 168.392L65.4761 171.802C48.1786 167.128 47.7191 164.214 47.552 163.253C47.4714 162.742 47.5477 162.219 47.7705 161.753C47.9934 161.287 48.3524 160.899 48.8003 160.641C49.9597 159.868 50.649 158.375 51.4481 156.646C52.6284 154.103 53.9654 151.214 57.3026 149.689C62.05 147.522 66.4162 150.076 69.3148 151.778L69.8631 152.097C71.2413 152.831 72.6948 153.414 74.198 153.836C77.2794 154.818 80.7733 155.925 82.0998 160.344C82.5299 161.909 82.5642 163.556 82.1996 165.138C81.8349 166.72 81.0827 168.186 80.0108 169.405C78.6007 170.998 76.1356 172.643 71.9993 172.643Z" fill="#000072"/>
<path d="M53.5063 196.568C60.1443 200.187 74.8305 204.078 81.4371 198.923C84.4088 197.027 90.0807 187.47 88.1483 180.241C87.4015 177.473 84.8059 174.324 80.1368 173.097C77.1599 165.555 70.6209 163.957 66.307 163.571C64.8394 160.959 62.6825 158.787 57.8619 158.787C50.3935 158.787 43.4894 165.884 40.8363 171.843C36.444 181.73 42.7163 190.697 53.5063 196.568Z" fill="white"/>
<g opacity="0.7">
<path d="M40.8564 171.806C44.1519 166.677 50.0015 161.71 56.2582 161.71C61.0735 161.71 63.2304 163.904 64.7032 166.494C69.0119 166.886 75.556 168.479 78.5277 176.02C83.202 177.253 85.7976 180.397 86.5392 183.165C87.5837 186.998 86.4555 191.479 84.7373 195.125C87.2285 191.203 89.4377 185.202 88.132 180.245C87.3904 177.472 84.7948 174.328 80.1205 173.096C77.1541 165.554 70.6102 163.956 66.2963 163.575C64.8235 160.963 62.6715 158.785 57.851 158.785C50.4035 158.785 43.52 165.836 40.8564 171.806Z" fill="white"/>
</g>
<g opacity="0.15">
<path d="M72.3077 197.607C75.3316 197.607 77.6714 197.022 79.0972 195.925L79.2433 195.81L79.3948 195.716C80.0946 195.262 81.4423 193.476 82.6069 191.147C84.1006 188.17 73.3104 195.508 58.4937 187.705C43.2539 179.672 48.6282 166.433 45.8131 170.705C45.2399 171.561 44.7403 172.465 44.3195 173.405C39.8646 183.448 50.5345 190.64 55.329 193.251C59.3086 195.403 66.427 197.607 72.3077 197.607Z" fill="#000072"/>
</g>
<path d="M72.3074 203.168C65.1001 203.168 56.9998 200.489 52.6546 198.118C39.8434 191.135 34.8192 181.05 39.2167 171.143C42.2563 164.301 49.8187 157.042 57.8563 157.042C63.2775 157.042 65.8783 159.653 67.3563 161.925C74.1928 162.766 78.9194 166.035 81.4315 171.655C86.4401 173.269 89.0565 176.877 89.8452 179.802C91.9342 187.579 86.2519 197.872 82.4498 200.379C79.8071 202.39 76.1826 203.168 72.3074 203.168ZM54.3415 195.021C60.5199 198.384 74.4853 202.103 80.3452 197.533L80.4808 197.434C82.7057 196.018 88.1999 187.291 86.4346 180.721C85.8601 178.58 83.7869 175.906 79.6819 174.825L78.8148 174.595L78.4859 173.765C76.4804 168.667 72.4433 165.931 66.1448 165.351L65.2255 165.267L64.7659 164.463C63.4394 162.129 61.7577 160.572 57.8563 160.572C51.5474 160.572 45.0659 166.688 42.4441 172.584C37.2946 184.184 49.0509 192.143 54.3415 195.042V195.021Z" fill="#000072"/>
<path d="M75.3322 186.059C77.1392 182.403 78.5755 178.152 78.1054 174.047C77.9676 172.85 77.545 171.704 76.8729 170.704L80.0065 169.064C82.362 175.107 78.9358 181.348 75.3426 186.043L75.3322 186.059Z" fill="#000072"/>
<path d="M57.5643 172.318C59.6534 165.963 65.1477 162.129 71.8902 162.949L71.1746 166.401L70.2448 166.161C65.1684 164.646 60.0033 167.858 57.5643 172.318Z" fill="#000072"/>
<path d="M189.359 121.664L189.244 129.127L227.62 124.63L226.664 117.668L189.359 121.664Z" fill="#E30613"/>
<path d="M189.672 132.84L189.552 140.298L227.928 135.807L226.977 128.845L189.672 132.84Z" fill="#1CA75E"/>
<path d="M53.9398 116.864L51.8193 124.019L89.9971 129.984L90.9478 123.022L53.9398 116.864Z" fill="#FFD500"/>
<path d="M52.5085 127.722L50.3932 134.877L88.5709 140.847L89.5216 133.88L52.5085 127.722Z" fill="#004F9F"/>
</svg>
