<svg width="169" height="170" viewBox="0 0 169 170" fill="none" xmlns="http://www.w3.org/2000/svg">
<path d="M10.7173 101.026C9.01139 100.886 7.42723 100.086 6.30195 98.7957C6.18849 98.6739 6.11392 98.5212 6.08724 98.3569C4.36315 88.2544 4.61522 77.9134 6.83021 67.9071C6.86343 67.7645 6.93127 67.6323 7.02743 67.522C7.67149 66.7275 8.47556 66.0777 9.38752 65.6147C10.2995 65.1518 11.299 64.8862 12.3205 64.8352H12.6069C15.2936 64.9785 17.7207 67.0652 19.3776 70.7102C21.0378 74.736 21.7367 79.0934 21.4193 83.4365C20.8999 93.2879 16.3235 101.017 11.0038 101.017L10.7173 101.026Z" fill="#020302"/>
<path d="M12.3199 65.6861H12.5617C17.4874 65.9458 21.0784 73.8717 20.5769 83.4007C20.0843 92.7685 15.8304 100.184 11.0032 100.184H10.7613C9.26879 100.051 7.88722 99.3411 6.91049 98.2047C5.22268 88.2196 5.47513 78.0027 7.6539 68.1131C8.21542 67.4005 8.92155 66.8149 9.72581 66.395C10.5301 65.9752 11.4142 65.7305 12.3199 65.6771M12.3199 63.9934C11.1796 64.0437 10.063 64.3355 9.04407 64.8497C8.02508 65.3638 7.12685 66.0884 6.40891 66.9757C6.21337 67.1954 6.07478 67.46 6.00573 67.7459C3.77793 77.8504 3.52263 88.29 5.25358 98.4913C5.30384 98.828 5.45735 99.1409 5.69262 99.3869C6.96102 100.84 8.74863 101.737 10.6717 101.886H11.0032C16.8692 101.886 21.7504 93.9865 22.2609 83.5082C22.579 79.0294 21.8523 74.5379 20.1383 70.3879C18.3471 66.4473 15.6601 64.1815 12.6509 64.0203L12.3199 63.9934Z" fill="black"/>
<path d="M84.2894 166.466C71.4985 166.463 58.8887 163.444 47.4825 157.656C36.0764 151.867 26.1951 143.472 18.6406 133.15C11.0861 122.828 6.07071 110.871 4.00165 98.2489C1.93259 85.6265 2.86823 72.6941 6.73213 60.5007C10.596 48.3074 17.2796 37.1965 26.2408 28.0694C35.202 18.9422 46.1883 12.0559 58.3087 7.96895C70.4291 3.882 83.3423 2.70954 96.0006 4.54668C108.659 6.38382 120.706 11.1788 131.164 18.5427C134.03 20.5695 136.765 22.7772 139.35 25.1521C150.912 35.7462 159.156 49.4649 163.083 64.6474C163.665 66.9132 164.158 69.2328 164.552 71.5523C164.758 72.7972 164.937 74.0421 165.089 75.269C165.412 77.9558 165.599 80.6425 165.662 83.3293C166.06 101.338 160.473 118.97 149.777 133.463C139.081 147.957 123.879 158.493 106.553 163.421C99.3092 165.469 91.8175 166.509 84.2894 166.511V166.466Z" fill="#D8DBD8"/>
<path d="M84.3253 6.59547C100.505 6.58798 116.29 11.594 129.508 20.9248C132.267 22.872 134.902 24.9898 137.397 27.2655C148.555 37.4776 156.507 50.7097 160.289 65.3547C160.862 67.5579 161.328 69.7789 161.704 72.0179C161.91 73.209 162.08 74.4091 162.223 75.6002C162.538 78.1656 162.723 80.7451 162.779 83.3291C163.133 98.9361 158.827 114.295 150.413 127.443C141.998 140.592 129.855 150.935 115.535 157.151C101.215 163.367 85.3675 165.174 70.0156 162.342C54.6638 159.509 40.5043 152.165 29.3453 141.249C18.1863 130.332 10.5343 116.337 7.36587 101.05C4.19746 85.7644 5.65645 69.8809 11.5569 55.4279C17.4574 40.975 27.5316 28.6085 40.4929 19.9074C53.4541 11.2064 68.7143 6.56556 84.3253 6.57756M84.3253 0.809998C67.5769 0.79811 51.205 5.77744 37.2993 15.1124C23.3936 24.4473 12.5849 37.7143 6.25338 53.2198C-0.0781792 68.7253 -1.64549 85.7658 1.75141 102.166C5.14831 118.566 13.3552 133.583 25.3248 145.297C37.2943 157.012 52.4834 164.895 68.953 167.938C85.4226 170.981 102.425 169.048 117.791 162.385C133.157 155.721 146.189 144.63 155.223 130.527C164.256 116.423 168.882 99.948 168.51 83.2037C168.456 80.4453 168.25 77.6511 167.919 74.9017C167.767 73.6478 167.579 72.3492 167.364 71.0506C166.961 68.6594 166.468 66.2593 165.841 63.886C161.777 48.1673 153.244 33.9635 141.275 22.9936C138.599 20.538 135.77 18.2556 132.803 16.1603C118.624 6.12404 101.67 0.752622 84.2982 0.792086L84.3253 0.809998Z" fill="#001477"/>
<path d="M52.6838 13.2227C65.0682 7.78136 78.6474 5.62886 92.1075 6.97346C105.568 8.31805 118.453 13.1142 129.516 20.8978C134.504 27.9998 145.636 47.2638 139.654 71.3192C125.495 44.8726 106.741 13.357 52.6838 13.2227Z" fill="#001477"/>
<path d="M77.0081 74.6507C137.379 80.0242 155.819 68.9548 160.297 65.3635C160.871 67.5667 161.336 69.7877 161.712 72.0267C161.766 72.3222 161.811 72.6267 161.865 72.9223C161.918 73.2178 161.945 73.4507 161.981 73.7193L162.035 74.1134L162.089 74.4806L162.142 74.8746C162.142 75.1164 162.205 75.3672 162.232 75.618C143.594 101.429 127.304 109.364 127.304 109.364C127.304 109.364 93.5853 88.7293 77.0081 74.6507Z" fill="#001477"/>
<path d="M127.26 109.364C127.26 109.364 143.586 101.429 162.187 75.6182C162.502 78.1835 162.687 80.7631 162.743 83.347C158.068 91.9267 147.464 109.48 140.577 117.514C130.108 111.746 127.26 109.364 127.26 109.364Z" fill="#F6B602"/>
<path d="M74.3401 132.595C49.9086 62.8021 55.5866 89.0606 49.5056 47.5145C66.5754 33.9016 77.752 23.9517 100.679 24.91C100.679 24.9547 68.1158 50.461 74.3401 132.595Z" fill="#001477"/>
<path d="M74.3391 132.595C74.0884 132.246 41.9726 86.7681 37.3066 60.832C47.2745 48.4819 49.5046 47.5594 49.5046 47.5594C55.5856 89.0608 49.9076 62.8023 74.3391 132.595Z" fill="#6FDB11"/>
<path d="M74.3396 132.595C74.3396 132.595 91.2302 153.937 105.766 160.6C96.0514 163.35 85.8994 164.207 75.8618 163.126L74.3396 132.595Z" fill="#7ED92B"/>
<path d="M74.3396 132.595C78.6921 148.035 95.144 162.83 95.144 162.83C88.7529 163.717 82.2771 163.816 75.8618 163.126L74.3396 132.595Z" fill="#090C08"/>
</svg>
