<svg width="103" height="130" viewBox="0 0 103 130" fill="none" xmlns="http://www.w3.org/2000/svg">
<path fill-rule="evenodd" clip-rule="evenodd" d="M77.5077 42.2693C76.8717 42.2693 76.2313 42.2433 75.5953 42.1914C75.0241 42.1525 74.453 42.0789 73.964 42.0096C71.6831 41.666 69.4592 41.0154 67.3526 40.0755L67.0368 39.9284C65.0096 38.9972 63.1175 37.7964 61.4118 36.3587C60.9186 35.952 60.4556 35.5323 59.9969 35.0866C53.5758 28.7823 51.5551 19.9426 54.8522 12.5522C57.9502 5.60756 65.1069 1.30231 73.5227 1.30231C76.9104 1.30707 80.2609 2.00812 83.3664 3.36191C83.4789 3.40518 83.5785 3.44837 83.6866 3.5003C95.088 8.58872 100.704 20.9334 96.2 31.0194C93.1019 37.964 85.9408 42.2693 77.5164 42.2693H77.5077ZM73.2328 6.64595C66.9545 6.64595 61.693 9.70504 59.4949 14.629C57.2233 19.7175 58.5906 25.8141 63.056 30.5477C64.8268 32.4211 66.9443 33.9332 69.2911 35.0001L69.3299 35.0217L69.5592 35.1256C71.8915 36.1785 74.402 36.7804 76.9582 36.8995C77.2395 36.8995 77.5165 36.8995 77.7934 36.8995C84.076 36.8995 89.3419 33.8405 91.5399 28.9164C93.1106 25.3987 92.9548 21.3401 91.1072 17.4892C89.0712 13.4205 85.6628 10.2022 81.4841 8.4027C81.4195 8.36999 81.3531 8.34112 81.2851 8.31618L81.216 8.29019C78.6942 7.20787 75.9771 6.65416 73.2328 6.66328V6.64595Z" fill="#FCEE21"/>
<path d="M73.5141 2.5918C76.7318 2.60181 79.9135 3.26881 82.8644 4.5519C82.9639 4.59084 83.0549 4.63402 83.1501 4.67729C93.898 9.47148 99.2201 21.046 95.0057 30.4786C92.0374 37.1377 85.1016 40.9713 77.5035 40.9713C76.9064 40.9713 76.3006 40.9454 75.6948 40.8978C75.1799 40.8632 74.6608 40.7939 74.1415 40.7246C71.9814 40.3982 69.8752 39.781 67.8804 38.89L67.5992 38.7559C65.6681 37.8751 63.866 36.7354 62.2426 35.368C61.7753 34.9786 61.3296 34.5805 60.9012 34.1564C55.0729 28.4406 52.8704 20.159 56.029 13.0845C58.9973 6.42976 65.9204 2.5918 73.5141 2.5918ZM77.7934 38.215C84.3487 38.215 90.2418 35.0348 92.7254 29.4617C96.3037 21.4527 91.488 11.4836 82.0035 7.25187C81.9039 7.2086 81.8088 7.16532 81.7136 7.13071C79.037 5.96691 76.1515 5.3603 73.2329 5.34798C66.6863 5.34798 60.7929 8.53256 58.3093 14.1013C55.7608 19.8128 57.4742 26.5238 62.1127 31.4391C63.9991 33.437 66.2528 35.0529 68.7503 36.1987L69.0315 36.3286C71.513 37.4463 74.1833 38.0849 76.902 38.2107C77.2006 38.2107 77.4992 38.2323 77.7934 38.2323M73.5141 0.0128877C64.579 0.0128877 56.968 4.62105 53.6579 12.0417C50.1401 19.9253 52.2691 29.3493 59.0796 36.03C59.5599 36.4973 60.0487 36.9386 60.5723 37.3756C62.3651 38.8812 64.3517 40.1399 66.4786 41.1184C66.5911 41.1746 66.6993 41.2222 66.8205 41.2742C69.0256 42.2618 71.3545 42.9459 73.7435 43.3078H73.7824C74.3232 43.3813 74.903 43.4549 75.5131 43.4981C76.1232 43.5414 76.8414 43.5761 77.5078 43.5761C86.4558 43.5761 94.0712 38.9679 97.3813 31.5473C99.7264 26.2945 99.6095 20.332 97.0523 14.7633C94.4258 9.19313 89.8629 4.76853 84.2145 2.31482L83.8639 2.16345C80.5994 0.743224 77.0786 0.00693526 73.5185 0L73.5141 0.0128877ZM77.7934 35.6362C77.5381 35.6362 77.2742 35.6362 77.0189 35.6362C74.6273 35.5226 72.2785 34.959 70.0959 33.9748C70.0396 33.9488 69.9834 33.9271 69.9315 33.8968L69.8406 33.8579C67.6479 32.8588 65.6687 31.4453 64.0122 29.6954C59.9103 25.3469 58.6338 19.7911 60.6891 15.196C62.6751 10.7436 67.4823 7.97876 73.2371 7.97876C75.8035 7.98654 78.3409 8.52108 80.6923 9.54937L80.8309 9.60568L80.9433 9.65321C89.1298 13.3094 93.3529 21.734 90.3587 28.4406C88.3727 32.8887 83.5612 35.6535 77.8107 35.6535L77.7934 35.6362Z" fill="#390075"/>
<path fill-rule="evenodd" clip-rule="evenodd" d="M33.979 37.9942C33.6897 37.9942 33.4087 37.8976 33.1806 37.7197C32.9525 37.5417 32.7904 37.2926 32.72 37.012L32.6074 36.5534L31.4306 31.7939C31.3483 31.4599 31.4017 31.107 31.5794 30.8125C31.757 30.518 32.0444 30.306 32.3782 30.2231L41.7414 27.9126C42.0753 27.8303 42.4285 27.8838 42.723 28.0615C43.0175 28.2392 43.2294 28.5264 43.3122 28.8602L44.515 33.7106L44.6059 34.0914C44.6855 34.4246 44.6302 34.776 44.4519 35.0686C44.2735 35.3612 43.9868 35.5714 43.6541 35.6534L34.2906 37.9683C34.1882 37.9895 34.0835 37.9981 33.979 37.9942Z" fill="#404041"/>
<path d="M42.0536 29.163L43.2522 34.0134L43.343 34.3856L33.9796 36.7004L33.8672 36.2418L32.6902 31.4822L42.0536 29.1716M42.0536 26.5755C41.8421 26.5761 41.6314 26.6022 41.4261 26.6534L32.0671 28.9639C31.3987 29.1287 30.8231 29.5522 30.4669 30.1413C30.1107 30.7304 30.003 31.4368 30.1676 32.1053L31.3403 36.8649L31.4572 37.3279C31.5971 37.8899 31.9209 38.389 32.3773 38.7457C32.8336 39.1025 33.3961 39.2963 33.9753 39.2965C34.1854 39.2962 34.3947 39.2701 34.5984 39.2187L43.9618 36.9037C44.6274 36.7388 45.2007 36.3174 45.5565 35.7313C45.9124 35.1452 46.0219 34.442 45.8612 33.7754L45.7748 33.4033L44.5718 28.5399C44.4326 27.9771 44.1091 27.477 43.6527 27.1194C43.1964 26.7618 42.6334 26.5673 42.0536 26.5668V26.5755Z" fill="#390075"/>
<path fill-rule="evenodd" clip-rule="evenodd" d="M90.8906 63.3889C90.7629 63.3896 90.6359 63.3706 90.5141 63.3326C90.3504 63.2832 90.1981 63.2019 90.066 63.0935C89.9338 62.9851 89.8244 62.8517 89.744 62.7009L85.2223 54.1899C85.1421 54.0393 85.0923 53.8744 85.0759 53.7046C85.0594 53.5348 85.0765 53.3634 85.1264 53.2003C85.1762 53.0371 85.2577 52.8854 85.3662 52.7538C85.4747 52.6221 85.6083 52.5132 85.7589 52.4332L90.5185 49.9062C90.7064 49.8065 90.9158 49.7546 91.1285 49.7548C91.2561 49.7541 91.3831 49.7731 91.5049 49.811C91.6686 49.8604 91.8209 49.9417 91.9531 50.0501C92.0852 50.1585 92.1946 50.2919 92.275 50.4427L96.801 58.9538C96.9633 59.2574 96.9986 59.6129 96.8988 59.9424C96.799 60.2718 96.5723 60.548 96.2688 60.7105L91.5092 63.2374C91.3192 63.3399 91.1064 63.3921 90.8906 63.3889Z" fill="#404041"/>
<path d="M91.1074 51.0529L95.6375 59.5638L90.8779 62.0908L86.3478 53.5797L91.1074 51.0529ZM91.1074 48.4567C90.682 48.4562 90.2628 48.5602 89.8871 48.7596L85.1275 51.2864C84.8262 51.4465 84.5594 51.6645 84.3424 51.9277C84.1254 52.191 83.9625 52.4945 83.8628 52.8208C83.7631 53.1471 83.7287 53.4898 83.7616 53.8294C83.7945 54.169 83.894 54.4988 84.0544 54.7999L88.5848 63.3109C88.7452 63.6121 88.9635 63.8787 89.227 64.0955C89.4906 64.3123 89.7942 64.4751 90.1207 64.5744C90.3659 64.6504 90.6213 64.6883 90.8779 64.6869C91.3033 64.6874 91.7225 64.5833 92.0983 64.3839L96.8578 61.8571C97.1588 61.6966 97.4251 61.4785 97.6417 61.215C97.8582 60.9516 98.0207 60.648 98.12 60.3218C98.2192 59.9955 98.2533 59.6529 98.2201 59.3135C98.1869 58.974 98.0871 58.6445 97.9265 58.3436L93.3963 49.8326C93.0733 49.2252 92.5224 48.7708 91.8646 48.5692C91.619 48.4953 91.3639 48.4574 91.1074 48.4567Z" fill="#390075"/>
<path fill-rule="evenodd" clip-rule="evenodd" d="M49.2058 128.193C42.4818 128.196 35.8338 126.773 29.7003 124.017L29.5662 123.961C18.0124 118.739 8.9935 109.159 4.47887 97.3107C-0.0357678 85.4627 0.320543 72.3097 5.46974 60.7234C8.10879 54.7422 11.9554 49.3709 16.7685 44.9466C21.5815 40.5222 27.2568 37.1404 33.4386 35.0131C38.5206 33.2301 43.8678 32.3201 49.2535 32.3218C53.1587 32.3215 57.0491 32.8025 60.8366 33.754C61.4034 33.8925 61.9919 34.0482 62.5674 34.2212C64.6334 34.823 66.6571 35.5617 68.625 36.4323L68.7547 36.4929C70.8409 37.4212 72.8568 38.4999 74.7864 39.7207C75.1931 39.9673 75.6518 40.2572 76.0845 40.5861C83.5775 45.6531 89.4787 52.7426 93.1022 61.0306C96.301 68.3271 97.6307 76.3059 96.971 84.2454C96.3114 92.185 93.6833 99.8349 89.3242 106.503C84.9651 113.172 79.0127 118.649 72.005 122.439C64.9973 126.229 57.1555 128.212 49.1887 128.21L49.2058 128.193Z" fill="#141519"/>
<path d="M49.2532 33.6198C53.0463 33.6187 56.8249 34.0867 60.5031 35.0131C61.0656 35.1472 61.6236 35.2986 62.1861 35.4458C64.2007 36.0351 66.174 36.7578 68.0925 37.6092L68.2222 37.6654C70.2489 38.5699 72.2081 39.6182 74.0851 40.8024C74.5178 41.0663 74.9505 41.3433 75.3529 41.6289C82.6468 46.563 88.3917 53.4646 91.9206 61.5326C95.7064 70.1515 96.7939 79.7147 95.0399 88.9636C93.2859 98.2124 88.7725 106.714 82.094 113.348C75.4156 119.983 66.885 124.439 57.6247 126.132C48.3644 127.825 38.8086 126.674 30.2149 122.832L30.0849 122.771C20.3759 118.379 12.4636 110.795 7.66456 101.281C2.86553 91.7665 1.46932 80.8957 3.70824 70.4774C5.94717 60.0591 11.6861 50.7216 19.9702 44.0188C28.2543 37.3161 38.584 33.6523 49.2401 33.6372M49.2401 31.041C37.9776 31.039 27.0549 34.8987 18.294 41.9761C9.53305 49.0536 3.46362 58.921 1.09816 69.9323C-1.2673 80.9436 0.214207 92.4331 5.29554 102.484C10.3769 112.535 18.7509 120.54 29.0206 125.164L29.1591 125.224C40.4005 130.246 53.1157 130.873 64.7964 126.981C76.4771 123.089 86.275 114.96 92.2574 104.199C98.2398 93.4383 99.9723 80.8261 97.1129 68.8506C94.2535 56.8751 87.0099 46.4061 76.8111 39.5087C76.3438 39.1885 75.8896 38.8942 75.4569 38.6433C73.4786 37.3956 71.4137 36.291 69.278 35.3376L69.1525 35.2813C67.1241 34.3835 65.0384 33.6218 62.9089 33.0011C62.3334 32.8324 61.7319 32.6679 61.1262 32.5251C57.2398 31.5476 53.2475 31.0536 49.2401 31.054V31.041Z" fill="#390075"/>
<path fill-rule="evenodd" clip-rule="evenodd" d="M49.1666 123.416C41.9771 123.399 34.9055 121.588 28.5932 118.147C22.2809 114.705 16.9276 109.742 13.0189 103.708C9.11027 97.6737 6.76993 90.7592 6.21019 83.5915C5.65045 76.4238 6.88915 69.2297 9.81368 62.6618C13.228 55.0484 18.7709 48.5847 25.7746 44.0491C32.7782 39.5136 40.9439 37.0999 49.2879 37.0986C55.3309 37.0937 61.3063 38.3692 66.8205 40.8414C75.8525 44.8723 83.2259 51.883 87.707 60.7003C92.1881 69.5176 93.5051 79.6065 91.4373 89.2786C89.3694 98.9507 84.0424 107.619 76.3476 113.833C68.6529 120.048 59.0573 123.43 49.1666 123.416Z" fill="#58595B"/>
<path d="M49.3094 38.3968C58.3352 38.4108 67.1148 41.3418 74.3388 46.7529C81.5628 52.1639 86.8441 59.765 89.3955 68.4227C91.9469 77.0804 91.6315 86.3309 88.4963 94.7947C85.3611 103.258 79.5743 110.482 71.9986 115.389C64.4228 120.295 55.4639 122.621 46.4581 122.02C37.4523 121.42 28.882 117.924 22.0251 112.055C15.1682 106.186 10.392 98.2571 8.4089 89.4519C6.4258 80.6466 7.34187 71.4362 11.0207 63.1941C14.2914 55.7788 19.658 49.4812 26.4606 45.0756C33.2631 40.67 41.205 38.3485 49.3094 38.3968ZM49.3094 35.8006C39.1215 35.7858 29.2376 39.2707 21.312 45.6722C13.3864 52.0737 7.90011 61.0033 5.77135 70.9664C3.6426 80.9294 5.00058 91.3214 9.61802 100.403C14.2355 109.484 21.8321 116.704 31.1365 120.854C36.8146 123.403 42.9687 124.718 49.1926 124.714C59.3805 124.729 69.2644 121.244 77.19 114.842C85.1156 108.441 90.6019 99.5112 92.7307 89.5481C94.8594 79.585 93.5014 69.1931 88.884 60.1116C84.2666 51.0301 76.67 43.8101 67.3655 39.6602C61.6874 37.1116 55.5333 35.7962 49.3094 35.8006Z" fill="#390075"/>
<path fill-rule="evenodd" clip-rule="evenodd" d="M49.1712 121.144C42.3614 121.127 35.6634 119.411 29.6847 116.151C23.706 112.891 18.6356 108.19 14.9332 102.475C11.2307 96.7594 9.01321 90.2104 8.4819 83.4213C7.95059 76.6323 9.12231 69.8181 11.8906 63.5965C15.1213 56.3797 20.3712 50.2519 27.007 45.9524C33.6428 41.653 41.3811 39.3654 49.288 39.3659C55.0122 39.3603 60.6724 40.5696 65.8945 42.9139C74.4496 46.7335 81.4334 53.3752 85.6776 61.7277C89.9218 70.0803 91.1688 79.6369 89.2101 88.7989C87.2514 97.9609 82.2058 106.172 74.9174 112.059C67.629 117.946 58.5401 121.152 49.1712 121.14V121.144Z" fill="#FCEE21"/>
<path d="M49.3094 40.6639C57.8464 40.6764 66.1507 43.4479 72.9839 48.5653C79.8171 53.6826 84.8133 60.8717 87.2272 69.0603C89.6411 77.2489 89.3434 85.9985 86.3787 94.0042C83.4139 102.01 77.9408 108.843 70.7757 113.484C63.6105 118.125 55.1371 120.326 46.619 119.758C38.1009 119.191 29.9945 115.885 23.5086 110.334C17.0227 104.783 12.5047 97.2841 10.6285 88.9558C8.75235 80.6275 9.61851 71.9159 13.0977 64.12C16.196 57.1103 21.2726 51.1572 27.705 46.9906C34.1373 42.8241 41.6456 40.6254 49.3094 40.6639ZM49.3094 38.0678C39.6414 38.0535 30.2618 41.3603 22.7404 47.4347C15.219 53.5092 10.0121 61.9828 7.9914 71.4372C5.97065 80.8917 7.25866 90.7534 11.6397 99.3718C16.0207 107.99 23.2289 114.842 32.058 118.782C37.4469 121.198 43.2866 122.446 49.1926 122.442C58.8563 122.45 68.2297 119.139 75.7457 113.065C83.2617 106.99 88.4646 98.52 90.4846 89.0696C92.5045 79.6193 91.2192 69.7621 86.8433 61.1458C82.4674 52.5295 75.2663 45.6766 66.4439 41.7327C61.0561 39.3125 55.2159 38.0634 49.3094 38.0678Z" fill="#390075"/>
<path fill-rule="evenodd" clip-rule="evenodd" d="M74.7645 44.3073C74.5824 44.3084 74.4023 44.27 74.2365 44.1948L59.3867 37.5703C59.2289 37.501 59.0865 37.401 58.9677 37.2761C58.849 37.1512 58.7562 37.0039 58.695 36.8428C58.6338 36.6817 58.6053 36.5101 58.6111 36.3379C58.6169 36.1656 58.657 35.9962 58.729 35.8396L62.4242 27.5579C62.5268 27.3295 62.6934 27.1356 62.9038 26.9998C63.1141 26.8639 63.3592 26.7918 63.6096 26.7921C63.7917 26.791 63.9718 26.8294 64.1376 26.9046L78.9874 33.5291C79.1452 33.5983 79.2878 33.6984 79.4066 33.8233C79.5253 33.9482 79.6179 34.0954 79.6791 34.2565C79.7403 34.4176 79.7688 34.5893 79.763 34.7615C79.7572 34.9338 79.7171 35.1032 79.6451 35.2598L75.9499 43.5415C75.8472 43.7699 75.6807 43.9637 75.4703 44.0996C75.26 44.2355 75.0149 44.3076 74.7645 44.3073Z" fill="#141519"/>
<path d="M63.6094 28.0857L78.4594 34.7102L74.7642 42.9875L59.9142 36.363L63.6094 28.0857ZM63.6094 25.4896C63.1068 25.4888 62.6149 25.634 62.1932 25.9075C61.7715 26.1809 61.4384 26.5708 61.234 27.03L57.5388 35.3072C57.2565 35.9345 57.2346 36.6481 57.478 37.2914C57.7214 37.9347 58.2101 38.4551 58.8369 38.7384L73.6825 45.3629C74.0158 45.5126 74.3771 45.5893 74.7424 45.5879C75.2438 45.5882 75.7347 45.4433 76.1555 45.1707C76.5762 44.8981 76.9089 44.5095 77.1136 44.0519L80.8088 35.7746C81.0911 35.1474 81.113 34.4337 80.8696 33.7904C80.6262 33.1471 80.1375 32.6267 79.5107 32.3434L64.6695 25.7016C64.3378 25.5512 63.978 25.473 63.6138 25.4722L63.6094 25.4896Z" fill="#390075"/>
<path fill-rule="evenodd" clip-rule="evenodd" d="M78.0355 38.3663C77.6374 38.3701 77.2433 38.2874 76.8803 38.124L62.1255 31.5385C61.0438 31.0582 60.3557 29.9246 60.2389 28.4318C60.1617 27.0527 60.4279 25.6761 61.0134 24.4251C62.1254 21.9328 64.0899 20.2583 65.8943 20.2583C66.2935 20.2571 66.6884 20.3396 67.0537 20.5006L81.8085 27.0861C83.8421 27.9947 84.3181 31.0538 82.9162 34.2038C81.8042 36.6918 79.8442 38.3663 78.0355 38.3663Z" fill="#929497"/>
<path d="M65.8944 21.5564C66.1117 21.5555 66.3268 21.5997 66.5261 21.6862L81.2764 28.2717C82.5961 28.8602 82.7996 31.2746 81.7309 33.6716C80.8222 35.7053 79.2862 37.0683 78.0357 37.0683C77.8196 37.0708 77.6055 37.0265 77.4082 36.9385L62.6579 30.353C61.9959 30.0587 61.6108 29.3102 61.5329 28.328C61.4712 27.1665 61.7002 26.008 62.1992 24.9573C63.1079 22.915 64.6439 21.5564 65.8944 21.5564ZM65.8944 18.9602C63.5492 18.9602 61.1651 20.8987 59.8368 23.8973C59.1657 25.3516 58.8683 26.9504 58.9714 28.5487C59.1272 30.5217 60.0921 32.0448 61.6195 32.7241L76.374 39.3096C76.9034 39.5465 77.4773 39.6675 78.0572 39.6644C80.4024 39.6644 82.7822 37.7304 84.1149 34.7318C85.8197 30.9068 85.0624 27.1121 82.3495 25.9006L67.5947 19.3151C67.064 19.0777 66.4887 18.9567 65.9073 18.9602H65.8944Z" fill="#390075"/>
<mask id="mask0_83_5796" style="mask-type:luminance" maskUnits="userSpaceOnUse" x="61" y="21" width="22" height="17">
<path d="M81.7309 33.6717C80.6621 36.0645 78.728 37.527 77.404 36.9385L62.6535 30.353C61.9915 30.0588 61.6065 29.3103 61.5286 28.328C61.467 27.1666 61.6958 26.008 62.1948 24.9574C63.2635 22.556 65.202 21.0978 66.5217 21.6862L81.2722 28.2717C82.5962 28.8602 82.7996 31.2746 81.7309 33.6717Z" fill="white"/>
</mask>
<g mask="url(#mask0_83_5796)">
<path fill-rule="evenodd" clip-rule="evenodd" d="M61.113 32.2438C60.9309 32.2453 60.7509 32.2069 60.5852 32.1313L59.6723 31.7245C59.5145 31.6552 59.3719 31.5552 59.2532 31.4303C59.1344 31.3054 59.0418 31.1582 58.9806 30.9971C58.9194 30.836 58.8909 30.6643 58.8967 30.492C58.9026 30.3198 58.9426 30.1504 59.0146 29.9938L63.9601 18.917C64.0297 18.7611 64.1294 18.6205 64.2534 18.5032C64.3774 18.3859 64.5232 18.2941 64.6827 18.2333C64.8299 18.1747 64.9873 18.1453 65.1458 18.1468C65.3277 18.1469 65.5074 18.1852 65.6736 18.2593L66.5867 18.666C66.7445 18.7353 66.8869 18.8353 67.0056 18.9602C67.1244 19.0851 67.217 19.2324 67.2782 19.3935C67.3394 19.5546 67.3681 19.7263 67.3623 19.8986C67.3564 20.0708 67.3164 20.2401 67.2444 20.3967L62.29 31.478C62.1464 31.7906 61.8875 32.0355 61.5675 32.1615C61.4221 32.2159 61.2681 32.2438 61.113 32.2438Z" fill="#6D6E70"/>
<path d="M65.146 19.4624L66.0589 19.8691L61.1132 30.9459L60.2003 30.5391L65.146 19.4624ZM65.146 16.8662C64.8278 16.8654 64.5123 16.9241 64.2157 17.0393C63.574 17.285 63.0558 17.7751 62.7749 18.4022L57.8291 29.4834C57.5482 30.1101 57.5271 30.8226 57.7704 31.4649C58.0137 32.1072 58.5015 32.6269 59.1272 32.9103L60.0359 33.3171C60.3692 33.4667 60.7307 33.5434 61.0961 33.5421C61.5974 33.5423 62.0881 33.3974 62.5089 33.1248C62.9296 32.8522 63.2625 32.4637 63.4672 32.006L68.4085 20.9248C68.6894 20.2981 68.7105 19.5855 68.4672 18.9433C68.2239 18.301 67.7361 17.7813 67.1104 17.4979L66.1973 17.0912C65.8654 16.942 65.5055 16.8652 65.1415 16.8662H65.146Z" fill="#390075"/>
<path fill-rule="evenodd" clip-rule="evenodd" d="M62.8918 33.0573C62.7098 33.058 62.5297 33.0196 62.3638 32.9448L61.4509 32.5381C61.2931 32.4688 61.1507 32.3688 61.0319 32.2439C60.9132 32.119 60.8204 31.9717 60.7592 31.8106C60.698 31.6495 60.6695 31.4778 60.6753 31.3055C60.6811 31.1333 60.7212 30.9639 60.7932 30.8073L65.7389 19.7261C65.8409 19.4969 66.007 19.3022 66.2174 19.1655C66.4279 19.0288 66.6735 18.956 66.9244 18.9559C67.1067 18.9563 67.2869 18.9962 67.4523 19.0728L68.3653 19.4796C68.6792 19.6191 68.9251 19.8773 69.0489 20.1978C69.1705 20.5202 69.1612 20.8774 69.023 21.193L64.0772 32.2698C63.9778 32.5022 63.8127 32.7006 63.6021 32.8405C63.3915 32.9804 63.1446 33.0558 62.8918 33.0573Z" fill="#6D6E70"/>
<path d="M66.9245 20.254L67.8374 20.6608L62.8919 31.7592L61.9788 31.3525L66.9245 20.2713M66.9245 17.6752C66.4227 17.6753 65.9317 17.8209 65.5108 18.0942C65.09 18.3676 64.7574 18.7571 64.5534 19.2156L59.6121 30.2925C59.3298 30.9197 59.3079 31.6332 59.5512 32.2765C59.7946 32.9198 60.2834 33.4403 60.9101 33.7236L61.8231 34.1303C62.1556 34.2775 62.5151 34.3541 62.8788 34.3554C63.197 34.3561 63.5124 34.2975 63.809 34.1823C64.4516 33.9356 64.9699 33.4437 65.2499 32.815L70.1956 21.7382C70.4766 21.1114 70.4977 20.3988 70.2544 19.7565C70.0111 19.1142 69.5232 18.5945 68.8976 18.3112L67.9889 17.9045C67.6556 17.7543 67.2945 17.6761 66.9289 17.6752H66.9245Z" fill="#390075"/>
<path fill-rule="evenodd" clip-rule="evenodd" d="M64.67 33.8317C64.488 33.8328 64.3078 33.7944 64.1421 33.7192L63.2292 33.3125C63.0717 33.2428 62.9298 33.1426 62.8115 33.0175C62.6932 32.8924 62.601 32.745 62.5402 32.5839C62.4794 32.4229 62.4512 32.2513 62.4574 32.0792C62.4635 31.9072 62.5038 31.7381 62.5759 31.5818L67.5172 20.5049C67.6195 20.275 67.7863 20.0797 67.9976 19.943C68.2089 19.8063 68.4554 19.7339 68.7071 19.7347C68.8876 19.7341 69.0662 19.7725 69.2306 19.8472L70.1435 20.2539C70.3013 20.3232 70.4437 20.4232 70.5625 20.5481C70.6812 20.673 70.774 20.8203 70.8352 20.9814C70.8964 21.1425 70.9249 21.3142 70.9191 21.4865C70.9133 21.6587 70.8732 21.8281 70.8012 21.9846L65.8557 33.0572C65.7162 33.3712 65.4578 33.617 65.1374 33.7409C64.9884 33.7991 64.83 33.8298 64.67 33.8317Z" fill="#6D6E70"/>
<path d="M68.7031 21.0501L69.6162 21.4568L64.6705 32.5336L63.7618 32.1269L68.7031 21.0501ZM68.7031 18.4539C68.3863 18.4535 68.0725 18.5121 67.7773 18.627C67.1339 18.8717 66.6139 19.362 66.3319 19.99L61.3907 31.0711C61.1097 31.6978 61.0886 32.4104 61.3319 33.0527C61.5752 33.695 62.0631 34.2147 62.6887 34.4981L63.6017 34.9048C63.9331 35.056 64.2933 35.1343 64.6576 35.1341C65.1594 35.134 65.6504 34.9884 66.0712 34.715C66.4921 34.4417 66.8247 34.0522 67.0287 33.5937L71.9742 22.5168C72.2565 21.8896 72.2785 21.1761 72.0351 20.5328C71.7917 19.8894 71.3029 19.3689 70.6762 19.0856L69.7632 18.6789C69.4296 18.5302 69.0683 18.4535 68.7031 18.4539Z" fill="#390075"/>
<path fill-rule="evenodd" clip-rule="evenodd" d="M66.4526 34.6277C66.2692 34.6282 66.0878 34.59 65.9204 34.5153L65.0117 34.1085C64.8539 34.0392 64.7115 33.9392 64.5927 33.8143C64.474 33.6894 64.3812 33.5421 64.32 33.381C64.2588 33.2199 64.2303 33.0483 64.2361 32.8761C64.2419 32.7038 64.282 32.5344 64.354 32.3778L69.2997 21.2967C69.4392 20.9827 69.6974 20.7368 70.0178 20.613C70.1674 20.5577 70.3257 20.5299 70.4852 20.5308C70.6672 20.5297 70.8474 20.5681 71.0131 20.6433L71.926 21.05C72.0835 21.1197 72.2254 21.22 72.3437 21.345C72.462 21.4701 72.5544 21.6175 72.6152 21.7786C72.676 21.9396 72.7042 22.1111 72.698 22.2832C72.6919 22.4553 72.6514 22.6244 72.5793 22.7807L67.638 33.8576C67.536 34.0869 67.3697 34.2816 67.1593 34.4182C66.9489 34.5549 66.7035 34.6277 66.4526 34.6277Z" fill="#6D6E70"/>
<path d="M70.4854 21.8461L71.3941 22.2528L66.4529 33.3296L65.5397 32.9229L70.4854 21.8461ZM70.4854 19.25C69.9836 19.2501 69.4926 19.3957 69.0718 19.6691C68.651 19.9424 68.3184 20.3318 68.1143 20.7903L63.1686 31.8672C62.8863 32.4944 62.8646 33.208 63.108 33.8514C63.3513 34.4947 63.8399 35.0151 64.4667 35.2984L65.3798 35.7052C65.7124 35.8522 66.0719 35.9287 66.4355 35.9301C66.9381 35.9308 67.43 35.7857 67.8517 35.5123C68.2734 35.2389 68.6065 34.8489 68.8109 34.3898L73.7524 23.3129C74.0333 22.6862 74.0544 21.9737 73.8111 21.3314C73.5678 20.6891 73.08 20.1694 72.4543 19.886L71.5412 19.4793C71.2098 19.3281 70.8497 19.2498 70.4854 19.25Z" fill="#390075"/>
<path fill-rule="evenodd" clip-rule="evenodd" d="M68.2314 35.424C68.0491 35.4236 67.8689 35.3838 67.7035 35.3072L66.7906 34.9005C66.4766 34.761 66.2307 34.5027 66.1069 34.1823C65.9853 33.8599 65.9946 33.5027 66.1329 33.1871L71.0786 22.1102C71.1806 21.8809 71.3469 21.6862 71.5573 21.5496C71.7677 21.4129 72.0131 21.34 72.264 21.34C72.446 21.3393 72.6261 21.3777 72.792 21.4525L73.7049 21.8593C73.8627 21.9286 74.0051 22.0285 74.1239 22.1534C74.2426 22.2783 74.3354 22.4256 74.3966 22.5867C74.4578 22.7478 74.4863 22.9195 74.4805 23.0918C74.4747 23.264 74.4346 23.4334 74.3626 23.59L69.4171 34.6712C69.3125 34.8971 69.145 35.0882 68.9348 35.2217C68.7246 35.3552 68.4805 35.4255 68.2314 35.424Z" fill="#6D6E70"/>
<path d="M72.2638 22.638L73.1769 23.0448L68.2312 34.1259L67.3183 33.7149L72.2638 22.638ZM72.2638 20.0419C71.9457 20.0414 71.6303 20.1001 71.3336 20.215C70.691 20.4618 70.1727 20.9535 69.8927 21.5823L64.9472 32.6592C64.6662 33.2859 64.6449 33.9984 64.8882 34.6407C65.1315 35.283 65.6196 35.8027 66.2453 36.086L67.1582 36.4927C67.4896 36.644 67.8496 36.7222 68.2139 36.7221C68.7157 36.7219 69.2067 36.5764 69.6275 36.303C70.0484 36.0296 70.381 35.6401 70.585 35.1817L75.5307 24.1049C75.813 23.4777 75.835 22.764 75.5916 22.1207C75.3482 21.4774 74.8594 20.9569 74.2327 20.6736L73.324 20.2669C72.9898 20.1201 72.6289 20.0435 72.2638 20.0419Z" fill="#390075"/>
<path fill-rule="evenodd" clip-rule="evenodd" d="M70.0092 36.2158C69.8273 36.2157 69.6475 36.1773 69.4814 36.1033L68.5683 35.6966C68.4108 35.6269 68.2689 35.5265 68.1506 35.4014C68.0323 35.2763 67.9401 35.1291 67.8793 34.968C67.8185 34.8069 67.7903 34.6353 67.7965 34.4633C67.8026 34.2912 67.8429 34.1222 67.915 33.9658L72.8563 22.8846C72.959 22.6562 73.1255 22.4623 73.3359 22.3264C73.5462 22.1905 73.7915 22.1184 74.0419 22.1187C74.224 22.1176 74.404 22.156 74.5697 22.2312L75.4828 22.6379C75.6387 22.7075 75.7792 22.8072 75.8965 22.9312C76.0138 23.0552 76.1055 23.2011 76.1663 23.3606C76.2891 23.6813 76.2797 24.0375 76.1403 24.3514L71.1948 35.4283C71.1252 35.5841 71.0256 35.7247 70.9016 35.842C70.7776 35.9593 70.6317 36.0511 70.4723 36.1119C70.3256 36.1747 70.1685 36.2099 70.0092 36.2158Z" fill="#6D6E70"/>
<path d="M74.0422 23.4341L74.9552 23.8408L70.0094 34.9177L69.0965 34.511L74.0422 23.4341ZM74.0422 20.838C73.726 20.8382 73.4123 20.8953 73.1162 21.0067C72.7973 21.1283 72.5054 21.3118 72.2574 21.5465C72.0094 21.7811 71.8103 22.0623 71.6711 22.374L66.7296 33.4508C66.4473 34.078 66.4256 34.7917 66.669 35.435C66.9124 36.0783 67.4009 36.5988 68.0277 36.8821L68.9408 37.2888C69.5676 37.5697 70.2801 37.5908 70.9224 37.3475C71.5647 37.1042 72.0844 36.6164 72.3677 35.9907L77.3134 24.9095C77.5943 24.2828 77.6154 23.5703 77.3721 22.928C77.1288 22.2857 76.641 21.766 76.0153 21.4827L75.1022 21.076C74.7686 20.9272 74.4075 20.8505 74.0422 20.8509V20.838Z" fill="#390075"/>
<path fill-rule="evenodd" clip-rule="evenodd" d="M71.8092 37.012C71.6274 37.0106 71.4478 36.9723 71.2812 36.8995L70.3683 36.4668C70.2109 36.3972 70.0689 36.2969 69.9506 36.1718C69.8323 36.0467 69.7402 35.8994 69.6793 35.7384C69.6185 35.5773 69.5904 35.4057 69.5965 35.2336C69.6027 35.0616 69.6429 34.8924 69.7151 34.7361L74.6606 23.6593C74.8001 23.3453 75.0584 23.0995 75.3789 22.9756C75.5383 22.9142 75.7082 22.885 75.879 22.8894C76.0497 22.8939 76.218 22.932 76.374 23.0016L77.2871 23.4083C77.4445 23.478 77.5865 23.5783 77.7048 23.7034C77.8231 23.8284 77.9153 23.9758 77.9761 24.1369C78.0369 24.298 78.065 24.4696 78.0589 24.6416C78.0528 24.8137 78.0125 24.9827 77.9404 25.1391L72.9949 36.2159C72.8967 36.45 72.7321 36.6502 72.5214 36.7917C72.3107 36.9332 72.063 37.0098 71.8092 37.012Z" fill="#6D6E70"/>
<path d="M75.8206 24.226L76.7335 24.6327L71.8096 35.7138L70.8966 35.3071L75.8379 24.226M75.8379 21.6298C75.3361 21.6299 74.8451 21.7755 74.4243 22.0489C74.0035 22.3223 73.6709 22.7117 73.4668 23.1701L68.5211 34.247C68.2397 34.8754 68.2195 35.5898 68.4649 36.2331C68.7116 36.8756 69.2035 37.3938 69.8322 37.6739L70.7452 38.085C71.3719 38.3659 72.0844 38.387 72.7267 38.1437C73.369 37.9004 73.8887 37.4126 74.172 36.7869L79.1177 25.7101C79.4 25.0828 79.4217 24.3692 79.1784 23.7259C78.935 23.0825 78.4464 22.5622 77.8197 22.2789L76.9065 21.872C76.5739 21.725 76.2145 21.6484 75.8508 21.647L75.8379 21.6298Z" fill="#390075"/>
<path fill-rule="evenodd" clip-rule="evenodd" d="M73.5705 37.8168C73.3871 37.8173 73.2057 37.779 73.0383 37.7043L72.1298 37.2976C71.9739 37.228 71.8332 37.1283 71.7159 37.0043C71.5986 36.8803 71.507 36.7344 71.4461 36.5749C71.3234 36.2542 71.3327 35.898 71.4721 35.5842L76.4176 24.5073C76.5196 24.278 76.6859 24.0833 76.8963 23.9467C77.1067 23.81 77.3524 23.7371 77.6033 23.7371C77.7852 23.7364 77.9651 23.7747 78.131 23.8496L79.0442 24.2563C79.2016 24.326 79.3435 24.4262 79.4618 24.5513C79.5801 24.6764 79.6723 24.8238 79.7331 24.9849C79.7939 25.1459 79.8221 25.3175 79.8159 25.4896C79.8098 25.6616 79.7695 25.8307 79.6974 25.987L74.7561 37.0639C74.6516 37.2899 74.4842 37.481 74.274 37.6145C74.0638 37.748 73.8195 37.8182 73.5705 37.8168Z" fill="#6D6E70"/>
<path d="M77.6033 25.0222L78.5162 25.429L73.5705 36.5057L72.6749 36.0861L77.6206 25.0092M77.6206 22.413C77.3029 22.4128 76.9876 22.4701 76.6901 22.5818C76.0476 22.8286 75.5295 23.3204 75.2495 23.9491L70.3038 35.0303C70.0228 35.6571 70.0017 36.3696 70.245 37.0119C70.4883 37.6541 70.9762 38.1739 71.6018 38.4572L72.5147 38.8639C72.8483 39.0126 73.2097 39.0893 73.5749 39.0889C73.8912 39.0887 74.2049 39.0315 74.5009 38.9202C74.8199 38.7985 75.1116 38.6151 75.3595 38.3805C75.6075 38.1459 75.8069 37.8646 75.946 37.5528L80.8873 26.4717C81.1683 25.845 81.1893 25.1325 80.946 24.4902C80.7028 23.8479 80.2149 23.3282 79.5892 23.0448L78.6763 22.638C78.3444 22.4888 77.9845 22.4121 77.6206 22.413Z" fill="#390075"/>
<path fill-rule="evenodd" clip-rule="evenodd" d="M75.3488 38.5998C75.1671 38.5984 74.9874 38.5601 74.8208 38.4873L73.9079 38.0806C73.7501 38.0113 73.6077 37.9113 73.489 37.7864C73.3702 37.6615 73.2774 37.5142 73.2162 37.3531C73.155 37.192 73.1265 37.0203 73.1323 36.848C73.1382 36.6758 73.1782 36.5065 73.2502 36.3499L78.1957 25.273C78.2653 25.1171 78.365 24.9765 78.489 24.8592C78.613 24.7419 78.759 24.6501 78.9185 24.5893C79.2392 24.4665 79.5955 24.4759 79.9094 24.6153L80.8223 25.0263C80.9801 25.0956 81.1225 25.1956 81.2412 25.3205C81.36 25.4454 81.4528 25.5927 81.514 25.7538C81.5752 25.9149 81.6037 26.0866 81.5979 26.2589C81.592 26.4311 81.552 26.6005 81.48 26.7571L76.5343 37.834C76.4316 38.0624 76.265 38.2561 76.0547 38.392C75.8443 38.5279 75.5992 38.6001 75.3488 38.5998Z" fill="#6D6E70"/>
<path d="M79.3817 25.8138L80.2946 26.2205L75.3491 37.3018L74.436 36.8951L79.3817 25.8138ZM79.3817 23.2177C78.8799 23.2178 78.3889 23.3634 77.968 23.6368C77.5472 23.9102 77.2146 24.2997 77.0106 24.7581L72.0648 35.8349C71.7825 36.4621 71.7608 37.1757 72.0042 37.8191C72.2476 38.4624 72.7361 38.9829 73.3629 39.2662L74.276 39.6729C74.9028 39.9538 75.6153 39.9749 76.2576 39.7316C76.8999 39.4883 77.4196 39.0005 77.7029 38.3748L82.6484 27.2979C82.9307 26.6707 82.9526 25.9572 82.7092 25.3139C82.4659 24.6705 81.9771 24.1501 81.3503 23.8667L80.4374 23.46C80.1051 23.3119 79.7455 23.2352 79.3817 23.235V23.2177Z" fill="#390075"/>
<path fill-rule="evenodd" clip-rule="evenodd" d="M77.1273 39.3917C76.9453 39.3924 76.7652 39.354 76.5993 39.2792L75.6864 38.8725C75.529 38.8028 75.387 38.7025 75.2687 38.5775C75.1504 38.4524 75.0582 38.305 74.9974 38.1439C74.9366 37.9829 74.9083 37.8113 74.9144 37.6393C74.9205 37.4672 74.961 37.2981 75.0331 37.1417L79.9744 26.065C80.0437 25.9072 80.1436 25.7647 80.2685 25.6459C80.3934 25.5272 80.5407 25.4345 80.7018 25.3733C80.8629 25.312 81.0347 25.2835 81.207 25.2894C81.3792 25.2952 81.5486 25.3353 81.7052 25.4073L82.6139 25.814C82.7697 25.8836 82.9102 25.9832 83.0275 26.1072C83.1448 26.2312 83.2365 26.3771 83.2973 26.5365C83.4201 26.8572 83.4109 27.2136 83.2715 27.5274L78.2998 38.6259C78.1981 38.8524 78.0336 39.0448 77.8257 39.1805C77.6179 39.3163 77.3755 39.3895 77.1273 39.3917Z" fill="#6D6E70"/>
<path d="M81.1596 26.6102L82.0727 27.0169L77.127 38.0937L76.2183 37.687L81.1596 26.6102ZM81.1596 24.014C80.8429 24.0136 80.529 24.0722 80.2338 24.1871C79.5904 24.4318 79.0705 24.9221 78.7885 25.55L73.8472 36.6312C73.5663 37.258 73.5452 37.9705 73.7885 38.6128C74.0318 39.2551 74.5196 39.7748 75.1453 40.0581L76.0582 40.4649C76.3901 40.6142 76.75 40.6908 77.1139 40.6898C77.4317 40.69 77.747 40.6329 78.0444 40.5211C78.6869 40.2743 79.2052 39.7826 79.4853 39.1538L84.4308 28.0726C84.7117 27.4459 84.7328 26.7334 84.4895 26.0911C84.2462 25.4488 83.7584 24.9291 83.1327 24.6457L82.2198 24.239C81.8862 24.0903 81.5249 24.0136 81.1596 24.014Z" fill="#390075"/>
<path fill-rule="evenodd" clip-rule="evenodd" d="M78.9101 40.1879C78.7269 40.1873 78.5457 40.149 78.3779 40.0754L77.4692 39.6687C77.3114 39.5994 77.169 39.4994 77.0502 39.3745C76.9315 39.2496 76.8387 39.1023 76.7775 38.9412C76.7163 38.7801 76.6878 38.6084 76.6936 38.4361C76.6995 38.2639 76.7395 38.0946 76.8115 37.938L81.7572 26.8611C81.8593 26.6319 82.0253 26.4372 82.2358 26.3005C82.4462 26.1638 82.6918 26.0909 82.9427 26.0909C83.1249 26.0923 83.3048 26.1322 83.4707 26.2077L84.3836 26.6145C84.541 26.6842 84.683 26.7845 84.8013 26.9096C84.9196 27.0346 85.0117 27.1819 85.0725 27.343C85.1333 27.5041 85.1615 27.6757 85.1554 27.8477C85.1492 28.0198 85.1089 28.1889 85.0368 28.3453L80.0955 39.4221C80.026 39.5779 79.9263 39.7185 79.8023 39.8358C79.6783 39.9531 79.5325 40.0449 79.373 40.1057C79.2248 40.1605 79.0681 40.1883 78.9101 40.1879Z" fill="#6D6E70"/>
<path d="M82.943 27.4019L83.8516 27.8346L78.9104 38.9115L77.9972 38.5048L82.943 27.4236M82.943 24.8275C82.625 24.8287 82.3099 24.8873 82.0127 25.0005C81.3702 25.2472 80.8519 25.7391 80.5718 26.3679L75.6261 37.4446C75.3438 38.0718 75.3221 38.7855 75.5655 39.4288C75.8089 40.0721 76.2974 40.5926 76.9242 40.8759L77.8373 41.2826C78.1699 41.4297 78.5294 41.5063 78.893 41.5076C79.3956 41.5084 79.8876 41.3632 80.3092 41.0897C80.7309 40.8163 81.064 40.4264 81.2684 39.9672L86.2097 28.8905C86.4906 28.2637 86.5119 27.5511 86.2686 26.9088C86.0253 26.2665 85.5373 25.7468 84.9116 25.4635L83.9987 25.0568C83.6667 24.9072 83.3071 24.829 82.943 24.8275Z" fill="#390075"/>
</g>
<path fill-rule="evenodd" clip-rule="evenodd" d="M65.691 51.2735C65.4442 51.8176 65.0422 52.2766 64.5351 52.5928C64.0281 52.9089 63.4388 53.0679 62.8416 53.05C62.2443 53.032 61.6657 52.8378 61.1786 52.4918C60.6915 52.1457 60.3175 51.6633 60.1039 51.1053C59.8903 50.5473 59.8466 49.9386 59.9782 49.3557C60.1097 48.7729 60.4108 48.2419 60.8433 47.8297C61.2759 47.4175 61.8208 47.1425 62.4093 47.0392C62.9978 46.936 63.6036 47.0091 64.1506 47.2494C64.5176 47.4106 64.849 47.643 65.1254 47.9331C65.4019 48.2233 65.6181 48.5654 65.7614 48.9397C65.9046 49.314 65.9722 49.713 65.9602 50.1136C65.9481 50.5142 65.8565 50.9085 65.691 51.2735Z" fill="#141519"/>
<path fill-rule="evenodd" clip-rule="evenodd" d="M38.7387 111.659C38.4913 112.203 38.0887 112.662 37.5816 112.977C37.0744 113.292 36.4854 113.451 35.8884 113.432C35.2914 113.414 34.7132 113.219 34.2265 112.873C33.7398 112.527 33.3662 112.045 33.1528 111.487C32.9395 110.929 32.896 110.32 33.0276 109.738C33.1591 109.155 33.4599 108.625 33.8923 108.212C34.3247 107.8 34.8692 107.525 35.4574 107.422C36.0457 107.319 36.6513 107.391 37.1983 107.631C37.5658 107.792 37.8978 108.025 38.1746 108.315C38.4514 108.606 38.6676 108.948 38.811 109.323C38.9543 109.698 39.0218 110.098 39.0094 110.499C38.9969 110.9 38.9049 111.294 38.7387 111.659Z" fill="#141519"/>
<path fill-rule="evenodd" clip-rule="evenodd" d="M22.1365 68.2868C21.8897 68.831 21.4874 69.29 20.9804 69.6061C20.4733 69.9223 19.8841 70.0814 19.2868 70.0634C18.6896 70.0455 18.111 69.8512 17.6239 69.5052C17.1368 69.1591 16.7629 68.6768 16.5493 68.1188C16.3357 67.5607 16.2919 66.952 16.4234 66.3691C16.555 65.7863 16.856 65.2554 17.2886 64.8432C17.7212 64.431 18.266 64.156 18.8545 64.0527C19.4431 63.9494 20.049 64.0226 20.5961 64.2629C20.963 64.4241 21.2942 64.6565 21.5707 64.9466C21.8471 65.2368 22.0633 65.5789 22.2066 65.9532C22.3499 66.3275 22.4175 66.7265 22.4054 67.1271C22.3934 67.5277 22.302 67.9218 22.1365 68.2868Z" fill="#141519"/>
<path fill-rule="evenodd" clip-rule="evenodd" d="M81.6742 94.8627C81.4268 95.4063 81.0242 95.8646 80.517 96.1801C80.0099 96.4955 79.4209 96.6539 78.8239 96.6355C78.2269 96.617 77.6487 96.4225 77.162 96.0763C76.6753 95.7302 76.3018 95.2477 76.0885 94.6898C75.8752 94.132 75.8315 93.5235 75.963 92.9409C76.0946 92.3583 76.3954 91.8277 76.8278 91.4156C77.2601 91.0036 77.8046 90.7285 78.3929 90.625C78.9811 90.5216 79.587 90.5944 80.134 90.8343C80.5015 90.9955 80.8333 91.228 81.1101 91.5185C81.3869 91.809 81.6031 92.1515 81.7464 92.5263C81.8898 92.9011 81.9572 93.3006 81.9448 93.7017C81.9324 94.1028 81.8404 94.4974 81.6742 94.8627Z" fill="#141519"/>
<path fill-rule="evenodd" clip-rule="evenodd" d="M40.4608 48.0758C40.6703 48.6353 40.7098 49.2444 40.574 49.8262C40.4383 50.4081 40.1336 50.9368 39.6981 51.3458C39.2626 51.7548 38.7158 52.0259 38.1266 52.125C37.5374 52.224 36.9321 52.1467 36.3868 51.9025C35.8415 51.6583 35.3804 51.2583 35.0619 50.7529C34.7434 50.2474 34.5816 49.6589 34.5967 49.0616C34.6117 48.4643 34.803 47.8849 35.1466 47.3961C35.4902 46.9074 35.9708 46.5311 36.5277 46.3147C36.9014 46.1696 37.3002 46.1001 37.7009 46.1102C38.1016 46.1203 38.4962 46.2099 38.8621 46.3737C39.2279 46.5375 39.5578 46.7724 39.8322 47.0645C40.1067 47.3567 40.3202 47.7004 40.4608 48.0758Z" fill="#141519"/>
<path fill-rule="evenodd" clip-rule="evenodd" d="M64.103 109.829C64.3133 110.388 64.3536 110.998 64.2186 111.58C64.0835 112.162 63.7792 112.691 63.3441 113.101C62.909 113.51 62.3623 113.782 61.7731 113.882C61.1839 113.981 60.5785 113.904 60.0328 113.661C59.4872 113.417 59.0259 113.017 58.7069 112.512C58.3879 112.007 58.2255 111.418 58.2402 110.821C58.2548 110.224 58.4459 109.644 58.7893 109.155C59.1327 108.666 59.613 108.289 60.1699 108.072C60.5433 107.927 60.9418 107.857 61.3423 107.867C61.7428 107.877 62.1374 107.966 62.5033 108.13C62.8691 108.293 63.1988 108.527 63.4734 108.819C63.748 109.111 63.962 109.454 64.103 109.829Z" fill="#141519"/>
<path fill-rule="evenodd" clip-rule="evenodd" d="M21.6954 90.9034C21.9053 91.4626 21.945 92.0715 21.8099 92.6533C21.6747 93.2352 21.3706 93.764 20.9356 94.1735C20.5006 94.5829 19.9544 94.8545 19.3654 94.9542C18.7765 95.054 18.1711 94.9774 17.6256 94.734C17.0801 94.4906 16.6188 94.0913 16.2996 93.5864C15.9804 93.0815 15.8175 92.4935 15.8317 91.8964C15.8458 91.2992 16.0361 90.7195 16.3789 90.2302C16.7216 89.741 17.2014 89.3639 17.7578 89.1466C18.1315 89.0007 18.5303 88.9305 18.9313 88.94C19.3323 88.9495 19.7274 89.0385 20.0937 89.202C20.46 89.3654 20.7902 89.5999 21.0651 89.892C21.34 90.1841 21.5544 90.5278 21.6954 90.9034Z" fill="#141519"/>
<path fill-rule="evenodd" clip-rule="evenodd" d="M82.5874 67.5902C82.7974 68.1495 82.8373 68.7583 82.7022 69.3401C82.567 69.922 82.2627 70.4508 81.8277 70.8602C81.3927 71.2696 80.8465 71.5414 80.2575 71.6411C79.6686 71.7408 79.0632 71.6641 78.5177 71.4207C77.9722 71.1774 77.5109 70.7781 77.1917 70.2732C76.8725 69.7683 76.7096 69.1803 76.7237 68.5831C76.7379 67.9859 76.9284 67.4063 77.2712 66.917C77.6139 66.4278 78.0935 66.0508 78.6499 65.8335C79.0236 65.6876 79.4223 65.6173 79.8233 65.6268C80.2244 65.6362 80.6195 65.7253 80.9858 65.8887C81.3521 66.0522 81.6823 66.2868 81.9572 66.5789C82.2321 66.8709 82.4465 67.2147 82.5874 67.5902Z" fill="#141519"/>
<path fill-rule="evenodd" clip-rule="evenodd" d="M50.7503 83.0762C50.6142 83.3808 50.4194 83.6555 50.1771 83.8848C49.9348 84.1141 49.6497 84.2935 49.3381 84.4126C49.0265 84.5317 48.6947 84.5883 48.3612 84.5791C48.0277 84.5699 47.6994 84.4951 47.3948 84.359C47.0903 84.223 46.8154 84.0282 46.5861 83.786C46.3568 83.5437 46.1774 83.2586 46.0583 82.947C45.9392 82.6354 45.8827 82.3034 45.8918 81.97C45.901 81.6365 45.9757 81.3082 46.1118 81.0036L56.531 57.6644C56.667 57.3598 56.8619 57.085 57.1041 56.8557C57.3464 56.6264 57.6315 56.4471 57.9431 56.328C58.2547 56.2088 58.5866 56.1522 58.92 56.1614C59.2535 56.1705 59.5818 56.2453 59.8864 56.3814C60.191 56.5175 60.4659 56.7122 60.6952 56.9545C60.9245 57.1968 61.1038 57.4819 61.2229 57.7935C61.3421 58.105 61.3986 58.437 61.3894 58.7705C61.3802 59.1039 61.3056 59.4323 61.1695 59.7369L50.7503 83.0762Z" fill="#404041"/>
<path fill-rule="evenodd" clip-rule="evenodd" d="M47.8294 79.1691C48.4576 78.9247 49.1572 78.9398 49.7743 79.2113C50.3915 79.4827 50.8755 79.9882 51.1199 80.6165C51.3644 81.2447 51.3491 81.9443 51.0777 82.5614C50.8063 83.1786 50.3008 83.6626 49.6725 83.907L25.8531 93.2012C25.5422 93.3222 25.2107 93.3808 24.8772 93.3737C24.5437 93.3666 24.2149 93.2939 23.9096 93.1597C23.6042 93.0255 23.3282 92.8324 23.0974 92.5916C22.8667 92.3507 22.6856 92.0668 22.5646 91.756C22.4436 91.4452 22.3851 91.1136 22.3922 90.7801C22.3993 90.4466 22.472 90.1178 22.6062 89.8125C22.7404 89.5071 22.9333 89.2312 23.1741 89.0004C23.4149 88.7697 23.6989 88.5886 24.0097 88.4676L47.8294 79.1691Z" fill="#404041"/>
<path fill-rule="evenodd" clip-rule="evenodd" d="M32.4343 34.5371C32.0252 34.5204 31.6243 34.4178 31.2575 34.2359C30.8907 34.054 30.5664 33.7969 30.3055 33.4813C29.6621 32.7384 29.2157 31.8457 29.0074 30.8852C28.757 29.9288 28.748 28.9252 28.9815 27.9646C29.0802 27.4736 29.3107 27.0189 29.6484 26.6492C29.9862 26.2794 30.4184 26.0087 30.8983 25.866L41.2438 23.3478C41.4194 23.3046 41.5996 23.2828 41.7804 23.2828C43.2862 23.2828 44.7011 24.7843 45.2419 26.9348C45.8391 29.3838 45.03 31.5429 43.3555 31.9496L33.0098 34.4679C32.8217 34.5153 32.6283 34.5385 32.4343 34.5371Z" fill="#929497"/>
<path d="M41.755 24.5852C42.6203 24.5852 43.5635 25.7016 43.94 27.2463C44.3467 28.9251 43.9401 30.4655 43.0055 30.7078L32.6598 33.2303C32.5831 33.2475 32.5048 33.2562 32.4262 33.2563C32.1983 33.2375 31.9769 33.1717 31.7759 33.063C31.5748 32.9543 31.3983 32.805 31.2578 32.6246C30.7545 32.0455 30.4051 31.3492 30.2412 30.5997C29.8085 28.9165 30.2411 27.3761 31.1801 27.1381L41.5255 24.6155C41.6007 24.5983 41.6778 24.5896 41.755 24.5895M41.755 21.9934C41.4708 21.9942 41.1877 22.0276 40.9111 22.0929L30.5657 24.6155C29.1767 24.953 28.1339 26.0521 27.7012 27.6444C27.4267 28.8168 27.4324 30.0375 27.7181 31.2073C28.0038 32.3771 28.5613 33.4631 29.3454 34.377C29.7266 34.825 30.1982 35.1876 30.729 35.4411C31.2598 35.6946 31.8381 35.8333 32.4262 35.8481C32.7175 35.8489 33.008 35.8155 33.2915 35.7486L43.6372 33.226C46.03 32.6462 47.2501 29.8164 46.4799 26.6448C45.8049 23.867 43.9141 22.0021 41.7723 22.0021L41.755 21.9934Z" fill="#390075"/>
<mask id="mask1_83_5796" style="mask-type:luminance" maskUnits="userSpaceOnUse" x="30" y="24" width="15" height="10">
<path d="M43.9409 27.2459C44.3476 28.9248 43.941 30.4651 43.0064 30.7074L32.6608 33.2299C32.3941 33.2655 32.1228 33.2279 31.8759 33.1212C31.6289 33.0145 31.4156 32.8428 31.2587 32.6242C30.7555 32.0451 30.406 31.3488 30.2421 30.5993C29.8094 28.9161 30.2421 27.3757 31.181 27.1377L41.5264 24.6151C42.4524 24.4031 43.5298 25.5628 43.9409 27.2459Z" fill="white"/>
</mask>
<g mask="url(#mask1_83_5796)">
<path fill-rule="evenodd" clip-rule="evenodd" d="M31.4523 35.5972C31.1619 35.5967 30.8799 35.4988 30.6516 35.3191C30.4233 35.1395 30.2619 34.8885 30.1931 34.6063L28.298 26.8179C28.2172 26.4834 28.2725 26.1305 28.4518 25.8367C28.6311 25.543 28.9198 25.3325 29.2542 25.2515L29.8946 25.0958C29.995 25.0701 30.0982 25.057 30.2018 25.0568C30.4923 25.0573 30.7743 25.1551 31.0025 25.3348C31.2308 25.5144 31.3923 25.7655 31.461 26.0477L33.3519 33.8361C33.3924 34.0017 33.3999 34.1737 33.3739 34.3422C33.3479 34.5107 33.2889 34.6726 33.2004 34.8183C33.1122 34.9642 32.9961 35.0912 32.8588 35.1922C32.7214 35.2931 32.5654 35.366 32.3999 35.4067L31.7595 35.5625C31.6586 35.5845 31.5556 35.5961 31.4523 35.5972Z" fill="#6D6E70"/>
<path d="M30.2019 26.3722L32.0928 34.1606L31.4524 34.3163L29.5615 26.5279L30.2019 26.3722ZM30.2019 23.7761C29.9949 23.777 29.7888 23.8017 29.5875 23.8496L28.9471 24.0054C28.2786 24.17 27.7019 24.5912 27.3418 25.178C27.1648 25.4695 27.0469 25.793 26.9949 26.1301C26.943 26.4671 26.9579 26.8111 27.0389 27.1424L28.9298 34.9308C29.0675 35.496 29.391 35.9985 29.8484 36.3578C30.3058 36.7172 30.8707 36.9125 31.4524 36.9124C31.6595 36.9134 31.8658 36.8887 32.0668 36.8389L32.7072 36.6831C33.0384 36.6024 33.3506 36.4573 33.6258 36.256C33.901 36.0547 34.134 35.8012 34.3111 35.5099C34.4883 35.2186 34.6063 34.8953 34.6585 34.5583C34.7107 34.2214 34.6961 33.8774 34.6154 33.5461L32.7245 25.7577C32.5868 25.1925 32.2633 24.69 31.8059 24.3307C31.3484 23.9713 30.7836 23.776 30.2019 23.7761Z" fill="#390075"/>
<path fill-rule="evenodd" clip-rule="evenodd" d="M32.703 35.2943C32.4648 35.2939 32.2313 35.2281 32.028 35.1039C31.8822 35.0157 31.755 34.8995 31.6541 34.7622C31.5531 34.6248 31.4803 34.4689 31.4396 34.3034L29.5487 26.515C29.4678 26.1811 29.5226 25.8288 29.701 25.5352C29.8795 25.2416 30.1668 25.0307 30.5005 24.9487L31.1409 24.7929C31.2413 24.7672 31.3447 24.7542 31.4483 24.754C31.6865 24.7544 31.9198 24.8202 32.1231 24.9444C32.2689 25.0326 32.3961 25.1488 32.497 25.2861C32.598 25.4235 32.671 25.5794 32.7117 25.7449L34.6024 33.5333C34.6832 33.8678 34.6279 34.2206 34.4486 34.5144C34.2693 34.8081 33.9806 35.0186 33.6462 35.0996L33.0102 35.2554C32.9098 35.2808 32.8066 35.2939 32.703 35.2943Z" fill="#6D6E70"/>
<path d="M31.448 26.0695L33.3387 33.8579L32.7028 34.0136L30.8077 26.2252L31.448 26.0695ZM31.448 23.4733C31.2411 23.4743 31.0348 23.4989 30.8335 23.5469L30.1931 23.7026C29.8618 23.7832 29.5497 23.9284 29.2745 24.1298C28.9993 24.3311 28.7665 24.5846 28.5893 24.8759C28.4121 25.1672 28.294 25.4905 28.2418 25.8274C28.1895 26.1644 28.2044 26.5083 28.2851 26.8396L30.1802 34.628C30.3179 35.1931 30.6414 35.6958 31.0988 36.0551C31.5562 36.4145 32.1211 36.6098 32.7028 36.6097C32.9097 36.6087 33.1159 36.5841 33.3172 36.5362L33.9576 36.3804C34.6258 36.2165 35.2016 35.7941 35.5586 35.2059C35.9156 34.6177 36.0245 33.9118 35.8614 33.2434L33.9704 25.455C33.8328 24.8898 33.5095 24.3873 33.052 24.0279C32.5946 23.6686 32.0297 23.4733 31.448 23.4733Z" fill="#390075"/>
<path fill-rule="evenodd" clip-rule="evenodd" d="M33.9489 34.9914C33.6576 34.9919 33.3748 34.8944 33.1456 34.7147C32.9165 34.535 32.7544 34.2834 32.6855 34.0005L30.7945 26.2121C30.7539 26.0461 30.7465 25.8739 30.7726 25.705C30.7987 25.5362 30.8578 25.3742 30.9467 25.2283C31.0355 25.0824 31.1522 24.9553 31.2902 24.8546C31.4282 24.7539 31.5847 24.6815 31.7508 24.6415L32.3869 24.4857C32.4879 24.4637 32.5908 24.4522 32.6941 24.4511C32.9323 24.4514 33.1659 24.5173 33.3691 24.6415C33.515 24.7297 33.6419 24.8459 33.7429 24.9832C33.8438 25.1206 33.9168 25.2764 33.9575 25.4419L35.8484 33.2303C35.8889 33.3959 35.8964 33.568 35.8704 33.7365C35.8444 33.905 35.7855 34.0668 35.697 34.2125C35.5179 34.5054 35.23 34.7155 34.8964 34.7967L34.2561 34.9524C34.1556 34.9778 34.0525 34.9909 33.9489 34.9914Z" fill="#6D6E70"/>
<path d="M32.6942 25.7665L34.5894 33.5549L33.949 33.7107L32.0581 25.9223L32.6942 25.7665ZM32.6942 23.1704C32.4858 23.1694 32.2779 23.1942 32.0754 23.244L31.4395 23.3997C31.1082 23.4804 30.7961 23.6255 30.5209 23.8268C30.2457 24.0281 30.0127 24.2817 29.8355 24.573C29.6583 24.8643 29.5404 25.1877 29.4882 25.5246C29.4359 25.8615 29.4506 26.2054 29.5313 26.5367L31.4222 34.3251C31.5598 34.8903 31.8834 35.3929 32.3408 35.7523C32.7982 36.1116 33.3631 36.3069 33.9448 36.3069C34.1517 36.3056 34.3578 36.281 34.5592 36.2333L35.1995 36.0775C35.5308 35.9969 35.843 35.8517 36.1182 35.6504C36.3933 35.4491 36.6261 35.1956 36.8033 34.9043C36.9805 34.613 37.0986 34.2896 37.1509 33.9526C37.2031 33.6157 37.1883 33.2718 37.1075 32.9405L35.2124 25.1521C35.0749 24.5877 34.752 24.0856 34.2955 23.7263C33.8389 23.3671 33.2752 23.1713 32.6942 23.1704Z" fill="#390075"/>
<path fill-rule="evenodd" clip-rule="evenodd" d="M35.1951 34.6843C34.9046 34.6838 34.6226 34.5859 34.3944 34.4063C34.1661 34.2266 34.0048 33.9757 33.9361 33.6934L32.0452 25.9267C32.0047 25.761 31.9972 25.589 32.0232 25.4205C32.0492 25.2519 32.1082 25.0902 32.1967 24.9445C32.2849 24.7986 32.401 24.6716 32.5383 24.5706C32.6757 24.4697 32.8315 24.3967 32.997 24.356L33.6374 24.2003C33.7379 24.1757 33.8413 24.164 33.9448 24.1656C34.1826 24.1646 34.4159 24.229 34.6196 24.3516C34.7659 24.4404 34.8932 24.5573 34.9942 24.6954C35.0951 24.8335 35.168 24.9902 35.2082 25.1565L37.0989 32.9449C37.1395 33.1108 37.1471 33.2831 37.1211 33.4519C37.095 33.6208 37.0358 33.7829 36.947 33.9288C36.8581 34.0747 36.7412 34.2016 36.6032 34.3023C36.4652 34.403 36.3087 34.4755 36.1426 34.5156L35.5067 34.6713C35.4036 34.6863 35.2991 34.6906 35.1951 34.6843Z" fill="#6D6E70"/>
<path d="M33.9449 25.4636L35.8356 33.252L35.1996 33.4078L33.3043 25.6194L33.9449 25.4636ZM33.9449 22.8674C33.7378 22.866 33.5312 22.8908 33.3303 22.9411L32.6899 23.0968C32.3586 23.1774 32.0465 23.3225 31.7713 23.5239C31.4961 23.7252 31.2633 23.9788 31.0861 24.2701C30.9089 24.5614 30.7908 24.8847 30.7386 25.2217C30.6864 25.5586 30.7012 25.9025 30.7819 26.2338L32.677 34.0005C32.8147 34.5657 33.1382 35.0683 33.5956 35.4277C34.0531 35.787 34.6179 35.9823 35.1996 35.9823C35.4067 35.9834 35.6131 35.9588 35.814 35.9087L36.45 35.7529C36.7812 35.6723 37.0934 35.5271 37.3686 35.3258C37.6438 35.1245 37.8767 34.871 38.0539 34.5797C38.2311 34.2884 38.3491 33.965 38.4013 33.628C38.4535 33.2911 38.4389 32.9472 38.3582 32.6159L36.4673 24.8492C36.3296 24.284 36.0063 23.7814 35.5489 23.422C35.0914 23.0627 34.5266 22.8674 33.9449 22.8674Z" fill="#390075"/>
<path fill-rule="evenodd" clip-rule="evenodd" d="M36.4455 34.3814C36.2073 34.381 35.9737 34.3152 35.7704 34.191C35.6246 34.1027 35.4977 33.9866 35.3967 33.8493C35.2957 33.7119 35.2228 33.556 35.1821 33.3905L33.2911 25.6021C33.2102 25.2682 33.265 24.9158 33.4435 24.6222C33.6219 24.3286 33.9095 24.1176 34.2431 24.0357L34.8835 23.88C35.049 23.838 35.2212 23.8298 35.3899 23.8558C35.5587 23.8818 35.7206 23.9415 35.8657 24.0314C36.0116 24.1196 36.1385 24.2357 36.2395 24.3731C36.3404 24.5104 36.4134 24.6663 36.4541 24.8319L38.345 32.6203C38.3857 32.7859 38.3932 32.958 38.3674 33.1266C38.3416 33.2952 38.283 33.457 38.1946 33.6029C38.1062 33.7488 37.9899 33.8758 37.8523 33.9767C37.7148 34.0776 37.5587 34.1504 37.393 34.191L36.7527 34.3467C36.6518 34.3691 36.5488 34.3808 36.4455 34.3814Z" fill="#6D6E70"/>
<path d="M35.191 25.1563L37.0862 32.9447L36.4458 33.1005L34.5549 25.3121L35.191 25.1563ZM35.191 22.5602C34.9841 22.5611 34.778 22.5858 34.5767 22.6337L33.9363 22.7895C33.268 22.9534 32.692 23.3758 32.335 23.964C31.9781 24.5522 31.8691 25.2581 32.0323 25.9265L33.9232 33.7149C34.0607 34.2794 34.3836 34.7814 34.8401 35.1407C35.2967 35.5 35.8604 35.6957 36.4414 35.6967C36.6498 35.6976 36.8577 35.6728 37.0602 35.623L37.7006 35.4673C38.0318 35.3867 38.344 35.2415 38.6192 35.0402C38.8944 34.8389 39.1271 34.5853 39.3043 34.294C39.4815 34.0027 39.5997 33.6794 39.6519 33.3424C39.7041 33.0055 39.6895 32.6616 39.6088 32.3303L37.7137 24.5419C37.576 23.9768 37.2525 23.4741 36.795 23.1148C36.3376 22.7554 35.7727 22.5601 35.191 22.5602Z" fill="#390075"/>
<path fill-rule="evenodd" clip-rule="evenodd" d="M37.6918 34.0783C37.4551 34.0772 37.2232 34.0113 37.0212 33.8879C36.8754 33.7996 36.7482 33.6836 36.6473 33.5462C36.5463 33.4089 36.4736 33.253 36.4328 33.0874L34.5419 25.299C34.461 24.9651 34.5156 24.6128 34.694 24.3192C34.8725 24.0255 35.1601 23.8146 35.4937 23.7327L36.1341 23.5769C36.2344 23.551 36.3376 23.5378 36.4413 23.538C36.6795 23.5383 36.913 23.6041 37.1163 23.7283C37.4092 23.9074 37.6193 24.1953 37.7005 24.5288L39.5956 32.3172C39.6764 32.6518 39.6211 33.0047 39.4418 33.2984C39.2625 33.5921 38.9738 33.8025 38.6394 33.8835L37.999 34.0393C37.8987 34.0653 37.7955 34.0784 37.6918 34.0783Z" fill="#6D6E70"/>
<path d="M36.4415 24.836L38.3324 32.6244L37.692 32.7802L35.8011 24.9918L36.4415 24.836ZM36.4415 22.2399C36.2345 22.2406 36.0284 22.2653 35.8271 22.3134L35.1867 22.4692C34.8555 22.5499 34.5433 22.695 34.2681 22.8963C33.9929 23.0976 33.7601 23.3511 33.583 23.6424C33.4058 23.9337 33.2876 24.2572 33.2354 24.5941C33.1832 24.931 33.198 25.2749 33.2787 25.6062L35.1694 33.3946C35.2509 33.7257 35.3968 34.0375 35.5987 34.3122C35.8007 34.5869 36.0547 34.819 36.3464 34.9955C36.7511 35.2446 37.2169 35.3765 37.692 35.3764C37.899 35.3759 38.1052 35.3511 38.3064 35.3027L38.9468 35.147C39.2781 35.0664 39.5902 34.9212 39.8654 34.7199C40.1406 34.5186 40.3736 34.265 40.5508 33.9737C40.728 33.6824 40.8459 33.3591 40.8981 33.0221C40.9503 32.6852 40.9357 32.3413 40.855 32.01L38.9641 24.2216C38.8264 23.6564 38.5029 23.1538 38.0455 22.7945C37.5881 22.4351 37.0232 22.2398 36.4415 22.2399Z" fill="#390075"/>
<path fill-rule="evenodd" clip-rule="evenodd" d="M38.9249 33.7755C38.6867 33.7752 38.4532 33.7093 38.2499 33.5851C38.1041 33.4969 37.9771 33.3807 37.8762 33.2434C37.7752 33.106 37.7022 32.9502 37.6615 32.7847L35.7706 24.9963C35.73 24.8304 35.7226 24.658 35.7487 24.4891C35.7747 24.3203 35.8339 24.1583 35.9227 24.0124C36.0116 23.8665 36.1283 23.7396 36.2663 23.6389C36.4043 23.5382 36.5608 23.4657 36.7268 23.4256L37.363 23.2698C37.464 23.2478 37.5669 23.2363 37.6702 23.2352C37.9614 23.2347 38.2443 23.3322 38.4735 23.5119C38.7026 23.6916 38.8647 23.9432 38.9336 24.2261L40.8245 32.0145C40.9054 32.3484 40.8506 32.7008 40.6722 32.9944C40.4937 33.288 40.2062 33.4988 39.8725 33.5808L39.2321 33.7366C39.1318 33.7626 39.0286 33.7756 38.9249 33.7755Z" fill="#6D6E70"/>
<path d="M37.6876 24.5506L39.5828 32.339L38.9424 32.4948L37.0473 24.7064L37.6876 24.5506ZM37.6876 21.9545C37.4806 21.9533 37.2742 21.978 37.0732 22.028L36.4329 22.1838C36.1012 22.264 35.7884 22.4088 35.5128 22.6099C35.2371 22.811 35.0038 23.0644 34.8261 23.3558C34.6485 23.6471 34.5302 23.9707 34.4777 24.3079C34.4252 24.6451 34.4396 24.9893 34.5202 25.3208L36.4155 33.1092C36.5522 33.6745 36.8746 34.1774 37.3312 34.5376C37.7878 34.8977 38.3522 35.0941 38.9337 35.0952C39.1424 35.0946 39.3503 35.0685 39.5525 35.0174L40.1929 34.8659C40.5242 34.7852 40.8363 34.6401 41.1115 34.4388C41.3867 34.2375 41.6195 33.984 41.7967 33.6927C41.9739 33.4014 42.092 33.078 42.1442 32.7411C42.1965 32.4042 42.1816 32.0602 42.1009 31.7289L40.2058 23.9405C40.0683 23.376 39.7454 22.8741 39.2889 22.5148C38.8323 22.1555 38.2686 21.9598 37.6876 21.9588V21.9545Z" fill="#390075"/>
<path fill-rule="evenodd" clip-rule="evenodd" d="M40.1884 33.4899C39.8979 33.4894 39.6159 33.3916 39.3876 33.212C39.1594 33.0323 38.9979 32.7813 38.9292 32.499L37.0341 24.7323C36.9934 24.5664 36.986 24.3941 37.0121 24.2252C37.0382 24.0564 37.0973 23.8943 37.1862 23.7484C37.275 23.6025 37.3917 23.4756 37.5297 23.3749C37.6677 23.2742 37.8242 23.2017 37.9903 23.1616L38.6264 23.0059C38.7924 22.9652 38.9647 22.9577 39.1335 22.9838C39.3023 23.0099 39.4644 23.069 39.6103 23.1579C39.7562 23.2467 39.8832 23.3635 39.9839 23.5015C40.0846 23.6395 40.157 23.796 40.197 23.9621L42.0922 31.7505C42.1328 31.9164 42.1404 32.0887 42.1143 32.2575C42.0883 32.4264 42.0291 32.5885 41.9403 32.7344C41.8514 32.8803 41.7345 33.0072 41.5965 33.1079C41.4585 33.2086 41.302 33.2811 41.1359 33.3212L40.4956 33.4769C40.3941 33.494 40.2909 33.4983 40.1884 33.4899Z" fill="#6D6E70"/>
<path d="M38.9252 24.2476L40.8161 32.036L40.1757 32.1919L38.2848 24.4251L38.9252 24.2693M38.9252 21.6732C38.7167 21.6717 38.5088 21.6965 38.3064 21.7468L37.6704 21.9025C37.3392 21.9832 37.027 22.1283 36.7518 22.3296C36.4766 22.5309 36.2439 22.7845 36.0667 23.0758C35.8895 23.3671 35.7713 23.6904 35.7191 24.0274C35.6669 24.3643 35.6815 24.7082 35.7622 25.0395L37.6531 32.8062C37.7908 33.3714 38.1143 33.874 38.5717 34.2334C39.0292 34.5927 39.594 34.788 40.1757 34.788C40.3828 34.7889 40.5891 34.7642 40.7901 34.7145L41.4305 34.5587C41.7618 34.478 42.0739 34.3329 42.3491 34.1316C42.6243 33.9303 42.8571 33.6768 43.0343 33.3854C43.2115 33.0941 43.3296 32.7707 43.3818 32.4338C43.434 32.0968 43.4194 31.7529 43.3387 31.4217L41.4478 23.6333C41.3669 23.3014 41.2213 22.9888 41.0194 22.7134C40.8174 22.4379 40.5629 22.205 40.2708 22.028C39.8658 21.7802 39.4 21.6499 38.9252 21.6515V21.6732Z" fill="#390075"/>
<path fill-rule="evenodd" clip-rule="evenodd" d="M41.4391 33.1654C41.1479 33.1659 40.865 33.0685 40.6359 32.8888C40.4067 32.709 40.2446 32.4575 40.1757 32.1745L38.2848 24.3861C38.2039 24.0522 38.2587 23.6999 38.4371 23.4062C38.6156 23.1126 38.9031 22.9018 39.2368 22.8199L39.8772 22.664C39.9776 22.6383 40.0807 22.6252 40.1844 22.6251C40.4226 22.6254 40.6561 22.6913 40.8594 22.8155C41.0052 22.9038 41.1322 23.0198 41.2331 23.1572C41.3341 23.2945 41.4071 23.4504 41.4478 23.6159L43.3387 31.4043C43.3794 31.57 43.3869 31.7421 43.3611 31.9107C43.3353 32.0793 43.2767 32.2411 43.1883 32.387C43.0999 32.5328 42.9835 32.6598 42.846 32.7607C42.7085 32.8616 42.5524 32.9345 42.3867 32.9751L41.7463 33.1308C41.6454 33.1527 41.5424 33.1644 41.4391 33.1654Z" fill="#6D6E70"/>
<path d="M40.1843 23.9404L42.0794 31.7288L41.439 31.8847L39.5439 24.0962L40.1843 23.9404ZM40.1843 21.3443C39.9759 21.3455 39.7683 21.3703 39.5655 21.4179L38.9251 21.5736C38.5938 21.6543 38.2817 21.7994 38.0065 22.0007C37.7313 22.202 37.4985 22.4556 37.3213 22.7469C37.1441 23.0383 37.026 23.3616 36.9738 23.6985C36.9215 24.0355 36.9361 24.3794 37.0169 24.7106L38.9122 32.499C39.0497 33.0635 39.3724 33.5655 39.8289 33.9248C40.2855 34.2841 40.8494 34.4799 41.4304 34.4808C41.6389 34.4817 41.8467 34.457 42.0492 34.4073L42.6851 34.2514C43.0168 34.1713 43.3293 34.0264 43.605 33.8253C43.8807 33.6242 44.114 33.3708 44.2917 33.0794C44.4693 32.7881 44.5878 32.4646 44.6403 32.1274C44.6928 31.7902 44.6782 31.446 44.5976 31.1145L42.7025 23.326C42.565 22.7616 42.2421 22.2595 41.7855 21.9003C41.329 21.541 40.7652 21.3452 40.1843 21.3443Z" fill="#390075"/>
<path fill-rule="evenodd" clip-rule="evenodd" d="M42.685 32.8625C42.4468 32.8622 42.2132 32.7963 42.01 32.6721C41.7171 32.4931 41.507 32.2052 41.4258 31.8716L39.5307 24.0832C39.4499 23.7487 39.5052 23.3958 39.6845 23.1021C39.8638 22.8083 40.1525 22.5978 40.4869 22.5168L41.1231 22.3611C41.2886 22.3192 41.4607 22.3109 41.6295 22.3369C41.7982 22.3629 41.9601 22.4226 42.1053 22.5125C42.2511 22.6008 42.378 22.7169 42.479 22.8542C42.58 22.9916 42.6529 23.1475 42.6937 23.313L44.5846 31.1014C44.6655 31.4353 44.6107 31.7877 44.4322 32.0813C44.2538 32.3749 43.9662 32.5859 43.6326 32.6678L42.9922 32.8235C42.8919 32.8495 42.7886 32.8626 42.685 32.8625Z" fill="#6D6E70"/>
<path d="M41.4342 23.6377L43.3251 31.4261L42.6847 31.5819L40.7938 23.7935L41.4342 23.6377ZM41.4342 21.0416C41.2258 21.0423 41.0183 21.0669 40.8156 21.1151L40.1794 21.2709C39.8481 21.3516 39.536 21.4967 39.2608 21.698C38.9856 21.8993 38.7528 22.1529 38.5756 22.4442C38.3984 22.7355 38.2803 23.0589 38.2281 23.3958C38.1759 23.7327 38.1907 24.0766 38.2714 24.4079L40.1621 32.1963C40.2998 32.7615 40.6233 33.264 41.0807 33.6234C41.5381 33.9827 42.103 34.1781 42.6847 34.1781C42.8916 34.1768 43.0977 34.1521 43.2991 34.1044L43.9395 33.9487C44.2707 33.868 44.5829 33.7229 44.8581 33.5216C45.1333 33.3203 45.3663 33.0667 45.5434 32.7754C45.7206 32.4841 45.8386 32.1608 45.8908 31.8238C45.943 31.4869 45.9284 31.143 45.8477 30.8117L43.9568 23.0233C43.8191 22.4581 43.4956 21.9555 43.0382 21.5962C42.5807 21.2368 42.0159 21.0415 41.4342 21.0416Z" fill="#390075"/>
<path fill-rule="evenodd" clip-rule="evenodd" d="M43.9358 32.5554C43.698 32.5564 43.4645 32.492 43.2607 32.3693C43.1145 32.2806 42.9871 32.1638 42.8862 32.0257C42.7852 31.8875 42.7125 31.7309 42.6723 31.5646L40.7814 23.7762C40.7407 23.6105 40.733 23.4384 40.7588 23.2698C40.7846 23.1012 40.8435 22.9394 40.9319 22.7935C41.0203 22.6476 41.1366 22.5207 41.2741 22.4198C41.4117 22.3189 41.5678 22.246 41.7334 22.2054L42.3738 22.0497C42.4748 22.0278 42.5777 22.0161 42.681 22.0151C42.9722 22.0146 43.2551 22.112 43.4843 22.2917C43.7134 22.4715 43.8755 22.723 43.9444 23.006L45.8353 30.7727C45.876 30.9386 45.8834 31.1109 45.8573 31.2798C45.8312 31.4486 45.772 31.6107 45.6832 31.7566C45.5944 31.9025 45.4777 32.0294 45.3397 32.1301C45.2017 32.2308 45.045 32.3033 44.8789 32.3434L44.243 32.4991C44.1433 32.5305 44.0401 32.5495 43.9358 32.5554Z" fill="#6D6E70"/>
<path d="M42.6809 23.3347L44.5716 31.1015L43.9356 31.2616L42.0405 23.4732L42.6809 23.3174M42.6809 20.7213C42.4724 20.7204 42.2645 20.745 42.0621 20.7948L41.4217 20.9506C40.7538 21.1141 40.178 21.5357 39.8207 22.1232C39.6429 22.4144 39.5243 22.7378 39.4716 23.0749C39.4189 23.4119 39.4331 23.7561 39.5135 24.0876L41.4088 31.876C41.5465 32.4412 41.8698 32.9437 42.3272 33.3031C42.7846 33.6624 43.3495 33.8578 43.9312 33.8578C44.1384 33.8574 44.345 33.8312 44.5458 33.7798L45.1862 33.6241C45.8544 33.4602 46.4302 33.0377 46.7872 32.4495C47.1442 31.8613 47.2531 31.1555 47.09 30.4871L45.1991 22.7204C45.0616 22.1559 44.7387 21.6538 44.2821 21.2946C43.8256 20.9353 43.2618 20.7395 42.6809 20.7386V20.7213Z" fill="#390075"/>
</g>
<path fill-rule="evenodd" clip-rule="evenodd" d="M96.1306 62.8696C95.6316 62.9008 95.1338 62.7937 94.6918 62.5601C94.2498 62.3265 93.8806 61.9755 93.6253 61.5457L88.5887 52.1606C87.7753 50.6418 88.8398 48.5996 91.0638 47.401C91.912 46.9283 92.8622 46.6684 93.833 46.6438C95.0055 46.6438 95.9401 47.1241 96.3944 47.9679L101.427 57.3529C101.642 57.8049 101.729 58.3074 101.679 58.8056C101.628 59.3037 101.442 59.7785 101.141 60.1783C100.578 60.9733 99.8402 61.6288 98.9844 62.0946C98.1287 62.5603 97.1775 62.824 96.2041 62.8653L96.1306 62.8696Z" fill="#929497"/>
<path d="M93.8329 47.9503C94.1047 47.9184 94.3801 47.9612 94.6294 48.074C94.8787 48.1869 95.0924 48.3655 95.2478 48.5907L100.284 57.9758C100.717 58.8152 99.8517 60.1392 98.3373 60.9743C97.685 61.3436 96.9531 61.5499 96.204 61.5757H96.1521C95.8849 61.6048 95.6149 61.5605 95.371 61.4477C95.1271 61.3348 94.9185 61.1577 94.7676 60.9353L89.7355 51.5503C89.3028 50.7152 90.1682 49.3869 91.6739 48.5561C92.3363 48.1849 93.0784 47.9785 93.8374 47.9547M93.8374 45.3585C92.6519 45.3785 91.4896 45.6907 90.4536 46.2672C89.3846 46.824 88.4703 47.6372 87.7926 48.634C86.9013 50.01 86.7758 51.5201 87.4508 52.7792L92.4829 62.1642C93.1622 63.432 94.495 64.1632 96.1392 64.1718H96.2085C97.3867 64.149 98.5412 63.837 99.5705 63.2632C102.448 61.7185 103.737 58.9363 102.573 56.7469L97.5412 47.3619C96.8575 46.0855 95.5075 45.3542 93.8374 45.3542V45.3585Z" fill="#390075"/>
<mask id="mask2_83_5796" style="mask-type:luminance" maskUnits="userSpaceOnUse" x="89" y="47" width="12" height="15">
<path d="M91.6735 48.5524C90.1548 49.3702 89.2851 50.7158 89.7351 51.5466L94.7672 60.9316C94.9188 61.1533 95.1275 61.3299 95.3713 61.4427C95.615 61.5554 95.8846 61.6001 96.1517 61.572C96.9186 61.5595 97.6702 61.3542 98.3369 60.9749C99.8643 60.1571 100.734 58.8115 100.28 57.9764L95.2474 48.5913C94.7975 47.7692 93.2009 47.7347 91.6735 48.5524Z" fill="white"/>
</mask>
<g mask="url(#mask2_83_5796)">
<path fill-rule="evenodd" clip-rule="evenodd" d="M94.7628 63.8561C94.528 63.8555 94.2978 63.7913 94.0966 63.6701C93.8955 63.549 93.731 63.3755 93.6206 63.1682L93.309 62.5927C93.2278 62.4425 93.1771 62.2777 93.1596 62.1078C93.1422 61.9379 93.1583 61.7662 93.2074 61.6026C93.2564 61.439 93.3373 61.2868 93.4453 61.1545C93.5533 61.0222 93.6865 60.9124 93.837 60.8316L100.885 57.0543C101.074 56.9524 101.285 56.8989 101.5 56.8986C101.627 56.8981 101.754 56.917 101.876 56.9548C102.205 57.0545 102.48 57.28 102.642 57.5821L102.954 58.162C103.116 58.465 103.152 58.8202 103.053 59.1496C102.954 59.479 102.728 59.7556 102.426 59.9187L95.3774 63.7004C95.1886 63.8023 94.9773 63.8558 94.7628 63.8561Z" fill="#6D6E70"/>
<path d="M101.5 58.1966L101.811 58.7763L94.7628 62.558L94.4514 61.974L101.5 58.1966ZM101.5 55.6005C101.073 55.6006 100.652 55.7061 100.275 55.9077L93.231 59.6894C92.624 60.0142 92.171 60.5668 91.9714 61.2256C91.7718 61.8845 91.842 62.5957 92.1666 63.2027L92.4783 63.7826C92.7003 64.1976 93.031 64.5445 93.4349 64.7861C93.8389 65.0277 94.3008 65.1549 94.7714 65.1542C95.199 65.1528 95.6197 65.0458 95.996 64.8427L103.04 61.0653C103.341 60.9041 103.607 60.6852 103.823 60.4211C104.039 60.157 104.201 59.8529 104.299 59.5262C104.398 59.1994 104.431 58.8565 104.397 58.517C104.363 58.1775 104.262 57.8481 104.1 57.5476L103.793 56.9677C103.57 56.5535 103.24 56.2075 102.836 55.9667C102.432 55.7259 101.97 55.5993 101.5 55.6005Z" fill="#390075"/>
<path fill-rule="evenodd" clip-rule="evenodd" d="M94.1567 62.7228C94.0291 62.7235 93.9021 62.7044 93.7803 62.6665C93.452 62.5698 93.1753 62.3474 93.0102 62.0477L92.6985 61.4679C92.6175 61.3174 92.5671 61.1525 92.55 60.9824C92.5329 60.8123 92.5494 60.6404 92.5988 60.4768C92.6483 60.3132 92.7295 60.1609 92.838 60.0288C92.9464 59.8967 93.0799 59.7873 93.2307 59.7069L100.279 55.9296C100.467 55.8284 100.676 55.7748 100.889 55.7737C101.125 55.7732 101.356 55.8365 101.557 55.9569C101.759 56.0773 101.925 56.2503 102.036 56.4574L102.348 57.0372C102.429 57.1877 102.479 57.3527 102.496 57.5228C102.513 57.6929 102.497 57.8646 102.447 58.0283C102.398 58.1919 102.317 58.3441 102.208 58.4763C102.1 58.6084 101.966 58.7178 101.815 58.7982L94.7711 62.5756C94.5816 62.6745 94.3705 62.7251 94.1567 62.7228Z" fill="#6D6E70"/>
<path d="M100.894 57.0629L101.201 57.6428L94.1569 61.4245L93.8455 60.8446L100.894 57.0629ZM100.894 54.4668C100.466 54.4664 100.045 54.5735 99.6694 54.7783L92.6209 58.5557C92.0146 58.8812 91.5624 59.4342 91.3636 60.093C91.1648 60.7518 91.2357 61.4626 91.5607 62.0692L91.8724 62.6489C92.1972 63.2556 92.7497 63.7086 93.4083 63.9081C93.6525 63.982 93.9062 64.0199 94.1613 64.0206C94.5885 64.0205 95.0092 63.915 95.3859 63.7134L102.434 59.9317C103.04 59.6062 103.493 59.0532 103.691 58.3944C103.89 57.7356 103.819 57.0248 103.494 56.4182L103.183 55.8384C102.961 55.424 102.631 55.0776 102.228 54.836C101.825 54.5944 101.364 54.4668 100.894 54.4668Z" fill="#390075"/>
<path fill-rule="evenodd" clip-rule="evenodd" d="M93.5513 61.589C93.3162 61.5896 93.0854 61.5264 92.8835 61.406C92.6815 61.2856 92.516 61.1126 92.4047 60.9055L92.0931 60.3256C91.9307 60.0221 91.8957 59.6665 91.9955 59.3371C92.0953 59.0076 92.3218 58.7313 92.6253 58.5689L99.6696 54.7872C99.8592 54.6879 100.07 54.6361 100.284 54.6358C100.411 54.6357 100.538 54.6531 100.66 54.6877C100.824 54.7371 100.976 54.8183 101.109 54.9267C101.241 55.0351 101.35 55.1686 101.431 55.3194L101.742 55.8992C101.905 56.2028 101.94 56.5583 101.84 56.8878C101.74 57.2172 101.513 57.4936 101.21 57.656L94.1615 61.4377C93.9736 61.5374 93.764 61.5893 93.5513 61.589Z" fill="#6D6E70"/>
<path d="M100.284 55.9339L100.595 56.5136L93.5469 60.291L93.2353 59.7112L100.284 55.9339ZM100.284 53.3377C99.8563 53.3356 99.4352 53.4413 99.0593 53.6449L92.0108 57.4223C91.71 57.5835 91.4441 57.8024 91.228 58.0665C91.0119 58.3306 90.85 58.6347 90.7516 58.9614C90.6531 59.2881 90.62 59.6311 90.6542 59.9706C90.6884 60.3101 90.7892 60.6395 90.9508 60.94L91.2622 61.5199C91.5878 62.1261 92.1406 62.5783 92.7994 62.777C93.4583 62.9758 94.1692 62.9049 94.7757 62.5799L101.824 58.7982C102.43 58.4727 102.883 57.9197 103.082 57.2609C103.28 56.6021 103.209 55.8914 102.884 55.2848L102.573 54.705C102.351 54.2914 102.02 53.9458 101.617 53.705C101.214 53.4643 100.753 53.3374 100.284 53.3377Z" fill="#390075"/>
<path fill-rule="evenodd" clip-rule="evenodd" d="M92.941 60.4598C92.7061 60.4591 92.476 60.3948 92.2748 60.2736C92.0737 60.1525 91.9092 59.979 91.7988 59.7717L91.4872 59.1919C91.3245 58.8889 91.2887 58.5338 91.3877 58.2044C91.4866 57.875 91.7124 57.5984 92.0152 57.4353L99.0637 53.6579C99.2525 53.556 99.4635 53.5024 99.6781 53.5021C99.8057 53.5016 99.9324 53.5206 100.054 53.5583C100.382 53.658 100.658 53.8837 100.82 54.1858L101.132 54.7655C101.295 55.0685 101.33 55.4237 101.231 55.7531C101.132 56.0825 100.907 56.3591 100.604 56.5222L93.5553 60.3039C93.3666 60.4058 93.1555 60.4594 92.941 60.4598Z" fill="#6D6E70"/>
<path d="M99.6778 54.8002L99.9893 55.3801L92.9407 59.1618L92.6293 58.5819L99.6778 54.8002ZM99.6778 52.2041C99.2491 52.2035 98.8268 52.309 98.4489 52.5113L91.4048 56.293C90.7978 56.6178 90.3446 57.1704 90.1449 57.8293C89.9453 58.4881 90.0157 59.1994 90.3404 59.8065L90.6518 60.3862C90.8734 60.8006 91.2034 61.147 91.6065 61.3886C92.0096 61.6301 92.4708 61.7578 92.9407 61.7579C93.37 61.7585 93.7926 61.6514 94.1697 61.4464L101.214 57.6689C101.821 57.3441 102.274 56.7915 102.474 56.1326C102.673 55.4737 102.603 54.7626 102.278 54.1555L101.967 53.5757C101.805 53.2748 101.586 53.0087 101.322 52.7927C101.058 52.5766 100.753 52.4149 100.426 52.3166C100.184 52.2406 99.9317 52.2026 99.6778 52.2041Z" fill="#390075"/>
<path fill-rule="evenodd" clip-rule="evenodd" d="M92.3355 59.3261C92.1004 59.3267 91.8696 59.2634 91.6677 59.143C91.4657 59.0226 91.3002 58.8495 91.1889 58.6424L90.8817 58.0627C90.719 57.7597 90.6832 57.4044 90.7822 57.0751C90.8812 56.7457 91.1067 56.4691 91.4095 56.3059L98.458 52.5242C98.6468 52.4223 98.8579 52.3688 99.0724 52.3684C99.1984 52.3698 99.3238 52.3888 99.4446 52.4247C99.6083 52.4741 99.7606 52.5554 99.8928 52.6638C100.025 52.7722 100.134 52.9056 100.215 53.0564L100.526 53.6363C100.689 53.9398 100.724 54.2954 100.624 54.6248C100.524 54.9543 100.298 55.2306 99.9942 55.393L92.9499 59.1704C92.7615 59.2733 92.5502 59.3268 92.3355 59.3261Z" fill="#6D6E70"/>
<path d="M99.068 53.6664L99.3752 54.2463L92.3312 58.028L92.0195 57.4483L99.068 53.6664ZM99.068 51.0703C98.6388 51.0697 98.2164 51.177 97.8393 51.3819L90.7908 55.1593C90.49 55.3205 90.2239 55.5394 90.0078 55.8035C89.7917 56.0676 89.6298 56.3717 89.5313 56.6984C89.4329 57.0252 89.3998 57.3681 89.434 57.7076C89.4681 58.0471 89.569 58.3765 89.7306 58.677L90.0422 59.2569C90.3678 59.8631 90.9206 60.3153 91.5794 60.5141C92.2382 60.7128 92.9489 60.642 93.5555 60.3169L100.604 56.5352C101.21 56.2097 101.663 55.6567 101.861 54.9979C102.06 54.3391 101.989 53.6283 101.664 53.0217L101.353 52.442C101.028 51.8353 100.475 51.3823 99.8166 51.1828C99.5739 51.1089 99.3217 51.071 99.068 51.0703Z" fill="#390075"/>
<path fill-rule="evenodd" clip-rule="evenodd" d="M91.7123 58.1923C91.5864 58.1924 91.4613 58.1748 91.3402 58.1403C91.1766 58.0909 91.0243 58.0097 90.8921 57.9013C90.76 57.7929 90.6504 57.6595 90.5699 57.5086L90.2585 56.9288C90.0962 56.6252 90.0609 56.2697 90.1607 55.9402C90.2605 55.6108 90.4872 55.3346 90.7907 55.1721L97.8348 51.3904C98.024 51.2901 98.235 51.238 98.4492 51.239C98.6843 51.2384 98.9153 51.3016 99.1172 51.422C99.3192 51.5424 99.4847 51.7155 99.596 51.9226L99.9074 52.5024C100.068 52.8057 100.103 53.1604 100.003 53.4889C99.9039 53.8187 99.6782 54.0957 99.3752 54.2591L92.3267 58.0408C92.1371 58.1401 91.9263 58.1921 91.7123 58.1923Z" fill="#6D6E70"/>
<path d="M98.4623 52.5286L98.7738 53.1084L91.7252 56.8858L91.418 56.3059L98.4623 52.5286ZM98.4623 49.9324C98.0351 49.9325 97.6145 50.038 97.2378 50.2396L90.1893 54.0213C89.583 54.3469 89.1308 54.8999 88.932 55.5587C88.7332 56.2175 88.8041 56.9283 89.1291 57.5348L89.4407 58.1145C89.7663 58.7208 90.3191 59.1731 90.978 59.3718C91.6368 59.5706 92.3477 59.4997 92.9542 59.1747L100.003 55.3972C100.303 55.2361 100.569 55.0172 100.786 54.7531C101.002 54.489 101.163 54.1849 101.262 53.8582C101.36 53.5315 101.394 53.1886 101.359 52.8491C101.325 52.5096 101.224 52.1801 101.063 51.8795L100.751 51.2997C100.529 50.8861 100.199 50.5406 99.7957 50.2998C99.3926 50.0591 98.9318 49.9321 98.4623 49.9324Z" fill="#390075"/>
<path fill-rule="evenodd" clip-rule="evenodd" d="M91.1194 57.0629C90.9918 57.0633 90.8648 57.0444 90.7429 57.0067C90.414 56.9059 90.1388 56.6786 89.9773 56.3749L89.6656 55.7952C89.503 55.4921 89.4672 55.1369 89.5661 54.8076C89.6651 54.4782 89.8909 54.2016 90.1936 54.0384L97.2419 50.261C97.4307 50.1591 97.642 50.1056 97.8565 50.1052C97.9841 50.1048 98.1109 50.1238 98.2328 50.1615C98.561 50.2613 98.8363 50.4868 98.9987 50.7889L99.3103 51.3731C99.473 51.6761 99.5088 52.0312 99.4098 52.3606C99.3108 52.69 99.0851 52.9666 98.7823 53.1297L91.7338 56.9072C91.545 57.0091 91.334 57.0626 91.1194 57.0629Z" fill="#6D6E70"/>
<path d="M97.8568 51.4033L98.1682 51.9832L91.1197 55.7649L90.8083 55.185L97.8568 51.4033ZM97.8568 48.8072C97.4281 48.8066 97.0058 48.9122 96.6278 49.1145L89.5837 52.8962C88.9767 53.221 88.5235 53.7736 88.3239 54.4325C88.1243 55.0913 88.1946 55.8025 88.5193 56.4096L88.8307 56.9894C89.0524 57.4038 89.3824 57.7502 89.7855 57.9918C90.1886 58.2334 90.6497 58.3609 91.1197 58.361C91.5489 58.3616 91.9716 58.2545 92.3487 58.0495L99.3928 54.2721C99.9998 53.9473 100.453 53.3947 100.653 52.7358C100.852 52.077 100.782 51.3657 100.457 50.7586L100.146 50.1789C99.9241 49.7645 99.5941 49.4181 99.191 49.1765C98.7879 48.9349 98.3267 48.8072 97.8568 48.8072Z" fill="#390075"/>
<path fill-rule="evenodd" clip-rule="evenodd" d="M90.5135 55.9294C90.2783 55.93 90.0476 55.8666 89.8456 55.7462C89.6437 55.6258 89.4782 55.4528 89.3669 55.2457L89.0597 54.6659C88.897 54.3629 88.8612 54.0078 88.9602 53.6784C89.0592 53.349 89.2847 53.0723 89.5875 52.9091L96.636 49.1274C96.8248 49.0256 97.0358 48.9721 97.2504 48.9717C97.3764 48.9731 97.5018 48.992 97.6226 49.0279C97.7863 49.0773 97.9386 49.1586 98.0707 49.267C98.2029 49.3754 98.3123 49.5089 98.3927 49.6598L98.7043 50.2395C98.8667 50.543 98.9018 50.8986 98.802 51.228C98.7022 51.5575 98.4757 51.8338 98.1721 51.9962L91.1279 55.7779C90.9387 55.8783 90.7276 55.9304 90.5135 55.9294Z" fill="#6D6E70"/>
<path d="M97.2507 50.2698L97.5579 50.8539L90.5138 54.6314L90.2022 54.0515L97.2507 50.2698ZM97.2507 47.6737C96.8216 47.6744 96.3995 47.7814 96.0219 47.9852L88.9734 51.7626C88.6726 51.9238 88.4067 52.1427 88.1906 52.4068C87.9745 52.6709 87.8127 52.975 87.7142 53.3017C87.6158 53.6284 87.5826 53.9714 87.6168 54.3109C87.651 54.6504 87.7518 54.9799 87.9134 55.2804L88.2249 55.8602C88.5504 56.4664 89.1033 56.9187 89.7621 57.1174C90.4209 57.3162 91.1318 57.2452 91.7383 56.9202L98.7869 53.1385C99.3931 52.813 99.8454 52.2601 100.044 51.6013C100.243 50.9425 100.172 50.2317 99.8468 49.6251L99.5396 49.0453C99.318 48.6309 98.988 48.2845 98.5849 48.0429C98.1818 47.8013 97.7206 47.6738 97.2507 47.6737Z" fill="#390075"/>
<path fill-rule="evenodd" clip-rule="evenodd" d="M89.9081 54.8002C89.6725 54.8003 89.4414 54.7364 89.2394 54.6152C89.0374 54.494 88.8722 54.3201 88.7615 54.1121L88.4499 53.5324C88.2875 53.2297 88.2517 52.8749 88.3504 52.5459C88.3998 52.3822 88.4809 52.2299 88.5893 52.0978C88.6977 51.9656 88.8312 51.8561 88.9821 51.7757L96.0264 47.994C96.2155 47.8936 96.4266 47.8415 96.6408 47.8425C96.8759 47.8419 97.1066 47.9052 97.3086 48.0257C97.5105 48.1461 97.676 48.319 97.7873 48.5262L98.0988 49.106C98.179 49.2568 98.2288 49.4219 98.2452 49.5919C98.2615 49.762 98.2441 49.9335 98.194 50.0968C98.0943 50.4249 97.8687 50.7003 97.5666 50.8626L90.5182 54.6443C90.3307 54.7455 90.1212 54.7991 89.9081 54.8002Z" fill="#6D6E70"/>
<path d="M96.6406 49.1406L96.952 49.7204L89.9035 53.5021L89.592 52.9179L96.6406 49.1406ZM96.6406 46.5444C96.2133 46.5445 95.7927 46.65 95.416 46.8516L88.3675 50.6334C87.7612 50.959 87.309 51.5119 87.1102 52.1707C86.9114 52.8295 86.9823 53.5403 87.3073 54.1468L87.6189 54.7267C87.8406 55.141 88.1706 55.4875 88.5737 55.729C88.9768 55.9706 89.4379 56.0982 89.9079 56.0982C90.3357 56.0986 90.7568 55.9915 91.1324 55.7867L98.181 52.0094C98.4817 51.8482 98.7476 51.6293 98.9637 51.3652C99.1798 51.1011 99.3417 50.7969 99.4401 50.4702C99.5386 50.1435 99.5717 49.8006 99.5375 49.4611C99.5034 49.1216 99.4025 48.7921 99.2409 48.4915L98.9295 47.9118C98.7073 47.4982 98.377 47.1526 97.9739 46.9118C97.5708 46.6711 97.1101 46.5441 96.6406 46.5444Z" fill="#390075"/>
<path fill-rule="evenodd" clip-rule="evenodd" d="M89.2979 53.6664C89.0635 53.6662 88.8335 53.6025 88.6324 53.4821C88.4313 53.3618 88.2665 53.1893 88.1556 52.9828L87.8442 52.403C87.7629 52.2527 87.7122 52.088 87.6948 51.9181C87.6774 51.7482 87.6935 51.5765 87.7425 51.4129C87.7916 51.2493 87.8724 51.097 87.9804 50.9647C88.0884 50.8324 88.2214 50.7227 88.3719 50.6419L95.4204 46.8645C95.6092 46.7626 95.8205 46.7092 96.035 46.7088C96.2699 46.7094 96.5 46.7737 96.7012 46.8948C96.9023 47.016 97.0668 47.1894 97.1772 47.3967L97.4888 47.9722C97.57 48.1225 97.6208 48.2873 97.6382 48.4572C97.6556 48.6271 97.6393 48.7988 97.5902 48.9624C97.5412 49.126 97.4603 49.2782 97.3523 49.4105C97.2443 49.5428 97.1113 49.6525 96.9608 49.7333L89.9123 53.5107C89.7235 53.6126 89.5125 53.666 89.2979 53.6664Z" fill="#6D6E70"/>
<path d="M96.0389 48.0068L96.3506 48.5866L89.3021 52.3683L88.9904 51.7885L96.0389 48.0068ZM96.0389 45.4107C95.6097 45.4101 95.1873 45.5172 94.8102 45.7222L87.7659 49.4996C87.4651 49.6608 87.1992 49.8797 86.9831 50.1438C86.767 50.4079 86.6051 50.712 86.5067 51.0387C86.4082 51.3654 86.3751 51.7084 86.4093 52.0479C86.4435 52.3874 86.5443 52.7168 86.7059 53.0173L87.0173 53.5972C87.3429 54.2034 87.896 54.6557 88.5548 54.8544C89.2136 55.0532 89.9243 54.9822 90.5308 54.6572L97.5749 50.8755C98.1819 50.5507 98.6351 49.9981 98.8347 49.3392C99.0343 48.6804 98.964 47.9692 98.6393 47.3621L98.3279 46.7823C98.1062 46.3679 97.7763 46.0215 97.3731 45.7799C96.97 45.5383 96.5089 45.4108 96.0389 45.4107Z" fill="#390075"/>
<path fill-rule="evenodd" clip-rule="evenodd" d="M88.6834 52.5283C88.4483 52.5289 88.2175 52.4656 88.0156 52.3451C87.8136 52.2247 87.6481 52.0518 87.5368 51.8446L87.2296 51.2649C87.0669 50.9619 87.0311 50.6067 87.1301 50.2773C87.2291 49.9479 87.4546 49.6713 87.7574 49.5082L94.8059 45.7265C95.1094 45.5641 95.465 45.5289 95.7944 45.6287C96.1239 45.7286 96.4002 45.9552 96.5626 46.2587L96.8743 46.8385C97.0366 47.142 97.0717 47.4976 96.9719 47.8271C96.8721 48.1565 96.6456 48.4327 96.3421 48.5951L89.2978 52.3768C89.1086 52.4772 88.8976 52.5293 88.6834 52.5283Z" fill="#6D6E70"/>
<path d="M95.429 46.8775L95.7406 47.4573L88.6834 51.2304L88.3718 50.6505L95.4203 46.8732M95.4203 44.277C94.9931 44.2771 94.5726 44.3826 94.196 44.5842L87.1474 48.3617C86.8467 48.5229 86.5805 48.7418 86.3645 49.0059C86.1484 49.27 85.9865 49.574 85.888 49.9007C85.7896 50.2274 85.7565 50.5704 85.7906 50.9099C85.8248 51.2494 85.9257 51.5789 86.0873 51.8794L86.3989 52.4593C86.7238 53.066 87.2762 53.5188 87.9349 53.7183C88.1793 53.7906 88.4328 53.827 88.6876 53.8265C89.1149 53.8264 89.5355 53.7209 89.9122 53.5193L96.9607 49.7376C97.567 49.4121 98.0192 48.8591 98.218 48.2003C98.4168 47.5415 98.3459 46.8307 98.0209 46.2241L97.7092 45.6444C97.487 45.2308 97.1569 44.8852 96.7539 44.6444C96.3508 44.4037 95.8898 44.2767 95.4203 44.277Z" fill="#390075"/>
</g>
</svg>
