<svg width="270" height="137" viewBox="0 0 270 137" fill="none" xmlns="http://www.w3.org/2000/svg">
<path d="M263.929 61.8978L261.621 43.0905L248.793 44.6646C226.26 32.8439 181.202 28.3137 130.459 34.5405C79.7154 40.7672 37.1218 56.053 18.0834 72.9749L5.28717 74.5452L7.59501 93.3525C10.5029 117.05 70.2444 129.4 141.033 120.714C211.822 112.027 266.847 85.6816 263.929 61.8978Z" fill="url(#paint0_linear_14_3597)"/>
<mask id="mask0_14_3597" style="mask-type:luminance" maskUnits="userSpaceOnUse" x="5" y="31" width="260" height="93">
<path d="M263.929 61.8978L261.621 43.0905L248.793 44.6646C226.26 32.8439 181.202 28.3137 130.459 34.5405C79.7154 40.7672 37.1218 56.053 18.0834 72.9749L5.28717 74.5452L7.59501 93.3525C10.5029 117.05 70.2444 129.4 141.033 120.714C211.822 112.027 266.847 85.6816 263.929 61.8978Z" fill="white"/>
</mask>
<g mask="url(#mask0_14_3597)">
<path d="M260.873 36.9937L257.154 37.4501L265.888 108.629L269.607 108.173L260.873 36.9937Z" fill="url(#paint1_radial_14_3597)"/>
<path d="M253.466 37.9025L249.747 38.3589L258.481 109.538L262.2 109.082L253.466 37.9025Z" fill="url(#paint2_radial_14_3597)"/>
<path d="M246.028 38.8154L242.309 39.2717L251.043 110.451L254.762 109.994L246.028 38.8154Z" fill="url(#paint3_radial_14_3597)"/>
<path d="M238.59 39.7281L234.871 40.1844L243.605 111.363L247.324 110.907L238.59 39.7281Z" fill="url(#paint4_radial_14_3597)"/>
<path d="M231.183 40.6369L227.464 41.0933L236.198 112.272L239.917 111.816L231.183 40.6369Z" fill="url(#paint5_radial_14_3597)"/>
<path d="M223.745 41.5496L220.026 42.006L228.76 113.185L232.479 112.729L223.745 41.5496Z" fill="url(#paint6_radial_14_3597)"/>
<path d="M216.307 42.4623L212.588 42.9187L221.322 114.098L225.041 113.641L216.307 42.4623Z" fill="url(#paint7_radial_14_3597)"/>
<path d="M208.869 43.3752L205.149 43.8315L213.884 115.011L217.603 114.554L208.869 43.3752Z" fill="url(#paint8_radial_14_3597)"/>
<path d="M201.462 44.2839L197.743 44.7402L206.477 115.919L210.196 115.463L201.462 44.2839Z" fill="url(#paint9_radial_14_3597)"/>
<path d="M194.024 45.1967L190.304 45.6531L199.039 116.832L202.758 116.376L194.024 45.1967Z" fill="url(#paint10_radial_14_3597)"/>
<path d="M186.585 46.1094L182.866 46.5658L191.601 117.745L195.32 117.288L186.585 46.1094Z" fill="url(#paint11_radial_14_3597)"/>
<path d="M179.147 47.0221L175.428 47.4785L184.162 118.658L187.881 118.201L179.147 47.0221Z" fill="url(#paint12_radial_14_3597)"/>
<path d="M171.741 47.931L168.021 48.3873L176.756 119.566L180.475 119.11L171.741 47.931Z" fill="url(#paint13_radial_14_3597)"/>
<path d="M164.302 48.8438L160.583 49.3002L169.318 120.479L173.037 120.023L164.302 48.8438Z" fill="url(#paint14_radial_14_3597)"/>
<path d="M156.864 49.7565L153.145 50.2129L161.88 121.392L165.599 120.936L156.864 49.7565Z" fill="url(#paint15_radial_14_3597)"/>
<path d="M149.426 50.6692L145.707 51.1256L154.441 122.305L158.16 121.848L149.426 50.6692Z" fill="url(#paint16_radial_14_3597)"/>
<path d="M142.019 51.5781L138.3 52.0344L147.035 123.213L150.754 122.757L142.019 51.5781Z" fill="url(#paint17_radial_14_3597)"/>
<path d="M134.581 52.4908L130.862 52.9471L139.596 124.126L143.316 123.67L134.581 52.4908Z" fill="url(#paint18_radial_14_3597)"/>
<path d="M127.143 53.4036L123.424 53.86L132.158 125.039L135.877 124.583L127.143 53.4036Z" fill="url(#paint19_radial_14_3597)"/>
<path d="M119.736 54.3127L116.017 54.769L124.752 125.948L128.471 125.492L119.736 54.3127Z" fill="url(#paint20_radial_14_3597)"/>
<path d="M112.298 55.2254L108.579 55.6818L117.313 126.861L121.033 126.404L112.298 55.2254Z" fill="url(#paint21_radial_14_3597)"/>
<path d="M104.86 56.1379L101.141 56.5942L109.875 127.773L113.594 127.317L104.86 56.1379Z" fill="url(#paint22_radial_14_3597)"/>
<path d="M97.4218 57.0506L93.7028 57.507L102.437 128.686L106.156 128.23L97.4218 57.0506Z" fill="url(#paint23_radial_14_3597)"/>
<path d="M90.0151 57.9596L86.296 58.416L95.0304 129.595L98.7495 129.139L90.0151 57.9596Z" fill="url(#paint24_radial_14_3597)"/>
<path d="M82.577 58.8725L78.8579 59.3289L87.5923 130.508L91.3114 130.052L82.577 58.8725Z" fill="url(#paint25_radial_14_3597)"/>
<path d="M75.1386 59.7852L71.4196 60.2416L80.1539 131.421L83.873 130.964L75.1386 59.7852Z" fill="url(#paint26_radial_14_3597)"/>
<path d="M67.7004 60.6977L63.9813 61.1541L72.7157 132.333L76.4348 131.877L67.7004 60.6977Z" fill="url(#paint27_radial_14_3597)"/>
<path d="M60.2939 61.6067L56.5748 62.0631L65.3092 133.242L69.0283 132.786L60.2939 61.6067Z" fill="url(#paint28_radial_14_3597)"/>
<path d="M52.8558 62.5195L49.1366 62.9758L57.871 134.155L61.5901 133.698L52.8558 62.5195Z" fill="url(#paint29_radial_14_3597)"/>
<path d="M45.4176 63.4323L41.6985 63.8887L50.4329 135.068L54.1519 134.611L45.4176 63.4323Z" fill="url(#paint30_radial_14_3597)"/>
<path d="M37.9793 64.345L34.2601 64.8014L42.9945 135.98L46.7137 135.524L37.9793 64.345Z" fill="url(#paint31_radial_14_3597)"/>
<path d="M30.5727 65.2538L26.8536 65.7102L35.588 136.889L39.3071 136.433L30.5727 65.2538Z" fill="url(#paint32_radial_14_3597)"/>
<path d="M23.1344 66.1666L19.4153 66.6229L28.1497 137.802L31.8687 137.346L23.1344 66.1666Z" fill="url(#paint33_radial_14_3597)"/>
<path d="M15.6962 67.0794L11.9772 67.5358L20.7115 138.715L24.4306 138.258L15.6962 67.0794Z" fill="url(#paint34_radial_14_3597)"/>
<path d="M8.28963 67.9881L4.57056 68.4445L13.3049 139.623L17.024 139.167L8.28963 67.9881Z" fill="url(#paint35_radial_14_3597)"/>
</g>
<path d="M263.96 61.8937L260.336 62.3385C261.626 72.8516 250.248 84.4162 228.281 94.9404C205.526 105.824 174.453 114.098 140.761 118.232C107.068 122.366 74.9273 121.937 50.2057 116.792C26.3459 111.891 12.541 103.417 11.251 92.9036L7.62646 93.3484C10.5344 117.046 70.2759 129.396 141.065 120.71C211.854 112.023 266.881 85.699 263.96 61.8937Z" fill="url(#paint36_radial_14_3597)"/>
<path d="M138.757 101.902C209.533 93.2173 264.541 66.8863 261.621 43.0902C258.701 19.2942 198.958 7.04415 128.183 15.7291C57.4067 24.414 2.39863 50.745 5.31865 74.5411C8.23866 98.3371 67.981 110.587 138.757 101.902Z" fill="url(#paint37_linear_14_3597)"/>
<path d="M137.928 90.4557C79.7377 97.7899 30.146 90.0915 25.2728 73.2929C25.2075 72.8827 25.1458 72.4953 25.0804 72.085C22.2681 54.4223 68.2839 34.0925 127.835 26.5867C187.387 19.0809 237.912 27.3126 240.714 44.907C240.779 45.3172 240.841 45.7046 240.906 46.1149C241.359 63.4938 196.081 83.1262 137.928 90.4557Z" fill="url(#paint38_linear_14_3597)"/>
<path d="M137.928 90.4556C79.7377 97.7898 30.146 90.0914 25.2728 73.2928C24.7063 55.9282 69.947 36.3005 128.137 28.9663C186.328 21.6321 235.919 29.3305 240.755 46.1338C241.359 63.4937 196.081 83.1261 137.928 90.4556Z" fill="#FE0002"/>
<path d="M257.996 43.535C259.289 54.0697 247.911 65.6343 225.976 76.1546C203.221 87.0379 172.148 95.3119 138.456 99.4463C104.763 103.581 72.6221 103.151 47.9005 98.0062C24.0855 93.2093 10.2043 84.6348 8.91162 74.1002C7.61891 63.5655 18.9994 52.0224 40.9664 41.4982C63.7212 30.6149 94.7941 22.3409 128.487 18.2065C162.179 14.0721 194.32 14.5016 219.042 19.6466C242.87 24.5512 256.706 33.0219 257.996 43.535ZM261.621 43.0902C258.713 19.3926 198.971 7.04256 128.183 15.7291C57.3938 24.4155 2.41071 50.8434 5.31865 74.5411C8.22658 98.2387 67.9681 110.589 138.757 101.902C209.546 93.2157 264.529 66.7878 261.621 43.0902Z" fill="url(#paint39_radial_14_3597)"/>
<path d="M104.48 63.2378L113.381 61.9048L111.931 52.2217L117.998 51.3131L121.731 76.2421L115.664 77.1507L114.154 67.0679L105.254 68.401L106.764 78.4838L100.714 79.3899L96.9803 54.4609L103.03 53.5548L104.48 63.2378ZM134.856 74.6318C132.991 74.9112 131.308 74.8315 129.808 74.3925C128.32 73.9518 127.069 73.1142 126.055 71.8797C125.041 70.6453 124.389 69.0661 124.101 67.1422L123.997 66.4469C123.709 64.523 123.869 62.8224 124.477 61.3449C125.085 59.8674 126.036 58.7 127.33 57.8427C128.635 56.9837 130.22 56.4144 132.086 56.135L132.173 56.1219C135.036 55.6932 137.439 56.1153 139.384 57.3882C141.34 58.6594 142.533 60.7321 142.963 63.6063L143.067 64.3017C143.498 67.1758 142.964 69.5072 141.466 71.2956C139.98 73.0823 137.806 74.19 134.943 74.6188L134.856 74.6318ZM129.991 66.1179C130.439 69.108 131.833 70.4277 134.174 70.0771L134.261 70.0641C136.625 69.71 137.584 68.0379 137.136 65.0478L137.073 64.6306C136.626 61.6405 135.22 60.3225 132.855 60.6766L132.768 60.6896C130.427 61.0403 129.481 62.7106 129.928 65.7007L129.991 66.1179ZM147.686 72.3548L143.952 47.4258L149.724 46.5614L153.458 71.4904L147.686 72.3548ZM175.57 68.1785L169.799 69.0429L169.387 66.2962L169.214 66.3223C168.572 68.5275 166.959 69.8237 164.375 70.2108L164.305 70.2212C162.011 70.5649 160.071 70.0733 158.486 68.7466C156.901 67.4199 155.893 65.3194 155.462 62.4452L155.358 61.7499C154.928 58.8757 155.276 56.5721 156.403 54.8392C157.53 53.1063 159.24 52.0681 161.535 51.7244L161.605 51.714C164.189 51.3269 166.111 52.0936 167.37 54.0142L167.544 53.9882L166.065 44.114L171.837 43.2495L175.57 68.1785ZM161.352 61.4209C161.8 64.411 163.194 65.7307 165.535 65.3801L165.622 65.3671C167.987 65.013 168.945 63.3409 168.497 60.3508L168.435 59.9336C167.987 56.9435 166.581 55.6255 164.216 55.9796L164.129 55.9926C161.788 56.3433 160.842 58.0136 161.29 61.0037L161.352 61.4209Z" fill="url(#paint40_linear_14_3597)"/>
<path d="M103.48 60.2378L112.381 58.9048L110.931 49.2217L116.998 48.3131L120.731 73.2421L114.664 74.1507L113.154 64.0679L104.254 65.401L105.764 75.4838L99.7139 76.3899L95.9803 51.4609L102.03 50.5548L103.48 60.2378ZM133.856 71.6318C131.991 71.9112 130.308 71.8315 128.808 71.3925C127.32 70.9518 126.069 70.1142 125.055 68.8797C124.041 67.6453 123.389 66.0661 123.101 64.1422L122.997 63.4469C122.709 61.523 122.869 59.8224 123.477 58.3449C124.085 56.8674 125.036 55.7 126.33 54.8427C127.635 53.9837 129.22 53.4144 131.086 53.135L131.173 53.1219C134.036 52.6932 136.439 53.1153 138.384 54.3882C140.34 55.6594 141.533 57.7321 141.963 60.6063L142.067 61.3017C142.498 64.1758 141.964 66.5072 140.466 68.2956C138.98 70.0823 136.806 71.19 133.943 71.6188L133.856 71.6318ZM128.991 63.1179C129.439 66.108 130.833 67.4277 133.174 67.0771L133.261 67.0641C135.625 66.71 136.584 65.0379 136.136 62.0478L136.073 61.6306C135.626 58.6405 134.22 57.3225 131.855 57.6766L131.768 57.6896C129.427 58.0403 128.481 59.7106 128.928 62.7007L128.991 63.1179ZM146.686 69.3548L142.952 44.4258L148.724 43.5614L152.458 68.4904L146.686 69.3548ZM174.57 65.1785L168.799 66.0429L168.387 63.2962L168.214 63.3223C167.572 65.5275 165.959 66.8237 163.375 67.2108L163.305 67.2212C161.011 67.5649 159.071 67.0733 157.486 65.7466C155.901 64.4199 154.893 62.3194 154.462 59.4452L154.358 58.7499C153.928 55.8757 154.276 53.5721 155.403 51.8392C156.53 50.1063 158.24 49.0681 160.535 48.7244L160.605 48.714C163.189 48.3269 165.111 49.0936 166.37 51.0142L166.544 50.9882L165.065 41.114L170.837 40.2495L174.57 65.1785ZM160.352 58.4209C160.8 61.411 162.194 62.7307 164.535 62.3801L164.622 62.3671C166.987 62.013 167.945 60.3409 167.497 57.3508L167.435 56.9336C166.987 53.9435 165.581 52.6255 163.216 52.9796L163.129 52.9926C160.788 53.3433 159.842 55.0136 160.29 58.0037L160.352 58.4209Z" fill="white"/>
<defs>
<linearGradient id="paint0_linear_14_3597" x1="41.9809" y1="89.133" x2="285.771" y2="59.2175" gradientUnits="userSpaceOnUse">
<stop stop-color="#FF8800"/>
<stop offset="0.19" stop-color="#FFA100"/>
<stop offset="0.69" stop-color="#FFCE00"/>
<stop offset="1" stop-color="#FFDD00"/>
</linearGradient>
<radialGradient id="paint1_radial_14_3597" cx="0" cy="0" r="1" gradientUnits="userSpaceOnUse" gradientTransform="translate(140.663 34.8103) rotate(83.0042) scale(342.564 147.406)">
<stop stop-color="#FCFF63"/>
<stop offset="1" stop-color="#FCDF60"/>
</radialGradient>
<radialGradient id="paint2_radial_14_3597" cx="0" cy="0" r="1" gradientUnits="userSpaceOnUse" gradientTransform="translate(140.666 34.8098) rotate(83.0042) scale(342.564 147.402)">
<stop stop-color="#FCFF63"/>
<stop offset="1" stop-color="#FCDF60"/>
</radialGradient>
<radialGradient id="paint3_radial_14_3597" cx="0" cy="0" r="1" gradientUnits="userSpaceOnUse" gradientTransform="translate(140.666 34.81) rotate(83.0042) scale(342.564 147.402)">
<stop stop-color="#FCFF63"/>
<stop offset="1" stop-color="#FCDF60"/>
</radialGradient>
<radialGradient id="paint4_radial_14_3597" cx="0" cy="0" r="1" gradientUnits="userSpaceOnUse" gradientTransform="translate(140.666 34.8099) rotate(83.0042) scale(342.564 147.402)">
<stop stop-color="#FCFF63"/>
<stop offset="1" stop-color="#FCDF60"/>
</radialGradient>
<radialGradient id="paint5_radial_14_3597" cx="0" cy="0" r="1" gradientUnits="userSpaceOnUse" gradientTransform="translate(140.666 34.8099) rotate(83.0042) scale(342.564 147.402)">
<stop stop-color="#FCFF63"/>
<stop offset="1" stop-color="#FCDF60"/>
</radialGradient>
<radialGradient id="paint6_radial_14_3597" cx="0" cy="0" r="1" gradientUnits="userSpaceOnUse" gradientTransform="translate(140.664 34.8101) rotate(83.0042) scale(342.564 147.406)">
<stop stop-color="#FCFF63"/>
<stop offset="1" stop-color="#FCDF60"/>
</radialGradient>
<radialGradient id="paint7_radial_14_3597" cx="0" cy="0" r="1" gradientUnits="userSpaceOnUse" gradientTransform="translate(140.666 34.8099) rotate(83.0042) scale(342.564 147.402)">
<stop stop-color="#FCFF63"/>
<stop offset="1" stop-color="#FCDF60"/>
</radialGradient>
<radialGradient id="paint8_radial_14_3597" cx="0" cy="0" r="1" gradientUnits="userSpaceOnUse" gradientTransform="translate(140.664 34.8102) rotate(83.0042) scale(342.564 147.406)">
<stop stop-color="#FCFF63"/>
<stop offset="1" stop-color="#FCDF60"/>
</radialGradient>
<radialGradient id="paint9_radial_14_3597" cx="0" cy="0" r="1" gradientUnits="userSpaceOnUse" gradientTransform="translate(140.666 34.8098) rotate(83.0042) scale(342.564 147.402)">
<stop stop-color="#FCFF63"/>
<stop offset="1" stop-color="#FCDF60"/>
</radialGradient>
<radialGradient id="paint10_radial_14_3597" cx="0" cy="0" r="1" gradientUnits="userSpaceOnUse" gradientTransform="translate(140.666 34.8099) rotate(83.0042) scale(342.564 147.402)">
<stop stop-color="#FCFF63"/>
<stop offset="1" stop-color="#FCDF60"/>
</radialGradient>
<radialGradient id="paint11_radial_14_3597" cx="0" cy="0" r="1" gradientUnits="userSpaceOnUse" gradientTransform="translate(140.666 34.8099) rotate(83.0042) scale(342.564 147.402)">
<stop stop-color="#FCFF63"/>
<stop offset="1" stop-color="#FCDF60"/>
</radialGradient>
<radialGradient id="paint12_radial_14_3597" cx="0" cy="0" r="1" gradientUnits="userSpaceOnUse" gradientTransform="translate(140.666 34.8099) rotate(83.0042) scale(342.564 147.402)">
<stop stop-color="#FCFF63"/>
<stop offset="1" stop-color="#FCDF60"/>
</radialGradient>
<radialGradient id="paint13_radial_14_3597" cx="0" cy="0" r="1" gradientUnits="userSpaceOnUse" gradientTransform="translate(140.665 34.8099) rotate(83.0042) scale(342.564 147.406)">
<stop stop-color="#FCFF63"/>
<stop offset="1" stop-color="#FCDF60"/>
</radialGradient>
<radialGradient id="paint14_radial_14_3597" cx="0" cy="0" r="1" gradientUnits="userSpaceOnUse" gradientTransform="translate(140.666 34.8099) rotate(83.0042) scale(342.564 147.402)">
<stop stop-color="#FCFF63"/>
<stop offset="1" stop-color="#FCDF60"/>
</radialGradient>
<radialGradient id="paint15_radial_14_3597" cx="0" cy="0" r="1" gradientUnits="userSpaceOnUse" gradientTransform="translate(140.665 34.8099) rotate(83.0042) scale(342.564 147.406)">
<stop stop-color="#FCFF63"/>
<stop offset="1" stop-color="#FCDF60"/>
</radialGradient>
<radialGradient id="paint16_radial_14_3597" cx="0" cy="0" r="1" gradientUnits="userSpaceOnUse" gradientTransform="translate(140.666 34.8099) rotate(83.0042) scale(342.564 147.402)">
<stop stop-color="#FCFF63"/>
<stop offset="1" stop-color="#FCDF60"/>
</radialGradient>
<radialGradient id="paint17_radial_14_3597" cx="0" cy="0" r="1" gradientUnits="userSpaceOnUse" gradientTransform="translate(140.666 34.8098) rotate(83.0042) scale(342.564 147.402)">
<stop stop-color="#FCFF63"/>
<stop offset="1" stop-color="#FCDF60"/>
</radialGradient>
<radialGradient id="paint18_radial_14_3597" cx="0" cy="0" r="1" gradientUnits="userSpaceOnUse" gradientTransform="translate(140.665 34.8098) rotate(83.0042) scale(342.564 147.402)">
<stop stop-color="#FCFF63"/>
<stop offset="1" stop-color="#FCDF60"/>
</radialGradient>
<radialGradient id="paint19_radial_14_3597" cx="0" cy="0" r="1" gradientUnits="userSpaceOnUse" gradientTransform="translate(140.665 34.8099) rotate(83.0042) scale(342.564 147.402)">
<stop stop-color="#FCFF63"/>
<stop offset="1" stop-color="#FCDF60"/>
</radialGradient>
<radialGradient id="paint20_radial_14_3597" cx="0" cy="0" r="1" gradientUnits="userSpaceOnUse" gradientTransform="translate(140.666 34.81) rotate(83.0042) scale(342.564 147.406)">
<stop stop-color="#FCFF63"/>
<stop offset="1" stop-color="#FCDF60"/>
</radialGradient>
<radialGradient id="paint21_radial_14_3597" cx="0" cy="0" r="1" gradientUnits="userSpaceOnUse" gradientTransform="translate(140.665 34.8101) rotate(83.0042) scale(342.564 147.402)">
<stop stop-color="#FCFF63"/>
<stop offset="1" stop-color="#FCDF60"/>
</radialGradient>
<radialGradient id="paint22_radial_14_3597" cx="0" cy="0" r="1" gradientUnits="userSpaceOnUse" gradientTransform="translate(140.666 34.8097) rotate(83.0042) scale(342.564 147.406)">
<stop stop-color="#FCFF63"/>
<stop offset="1" stop-color="#FCDF60"/>
</radialGradient>
<radialGradient id="paint23_radial_14_3597" cx="0" cy="0" r="1" gradientUnits="userSpaceOnUse" gradientTransform="translate(140.665 34.8098) rotate(83.0042) scale(342.564 147.402)">
<stop stop-color="#FCFF63"/>
<stop offset="1" stop-color="#FCDF60"/>
</radialGradient>
<radialGradient id="paint24_radial_14_3597" cx="0" cy="0" r="1" gradientUnits="userSpaceOnUse" gradientTransform="translate(140.665 34.81) rotate(83.0042) scale(342.564 147.402)">
<stop stop-color="#FCFF63"/>
<stop offset="1" stop-color="#FCDF60"/>
</radialGradient>
<radialGradient id="paint25_radial_14_3597" cx="0" cy="0" r="1" gradientUnits="userSpaceOnUse" gradientTransform="translate(140.665 34.8101) rotate(83.0042) scale(342.564 147.402)">
<stop stop-color="#FCFF63"/>
<stop offset="1" stop-color="#FCDF60"/>
</radialGradient>
<radialGradient id="paint26_radial_14_3597" cx="0" cy="0" r="1" gradientUnits="userSpaceOnUse" gradientTransform="translate(140.665 34.8101) rotate(83.0042) scale(342.564 147.402)">
<stop stop-color="#FCFF63"/>
<stop offset="1" stop-color="#FCDF60"/>
</radialGradient>
<radialGradient id="paint27_radial_14_3597" cx="0" cy="0" r="1" gradientUnits="userSpaceOnUse" gradientTransform="translate(140.665 34.8099) rotate(83.0042) scale(342.564 147.402)">
<stop stop-color="#FCFF63"/>
<stop offset="1" stop-color="#FCDF60"/>
</radialGradient>
<radialGradient id="paint28_radial_14_3597" cx="0" cy="0" r="1" gradientUnits="userSpaceOnUse" gradientTransform="translate(140.665 34.8101) rotate(83.0042) scale(342.564 147.402)">
<stop stop-color="#FCFF63"/>
<stop offset="1" stop-color="#FCDF60"/>
</radialGradient>
<radialGradient id="paint29_radial_14_3597" cx="0" cy="0" r="1" gradientUnits="userSpaceOnUse" gradientTransform="translate(140.667 34.8098) rotate(83.0042) scale(342.564 147.406)">
<stop stop-color="#FCFF63"/>
<stop offset="1" stop-color="#FCDF60"/>
</radialGradient>
<radialGradient id="paint30_radial_14_3597" cx="0" cy="0" r="1" gradientUnits="userSpaceOnUse" gradientTransform="translate(140.665 34.8102) rotate(83.0042) scale(342.564 147.402)">
<stop stop-color="#FCFF63"/>
<stop offset="1" stop-color="#FCDF60"/>
</radialGradient>
<radialGradient id="paint31_radial_14_3597" cx="0" cy="0" r="1" gradientUnits="userSpaceOnUse" gradientTransform="translate(140.668 34.8098) rotate(83.0042) scale(342.564 147.406)">
<stop stop-color="#FCFF63"/>
<stop offset="1" stop-color="#FCDF60"/>
</radialGradient>
<radialGradient id="paint32_radial_14_3597" cx="0" cy="0" r="1" gradientUnits="userSpaceOnUse" gradientTransform="translate(140.665 34.8101) rotate(83.0042) scale(342.564 147.402)">
<stop stop-color="#FCFF63"/>
<stop offset="1" stop-color="#FCDF60"/>
</radialGradient>
<radialGradient id="paint33_radial_14_3597" cx="0" cy="0" r="1" gradientUnits="userSpaceOnUse" gradientTransform="translate(140.633 34.814) rotate(83.0042) scale(342.564 147.402)">
<stop stop-color="#FCFF63"/>
<stop offset="1" stop-color="#FCDF60"/>
</radialGradient>
<radialGradient id="paint34_radial_14_3597" cx="0" cy="0" r="1" gradientUnits="userSpaceOnUse" gradientTransform="translate(140.665 34.8102) rotate(83.0042) scale(342.564 147.402)">
<stop stop-color="#FCFF63"/>
<stop offset="1" stop-color="#FCDF60"/>
</radialGradient>
<radialGradient id="paint35_radial_14_3597" cx="0" cy="0" r="1" gradientUnits="userSpaceOnUse" gradientTransform="translate(140.665 34.81) rotate(83.0042) scale(342.564 147.402)">
<stop stop-color="#FCFF63"/>
<stop offset="1" stop-color="#FCDF60"/>
</radialGradient>
<radialGradient id="paint36_radial_14_3597" cx="0" cy="0" r="1" gradientUnits="userSpaceOnUse" gradientTransform="translate(142.089 46.4087) rotate(83.0042) scale(100.754 147.403)">
<stop stop-color="#FCFF63"/>
<stop offset="1" stop-color="#FCDF60"/>
</radialGradient>
<linearGradient id="paint37_linear_14_3597" x1="137.694" y1="93.2418" x2="126.684" y2="3.51401" gradientUnits="userSpaceOnUse">
<stop stop-color="#FF8800"/>
<stop offset="0.19" stop-color="#FFA100"/>
<stop offset="0.69" stop-color="#FFCE00"/>
<stop offset="1" stop-color="#FFDD00"/>
</linearGradient>
<linearGradient id="paint38_linear_14_3597" x1="130.162" y1="41.6836" x2="135.504" y2="84.0658" gradientUnits="userSpaceOnUse">
<stop stop-color="#FF8800"/>
<stop offset="0.19" stop-color="#FFA100"/>
<stop offset="0.69" stop-color="#FFCE00"/>
<stop offset="1" stop-color="#FFDD00"/>
</linearGradient>
<radialGradient id="paint39_radial_14_3597" cx="0" cy="0" r="1" gradientUnits="userSpaceOnUse" gradientTransform="translate(142.089 46.4087) rotate(83.0042) scale(100.754 147.403)">
<stop stop-color="#FCFF63"/>
<stop offset="1" stop-color="#FCDF60"/>
</radialGradient>
<linearGradient id="paint40_linear_14_3597" x1="143.244" y1="102.862" x2="130.321" y2="16.5774" gradientUnits="userSpaceOnUse">
<stop offset="0.39" stop-color="#F66300"/>
<stop offset="0.74" stop-color="#FF7C00"/>
<stop offset="0.76" stop-color="#FF8A00"/>
<stop offset="0.81" stop-color="#FFA100"/>
<stop offset="0.86" stop-color="#FFB200"/>
<stop offset="0.92" stop-color="#FFBC00"/>
<stop offset="1" stop-color="#FFBF00"/>
</linearGradient>
</defs>
</svg>
