<svg width="274" height="154" viewBox="0 0 274 154" fill="none" xmlns="http://www.w3.org/2000/svg">
<path d="M265.443 61.1845L261.774 42.5946L249.095 45.0968C225.762 34.9448 180.495 33.701 130.338 43.5988C80.1811 53.4966 38.8109 71.8372 21.0525 90.098L8.40427 92.5939L12.0727 111.184C16.6951 134.607 77.1761 142.583 147.146 128.776C217.117 114.968 270.082 84.6933 265.443 61.1845Z" fill="url(#paint0_linear_14_3692)"/>
<mask id="mask0_14_3692" style="mask-type:luminance" maskUnits="userSpaceOnUse" x="8" y="36" width="258" height="100">
<path d="M265.443 61.1845L261.774 42.5946L249.095 45.0968C225.762 34.9448 180.495 33.701 130.338 43.5988C80.1811 53.4966 38.8109 71.8372 21.0525 90.098L8.40427 92.5939L12.0727 111.184C16.6951 134.607 77.1761 142.583 147.146 128.776C217.117 114.968 270.082 84.6933 265.443 61.1845Z" fill="white"/>
</mask>
<g mask="url(#mask0_14_3692)">
<path d="M260.585 36.5685L256.909 37.2939L270.793 107.65L274.469 106.925L260.585 36.5685Z" fill="url(#paint1_radial_14_3692)"/>
<path d="M253.264 38.0131L249.588 38.7385L263.472 109.095L267.148 108.369L253.264 38.0131Z" fill="url(#paint2_radial_14_3692)"/>
<path d="M245.912 39.464L242.236 40.1895L256.12 110.546L259.796 109.82L245.912 39.464Z" fill="url(#paint3_radial_14_3692)"/>
<path d="M238.56 40.9148L234.884 41.6403L248.768 111.996L252.444 111.271L238.56 40.9148Z" fill="url(#paint4_radial_14_3692)"/>
<path d="M231.239 42.3595L227.563 43.085L241.447 113.441L245.123 112.716L231.239 42.3595Z" fill="url(#paint5_radial_14_3692)"/>
<path d="M223.887 43.8103L220.21 44.5358L234.094 114.892L237.77 114.166L223.887 43.8103Z" fill="url(#paint6_radial_14_3692)"/>
<path d="M216.534 45.2613L212.858 45.9867L226.742 116.343L230.418 115.617L216.534 45.2613Z" fill="url(#paint7_radial_14_3692)"/>
<path d="M209.182 46.7122L205.506 47.4376L219.39 117.794L223.066 117.068L209.182 46.7122Z" fill="url(#paint8_radial_14_3692)"/>
<path d="M201.861 48.1568L198.185 48.8822L212.069 119.238L215.745 118.513L201.861 48.1568Z" fill="url(#paint9_radial_14_3692)"/>
<path d="M194.509 49.6077L190.833 50.3331L204.717 120.689L208.393 119.964L194.509 49.6077Z" fill="url(#paint10_radial_14_3692)"/>
<path d="M187.157 51.0585L183.481 51.7839L197.365 122.14L201.041 121.415L187.157 51.0585Z" fill="url(#paint11_radial_14_3692)"/>
<path d="M179.804 52.5094L176.128 53.2349L190.012 123.591L193.688 122.866L179.804 52.5094Z" fill="url(#paint12_radial_14_3692)"/>
<path d="M172.484 53.954L168.807 54.6794L182.691 125.036L186.367 124.31L172.484 53.954Z" fill="url(#paint13_radial_14_3692)"/>
<path d="M165.131 55.4049L161.455 56.1304L175.339 126.486L179.015 125.761L165.131 55.4049Z" fill="url(#paint14_radial_14_3692)"/>
<path d="M157.779 56.8557L154.103 57.5812L167.987 127.937L171.663 127.212L157.779 56.8557Z" fill="url(#paint15_radial_14_3692)"/>
<path d="M150.427 58.3067L146.751 59.0321L160.635 129.388L164.311 128.663L150.427 58.3067Z" fill="url(#paint16_radial_14_3692)"/>
<path d="M143.106 59.7513L139.43 60.4767L153.314 130.833L156.99 130.107L143.106 59.7513Z" fill="url(#paint17_radial_14_3692)"/>
<path d="M135.754 61.2022L132.078 61.9276L145.961 132.284L149.638 131.558L135.754 61.2022Z" fill="url(#paint18_radial_14_3692)"/>
<path d="M128.401 62.6531L124.725 63.3785L138.609 133.735L142.285 133.009L128.401 62.6531Z" fill="url(#paint19_radial_14_3692)"/>
<path d="M121.08 64.0979L117.404 64.8234L131.288 135.179L134.964 134.454L121.08 64.0979Z" fill="url(#paint20_radial_14_3692)"/>
<path d="M113.728 65.5489L110.052 66.2743L123.936 136.63L127.612 135.905L113.728 65.5489Z" fill="url(#paint21_radial_14_3692)"/>
<path d="M106.376 66.9994L102.7 67.7249L116.584 138.081L120.26 137.356L106.376 66.9994Z" fill="url(#paint22_radial_14_3692)"/>
<path d="M99.024 68.4504L95.3479 69.1758L109.232 139.532L112.908 138.806L99.024 68.4504Z" fill="url(#paint23_radial_14_3692)"/>
<path d="M91.7029 69.8952L88.0269 70.6206L101.911 140.977L105.587 140.251L91.7029 69.8952Z" fill="url(#paint24_radial_14_3692)"/>
<path d="M84.3506 71.3461L80.6746 72.0715L94.5584 142.428L98.2345 141.702L84.3506 71.3461Z" fill="url(#paint25_radial_14_3692)"/>
<path d="M76.9983 72.797L73.3223 73.5225L87.2061 143.879L90.8822 143.153L76.9983 72.797Z" fill="url(#paint26_radial_14_3692)"/>
<path d="M69.6463 74.2476L65.9702 74.973L79.8541 145.329L83.5301 144.604L69.6463 74.2476Z" fill="url(#paint27_radial_14_3692)"/>
<path d="M62.3252 75.6925L58.6492 76.418L72.533 146.774L76.2091 146.049L62.3252 75.6925Z" fill="url(#paint28_radial_14_3692)"/>
<path d="M54.9733 77.1433L51.2971 77.8688L65.181 148.225L68.8571 147.499L54.9733 77.1433Z" fill="url(#paint29_radial_14_3692)"/>
<path d="M47.6209 78.5943L43.9448 79.3197L57.8287 149.676L61.5048 148.95L47.6209 78.5943Z" fill="url(#paint30_radial_14_3692)"/>
<path d="M40.2687 80.0451L36.5925 80.7705L50.4764 151.127L54.1526 150.401L40.2687 80.0451Z" fill="url(#paint31_radial_14_3692)"/>
<path d="M32.9478 81.4898L29.2717 82.2152L43.1556 152.571L46.8317 151.846L32.9478 81.4898Z" fill="url(#paint32_radial_14_3692)"/>
<path d="M25.5954 82.9406L21.9193 83.666L35.8032 154.022L39.4792 153.297L25.5954 82.9406Z" fill="url(#paint33_radial_14_3692)"/>
<path d="M18.2433 84.3915L14.5673 85.1169L28.4511 155.473L32.1272 154.748L18.2433 84.3915Z" fill="url(#paint34_radial_14_3692)"/>
<path d="M10.9223 85.8361L7.24622 86.5615L21.1301 156.918L24.8061 156.192L10.9223 85.8361Z" fill="url(#paint35_radial_14_3692)"/>
</g>
<path d="M265.474 61.1782L261.891 61.8852C263.942 72.2768 253.435 84.6377 232.291 96.7304C210.387 109.238 179.997 119.749 146.694 126.321C113.391 132.892 81.3043 134.8 56.2742 131.465C32.1213 128.311 17.7371 120.862 15.6865 110.471L12.1039 111.177C16.7262 134.601 77.2073 142.577 147.178 128.769C217.148 114.962 270.117 84.7083 265.474 61.1782Z" fill="url(#paint36_radial_14_3692)"/>
<path d="M143.509 110.179C213.467 96.3742 266.416 66.1154 261.774 42.5944C257.133 19.0735 196.658 11.1973 126.701 25.0026C56.743 38.8078 3.79385 69.0666 8.4354 92.5876C13.077 116.109 73.5516 123.985 143.509 110.179Z" fill="url(#paint37_linear_14_3692)"/>
<path d="M141.851 98.8234C84.3472 110.367 34.3272 106.293 28.2461 89.8927C28.1511 89.4883 28.0615 89.1063 27.9665 88.7019C23.878 71.2902 68.2948 47.6702 127.143 35.8566C185.992 24.0431 236.982 28.5813 241.055 45.9256C241.149 46.33 241.239 46.712 241.334 47.1164C243.049 64.4164 199.317 87.2873 141.851 98.8234Z" fill="url(#paint38_linear_14_3692)"/>
<path d="M141.851 98.8232C84.3471 110.367 34.3271 106.293 28.246 89.8925C26.4192 72.615 70.1139 49.7516 127.617 38.2081C185.121 26.6645 235.141 30.7387 241.185 47.1463C243.049 64.4163 199.317 87.2872 141.851 98.8232Z" fill="#FFCB01"/>
<path d="M258.192 43.3014C260.247 53.7143 249.739 66.0752 228.626 78.1618C206.723 90.6698 176.333 101.18 143.03 107.752C109.727 114.324 77.64 116.231 52.6099 112.896C28.5092 109.843 14.0417 102.3 11.9868 91.8868C9.93199 81.4739 20.4436 69.1343 41.5877 57.0416C63.4914 44.5335 93.8809 34.0233 127.184 27.4514C160.487 20.8795 192.574 18.9722 217.604 22.307C241.726 25.4671 256.141 32.9099 258.192 43.3014ZM261.774 42.5944C257.152 19.1708 196.671 11.1948 126.701 25.0026C56.7302 38.8103 3.81305 69.1639 8.4354 92.5876C13.0578 116.011 73.5388 123.987 143.509 110.179C213.48 96.3717 266.397 66.0181 261.774 42.5944Z" fill="url(#paint39_radial_14_3692)"/>
<path d="M107.203 85.3664L101.668 60.7746L112.626 58.308C115.335 57.6981 117.631 57.92 119.514 58.9737C121.406 60.0133 122.622 61.7336 123.162 64.1345L123.232 64.4432C123.772 66.844 123.412 68.9251 122.151 70.6865C120.898 72.4338 118.917 73.6125 116.208 74.2223L111.218 75.3456L113.171 84.0231L107.203 85.3664ZM110.079 70.2867L114.623 69.2637C115.595 69.045 116.304 68.6452 116.75 68.0644C117.204 67.4695 117.322 66.6862 117.104 65.7145L117.081 65.6116C116.867 64.6626 116.429 64.0226 115.765 63.6914C115.111 63.3462 114.298 63.2829 113.326 63.5017L108.782 64.5246L110.079 70.2867ZM129.805 80.2788L124.27 55.687L129.963 54.4055L135.499 78.9972L129.805 80.2788ZM143.833 58.3105C146.692 57.6671 148.957 57.7277 150.631 58.4921C152.302 59.2451 153.4 60.7877 153.925 63.12L156.438 74.2841L150.744 75.5656L150.142 72.8904L149.971 72.929C149.648 74.0586 149.109 74.9727 148.354 75.6713C147.609 76.3673 146.546 76.871 145.162 77.1824L145.094 77.1979C143.139 77.6379 141.493 77.5039 140.156 76.7957C138.831 76.085 137.982 74.9007 137.609 73.243L137.532 72.9C137.138 71.1508 137.517 69.6302 138.667 68.3382C139.827 67.0321 141.721 66.0832 144.351 65.4913L148.278 64.6074L148.216 64.333C148.139 63.99 148.029 63.7145 147.886 63.5064C147.754 63.2958 147.538 63.1101 147.238 62.9495C146.949 62.7863 146.53 62.7125 145.981 62.728C145.441 62.7295 144.77 62.8203 143.97 63.0004L143.902 63.0158C141.844 63.4791 139.983 64.3364 138.318 65.5879L135.94 61.7449C138.275 60.1141 140.884 58.9744 143.765 58.3259L143.833 58.3105ZM143.281 71.2275C143.518 72.2793 144.563 72.5967 146.415 72.1798L146.483 72.1644C147.627 71.9071 148.401 71.4264 148.807 70.7224C149.213 70.0183 149.319 69.2319 149.123 68.363L149.084 68.1915L145.792 68.9326C144.809 69.154 144.108 69.4317 143.691 69.7659C143.274 70.1 143.127 70.5415 143.251 71.0903L143.281 71.2275ZM154.063 56.3683L159.928 55.0481L167.021 66.5505L167.21 66.508L168.674 53.0795L174.367 51.7979L171.795 72.6291C171.617 74.0265 171.281 75.2013 170.786 76.1534C170.303 77.1029 169.539 77.9236 168.494 78.6154C167.462 79.316 166.118 79.8529 164.46 80.2261L164.391 80.2415C162.837 80.5915 161.222 80.7567 159.548 80.7371L159.459 76.1805C160.644 76.2141 161.842 76.0946 163.054 75.8218L163.14 75.8025C164.295 75.5426 165.113 75.1781 165.596 74.709C166.082 74.2514 166.373 73.6512 166.471 72.9087L166.556 72.0066L164.412 72.4891L154.063 56.3683Z" fill="white"/>
<defs>
<linearGradient id="paint0_linear_14_3692" x1="46.061" y1="104.477" x2="287.032" y2="56.9241" gradientUnits="userSpaceOnUse">
<stop stop-color="#FF8800"/>
<stop offset="0.19" stop-color="#FFA100"/>
<stop offset="0.69" stop-color="#FFCE00"/>
<stop offset="1" stop-color="#FFDD00"/>
</linearGradient>
<radialGradient id="paint1_radial_14_3692" cx="0" cy="0" r="1" gradientUnits="userSpaceOnUse" gradientTransform="translate(140.535 43.1265) rotate(78.8369) scale(342.564 147.406)">
<stop stop-color="#FCFF63"/>
<stop offset="1" stop-color="#FCDF60"/>
</radialGradient>
<radialGradient id="paint2_radial_14_3692" cx="0" cy="0" r="1" gradientUnits="userSpaceOnUse" gradientTransform="translate(140.538 43.1258) rotate(78.8369) scale(342.564 147.402)">
<stop stop-color="#FCFF63"/>
<stop offset="1" stop-color="#FCDF60"/>
</radialGradient>
<radialGradient id="paint3_radial_14_3692" cx="0" cy="0" r="1" gradientUnits="userSpaceOnUse" gradientTransform="translate(140.538 43.1258) rotate(78.8369) scale(342.564 147.402)">
<stop stop-color="#FCFF63"/>
<stop offset="1" stop-color="#FCDF60"/>
</radialGradient>
<radialGradient id="paint4_radial_14_3692" cx="0" cy="0" r="1" gradientUnits="userSpaceOnUse" gradientTransform="translate(140.538 43.1258) rotate(78.8369) scale(342.564 147.402)">
<stop stop-color="#FCFF63"/>
<stop offset="1" stop-color="#FCDF60"/>
</radialGradient>
<radialGradient id="paint5_radial_14_3692" cx="0" cy="0" r="1" gradientUnits="userSpaceOnUse" gradientTransform="translate(140.538 43.1258) rotate(78.8369) scale(342.564 147.402)">
<stop stop-color="#FCFF63"/>
<stop offset="1" stop-color="#FCDF60"/>
</radialGradient>
<radialGradient id="paint6_radial_14_3692" cx="0" cy="0" r="1" gradientUnits="userSpaceOnUse" gradientTransform="translate(140.536 43.1261) rotate(78.8369) scale(342.564 147.406)">
<stop stop-color="#FCFF63"/>
<stop offset="1" stop-color="#FCDF60"/>
</radialGradient>
<radialGradient id="paint7_radial_14_3692" cx="0" cy="0" r="1" gradientUnits="userSpaceOnUse" gradientTransform="translate(140.538 43.1258) rotate(78.8369) scale(342.564 147.402)">
<stop stop-color="#FCFF63"/>
<stop offset="1" stop-color="#FCDF60"/>
</radialGradient>
<radialGradient id="paint8_radial_14_3692" cx="0" cy="0" r="1" gradientUnits="userSpaceOnUse" gradientTransform="translate(140.536 43.1262) rotate(78.8369) scale(342.564 147.406)">
<stop stop-color="#FCFF63"/>
<stop offset="1" stop-color="#FCDF60"/>
</radialGradient>
<radialGradient id="paint9_radial_14_3692" cx="0" cy="0" r="1" gradientUnits="userSpaceOnUse" gradientTransform="translate(140.538 43.1258) rotate(78.8369) scale(342.564 147.402)">
<stop stop-color="#FCFF63"/>
<stop offset="1" stop-color="#FCDF60"/>
</radialGradient>
<radialGradient id="paint10_radial_14_3692" cx="0" cy="0" r="1" gradientUnits="userSpaceOnUse" gradientTransform="translate(140.537 43.1259) rotate(78.8369) scale(342.564 147.402)">
<stop stop-color="#FCFF63"/>
<stop offset="1" stop-color="#FCDF60"/>
</radialGradient>
<radialGradient id="paint11_radial_14_3692" cx="0" cy="0" r="1" gradientUnits="userSpaceOnUse" gradientTransform="translate(140.537 43.1258) rotate(78.8369) scale(342.564 147.402)">
<stop stop-color="#FCFF63"/>
<stop offset="1" stop-color="#FCDF60"/>
</radialGradient>
<radialGradient id="paint12_radial_14_3692" cx="0" cy="0" r="1" gradientUnits="userSpaceOnUse" gradientTransform="translate(140.537 43.1259) rotate(78.8369) scale(342.564 147.402)">
<stop stop-color="#FCFF63"/>
<stop offset="1" stop-color="#FCDF60"/>
</radialGradient>
<radialGradient id="paint13_radial_14_3692" cx="0" cy="0" r="1" gradientUnits="userSpaceOnUse" gradientTransform="translate(140.537 43.1259) rotate(78.8369) scale(342.564 147.406)">
<stop stop-color="#FCFF63"/>
<stop offset="1" stop-color="#FCDF60"/>
</radialGradient>
<radialGradient id="paint14_radial_14_3692" cx="0" cy="0" r="1" gradientUnits="userSpaceOnUse" gradientTransform="translate(140.537 43.1259) rotate(78.8369) scale(342.564 147.402)">
<stop stop-color="#FCFF63"/>
<stop offset="1" stop-color="#FCDF60"/>
</radialGradient>
<radialGradient id="paint15_radial_14_3692" cx="0" cy="0" r="1" gradientUnits="userSpaceOnUse" gradientTransform="translate(140.537 43.1259) rotate(78.8369) scale(342.564 147.406)">
<stop stop-color="#FCFF63"/>
<stop offset="1" stop-color="#FCDF60"/>
</radialGradient>
<radialGradient id="paint16_radial_14_3692" cx="0" cy="0" r="1" gradientUnits="userSpaceOnUse" gradientTransform="translate(140.537 43.1259) rotate(78.8369) scale(342.564 147.402)">
<stop stop-color="#FCFF63"/>
<stop offset="1" stop-color="#FCDF60"/>
</radialGradient>
<radialGradient id="paint17_radial_14_3692" cx="0" cy="0" r="1" gradientUnits="userSpaceOnUse" gradientTransform="translate(140.537 43.1258) rotate(78.8369) scale(342.564 147.402)">
<stop stop-color="#FCFF63"/>
<stop offset="1" stop-color="#FCDF60"/>
</radialGradient>
<radialGradient id="paint18_radial_14_3692" cx="0" cy="0" r="1" gradientUnits="userSpaceOnUse" gradientTransform="translate(140.537 43.1258) rotate(78.8369) scale(342.564 147.402)">
<stop stop-color="#FCFF63"/>
<stop offset="1" stop-color="#FCDF60"/>
</radialGradient>
<radialGradient id="paint19_radial_14_3692" cx="0" cy="0" r="1" gradientUnits="userSpaceOnUse" gradientTransform="translate(140.537 43.1259) rotate(78.8369) scale(342.564 147.402)">
<stop stop-color="#FCFF63"/>
<stop offset="1" stop-color="#FCDF60"/>
</radialGradient>
<radialGradient id="paint20_radial_14_3692" cx="0" cy="0" r="1" gradientUnits="userSpaceOnUse" gradientTransform="translate(140.538 43.1259) rotate(78.8369) scale(342.564 147.406)">
<stop stop-color="#FCFF63"/>
<stop offset="1" stop-color="#FCDF60"/>
</radialGradient>
<radialGradient id="paint21_radial_14_3692" cx="0" cy="0" r="1" gradientUnits="userSpaceOnUse" gradientTransform="translate(140.537 43.1261) rotate(78.8369) scale(342.564 147.402)">
<stop stop-color="#FCFF63"/>
<stop offset="1" stop-color="#FCDF60"/>
</radialGradient>
<radialGradient id="paint22_radial_14_3692" cx="0" cy="0" r="1" gradientUnits="userSpaceOnUse" gradientTransform="translate(140.538 43.1256) rotate(78.8369) scale(342.564 147.406)">
<stop stop-color="#FCFF63"/>
<stop offset="1" stop-color="#FCDF60"/>
</radialGradient>
<radialGradient id="paint23_radial_14_3692" cx="0" cy="0" r="1" gradientUnits="userSpaceOnUse" gradientTransform="translate(140.537 43.1259) rotate(78.8369) scale(342.564 147.402)">
<stop stop-color="#FCFF63"/>
<stop offset="1" stop-color="#FCDF60"/>
</radialGradient>
<radialGradient id="paint24_radial_14_3692" cx="0" cy="0" r="1" gradientUnits="userSpaceOnUse" gradientTransform="translate(140.537 43.126) rotate(78.8369) scale(342.564 147.402)">
<stop stop-color="#FCFF63"/>
<stop offset="1" stop-color="#FCDF60"/>
</radialGradient>
<radialGradient id="paint25_radial_14_3692" cx="0" cy="0" r="1" gradientUnits="userSpaceOnUse" gradientTransform="translate(140.537 43.1261) rotate(78.8369) scale(342.564 147.402)">
<stop stop-color="#FCFF63"/>
<stop offset="1" stop-color="#FCDF60"/>
</radialGradient>
<radialGradient id="paint26_radial_14_3692" cx="0" cy="0" r="1" gradientUnits="userSpaceOnUse" gradientTransform="translate(140.537 43.1262) rotate(78.8369) scale(342.564 147.402)">
<stop stop-color="#FCFF63"/>
<stop offset="1" stop-color="#FCDF60"/>
</radialGradient>
<radialGradient id="paint27_radial_14_3692" cx="0" cy="0" r="1" gradientUnits="userSpaceOnUse" gradientTransform="translate(140.537 43.1259) rotate(78.8369) scale(342.564 147.402)">
<stop stop-color="#FCFF63"/>
<stop offset="1" stop-color="#FCDF60"/>
</radialGradient>
<radialGradient id="paint28_radial_14_3692" cx="0" cy="0" r="1" gradientUnits="userSpaceOnUse" gradientTransform="translate(140.537 43.1261) rotate(78.8369) scale(342.564 147.402)">
<stop stop-color="#FCFF63"/>
<stop offset="1" stop-color="#FCDF60"/>
</radialGradient>
<radialGradient id="paint29_radial_14_3692" cx="0" cy="0" r="1" gradientUnits="userSpaceOnUse" gradientTransform="translate(140.539 43.1256) rotate(78.8369) scale(342.564 147.406)">
<stop stop-color="#FCFF63"/>
<stop offset="1" stop-color="#FCDF60"/>
</radialGradient>
<radialGradient id="paint30_radial_14_3692" cx="0" cy="0" r="1" gradientUnits="userSpaceOnUse" gradientTransform="translate(140.537 43.1262) rotate(78.8369) scale(342.564 147.402)">
<stop stop-color="#FCFF63"/>
<stop offset="1" stop-color="#FCDF60"/>
</radialGradient>
<radialGradient id="paint31_radial_14_3692" cx="0" cy="0" r="1" gradientUnits="userSpaceOnUse" gradientTransform="translate(140.539 43.1256) rotate(78.8369) scale(342.564 147.406)">
<stop stop-color="#FCFF63"/>
<stop offset="1" stop-color="#FCDF60"/>
</radialGradient>
<radialGradient id="paint32_radial_14_3692" cx="0" cy="0" r="1" gradientUnits="userSpaceOnUse" gradientTransform="translate(140.537 43.1261) rotate(78.8369) scale(342.564 147.402)">
<stop stop-color="#FCFF63"/>
<stop offset="1" stop-color="#FCDF60"/>
</radialGradient>
<radialGradient id="paint33_radial_14_3692" cx="0" cy="0" r="1" gradientUnits="userSpaceOnUse" gradientTransform="translate(140.505 43.1322) rotate(78.8369) scale(342.564 147.402)">
<stop stop-color="#FCFF63"/>
<stop offset="1" stop-color="#FCDF60"/>
</radialGradient>
<radialGradient id="paint34_radial_14_3692" cx="0" cy="0" r="1" gradientUnits="userSpaceOnUse" gradientTransform="translate(140.536 43.1262) rotate(78.8369) scale(342.564 147.402)">
<stop stop-color="#FCFF63"/>
<stop offset="1" stop-color="#FCDF60"/>
</radialGradient>
<radialGradient id="paint35_radial_14_3692" cx="0" cy="0" r="1" gradientUnits="userSpaceOnUse" gradientTransform="translate(140.536 43.1261) rotate(78.8369) scale(342.564 147.402)">
<stop stop-color="#FCFF63"/>
<stop offset="1" stop-color="#FCDF60"/>
</radialGradient>
<radialGradient id="paint36_radial_14_3692" cx="0" cy="0" r="1" gradientUnits="userSpaceOnUse" gradientTransform="translate(142.8 54.5905) rotate(78.8369) scale(100.754 147.403)">
<stop stop-color="#FCFF63"/>
<stop offset="1" stop-color="#FCDF60"/>
</radialGradient>
<linearGradient id="paint37_linear_14_3692" x1="141.82" y1="101.619" x2="124.318" y2="12.9287" gradientUnits="userSpaceOnUse">
<stop stop-color="#FF8800"/>
<stop offset="0.19" stop-color="#FFA100"/>
<stop offset="0.69" stop-color="#FFCE00"/>
<stop offset="1" stop-color="#FFDD00"/>
</linearGradient>
<linearGradient id="paint38_linear_14_3692" x1="130.561" y1="50.7446" x2="138.969" y2="92.6265" gradientUnits="userSpaceOnUse">
<stop stop-color="#FF8800"/>
<stop offset="0.19" stop-color="#FFA100"/>
<stop offset="0.69" stop-color="#FFCE00"/>
<stop offset="1" stop-color="#FFDD00"/>
</linearGradient>
<radialGradient id="paint39_radial_14_3692" cx="0" cy="0" r="1" gradientUnits="userSpaceOnUse" gradientTransform="translate(142.8 54.5905) rotate(78.8369) scale(100.754 147.403)">
<stop stop-color="#FCFF63"/>
<stop offset="1" stop-color="#FCDF60"/>
</radialGradient>
</defs>
</svg>
