<svg width="277" height="170" viewBox="0 0 277 170" fill="none" xmlns="http://www.w3.org/2000/svg">
<path d="M260.687 127.117L265.595 108.815L253.112 105.468C236.649 86.0649 196.572 64.9817 147.193 51.7409C97.8128 38.5002 52.5947 36.7123 28.6026 45.2676L16.1503 41.9287L11.2428 60.2305C5.05929 83.2912 55.8207 117.127 124.707 135.598C193.593 154.069 254.481 150.261 260.687 127.117Z" fill="url(#paint0_linear_14_3645)"/>
<mask id="mask0_14_3645" style="mask-type:luminance" maskUnits="userSpaceOnUse" x="10" y="40" width="256" height="108">
<path d="M260.687 127.117L265.595 108.815L253.112 105.468C236.649 86.0649 196.572 64.9817 147.193 51.7409C97.8128 38.5002 52.5947 36.7123 28.6026 45.2676L16.1503 41.9287L11.2428 60.2305C5.05929 83.2912 55.8207 117.127 124.707 135.598C193.593 154.069 254.481 150.261 260.687 127.117Z" fill="white"/>
</mask>
<g mask="url(#mask0_14_3645)">
<path d="M267.186 102.882L263.567 101.912L244.993 171.178L248.613 172.148L267.186 102.882Z" fill="url(#paint1_radial_14_3645)"/>
<path d="M259.978 100.949L256.359 99.9789L237.786 169.245L241.405 170.215L259.978 100.949Z" fill="url(#paint2_radial_14_3645)"/>
<path d="M252.74 99.0085L249.121 98.0381L230.548 167.304L234.167 168.275L252.74 99.0085Z" fill="url(#paint3_radial_14_3645)"/>
<path d="M245.501 97.0676L241.882 96.0972L223.309 165.363L226.928 166.334L245.501 97.0676Z" fill="url(#paint4_radial_14_3645)"/>
<path d="M238.294 95.1349L234.675 94.1644L216.102 163.43L219.721 164.401L238.294 95.1349Z" fill="url(#paint5_radial_14_3645)"/>
<path d="M231.056 93.1941L227.437 92.2236L208.863 161.49L212.483 162.46L231.056 93.1941Z" fill="url(#paint6_radial_14_3645)"/>
<path d="M223.817 91.2531L220.198 90.2827L201.625 159.549L205.244 160.519L223.817 91.2531Z" fill="url(#paint7_radial_14_3645)"/>
<path d="M216.579 89.3124L212.96 88.3419L194.387 157.608L198.006 158.578L216.579 89.3124Z" fill="url(#paint8_radial_14_3645)"/>
<path d="M209.372 87.3796L205.752 86.4092L187.179 155.675L190.798 156.646L209.372 87.3796Z" fill="url(#paint9_radial_14_3645)"/>
<path d="M202.133 85.4387L198.514 84.4683L179.941 153.734L183.56 154.705L202.133 85.4387Z" fill="url(#paint10_radial_14_3645)"/>
<path d="M194.895 83.4979L191.276 82.5275L172.703 151.794L176.322 152.764L194.895 83.4979Z" fill="url(#paint11_radial_14_3645)"/>
<path d="M187.656 81.557L184.037 80.5865L165.464 149.853L169.083 150.823L187.656 81.557Z" fill="url(#paint12_radial_14_3645)"/>
<path d="M180.449 79.6243L176.83 78.6538L158.257 147.92L161.876 148.89L180.449 79.6243Z" fill="url(#paint13_radial_14_3645)"/>
<path d="M173.211 77.6834L169.592 76.713L151.019 145.979L154.638 146.95L173.211 77.6834Z" fill="url(#paint14_radial_14_3645)"/>
<path d="M165.973 75.7426L162.353 74.7721L143.78 144.038L147.4 145.009L165.973 75.7426Z" fill="url(#paint15_radial_14_3645)"/>
<path d="M158.734 73.8017L155.115 72.8313L136.542 142.097L140.161 143.068L158.734 73.8017Z" fill="url(#paint16_radial_14_3645)"/>
<path d="M151.527 71.869L147.907 70.8986L129.334 140.165L132.954 141.135L151.527 71.869Z" fill="url(#paint17_radial_14_3645)"/>
<path d="M144.288 69.9281L140.669 68.9576L122.096 138.224L125.715 139.194L144.288 69.9281Z" fill="url(#paint18_radial_14_3645)"/>
<path d="M137.05 67.9872L133.431 67.0167L114.858 136.283L118.477 137.253L137.05 67.9872Z" fill="url(#paint19_radial_14_3645)"/>
<path d="M129.842 66.0548L126.223 65.0844L107.65 134.35L111.269 135.321L129.842 66.0548Z" fill="url(#paint20_radial_14_3645)"/>
<path d="M122.604 64.1139L118.985 63.1434L100.412 132.409L104.031 133.38L122.604 64.1139Z" fill="url(#paint21_radial_14_3645)"/>
<path d="M115.366 62.1729L111.747 61.2024L93.1738 130.468L96.793 131.439L115.366 62.1729Z" fill="url(#paint22_radial_14_3645)"/>
<path d="M108.128 60.232L104.509 59.2616L85.9356 128.528L89.5547 129.498L108.128 60.232Z" fill="url(#paint23_radial_14_3645)"/>
<path d="M100.92 58.2994L97.3008 57.329L78.7277 126.595L82.3468 127.565L100.92 58.2994Z" fill="url(#paint24_radial_14_3645)"/>
<path d="M93.6817 56.3586L90.0626 55.3882L71.4896 124.654L75.1087 125.625L93.6817 56.3586Z" fill="url(#paint25_radial_14_3645)"/>
<path d="M86.4432 54.4177L82.8241 53.4473L64.251 122.713L67.8701 123.684L86.4432 54.4177Z" fill="url(#paint26_radial_14_3645)"/>
<path d="M79.2052 52.4765L75.5861 51.5061L57.013 120.772L60.6321 121.743L79.2052 52.4765Z" fill="url(#paint27_radial_14_3645)"/>
<path d="M71.9975 50.5442L68.3784 49.5737L49.8054 118.84L53.4245 119.81L71.9975 50.5442Z" fill="url(#paint28_radial_14_3645)"/>
<path d="M64.7593 48.6033L61.1401 47.6328L42.5671 116.899L46.1863 117.869L64.7593 48.6033Z" fill="url(#paint29_radial_14_3645)"/>
<path d="M57.521 46.6624L53.9019 45.692L35.3288 114.958L38.9479 115.929L57.521 46.6624Z" fill="url(#paint30_radial_14_3645)"/>
<path d="M50.2827 44.7216L46.6635 43.7511L28.0904 113.017L31.7096 113.988L50.2827 44.7216Z" fill="url(#paint31_radial_14_3645)"/>
<path d="M43.0752 42.7888L39.4561 41.8184L20.883 111.084L24.5021 112.055L43.0752 42.7888Z" fill="url(#paint32_radial_14_3645)"/>
<path d="M35.8368 40.8479L32.2177 39.8774L13.6446 109.143L17.2637 110.114L35.8368 40.8479Z" fill="url(#paint33_radial_14_3645)"/>
<path d="M28.5985 38.9071L24.9794 37.9366L6.4063 107.203L10.0254 108.173L28.5985 38.9071Z" fill="url(#paint34_radial_14_3645)"/>
<path d="M21.391 36.9743L17.7719 36.0039L-0.801215 105.27L2.8179 106.24L21.391 36.9743Z" fill="url(#paint35_radial_14_3645)"/>
</g>
<path d="M260.718 127.125L257.191 126.179C254.448 136.41 239.566 142.868 215.256 144.395C190.081 145.959 158.171 141.987 125.384 133.195C92.5973 124.404 62.9588 111.962 41.9662 97.9288C21.6811 84.4447 12.0574 71.4149 14.8007 61.1843L11.2736 60.2385C5.09003 83.2993 55.8514 117.135 124.738 135.606C193.624 154.077 254.506 150.29 260.718 127.125Z" fill="url(#paint36_radial_14_3645)"/>
<path d="M129.645 117.304C198.519 135.772 259.386 131.971 265.595 108.815C271.804 85.6583 221.005 51.9151 152.131 33.4472C83.257 14.9793 22.3903 18.7803 16.1811 41.9368C9.97184 65.0933 60.7715 98.8366 129.645 117.304Z" fill="url(#paint37_linear_14_3645)"/>
<path d="M133.166 106.381C76.4668 91.3768 33.3727 65.6571 35.149 48.2563C35.2422 47.8515 35.3302 47.4692 35.4233 47.0644C39.4342 29.6346 89.7152 28.0283 147.74 43.3836C205.766 58.7388 249.525 85.3028 245.53 102.665C245.437 103.07 245.349 103.452 245.256 103.857C239.164 120.14 189.828 121.376 133.166 106.381Z" fill="url(#paint38_linear_14_3645)"/>
<path d="M133.166 106.381C76.4668 91.3767 33.3728 65.657 35.1491 48.2562C41.1305 31.9445 90.4296 30.6987 147.129 45.7029C203.828 60.7072 246.922 86.4269 245.108 103.818C239.164 120.139 189.828 121.376 133.166 106.381Z" fill="#01BA5D"/>
<path d="M262.068 107.869C259.319 118.121 244.437 124.579 220.157 126.114C194.982 127.678 163.073 123.706 130.286 114.914C97.4991 106.123 67.8607 93.6814 46.8681 79.648C26.5855 66.2769 16.9286 53.1259 19.6775 42.8743C22.4263 32.6228 37.303 26.185 61.613 24.6586C86.7879 23.0946 118.697 27.0666 151.484 35.8581C184.271 44.6496 213.91 57.0912 234.902 71.1246C255.157 84.6005 264.811 97.6385 262.068 107.869ZM265.595 108.815C271.778 85.7541 221.017 51.9185 152.131 33.4472C83.2445 14.976 22.3646 18.8761 16.1811 41.9368C9.99753 64.9975 60.7589 98.8332 129.645 117.304C198.532 135.776 259.411 131.876 265.595 108.815Z" fill="url(#paint39_radial_14_3645)"/>
<path d="M126.471 70.0915C127.834 70.8402 128.821 71.8 129.432 72.9709C130.057 74.1331 130.194 75.4492 129.841 76.9192L129.763 77.244C129.241 79.4206 128.071 80.8814 126.254 81.6264C124.447 82.3742 122.16 82.4159 119.39 81.7517L108.006 79.0212L113.886 54.5094L124.142 56.9694C126.877 57.6254 128.896 58.6762 130.2 60.1218C131.505 61.5675 131.912 63.3102 131.423 65.35L131.349 65.6577C130.761 68.1077 129.151 69.523 126.517 69.9035L126.471 70.0915ZM115.148 75.4738L120.447 76.7448C121.324 76.9553 122.056 76.9198 122.641 76.6385C123.23 76.3458 123.625 75.7778 123.827 74.9346L123.852 74.832C124.246 73.191 123.514 72.1478 121.656 71.7023L116.357 70.4313L115.148 75.4738ZM117.53 65.5426L122.025 66.6209C122.857 66.8204 123.552 66.7882 124.109 66.5242C124.667 66.2602 125.036 65.7522 125.216 65.0001L125.241 64.8975C125.424 64.134 125.31 63.5041 124.899 63.0078C124.487 62.5115 123.837 62.1567 122.949 61.9435L118.641 60.9103L117.53 65.5426ZM142.576 83.1373C144.593 83.6211 146.56 83.6591 148.478 83.2513L149.043 87.5265C146.746 88.1084 143.946 88.003 140.641 87.2104L140.572 87.194C137.598 86.4806 135.413 85.167 134.016 83.2533C132.622 81.3281 132.265 78.9468 132.946 76.1093L133.11 75.4256C133.787 72.5995 135.133 70.6325 137.146 69.5246C139.171 68.4195 141.579 68.2018 144.371 68.8714L144.439 68.8878C147.448 69.6094 149.518 70.9497 150.651 72.9086C151.796 74.8702 152.021 77.2983 151.326 80.1927L150.9 81.9704L138.576 79.0143C138.566 80.0604 138.865 80.9216 139.474 81.598C140.095 82.277 141.106 82.7847 142.508 83.1209L142.576 83.1373ZM139.36 75.4425L145.941 77.021C146.16 76.1094 146.074 75.3115 145.684 74.6274C145.307 73.9346 144.55 73.4516 143.41 73.1782L143.342 73.1618C141.496 72.719 140.168 73.4793 139.36 75.4425ZM153.436 76.1435L154.511 71.6651L158.305 72.5753L159.17 68.9686L165.197 68.7873L163.963 73.9324L170.339 75.4616L169.265 79.9401L162.889 78.4108L161.241 85.2823C161.069 86.0002 161.155 86.5693 161.5 86.9895C161.848 87.3983 162.501 87.7175 163.458 87.9471L163.526 87.9635C164.483 88.1931 165.611 88.2406 166.908 88.1059L166.814 92.494C165.205 92.7709 163.369 92.662 161.307 92.1672L161.238 92.1508C156.429 90.9974 154.498 88.4492 155.444 84.5064L157.231 77.0537L153.436 76.1435Z" fill="white"/>
<defs>
<linearGradient id="paint0_linear_14_3645" x1="44.7045" y1="69.2029" x2="281.942" y2="132.816" gradientUnits="userSpaceOnUse">
<stop stop-color="#FF8800"/>
<stop offset="0.19" stop-color="#FFA100"/>
<stop offset="0.69" stop-color="#FFCE00"/>
<stop offset="1" stop-color="#FFDD00"/>
</linearGradient>
<radialGradient id="paint1_radial_14_3645" cx="0" cy="0" r="1" gradientUnits="userSpaceOnUse" gradientTransform="translate(156.552 55.8147) rotate(105.01) scale(342.564 147.406)">
<stop stop-color="#FCFF63"/>
<stop offset="1" stop-color="#FCDF60"/>
</radialGradient>
<radialGradient id="paint2_radial_14_3645" cx="0" cy="0" r="1" gradientUnits="userSpaceOnUse" gradientTransform="translate(156.555 55.8154) rotate(105.01) scale(342.564 147.402)">
<stop stop-color="#FCFF63"/>
<stop offset="1" stop-color="#FCDF60"/>
</radialGradient>
<radialGradient id="paint3_radial_14_3645" cx="0" cy="0" r="1" gradientUnits="userSpaceOnUse" gradientTransform="translate(156.555 55.8155) rotate(105.01) scale(342.564 147.402)">
<stop stop-color="#FCFF63"/>
<stop offset="1" stop-color="#FCDF60"/>
</radialGradient>
<radialGradient id="paint4_radial_14_3645" cx="0" cy="0" r="1" gradientUnits="userSpaceOnUse" gradientTransform="translate(156.555 55.8154) rotate(105.01) scale(342.564 147.402)">
<stop stop-color="#FCFF63"/>
<stop offset="1" stop-color="#FCDF60"/>
</radialGradient>
<radialGradient id="paint5_radial_14_3645" cx="0" cy="0" r="1" gradientUnits="userSpaceOnUse" gradientTransform="translate(156.555 55.8153) rotate(105.01) scale(342.564 147.402)">
<stop stop-color="#FCFF63"/>
<stop offset="1" stop-color="#FCDF60"/>
</radialGradient>
<radialGradient id="paint6_radial_14_3645" cx="0" cy="0" r="1" gradientUnits="userSpaceOnUse" gradientTransform="translate(156.553 55.8149) rotate(105.01) scale(342.564 147.406)">
<stop stop-color="#FCFF63"/>
<stop offset="1" stop-color="#FCDF60"/>
</radialGradient>
<radialGradient id="paint7_radial_14_3645" cx="0" cy="0" r="1" gradientUnits="userSpaceOnUse" gradientTransform="translate(156.555 55.8153) rotate(105.01) scale(342.564 147.402)">
<stop stop-color="#FCFF63"/>
<stop offset="1" stop-color="#FCDF60"/>
</radialGradient>
<radialGradient id="paint8_radial_14_3645" cx="0" cy="0" r="1" gradientUnits="userSpaceOnUse" gradientTransform="translate(156.553 55.815) rotate(105.01) scale(342.564 147.406)">
<stop stop-color="#FCFF63"/>
<stop offset="1" stop-color="#FCDF60"/>
</radialGradient>
<radialGradient id="paint9_radial_14_3645" cx="0" cy="0" r="1" gradientUnits="userSpaceOnUse" gradientTransform="translate(156.555 55.8153) rotate(105.01) scale(342.564 147.402)">
<stop stop-color="#FCFF63"/>
<stop offset="1" stop-color="#FCDF60"/>
</radialGradient>
<radialGradient id="paint10_radial_14_3645" cx="0" cy="0" r="1" gradientUnits="userSpaceOnUse" gradientTransform="translate(156.555 55.8153) rotate(105.01) scale(342.564 147.402)">
<stop stop-color="#FCFF63"/>
<stop offset="1" stop-color="#FCDF60"/>
</radialGradient>
<radialGradient id="paint11_radial_14_3645" cx="0" cy="0" r="1" gradientUnits="userSpaceOnUse" gradientTransform="translate(156.555 55.8153) rotate(105.01) scale(342.564 147.402)">
<stop stop-color="#FCFF63"/>
<stop offset="1" stop-color="#FCDF60"/>
</radialGradient>
<radialGradient id="paint12_radial_14_3645" cx="0" cy="0" r="1" gradientUnits="userSpaceOnUse" gradientTransform="translate(156.555 55.8153) rotate(105.01) scale(342.564 147.402)">
<stop stop-color="#FCFF63"/>
<stop offset="1" stop-color="#FCDF60"/>
</radialGradient>
<radialGradient id="paint13_radial_14_3645" cx="0" cy="0" r="1" gradientUnits="userSpaceOnUse" gradientTransform="translate(156.554 55.815) rotate(105.01) scale(342.564 147.406)">
<stop stop-color="#FCFF63"/>
<stop offset="1" stop-color="#FCDF60"/>
</radialGradient>
<radialGradient id="paint14_radial_14_3645" cx="0" cy="0" r="1" gradientUnits="userSpaceOnUse" gradientTransform="translate(156.555 55.8152) rotate(105.01) scale(342.564 147.402)">
<stop stop-color="#FCFF63"/>
<stop offset="1" stop-color="#FCDF60"/>
</radialGradient>
<radialGradient id="paint15_radial_14_3645" cx="0" cy="0" r="1" gradientUnits="userSpaceOnUse" gradientTransform="translate(156.554 55.8151) rotate(105.01) scale(342.564 147.406)">
<stop stop-color="#FCFF63"/>
<stop offset="1" stop-color="#FCDF60"/>
</radialGradient>
<radialGradient id="paint16_radial_14_3645" cx="0" cy="0" r="1" gradientUnits="userSpaceOnUse" gradientTransform="translate(156.555 55.8153) rotate(105.01) scale(342.564 147.402)">
<stop stop-color="#FCFF63"/>
<stop offset="1" stop-color="#FCDF60"/>
</radialGradient>
<radialGradient id="paint17_radial_14_3645" cx="0" cy="0" r="1" gradientUnits="userSpaceOnUse" gradientTransform="translate(156.555 55.8152) rotate(105.01) scale(342.564 147.402)">
<stop stop-color="#FCFF63"/>
<stop offset="1" stop-color="#FCDF60"/>
</radialGradient>
<radialGradient id="paint18_radial_14_3645" cx="0" cy="0" r="1" gradientUnits="userSpaceOnUse" gradientTransform="translate(156.554 55.8151) rotate(105.01) scale(342.564 147.402)">
<stop stop-color="#FCFF63"/>
<stop offset="1" stop-color="#FCDF60"/>
</radialGradient>
<radialGradient id="paint19_radial_14_3645" cx="0" cy="0" r="1" gradientUnits="userSpaceOnUse" gradientTransform="translate(156.554 55.8151) rotate(105.01) scale(342.564 147.402)">
<stop stop-color="#FCFF63"/>
<stop offset="1" stop-color="#FCDF60"/>
</radialGradient>
<radialGradient id="paint20_radial_14_3645" cx="0" cy="0" r="1" gradientUnits="userSpaceOnUse" gradientTransform="translate(156.555 55.8155) rotate(105.01) scale(342.564 147.406)">
<stop stop-color="#FCFF63"/>
<stop offset="1" stop-color="#FCDF60"/>
</radialGradient>
<radialGradient id="paint21_radial_14_3645" cx="0" cy="0" r="1" gradientUnits="userSpaceOnUse" gradientTransform="translate(156.554 55.8153) rotate(105.01) scale(342.564 147.402)">
<stop stop-color="#FCFF63"/>
<stop offset="1" stop-color="#FCDF60"/>
</radialGradient>
<radialGradient id="paint22_radial_14_3645" cx="0" cy="0" r="1" gradientUnits="userSpaceOnUse" gradientTransform="translate(156.555 55.8154) rotate(105.01) scale(342.564 147.406)">
<stop stop-color="#FCFF63"/>
<stop offset="1" stop-color="#FCDF60"/>
</radialGradient>
<radialGradient id="paint23_radial_14_3645" cx="0" cy="0" r="1" gradientUnits="userSpaceOnUse" gradientTransform="translate(156.554 55.8152) rotate(105.01) scale(342.564 147.402)">
<stop stop-color="#FCFF63"/>
<stop offset="1" stop-color="#FCDF60"/>
</radialGradient>
<radialGradient id="paint24_radial_14_3645" cx="0" cy="0" r="1" gradientUnits="userSpaceOnUse" gradientTransform="translate(156.554 55.8152) rotate(105.01) scale(342.564 147.402)">
<stop stop-color="#FCFF63"/>
<stop offset="1" stop-color="#FCDF60"/>
</radialGradient>
<radialGradient id="paint25_radial_14_3645" cx="0" cy="0" r="1" gradientUnits="userSpaceOnUse" gradientTransform="translate(156.554 55.8153) rotate(105.01) scale(342.564 147.402)">
<stop stop-color="#FCFF63"/>
<stop offset="1" stop-color="#FCDF60"/>
</radialGradient>
<radialGradient id="paint26_radial_14_3645" cx="0" cy="0" r="1" gradientUnits="userSpaceOnUse" gradientTransform="translate(156.554 55.8152) rotate(105.01) scale(342.564 147.402)">
<stop stop-color="#FCFF63"/>
<stop offset="1" stop-color="#FCDF60"/>
</radialGradient>
<radialGradient id="paint27_radial_14_3645" cx="0" cy="0" r="1" gradientUnits="userSpaceOnUse" gradientTransform="translate(156.554 55.8149) rotate(105.01) scale(342.564 147.402)">
<stop stop-color="#FCFF63"/>
<stop offset="1" stop-color="#FCDF60"/>
</radialGradient>
<radialGradient id="paint28_radial_14_3645" cx="0" cy="0" r="1" gradientUnits="userSpaceOnUse" gradientTransform="translate(156.554 55.8152) rotate(105.01) scale(342.564 147.402)">
<stop stop-color="#FCFF63"/>
<stop offset="1" stop-color="#FCDF60"/>
</radialGradient>
<radialGradient id="paint29_radial_14_3645" cx="0" cy="0" r="1" gradientUnits="userSpaceOnUse" gradientTransform="translate(156.556 55.8158) rotate(105.01) scale(342.564 147.406)">
<stop stop-color="#FCFF63"/>
<stop offset="1" stop-color="#FCDF60"/>
</radialGradient>
<radialGradient id="paint30_radial_14_3645" cx="0" cy="0" r="1" gradientUnits="userSpaceOnUse" gradientTransform="translate(156.554 55.8152) rotate(105.01) scale(342.564 147.402)">
<stop stop-color="#FCFF63"/>
<stop offset="1" stop-color="#FCDF60"/>
</radialGradient>
<radialGradient id="paint31_radial_14_3645" cx="0" cy="0" r="1" gradientUnits="userSpaceOnUse" gradientTransform="translate(156.556 55.8159) rotate(105.01) scale(342.564 147.406)">
<stop stop-color="#FCFF63"/>
<stop offset="1" stop-color="#FCDF60"/>
</radialGradient>
<radialGradient id="paint32_radial_14_3645" cx="0" cy="0" r="1" gradientUnits="userSpaceOnUse" gradientTransform="translate(156.554 55.8151) rotate(105.01) scale(342.564 147.402)">
<stop stop-color="#FCFF63"/>
<stop offset="1" stop-color="#FCDF60"/>
</radialGradient>
<radialGradient id="paint33_radial_14_3645" cx="0" cy="0" r="1" gradientUnits="userSpaceOnUse" gradientTransform="translate(156.523 55.8068) rotate(105.01) scale(342.564 147.402)">
<stop stop-color="#FCFF63"/>
<stop offset="1" stop-color="#FCDF60"/>
</radialGradient>
<radialGradient id="paint34_radial_14_3645" cx="0" cy="0" r="1" gradientUnits="userSpaceOnUse" gradientTransform="translate(156.554 55.8151) rotate(105.01) scale(342.564 147.402)">
<stop stop-color="#FCFF63"/>
<stop offset="1" stop-color="#FCDF60"/>
</radialGradient>
<radialGradient id="paint35_radial_14_3645" cx="0" cy="0" r="1" gradientUnits="userSpaceOnUse" gradientTransform="translate(156.554 55.815) rotate(105.01) scale(342.564 147.402)">
<stop stop-color="#FCFF63"/>
<stop offset="1" stop-color="#FCDF60"/>
</radialGradient>
<radialGradient id="paint36_radial_14_3645" cx="0" cy="0" r="1" gradientUnits="userSpaceOnUse" gradientTransform="translate(153.528 67.1023) rotate(105.01) scale(100.754 147.403)">
<stop stop-color="#FCFF63"/>
<stop offset="1" stop-color="#FCDF60"/>
</radialGradient>
<linearGradient id="paint37_linear_14_3645" x1="131.905" y1="108.877" x2="155.318" y2="21.5605" gradientUnits="userSpaceOnUse">
<stop stop-color="#FF8800"/>
<stop offset="0.19" stop-color="#FFA100"/>
<stop offset="0.69" stop-color="#FFCE00"/>
<stop offset="1" stop-color="#FFDD00"/>
</linearGradient>
<linearGradient id="paint38_linear_14_3645" x1="144.241" y1="58.2525" x2="133.313" y2="99.5484" gradientUnits="userSpaceOnUse">
<stop stop-color="#FF8800"/>
<stop offset="0.19" stop-color="#FFA100"/>
<stop offset="0.69" stop-color="#FFCE00"/>
<stop offset="1" stop-color="#FFDD00"/>
</linearGradient>
<radialGradient id="paint39_radial_14_3645" cx="0" cy="0" r="1" gradientUnits="userSpaceOnUse" gradientTransform="translate(153.528 67.1024) rotate(105.01) scale(100.754 147.403)">
<stop stop-color="#FCFF63"/>
<stop offset="1" stop-color="#FCDF60"/>
</radialGradient>
</defs>
</svg>
