<svg width="104" height="159" viewBox="0 0 104 159" fill="none" xmlns="http://www.w3.org/2000/svg">
<path d="M88.2446 65.207C88.1433 65.2061 88.0423 65.1963 87.9427 65.1779C87.6788 65.1217 87.4357 64.9931 87.2408 64.8065C87.046 64.6198 86.9072 64.3825 86.8397 64.1213C86.2293 61.7028 85.0891 59.4502 83.5016 57.5263C83.3021 57.2836 83.1863 56.9829 83.1716 56.669C83.157 56.3551 83.2442 56.0449 83.4202 55.7847C84.9819 53.4973 88.5176 47.7209 87.6351 43.5932C87.4968 42.9282 87.2181 42.3004 86.8176 41.7518C86.4171 41.2031 85.9041 40.7463 85.313 40.4119C84.2233 39.7075 82.9586 39.3215 81.6613 39.2972C81.1885 39.3 80.7174 39.3545 80.2564 39.4598C79.9965 39.5151 79.7263 39.4984 79.4752 39.4112C79.2241 39.3241 79.0015 39.17 78.8317 38.9655C78.6619 38.761 78.5512 38.514 78.5117 38.2511C78.4722 37.9883 78.5053 37.7197 78.6075 37.4743L78.9559 36.708C79.5364 35.3785 80.117 34.0026 80.6453 32.5687C80.6761 32.4867 80.7129 32.4071 80.7556 32.3307C80.9294 32.0314 81.1234 31.7443 81.3362 31.4714C81.4726 31.3083 81.6431 31.177 81.8356 31.0867C82.0282 30.9965 82.2381 30.9495 82.4508 30.949H82.5321C86.1952 31.2013 89.6689 32.6705 92.4014 35.1231C98.9964 40.7776 97.6262 54.2811 89.3941 64.638C89.2589 64.8146 89.0848 64.9577 88.8855 65.0563C88.6862 65.155 88.467 65.2065 88.2446 65.207Z" fill="#9FA9B2"/>
<path d="M82.4389 32.4177C85.7802 32.6546 88.9462 34.0035 91.4317 36.2493C97.121 41.1201 96.1457 53.805 88.2387 63.7555C87.5709 61.1315 86.3319 58.6873 84.6103 56.5974C87.1298 52.8993 92.7379 43.2449 86.0616 39.181C84.7442 38.3339 83.2155 37.8732 81.6494 37.8516C81.0632 37.8504 80.4788 37.9166 79.9078 38.049C80.5754 36.4815 81.2951 34.8386 81.9454 33.0969C82.0831 32.8598 82.2404 32.6345 82.4156 32.4235M82.4156 29.5208C81.9916 29.5211 81.5729 29.6142 81.1888 29.7938C80.8046 29.9733 80.4643 30.2348 80.1921 30.5599C79.9151 30.8919 79.6646 31.2452 79.4432 31.6165C79.3557 31.7664 79.282 31.9237 79.2226 32.0868C78.7059 33.4801 78.1253 34.8327 77.568 36.1506L77.2372 36.9227C77.0441 37.3652 76.9644 37.849 77.0053 38.3301C77.0463 38.8112 77.2065 39.2744 77.4716 39.6779C77.7368 40.0814 78.0985 40.4124 78.5239 40.6409C78.9492 40.8694 79.4249 40.9882 79.9078 40.9865C80.1206 40.9863 80.3327 40.9629 80.5405 40.9169C80.8966 40.835 81.2607 40.7922 81.6262 40.7892C82.6592 40.8095 83.6655 41.1214 84.5289 41.689C84.9534 41.9204 85.3221 42.2419 85.6089 42.6311C85.8958 43.0203 86.0938 43.4676 86.1892 43.9415C86.7233 46.4146 85.2313 50.5539 82.1951 55.0067C81.842 55.5272 81.6675 56.1482 81.6979 56.7764C81.7283 57.4046 81.9618 58.006 82.3635 58.49C83.8123 60.2509 84.8532 62.3108 85.4113 64.5218C85.5472 65.0432 85.8256 65.5165 86.2153 65.8887C86.6049 66.2609 87.0902 66.5173 87.6173 66.6292C87.8079 66.6716 88.0026 66.6931 88.1978 66.6931C88.6344 66.6926 89.0651 66.5937 89.4581 66.4038C89.8512 66.2138 90.1964 65.9376 90.4679 65.5958C99.176 54.6584 100.453 40.226 93.2836 34.078C90.3105 31.422 86.5379 29.8309 82.5608 29.5556L82.4156 29.5208Z" fill="#001477"/>
<path d="M35.8157 43.4714C35.535 43.4704 35.2607 43.3877 35.0262 43.2334C34.7991 43.0887 34.6177 42.8827 34.5026 42.6393C34.3876 42.3958 34.3436 42.1248 34.3759 41.8575C35.8041 29.3816 44.0536 18.8389 52.3728 18.8389C52.6225 18.8389 52.8721 18.8389 53.1218 18.8389C56.7841 19.0402 60.2749 20.4558 63.0432 22.862C63.2127 23.0123 63.3443 23.2006 63.427 23.4115C63.5098 23.6224 63.5416 23.8499 63.5194 24.0754C63.4897 24.4259 63.4313 24.7735 63.3451 25.1146C63.3238 25.1992 63.2928 25.281 63.2524 25.3584C62.6196 26.7401 62.0913 28.1218 61.5108 29.457L61.1972 30.235C61.0974 30.4826 60.9313 30.698 60.7173 30.8577C60.5033 31.0175 60.2495 31.1153 59.9837 31.1406H59.8502C59.6059 31.14 59.3658 31.0781 59.1517 30.9604C58.9377 30.8427 58.7567 30.6731 58.6253 30.4672C58.1495 29.7217 57.5276 29.0802 56.7972 28.5813C56.0669 28.0824 55.2434 27.7365 54.3758 27.5645C53.9958 27.4708 53.6061 27.4221 53.2147 27.4193C48.2337 27.4193 45.2728 36.0172 44.3033 41.1028C44.2418 41.4102 44.0826 41.6894 43.8492 41.8987C43.6158 42.108 43.3209 42.2361 43.0087 42.2639C42.2424 42.3335 41.5456 42.3394 40.8722 42.3452C39.2699 42.3452 38.0101 42.3451 36.5414 43.2276C36.3262 43.3734 36.0752 43.4577 35.8157 43.4714Z" fill="#9FA9B2"/>
<path d="M52.3786 20.2902C52.5934 20.2902 52.808 20.2902 53.0169 20.2902C56.3609 20.4607 59.5515 21.7463 62.0795 23.9418C62.0571 24.2163 62.0103 24.4883 61.94 24.7546C61.1679 26.444 60.512 28.116 59.8792 29.695C59.3024 28.7924 58.5506 28.0145 57.6681 27.4072C56.7857 26.8 55.7904 26.3757 54.7413 26.1595C54.2435 26.0373 53.7328 25.975 53.2202 25.9738C46.6716 25.9738 43.6645 36.7487 42.8866 40.8357C40.3322 41.0679 38.3002 40.5396 35.8155 41.9968C37.2262 29.7241 45.1043 20.267 52.3786 20.267M52.3786 17.3643C43.1943 17.3643 34.4688 28.2669 32.9303 41.6659C32.8835 42.0739 32.9238 42.4872 33.0485 42.8786C33.1733 43.2699 33.3796 43.6303 33.654 43.9359C33.9284 44.2415 34.2643 44.4855 34.6399 44.6516C35.0155 44.8177 35.4223 44.9022 35.833 44.8995C36.3486 44.8978 36.8547 44.7617 37.3017 44.5048C38.3815 43.8662 39.2349 43.8313 40.9069 43.8197C41.5803 43.8197 42.3409 43.8197 43.1653 43.7326C43.7897 43.6771 44.3795 43.4208 44.8462 43.0023C45.313 42.5837 45.6315 42.0252 45.7545 41.4104C46.6717 36.5803 49.5165 28.9113 53.2378 28.9113C53.5215 28.9131 53.8038 28.9482 54.0794 29.0158C54.7639 29.1477 55.4149 29.4162 55.9934 29.8052C56.5719 30.1942 57.0663 30.6958 57.4467 31.2799C57.708 31.6936 58.0695 32.0345 58.4978 32.271C58.9261 32.5075 59.4072 32.6319 59.8965 32.6326H60.1578C60.6902 32.5848 61.199 32.3909 61.6282 32.0724C62.0574 31.7538 62.3904 31.3228 62.5903 30.8271L62.8978 30.0492C63.4319 28.7256 63.9778 27.3612 64.5989 26.0144C64.6682 25.854 64.7262 25.6892 64.773 25.5209C64.8779 25.1032 64.9518 24.6782 64.9938 24.2495C65.0337 23.7993 64.9676 23.346 64.8013 22.9257C64.635 22.5054 64.3728 22.1297 64.0357 21.8287C61.0318 19.2085 57.2407 17.6642 53.261 17.4397C52.9765 17.4397 52.6803 17.4049 52.3959 17.4049L52.3786 17.3643Z" fill="#001477"/>
<path d="M39.2871 156.707C36.1696 156.637 29.1741 154.878 22.6546 152.527H22.6197C4.71568 146.071 1.68528 140.109 1.47628 137.125C1.09893 131.819 5.88266 130.031 10.5096 128.307C15.6706 126.373 21 124.382 21.9521 117.909C22.1263 115.233 21.2149 111.128 20.1583 106.379C17.929 96.365 14.8694 82.6525 18.5675 68.2434C23.6589 48.3946 30.9913 38.7459 40.9999 38.7459H41.4293C42.2034 38.7691 42.9523 38.7807 43.6761 38.7807C50.5033 38.7807 53.0171 37.6661 54.8864 33.8229L54.9619 33.6777C57.284 28.8824 59.5076 24.3542 58.9735 21.4398C58.7877 20.4355 57.5685 19.8491 55.734 19.077C53.8995 18.3049 52.1231 17.5502 51.4729 15.7621C50.3408 12.6562 51.7167 6.18312 52.634 2.60696C52.7192 2.29142 52.9056 2.01259 53.1647 1.81331C53.4237 1.61404 53.741 1.50532 54.0678 1.50391C54.4451 1.50391 54.7182 1.50392 60.1927 3.76805C65.1041 5.79415 72.5698 8.99294 79.7918 12.0466C89.127 16.0175 99.6755 20.511 101.208 20.9986C101.522 21.031 101.818 21.1602 102.055 21.3682C102.292 21.5762 102.459 21.8528 102.532 22.1597C102.81 23.3673 101.522 26.6822 100.999 27.8607C100.018 30.0726 98.375 32.9405 96.1108 34.0377C95.6552 34.2574 95.1535 34.3649 94.6479 34.3512C93.3052 34.2449 91.9851 33.9438 90.7292 33.4571C89.1733 32.9521 87.4028 32.3831 85.9456 32.3831C85.502 32.3497 85.0566 32.4187 84.6439 32.5848C84.2312 32.7509 83.8621 33.0096 83.5653 33.341C83.467 33.4593 83.3761 33.5834 83.2926 33.7126C82.7527 35.1639 82.1661 36.5282 81.5972 37.8518L81.2837 38.595C78.6074 44.8416 77.3708 48.5861 82.9034 52.8938C83.9461 53.7102 84.8999 54.6346 85.7483 55.6514C87.6058 57.9044 88.9402 60.5416 89.6554 63.3726C91.2345 69.4103 91.1647 79.5408 81.8353 93.5261C73.191 106.484 60.5178 115.099 52.9475 120.231C49.8648 122.333 47.2001 124.144 46.4396 125.166C44.9883 127.128 40.4832 134.193 43.6007 142.762C45.47 147.9 46.7589 152.051 44.9766 154.582C43.9955 155.993 42.248 156.672 39.6471 156.672L39.2871 156.707Z" fill="#E2EAED"/>
<path d="M54.0679 2.94918C55.9622 3.5687 57.8226 4.28764 59.6412 5.103C71.9197 10.1712 100.192 22.4439 101.034 22.4439H101.069C101.545 22.4439 99.1473 30.9779 95.4783 32.7544C95.2196 32.878 94.9343 32.9358 94.648 32.9227C92.6451 32.9227 88.9993 30.9547 85.9398 30.9547C85.2859 30.9199 84.6326 31.0339 84.0292 31.2884C83.4258 31.5428 82.8881 31.9309 82.4565 32.4235C82.2813 32.6345 82.1243 32.8598 81.9865 33.0969C81.3363 34.8385 80.6163 36.4815 79.9487 38.0489C77.3478 44.1273 75.5422 49.0271 82.0095 54.0662C82.9712 54.8149 83.8493 55.6655 84.6279 56.6032C86.3496 58.693 87.5885 61.1372 88.2563 63.7613C90.1663 71.0645 88.4536 81.0093 80.6279 92.7421C68.3784 111.105 48.2219 120.37 45.2727 124.341C42.3235 128.312 39.3802 135.435 42.2365 143.296C45.0521 151.029 45.9114 155.261 39.6473 155.261H39.3221C36.582 155.197 29.9811 153.636 23.1423 151.168C13.4646 147.685 3.30499 142.39 2.92183 137.02C2.27742 127.848 21.447 131.714 23.3977 118.054C24.013 109.41 14.556 89.7233 19.9725 68.5972C25.3077 47.7963 32.5472 40.1912 41 40.1912H41.3889C42.1901 40.1912 42.9563 40.226 43.6762 40.226C50.6892 40.226 53.9461 39.0649 56.1928 34.4554C58.6775 29.364 61.0229 24.5861 60.4018 21.1725C59.7806 17.7589 53.7894 17.8808 52.8547 15.2567C51.92 12.6327 53.1565 6.47889 54.0563 2.96078C54.0563 2.96078 54.0565 2.96078 54.0855 2.96078M54.0855 0.0580581C53.4323 0.0520372 52.796 0.266547 52.2798 0.666879C51.7636 1.06721 51.3974 1.62997 51.2406 2.26414C50.0795 6.82142 48.9185 12.9636 50.126 16.2611C50.9968 18.6471 53.3191 19.6282 55.1885 20.4178C55.949 20.7371 57.3654 21.3409 57.5628 21.7124C58.0098 24.1507 55.8214 28.6789 53.6733 33.0446L53.6036 33.1956C52.1116 36.2493 50.393 37.3349 43.6935 37.3349C43.0201 37.3349 42.3003 37.3349 41.4876 37.3001H41.0173C35.6646 37.3001 30.9622 39.8254 27.0493 44.8123C23.1364 49.7992 19.868 57.3985 17.1801 67.889C13.3949 82.6348 16.4951 96.5447 18.7593 106.704C19.781 111.302 20.6693 115.291 20.5009 117.735C19.7114 122.925 15.8216 124.748 9.99297 126.925C5.34861 128.666 -0.427772 130.826 0.0250536 137.212C0.268883 140.695 2.86984 143.969 7.97864 147.232C12.5359 150.135 18.1846 152.457 22.1323 153.879C28.8898 156.312 35.92 158.065 39.2292 158.135H39.6184C44.2627 158.135 45.6676 156.097 46.1379 155.429C48.3207 152.306 46.9563 147.818 44.936 142.274C42.0681 134.39 46.2307 127.854 47.5776 126.019C48.1872 125.195 51.0086 123.273 53.7371 121.421C61.3945 116.196 74.213 107.488 83.0141 94.298C88.3261 86.3329 94.0442 74.4375 91.0312 62.9776C90.2624 59.9395 88.8288 57.11 86.8339 54.6932C85.9172 53.5975 84.8878 52.6012 83.7628 51.7208C79.2461 48.2027 79.8151 45.6193 82.6017 39.1346L82.9268 38.374C83.4725 37.091 84.0416 35.7674 84.5757 34.3509C84.6035 34.3097 84.6344 34.2708 84.6684 34.2348C84.7962 34.0838 85.0283 33.8052 85.9282 33.8052C87.1589 33.8052 88.831 34.3392 90.265 34.8095C91.6648 35.344 93.1359 35.6688 94.6307 35.7732C95.3686 35.7861 96.099 35.6229 96.7612 35.2972C98.8802 34.2522 100.75 31.9416 102.306 28.4177C102.793 27.3205 104.343 23.605 103.931 21.8053C103.802 21.2289 103.504 20.7043 103.075 20.2987C102.645 19.8932 102.105 19.6253 101.522 19.5296C99.6583 18.8793 89.4175 14.5194 80.3436 10.6588C73.1158 7.58193 65.644 4.40053 60.7326 2.37443C54.991 -2.2146e-06 54.7183 0 54.0506 0L54.0855 0.0580581Z" fill="#001477"/>
<path d="M23.1424 151.163C13.4648 147.679 3.30517 142.385 2.92201 137.015C2.2776 127.842 21.4472 131.708 23.3979 118.048C24.0132 109.404 14.5562 89.7176 19.9727 68.5916C25.3892 47.4656 32.7448 39.9533 41.3891 40.1913C50.0334 40.4294 53.7141 39.5469 56.193 34.4555C58.6719 29.3642 61.0231 24.5863 60.4019 21.1727C59.7808 17.7591 53.7895 17.881 52.8549 15.2569C51.9202 12.6328 53.1566 6.47906 54.0565 2.96096C54.0855 2.84485 56.2625 3.69825 59.6587 5.10317C58.7821 6.63581 57.7896 10.1655 62.6371 15.106C69.2495 21.8403 69.4119 28.2553 62.933 39.9127C56.4542 51.57 46.016 44.4235 37.4472 55.4481C28.8783 66.4726 24.2108 78.8789 27.6825 94.8903C31.1542 110.902 37.2613 129.665 27.7287 135.349C18.1961 141.032 12.861 142.501 23.1541 151.163H23.1424Z" fill="#BCC6C9"/>
</svg>
