<svg width="213" height="115" viewBox="0 0 213 115" fill="none" xmlns="http://www.w3.org/2000/svg">
<path fill-rule="evenodd" clip-rule="evenodd" d="M19.487 112.568C18.4746 112.537 17.5023 112.166 16.7275 111.514C15.9526 110.861 15.4205 109.967 15.2175 108.974L12.5406 96.159C12.4974 95.9642 12.4996 95.7619 12.5472 95.5681C12.5948 95.3743 12.6866 95.194 12.8151 95.0413C12.9403 94.889 13.0977 94.7663 13.2759 94.6819C13.454 94.5974 13.6486 94.5533 13.8457 94.5528L32.617 94.8474C32.8193 94.8518 33.0182 94.902 33.1983 94.9943C33.3784 95.0866 33.5353 95.2187 33.6571 95.3804C33.7788 95.542 33.8622 95.7292 33.9011 95.9278C33.9401 96.1265 33.9335 96.3313 33.8819 96.527L30.4822 109.423C30.2225 110.382 29.6548 111.229 28.8664 111.833C28.078 112.438 27.1125 112.767 26.119 112.769L19.487 112.568Z" fill="#231F20"/>
<path d="M13.8583 95.8913L32.5962 96.1858L29.1897 109.081C29.0074 109.759 28.6073 110.357 28.0509 110.784C27.4945 111.211 26.8129 111.443 26.1116 111.444H26.0178L19.5198 111.236C18.8079 111.212 18.1246 110.95 17.5798 110.491C17.0349 110.032 16.6599 109.404 16.5149 108.707L13.838 95.8913M13.838 93.2144C13.4416 93.2153 13.0506 93.3043 12.6927 93.4748C12.3349 93.6454 12.0193 93.8934 11.769 94.2008C11.5186 94.5081 11.3395 94.8672 11.2448 95.2521C11.1502 95.6371 11.1423 96.0382 11.2216 96.4267L13.8985 109.242C14.1572 110.531 14.8436 111.696 15.847 112.546C16.8503 113.397 18.1115 113.883 19.426 113.926L25.924 114.134H26.1047C27.3957 114.133 28.6503 113.707 29.6739 112.92C30.6976 112.134 31.4332 111.031 31.7662 109.784L35.1724 96.8884C35.2762 96.4968 35.2899 96.0868 35.2122 95.6892C35.1346 95.2915 34.9676 94.9168 34.7241 94.593C34.4788 94.2702 34.1636 94.0073 33.8019 93.8242C33.4402 93.641 33.0418 93.5422 32.6364 93.5356L13.8985 93.2412L13.838 93.2144Z" fill="#390075"/>
<path fill-rule="evenodd" clip-rule="evenodd" d="M44.9368 111.731C43.9796 111.735 43.0459 111.434 42.272 110.87C41.4981 110.307 40.9242 109.511 40.6336 108.599L36.6184 96.1255C36.5586 95.9352 36.5423 95.7339 36.5703 95.5365C36.5984 95.339 36.6701 95.1504 36.7804 94.9842C36.8908 94.8181 37.0367 94.6787 37.2078 94.5763C37.3789 94.4738 37.571 94.4109 37.7695 94.3921L56.4539 92.7325H56.5744C56.7684 92.7303 56.9604 92.7704 57.1374 92.8498C57.3145 92.9293 57.4722 93.0462 57.5995 93.1926C57.7268 93.339 57.8205 93.5114 57.8746 93.6978C57.9287 93.8841 57.942 94.0799 57.9129 94.2717L55.865 107.448C55.7117 108.46 55.2175 109.389 54.4642 110.082C53.7109 110.774 52.7436 111.188 51.7227 111.256L45.2511 111.731H44.9368Z" fill="#231F20"/>
<path d="M56.5811 94.0978L54.5333 107.275C54.4218 107.984 54.0735 108.635 53.5448 109.121C53.0162 109.607 52.3384 109.9 51.6222 109.951L45.1444 110.426H44.9167C44.2427 110.426 43.5864 110.213 43.0417 109.816C42.497 109.419 42.092 108.86 41.8853 108.218L37.87 95.7507L56.5811 94.0978ZM56.5811 91.421H56.5076H56.3135L37.6625 93.0739C37.2641 93.1103 36.8789 93.2355 36.5352 93.4404C36.1915 93.6453 35.8983 93.9246 35.6768 94.2578C35.4553 94.591 35.3111 94.9696 35.2553 95.3658C35.1994 95.762 35.2329 96.1656 35.3536 96.5471L39.3689 109.021C39.7449 110.203 40.4883 111.235 41.4909 111.965C42.4935 112.696 43.7029 113.088 44.9435 113.083H45.3585L51.8365 112.608C53.1569 112.518 54.4069 111.98 55.3803 111.083C56.3537 110.187 56.9923 108.985 57.1902 107.676L59.1979 94.5997C59.2273 94.4318 59.2429 94.2616 59.2446 94.0911C59.2446 93.3812 58.9627 92.7003 58.4607 92.1983C57.9587 91.6963 57.2777 91.4143 56.5677 91.4143L56.5811 91.421Z" fill="#390075"/>
<path fill-rule="evenodd" clip-rule="evenodd" d="M70.052 107.971C69.2537 107.969 68.4699 107.757 67.7801 107.355C67.0902 106.953 66.5187 106.376 66.1237 105.682L60.623 95.9183C60.5173 95.7368 60.4571 95.5324 60.4478 95.3226C60.4385 95.1128 60.4802 94.9038 60.5694 94.7137C60.6563 94.5224 60.7871 94.3544 60.951 94.223C61.115 94.0916 61.3075 94.0007 61.5131 93.9575L80.8865 89.9423C80.9779 89.9357 81.0697 89.9357 81.161 89.9423C81.3524 89.9406 81.542 89.9801 81.7168 90.0579C81.8917 90.1358 82.0478 90.2503 82.1746 90.3937C82.3015 90.537 82.396 90.7059 82.452 90.8889C82.5081 91.0719 82.5243 91.2649 82.4994 91.4547L81.0205 102.737C80.9021 103.666 80.4966 104.535 79.8608 105.223C79.225 105.91 78.3906 106.382 77.4738 106.572L70.9889 107.91C70.6848 107.971 70.3756 108.003 70.0654 108.004L70.052 107.971Z" fill="#231F20"/>
<path d="M81.1613 91.2336L79.689 102.523C79.6 103.174 79.3115 103.78 78.8632 104.26C78.4149 104.739 77.8291 105.068 77.1863 105.2L70.7017 106.539C70.4817 106.585 70.2573 106.608 70.0324 106.605C69.4703 106.605 68.9181 106.455 68.4326 106.172C67.9471 105.889 67.5456 105.482 67.2687 104.993L61.7611 95.2354L81.1682 91.2202M81.1682 88.5433H81.0542C80.8895 88.5487 80.7258 88.5712 80.5657 88.6103L61.2458 92.6256C60.8351 92.7126 60.4506 92.8949 60.1234 93.1579C59.7961 93.4209 59.5353 93.7571 59.362 94.1395C59.1887 94.5218 59.1078 94.9396 59.1257 95.359C59.1437 95.7784 59.2602 96.1876 59.4656 96.5538L64.9663 106.311C65.5722 107.395 66.5092 108.256 67.6399 108.769C68.7706 109.282 70.0357 109.42 71.2503 109.162L77.7349 107.823C78.9235 107.575 80.0056 106.963 80.8307 106.072C81.6557 105.181 82.183 104.055 82.3393 102.851L83.798 91.6687C83.8249 91.5207 83.8384 91.3705 83.8382 91.2202C83.8383 90.5171 83.5617 89.8423 83.0683 89.3415C82.575 88.8406 81.9045 88.5539 81.2015 88.5433H81.1682Z" fill="#390075"/>
<path fill-rule="evenodd" clip-rule="evenodd" d="M95.8107 102.61C95.0119 102.611 94.2273 102.399 93.5371 101.997C92.8469 101.595 92.2758 101.017 91.8823 100.321L86.3747 90.5575C86.2727 90.3745 86.2151 90.1703 86.2065 89.961C86.1978 89.7517 86.2385 89.5433 86.3251 89.3526C86.4117 89.1618 86.5419 88.994 86.7051 88.8627C86.8683 88.7315 87.06 88.6404 87.2648 88.5968L106.638 84.5815C106.848 84.5375 107.065 84.5444 107.271 84.6014C107.477 84.6585 107.666 84.7641 107.823 84.9094C107.978 85.0545 108.097 85.2345 108.17 85.4347C108.242 85.6348 108.265 85.8494 108.238 86.0604L106.766 97.3501C106.644 98.2788 106.236 99.1467 105.6 99.8336C104.963 100.521 104.129 100.993 103.212 101.185L96.7276 102.523C96.4261 102.585 96.1185 102.615 95.8107 102.61Z" fill="#231F20"/>
<path d="M106.912 85.873L105.44 97.1627C105.352 97.8124 105.065 98.4189 104.618 98.8984C104.171 99.3779 103.586 99.7068 102.944 99.8395L96.4591 101.178C96.2391 101.224 96.0147 101.247 95.7899 101.245C95.227 101.243 94.6745 101.094 94.1881 100.81C93.7016 100.527 93.2986 100.121 93.0196 99.632L87.5185 89.8682L106.892 85.8529M106.892 83.1761H106.772C106.61 83.1821 106.448 83.2023 106.29 83.2364L86.9699 87.2516C86.5596 87.3381 86.1753 87.5198 85.8481 87.782C85.5209 88.0441 85.2596 88.3795 85.0858 88.7611C84.9119 89.1427 84.83 89.5596 84.8469 89.9786C84.8638 90.3976 84.9791 90.8068 85.1831 91.1731L90.6839 100.937C91.1968 101.838 91.9385 102.587 92.834 103.108C93.7294 103.63 94.7469 103.906 95.7833 103.908C96.1834 103.908 96.5823 103.867 96.9744 103.788L103.459 102.449C104.648 102.201 105.73 101.589 106.555 100.698C107.38 99.8069 107.907 98.6814 108.063 97.4772L109.522 86.2947C109.543 86.1462 109.555 85.9963 109.556 85.8462C109.556 85.1432 109.279 84.4684 108.786 83.9675C108.293 83.4666 107.622 83.1799 106.919 83.1694L106.892 83.1761Z" fill="#390075"/>
<path fill-rule="evenodd" clip-rule="evenodd" d="M161.694 88.9049C160.895 88.904 160.112 88.6919 159.422 88.2899C158.732 87.8879 158.16 87.3105 157.766 86.6162L152.258 76.8591C152.155 76.6759 152.096 76.4709 152.087 76.2608C152.077 76.0507 152.118 75.8414 152.204 75.6497C152.291 75.4581 152.422 75.2895 152.586 75.1578C152.75 75.0261 152.942 74.935 153.148 74.8916L172.555 70.8764C172.646 70.8662 172.739 70.8662 172.83 70.8764C173.02 70.8749 173.209 70.9141 173.384 70.9916C173.558 71.069 173.714 71.1829 173.841 71.3255C173.967 71.4681 174.062 71.6362 174.119 71.8184C174.175 72.0007 174.192 72.1928 174.168 72.3821L172.703 83.6716C172.579 84.6005 172.17 85.4681 171.532 86.1548C170.895 86.8416 170.06 87.3137 169.143 87.5062L162.658 88.8446C162.356 88.9092 162.049 88.9407 161.741 88.9384L161.694 88.9049Z" fill="#231F20"/>
<path d="M172.803 72.1676L171.331 83.4573C171.239 84.1065 170.949 84.7116 170.501 85.1906C170.053 85.6695 169.469 85.999 168.828 86.1341L162.336 87.4725C162.116 87.5199 161.892 87.5423 161.667 87.5394C161.105 87.5382 160.553 87.3885 160.068 87.1052C159.583 86.822 159.181 86.4154 158.903 85.9266L153.396 76.1695L172.803 72.1542M172.803 69.4774H172.689C172.525 69.486 172.361 69.5085 172.2 69.5443L152.88 73.5596C152.47 73.6466 152.085 73.8289 151.758 74.0919C151.431 74.3549 151.17 74.6911 150.997 75.0735C150.823 75.4559 150.743 75.8736 150.761 76.293C150.778 76.7124 150.895 77.1217 151.1 77.4878L156.601 87.2449C157.112 88.1459 157.852 88.8955 158.747 89.4174C159.641 89.9393 160.658 90.2149 161.694 90.2162C162.094 90.2157 162.493 90.1754 162.885 90.0958L169.37 88.7574C170.557 88.5094 171.639 87.8984 172.463 87.0087C173.288 86.119 173.816 84.9949 173.974 83.7919L175.433 72.6025C175.46 72.4546 175.473 72.3046 175.473 72.1542C175.473 71.4512 175.196 70.7763 174.703 70.2755C174.21 69.7746 173.539 69.4879 172.836 69.4774H172.803Z" fill="#390075"/>
<path fill-rule="evenodd" clip-rule="evenodd" d="M190.938 82.8216C190.141 82.821 189.358 82.6089 188.669 82.2068C187.98 81.8048 187.41 81.2271 187.017 80.533L181.509 70.7691C181.407 70.5862 181.35 70.3819 181.341 70.1726C181.332 69.9633 181.373 69.7549 181.459 69.5642C181.546 69.3735 181.676 69.2058 181.839 69.0745C182.003 68.9433 182.194 68.852 182.399 68.8084L201.806 64.7931C201.895 64.7832 201.985 64.7832 202.074 64.7931C202.411 64.7925 202.736 64.9192 202.984 65.1478C203.14 65.2929 203.259 65.4729 203.331 65.6731C203.403 65.8733 203.426 66.0878 203.399 66.2988L201.927 77.5885C201.805 78.5164 201.397 79.3833 200.761 80.0691C200.124 80.755 199.289 81.2258 198.373 81.4164L191.889 82.7548C191.587 82.8191 191.28 82.8504 190.972 82.8484L190.938 82.8216Z" fill="#231F20"/>
<path d="M202.048 66.0846L200.575 77.3743C200.486 78.0246 200.198 78.6312 199.749 79.1107C199.301 79.5901 198.715 79.9187 198.072 80.0511L191.588 81.3895C191.367 81.4329 191.143 81.4554 190.919 81.4565C190.356 81.4559 189.803 81.3063 189.316 81.0231C188.83 80.7398 188.427 80.3329 188.148 79.8436L182.647 70.0799L202.021 66.0647M202.021 63.3878H201.907C201.745 63.396 201.583 63.4183 201.425 63.4546L182.098 67.4699C181.689 67.5572 181.305 67.7395 180.978 68.002C180.652 68.2646 180.392 68.6 180.219 68.9815C180.046 69.363 179.964 69.7798 179.982 70.1984C179.999 70.6169 180.114 71.0257 180.318 71.3916L185.826 81.1552C186.436 82.2333 187.372 83.0901 188.5 83.6024C189.628 84.1146 190.889 84.256 192.103 84.0061L198.594 82.6677C199.782 82.4188 200.862 81.8075 201.687 80.918C202.512 80.0285 203.04 78.9048 203.198 77.7022L204.657 66.513C204.671 66.3638 204.671 66.2138 204.657 66.0647C204.657 65.3628 204.382 64.6889 203.89 64.1882C203.398 63.6875 202.729 63.4001 202.027 63.3878H202.021Z" fill="#390075"/>
<path fill-rule="evenodd" clip-rule="evenodd" d="M58.3949 60.2894C58.0399 60.2894 57.6996 60.1485 57.4486 59.8975C57.1976 59.6465 57.0565 59.306 57.0565 58.951L56.9094 51.5897C56.9052 51.3774 56.9513 51.1672 57.0444 50.9764C57.1375 50.7855 57.2748 50.6196 57.4447 50.4923C58.6894 49.5621 61.1185 48.0897 64.4779 46.0553C77.7082 38.0248 105.24 21.3615 117.56 2.14846C117.739 1.86916 118.016 1.66637 118.336 1.57957C118.991 1.40274 119.666 1.31281 120.344 1.31195C127.953 1.31195 135.803 12.5746 138.205 26.9426C138.255 27.2423 138.201 27.5501 138.053 27.8152C137.904 28.0804 137.67 28.2872 137.389 28.4016L58.9037 60.1489C58.7457 60.2304 58.5723 60.2783 58.3949 60.2894Z" fill="#231F20"/>
<path d="M120.33 2.69027C127.222 2.69027 134.611 13.6989 136.873 27.2035L58.3943 58.9509L58.2472 51.5896C64.3103 47.0322 103.151 27.1232 118.683 2.89106C119.221 2.75087 119.774 2.67888 120.33 2.67687M120.33 2.72891e-05C119.541 -0.00193306 118.756 0.101734 117.994 0.308002C117.351 0.480118 116.795 0.885695 116.435 1.44563C104.282 20.4044 76.9513 36.974 63.7813 44.9443C60.3884 47.0055 57.9391 48.4845 56.6409 49.4615C56.3032 49.7163 56.0308 50.0474 55.8458 50.4277C55.6609 50.8081 55.5688 51.227 55.5769 51.6498L55.7243 59.0112C55.74 59.7106 56.0288 60.376 56.5291 60.8651C57.0294 61.3541 57.7015 61.6279 58.4011 61.6277C58.7431 61.6295 59.0818 61.5635 59.3981 61.4336L137.883 29.6863C138.446 29.4575 138.915 29.044 139.211 28.5137C139.508 27.9834 139.616 27.3679 139.516 26.7685C138.358 19.8622 135.889 13.3374 132.563 8.39866C128.922 2.99813 124.579 0.0268219 120.336 0.0268219L120.33 2.72891e-05Z" fill="#390075"/>
<path fill-rule="evenodd" clip-rule="evenodd" d="M40.5933 103.661C31.7857 103.736 22.9956 102.866 14.3738 101.064C6.18939 99.2708 4.07457 93.0873 3.54589 89.5606C2.78299 84.5013 4.35564 78.793 6.89195 77.3408C9.1405 76.076 14.414 73.3255 21.7084 69.4641C30.9569 64.6057 43.6181 57.9538 57.5912 50.4251C57.8078 50.31 58.0488 50.2481 58.2941 50.2444C59.338 50.2444 59.7262 51.1546 60.0073 51.8171C60.5159 53.015 61.0109 53.9318 62.3159 53.9318C63.0721 53.9318 64.4576 53.6173 66.7396 52.1517C74.6363 47.0457 81.8035 41.712 88.1543 37.0007C99.3837 28.6356 109.087 21.4081 118.503 18.6309C120.343 18.056 122.257 17.7539 124.185 17.7341C128.675 17.7341 132.77 19.454 140.205 22.5792L143.458 23.9176C150.15 26.7015 155.999 28.0535 161.319 28.0535C172.695 28.0535 181.021 21.7896 186.783 8.90056C187.038 8.31886 187.449 7.81918 187.971 7.45659C188.493 7.094 189.105 6.88257 189.739 6.84587C190.373 6.80917 191.005 6.94861 191.565 7.24861C192.125 7.5486 192.592 7.99751 192.913 8.54586C197.236 15.9473 205.012 29.499 208.552 37.128C211.798 44.1279 212.059 54.9424 211.229 62.7253C210.944 65.3072 209.826 67.726 208.044 69.6158C206.261 71.5055 203.912 72.7632 201.351 73.1984L132.904 84.7289C130.04 85.8197 83.6771 103.661 40.5933 103.661Z" fill="#EC1C24"/>
<path d="M189.941 8.20454C190.308 8.20291 190.67 8.29875 190.988 8.48212C191.307 8.66549 191.572 8.92989 191.755 9.24855C195.643 15.9005 203.727 29.9406 207.334 37.7168C210.513 44.5628 210.68 55.1564 209.884 62.6047C209.637 64.9009 208.646 67.0534 207.062 68.734C205.478 70.4146 203.388 71.5312 201.11 71.9135L132.543 83.3904C132.543 83.3904 85.1023 102.316 40.5931 102.316C31.882 102.391 23.1881 101.529 14.6612 99.7459C1.27697 96.8014 4.10767 80.4526 7.56749 78.4918C12.6267 75.6342 33.2655 65.0407 58.2471 51.5895C58.2691 51.5836 58.2919 51.5836 58.3138 51.5895C58.8626 51.5895 59.1035 55.2702 62.3291 55.2702C63.5537 55.2702 65.2066 54.7415 67.4753 53.2626C89.2179 39.2091 104.402 24.1786 118.864 19.9023C120.583 19.3664 122.371 19.0846 124.171 19.0658C128.989 19.0658 133.627 21.3011 142.909 25.1691C148.932 27.6719 155.216 29.412 161.285 29.412C171.611 29.412 181.302 24.3728 187.967 9.46274C188.132 9.0844 188.405 8.76284 188.751 8.538C189.097 8.31316 189.502 8.19483 189.914 8.19784M189.914 5.521C188.986 5.5226 188.077 5.79259 187.298 6.29837C186.519 6.80414 185.904 7.52414 185.524 8.37184C180.003 20.7255 172.073 26.7351 161.285 26.7351C156.219 26.7351 150.384 25.3967 143.933 22.7198L140.694 21.3814C133.332 18.2897 128.909 16.4292 124.151 16.4292C122.094 16.4463 120.051 16.7666 118.088 17.3796C108.445 20.2237 98.6808 27.5114 87.3042 35.9569C80.9936 40.6413 73.8462 45.9949 65.9829 51.0541C63.7946 52.4662 62.6703 52.6201 62.2889 52.6201C61.9074 52.6201 61.7671 52.6202 61.205 51.3152C60.9039 50.6059 60.1877 48.9395 58.2671 48.9395C57.8001 48.9381 57.3401 49.0531 56.9287 49.2741C42.9555 56.8027 30.294 63.4546 21.0455 68.3131C13.7444 72.1544 8.46453 74.9316 6.2026 76.2098C3.11085 77.9565 1.30398 84.0463 2.18734 89.7814C3.18446 96.3598 7.50739 100.957 14.059 102.396C22.7728 104.219 31.6575 105.101 40.5598 105.026C83.3157 105.026 129.25 87.5663 133.225 86.0204L201.518 74.5703C204.366 74.0839 206.978 72.6841 208.961 70.5823C210.943 68.4805 212.188 65.7907 212.507 62.9192C212.922 59.0579 213.952 45.7407 209.723 36.6194C206.163 28.9502 198.346 15.3518 194.03 7.93022C193.613 7.20668 193.012 6.60645 192.288 6.19037C191.564 5.77429 190.743 5.55714 189.908 5.56119L189.914 5.521Z" fill="#390075"/>
<mask id="mask0_14_2866" style="mask-type:luminance" maskUnits="userSpaceOnUse" x="4" y="8" width="207" height="95">
<path d="M14.6611 99.7593C1.2769 96.8148 4.10759 80.466 7.56741 78.5052C12.6266 75.6477 33.2654 65.0541 58.2471 51.603C59.0635 51.1613 59.0031 58.7434 67.482 53.2693C89.2247 39.2159 104.409 24.1853 118.871 19.9091C126.326 17.714 130.388 19.956 142.962 25.1758C159.231 31.9415 177.447 33.1328 188.02 9.46946C188.177 9.11244 188.429 8.80552 188.749 8.58279C189.069 8.36007 189.444 8.23019 189.833 8.20734C190.222 8.18449 190.61 8.26964 190.954 8.45339C191.298 8.63715 191.584 8.91232 191.781 9.24857C195.669 15.9005 203.753 29.9406 207.361 37.7168C210.539 44.5629 210.707 55.1564 209.91 62.6047C209.663 64.9009 208.672 67.0534 207.088 68.734C205.504 70.4146 203.414 71.5312 201.137 71.9136L132.543 83.3905C132.543 83.3905 64.2496 110.647 14.6611 99.7593Z" fill="white"/>
</mask>
<g mask="url(#mask0_14_2866)">
<path fill-rule="evenodd" clip-rule="evenodd" d="M85.357 103.3C85.1011 103.3 84.8506 103.226 84.6352 103.088C84.4197 102.95 84.2481 102.753 84.1411 102.521C84.0341 102.289 83.9961 102.03 84.0313 101.777C84.0665 101.524 84.1735 101.286 84.3398 101.091L162.637 9.5631C162.762 9.41704 162.917 9.29969 163.092 9.21886C163.266 9.13802 163.456 9.09564 163.648 9.09469L176.082 9.00107C176.336 9.00112 176.585 9.07342 176.799 9.20971C177.014 9.34599 177.185 9.54056 177.293 9.7706C177.4 10.0035 177.438 10.2622 177.403 10.5161C177.367 10.77 177.26 11.0082 177.092 11.2026L98.7948 102.731C98.6706 102.876 98.5167 102.993 98.3435 103.074C98.1704 103.154 97.982 103.197 97.791 103.199L85.357 103.3Z" fill="#FFCA05"/>
<path d="M176.042 10.3329L97.7442 101.861L85.3239 101.961L163.622 10.4333L176.049 10.3329M176.049 7.6561L163.628 7.75641C163.247 7.7594 162.87 7.844 162.524 8.00443C162.177 8.16486 161.87 8.39751 161.621 8.68671L83.3228 100.221C82.9958 100.609 82.7855 101.081 82.7164 101.583C82.6473 102.086 82.7223 102.597 82.9327 103.059C83.143 103.52 83.48 103.912 83.9045 104.189C84.329 104.467 84.8235 104.618 85.3305 104.625L97.7576 104.524C98.1392 104.521 98.5158 104.437 98.8621 104.276C99.2083 104.116 99.5162 103.883 99.7652 103.594L178.003 12.1063C178.344 11.72 178.567 11.2433 178.645 10.7334C178.722 10.2235 178.65 9.70215 178.438 9.23208C178.226 8.76201 177.882 8.36327 177.449 8.08367C177.016 7.80407 176.511 7.65561 175.995 7.6561H176.049Z" fill="#390075"/>
<path fill-rule="evenodd" clip-rule="evenodd" d="M68.9151 103.353C68.6609 103.353 68.412 103.281 68.1975 103.144C67.983 103.008 67.8118 102.813 67.7038 102.583C67.5957 102.351 67.5563 102.093 67.5907 101.839C67.6251 101.585 67.7319 101.346 67.8979 101.151L146.196 9.62338C146.32 9.47817 146.473 9.36125 146.646 9.28045C146.82 9.19964 147.008 9.15688 147.199 9.15497L159.633 9.06119C159.888 9.06225 160.137 9.13594 160.351 9.27358C160.565 9.41122 160.736 9.60708 160.843 9.83823C160.949 10.0694 160.988 10.3263 160.954 10.5787C160.92 10.831 160.814 11.0683 160.65 11.2629L82.3526 102.791C82.2284 102.936 82.0748 103.053 81.9016 103.134C81.7285 103.215 81.5398 103.257 81.3487 103.259L68.9151 103.353Z" fill="#FFCA05"/>
<path d="M159.639 10.3931L81.3416 101.921L68.921 102.022L147.219 10.4936L159.639 10.3931ZM159.639 7.71625L147.212 7.81673C146.831 7.81971 146.454 7.90415 146.108 8.06458C145.761 8.22501 145.454 8.45766 145.205 8.74686L66.9069 100.282C66.5798 100.669 66.3695 101.141 66.3004 101.644C66.2313 102.146 66.306 102.657 66.5164 103.119C66.7267 103.58 67.064 103.972 67.4885 104.25C67.913 104.527 68.4075 104.678 68.9145 104.685L81.3351 104.585C81.7167 104.582 82.093 104.497 82.4392 104.337C82.7855 104.176 83.0937 103.944 83.3427 103.654L161.587 12.1666C161.928 11.7803 162.151 11.3036 162.228 10.7937C162.305 10.2838 162.234 9.76246 162.022 9.29239C161.81 8.82232 161.466 8.42342 161.033 8.14382C160.6 7.86422 160.095 7.71576 159.579 7.71625H159.639Z" fill="#390075"/>
</g>
<path fill-rule="evenodd" clip-rule="evenodd" d="M62.2157 61.5807C56.7817 61.5807 52.6192 59.834 49.8353 56.3943C49.7142 56.241 49.628 56.0631 49.583 55.8729C49.538 55.6828 49.5353 55.4851 49.5749 55.2938C49.6144 55.1024 49.6954 54.9221 49.8121 54.7654C49.9288 54.6087 50.0783 54.4794 50.2503 54.3867C52.655 53.1018 55.1088 51.7835 57.6116 50.4317C57.8282 50.3166 58.0689 50.2546 58.3141 50.251C59.3581 50.251 59.7463 51.1612 60.0274 51.8237C60.536 53.0216 61.0313 53.9383 62.3363 53.9383C63.0925 53.9383 64.4777 53.6239 66.7597 52.1583C74.6564 47.0522 81.8236 41.7118 88.1744 37.0073C99.4038 28.6421 109.107 21.4147 118.523 18.6375C120.363 18.0626 122.277 17.7604 124.205 17.7407C128.695 17.7407 132.791 19.4605 140.226 22.5858L143.478 23.9242C150.17 26.7081 156.019 28.06 161.339 28.06C172.716 28.06 181.041 21.7961 186.803 8.90712C187.058 8.32542 187.47 7.82574 187.991 7.46315C188.513 7.10056 189.125 6.88913 189.759 6.85243C190.393 6.81573 191.025 6.95517 191.585 7.25517C192.146 7.55517 192.612 8.00407 192.933 8.55242C193.943 10.279 195.235 12.5075 196.66 14.997C196.813 15.2669 196.867 15.5814 196.814 15.8869C195.77 21.8563 192.993 29.6728 185.699 33.0657C181.77 34.886 176.216 35.8094 169.203 35.8161C153.71 35.8161 134.792 31.3926 126.721 29.5054C125.47 29.211 124.272 28.9299 123.623 28.796C109.221 42.1936 80.184 61.5807 62.2157 61.5807Z" fill="#3F2C39"/>
<path d="M189.941 8.20454C190.309 8.20291 190.67 8.29875 190.989 8.48212C191.307 8.66549 191.572 8.92989 191.755 9.24855C192.766 10.9751 194.057 13.197 195.476 15.6797C194.519 21.1271 191.956 28.6892 185.11 31.8746C181.008 33.7752 175.379 34.4979 169.176 34.4979C149.722 34.4979 124.6 27.4043 123.194 27.4043H123.141C110.071 39.7245 80.3716 60.2424 62.2426 60.2424C57.5113 60.2424 53.5429 58.8437 50.9062 55.5579L58.2676 51.6029C58.2895 51.597 58.3126 51.597 58.3345 51.6029C58.8833 51.6029 59.1242 55.2836 62.3498 55.2836C63.5745 55.2836 65.2274 54.7549 67.496 53.276C89.2387 39.2225 104.423 24.1853 118.885 19.9157C120.603 19.3798 122.391 19.098 124.191 19.0792C129.01 19.0792 133.647 21.3145 142.929 25.1825C148.952 27.6853 155.236 29.4254 161.306 29.4254C171.632 29.4254 181.322 24.3862 187.987 9.47614C188.152 9.09727 188.424 8.7752 188.771 8.55025C189.117 8.3253 189.522 8.20736 189.935 8.21124M189.935 5.53439C189.006 5.53599 188.098 5.80599 187.319 6.31176C186.54 6.81753 185.924 7.53753 185.545 8.38524C180.024 20.7389 172.094 26.7485 161.306 26.7485C156.24 26.7485 150.405 25.4101 143.953 22.7332L140.714 21.3948C133.353 18.3031 128.93 16.4426 124.171 16.4426C122.115 16.4597 120.072 16.7799 118.108 17.3928C108.465 20.2369 98.7012 27.5247 87.3246 35.9701C81.014 40.6546 73.8669 46.0083 66.0037 51.0675C63.8154 52.4796 62.6911 52.6335 62.3096 52.6335C61.9282 52.6335 61.7876 52.6336 61.2254 51.3286C60.9243 50.6193 60.2081 48.9529 58.2875 48.9529C57.8205 48.9515 57.3605 49.0665 56.9491 49.2875C54.4462 50.6259 51.9924 51.9442 49.5878 53.2425C49.2449 53.4292 48.9473 53.6885 48.7153 54.0025C48.4833 54.3165 48.3225 54.6775 48.2448 55.0601C48.167 55.4427 48.1737 55.8375 48.2647 56.2172C48.3557 56.5968 48.5288 56.952 48.7715 57.2577C51.8164 61.0321 56.3334 62.946 62.189 62.946C80.2979 62.946 109.261 43.7999 123.964 30.2952L126.36 30.8507C134.484 32.7513 153.503 37.1948 169.149 37.1948C176.363 37.1948 182.098 36.2311 186.207 34.3239C190.524 32.3162 196.085 27.5381 198.079 16.1682C198.187 15.552 198.076 14.9175 197.765 14.3748C196.54 12.2333 195.282 10.065 194.037 7.93022C193.62 7.20668 193.019 6.60645 192.295 6.19037C191.571 5.77429 190.75 5.55714 189.915 5.56119L189.935 5.53439Z" fill="#390075"/>
<path fill-rule="evenodd" clip-rule="evenodd" d="M39.235 104.069C29.5119 104.11 19.8055 103.259 10.238 101.526C5.55352 100.496 2.30785 96.7146 1.53826 91.3944C0.6549 85.5254 2.9301 79.6163 6.93867 77.3409L8.36434 76.5714C8.55918 76.4718 8.77455 76.4191 8.99336 76.4175C9.20404 76.4187 9.41124 76.4695 9.59852 76.566C9.78581 76.6625 9.94776 76.802 10.071 76.9728C10.1943 77.1437 10.2754 77.3412 10.3079 77.5494C10.3404 77.7576 10.3232 77.9704 10.2579 78.1707C9.01989 81.9317 9.23404 84.8629 10.9271 87.1984C14.0189 91.4613 22.0294 93.6296 34.7511 93.6296C62.858 93.6296 102.716 82.9757 103.118 82.8686C115.943 79.4964 128.488 75.1357 140.64 69.8257C151.093 65.3955 160.121 61.5743 178.993 58.4156C183.149 57.7464 186.823 57.2981 190.062 56.9233C197.55 56.06 202.496 55.4845 204.436 52.5466C206.551 49.3344 205.775 42.7561 201.699 29.1243C201.609 28.8162 201.632 28.486 201.764 28.1936C201.897 27.9013 202.131 27.6663 202.422 27.5316C202.596 27.4522 202.786 27.4111 202.977 27.4112C203.202 27.4105 203.424 27.4665 203.622 27.5741C203.82 27.6817 203.987 27.8374 204.109 28.0268L204.697 28.9503C205.962 30.8977 206.665 31.9752 208.612 37.2285C211.845 44.2351 212.099 55.0295 211.289 62.8124C210.74 67.885 206.899 73.687 201.411 74.6105L132.911 84.729C129.859 85.9872 86.0998 104.069 39.235 104.069Z" fill="#231F20"/>
<path d="M202.931 28.7158C204.631 31.3926 205.139 31.8008 207.334 37.7166C210.52 44.576 210.68 55.1897 209.877 62.638C209.368 67.3225 205.782 72.4822 201.111 73.2652L132.543 83.3903C132.543 83.3903 87.8732 102.724 39.2283 102.724C29.5902 102.768 19.9688 101.924 10.4859 100.201C0.387476 97.9725 0.788767 82.3329 7.56787 78.4916L8.96675 77.7355C4.64364 90.8587 17.2917 94.9476 34.7046 94.9476C60.0677 94.9476 95.536 86.2477 103.419 84.1464C144.054 73.178 144.703 65.4888 179.167 59.7202C204.182 55.5309 212.628 61.1725 202.931 28.7024M202.931 26.0255C202.515 26.027 202.105 26.1254 201.734 26.3129C201.363 26.5004 201.04 26.7718 200.792 27.1056C200.544 27.4395 200.377 27.8265 200.304 28.2361C200.232 28.6457 200.256 29.0665 200.374 29.4652C204.229 42.3475 205.092 49.0263 203.272 51.7901C201.679 54.2127 196.975 54.7547 189.888 55.5711C186.636 55.9526 182.941 56.3742 178.752 57.0768C159.727 60.2623 150.645 64.1171 140.098 68.574C128.004 73.8637 115.517 78.2043 102.75 81.5566C102.349 81.6637 62.6776 92.264 34.7314 92.264C19.4533 92.264 13.9323 89.0719 11.9782 86.3883C10.5729 84.4409 10.419 81.8846 11.5165 78.5586C11.6791 78.053 11.6876 77.5105 11.541 77.0001C11.3944 76.4897 11.0991 76.0344 10.693 75.6922C10.287 75.35 9.78839 75.1362 9.26051 75.0782C8.73263 75.0202 8.19934 75.1205 7.72864 75.3664L6.2899 76.1427C1.79281 78.6857 -0.756953 85.1703 0.200019 91.568C1.08338 97.4504 4.71705 101.646 9.92351 102.797H10.0039C19.6511 104.543 29.4379 105.401 39.2417 105.361C64.6717 105.361 88.9641 100.047 104.865 95.5967C114.521 92.9469 124.011 89.7269 133.286 85.9534L201.546 75.8616H201.592C207.702 74.8311 211.972 68.4602 212.574 62.8857C212.996 59.0311 214.026 45.7739 209.844 36.6458C207.936 31.5197 207.227 30.3352 205.828 28.1603L205.24 27.2435C204.998 26.8644 204.665 26.5522 204.27 26.3358C203.876 26.1194 203.434 26.0058 202.984 26.0054L202.931 26.0255Z" fill="#390075"/>
<path fill-rule="evenodd" clip-rule="evenodd" d="M107.601 35.0938C107.132 35.0919 106.669 34.9914 106.241 34.7989C105.813 34.6063 105.431 34.326 105.118 33.9761C105.077 33.9323 105.039 33.8853 105.005 33.8356C103.867 32.2027 102.716 30.6971 101.605 29.2449C100.494 27.7927 99.3232 26.2535 98.1521 24.5604C97.7271 24.0583 97.4532 23.446 97.362 22.7946C97.2708 22.1431 97.366 21.4792 97.6368 20.8797C97.9134 20.3642 98.326 19.9344 98.8298 19.6371C99.3336 19.3397 99.9094 19.1862 100.494 19.1933C101.019 19.1939 101.535 19.3199 102.001 19.5609C102.467 19.8019 102.868 20.1507 103.171 20.5785C104.322 22.2247 105.52 23.8041 106.685 25.3299C107.849 26.8557 109.04 28.4284 110.191 30.0747C110.563 30.4637 110.812 30.9531 110.909 31.4824C111.005 32.0117 110.944 32.5577 110.733 33.0527C110.46 33.6561 110.02 34.1688 109.465 34.5304C108.91 34.8921 108.264 35.0876 107.601 35.0938Z" fill="#FFCA05"/>
<path d="M100.495 20.5449C100.81 20.5439 101.121 20.6193 101.401 20.765C101.681 20.9107 101.921 21.1224 102.101 21.3814C104.41 24.6806 106.859 27.6252 109.168 30.9311C110.359 32.1691 109.054 33.7618 107.602 33.7618C107.319 33.7622 107.039 33.7027 106.781 33.5874C106.522 33.472 106.291 33.3035 106.103 33.0926C103.794 29.7867 101.559 27.1433 99.2499 23.8374C97.8713 21.9368 99.1364 20.565 100.495 20.565M100.495 17.8882C99.6639 17.8835 98.8473 18.1059 98.1337 18.5317C97.4201 18.9575 96.8364 19.5704 96.4459 20.3039C96.0605 21.1224 95.915 22.0334 96.0264 22.9313C96.1377 23.8291 96.5013 24.677 97.075 25.3766C98.2528 27.0697 99.4175 28.5955 100.548 30.0611C101.679 31.5267 102.79 32.9989 103.894 34.6051C103.962 34.707 104.038 34.8032 104.122 34.8928C104.559 35.3772 105.093 35.765 105.688 36.0312C106.284 36.2974 106.929 36.4362 107.582 36.4387C108.507 36.4394 109.412 36.1717 110.188 35.668C110.963 35.1643 111.576 34.4464 111.952 33.6012C112.256 32.8864 112.35 32.1 112.224 31.3335C112.099 30.567 111.758 29.8518 111.242 29.2713C110.085 27.625 108.893 26.0592 107.736 24.5401C106.578 23.021 105.393 21.4617 104.269 19.8556V19.8154C103.841 19.2159 103.276 18.7275 102.62 18.3911C101.965 18.0546 101.238 17.8799 100.501 17.8815L100.495 17.8882Z" fill="#390075"/>
<path fill-rule="evenodd" clip-rule="evenodd" d="M97.5436 42.0935C97.0757 42.0907 96.6137 41.9898 96.1872 41.7973C95.7607 41.6048 95.379 41.3251 95.0674 40.976C95.0255 40.9325 94.9875 40.8853 94.9537 40.8353C93.7892 39.169 92.7385 37.5964 91.7213 36.0773C90.7041 34.5582 89.6739 33.019 88.5295 31.3928C88.1047 30.8894 87.8306 30.276 87.7394 29.6236C87.6482 28.9711 87.7437 28.3062 88.0142 27.7055C88.2908 27.19 88.7034 26.7601 89.2072 26.4628C89.711 26.1655 90.2868 26.012 90.8717 26.0191C91.396 26.0202 91.9122 26.1464 92.3778 26.3873C92.8434 26.6283 93.2449 26.977 93.5486 27.4044C94.7264 29.0908 95.8306 30.7503 96.8946 32.3297C97.9587 33.909 99.0091 35.4884 100.14 37.1012C100.509 37.4918 100.756 37.9815 100.851 38.5104C100.947 39.0393 100.886 39.5845 100.676 40.0792C100.398 40.6771 99.956 41.1839 99.4016 41.5405C98.8471 41.8971 98.2028 42.0889 97.5436 42.0935Z" fill="#FFCA05"/>
<path d="M90.8716 27.3441C91.1861 27.344 91.4959 27.4193 91.7754 27.5637C92.0549 27.7081 92.2957 27.9173 92.4776 28.1739C94.7797 31.4798 96.8005 34.6252 99.1093 37.9311C100.3 39.1624 98.9956 40.7551 97.5434 40.7551C97.2605 40.7555 96.9806 40.696 96.7223 40.5806C96.4639 40.4653 96.2332 40.2968 96.0446 40.0859C93.7358 36.7867 91.9288 33.9358 89.6201 30.6366C88.2415 28.736 89.5064 27.3642 90.8716 27.3642M90.8716 24.6874C90.0406 24.6826 89.224 24.9053 88.5104 25.3311C87.7968 25.7569 87.2131 26.3696 86.8226 27.1031C86.4379 27.9214 86.2923 28.8318 86.4024 29.7293C86.5125 30.6268 86.874 31.4748 87.4451 32.1758C88.5761 33.7953 89.6134 35.3412 90.6105 36.8603C91.6076 38.3794 92.6851 39.9655 93.8562 41.6385C93.9246 41.738 94.0006 41.8319 94.0837 41.9195C94.5209 42.404 95.0544 42.7918 95.6502 43.058C96.246 43.3242 96.8909 43.463 97.5434 43.4655C98.4687 43.4679 99.3747 43.2008 100.151 42.6969C100.927 42.193 101.539 41.4742 101.914 40.628C102.218 39.9143 102.312 39.1289 102.186 38.3634C102.061 37.5979 101.72 36.8839 101.204 36.3048C100.1 34.7187 99.0357 33.1327 98.0051 31.6203C96.9746 30.1079 95.8302 28.3747 94.6591 26.7084V26.6682C94.2317 26.0678 93.6665 25.5789 93.0109 25.2424C92.3553 24.9058 91.6285 24.7316 90.8915 24.7343L90.8716 24.6874Z" fill="#390075"/>
<path fill-rule="evenodd" clip-rule="evenodd" d="M87.5454 49.2207C87.0767 49.2168 86.6138 49.1154 86.1864 48.923C85.7589 48.7306 85.3763 48.4514 85.0626 48.1032L84.9554 47.9627C83.7643 46.2629 78.4241 38.5937 78.4241 38.5937C77.9996 38.0901 77.7253 37.4771 77.633 36.8249C77.5407 36.1728 77.6339 35.508 77.9019 34.9063C78.1791 34.3913 78.5919 33.9619 79.0956 33.6646C79.5993 33.3674 80.1746 33.2136 80.7595 33.2199C81.2838 33.2205 81.8005 33.3465 82.2662 33.5875C82.7319 33.8285 83.133 34.1775 83.4363 34.6052L90.1284 44.215C90.4975 44.6056 90.7447 45.0954 90.8398 45.6243C90.9349 46.1532 90.8739 46.6983 90.664 47.193C90.3893 47.7914 89.9505 48.2996 89.3984 48.6585C88.8464 49.0174 88.2038 49.2124 87.5454 49.2207Z" fill="#FFCA05"/>
<path d="M80.7595 34.5381C81.0743 34.5363 81.3849 34.6109 81.6646 34.7554C81.9444 34.9 82.1849 35.1101 82.3655 35.3679L89.1112 45.038C90.3024 46.2694 88.9976 47.8621 87.5454 47.8621C87.2625 47.8624 86.9826 47.8031 86.7242 47.6877C86.4659 47.5724 86.2348 47.4037 86.0462 47.1929C83.7374 43.8936 81.8236 41.1298 79.5149 37.8239C78.1363 35.93 79.401 34.5582 80.7595 34.5582M80.7595 31.8814C79.9284 31.8759 79.1117 32.0982 78.398 32.5241C77.6842 32.95 77.1008 33.5631 76.7109 34.2971C76.3252 35.1144 76.1796 36.0245 76.291 36.9214C76.4024 37.8182 76.7661 38.665 77.3399 39.3631L80.5922 44.0476C81.6495 45.5667 82.7001 47.0858 83.8579 48.7321C83.9263 48.8315 84.0026 48.9255 84.0856 49.0131C84.5228 49.4975 85.0563 49.8853 85.6521 50.1515C86.2479 50.4177 86.8928 50.5565 87.5454 50.559C88.4706 50.5614 89.3766 50.2943 90.1526 49.7905C90.9286 49.2866 91.5409 48.5677 91.9152 47.7216C92.2192 47.0079 92.314 46.2226 92.1884 45.4571C92.0628 44.6916 91.7223 43.9776 91.2061 43.3985L87.9738 38.7609L84.5607 33.8622V33.8287C84.1323 33.2278 83.5657 32.7386 82.9089 32.4021C82.2522 32.0655 81.5243 31.8916 80.7863 31.8948L80.7595 31.8814Z" fill="#390075"/>
<path fill-rule="evenodd" clip-rule="evenodd" d="M76.2362 56.2071C75.7676 56.2061 75.3045 56.1068 74.8768 55.9155C74.4492 55.7241 74.0664 55.4449 73.7534 55.0963C73.7119 55.0501 73.6739 55.0009 73.6397 54.949L67.5632 46.2493C67.1383 45.7472 66.8643 45.1349 66.7731 44.4835C66.6819 43.832 66.7772 43.1681 67.0479 42.5686C67.3245 42.0531 67.7371 41.6233 68.2409 41.326C68.7448 41.0286 69.3205 40.8751 69.9055 40.8822C70.43 40.8817 70.947 41.0073 71.4128 41.2484C71.8787 41.4894 72.2798 41.839 72.5823 42.2675L78.8326 51.2148C79.204 51.604 79.4527 52.0938 79.5479 52.6233C79.6431 53.1528 79.5804 53.6987 79.3679 54.1929C79.0909 54.7914 78.6494 55.2985 78.0948 55.6552C77.5402 56.0119 76.8956 56.2033 76.2362 56.2071Z" fill="#FFCA05"/>
<path d="M69.8985 42.2139C70.2141 42.2127 70.5255 42.2875 70.8062 42.4319C71.0869 42.5763 71.3288 42.7862 71.5114 43.0438L77.7953 52.0513C78.9865 53.2827 77.6882 54.8754 76.236 54.8754C75.9531 54.8757 75.6732 54.8164 75.4149 54.701C75.1565 54.5857 74.9255 54.417 74.7368 54.2061L68.6538 45.5064C67.2752 43.6058 68.54 42.2407 69.8985 42.2407M69.8985 39.5639C69.0734 39.5624 68.2637 39.7859 67.5562 40.2104C66.8487 40.6349 66.2702 41.2444 65.8832 41.9731C65.4984 42.7914 65.3529 43.7017 65.463 44.5991C65.5731 45.4966 65.9345 46.3446 66.5057 47.0456L68.995 50.6126L72.5688 55.7387C72.6424 55.8324 72.7159 55.9328 72.7962 56.0198C73.2342 56.5051 73.7689 56.8934 74.366 57.1596C74.963 57.4258 75.6091 57.564 76.2628 57.5656C77.1879 57.5671 78.0932 57.2998 78.8691 56.7961C79.6449 56.2923 80.2577 55.5738 80.6326 54.7281C80.9374 54.0142 81.032 53.2281 80.9052 52.4622C80.7783 51.6964 80.4354 50.9826 79.9167 50.4051L77.8555 47.4539L73.7265 41.5313V41.4978C73.2981 40.8969 72.7315 40.4077 72.0747 40.0712C71.4179 39.7346 70.69 39.5607 69.9521 39.5639H69.8985Z" fill="#390075"/>
</svg>
