<svg width="154" height="245" viewBox="0 0 154 245" fill="none" xmlns="http://www.w3.org/2000/svg">
<g clip-path="url(#clip0_88_316)">
<path d="M107.895 68.1243C107.602 68.1915 107.289 68.1204 107.052 67.9206C103.942 65.3144 100.49 63.5004 96.797 62.527C96.3772 62.4147 96.08 62.0401 96.0718 61.6051C95.9855 57.3009 95.246 46.7917 90.2514 42.2182C88.4625 40.5802 86.3399 39.8669 83.7641 40.0429C83.0216 40.093 82.303 40.1976 81.6273 40.3524C79.3723 40.869 77.4648 41.9799 75.956 43.6593C75.8192 43.8106 75.6403 43.9144 75.4503 43.9579C75.2983 43.9927 75.1383 43.9922 74.9831 43.9507C74.6304 43.8573 74.3598 43.5737 74.2811 43.2176L74.0156 41.9961C73.5558 39.8766 73.0825 37.6859 72.4804 35.4562C72.4673 35.3993 72.4543 35.3423 72.4494 35.2834C72.4107 34.8153 72.4098 34.35 72.4458 33.8962C72.47 33.5908 72.6376 33.3125 72.8969 33.1475C74.9436 31.8589 77.2164 30.9213 79.6559 30.3625C82.0955 29.8037 84.9505 29.6124 87.7966 29.8686C93.5427 30.3916 99.1235 34.7309 103.111 41.7799C107.177 48.9681 109.144 58.0051 108.65 67.2289C108.628 67.5966 108.403 67.9223 108.066 68.071C108.011 68.0949 107.953 68.114 107.896 68.127L107.895 68.1243Z" fill="#9FA9B2"/>
<path d="M79.8729 31.3095C82.1062 30.7979 84.7149 30.5659 87.71 30.8366C98.878 31.8512 108.696 48.1661 107.678 67.1745C104.373 64.4071 100.761 62.5642 97.0467 61.5844C96.9125 54.8893 95.3944 38.2754 83.6983 39.0697C82.8855 39.1245 82.1235 39.2391 81.4098 39.4026C78.7504 40.0117 76.7437 41.3254 75.2322 43.0054C74.6878 40.5168 74.145 37.8852 73.4209 35.1979C73.3848 34.7663 73.3855 34.3578 73.4162 33.968C75.054 32.9389 77.1973 31.9224 79.8729 31.3095ZM79.4378 29.41C76.8924 29.993 74.5175 30.9712 72.3785 32.318C71.8567 32.646 71.5209 33.1998 71.473 33.8134C71.4346 34.3192 71.4337 34.8391 71.4782 35.3573C71.488 35.475 71.5087 35.5902 71.5375 35.7036C72.1313 37.9094 72.6054 40.0913 73.0634 42.2027C73.1518 42.6137 73.239 43.0192 73.3283 43.4215C73.4836 44.137 74.0269 44.7009 74.7329 44.8904C75.0433 44.9736 75.3634 44.9745 75.6673 44.9049C76.0526 44.8166 76.4085 44.6123 76.6819 44.3097C78.0726 42.7631 79.7636 41.7789 81.8449 41.3021C82.4717 41.1585 83.1409 41.0623 83.8299 41.0159C86.125 40.8614 88.011 41.489 89.5936 42.9371C91.553 44.7331 93.0317 47.7473 93.9827 51.8991C94.8138 55.5272 95.0472 59.1893 95.0969 61.6255C95.1135 62.4957 95.7057 63.2482 96.5475 63.4695C100.101 64.4063 103.423 66.1556 106.424 68.6698C106.897 69.0668 107.521 69.2095 108.11 69.0746C108.227 69.0479 108.341 69.0103 108.453 68.9619C109.131 68.6667 109.581 68.0151 109.621 67.2778C110.125 57.8718 108.114 48.6449 103.958 41.2975C99.8112 33.9679 93.9518 29.4467 87.8848 28.8944C84.9335 28.628 82.0938 28.7987 79.4372 29.4073L79.4378 29.41Z" fill="black"/>
<path d="M25.0544 87.1005C24.9974 87.1136 24.9365 87.1218 24.877 87.124C24.5093 87.1397 24.162 86.9451 23.9848 86.6201C19.5243 78.5313 17.3617 69.5391 17.8929 61.2979C18.4149 53.2158 21.5496 46.8772 26.493 43.9084C28.9432 42.4361 31.4835 41.3944 34.037 40.8095C36.5905 40.2245 38.9308 40.1054 41.3344 40.3745C41.6396 40.4103 41.911 40.5851 42.0664 40.8523C42.2964 41.2451 42.4981 41.6644 42.667 42.1027C42.6882 42.1578 42.704 42.2142 42.7143 42.2718C43.1455 44.5406 43.6709 46.7222 44.1802 48.8332L44.4716 50.0431C44.5558 50.3979 44.4356 50.771 44.1588 51.0087C44.0371 51.1136 43.8933 51.1837 43.7413 51.2185C43.5486 51.2627 43.3456 51.2492 43.1561 51.1698C41.0673 50.3174 38.8658 50.1448 36.6108 50.6614C35.9351 50.8161 35.2426 51.0347 34.5523 51.3128C32.3242 52.2088 30.8105 53.7293 29.9215 55.9579C27.5934 61.8033 30.3096 71.5911 33.3427 78.1991C33.5246 78.5944 33.4208 79.0637 33.091 79.3449C32.2557 80.0617 31.4301 80.6592 30.6312 81.2364C28.6272 82.6864 26.8978 83.9394 25.7218 86.5478C25.5947 86.8283 25.3442 87.0313 25.0511 87.0984L25.0544 87.1005Z" fill="#9FA9B2"/>
<path d="M34.2573 41.7585C36.9356 41.145 39.3071 41.1244 41.2275 41.3414C41.4247 41.6789 41.6032 42.0465 41.7586 42.4507C42.2764 45.1852 42.9333 47.7907 43.5265 50.2681C41.4343 49.4136 39.0559 49.1045 36.3966 49.7136C35.6829 49.8771 34.9476 50.1084 34.1913 50.4101C23.3157 54.7864 29.6658 72.5211 32.4594 78.607C29.5418 81.106 26.607 82.2209 24.8369 86.1507C15.6462 69.4808 17.383 50.5191 26.9958 44.7442C29.5745 43.1968 32.0213 42.2708 34.2573 41.7585ZM33.8222 39.859C31.1655 40.4676 28.5313 41.548 25.993 43.0719C20.7687 46.2107 17.4636 52.8282 16.9217 61.2347C16.3781 69.6587 18.5842 78.8408 23.1327 87.0894C23.4893 87.736 24.1812 88.1259 24.9172 88.0972C25.0388 88.0922 25.158 88.0763 25.2747 88.0496C25.8636 87.9147 26.3625 87.512 26.6167 86.9511C27.6847 84.5816 29.24 83.4542 31.2071 82.0297C32.0204 81.4407 32.8631 80.8307 33.73 80.0895C34.3916 79.5238 34.5971 78.5885 34.2333 77.798C33.5425 76.2912 31.8221 72.2842 30.7886 67.6229C29.7479 62.9176 29.7611 59.0105 30.8307 56.3236C31.6132 54.3536 32.9512 53.0133 34.92 52.2196C35.5633 51.9608 36.2075 51.7561 36.8317 51.6132C38.9157 51.1358 40.8638 51.2864 42.7891 52.0735C43.1675 52.2295 43.5762 52.2559 43.9616 52.1676C44.2628 52.0986 44.5499 51.9557 44.7965 51.7479C45.3502 51.2726 45.5933 50.5258 45.4216 49.814C45.3269 49.413 45.2289 49.0099 45.1296 48.6014C44.6234 46.5039 44.0978 44.3339 43.6743 42.0861C43.6536 41.9709 43.6221 41.8582 43.577 41.7485C43.3887 41.2633 43.1643 40.7949 42.9096 40.3563C42.5993 39.8248 42.0559 39.4723 41.4434 39.4041C38.9314 39.1228 36.3648 39.2766 33.8222 39.859Z" fill="black"/>
<path d="M97.6742 232.951C76.9016 237.709 69.1854 234.633 66.3709 231.211C61.8793 225.754 65.7285 220.065 69.8065 214.042C74.4043 207.245 79.6176 199.545 74.8018 190.167C72.615 186.592 67.8644 182.311 62.3661 177.359C51.0443 167.158 35.5393 153.182 27.6525 132.667C21.9184 117.758 19.3906 106.062 19.9189 96.9106C20.4045 88.4827 23.6318 82.2114 29.5088 78.269C40.0023 71.2272 43.4962 67.3167 42.1788 59.3961L42.1364 59.1488C40.795 51.0737 39.5272 43.4445 36.0699 40.0839C34.4235 38.4818 31.774 39.0716 28.9692 39.6941C26.4065 40.264 23.7543 40.8544 21.8342 39.5293C17.8828 36.8044 13.8336 27.082 12.2763 23.0263C12.1761 22.7636 12.1943 22.4567 12.3256 22.2068C12.6006 21.6868 12.6743 21.5471 21.6599 19.4802L22.7127 19.239C30.4492 17.4669 41.7844 14.9846 52.7466 12.582C63.3038 10.2693 73.2763 8.08489 79.8324 6.5831C85.0561 5.38651 86.5207 4.98533 86.9009 4.84968C87.0112 4.77015 87.1352 4.71318 87.2709 4.6821C87.526 4.62367 88.0172 4.61111 88.4482 5.18353C89.6084 6.7199 93.3652 18.1829 90.4528 23.5224C89.6051 25.1703 87.1585 25.9478 84.0617 26.9285C79.6919 28.3122 74.7424 29.8829 74.3879 34.0453C74.3627 34.3595 74.3622 34.6938 74.3873 35.0279C74.9899 37.2718 75.4625 39.4597 75.921 41.5738L76.186 42.7926C78.4129 53.0381 80.5656 59.2936 91.69 59.7813C93.5854 59.864 95.4706 60.1519 97.2985 60.6385C101.268 61.6855 104.973 63.6329 108.305 66.4224C113.008 70.3574 116.779 75.7995 119.519 82.5975C122.518 90.0443 124.191 98.9686 124.496 109.115C125.185 132.196 117.252 153.568 112.512 166.338C110.449 171.897 108.819 176.286 108.776 178.395C108.7 182.202 109.366 195.247 121.096 203.338C128.514 208.454 132.531 211.929 132.517 215.645C132.508 217.872 131.001 219.973 127.909 222.072C124.137 224.63 114.226 228.491 104.339 231.25C104.333 231.251 104.328 231.252 104.323 231.254C102.076 231.88 99.8384 232.449 97.6784 232.944L97.6742 232.951Z" fill="#E2EAED"/>
<path d="M22.9308 20.1913C37.9831 16.7433 66.5557 10.6266 80.045 7.5366C84.536 6.50785 87.353 5.81401 87.4451 5.66726C87.4555 5.65058 87.47 5.63871 87.4862 5.63498C88.1402 5.48518 92.4924 17.7771 89.5897 23.0716C87.8645 26.4741 74.0778 26.1965 73.4161 33.9678C73.3854 34.3575 73.3848 34.7661 73.4208 35.1977C74.1449 37.8849 74.6877 40.5166 75.2321 43.0051C77.3339 52.6795 79.3815 60.2215 91.6455 60.7594C93.4545 60.8391 95.2617 61.1106 97.0466 61.5842C100.761 62.564 104.373 64.4069 107.678 67.1742C116.345 74.4279 122.888 88.0402 123.519 109.15C124.506 142.184 107.945 170.976 107.799 178.381C107.653 185.783 110.23 197.034 120.541 204.145C130.855 211.258 135.559 215.707 127.36 221.27C123.966 223.572 114.556 227.39 104.074 230.317L104.071 230.317C101.896 230.924 99.6789 231.492 97.4565 232.001C84.5126 234.966 71.4994 235.908 67.1231 230.593C58.374 219.965 85.1184 208.05 75.6498 189.693C68.9006 178.607 40.2767 162.793 28.5608 132.318C16.8422 101.845 19.327 86.2731 30.049 79.0818C40.7704 71.8878 44.5276 67.6057 43.1366 59.2393C41.7457 50.8729 40.4697 43.0085 36.7467 39.386C33.0217 35.7668 25.8239 41.0998 22.3848 38.7289C18.9457 36.358 15.1336 27.7579 13.1818 22.6787C13.1189 22.516 16.5116 21.6674 21.8752 20.4331C22.2198 20.3542 22.5726 20.2734 22.9308 20.1913ZM22.4957 18.2918C22.1347 18.3745 21.782 18.4553 21.4373 18.5342C18.6972 19.1648 16.5714 19.6717 15.1223 20.0408C12.6747 20.6643 11.9382 20.853 11.4592 21.7538C11.194 22.2544 11.1577 22.8567 11.3614 23.3841C13.3349 28.5212 17.2505 37.5602 21.2759 40.3338C23.5451 41.8988 26.4068 41.2633 29.1757 40.6462C32.1596 39.9826 34.2046 39.6341 35.3874 40.7826C38.614 43.9219 39.8552 51.3973 41.1707 59.3098L41.2131 59.5571C42.3646 66.479 39.8464 70.1603 28.9614 77.4632C22.8195 81.5833 19.4474 88.1076 18.9412 96.8572C18.4054 106.151 20.9549 117.979 26.7391 133.018C34.7107 153.755 50.3153 167.816 61.71 178.086C67.1339 182.975 71.8235 187.202 73.9466 190.648C78.4724 199.496 73.6542 206.614 68.9966 213.499C66.9186 216.571 64.9554 219.471 63.9956 222.376C62.8088 225.972 63.3378 229.067 65.6163 231.832C68.0293 234.761 72.5502 236.281 79.0549 236.35C84.214 236.405 90.5513 235.582 97.8916 233.9C100.065 233.403 102.316 232.83 104.576 232.198C104.584 232.196 104.589 232.195 104.598 232.193C114.575 229.408 124.608 225.49 128.454 222.881C131.834 220.59 133.48 218.226 133.49 215.653C133.508 211.082 128.369 207.176 121.65 202.54C117.315 199.552 114.086 195.542 112.052 190.627C110.486 186.845 109.67 182.511 109.75 178.42C109.787 176.475 111.473 171.939 113.425 166.683C115.929 159.934 119.046 151.538 121.53 141.721C124.487 130.034 125.775 119.36 125.468 109.092C125.162 98.8289 123.463 89.7933 120.419 82.2397C117.623 75.292 113.756 69.7203 108.93 65.6823C105.487 62.798 101.657 60.7881 97.5438 59.7025C95.652 59.199 93.6961 58.9017 91.7313 58.8148C86.7031 58.5958 83.3565 57.1147 81.2033 54.1608C79.1552 51.3541 78.1881 47.4316 77.1366 42.5917C77.0473 42.1895 76.9601 41.7839 76.8723 41.3756C76.4175 39.2778 75.9492 37.1089 75.3512 34.8725C75.3354 34.6163 75.3383 34.3671 75.3587 34.1197C75.635 30.8749 79.4266 29.4237 84.355 27.8606C87.5287 26.8538 90.2715 25.9856 91.312 23.9822C93.0319 20.8179 92.6045 16.1092 91.9437 12.7135C91.2792 9.30143 90.0856 5.73642 89.2221 4.59761C88.4073 3.5219 87.3517 3.66376 87.0478 3.73338C86.8416 3.78062 86.6482 3.85918 86.4719 3.96239C86.0268 4.10148 84.5426 4.5043 79.6093 5.63438C73.0586 7.13492 63.0915 9.31813 52.537 11.6302C41.5742 14.03 30.237 16.5156 22.495 18.2891L22.4957 18.2918Z" fill="black"/>
<path d="M104.071 230.317C89.2345 234.458 72.2513 236.821 67.1233 230.593C58.3742 219.965 85.1186 208.05 75.65 189.693C68.9008 178.607 40.2769 162.793 28.561 132.318C16.8423 101.845 19.3272 86.2732 30.0492 79.0819C40.7706 71.8879 44.5278 67.6057 43.1368 59.2393C41.7458 50.8729 40.4698 43.0085 36.7469 39.386C33.0219 35.7669 25.824 41.0999 22.3849 38.7289C18.9459 36.358 15.1337 27.758 13.182 22.6787C13.119 22.5161 16.5118 21.6675 21.8753 20.4332C22.1373 23.0606 23.9846 28.2324 34.1865 30.0537C48.0989 32.5388 53.8639 40.226 56.0731 60.0688C58.285 79.911 39.3463 80.2451 38.4587 101.131C37.5738 122.017 42.635 141.207 60.7664 157.733C78.8958 174.264 102.624 191.847 95.9245 207.059C89.2273 222.271 83.9896 228.68 104.062 230.316C104.065 230.316 104.068 230.318 104.071 230.317Z" fill="#BCC6C9"/>
</g>
<defs>
<clipPath id="clip0_88_316">
<rect width="105" height="227" fill="white" transform="translate(0 23.4451) rotate(-12.9021)"/>
</clipPath>
</defs>
</svg>
