<svg width="278" height="278" viewBox="0 0 278 278" fill="none" xmlns="http://www.w3.org/2000/svg">
<path d="M246.443 42.1266L139.004 140.012V140.618L264.313 70.1744C259.551 59.7819 253.574 50.3889 246.443 42.1266Z" fill="#004F9F"/>
<path d="M139 141.469L59.0079 258.75C49.3539 253 40.828 246.106 33.7181 238.301C32.9814 237.5 32.2666 236.696 31.5562 235.873L139 141.469Z" fill="#E30613"/>
<path d="M138.999 141.469L31.5559 235.884C24.614 227.856 18.7772 218.76 14.0894 208.712L138.999 141.469Z" fill="#20232B"/>
<path d="M138.999 141.469L14.0892 208.701C9.89849 199.641 6.70389 190.301 4.54248 180.788L138.999 141.469Z" fill="#1CA75E"/>
<path d="M139 141.469L4.5432 180.788C2.46529 171.786 1.11325 162.685 0.495605 153.541L139 141.469Z" fill="#DAE7EF"/>
<path d="M139 141.469L0.513075 153.542C0.171025 148.794 0 143.95 0 139.009C0 134.798 0.125711 130.663 0.377133 126.603L139 141.469Z" fill="#E30613"/>
<path d="M139 140.618V141.469L0.377686 126.582C0.898061 117.354 2.15339 108.163 4.13586 99.0658L139 140.618Z" fill="#004F9F"/>
<path d="M139 140.618L4.1355 99.0656C6.25094 89.2291 9.44429 79.5641 13.6778 70.1848L139 140.618Z" fill="#DAE7EF"/>
<path d="M138.999 140.012V140.618L13.6768 70.1744C18.4435 59.7819 24.4207 50.3889 31.5555 42.1266L138.999 140.012Z" fill="#E30613"/>
<path d="M138.999 139.473V140.022L31.5603 42.137C32.2707 41.3146 32.9855 40.51 33.7222 39.709C41.1095 31.5963 50.0266 24.4714 60.1479 18.5942L138.999 139.473Z" fill="#FFD607"/>
<path d="M138.999 139.165V139.473L60.1436 18.6052C65.3996 15.5721 70.9639 12.9042 76.7769 10.63C83.4569 8.02148 90.4174 5.91083 97.5718 4.32434L138.999 139.165Z" fill="#1B1D24"/>
<path d="M139 0V139.165L97.5723 4.30305C110.32 1.44262 124.178 0 139 0Z" fill="#FFD607"/>
<path d="M180.419 4.30305L139 139.165V0C153.813 0 167.675 1.44262 180.419 4.30305Z" fill="#1CA75E"/>
<path d="M217.851 18.5836L139 139.473V139.175L180.419 4.31335C187.575 5.89925 194.537 8.00991 201.218 10.6191C207.031 12.8895 212.595 15.5539 217.851 18.5836Z" fill="#E30613"/>
<path d="M246.443 42.1264L139.004 140.012V139.473L217.856 18.605C227.979 24.4802 236.896 31.6054 244.281 39.7197C245.009 40.4995 245.733 41.2899 246.443 42.1264Z" fill="#FFD500"/>
<path d="M273.869 99.0658L139 140.618L264.313 70.1744C268.556 79.5558 271.754 89.2247 273.869 99.0658Z" fill="#2F3039"/>
<path d="M277.627 126.582L139 141.469V140.618L273.869 99.0658C275.845 108.164 277.1 117.355 277.627 126.582Z" fill="#DAE7EF"/>
<path d="M278 139.002C278 143.95 277.83 148.794 277.491 153.535L139 141.469L277.627 126.582C277.881 130.649 278.006 134.789 278 139.002Z" fill="#1CA75E"/>
<path d="M277.491 153.541C276.871 162.685 275.519 171.786 273.443 180.788L139 141.469L277.491 153.541Z" fill="#E30613"/>
<path d="M273.443 180.788C271.284 190.3 268.095 199.64 263.914 208.701L139 141.469L273.443 180.788Z" fill="#004F9F"/>
<path d="M263.914 208.701C259.217 218.75 253.389 227.841 246.443 235.873L139.004 141.469L263.914 208.701Z" fill="#FFD500"/>
<path d="M246.443 235.884C245.729 236.706 245.009 237.511 244.277 238.312C237.168 246.116 228.641 253.007 218.983 258.75L139 141.469L246.443 235.884Z" fill="#DAE7EF"/>
<path d="M218.982 258.75C213.394 262.058 207.447 264.951 201.213 267.391C183.233 274.438 162.307 278 138.995 278V141.469L218.982 258.75Z" fill="#1CA75E"/>
<path d="M139 141.469V278C115.683 278 94.7567 274.438 76.7771 267.391C70.5417 264.953 64.594 262.06 59.0081 258.75L139 141.469Z" fill="#FFD500"/>
</svg>
