<svg width="279" height="172" viewBox="0 0 279 172" fill="none" xmlns="http://www.w3.org/2000/svg">
<path fill-rule="evenodd" clip-rule="evenodd" d="M144.67 87.3601C141.955 87.3584 139.309 86.4986 137.112 84.9037C134.915 83.3088 133.277 81.0603 132.434 78.4794C131.591 75.8985 131.586 73.1171 132.418 70.5326C133.25 67.9481 134.878 65.6927 137.068 64.0885C139.259 62.4844 141.9 61.6134 144.615 61.6002C147.33 61.5871 149.98 62.4322 152.186 64.015C154.392 65.5978 156.042 67.8373 156.899 70.4136C157.756 72.9899 157.778 75.7711 156.96 78.3601C156.126 80.9673 154.487 83.2431 152.279 84.8603C150.071 86.4774 147.407 87.3526 144.67 87.3601ZM144.67 68.2802C143.186 68.2783 141.751 68.8084 140.625 69.7743C139.499 70.7403 138.756 72.078 138.533 73.5446C138.309 75.0112 138.619 76.5095 139.405 77.7674C140.192 79.0253 141.403 79.9594 142.82 80.4002C143.419 80.5832 144.043 80.6775 144.67 80.6801C145.991 80.6832 147.278 80.2623 148.342 79.4793C149.405 78.6962 150.19 77.5923 150.579 76.3301C150.862 75.4054 150.924 74.4274 150.761 73.4744C150.598 72.5214 150.214 71.6198 149.639 70.8421C149.064 70.0643 148.315 69.432 147.452 68.9958C146.589 68.5595 145.637 68.3316 144.67 68.3301V68.2802Z" fill="#FFCA05"/>
<path d="M144.66 63.1001C145.816 63.1015 146.966 63.2768 148.07 63.6201C150.665 64.433 152.884 66.1486 154.324 68.4563C155.764 70.764 156.329 73.5111 155.918 76.1998C155.507 78.8886 154.147 81.3413 152.083 83.1134C150.02 84.8855 147.39 85.8599 144.67 85.8601C143.516 85.8595 142.369 85.6807 141.269 85.3301C138.669 84.5239 136.445 82.8115 135 80.504C133.555 78.1966 132.986 75.4473 133.396 72.756C133.807 70.0647 135.169 67.61 137.236 65.838C139.303 64.0661 141.937 63.0946 144.66 63.1001ZM144.66 82.1801C146.601 82.1788 148.47 81.4446 149.893 80.124C151.316 78.8035 152.187 76.9942 152.333 75.0585C152.479 73.1228 151.888 71.2035 150.679 69.6847C149.47 68.1659 147.732 67.1598 145.813 66.8678C143.894 66.5758 141.935 67.0193 140.329 68.1097C138.723 69.2002 137.589 70.857 137.152 72.7484C136.716 74.6399 137.009 76.6264 137.975 78.3104C138.941 79.9944 140.507 81.2515 142.36 81.8301C143.104 82.0624 143.88 82.1804 144.66 82.1801ZM144.66 60.1001C141.035 60.101 137.545 61.4706 134.887 63.9348C132.229 66.3991 130.599 69.7762 130.325 73.3904C130.05 77.0045 131.15 80.5891 133.405 83.4268C135.66 86.2644 138.904 88.1458 142.487 88.6945C146.069 89.2431 149.727 88.4185 152.728 86.3857C155.729 84.353 157.851 81.2618 158.671 77.7311C159.49 74.2004 158.946 70.4905 157.147 67.3438C155.349 64.197 152.428 61.8456 148.97 60.7601C147.575 60.3213 146.121 60.0987 144.66 60.1001ZM144.66 79.1801C144.181 79.1812 143.705 79.107 143.25 78.9601C142.181 78.6212 141.269 77.9116 140.678 76.9592C140.086 76.0069 139.855 74.8746 140.025 73.7666C140.195 72.6586 140.756 71.648 141.606 70.917C142.456 70.186 143.539 69.7828 144.66 69.7802C145.134 69.7806 145.606 69.8513 146.059 69.9901C147.135 70.3228 148.055 71.0305 148.653 71.9844C149.251 72.9383 149.486 74.0751 149.317 75.188C149.147 76.3009 148.584 77.316 147.729 78.0486C146.875 78.7812 145.785 79.1827 144.66 79.1801Z" fill="#390075"/>
<path fill-rule="evenodd" clip-rule="evenodd" d="M104.51 105.78C100.297 105.775 96.1095 105.131 92.0898 103.87C81.5789 100.576 72.8066 93.2422 67.7021 83.4814C62.5976 73.7206 61.5786 62.3319 64.8696 51.82C65.403 50.1157 66.041 48.4459 66.7797 46.82L3.61958 18.6401C3.28549 18.4849 3.01875 18.2143 2.86811 17.8781C2.71748 17.5419 2.69323 17.1626 2.79976 16.81L6.71968 4.31C6.82523 4.01582 7.0197 3.76169 7.27583 3.58258C7.53196 3.40347 7.83731 3.30819 8.14985 3.31C8.24624 3.29966 8.3435 3.29966 8.43989 3.31L108.01 22.84C118.68 23.7493 128.588 28.7444 135.664 36.7829C142.74 44.8214 146.437 55.282 145.986 65.9816C145.534 76.6813 140.968 86.7932 133.24 94.2068C125.512 101.621 115.219 105.763 104.51 105.77V105.78Z" fill="#FFCA05"/>
<path d="M8.14979 4.79004L107.8 24.34C116.057 25.0279 123.897 28.2633 130.236 33.599C136.576 38.9347 141.102 46.1075 143.189 54.1263C145.276 62.1452 144.821 70.6143 141.888 78.3636C138.954 86.113 133.687 92.7599 126.812 97.3864C119.938 102.013 111.797 104.39 103.513 104.19C95.2295 103.99 87.2126 101.223 80.5697 96.2699C73.9268 91.3171 68.9858 84.4236 66.4296 76.5417C63.8734 68.6599 63.828 60.1788 66.2997 52.27C66.9671 50.1517 67.8063 48.0915 68.8095 46.11L4.23963 17.29L8.14979 4.79004ZM8.14979 1.79004C7.51171 1.79043 6.89019 1.99418 6.37586 2.37183C5.86154 2.74948 5.48086 3.28132 5.28944 3.89001L1.36952 16.4C1.14865 17.1023 1.19406 17.8612 1.49647 18.5323C1.79888 19.2035 2.3373 19.7402 3.00965 20.04L64.8095 47.62C64.2893 48.8493 63.8324 50.1042 63.4398 51.38C60.7827 59.8747 60.827 68.9847 63.5668 77.4531C66.3065 85.9216 71.6064 93.3311 78.7357 98.6597C85.8651 103.988 94.4724 106.973 103.37 107.203C112.268 107.432 121.017 104.895 128.412 99.941C135.807 94.9871 141.481 87.8606 144.654 79.5447C147.827 71.2287 148.341 62.1332 146.125 53.5128C143.91 44.8924 139.073 37.1719 132.284 31.4165C125.495 25.6611 117.086 22.1543 108.22 21.38L8.72987 1.85999C8.53704 1.84019 8.34262 1.84019 8.14979 1.85999V1.79004Z" fill="#390075"/>
<path fill-rule="evenodd" clip-rule="evenodd" d="M68.8095 47.6101C68.5991 47.6125 68.3908 47.5681 68.1997 47.4801L3.61958 18.6702C3.28549 18.515 3.01875 18.2444 2.86811 17.9082C2.71748 17.572 2.69323 17.1927 2.79976 16.8401L4.87983 10.2201C4.97238 9.91305 5.16127 9.6441 5.4189 9.45313C5.67652 9.26216 5.98883 9.15943 6.30952 9.16016C6.46192 9.16391 6.61338 9.18738 6.75972 9.23011L9.9897 10.2301L75.3095 35.2301C75.5175 35.3099 75.7052 35.4346 75.8593 35.5955C76.0134 35.7563 76.1304 35.9493 76.2011 36.1605C76.2718 36.3718 76.2947 36.596 76.2685 36.8173C76.2424 37.0385 76.1678 37.2511 76.0498 37.4401L70.0498 46.9102C69.9179 47.1211 69.7351 47.2956 69.5185 47.4179C69.3019 47.5401 69.0582 47.6062 68.8095 47.6101Z" fill="#E5BE2A"/>
<path d="M6.30964 10.6699L9.53962 11.6699L74.7799 36.6699L68.7799 46.1399L4.21003 17.3198L6.27986 10.6998M6.27986 7.69983C5.64052 7.70088 5.01845 7.90621 4.50398 8.28577C3.9895 8.66533 3.60966 9.19926 3.41999 9.80981L1.33991 16.4398C1.11905 17.1421 1.16397 17.9011 1.46638 18.5723C1.76879 19.2435 2.3077 19.78 2.98005 20.0798L67.5499 48.8999C67.9383 49.0681 68.3566 49.1565 68.7799 49.1599C69.288 49.1592 69.7877 49.0295 70.232 48.7828C70.6763 48.5362 71.0506 48.1808 71.3199 47.7499L77.3199 38.2799C77.558 37.904 77.7094 37.4798 77.7633 37.0381C77.8171 36.5964 77.7721 36.1481 77.6314 35.726C77.4907 35.3038 77.2579 34.9183 76.9498 34.5973C76.6416 34.2763 76.2657 34.0278 75.8497 33.8699L10.6099 8.86987L10.44 8.80981L7.21003 7.80981C6.91846 7.71951 6.61486 7.67246 6.30964 7.66992L6.27986 7.69983Z" fill="#390075"/>
<path fill-rule="evenodd" clip-rule="evenodd" d="M104.64 103.1C96.5401 103.084 88.6524 100.511 82.1011 95.7481C75.5498 90.9853 70.6695 84.2757 68.1558 76.576C65.6421 68.8763 65.6235 60.5795 68.1026 52.8686C70.5817 45.1577 75.4317 38.4263 81.9615 33.6341C88.4913 28.8419 96.3674 26.2336 104.467 26.181C112.566 26.1284 120.476 28.6342 127.067 33.3411C133.659 38.0481 138.596 44.7159 141.175 52.394C143.754 60.0721 143.843 68.3684 141.43 76.1001C139.017 83.9586 134.134 90.8296 127.507 95.6934C120.879 100.557 112.86 103.155 104.64 103.1Z" fill="#FFD842"/>
<path d="M104.73 27.6001C110.533 27.6061 116.252 28.9768 121.427 31.6014C126.602 34.2261 131.088 38.0311 134.521 42.7091C137.954 47.3872 140.239 52.8071 141.191 58.5311C142.142 64.2552 141.735 70.1228 140 75.6602C137.955 82.1892 134.139 88.0233 128.978 92.5142C123.816 97.005 117.51 99.9768 110.76 101.099C104.011 102.221 97.0831 101.45 90.7458 98.8712C84.4084 96.2924 78.9104 92.007 74.8625 86.4911C70.8145 80.9752 68.3751 74.4448 67.8156 67.6259C67.2561 60.8069 68.5983 53.9662 71.693 47.8643C74.7878 41.7623 79.5137 36.6379 85.3458 33.0605C91.178 29.4832 97.8882 27.593 104.73 27.6001ZM104.73 24.6001C96.3006 24.6308 88.0913 27.295 81.2501 32.2201C74.2441 37.2399 69.0683 44.4098 66.5099 52.6401C64.6265 58.6291 64.1792 64.9772 65.2042 71.171C66.2293 77.3649 68.6979 83.2305 72.4103 88.2933C76.1227 93.3562 80.9748 97.4741 86.5739 100.314C92.173 103.154 98.3617 104.636 104.64 104.64C113.071 104.612 121.284 101.951 128.13 97.0302C134.973 92.076 140.071 85.0824 142.695 77.0521C145.319 69.0218 145.332 60.3671 142.734 52.3285C140.136 44.2899 135.06 37.2802 128.233 32.3044C121.405 27.3286 113.178 24.6422 104.73 24.6301V24.6001Z" fill="#390075"/>
<path fill-rule="evenodd" clip-rule="evenodd" d="M5.82959 21.33C5.51775 21.3282 5.20791 21.281 4.90967 21.1899L3.64991 20.8C2.87532 20.5498 2.23044 20.004 1.85596 19.2812C1.48148 18.5585 1.40764 17.7171 1.64991 16.9399L5.80957 3.66003C6.00317 3.0331 6.3942 2.48521 6.92383 2.0979C7.45346 1.71058 8.09388 1.50446 8.75 1.51001C9.059 1.50595 9.36618 1.55328 9.65967 1.65002L10.9199 2.04003C11.3046 2.16073 11.6618 2.35621 11.9707 2.61535C12.2796 2.87449 12.534 3.19217 12.7197 3.55004C12.9117 3.90722 13.0293 4.29958 13.0654 4.70349C13.1015 5.1074 13.0553 5.51446 12.9297 5.90002L8.77979 19.1799C8.58151 19.806 8.18842 20.3523 7.65772 20.7391C7.12701 21.1259 6.48628 21.3329 5.82959 21.33Z" fill="#FFCA05"/>
<path d="M8.73953 3.01003C8.8956 3.0088 9.05084 3.03237 9.19949 3.07998L10.4597 3.46999C10.6568 3.53553 10.8389 3.63928 10.9959 3.77529C11.1528 3.91131 11.2814 4.07696 11.3743 4.26272C11.4672 4.44847 11.5222 4.65065 11.5369 4.85781C11.5515 5.06497 11.5256 5.27302 11.4597 5.46999L7.29959 18.75C7.19942 19.0693 6.99959 19.3482 6.72976 19.546C6.45993 19.7439 6.1342 19.8504 5.79959 19.85C5.64062 19.8463 5.48251 19.8229 5.32937 19.7801L4.06961 19.38C3.87254 19.3145 3.69041 19.2107 3.53347 19.0747C3.37653 18.9387 3.24793 18.7731 3.15505 18.5873C3.06218 18.4015 3.00662 18.1994 2.99197 17.9922C2.97732 17.785 3.00379 17.577 3.06961 17.38L7.22976 4.1C7.33182 3.77993 7.53293 3.50069 7.80447 3.30288C8.076 3.10507 8.40359 2.99903 8.73953 3.00002M8.73953 2.27851e-05C7.76349 -0.00306167 6.81229 0.307089 6.02566 0.88491C5.23903 1.46273 4.65837 2.27769 4.36941 3.20998L0.209742 16.49C-0.153526 17.649 -0.0418212 18.9048 0.520777 19.9812C1.08338 21.0577 2.05079 21.8666 3.20974 22.23L4.45974 22.62C5.61874 22.9833 6.87451 22.8713 7.95095 22.3087C9.02739 21.7461 9.83608 20.779 10.1995 19.62L14.3596 6.33999C14.7199 5.18231 14.6061 3.92912 14.0437 2.855C13.4814 1.78089 12.5163 0.973523 11.3596 0.610008L10.0994 0.209984C9.65843 0.0752972 9.20057 0.00461571 8.73953 2.27851e-05Z" fill="#390075"/>
<path fill-rule="evenodd" clip-rule="evenodd" d="M256.92 170.35C250.39 170.35 242.28 169.03 233.44 166.58C224.095 163.916 214.99 160.474 206.22 156.29C172.56 140.29 138.6 112.4 144.17 81.7703C144.4 79.3503 146 78.2603 147.5 78.2603C147.915 78.2588 148.327 78.3393 148.711 78.4972C149.096 78.6551 149.445 78.8871 149.74 79.1802C149.968 79.4096 150.148 79.6829 150.268 79.9837C150.389 80.2844 150.447 80.6064 150.44 80.9302C150.445 81.0068 150.445 81.0837 150.44 81.1603C150.346 81.6536 150.266 82.1436 150.2 82.6303C150.69 82.2803 151.26 81.8302 151.71 81.4302C151.997 81.1692 152.374 81.0297 152.762 81.0409C153.149 81.0521 153.518 81.2132 153.789 81.4903C158.659 86.4903 171.42 91.6102 187.57 98.0802C190.33 99.1802 193.176 100.327 196.11 101.52C235.65 117.52 280.45 135.72 276.26 159.42C275.38 164.42 271.32 170.35 257 170.35H256.92ZM149.92 86.1002C149.33 111.19 178.24 136.31 208.82 150.8C217.281 154.837 226.064 158.159 235.079 160.73C243.379 163.04 250.94 164.27 256.93 164.28C262.58 164.28 269.41 163.28 270.28 158.35C273.62 139.51 229.38 121.57 193.84 107.15L187.67 104.66C170.19 97.6203 156.25 92.0002 149.91 86.1002H149.92Z" fill="#1A1A1A"/>
<path d="M147.51 79.77C148.27 79.77 148.97 80.27 148.95 80.89C143.79 109 175.57 136.71 208.18 152.16C216.718 156.23 225.582 159.575 234.68 162.16C243.03 164.48 250.68 165.75 256.93 165.76H256.99C265.29 165.76 270.88 163.54 271.76 158.59C275.31 138.59 230.99 120.59 194.4 105.74C173.72 97.35 156.69 90.94 150.29 84.35C151.146 83.8079 151.955 83.1958 152.71 82.52C158.65 88.64 175.18 94.63 195.54 102.89C233.17 118.15 278.75 136.64 274.77 159.14C273.59 165.82 266.87 168.83 256.99 168.83H256.93C250.43 168.83 242.48 167.51 233.86 165.11C224.591 162.471 215.559 159.059 206.86 154.91C173.2 138.91 140.19 111.74 145.66 81.91C145.79 80.29 146.66 79.71 147.5 79.71M147.5 76.71C146.235 76.7402 145.029 77.255 144.132 78.1482C143.235 79.0414 142.715 80.2448 142.68 81.51C140.03 96.19 145.68 111.04 159.4 125.65C170.4 137.36 186.81 148.71 205.58 157.65C214.428 161.865 223.614 165.334 233.04 168.02C242.04 170.52 250.26 171.84 256.91 171.85H256.98C263.92 171.85 275.84 170.27 277.72 159.68C282.13 134.79 236.72 116.37 196.66 100.12C193.72 98.9267 190.87 97.7833 188.11 96.6899C172.76 90.5399 159.5 85.23 154.85 80.45C154.57 80.1623 154.236 79.9335 153.867 79.7772C153.498 79.6209 153.101 79.5403 152.7 79.54C152.381 79.541 152.065 79.588 151.76 79.6799C151.566 79.0972 151.241 78.5669 150.81 78.13C150.377 77.6928 149.862 77.3463 149.293 77.1111C148.725 76.8758 148.115 76.7565 147.5 76.76V76.71ZM256.98 162.71H256.93C251.06 162.71 243.65 161.5 235.48 159.23C226.554 156.68 217.858 153.389 209.48 149.39C192.25 141.22 177.03 130.49 166.62 119.18C159.86 111.82 152.41 101.18 151.51 89.26C158.8 94.58 171.57 99.73 187.12 105.99L193.28 108.48C226.47 121.94 271.94 140.38 268.81 158.03C268.09 162.11 261.1 162.71 257 162.71H256.98Z" fill="#390075"/>
<path fill-rule="evenodd" clip-rule="evenodd" d="M113.94 97.6299C113.576 97.6407 113.221 97.52 112.94 97.29L98.2297 85.2399L79.2297 86.7399H79.1096C78.8716 86.7355 78.6381 86.6748 78.428 86.5629C78.2179 86.451 78.0371 86.2911 77.9006 86.0961C77.7641 85.9011 77.6756 85.6766 77.6423 85.441C77.6091 85.2053 77.6324 84.965 77.7097 84.7399L84.6394 66.9699L77.3396 49.3499C77.2436 49.1228 77.2056 48.8754 77.2288 48.6299C77.2519 48.3844 77.3356 48.1486 77.4724 47.9434C77.6092 47.7382 77.7948 47.5702 78.0125 47.4544C78.2301 47.3386 78.4729 47.2787 78.7195 47.28L97.8494 48.3799L112.349 35.9899C112.626 35.7485 112.983 35.62 113.349 35.6299C113.502 35.628 113.655 35.6516 113.8 35.6999C114.036 35.7715 114.25 35.9002 114.425 36.0746C114.599 36.2491 114.728 36.4638 114.8 36.6999L119.63 55.1499L135.9 65.1499C136.116 65.2819 136.296 65.4667 136.422 65.6871C136.548 65.9074 136.616 66.1562 136.619 66.41C136.62 66.664 136.558 66.9141 136.438 67.1377C136.317 67.3613 136.142 67.5512 135.929 67.6899L119.88 77.9899L115.429 96.54C115.369 96.7893 115.245 97.0188 115.07 97.2062C114.895 97.3937 114.674 97.5327 114.429 97.6099C114.268 97.6416 114.103 97.6483 113.94 97.6299Z" fill="#FFE168"/>
<path d="M113.31 37.0602L118.31 56.0602L135.09 66.3403L118.51 76.9903L113.92 96.1303L98.6998 83.6603L79.0797 85.2203L86.23 66.8803L78.69 48.7103L98.3399 49.8503L113.29 37.0602M113.29 34.0602C112.575 34.0602 111.883 34.3156 111.34 34.7803L97.3399 46.7803L78.9097 45.7103H78.73C78.2366 45.7104 77.7506 45.8323 77.3155 46.0651C76.8804 46.2979 76.5094 46.6344 76.2354 47.0448C75.9615 47.4553 75.7928 47.9269 75.7447 48.418C75.6966 48.9091 75.7709 49.4045 75.96 49.8603L83.0299 66.9203L76.3199 84.1203C76.1403 84.5759 76.0748 85.0686 76.1295 85.5552C76.1841 86.0419 76.3572 86.5077 76.6334 86.9122C76.9096 87.3166 77.2805 87.6473 77.7139 87.8753C78.1473 88.1033 78.63 88.2217 79.1197 88.2203H79.3599L97.7696 86.7603L112.06 98.4603C112.595 98.8995 113.267 99.1398 113.96 99.1403C114.3 99.1462 114.639 99.092 114.96 98.9803C115.449 98.8242 115.889 98.5456 116.239 98.1709C116.589 97.7963 116.837 97.3382 116.96 96.8403L121.26 78.8403L136.81 68.8403C137.238 68.5656 137.59 68.1864 137.832 67.7382C138.074 67.2901 138.197 66.7878 138.191 66.2786C138.185 65.7695 138.05 65.2703 137.798 64.8279C137.546 64.3856 137.185 64.0147 136.75 63.7503L121 54.1103L116.32 36.2503C116.193 35.7579 115.942 35.3059 115.592 34.9368C115.243 34.5677 114.805 34.2937 114.32 34.1403C114.028 34.0524 113.725 34.0086 113.42 34.0103L113.29 34.0602Z" fill="#390075"/>
<path fill-rule="evenodd" clip-rule="evenodd" d="M5.82959 21.3301C5.51775 21.3283 5.20791 21.2812 4.90967 21.1901L3.65967 20.8002C2.88352 20.5522 2.23716 20.0067 1.86231 19.2832C1.48746 18.5597 1.41466 17.7172 1.65967 16.9401C1.74895 16.6849 1.90435 16.4579 2.10987 16.2822C2.31539 16.1066 2.56361 15.9885 2.82959 15.9401C2.92267 15.9302 3.01679 15.9302 3.10987 15.9401C3.33605 15.9384 3.55982 15.988 3.76416 16.085C3.96851 16.1819 4.14782 16.3239 4.28955 16.5001L5.57959 16.9202L9.3999 4.92017L9.80957 3.62012C9.89607 3.36329 10.0508 3.13469 10.2568 2.95862C10.4628 2.78254 10.7128 2.66556 10.98 2.62012H11.25C11.4777 2.62157 11.7019 2.67446 11.9063 2.7749C12.1106 2.87534 12.2895 3.02069 12.4297 3.20007C12.7385 3.59078 12.9475 4.05096 13.0381 4.54065C13.1287 5.03034 13.0982 5.53479 12.9497 6.01013L8.79981 19.2501C8.58705 19.8655 8.18522 20.398 7.65186 20.7715C7.1185 21.145 6.48066 21.3405 5.82959 21.3301Z" fill="#E7BC24"/>
<path d="M11.2299 4.01013C11.3877 4.2106 11.4936 4.4467 11.539 4.69775C11.5843 4.94881 11.5674 5.20709 11.4897 5.45007L7.34952 18.6801C7.24935 18.9993 7.05002 19.2783 6.78018 19.4762C6.51035 19.6741 6.18413 19.7806 5.84952 19.7802C5.69016 19.7814 5.53186 19.7578 5.37979 19.7101L4.11954 19.3101C3.92247 19.2445 3.74035 19.1409 3.58341 19.0049C3.42647 18.8689 3.29787 18.7032 3.20499 18.5175C3.11211 18.3317 3.05704 18.1294 3.04239 17.9222C3.02774 17.7151 3.05372 17.507 3.11954 17.3101C3.31855 17.5585 3.58639 17.7429 3.88956 17.8401L5.14981 18.2301C5.29846 18.2777 5.4537 18.3014 5.60977 18.3002C5.94685 18.306 6.27674 18.2017 6.54923 18.0032C6.82172 17.8047 7.02172 17.5227 7.11954 17.2001L10.8598 5.26013L11.2694 3.96008M11.2694 0.960083C11.0897 0.945286 10.9096 0.945286 10.7299 0.960083C10.1903 1.05774 9.68755 1.30137 9.27677 1.66455C8.86598 2.02773 8.56285 2.49663 8.39981 3.02014L7.98966 4.33008L4.72989 14.7301C4.24882 14.4236 3.68998 14.2605 3.11954 14.2601C2.93847 14.2619 2.75782 14.2786 2.5795 14.3101C2.04059 14.4102 1.53978 14.6562 1.13077 15.0211C0.721765 15.3861 0.420372 15.8561 0.259677 16.3801C0.0767741 16.9553 0.00951395 17.5608 0.0614346 18.1621C0.113355 18.7634 0.283625 19.3485 0.562411 19.8838C0.841197 20.4191 1.22302 20.8939 1.68595 21.2811C2.14887 21.6683 2.68357 21.9603 3.25968 22.1401L4.50968 22.5302C5.66867 22.8934 6.92445 22.7813 8.00089 22.2188C9.07733 21.6562 9.8865 20.6891 10.2499 19.5302L14.4096 6.25012C14.6303 5.54159 14.6755 4.79007 14.5414 4.06018C14.4073 3.33029 14.0978 2.64382 13.6396 2.06006C13.3591 1.70202 13.0011 1.41249 12.5922 1.21326C12.1833 1.01403 11.7345 0.91041 11.2797 0.910156L11.2694 0.960083Z" fill="#390075"/>
</svg>
