<svg width="235" height="251" viewBox="0 0 235 251" fill="none" xmlns="http://www.w3.org/2000/svg">
<path d="M204.882 35.3899C206.98 34.935 209.172 35.2623 211.046 36.31C223.969 43.8879 219.151 90.0412 206.32 111.989C209.378 117.955 212.032 124.119 214.266 130.44C232.14 83.1827 237.769 28.6568 215.78 19.9748C194.318 11.4936 156.202 46.5227 148.691 53.7242C156.165 57.6273 163.251 62.2315 169.853 67.4748C174.353 61.3523 192.495 37.6231 204.882 35.3899Z" fill="#FAA327"/>
<path d="M209.306 38.6368C208.169 38.0266 206.848 37.8539 205.592 38.1517C194.259 40.1925 176.033 64.2979 172.269 69.4335C176.248 72.7302 180.043 76.2429 183.636 79.9556C191.864 88.5477 198.897 98.2088 204.547 108.678C216.399 86.3291 219.535 44.6423 209.306 38.6368Z" fill="#FFF3E9"/>
<path d="M214.91 30.774C192.779 25.5381 168.439 58.6685 164.876 63.7121C166.549 64.9277 168.208 66.1823 169.853 67.4759C174.353 61.3534 192.494 37.6243 204.882 35.391C206.98 34.9361 209.172 35.2634 211.046 36.3112C223.969 43.8891 219.151 90.0424 206.32 111.99C209.377 117.956 212.032 124.12 214.266 130.441C219.621 116.317 223.782 101.768 226.704 86.9477C229.188 64.1721 229.522 34.2368 214.91 30.774Z" fill="#EF7F25"/>
<path d="M209.306 38.6368C208.169 38.0266 206.848 37.8539 205.592 38.1517C194.259 40.1925 176.033 64.2979 172.269 69.4335C174.778 71.5412 177.288 73.7662 179.722 76.0831C183.661 69.2747 198.499 44.6756 205.307 48.1133C213.186 52.0946 213.781 79.3534 213.781 79.3785C216.925 60.8018 215.83 42.4676 209.306 38.6368Z" fill="#F9D3B7"/>
<g opacity="0.4">
<path d="M208.996 22.5683C218.097 22.8861 223.575 27.8209 226.795 32.7139C224.478 26.4492 220.873 21.9827 215.78 19.9753C194.317 11.4941 156.202 46.5232 148.691 53.7247C150.707 54.7702 152.689 55.8827 154.654 57.0704C154.654 57.0704 190.629 21.9159 208.996 22.5683Z" fill="white"/>
</g>
<path d="M215.077 137.735C214.447 137.945 213.762 137.924 213.145 137.676C212.8 137.54 212.484 137.336 212.217 137.078C211.95 136.819 211.737 136.511 211.589 136.17C211.442 135.829 211.363 135.462 211.357 135.09C211.351 134.719 211.419 134.35 211.556 134.004C225.29 99.4103 234.315 53.1398 225.006 31.6188C222.756 26.4247 219.519 22.9619 215.378 21.3309C192.26 12.2056 148.607 55.6239 148.172 56.0588C147.914 56.3407 147.602 56.5675 147.253 56.7255C146.905 56.8836 146.529 56.9696 146.147 56.9783C145.764 56.9871 145.384 56.9185 145.029 56.7766C144.674 56.6347 144.352 56.4225 144.081 56.1528C143.81 55.883 143.597 55.5613 143.453 55.2069C143.31 54.8525 143.239 54.4728 143.247 54.0905C143.254 53.7083 143.338 53.3313 143.495 52.9825C143.651 52.6337 143.877 52.3202 144.158 52.0607C146.056 50.1621 190.896 5.58123 217.453 16.095C223.04 18.3031 227.331 22.7864 230.2 29.4108C240.58 53.4075 230.543 101.551 216.817 136.12C216.66 136.499 216.424 136.839 216.124 137.118C215.823 137.396 215.466 137.607 215.077 137.735Z" fill="#020772"/>
<path d="M205.467 114.549C204.912 114.751 204.307 114.773 203.738 114.613C203.169 114.454 202.664 114.119 202.295 113.658C201.926 113.196 201.71 112.631 201.679 112.04C201.648 111.45 201.803 110.865 202.122 110.367C211.64 94.5588 216.985 63.327 212.912 47.3181C211.933 43.4873 210.486 40.9112 208.73 39.8741C201.996 35.9262 183.119 56.251 172.488 71.2396C172.036 71.808 171.384 72.1816 170.666 72.2837C169.947 72.3857 169.217 72.2085 168.625 71.7883C168.034 71.3681 167.626 70.737 167.485 70.025C167.345 69.3129 167.483 68.574 167.871 67.9607C172.772 61.0519 197.931 26.9765 211.59 34.9893C214.735 36.8378 217.026 40.5097 218.398 45.9213C222.856 63.4024 217.303 96.1062 206.981 113.286C206.648 113.878 206.109 114.327 205.467 114.549Z" fill="#020772"/>
<path d="M31.8615 99.2432C31.6775 96.4329 30.7405 80.8421 30.7572 65.1342C30.8158 33.3505 34.5126 28.0226 37.7328 26.9102C40.3591 25.9985 43.4207 26.2327 46.8165 27.5877C56.3934 31.4185 67.3755 43.9395 73.9832 58.3843C74.8196 57.8574 75.7398 57.3473 76.6097 56.8622C82.0127 53.8972 87.6494 51.3796 93.4633 49.3345C89.2812 43.1701 72.4609 19.0897 60.1824 10.8092C51.7681 5.14669 44.7672 3.22294 38.7869 4.95432C30.8242 7.22936 24.342 16.1287 19.5493 31.3932C10.5328 60.0069 17.8095 103.25 20.4944 116.908C23.971 110.825 27.7655 104.928 31.8615 99.2432Z" fill="#FAA327"/>
<path d="M45.5191 30.2049C42.9597 29.1761 40.7602 28.9754 38.9703 29.5859C38.1339 29.8703 34.0853 32.9316 34.0352 65.1754C34.0352 77.1026 34.5537 88.9461 34.8716 95.1356C46.0461 80.49 58.7346 68.178 71.2307 60.0732C64.9826 46.0131 54.5189 33.8098 45.5191 30.2049Z" fill="#FFF3E9"/>
<path d="M45.5191 30.2049C42.9597 29.1761 40.7602 28.9754 38.9703 29.5859C38.1339 29.8703 34.0853 32.9316 34.0352 65.1754C34.0352 66.6977 34.0352 68.2199 34.0352 69.7338C34.0352 69.7338 36.6614 40.5263 42.5414 38.6527C48.2123 36.8377 60.9427 55.2137 63.0589 65.9699C65.7856 63.8203 68.5121 61.8464 71.2388 60.115C64.9824 46.0131 54.5189 33.8098 45.5191 30.2049Z" fill="#F9D3B7"/>
<path d="M49.4671 22.6779C29.1088 14.7319 23.5383 31.2845 20.0672 48.5397C16.5961 65.7949 19.4314 110.895 19.4648 111.438C19.8412 113.538 20.1843 115.378 20.4687 116.85C23.9542 110.774 27.7569 104.886 31.8607 99.2097C31.6767 96.3994 30.7397 80.8086 30.7564 65.1007C30.815 33.317 34.5118 27.9891 37.732 26.8767C40.3583 25.965 43.4199 26.1992 46.8157 27.5542C56.3927 31.385 67.3748 43.906 73.9824 58.3508C74.8188 57.8239 75.739 57.3138 76.6089 56.8287C77.8468 56.1428 79.1181 55.4904 80.3727 54.8547C77.2445 48.6485 66.4463 29.3692 49.4671 22.6779Z" fill="#EF7F25"/>
<g opacity="0.4">
<path d="M21.665 28.8736C21.665 28.8736 32.7809 2.94482 49.2667 10.4725C65.7524 18.0003 88.4613 51.1893 88.4613 51.1893H88.5364C90.1674 50.5285 91.8067 49.8929 93.4712 49.3074C89.2891 43.143 72.4688 19.0626 60.1903 10.7821C51.7759 5.1196 44.7751 3.19584 38.7947 4.92722C32.1034 6.84261 26.4494 13.4586 21.9578 24.5913C21.5717 25.9843 21.472 27.4411 21.665 28.8736Z" fill="white"/>
</g>
<path d="M20.6529 124.126L20.4021 124.193C20.0402 124.277 19.6653 124.289 19.2986 124.229C18.932 124.168 18.5808 124.036 18.2654 123.839C17.95 123.642 17.6765 123.386 17.4604 123.083C17.2443 122.781 17.09 122.439 17.0062 122.077C16.4709 119.777 4.13376 65.343 15.2497 30.0715C20.3853 13.7781 27.3026 4.31821 36.3777 1.1482C44.0142 -1.53669 52.6458 0.479135 62.7329 7.27918C77.5207 17.2492 97.3771 47.2012 98.2135 48.4726C98.6261 49.0992 98.7729 49.864 98.6215 50.5989C98.4701 51.3338 98.0332 51.9784 97.4065 52.391C96.7798 52.8036 96.0148 52.9504 95.2799 52.799C94.5451 52.6476 93.9005 52.2107 93.4879 51.584C93.2871 51.2829 73.4141 21.3057 59.5714 11.9713C51.0651 6.24191 44.0894 4.44358 38.2429 6.49279C31.0665 9.00204 25.153 17.5002 20.6782 31.7694C10.0307 65.5354 22.4179 120.22 22.5434 120.772C22.7082 121.466 22.605 122.197 22.2547 122.819C21.9043 123.441 21.3322 123.908 20.6529 124.126Z" fill="#020772"/>
<path d="M34.4114 102.321C34.1869 102.396 33.9535 102.441 33.7172 102.455C33.3457 102.481 32.9728 102.433 32.6198 102.315C32.2667 102.196 31.9406 102.01 31.66 101.765C31.3795 101.52 31.1501 101.222 30.9849 100.888C30.8198 100.555 30.7222 100.191 30.6978 99.8199C30.6978 99.6526 29.5351 82.4978 29.5686 65.159C29.6188 32.6559 33.5666 26.9097 37.4308 25.5798H37.548C48.6472 21.908 66.5045 37.7246 75.8388 59.5383C76.1339 60.2282 76.143 61.007 75.8637 61.7034C75.5845 62.3999 75.0401 62.9569 74.3502 63.2519C73.6603 63.5469 72.8813 63.5558 72.1848 63.2766C71.4884 62.9974 70.9316 62.453 70.6366 61.7631C62.0633 41.7393 46.5312 28.5657 39.338 30.9495H39.2792C38.9196 31.1921 35.1891 34.5379 35.2225 66.2212C35.2225 82.9997 36.3352 99.293 36.3436 99.4603C36.3827 100.084 36.2141 100.702 35.8646 101.22C35.515 101.737 35.0042 102.124 34.4114 102.321Z" fill="#020772"/>
<path d="M191.081 79.0516C188.012 75.398 184.731 71.9293 181.253 68.6635C181.134 68.5844 181.027 68.4886 180.935 68.379C175.112 62.9191 168.679 58.148 161.764 54.16C161.524 54.1196 161.301 54.0124 161.12 53.8506C161.074 53.8131 161.032 53.7711 160.995 53.7252C150.111 47.5705 138.081 43.7131 125.648 42.3918C105.547 40.2666 85.3145 44.9528 68.1948 55.699C56.0584 63.4359 43.0186 77.5546 31.8859 94.6593L31.8275 94.7512C27.6427 101.196 23.8358 107.88 20.4269 114.767C20.3891 115.06 20.2572 115.333 20.0508 115.544C6.95252 142.31 -0.148776 172.513 6.72654 196.493C17.5414 234.232 75.7222 241.333 97.6195 244.009L99.0665 244.185C103.249 244.695 110.275 245.339 114.172 245.557L115.444 245.624C135.869 246.778 190.127 249.806 208.043 225.633C230.476 195.355 227.046 121.767 191.081 79.0516Z" fill="#FAA327"/>
<path d="M5.07048 148.14C5.07048 148.14 6.54275 145.037 18.01 147.73C34.2029 151.536 35.5744 169.209 63.9707 160.627C80.3058 155.684 94.7841 141.582 114.155 143.615C133.527 145.647 145.613 165.997 156.67 174.512C168.832 183.888 183.544 184.842 195.706 181.722C207.867 178.602 216.131 167.929 223.517 172.145C223.517 172.145 228.535 233.253 181.027 243.123C133.519 252.993 63.9291 243.959 37.6824 230.376C3.4564 212.636 1.13097 186.899 5.07048 148.14Z" fill="white"/>
<g opacity="0.25">
<path d="M95.1612 187.985C100.12 188.751 105.188 187.69 109.422 184.999C111.439 187.068 113.857 188.703 116.527 189.805C119.198 190.907 122.066 191.452 124.954 191.406C135.075 191.406 138.253 180.106 138.253 180.106C131.428 186.923 121.885 185.459 118.64 181.829C116.03 178.919 118.238 169.643 118.238 169.643C118.238 169.643 104.395 167.92 104.387 168.405C104.379 168.89 104.655 179.496 98.8499 181.436C93.6641 183.168 83.3427 174.929 83.3427 174.929C82.2638 177.279 87.1567 186.614 95.1612 187.985Z" fill="#020772"/>
</g>
<g opacity="0.25">
<path d="M184.072 227.415C129.078 247.664 48.4557 222.564 27.8298 204.949C7.2038 187.334 13.7194 132.967 13.7194 132.967C12.9809 133.64 12.332 134.404 11.7876 135.242C4.36025 156.437 1.49947 178.25 6.72706 196.493C17.5419 234.232 75.7228 241.333 97.6201 244.009L99.067 244.185C103.249 244.695 110.275 245.339 114.173 245.557L115.444 245.624C135.869 246.778 190.127 249.805 208.043 225.633C216.491 214.233 221.276 196.677 222.028 176.946C217.52 196.124 205.267 219.126 184.072 227.415Z" fill="#020772"/>
</g>
<g opacity="0.4">
<path d="M89.498 51.6761C109.221 46.2144 130.407 48.9076 148.633 55.8582C146.324 60.0403 150.498 66.8655 158.017 71.24C165.536 75.6144 173.683 75.8487 176.092 71.7084C176.149 71.6086 176.199 71.5052 176.242 71.3988C181.273 75.2954 185.725 79.8857 189.466 85.0324C205.609 108.009 218.239 136.965 218.431 137.409C213.822 116.197 204.831 95.3454 191.081 79.0187C188.013 75.365 184.731 71.8961 181.253 68.6303C181.134 68.5512 181.027 68.4556 180.935 68.346C175.112 62.8861 168.679 58.115 161.764 54.127C161.525 54.0866 161.301 53.9792 161.12 53.8174C161.074 53.7799 161.032 53.7379 160.995 53.692C150.111 47.5373 138.081 43.6799 125.648 42.3586C105.547 40.2334 85.3146 44.9196 68.1948 55.6658C56.0585 63.4027 43.0186 77.5214 31.886 94.6261L31.8276 94.7179C27.6427 101.163 23.8359 107.846 20.4269 114.733C20.3891 115.027 20.2573 115.3 20.0508 115.511C19.7915 116.047 19.5323 116.582 19.2814 117.117C18.6627 118.878 18.209 120.692 17.9263 122.537C17.9263 122.537 50.4793 62.4742 89.498 51.6761Z" fill="white"/>
</g>
<g opacity="0.4">
<path d="M144.286 70.7681C145.461 69.172 144.745 66.6507 142.688 65.1366C140.631 63.6225 138.01 63.6889 136.836 65.285C135.661 66.8811 136.377 69.4025 138.434 70.9166C140.492 72.4307 143.112 72.3642 144.286 70.7681Z" fill="white"/>
</g>
<path d="M186.371 244.552C162.475 252.465 131.293 250.708 115.201 249.805L113.929 249.73C109.948 249.504 102.763 248.893 98.5478 248.341L97.109 248.166C74.4589 245.397 14.3042 238.053 2.71146 197.654C-3.53655 175.908 1.13067 145.947 15.5003 115.544C28.5399 87.9421 47.8691 63.6861 65.9608 52.1687C84.9491 40.1277 107.652 35.3596 129.88 38.7442C154.387 42.4161 176.66 55.4222 194.284 76.341C211.447 96.7327 222.889 126.066 225.683 156.837C228.309 185.853 222.972 212.501 211.405 228.117C205.6 235.962 196.659 241.148 186.371 244.552ZM114.239 244.075L115.518 244.151C135.726 245.288 189.407 248.333 206.855 224.754C228.97 194.886 225.507 122.227 189.951 79.9878C152.254 35.2229 100.831 36.6615 69.0054 56.9362C51.7669 67.9267 33.2236 91.3128 20.6188 117.994C6.82634 147.169 2.27653 175.649 8.14815 196.124C18.6953 232.926 76.1567 239.935 97.7947 242.578L99.2417 242.754C103.357 243.264 110.366 243.891 114.239 244.109V244.075Z" fill="#020772"/>
<path d="M115.185 172.771C114.263 173.107 113.276 173.221 112.303 173.105C111.33 172.988 110.397 172.645 109.581 172.102C104.228 168.581 91.3637 159.355 98.3645 156.06C107.088 151.953 126.744 154.789 127.639 160.091C128.434 164.416 120.83 170.722 115.185 172.771Z" fill="#020772"/>
<path d="M105.198 190.077C102.039 191.067 98.7015 191.353 95.4203 190.914C87.6919 189.952 81.6028 185.435 78.6921 178.527C78.5487 178.184 78.4744 177.816 78.4732 177.445C78.4719 177.073 78.5437 176.705 78.6847 176.362C78.8257 176.018 79.0327 175.705 79.2945 175.442C79.5562 175.178 79.8674 174.969 80.2101 174.825C80.5528 174.682 80.9205 174.608 81.292 174.606C81.6634 174.605 82.0314 174.677 82.3751 174.818C82.7187 174.959 83.0312 175.166 83.2948 175.428C83.5584 175.69 83.7681 176.001 83.9115 176.344C86.7637 183.169 92.7687 184.883 96.0893 185.301C100.539 185.853 104.587 184.682 106.243 183.177L107.916 171.384C107.971 171.016 108.098 170.662 108.29 170.343C108.481 170.024 108.734 169.746 109.033 169.525C109.332 169.303 109.671 169.143 110.032 169.053C110.393 168.963 110.769 168.945 111.137 169C111.505 169.055 111.858 169.182 112.177 169.373C112.496 169.565 112.774 169.817 112.995 170.116C113.217 170.415 113.377 170.755 113.467 171.116C113.557 171.477 113.575 171.852 113.52 172.22L111.722 184.85C111.657 185.324 111.469 185.774 111.178 186.155C109.619 188.028 107.537 189.394 105.198 190.077Z" fill="#020772"/>
<path d="M130.257 192.569C128.419 193.175 126.503 193.508 124.569 193.556C112.918 193.883 107.423 187.4 107.197 187.124C106.717 186.548 106.485 185.804 106.553 185.056C106.621 184.309 106.984 183.619 107.561 183.139C108.138 182.658 108.881 182.427 109.629 182.495C110.376 182.564 111.066 182.926 111.546 183.503C111.747 183.737 115.728 188.145 124.41 187.894C132.917 187.66 136.722 180.366 136.881 180.082C137.234 179.445 137.818 178.969 138.513 178.753C139.207 178.536 139.958 178.596 140.61 178.919C141.262 179.242 141.764 179.804 142.012 180.488C142.26 181.172 142.235 181.925 141.942 182.591C139.415 187.248 135.252 190.803 130.257 192.569Z" fill="#020772"/>
<path d="M68.6474 94.2655C70.7385 95.1976 73.0074 95.6628 75.2966 95.6288C78.9601 95.6288 85.0325 95.1521 87.6672 92.3417C91.5816 88.1597 84.1963 82.3633 74.5023 82.5222C64.8082 82.6812 63.6286 86.9468 64.3898 89.9579C64.8916 91.9234 66.5313 93.2786 68.6474 94.2655Z" fill="white"/>
<path d="M150.263 106.385C152.353 107.324 154.623 107.792 156.913 107.757C160.576 107.757 166.64 107.272 169.283 104.461C173.198 100.279 165.812 94.4913 156.118 94.6502C146.424 94.8091 145.245 99.0747 146.006 102.086C146.508 104.051 148.147 105.406 150.263 106.385Z" fill="white"/>
<path d="M81.4775 175.474C81.4775 175.474 87.5332 164.274 97.1603 160.184C106.787 156.094 122.395 158.277 127.89 163.304C133.385 168.331 143.297 179.748 138.387 184.691C133.477 189.634 119.242 193.147 113.119 188.037C106.997 182.926 99.8619 190.462 93.572 187.694C87.2822 184.925 81.9041 180.408 81.4775 175.474Z" fill="white"/>
<g opacity="0.25">
<path d="M95.1344 187.92C100.079 188.681 105.132 187.62 109.353 184.934C111.37 187.003 113.788 188.638 116.458 189.74C119.129 190.842 121.997 191.386 124.885 191.34C135.006 191.34 138.184 180.049 138.184 180.049C131.368 186.857 121.824 185.394 118.579 181.772C115.969 178.861 118.177 169.577 118.177 169.577C118.177 169.577 104.326 167.854 104.326 168.339C104.326 168.824 104.586 179.43 98.781 181.37C93.5952 183.102 83.2739 174.863 83.2739 174.863C82.2618 177.213 87.1383 186.514 95.1344 187.92Z" fill="#020772"/>
</g>
<path d="M115.167 172.713C114.244 173.047 113.255 173.16 112.281 173.043C111.306 172.925 110.372 172.58 109.555 172.036C104.21 168.523 91.3462 159.289 98.347 155.993C107.071 151.887 126.718 154.722 127.621 160.033C128.416 164.358 120.805 170.614 115.167 172.713Z" fill="#020772"/>
<path d="M105.172 190.01C102.014 191.001 98.6759 191.286 95.3948 190.847C87.6663 189.885 81.5856 185.368 78.6665 178.459C78.377 177.767 78.374 176.988 78.6587 176.294C78.9434 175.6 79.4924 175.048 80.1845 174.758C80.8766 174.469 81.6554 174.466 82.3495 174.751C83.0436 175.035 83.596 175.584 83.8855 176.276C86.746 183.101 92.743 184.816 96.0719 185.234C100.513 185.786 104.562 184.615 106.226 183.11L107.899 171.325C107.951 170.957 108.075 170.602 108.264 170.283C108.453 169.963 108.704 169.683 109.001 169.46C109.298 169.236 109.636 169.074 109.996 168.981C110.356 168.889 110.73 168.868 111.098 168.92C111.466 168.972 111.82 169.096 112.14 169.285C112.46 169.474 112.74 169.724 112.963 170.022C113.186 170.319 113.349 170.657 113.442 171.017C113.534 171.377 113.555 171.751 113.503 172.119L111.705 184.757C111.638 185.228 111.454 185.674 111.169 186.054C109.612 187.944 107.523 189.322 105.172 190.01Z" fill="#020772"/>
<path d="M130.239 192.511C128.398 193.114 126.479 193.444 124.543 193.49C112.892 193.824 107.405 187.334 107.179 187.058C106.699 186.481 106.467 185.737 106.536 184.99C106.604 184.242 106.966 183.553 107.543 183.072C108.12 182.592 108.864 182.361 109.611 182.429C110.359 182.497 111.049 182.859 111.529 183.436C111.73 183.67 115.711 188.078 124.384 187.836C132.899 187.593 136.696 180.308 136.855 180.015C137.199 179.352 137.789 178.849 138.499 178.616C139.209 178.383 139.983 178.438 140.653 178.769C141.321 179.103 141.83 179.689 142.067 180.398C142.304 181.107 142.249 181.881 141.915 182.55C139.385 187.196 135.226 190.744 130.239 192.511Z" fill="#020772"/>
<g opacity="0.4">
<path d="M111.98 160.82C110.441 160.427 101.057 158.746 103.44 158.027C105.824 157.307 124.928 157.265 122.896 159.03C120.863 160.795 111.98 160.82 111.98 160.82Z" fill="white"/>
</g>
<path d="M146.2 190.036L145.003 199.412L193.95 199.144L193.725 190.245L146.2 190.036Z" fill="#E30613"/>
<path d="M145.019 204.145L143.823 213.521L192.77 213.254L192.544 204.354L145.019 204.145Z" fill="#1CA75E"/>
<path d="M26.3995 162.834L23.2295 170.354L64.0047 181.47L65.878 174.017L26.3995 162.834Z" fill="#FFD500"/>
<path d="M24.066 174.26L20.9629 181.637L60.9347 192.528L62.775 185.226L24.066 174.26Z" fill="#004F9F"/>
<path d="M74.2837 104.01C82.514 106.076 86.696 117.393 83.6263 129.345C80.5567 141.298 71.4066 149.268 63.1763 147.203C54.946 145.137 50.7554 133.82 53.825 121.876C56.8947 109.932 66.0534 101.953 74.2837 104.01Z" fill="#390075"/>
<path d="M73.0619 109.046C75.2115 111.011 74.8854 115.336 72.326 118.69C69.7665 122.044 65.9607 123.164 63.8111 121.199C61.6615 119.233 61.996 114.917 64.5471 111.555C67.0981 108.193 70.9458 107.072 73.0619 109.046Z" fill="white"/>
<path d="M72.6358 136.907C73.514 138.228 72.8782 140.445 71.2137 141.858C69.5492 143.272 67.4915 143.347 66.6216 142.026C65.7517 140.704 66.3792 138.496 68.0437 137.082C69.7081 135.669 71.7659 135.594 72.6358 136.907Z" fill="#B199C5"/>
<path d="M157.866 115.168C166.448 115.427 173.039 125.731 172.587 138.186C172.136 150.64 164.809 160.518 156.227 160.259C147.645 159.999 141.062 149.695 141.514 137.249C141.966 124.803 149.285 114.908 157.866 115.168Z" fill="#390075"/>
<path d="M157.783 120.396C160.292 121.885 160.936 126.25 159.138 130.09C157.339 133.929 153.81 135.894 151.259 134.406C148.708 132.917 148.105 128.551 149.904 124.72C151.702 120.889 155.231 118.915 157.783 120.396Z" fill="white"/>
<path d="M163.395 148.039C164.549 149.151 164.399 151.477 163.061 153.233C161.722 154.99 159.715 155.516 158.552 154.396C157.39 153.275 157.557 150.958 158.887 149.202C160.217 147.445 162.207 146.918 163.395 148.039Z" fill="#B199C5"/>
</svg>
