<svg width="164" height="56" viewBox="0 0 164 56" fill="none" xmlns="http://www.w3.org/2000/svg">
<path d="M59.7811 30.3032V54.9636H56.7949V30.3032H59.7811Z" fill="#123091"/>
<path d="M85.3235 30.3032V54.9636H82.4336L68.9957 35.6013H68.7548V54.9636H65.7686V30.3032H68.6585L82.1446 49.7136H82.3854V30.3032H85.3235Z" fill="#123091"/>
<path d="M107.482 30.3032H110.468V46.6311C110.468 48.3168 110.071 49.822 109.276 51.1465C108.49 52.463 107.378 53.5026 105.941 54.2652C104.504 55.0198 102.818 55.397 100.884 55.397C98.9491 55.397 97.2633 55.0198 95.8264 54.2652C94.3895 53.5026 93.2737 52.463 92.479 51.1465C91.6923 49.822 91.2989 48.3168 91.2989 46.6311V30.3032H94.2851V46.3902C94.2851 47.5944 94.55 48.666 95.0799 49.6052C95.6097 50.5364 96.3643 51.2709 97.3436 51.8088C98.331 52.3386 99.511 52.6035 100.884 52.6035C102.256 52.6035 103.436 52.3386 104.424 51.8088C105.411 51.2709 106.166 50.5364 106.688 49.6052C107.217 48.666 107.482 47.5944 107.482 46.3902V30.3032Z" fill="#123091"/>
<path d="M71.5334 5.05631C73.8248 3.16645 76.7156 2.15641 79.6853 2.20792C82.616 2.07951 85.5027 2.9545 87.8689 4.68837C90.1086 6.47426 91.5779 9.05149 91.9735 11.8887C92.4556 15.1177 91.9734 18.6068 90.1146 21.341C89.1747 22.6775 87.9554 23.7936 86.5412 24.6119C85.127 25.4302 83.5517 25.9311 81.9246 26.0799C81.6708 24.3924 81.4044 22.6986 81.1443 21.0048C82.1383 20.8114 83.0651 20.363 83.8336 19.7035C84.6021 19.044 85.186 18.1961 85.528 17.2429C86.4098 14.7053 86.2258 11.6095 84.551 9.42089C82.3687 6.60422 77.5729 6.58519 75.3335 9.37649C73.608 11.5842 73.4303 14.7244 74.3439 17.3063C74.6887 18.2462 75.2715 19.0806 76.0354 19.7277C76.7994 20.3749 77.7183 20.8127 78.7022 20.9985C78.4421 22.6986 78.1691 24.3988 77.9154 26.0735C74.9257 25.7628 72.1747 24.2997 70.2457 21.9944C68.1142 19.3744 67.4226 15.8282 67.7906 12.5294C68.0356 9.64203 69.3744 6.95737 71.5334 5.0246" fill="white"/>
<path d="M0.0381004 2.85471C5.58264 2.85471 11.1293 2.85471 16.6781 2.85471C16.6781 4.51046 16.6781 6.16622 16.6781 7.82197C13.0557 7.82197 9.43312 7.82197 5.81077 7.82197C5.81077 9.24934 5.81077 10.6767 5.81077 12.0977C9.10958 12.0977 12.4148 12.0977 15.72 12.0977C15.72 13.652 15.7518 15.2126 15.6884 16.7668C12.3832 16.7668 9.07783 16.7224 5.77267 16.7668C5.77267 18.1625 5.77267 19.5518 5.77267 20.9474C9.40136 20.9982 13.0302 20.9474 16.6588 20.9474C16.6588 22.5968 16.6588 24.2399 16.6588 25.883C11.108 25.883 5.55088 25.94 0 25.8385C0.0570948 18.1688 0 10.4991 0 2.82935" fill="white"/>
<path d="M21.1379 2.86106C23.0411 2.86106 24.9444 2.86107 26.8158 2.82935C26.9173 7.44134 26.8157 12.0533 26.8601 16.6653C26.765 18.1244 27.2155 19.7928 28.5858 20.5414C30.2479 21.4169 32.6078 21.3281 33.9527 19.907C34.6191 19.0745 34.9454 18.0205 34.8662 16.9571C34.8662 12.2563 34.8662 7.55551 34.8662 2.85471C36.7693 2.85471 38.6725 2.85471 40.5756 2.85471C40.5756 7.56186 40.5756 12.2627 40.5756 16.9635C40.6739 18.7661 40.2627 20.5601 39.3893 22.1401C38.8174 23.07 38.0644 23.8754 37.1751 24.5086C36.2858 25.1418 35.2784 25.5897 34.2126 25.8259C32.0821 26.3448 29.8601 26.36 27.7228 25.8703C25.5721 25.4247 23.6819 24.1539 22.4575 22.3304C21.5778 20.8942 21.1245 19.2375 21.1506 17.5535C21.1506 12.6518 21.1506 7.75217 21.1506 2.85471" fill="white"/>
<path d="M45.0291 2.87398C48.7085 2.82958 52.3879 2.87398 56.0673 2.87398C58.3701 2.87398 60.8062 3.38784 62.5698 4.95477C66.8075 8.71669 64.9551 17.1096 59.3028 18.3594C60.6096 20.8969 62.151 23.352 63.4071 25.9276C61.3834 25.9276 59.3534 25.9276 57.3234 25.9276C55.8685 22.1551 54.418 18.3784 52.9716 14.5975C54.196 14.534 55.4708 14.7624 56.6698 14.4071C58.4651 13.7728 59.2393 11.4572 58.6557 9.71902C58.4389 9.21764 58.0801 8.79068 57.6235 8.49082C57.167 8.19095 56.6324 8.0313 56.0862 8.03156C54.3099 7.96812 52.5337 8.03156 50.7574 8.03156C50.7574 13.999 50.7574 19.9707 50.7574 25.9466H45.0479C45.0479 18.2706 45.0479 10.5881 45.0479 2.91207" fill="white"/>
<path d="M116.789 8.43462H113.803C113.626 7.57569 113.317 6.82111 112.876 6.17088C112.442 5.52066 111.912 4.97479 111.286 4.53328C110.668 4.08374 109.982 3.74659 109.227 3.52182C108.473 3.29705 107.686 3.18467 106.867 3.18467C105.374 3.18467 104.021 3.56196 102.809 4.31654C101.605 5.07112 100.646 6.18292 99.9314 7.65195C99.225 9.12097 98.8718 10.9231 98.8718 13.0584C98.8718 15.1937 99.225 16.9959 99.9314 18.4649C100.646 19.934 101.605 21.0458 102.809 21.8003C104.021 22.5549 105.374 22.9322 106.867 22.9322C107.686 22.9322 108.473 22.8198 109.227 22.5951C109.982 22.3703 110.668 22.0371 111.286 21.5956C111.912 21.1461 112.442 20.5962 112.876 19.946C113.317 19.2877 113.626 18.5332 113.803 17.6823H116.789C116.564 18.9426 116.155 20.0704 115.561 21.0658C114.967 22.0612 114.228 22.9081 113.345 23.6065C112.462 24.2969 111.471 24.8227 110.371 25.1839C109.279 25.5451 108.111 25.7258 106.867 25.7258C104.764 25.7258 102.894 25.212 101.256 24.1845C99.6184 23.157 98.33 21.696 97.3908 19.8015C96.4515 17.907 95.9819 15.6593 95.9819 13.0584C95.9819 10.4575 96.4515 8.20986 97.3908 6.31538C98.33 4.4209 99.6184 2.9599 101.256 1.93239C102.894 0.904871 104.764 0.391113 106.867 0.391113C108.111 0.391113 109.279 0.571731 110.371 0.932967C111.471 1.2942 112.462 1.82401 113.345 2.5224C114.228 3.21276 114.967 4.05565 115.561 5.05105C116.155 6.03843 116.564 7.16629 116.789 8.43462Z" fill="white"/>
<path d="M137.798 0.728267H140.784V17.0561C140.784 18.7419 140.387 20.247 139.592 21.5716C138.805 22.8881 137.694 23.9276 136.257 24.6902C134.82 25.4448 133.134 25.8221 131.199 25.8221C129.265 25.8221 127.579 25.4448 126.142 24.6902C124.705 23.9276 123.589 22.8881 122.795 21.5716C122.008 20.247 121.615 18.7419 121.615 17.0561V0.728267H124.601V16.8153C124.601 18.0194 124.866 19.0911 125.396 20.0303C125.925 20.9615 126.68 21.696 127.659 22.2338C128.647 22.7636 129.827 23.0285 131.199 23.0285C132.572 23.0285 133.752 22.7636 134.739 22.2338C135.727 21.696 136.481 20.9615 137.003 20.0303C137.533 19.0911 137.798 18.0194 137.798 16.8153V0.728267Z" fill="white"/>
<path d="M146.748 25.3886V0.728267H155.08C157.015 0.728267 158.596 1.07746 159.824 1.77585C161.061 2.46621 161.976 3.40141 162.57 4.58145C163.164 5.76148 163.461 7.07798 163.461 8.53095C163.461 9.98392 163.164 11.3044 162.57 12.4925C161.984 13.6806 161.077 14.6278 159.848 15.3342C158.62 16.0326 157.047 16.3818 155.128 16.3818H149.156V13.7327H155.032C156.356 13.7327 157.42 13.504 158.223 13.0464C159.026 12.5888 159.608 11.9707 159.969 11.1921C160.338 10.4054 160.523 9.51833 160.523 8.53095C160.523 7.54358 160.338 6.66056 159.969 5.88189C159.608 5.10323 159.022 4.49314 158.211 4.05163C157.4 3.6021 156.324 3.37733 154.984 3.37733H149.734V25.3886H146.748Z" fill="white"/>
<path d="M58.0304 30.906V55.5663H55.0442V30.906H58.0304Z" fill="white"/>
<path d="M83.5728 30.906V55.5663H80.6829L67.2449 36.2041H67.0041V55.5663H64.0179V30.906H66.9078L80.3939 50.3164H80.6347V30.906H83.5728Z" fill="white"/>
<path d="M105.732 30.906H108.718V47.2339C108.718 48.9196 108.32 50.4248 107.526 51.7493C106.739 53.0658 105.627 54.1054 104.19 54.868C102.753 55.6225 101.068 55.9998 99.133 55.9998C97.1984 55.9998 95.5126 55.6225 94.0757 54.868C92.6388 54.1054 91.523 53.0658 90.7282 51.7493C89.9415 50.4248 89.5482 48.9196 89.5482 47.2339V30.906H92.5344V46.993C92.5344 48.1971 92.7993 49.2688 93.3291 50.208C93.8589 51.1392 94.6135 51.8737 95.5929 52.4116C96.5802 52.9414 97.7603 53.2063 99.133 53.2063C100.506 53.2063 101.686 52.9414 102.673 52.4116C103.66 51.8737 104.415 51.1392 104.937 50.208C105.467 49.2688 105.732 48.1971 105.732 46.993V30.906Z" fill="white"/>
</svg>
