<svg width="152" height="73" viewBox="0 0 152 73" fill="none" xmlns="http://www.w3.org/2000/svg">
<g filter="url(#filter0_d_88_115)">
<rect x="6" y="6" width="140" height="55" rx="10" fill="#D7A010"/>
<rect x="3.385" y="3.385" width="145.23" height="60.23" rx="12.615" stroke="white" stroke-width="5.23"/>
</g>
<rect x="6" y="6" width="140" height="49.2708" rx="10" fill="#F5B715"/>
<path opacity="0.5" fill-rule="evenodd" clip-rule="evenodd" d="M59.0811 9.31457C57.1845 7.20488 54.4812 6 51.6444 6H30.6354C17.0297 6 6 17.0297 6 30.6354C6 44.2412 17.0297 55.2708 30.6354 55.2708H77.9581C86.6131 55.2708 91.1811 45.0219 85.3948 38.5854L59.0811 9.31457Z" fill="#F7BF2E"/>
<g filter="url(#filter1_d_88_115)">
<path d="M39.707 25.5713C39.707 26.6943 39.4303 27.7197 38.877 28.6475C38.3236 29.5589 37.583 30.3239 36.6553 30.9424C37.1436 31.04 37.5667 31.2109 37.9248 31.4551C38.2829 31.6829 38.5758 31.9678 38.8037 32.3096C39.0479 32.6514 39.2269 33.042 39.3408 33.4814C39.471 33.9046 39.5361 34.3522 39.5361 34.8242C39.5361 35.752 39.3164 36.5658 38.877 37.2656C38.4538 37.9492 37.9004 38.5189 37.2168 38.9746C36.5332 39.4141 35.7682 39.7477 34.9219 39.9756C34.0918 40.1872 33.2617 40.293 32.4316 40.293C31.9759 40.293 31.5202 40.2604 31.0645 40.1953C30.6087 40.1302 30.1774 40.0163 29.7705 39.8535C29.624 39.8047 29.502 39.6094 29.4043 39.2676C29.3066 38.9095 29.2253 38.4782 29.1602 37.9736C29.1113 37.4691 29.0706 36.9238 29.0381 36.3379C29.0055 35.752 28.9811 35.1904 28.9648 34.6533C28.9486 34.1162 28.9404 33.6442 28.9404 33.2373C28.9404 32.8304 28.9404 32.5456 28.9404 32.3828C28.9404 31.8132 28.9404 31.2435 28.9404 30.6738C28.9404 30.0879 28.9567 29.5101 28.9893 28.9404C28.9893 28.7939 28.9893 28.5661 28.9893 28.2568C29.0055 27.9476 29.0137 27.6058 29.0137 27.2314C29.0299 26.8408 29.0462 26.4339 29.0625 26.0107C29.0951 25.5876 29.1276 25.1969 29.1602 24.8389C29.209 24.4645 29.266 24.1471 29.3311 23.8867C29.4124 23.6263 29.502 23.4635 29.5996 23.3984C29.974 23.1543 30.389 22.9264 30.8447 22.7148C31.3005 22.487 31.7725 22.2917 32.2607 22.1289C32.749 21.9661 33.2373 21.8359 33.7256 21.7383C34.2139 21.6406 34.6777 21.5918 35.1172 21.5918C35.7194 21.5918 36.2972 21.6813 36.8506 21.8604C37.4202 22.0231 37.9085 22.2754 38.3154 22.6172C38.7386 22.959 39.0723 23.3822 39.3164 23.8867C39.5768 24.375 39.707 24.9365 39.707 25.5713ZM35.6543 26.8652C35.6543 26.5885 35.5648 26.3851 35.3857 26.2549C35.223 26.1247 35.0033 26.0596 34.7266 26.0596C34.4987 26.0596 34.2546 26.1084 33.9941 26.2061C33.75 26.3037 33.5384 26.4339 33.3594 26.5967C33.3105 26.6455 33.2617 26.7839 33.2129 27.0117C33.1803 27.2396 33.1478 27.5 33.1152 27.793C33.099 28.0697 33.0827 28.3382 33.0664 28.5986C33.0664 28.8428 33.0664 29.0055 33.0664 29.0869C33.0664 29.1195 33.0664 29.1764 33.0664 29.2578C33.0664 29.3229 33.0664 29.3962 33.0664 29.4775C33.0827 29.5589 33.099 29.6322 33.1152 29.6973C33.1315 29.7624 33.1559 29.7949 33.1885 29.7949C33.4652 29.7949 33.75 29.6973 34.043 29.502C34.3359 29.2904 34.5964 29.0381 34.8242 28.7451C35.0684 28.4359 35.2637 28.1104 35.4102 27.7686C35.5729 27.4268 35.6543 27.1257 35.6543 26.8652ZM35.5566 33.9209C35.5566 33.6442 35.459 33.4489 35.2637 33.335C35.0684 33.221 34.8486 33.1641 34.6045 33.1641C34.3766 33.1641 34.1325 33.221 33.8721 33.335C33.6279 33.4326 33.4245 33.5547 33.2617 33.7012C33.2129 33.7337 33.1722 33.8151 33.1396 33.9453C33.1234 34.0755 33.1071 34.222 33.0908 34.3848C33.0908 34.5312 33.0827 34.6777 33.0664 34.8242C33.0664 34.9544 33.0664 35.0439 33.0664 35.0928C33.0664 35.1253 33.0664 35.1904 33.0664 35.2881C33.0664 35.3857 33.0664 35.4915 33.0664 35.6055C33.0827 35.7031 33.099 35.8008 33.1152 35.8984C33.1478 35.9798 33.1803 36.0205 33.2129 36.0205C33.4408 36.0205 33.693 35.9554 33.9697 35.8252C34.2464 35.695 34.4987 35.5322 34.7266 35.3369C34.9707 35.1416 35.166 34.9219 35.3125 34.6777C35.4753 34.4173 35.5566 34.165 35.5566 33.9209ZM54.8916 31.4307C54.8916 32.098 54.859 32.7897 54.7939 33.5059C54.7288 34.2057 54.6149 34.8893 54.4521 35.5566C54.2894 36.224 54.0615 36.8587 53.7686 37.4609C53.4919 38.0469 53.1338 38.5677 52.6943 39.0234C52.2549 39.4629 51.7259 39.8128 51.1074 40.0732C50.4889 40.3337 49.7646 40.4639 48.9346 40.4639C47.7139 40.4639 46.6478 40.179 45.7363 39.6094C44.8411 39.0397 44.0924 38.3154 43.4902 37.4365C42.888 36.5413 42.4404 35.5485 42.1475 34.458C41.8545 33.3512 41.708 32.2607 41.708 31.1865C41.708 31.0726 41.708 30.9668 41.708 30.8691C41.708 30.7715 41.7161 30.682 41.7324 30.6006C41.7487 30.2588 41.7731 29.7949 41.8057 29.209C41.8545 28.623 41.9277 27.9964 42.0254 27.3291C42.123 26.6618 42.2451 25.9782 42.3916 25.2783C42.5544 24.5785 42.7578 23.9518 43.002 23.3984C43.2624 22.8451 43.5716 22.3893 43.9297 22.0312C44.2878 21.6732 44.7109 21.4941 45.1992 21.4941C45.5573 21.4941 45.8584 21.5999 46.1025 21.8115C46.3467 22.0231 46.542 22.2917 46.6885 22.6172C46.8512 22.9264 46.9652 23.2601 47.0303 23.6182C47.0954 23.96 47.1279 24.2773 47.1279 24.5703C47.1279 25.0098 47.0791 25.4574 46.9814 25.9131C46.9001 26.3525 46.8187 26.792 46.7373 27.2314C46.6071 27.9313 46.5013 28.6312 46.4199 29.3311C46.3385 30.0309 46.2979 30.7471 46.2979 31.4795C46.2979 31.8538 46.3141 32.3096 46.3467 32.8467C46.3955 33.3838 46.5013 33.9046 46.6641 34.4092C46.8268 34.8975 47.0547 35.3206 47.3477 35.6787C47.6569 36.0205 48.0719 36.1914 48.5928 36.1914C49.0973 36.1914 49.4961 36.0205 49.7891 35.6787C50.0983 35.3369 50.3262 34.93 50.4727 34.458C50.6191 33.986 50.7087 33.4896 50.7412 32.9688C50.79 32.4479 50.8145 32.0003 50.8145 31.626C50.8145 30.5518 50.7249 29.4938 50.5459 28.4521C50.3669 27.3942 50.1309 26.3444 49.8379 25.3027C49.7565 25.026 49.6833 24.7493 49.6182 24.4727C49.5693 24.196 49.5449 23.9193 49.5449 23.6426C49.5449 23.1868 49.6751 22.7881 49.9355 22.4463C50.2122 22.1045 50.5947 21.9336 51.083 21.9336C51.4899 21.9336 51.8643 22.0964 52.2061 22.4219C52.5641 22.7311 52.8815 23.1462 53.1582 23.667C53.4349 24.1715 53.6709 24.7412 53.8662 25.376C54.0778 26.0107 54.2568 26.6455 54.4033 27.2803C54.5498 27.8988 54.6556 28.4928 54.7207 29.0625C54.8021 29.6322 54.8509 30.096 54.8672 30.4541C54.8835 30.6169 54.8916 30.7796 54.8916 30.9424C54.8916 31.0889 54.8916 31.2516 54.8916 31.4307ZM68.5137 23.2031C68.5137 23.9193 68.416 24.7087 68.2207 25.5713C68.0417 26.4339 67.8057 27.3047 67.5127 28.1836C67.2197 29.0625 66.9023 29.917 66.5605 30.7471C66.2188 31.5771 65.9014 32.3096 65.6084 32.9443C65.4456 33.3024 65.2422 33.7581 64.998 34.3115C64.7702 34.8486 64.5098 35.4264 64.2168 36.0449C63.9238 36.6634 63.6064 37.29 63.2646 37.9248C62.9391 38.5433 62.5973 39.1048 62.2393 39.6094C61.8812 40.0977 61.515 40.4964 61.1406 40.8057C60.7663 41.1312 60.3919 41.2939 60.0176 41.2939C59.4967 41.2939 59.1224 41.0986 58.8945 40.708C58.6829 40.3337 58.5771 39.9105 58.5771 39.4385C58.5771 38.9827 58.6504 38.5026 58.7969 37.998C58.9596 37.4772 59.1549 36.9645 59.3828 36.46C59.627 35.9554 59.8874 35.4671 60.1641 34.9951C60.457 34.5231 60.7256 34.0999 60.9697 33.7256C60.6442 33.6442 60.3268 33.4977 60.0176 33.2861C59.7083 33.0745 59.4805 32.8223 59.334 32.5293C59.0736 31.9596 58.805 31.3167 58.5283 30.6006C58.2516 29.8844 57.9993 29.1602 57.7715 28.4277C57.5599 27.679 57.3809 26.9385 57.2344 26.2061C57.0879 25.4574 57.0146 24.7738 57.0146 24.1553C57.0146 23.8623 57.0472 23.5449 57.1123 23.2031C57.1774 22.8451 57.2832 22.5195 57.4297 22.2266C57.5924 21.9173 57.7959 21.665 58.04 21.4697C58.3005 21.2581 58.6178 21.1523 58.9922 21.1523C59.4154 21.1523 59.7897 21.3151 60.1152 21.6406C60.4408 21.9499 60.7256 22.3486 60.9697 22.8369C61.2301 23.3252 61.4499 23.8704 61.6289 24.4727C61.8079 25.0749 61.9626 25.6689 62.0928 26.2549C62.223 26.8408 62.3288 27.3779 62.4102 27.8662C62.4915 28.3545 62.5648 28.737 62.6299 29.0137C62.695 28.7695 62.8008 28.4033 62.9473 27.915C63.11 27.4105 63.2972 26.8571 63.5088 26.2549C63.7367 25.6527 63.9889 25.0342 64.2656 24.3994C64.5586 23.7646 64.8597 23.1868 65.1689 22.666C65.4945 22.1452 65.8363 21.722 66.1943 21.3965C66.5524 21.0547 66.9186 20.8838 67.293 20.8838C67.5371 20.8838 67.7406 20.9733 67.9033 21.1523C68.0661 21.3314 68.1882 21.543 68.2695 21.7871C68.3672 22.0312 68.4323 22.2835 68.4648 22.5439C68.4974 22.8044 68.5137 23.0241 68.5137 23.2031ZM90.46 29.5264C90.46 29.8844 90.4437 30.3971 90.4111 31.0645C90.3786 31.7155 90.3135 32.4398 90.2158 33.2373C90.1344 34.0186 90.0124 34.8242 89.8496 35.6543C89.6868 36.4681 89.4753 37.2087 89.2148 37.876C88.9544 38.5433 88.637 39.0967 88.2627 39.5361C87.8883 39.9593 87.4408 40.1709 86.9199 40.1709C86.4316 40.1709 85.984 40.0326 85.5771 39.7559C85.1702 39.4629 84.804 39.113 84.4785 38.7061C84.153 38.2829 83.8682 37.8353 83.624 37.3633C83.3799 36.8913 83.1764 36.46 83.0137 36.0693C82.6719 35.2393 82.3301 34.4255 81.9883 33.6279C81.6465 32.8141 81.321 31.9922 81.0117 31.1621V31.8457C81.0117 32.5456 81.0036 33.2454 80.9873 33.9453C80.9873 34.6289 80.9385 35.3125 80.8408 35.9961C80.8083 36.2728 80.7676 36.5983 80.7188 36.9727C80.6862 37.3307 80.6292 37.6888 80.5479 38.0469C80.4665 38.4049 80.3444 38.7386 80.1816 39.0479C80.0352 39.3571 79.8317 39.585 79.5713 39.7314C79.4248 39.8128 79.2865 39.8617 79.1562 39.8779C79.0423 39.8942 78.9121 39.9186 78.7656 39.9512H78.6924C78.318 39.9512 78.0007 39.8291 77.7402 39.585C77.4798 39.3245 77.2601 38.999 77.0811 38.6084C76.902 38.2015 76.7555 37.7539 76.6416 37.2656C76.5439 36.7611 76.4626 36.2728 76.3975 35.8008C76.3486 35.3125 76.3161 34.8649 76.2998 34.458C76.2835 34.0511 76.2754 33.7256 76.2754 33.4814C76.2754 33.1071 76.2917 32.5618 76.3242 31.8457C76.3568 31.1133 76.4219 30.3076 76.5195 29.4287C76.6335 28.5498 76.7718 27.6465 76.9346 26.7188C77.1136 25.791 77.3415 24.9528 77.6182 24.2041C77.8949 23.4391 78.2285 22.8206 78.6191 22.3486C79.0098 21.8604 79.4655 21.6162 79.9863 21.6162C80.4909 21.6162 80.9385 21.8115 81.3291 22.2021C81.736 22.5928 82.0941 23.0566 82.4033 23.5938C82.7126 24.1309 82.973 24.6924 83.1846 25.2783C83.3962 25.8643 83.5752 26.3525 83.7217 26.7432C83.9984 27.5081 84.2669 28.2731 84.5273 29.0381C84.7878 29.7868 85.04 30.5518 85.2842 31.333C85.3005 31.3656 85.333 31.4551 85.3818 31.6016C85.4307 31.748 85.4876 31.9108 85.5527 32.0898C85.6178 32.2852 85.6992 32.5049 85.7969 32.749C85.7969 32.5374 85.7887 32.391 85.7725 32.3096C85.7725 32.2119 85.7725 32.1305 85.7725 32.0654C85.7725 31.984 85.7725 31.8864 85.7725 31.7725C85.7725 31.6585 85.7725 31.4795 85.7725 31.2354C85.7562 30.6982 85.7399 30.1611 85.7236 29.624C85.7236 29.0869 85.7236 28.5579 85.7236 28.0371C85.7236 27.8092 85.7236 27.4919 85.7236 27.085C85.7399 26.6781 85.7643 26.2467 85.7969 25.791C85.8457 25.319 85.9108 24.847 85.9922 24.375C86.0736 23.903 86.1875 23.4798 86.334 23.1055C86.4967 22.7148 86.6921 22.3975 86.9199 22.1533C87.1641 21.9092 87.457 21.7871 87.7988 21.7871C88.2057 21.7871 88.5557 21.9417 88.8486 22.251C89.1416 22.5602 89.3857 22.959 89.5811 23.4473C89.7764 23.9193 89.931 24.4564 90.0449 25.0586C90.1589 25.6445 90.2484 26.2223 90.3135 26.792C90.3786 27.3617 90.4193 27.8906 90.4355 28.3789C90.4518 28.8672 90.46 29.2497 90.46 29.5264ZM98.6621 40.8057C97.6693 40.8057 96.8066 40.5534 96.0742 40.0488C95.3418 39.5605 94.7314 38.9014 94.2432 38.0713C93.7712 37.2249 93.4131 36.2484 93.1689 35.1416C92.9411 34.0348 92.8271 32.8711 92.8271 31.6504C92.8271 30.5111 92.9492 29.3555 93.1934 28.1836C93.4538 27.0117 93.8444 25.9538 94.3652 25.0098C94.8861 24.0658 95.5452 23.2926 96.3428 22.6904C97.1403 22.0882 98.0924 21.7871 99.1992 21.7871C100.273 21.7871 101.169 22.0801 101.885 22.666C102.617 23.2357 103.195 23.9844 103.618 24.9121C104.058 25.8236 104.367 26.849 104.546 27.9883C104.741 29.1276 104.839 30.2669 104.839 31.4062C104.839 32.6758 104.709 33.8802 104.448 35.0195C104.204 36.1426 103.822 37.1354 103.301 37.998C102.796 38.8607 102.153 39.5443 101.372 40.0488C100.607 40.5534 99.7038 40.8057 98.6621 40.8057ZM98.9551 27.1826C98.6458 27.1826 98.3773 27.3047 98.1494 27.5488C97.9378 27.793 97.7588 28.1185 97.6123 28.5254C97.4658 28.916 97.36 29.3636 97.2949 29.8682C97.2298 30.3564 97.1973 30.8529 97.1973 31.3574C97.1973 31.9271 97.2298 32.4967 97.2949 33.0664C97.3763 33.6361 97.4902 34.1488 97.6367 34.6045C97.7832 35.0602 97.9622 35.4264 98.1738 35.7031C98.4017 35.9798 98.6702 36.1182 98.9795 36.1182C99.3376 36.1182 99.6224 35.9391 99.834 35.5811C100.046 35.223 100.208 34.7917 100.322 34.2871C100.452 33.7826 100.534 33.2617 100.566 32.7246C100.615 32.1875 100.64 31.7399 100.64 31.3818C100.64 30.9424 100.607 30.4785 100.542 29.9902C100.493 29.502 100.404 29.0544 100.273 28.6475C100.143 28.2243 99.9723 27.8743 99.7607 27.5977C99.5492 27.321 99.2806 27.1826 98.9551 27.1826ZM122.221 25.6689C122.221 26.6455 122.156 27.6139 122.025 28.5742C121.895 29.5182 121.741 30.4541 121.562 31.3818C121.513 31.626 121.439 32.0247 121.342 32.5781C121.244 33.1152 121.122 33.7174 120.976 34.3848C120.845 35.0521 120.683 35.7438 120.487 36.46C120.292 37.1761 120.072 37.8271 119.828 38.4131C119.6 38.999 119.34 39.4873 119.047 39.8779C118.77 40.2523 118.469 40.4395 118.144 40.4395C117.818 40.4395 117.501 40.2767 117.191 39.9512C116.898 39.6257 116.622 39.2188 116.361 38.7305C116.117 38.2259 115.889 37.6644 115.678 37.0459C115.466 36.4274 115.279 35.8333 115.116 35.2637C114.97 34.6777 114.84 34.1488 114.726 33.6768C114.628 33.1885 114.555 32.8223 114.506 32.5781C114.441 32.7897 114.335 33.1315 114.188 33.6035C114.058 34.0592 113.887 34.5801 113.676 35.166C113.464 35.7357 113.228 36.3216 112.968 36.9238C112.707 37.526 112.431 38.0794 112.138 38.584C111.861 39.0885 111.568 39.5036 111.259 39.8291C110.95 40.1546 110.64 40.3174 110.331 40.3174C109.924 40.3174 109.566 40.1383 109.257 39.7803C108.948 39.4222 108.687 38.9665 108.476 38.4131C108.264 37.8434 108.085 37.2168 107.938 36.5332C107.792 35.8333 107.678 35.1497 107.597 34.4824C107.515 33.7988 107.45 33.1641 107.401 32.5781C107.353 31.9922 107.32 31.5283 107.304 31.1865C107.255 30.4053 107.206 29.6403 107.157 28.8916C107.125 28.1429 107.108 27.3779 107.108 26.5967C107.108 26.32 107.117 25.9456 107.133 25.4736C107.149 24.9854 107.206 24.5133 107.304 24.0576C107.418 23.5856 107.58 23.1787 107.792 22.8369C108.02 22.4788 108.345 22.2835 108.769 22.251C109.127 22.2347 109.436 22.3812 109.696 22.6904C109.957 22.9997 110.176 23.4147 110.355 23.9355C110.535 24.4401 110.673 25.0098 110.771 25.6445C110.884 26.263 110.966 26.8652 111.015 27.4512C111.08 28.0371 111.12 28.5742 111.137 29.0625C111.153 29.5508 111.153 29.9089 111.137 30.1367L111.112 30.7715C111.161 30.5599 111.243 30.2262 111.356 29.7705C111.487 29.3148 111.641 28.8021 111.82 28.2324C111.999 27.6465 112.187 27.0524 112.382 26.4502C112.593 25.8317 112.813 25.2702 113.041 24.7656C113.269 24.2611 113.497 23.846 113.725 23.5205C113.952 23.1787 114.172 22.9997 114.384 22.9834C114.66 22.9671 114.921 23.1299 115.165 23.4717C115.425 23.8135 115.653 24.2611 115.849 24.8145C116.06 25.3516 116.247 25.9538 116.41 26.6211C116.573 27.2884 116.711 27.9395 116.825 28.5742C116.955 29.1927 117.053 29.7542 117.118 30.2588C117.183 30.7633 117.232 31.1214 117.265 31.333C117.281 31.0726 117.322 30.6657 117.387 30.1123C117.452 29.5426 117.541 28.916 117.655 28.2324C117.769 27.5326 117.908 26.8245 118.07 26.1084C118.249 25.376 118.453 24.7087 118.681 24.1064C118.909 23.5042 119.169 23.016 119.462 22.6416C119.755 22.251 120.08 22.0557 120.438 22.0557C120.845 22.0557 121.171 22.194 121.415 22.4707C121.659 22.7311 121.838 23.0566 121.952 23.4473C122.066 23.8216 122.139 24.2204 122.172 24.6436C122.204 25.0505 122.221 25.3923 122.221 25.6689Z" fill="white"/>
</g>
<defs>
<filter id="filter0_d_88_115" x="0.77002" y="0.77002" width="150.46" height="71.77" filterUnits="userSpaceOnUse" color-interpolation-filters="sRGB">
<feFlood flood-opacity="0" result="BackgroundImageFix"/>
<feColorMatrix in="SourceAlpha" type="matrix" values="0 0 0 0 0 0 0 0 0 0 0 0 0 0 0 0 0 0 127 0" result="hardAlpha"/>
<feOffset dy="6.31"/>
<feComposite in2="hardAlpha" operator="out"/>
<feColorMatrix type="matrix" values="0 0 0 0 0 0 0 0 0 0 0 0 0 0 0 0 0 0 0.15 0"/>
<feBlend mode="normal" in2="BackgroundImageFix" result="effect1_dropShadow_88_115"/>
<feBlend mode="normal" in="SourceGraphic" in2="effect1_dropShadow_88_115" result="shape"/>
</filter>
<filter id="filter1_d_88_115" x="28.9404" y="20.8838" width="93.2803" height="22.5602" filterUnits="userSpaceOnUse" color-interpolation-filters="sRGB">
<feFlood flood-opacity="0" result="BackgroundImageFix"/>
<feColorMatrix in="SourceAlpha" type="matrix" values="0 0 0 0 0 0 0 0 0 0 0 0 0 0 0 0 0 0 127 0" result="hardAlpha"/>
<feOffset dy="2.15"/>
<feComposite in2="hardAlpha" operator="out"/>
<feColorMatrix type="matrix" values="0 0 0 0 0 0 0 0 0 0 0 0 0 0 0 0 0 0 0.15 0"/>
<feBlend mode="normal" in2="BackgroundImageFix" result="effect1_dropShadow_88_115"/>
<feBlend mode="normal" in="SourceGraphic" in2="effect1_dropShadow_88_115" result="shape"/>
</filter>
</defs>
</svg>
