<svg width="218" height="73" viewBox="0 0 218 73" fill="none" xmlns="http://www.w3.org/2000/svg">
<g filter="url(#filter0_d_88_19)">
<rect x="6" y="6" width="206" height="55" rx="10" fill="#D7A010"/>
<rect x="3.385" y="3.385" width="211.23" height="60.23" rx="12.615" stroke="white" stroke-width="5.23"/>
</g>
<rect x="6" y="6" width="206" height="49.2708" rx="10" fill="#F5B715"/>
<path opacity="0.5" fill-rule="evenodd" clip-rule="evenodd" d="M82.3967 8.02297C80.6603 6.71027 78.543 6 76.3662 6H30.6354C17.0297 6 6 17.0297 6 30.6354C6 44.2412 17.0297 55.2708 30.6354 55.2708H115.085C124.676 55.2708 128.766 43.0776 121.115 37.2938L82.3967 8.02297Z" fill="#F7BF2E"/>
<g filter="url(#filter1_d_88_19)">
<path d="M43.449 21.373C43.449 21.9915 43.2374 22.5531 42.8142 23.0576C42.391 23.5622 41.8702 24.0179 41.2517 24.4248C40.6495 24.8154 40.0147 25.1572 39.3474 25.4502C38.6801 25.7432 38.1023 25.9873 37.614 26.1826C37.614 26.5244 37.6059 26.8743 37.5896 27.2324C37.5733 27.5905 37.5489 27.9486 37.5164 28.3066C38.0372 28.0462 38.6231 27.8021 39.2742 27.5742C39.9252 27.3464 40.5437 27.2324 41.1296 27.2324C41.6016 27.2324 41.9841 27.3301 42.2771 27.5254C42.5863 27.7207 42.741 28.0625 42.741 28.5508C42.741 29.0879 42.5457 29.568 42.155 29.9912C41.7807 30.4144 41.325 30.7887 40.7878 31.1143C40.2507 31.4398 39.6892 31.7165 39.1033 31.9443C38.5173 32.1722 38.0209 32.3512 37.614 32.4814C37.614 33.0186 37.6059 33.5557 37.5896 34.0928C37.5733 34.6136 37.5489 35.1344 37.5164 35.6553C37.5001 35.9157 37.4675 36.2412 37.4187 36.6318C37.3861 37.0225 37.3048 37.4049 37.1746 37.7793C37.0606 38.1374 36.8897 38.4548 36.6619 38.7314C36.434 38.9919 36.141 39.1221 35.783 39.1221C35.4412 39.1221 35.1482 38.9593 34.9041 38.6338C34.6599 38.292 34.4483 37.8607 34.2693 37.3398C34.1065 36.819 33.9682 36.2412 33.8542 35.6064C33.7566 34.9554 33.6752 34.3206 33.6101 33.7021C33.5613 33.0837 33.5287 32.514 33.5125 31.9932C33.5125 31.4723 33.5125 31.0736 33.5125 30.7969C33.5125 30.5853 33.5125 30.276 33.5125 29.8691C33.5287 29.446 33.5369 28.9821 33.5369 28.4775C33.5531 27.973 33.5694 27.444 33.5857 26.8906C33.6182 26.3372 33.6508 25.8164 33.6833 25.3281C33.7159 24.8236 33.7566 24.3841 33.8054 24.0098C33.8705 23.6191 33.9438 23.3343 34.0251 23.1553C34.2042 22.7972 34.6274 22.4473 35.2947 22.1055C35.9783 21.7474 36.7351 21.4382 37.5652 21.1777C38.3953 20.901 39.2009 20.6813 39.9822 20.5186C40.7797 20.3395 41.3901 20.25 41.8132 20.25C42.0085 20.25 42.1957 20.2663 42.3748 20.2988C42.5701 20.3151 42.7491 20.3639 42.9119 20.4453C43.0746 20.5267 43.2048 20.6406 43.3025 20.7871C43.4001 20.9336 43.449 21.1289 43.449 21.373ZM50.1619 39.8057C49.169 39.8057 48.3064 39.5534 47.574 39.0488C46.8416 38.5605 46.2312 37.9014 45.7429 37.0713C45.2709 36.2249 44.9128 35.2484 44.6687 34.1416C44.4408 33.0348 44.3269 31.8711 44.3269 30.6504C44.3269 29.5111 44.449 28.3555 44.6931 27.1836C44.9535 26.0117 45.3442 24.9538 45.865 24.0098C46.3858 23.0658 47.045 22.2926 47.8425 21.6904C48.6401 21.0882 49.5922 20.7871 50.699 20.7871C51.7732 20.7871 52.6684 21.0801 53.3845 21.666C54.1169 22.2357 54.6947 22.9844 55.1179 23.9121C55.5574 24.8236 55.8666 25.849 56.0457 26.9883C56.241 28.1276 56.3386 29.2669 56.3386 30.4062C56.3386 31.6758 56.2084 32.8802 55.948 34.0195C55.7039 35.1426 55.3214 36.1354 54.8005 36.998C54.296 37.8607 53.6531 38.5443 52.8718 39.0488C52.1069 39.5534 51.2035 39.8057 50.1619 39.8057ZM50.4548 26.1826C50.1456 26.1826 49.877 26.3047 49.6492 26.5488C49.4376 26.793 49.2585 27.1185 49.1121 27.5254C48.9656 27.916 48.8598 28.3636 48.7947 28.8682C48.7296 29.3564 48.697 29.8529 48.697 30.3574C48.697 30.9271 48.7296 31.4967 48.7947 32.0664C48.8761 32.6361 48.99 33.1488 49.1365 33.6045C49.283 34.0602 49.462 34.4264 49.6736 34.7031C49.9014 34.9798 50.17 35.1182 50.4792 35.1182C50.8373 35.1182 51.1222 34.9391 51.3337 34.5811C51.5453 34.223 51.7081 33.7917 51.822 33.2871C51.9522 32.7826 52.0336 32.2617 52.0662 31.7246C52.115 31.1875 52.1394 30.7399 52.1394 30.3818C52.1394 29.9424 52.1069 29.4785 52.0417 28.9902C51.9929 28.502 51.9034 28.0544 51.7732 27.6475C51.643 27.2243 51.4721 26.8743 51.2605 26.5977C51.0489 26.321 50.7804 26.1826 50.4548 26.1826ZM70.3513 35.6309C70.3513 36.0378 70.1804 36.4202 69.8386 36.7783C69.5131 37.1364 69.0818 37.4619 68.5447 37.7549C68.0238 38.0479 67.4379 38.3083 66.7869 38.5361C66.1358 38.7477 65.4929 38.9268 64.8582 39.0732C64.2234 39.236 63.6212 39.3581 63.0515 39.4395C62.4981 39.5208 62.0587 39.5615 61.7332 39.5615C61.4239 39.5615 61.0903 39.529 60.7322 39.4639C60.3904 39.415 60.1056 39.293 59.8777 39.0977C59.7475 39 59.6335 38.7803 59.5359 38.4385C59.4382 38.0967 59.3406 37.6898 59.2429 37.2178C59.1615 36.7458 59.0883 36.2412 59.0232 35.7041C58.9581 35.1507 58.9011 34.6136 58.8523 34.0928C58.8197 33.5719 58.7872 33.0918 58.7546 32.6523C58.7384 32.2129 58.7302 31.8711 58.7302 31.627C58.7302 31.2201 58.7384 30.7318 58.7546 30.1621C58.7872 29.5762 58.8279 28.9577 58.8767 28.3066C58.9255 27.6393 58.9906 26.9639 59.072 26.2803C59.1534 25.5967 59.2429 24.9538 59.3406 24.3516C59.4545 23.7331 59.5847 23.1797 59.7312 22.6914C59.894 22.2031 60.0649 21.8206 60.2439 21.5439C60.5531 21.1045 60.9438 20.8848 61.4158 20.8848C61.7413 20.8848 62.018 20.9987 62.2458 21.2266C62.4737 21.4382 62.6528 21.723 62.783 22.0811C62.9294 22.4229 63.0352 22.8135 63.1003 23.2529C63.1817 23.6761 63.2387 24.0993 63.2712 24.5225C63.3038 24.9456 63.3201 25.3363 63.3201 25.6943C63.3201 26.0524 63.3201 26.3372 63.3201 26.5488C63.3201 27.8184 63.2875 29.0798 63.2224 30.333C63.1736 31.57 63.1492 32.8232 63.1492 34.0928V35.0449C63.8816 34.8171 64.6791 34.6055 65.5417 34.4102C66.4044 34.1986 67.2263 34.0928 68.0076 34.0928C68.2843 34.0928 68.561 34.109 68.8376 34.1416C69.1306 34.1742 69.3829 34.2474 69.5945 34.3613C69.8223 34.459 70.0014 34.6136 70.1316 34.8252C70.2781 35.0205 70.3513 35.2891 70.3513 35.6309ZM83.6072 35.6309C83.6072 36.0378 83.4363 36.4202 83.0945 36.7783C82.769 37.1364 82.3376 37.4619 81.8005 37.7549C81.2797 38.0479 80.6938 38.3083 80.0427 38.5361C79.3917 38.7477 78.7488 38.9268 78.114 39.0732C77.4792 39.236 76.877 39.3581 76.3074 39.4395C75.754 39.5208 75.3145 39.5615 74.989 39.5615C74.6798 39.5615 74.3461 39.529 73.988 39.4639C73.6462 39.415 73.3614 39.293 73.1335 39.0977C73.0033 39 72.8894 38.7803 72.7917 38.4385C72.6941 38.0967 72.5964 37.6898 72.4988 37.2178C72.4174 36.7458 72.3442 36.2412 72.2791 35.7041C72.2139 35.1507 72.157 34.6136 72.1082 34.0928C72.0756 33.5719 72.0431 33.0918 72.0105 32.6523C71.9942 32.2129 71.9861 31.8711 71.9861 31.627C71.9861 31.2201 71.9942 30.7318 72.0105 30.1621C72.0431 29.5762 72.0837 28.9577 72.1326 28.3066C72.1814 27.6393 72.2465 26.9639 72.3279 26.2803C72.4093 25.5967 72.4988 24.9538 72.5964 24.3516C72.7104 23.7331 72.8406 23.1797 72.9871 22.6914C73.1498 22.2031 73.3207 21.8206 73.4998 21.5439C73.809 21.1045 74.1996 20.8848 74.6716 20.8848C74.9972 20.8848 75.2738 20.9987 75.5017 21.2266C75.7296 21.4382 75.9086 21.723 76.0388 22.0811C76.1853 22.4229 76.2911 22.8135 76.3562 23.2529C76.4376 23.6761 76.4945 24.0993 76.5271 24.5225C76.5597 24.9456 76.5759 25.3363 76.5759 25.6943C76.5759 26.0524 76.5759 26.3372 76.5759 26.5488C76.5759 27.8184 76.5434 29.0798 76.4783 30.333C76.4294 31.57 76.405 32.8232 76.405 34.0928V35.0449C77.1375 34.8171 77.935 34.6055 78.7976 34.4102C79.6602 34.1986 80.4822 34.0928 81.2634 34.0928C81.5401 34.0928 81.8168 34.109 82.0935 34.1416C82.3865 34.1742 82.6388 34.2474 82.8503 34.3613C83.0782 34.459 83.2572 34.6136 83.3875 34.8252C83.5339 35.0205 83.6072 35.2891 83.6072 35.6309ZM90.8083 39.8057C89.8155 39.8057 88.9529 39.5534 88.2205 39.0488C87.488 38.5605 86.8777 37.9014 86.3894 37.0713C85.9174 36.2249 85.5593 35.2484 85.3152 34.1416C85.0873 33.0348 84.9734 31.8711 84.9734 30.6504C84.9734 29.5111 85.0955 28.3555 85.3396 27.1836C85.6 26.0117 85.9906 24.9538 86.5115 24.0098C87.0323 23.0658 87.6915 22.2926 88.489 21.6904C89.2865 21.0882 90.2387 20.7871 91.3455 20.7871C92.4197 20.7871 93.3149 21.0801 94.031 21.666C94.7634 22.2357 95.3412 22.9844 95.7644 23.9121C96.2039 24.8236 96.5131 25.849 96.6921 26.9883C96.8875 28.1276 96.9851 29.2669 96.9851 30.4062C96.9851 31.6758 96.8549 32.8802 96.5945 34.0195C96.3503 35.1426 95.9679 36.1354 95.447 36.998C94.9425 37.8607 94.2996 38.5443 93.5183 39.0488C92.7533 39.5534 91.85 39.8057 90.8083 39.8057ZM91.1013 26.1826C90.7921 26.1826 90.5235 26.3047 90.2957 26.5488C90.0841 26.793 89.905 27.1185 89.7585 27.5254C89.6121 27.916 89.5063 28.3636 89.4412 28.8682C89.3761 29.3564 89.3435 29.8529 89.3435 30.3574C89.3435 30.9271 89.3761 31.4967 89.4412 32.0664C89.5225 32.6361 89.6365 33.1488 89.783 33.6045C89.9294 34.0602 90.1085 34.4264 90.3201 34.7031C90.5479 34.9798 90.8165 35.1182 91.1257 35.1182C91.4838 35.1182 91.7686 34.9391 91.9802 34.5811C92.1918 34.223 92.3546 33.7917 92.4685 33.2871C92.5987 32.7826 92.6801 32.2617 92.7126 31.7246C92.7615 31.1875 92.7859 30.7399 92.7859 30.3818C92.7859 29.9424 92.7533 29.4785 92.6882 28.9902C92.6394 28.502 92.5499 28.0544 92.4197 27.6475C92.2895 27.2243 92.1186 26.8743 91.907 26.5977C91.6954 26.321 91.4268 26.1826 91.1013 26.1826ZM114.367 24.6689C114.367 25.6455 114.302 26.6139 114.172 27.5742C114.041 28.5182 113.887 29.4541 113.708 30.3818C113.659 30.626 113.586 31.0247 113.488 31.5781C113.39 32.1152 113.268 32.7174 113.122 33.3848C112.992 34.0521 112.829 34.7438 112.634 35.46C112.438 36.1761 112.219 36.8271 111.974 37.4131C111.747 37.999 111.486 38.4873 111.193 38.8779C110.916 39.2523 110.615 39.4395 110.29 39.4395C109.964 39.4395 109.647 39.2767 109.338 38.9512C109.045 38.6257 108.768 38.2188 108.508 37.7305C108.263 37.2259 108.036 36.6644 107.824 36.0459C107.612 35.4274 107.425 34.8333 107.262 34.2637C107.116 33.6777 106.986 33.1488 106.872 32.6768C106.774 32.1885 106.701 31.8223 106.652 31.5781C106.587 31.7897 106.481 32.1315 106.335 32.6035C106.205 33.0592 106.034 33.5801 105.822 34.166C105.61 34.7357 105.374 35.3216 105.114 35.9238C104.854 36.526 104.577 37.0794 104.284 37.584C104.007 38.0885 103.714 38.5036 103.405 38.8291C103.096 39.1546 102.787 39.3174 102.477 39.3174C102.07 39.3174 101.712 39.1383 101.403 38.7803C101.094 38.4222 100.833 37.9665 100.622 37.4131C100.41 36.8434 100.231 36.2168 100.085 35.5332C99.9382 34.8333 99.8243 34.1497 99.7429 33.4824C99.6615 32.7988 99.5964 32.1641 99.5476 31.5781C99.4988 30.9922 99.4662 30.5283 99.45 30.1865C99.4011 29.4053 99.3523 28.6403 99.3035 27.8916C99.2709 27.1429 99.2546 26.3779 99.2546 25.5967C99.2546 25.32 99.2628 24.9456 99.2791 24.4736C99.2953 23.9854 99.3523 23.5133 99.45 23.0576C99.5639 22.5856 99.7266 22.1787 99.9382 21.8369C100.166 21.4788 100.492 21.2835 100.915 21.251C101.273 21.2347 101.582 21.3812 101.843 21.6904C102.103 21.9997 102.323 22.4147 102.502 22.9355C102.681 23.4401 102.819 24.0098 102.917 24.6445C103.031 25.263 103.112 25.8652 103.161 26.4512C103.226 27.0371 103.267 27.5742 103.283 28.0625C103.299 28.5508 103.299 28.9089 103.283 29.1367L103.259 29.7715C103.307 29.5599 103.389 29.2262 103.503 28.7705C103.633 28.3148 103.788 27.8021 103.967 27.2324C104.146 26.6465 104.333 26.0524 104.528 25.4502C104.74 24.8317 104.959 24.2702 105.187 23.7656C105.415 23.2611 105.643 22.846 105.871 22.5205C106.099 22.1787 106.318 21.9997 106.53 21.9834C106.807 21.9671 107.067 22.1299 107.311 22.4717C107.572 22.8135 107.8 23.2611 107.995 23.8145C108.206 24.3516 108.394 24.9538 108.556 25.6211C108.719 26.2884 108.858 26.9395 108.971 27.5742C109.102 28.1927 109.199 28.7542 109.264 29.2588C109.33 29.7633 109.378 30.1214 109.411 30.333C109.427 30.0726 109.468 29.6657 109.533 29.1123C109.598 28.5426 109.688 27.916 109.802 27.2324C109.915 26.5326 110.054 25.8245 110.217 25.1084C110.396 24.376 110.599 23.7087 110.827 23.1064C111.055 22.5042 111.315 22.016 111.608 21.6416C111.901 21.251 112.227 21.0557 112.585 21.0557C112.992 21.0557 113.317 21.194 113.561 21.4707C113.805 21.7311 113.984 22.0566 114.098 22.4473C114.212 22.8216 114.286 23.2204 114.318 23.6436C114.351 24.0505 114.367 24.3923 114.367 24.6689ZM128.818 39.8057C127.825 39.8057 126.963 39.5534 126.23 39.0488C125.498 38.5605 124.887 37.9014 124.399 37.0713C123.927 36.2249 123.569 35.2484 123.325 34.1416C123.097 33.0348 122.983 31.8711 122.983 30.6504C122.983 29.5111 123.105 28.3555 123.349 27.1836C123.61 26.0117 124 24.9538 124.521 24.0098C125.042 23.0658 125.701 22.2926 126.499 21.6904C127.296 21.0882 128.248 20.7871 129.355 20.7871C130.429 20.7871 131.325 21.0801 132.041 21.666C132.773 22.2357 133.351 22.9844 133.774 23.9121C134.214 24.8236 134.523 25.849 134.702 26.9883C134.897 28.1276 134.995 29.2669 134.995 30.4062C134.995 31.6758 134.865 32.8802 134.604 34.0195C134.36 35.1426 133.978 36.1354 133.457 36.998C132.952 37.8607 132.309 38.5443 131.528 39.0488C130.763 39.5534 129.86 39.8057 128.818 39.8057ZM129.111 26.1826C128.802 26.1826 128.533 26.3047 128.305 26.5488C128.094 26.793 127.915 27.1185 127.768 27.5254C127.622 27.916 127.516 28.3636 127.451 28.8682C127.386 29.3564 127.353 29.8529 127.353 30.3574C127.353 30.9271 127.386 31.4967 127.451 32.0664C127.532 32.6361 127.646 33.1488 127.793 33.6045C127.939 34.0602 128.118 34.4264 128.33 34.7031C128.558 34.9798 128.826 35.1182 129.135 35.1182C129.494 35.1182 129.778 34.9391 129.99 34.5811C130.202 34.223 130.364 33.7917 130.478 33.2871C130.608 32.7826 130.69 32.2617 130.722 31.7246C130.771 31.1875 130.796 30.7399 130.796 30.3818C130.796 29.9424 130.763 29.4785 130.698 28.9902C130.649 28.502 130.56 28.0544 130.429 27.6475C130.299 27.2243 130.128 26.8743 129.917 26.5977C129.705 26.321 129.437 26.1826 129.111 26.1826ZM151.571 28.5264C151.571 28.8844 151.555 29.3971 151.522 30.0645C151.49 30.7155 151.425 31.4398 151.327 32.2373C151.246 33.0186 151.123 33.8242 150.961 34.6543C150.798 35.4681 150.586 36.2087 150.326 36.876C150.066 37.5433 149.748 38.0967 149.374 38.5361C148.999 38.9593 148.552 39.1709 148.031 39.1709C147.543 39.1709 147.095 39.0326 146.688 38.7559C146.281 38.4629 145.915 38.113 145.59 37.7061C145.264 37.2829 144.979 36.8353 144.735 36.3633C144.491 35.8913 144.288 35.46 144.125 35.0693C143.783 34.2393 143.441 33.4255 143.099 32.6279C142.758 31.8141 142.432 30.9922 142.123 30.1621V30.8457C142.123 31.5456 142.115 32.2454 142.098 32.9453C142.098 33.6289 142.05 34.3125 141.952 34.9961C141.919 35.2728 141.879 35.5983 141.83 35.9727C141.797 36.3307 141.74 36.6888 141.659 37.0469C141.578 37.4049 141.455 37.7386 141.293 38.0479C141.146 38.3571 140.943 38.585 140.682 38.7314C140.536 38.8128 140.398 38.8617 140.267 38.8779C140.153 38.8942 140.023 38.9186 139.877 38.9512H139.803C139.429 38.9512 139.112 38.8291 138.851 38.585C138.591 38.3245 138.371 37.999 138.192 37.6084C138.013 37.2015 137.867 36.7539 137.753 36.2656C137.655 35.7611 137.574 35.2728 137.509 34.8008C137.46 34.3125 137.427 33.8649 137.411 33.458C137.395 33.0511 137.386 32.7256 137.386 32.4814C137.386 32.1071 137.403 31.5618 137.435 30.8457C137.468 30.1133 137.533 29.3076 137.631 28.4287C137.745 27.5498 137.883 26.6465 138.046 25.7188C138.225 24.791 138.453 23.9528 138.729 23.2041C139.006 22.4391 139.34 21.8206 139.73 21.3486C140.121 20.8604 140.577 20.6162 141.097 20.6162C141.602 20.6162 142.05 20.8115 142.44 21.2021C142.847 21.5928 143.205 22.0566 143.514 22.5938C143.824 23.1309 144.084 23.6924 144.296 24.2783C144.507 24.8643 144.686 25.3525 144.833 25.7432C145.109 26.5081 145.378 27.2731 145.638 28.0381C145.899 28.7868 146.151 29.5518 146.395 30.333C146.412 30.3656 146.444 30.4551 146.493 30.6016C146.542 30.748 146.599 30.9108 146.664 31.0898C146.729 31.2852 146.81 31.5049 146.908 31.749C146.908 31.5374 146.9 31.391 146.884 31.3096C146.884 31.2119 146.884 31.1305 146.884 31.0654C146.884 30.984 146.884 30.8864 146.884 30.7725C146.884 30.6585 146.884 30.4795 146.884 30.2354C146.867 29.6982 146.851 29.1611 146.835 28.624C146.835 28.0869 146.835 27.5579 146.835 27.0371C146.835 26.8092 146.835 26.4919 146.835 26.085C146.851 25.6781 146.875 25.2467 146.908 24.791C146.957 24.319 147.022 23.847 147.103 23.375C147.185 22.903 147.299 22.4798 147.445 22.1055C147.608 21.7148 147.803 21.3975 148.031 21.1533C148.275 20.9092 148.568 20.7871 148.91 20.7871C149.317 20.7871 149.667 20.9417 149.96 21.251C150.253 21.5602 150.497 21.959 150.692 22.4473C150.887 22.9193 151.042 23.4564 151.156 24.0586C151.27 24.6445 151.359 25.2223 151.425 25.792C151.49 26.3617 151.53 26.8906 151.547 27.3789C151.563 27.8672 151.571 28.2497 151.571 28.5264Z" fill="white"/>
</g>
<mask id="mask0_88_19" style="mask-type:luminance" maskUnits="userSpaceOnUse" x="164" y="14" width="30" height="31">
<path d="M194 14H164V44.675H194V14Z" fill="white"/>
</mask>
<g mask="url(#mask0_88_19)">
<path d="M181.854 26.9821L193.022 14H190.376L180.678 25.2722L172.933 14H164L175.712 31.0455L164 44.6593H166.647L176.887 32.7555L185.067 44.6593H194L181.853 26.9821H181.854ZM178.229 31.1957L177.042 29.4984L167.6 15.9924H171.665L179.285 26.8921L180.472 28.5895L190.377 42.7575H186.312L178.229 31.1964V31.1957Z" fill="white"/>
</g>
<defs>
<filter id="filter0_d_88_19" x="0.77" y="0.77002" width="216.46" height="71.77" filterUnits="userSpaceOnUse" color-interpolation-filters="sRGB">
<feFlood flood-opacity="0" result="BackgroundImageFix"/>
<feColorMatrix in="SourceAlpha" type="matrix" values="0 0 0 0 0 0 0 0 0 0 0 0 0 0 0 0 0 0 127 0" result="hardAlpha"/>
<feOffset dy="6.31"/>
<feComposite in2="hardAlpha" operator="out"/>
<feColorMatrix type="matrix" values="0 0 0 0 0 0 0 0 0 0 0 0 0 0 0 0 0 0 0.15 0"/>
<feBlend mode="normal" in2="BackgroundImageFix" result="effect1_dropShadow_88_19"/>
<feBlend mode="normal" in="SourceGraphic" in2="effect1_dropShadow_88_19" result="shape"/>
</filter>
<filter id="filter1_d_88_19" x="33.5125" y="20.25" width="118.059" height="21.7057" filterUnits="userSpaceOnUse" color-interpolation-filters="sRGB">
<feFlood flood-opacity="0" result="BackgroundImageFix"/>
<feColorMatrix in="SourceAlpha" type="matrix" values="0 0 0 0 0 0 0 0 0 0 0 0 0 0 0 0 0 0 127 0" result="hardAlpha"/>
<feOffset dy="2.15"/>
<feComposite in2="hardAlpha" operator="out"/>
<feColorMatrix type="matrix" values="0 0 0 0 0 0 0 0 0 0 0 0 0 0 0 0 0 0 0.15 0"/>
<feBlend mode="normal" in2="BackgroundImageFix" result="effect1_dropShadow_88_19"/>
<feBlend mode="normal" in="SourceGraphic" in2="effect1_dropShadow_88_19" result="shape"/>
</filter>
</defs>
</svg>
