<svg width="32" height="29" viewBox="0 0 32 29" fill="none" xmlns="http://www.w3.org/2000/svg">
<path d="M2.00837 4.01674H29.9916C31.1074 4.01674 32 3.12413 32 2.00837C32 0.892608 31.1074 0 29.9916 0H2.00837C0.892608 0 0 0.892608 0 2.00837C0 3.12413 0.892608 4.01674 2.00837 4.01674Z" fill="black"/>
<path d="M29.9916 12.0496H2.00837C0.892608 12.0496 0 12.9422 0 14.0579C0 15.1737 0.892608 16.0663 2.00837 16.0663H29.9916C31.1074 16.0663 32 15.1737 32 14.0579C32 12.9422 31.1074 12.0496 29.9916 12.0496Z" fill="black"/>
<path d="M29.9916 24.1006H2.00837C0.892608 24.1006 0 24.9932 0 26.109C0 27.2247 0.892608 28.1173 2.00837 28.1173H29.9916C31.1074 28.1173 32 27.2247 32 26.109C32 24.9932 31.1074 24.1006 29.9916 24.1006Z" fill="black"/>
</svg>
