<svg width="234" height="73" viewBox="0 0 234 73" fill="none" xmlns="http://www.w3.org/2000/svg">
<g filter="url(#filter0_d_88_32)">
<rect x="6" y="6" width="221" height="55" rx="10" fill="#D7A010"/>
<rect x="3.385" y="3.385" width="226.23" height="60.23" rx="12.615" stroke="white" stroke-width="5.23"/>
</g>
<rect x="6" y="6" width="221" height="49" rx="10" fill="#F5B715"/>
<path opacity="0.5" fill-rule="evenodd" clip-rule="evenodd" d="M82.3967 8.02297C80.6603 6.71027 78.543 6 76.3662 6H30.6354C17.0297 6 6 17.0297 6 30.6354C6 44.2412 17.0297 55.2708 30.6354 55.2708H115.085C124.676 55.2708 128.766 43.0776 121.115 37.2938L82.3967 8.02297Z" fill="#F7BF2E"/>
<g filter="url(#filter1_d_88_32)">
<path d="M53.6465 27.1582C53.6465 28.2812 53.3861 29.2904 52.8652 30.1855C52.3444 31.0807 51.6527 31.8701 50.79 32.5537C51.0505 32.9443 51.319 33.4001 51.5957 33.9209C51.8724 34.4417 52.1165 34.9951 52.3281 35.5811C52.556 36.1507 52.735 36.7285 52.8652 37.3145C53.0117 37.8841 53.085 38.4131 53.085 38.9014C53.085 39.4222 52.9548 39.8861 52.6943 40.293C52.4502 40.7161 52.027 40.9277 51.4248 40.9277C50.9202 40.9277 50.4808 40.6836 50.1064 40.1953C49.7484 39.707 49.4229 39.1292 49.1299 38.4619C48.8532 37.7783 48.5928 37.0866 48.3486 36.3867C48.1208 35.6868 47.901 35.1253 47.6895 34.7021C47.3965 34.7998 47.1117 34.9137 46.835 35.0439C46.5583 35.1579 46.2734 35.2718 45.9805 35.3857C45.9642 35.7438 45.9316 36.2402 45.8828 36.875C45.8503 37.4935 45.7607 38.112 45.6143 38.7305C45.484 39.349 45.2806 39.8861 45.0039 40.3418C44.7272 40.7975 44.3447 41.0254 43.8564 41.0254C43.3193 41.0254 42.9043 40.8057 42.6113 40.3662C42.3184 39.9268 42.1068 39.4059 41.9766 38.8037C41.8626 38.2015 41.7975 37.5911 41.7812 36.9727C41.765 36.3379 41.7568 35.8415 41.7568 35.4834C41.7568 34.7184 41.7731 33.9697 41.8057 33.2373C41.8382 32.4886 41.8545 31.7318 41.8545 30.9668C41.8545 30.2669 41.8382 29.5671 41.8057 28.8672C41.7894 28.1673 41.7812 27.4593 41.7812 26.7432C41.7812 26.5804 41.7812 26.377 41.7812 26.1328C41.7812 25.8724 41.7894 25.612 41.8057 25.3516C41.8382 25.0749 41.8708 24.8145 41.9033 24.5703C41.9359 24.3262 41.9928 24.1309 42.0742 23.9844C42.237 23.6426 42.6032 23.3171 43.1729 23.0078C43.7588 22.6986 44.3936 22.43 45.0771 22.2021C45.777 21.958 46.4525 21.7708 47.1035 21.6406C47.7708 21.4941 48.2673 21.4209 48.5928 21.4209C49.4229 21.4209 50.1553 21.5755 50.79 21.8848C51.4248 22.194 51.9538 22.6172 52.377 23.1543C52.8001 23.6751 53.1175 24.2855 53.3291 24.9854C53.5407 25.6689 53.6465 26.3932 53.6465 27.1582ZM49.1299 27.5C49.1299 27.0768 49.0322 26.7594 48.8369 26.5479C48.6416 26.32 48.3242 26.2061 47.8848 26.2061C47.5592 26.2061 47.2256 26.263 46.8838 26.377C46.5583 26.4909 46.2572 26.6211 45.9805 26.7676C46.0456 28.0534 46.07 29.3311 46.0537 30.6006C46.3955 30.4867 46.7454 30.3402 47.1035 30.1611C47.4616 29.9821 47.7871 29.7624 48.0801 29.502C48.3893 29.2415 48.6416 28.9486 48.8369 28.623C49.0322 28.2975 49.1299 27.9232 49.1299 27.5ZM66.1455 36.167C66.1455 36.4762 66.0641 36.7773 65.9014 37.0703C65.7386 37.347 65.3561 37.6725 64.7539 38.0469C64.1517 38.4212 63.4844 38.7793 62.752 39.1211C62.0195 39.4466 61.3115 39.7314 60.6279 39.9756C59.9443 40.2035 59.4398 40.3174 59.1143 40.3174C58.8864 40.3174 58.6178 40.2604 58.3086 40.1465C57.9993 40.0488 57.6901 39.9186 57.3809 39.7559C57.0716 39.5931 56.7868 39.4059 56.5264 39.1943C56.2822 38.9827 56.1032 38.7793 55.9893 38.584C55.9242 38.4701 55.859 38.2422 55.7939 37.9004C55.7451 37.5586 55.6963 37.1598 55.6475 36.7041C55.6149 36.2484 55.5824 35.7682 55.5498 35.2637C55.5173 34.7428 55.4847 34.2546 55.4521 33.7988C55.4359 33.3268 55.4196 32.9118 55.4033 32.5537C55.4033 32.1956 55.4033 31.9352 55.4033 31.7725C55.4033 31.1702 55.4196 30.4785 55.4521 29.6973C55.501 28.916 55.5824 28.1348 55.6963 27.3535C55.8102 26.556 55.973 25.7992 56.1846 25.083C56.4124 24.3506 56.7135 23.7321 57.0879 23.2275C57.2018 23.0811 57.4297 22.9264 57.7715 22.7637C58.1133 22.6009 58.512 22.4463 58.9678 22.2998C59.4398 22.1533 59.9443 22.015 60.4814 21.8848C61.0186 21.7546 61.5312 21.6488 62.0195 21.5674C62.5241 21.4697 62.9798 21.3965 63.3867 21.3477C63.7936 21.2826 64.1029 21.25 64.3145 21.25C64.5586 21.25 64.7865 21.307 64.998 21.4209C65.2259 21.5186 65.4131 21.6569 65.5596 21.8359C65.7223 22.015 65.8444 22.2184 65.9258 22.4463C66.0234 22.6579 66.0723 22.8857 66.0723 23.1299C66.0723 23.3415 66.0397 23.5205 65.9746 23.667C65.9258 23.8135 65.8444 23.9762 65.7305 24.1553C65.5677 24.3669 65.2259 24.6191 64.7051 24.9121C64.1842 25.2051 63.6146 25.498 62.9961 25.791C62.3939 26.0677 61.8079 26.32 61.2383 26.5479C60.6849 26.7757 60.2943 26.9385 60.0664 27.0361C60.0013 27.4105 59.9281 27.793 59.8467 28.1836C59.7816 28.5579 59.7327 28.9404 59.7002 29.3311C60.2048 29.0706 60.7744 28.8265 61.4092 28.5986C62.0439 28.3708 62.6462 28.2568 63.2158 28.2568C64.3714 28.2568 64.9492 28.8265 64.9492 29.9658C64.9492 30.2425 64.8923 30.4867 64.7783 30.6982C64.6807 30.9098 64.5423 31.097 64.3633 31.2598C64.2005 31.4225 64.0052 31.569 63.7773 31.6992C63.5658 31.8132 63.3542 31.9271 63.1426 32.041C62.6217 32.3177 62.0765 32.5618 61.5068 32.7734C60.9372 32.9688 60.3675 33.1641 59.7979 33.3594C59.7653 33.4896 59.7327 33.6361 59.7002 33.7988C59.6676 33.9453 59.6514 34.0918 59.6514 34.2383C59.6514 34.4661 59.6676 34.694 59.7002 34.9219C59.7327 35.1497 59.7653 35.3776 59.7979 35.6055C59.9932 35.5404 60.3024 35.4346 60.7256 35.2881C61.165 35.1416 61.6208 34.9951 62.0928 34.8486C62.5648 34.7021 63.0205 34.5801 63.46 34.4824C63.8994 34.3685 64.2249 34.3115 64.4365 34.3115C64.6807 34.3115 64.9085 34.3685 65.1201 34.4824C65.3317 34.5801 65.5107 34.7184 65.6572 34.8975C65.8037 35.0602 65.9176 35.2555 65.999 35.4834C66.0967 35.7113 66.1455 35.9391 66.1455 36.167ZM80.5732 36.3867C80.5732 36.7122 80.5407 37.1029 80.4756 37.5586C80.4268 38.0143 80.321 38.4538 80.1582 38.877C79.9954 39.2839 79.7757 39.6338 79.499 39.9268C79.2223 40.2035 78.8561 40.3418 78.4004 40.3418C77.7982 40.3418 77.3424 40.1221 77.0332 39.6826C76.7402 39.2432 76.5286 38.7223 76.3984 38.1201C76.2682 37.5016 76.1868 36.875 76.1543 36.2402C76.138 35.6055 76.1217 35.1009 76.1055 34.7266C74.9336 34.9219 73.778 35.0928 72.6387 35.2393C72.6061 35.6136 72.5329 36.0775 72.4189 36.6309C72.3213 37.1842 72.1585 37.7214 71.9307 38.2422C71.7191 38.7467 71.4342 39.1862 71.0762 39.5605C70.7344 39.9349 70.3112 40.1221 69.8066 40.1221C69.416 40.1221 69.1068 39.9837 68.8789 39.707C68.6673 39.4141 68.5046 39.0723 68.3906 38.6816C68.2767 38.291 68.2035 37.8923 68.1709 37.4854C68.1546 37.0622 68.1465 36.7122 68.1465 36.4355C68.1465 35.5078 68.2197 34.5964 68.3662 33.7012C68.5127 32.7897 68.6836 31.8864 68.8789 30.9912C68.9766 30.5192 69.1068 29.9658 69.2695 29.3311C69.4323 28.6963 69.6276 28.0452 69.8555 27.3779C70.0996 26.6943 70.3763 26.027 70.6855 25.376C71.0111 24.7087 71.3773 24.1146 71.7842 23.5938C72.1911 23.0729 72.6549 22.6497 73.1758 22.3242C73.6966 21.9987 74.2744 21.8359 74.9092 21.8359C75.5277 21.8359 76.0648 21.9743 76.5205 22.251C76.9762 22.5277 77.375 22.8939 77.7168 23.3496C78.0586 23.8053 78.3434 24.3262 78.5713 24.9121C78.7992 25.4818 78.9863 26.0677 79.1328 26.6699C79.2956 27.2559 79.4258 27.8337 79.5234 28.4033C79.6374 28.973 79.735 29.4775 79.8164 29.917C80.028 30.9749 80.207 32.0492 80.3535 33.1396C80.5 34.2139 80.5732 35.2962 80.5732 36.3867ZM75.8613 30.4541C75.8613 30.2588 75.8451 29.9414 75.8125 29.502C75.7962 29.0462 75.7474 28.5986 75.666 28.1592C75.5846 27.7035 75.4544 27.3047 75.2754 26.9629C75.1126 26.6048 74.8848 26.4258 74.5918 26.4258C74.429 26.4258 74.2744 26.5397 74.1279 26.7676C73.9814 26.9792 73.8512 27.2559 73.7373 27.5977C73.6234 27.9232 73.5176 28.2894 73.4199 28.6963C73.3385 29.1032 73.2653 29.4938 73.2002 29.8682C73.1351 30.2425 73.0863 30.5843 73.0537 30.8936C73.0212 31.1865 72.9967 31.3981 72.9805 31.5283C73.957 31.4469 74.9173 31.3249 75.8613 31.1621V30.4541ZM95.7334 29.0137C95.7334 30.446 95.4404 31.8294 94.8545 33.1641C94.2686 34.4824 93.4792 35.6543 92.4863 36.6797C91.5098 37.7051 90.3623 38.527 89.0439 39.1455C87.7419 39.7477 86.3665 40.0488 84.918 40.0488H84.8691C84.5762 40.0488 84.332 39.9186 84.1367 39.6582C83.9577 39.3815 83.8031 39.0397 83.6729 38.6328C83.5426 38.2259 83.445 37.7702 83.3799 37.2656C83.3148 36.7611 83.266 36.2728 83.2334 35.8008C83.2008 35.3125 83.1846 34.8812 83.1846 34.5068C83.1846 34.1162 83.1846 33.8232 83.1846 33.6279C83.1846 33.0745 83.1927 32.5293 83.209 31.9922C83.2253 31.4388 83.2497 30.8854 83.2822 30.332C83.2822 30.153 83.2904 29.8926 83.3066 29.5508C83.3392 29.1927 83.3717 28.7939 83.4043 28.3545C83.4368 27.915 83.4775 27.4593 83.5264 26.9873C83.5752 26.499 83.624 26.0514 83.6729 25.6445C83.738 25.2214 83.7949 24.8551 83.8438 24.5459C83.9089 24.2204 83.9821 24.0007 84.0635 23.8867C84.2751 23.5286 84.6006 23.2113 85.04 22.9346C85.4795 22.6579 85.9515 22.43 86.4561 22.251C86.9769 22.0719 87.4977 21.9417 88.0186 21.8604C88.5557 21.7627 89.0195 21.7139 89.4102 21.7139C90.4844 21.7139 91.4121 21.9173 92.1934 22.3242C92.9909 22.7148 93.6501 23.252 94.1709 23.9355C94.708 24.6029 95.0986 25.376 95.3428 26.2549C95.6032 27.1338 95.7334 28.0534 95.7334 29.0137ZM91.6318 29.7217C91.6318 29.3636 91.5667 28.9974 91.4365 28.623C91.3063 28.2487 91.1191 27.9069 90.875 27.5977C90.6471 27.2884 90.3623 27.0443 90.0205 26.8652C89.695 26.6699 89.3288 26.5723 88.9219 26.5723C88.5801 26.5723 88.2301 26.6536 87.8721 26.8164C87.7907 26.8652 87.7174 27.0199 87.6523 27.2803C87.5872 27.5244 87.5303 27.8255 87.4814 28.1836C87.4489 28.5417 87.4163 28.9323 87.3838 29.3555C87.3512 29.7786 87.3268 30.1855 87.3105 30.5762C87.3105 30.9505 87.3024 31.2842 87.2861 31.5771C87.2861 31.8701 87.2861 32.0654 87.2861 32.1631C87.2861 32.3258 87.2861 32.57 87.2861 32.8955C87.2861 33.2048 87.2943 33.514 87.3105 33.8232C87.3431 34.1325 87.3757 34.401 87.4082 34.6289C87.4408 34.8568 87.4977 34.9707 87.5791 34.9707C88.0674 34.9707 88.5475 34.7835 89.0195 34.4092C89.5078 34.0186 89.9473 33.5465 90.3379 32.9932C90.7285 32.4398 91.0378 31.862 91.2656 31.2598C91.5098 30.6576 91.6318 30.1449 91.6318 29.7217ZM121.415 37.3389C121.366 37.762 121.293 38.1771 121.195 38.584C121.114 38.9909 121.008 39.3571 120.878 39.6826C120.748 39.9919 120.577 40.236 120.365 40.415C120.17 40.6104 119.942 40.708 119.682 40.708C119.421 40.708 119.185 40.5046 118.974 40.0977C118.762 39.707 118.559 39.1862 118.363 38.5352C118.184 37.8678 118.013 37.1191 117.851 36.2891C117.704 35.459 117.566 34.6208 117.436 33.7744C117.322 32.9118 117.224 32.0736 117.143 31.2598C117.061 30.446 116.996 29.738 116.947 29.1357C116.85 29.7542 116.736 30.446 116.605 31.2109C116.475 31.9759 116.321 32.7572 116.142 33.5547C115.963 34.3359 115.767 35.109 115.556 35.874C115.344 36.6227 115.116 37.2982 114.872 37.9004C114.628 38.4863 114.368 38.9583 114.091 39.3164C113.814 39.6745 113.521 39.8535 113.212 39.8535C112.935 39.8535 112.659 39.6663 112.382 39.292C112.105 38.9176 111.837 38.4294 111.576 37.8271C111.316 37.2087 111.072 36.5251 110.844 35.7764C110.616 35.0277 110.404 34.279 110.209 33.5303C110.014 32.7653 109.843 32.0492 109.696 31.3818C109.55 30.6982 109.436 30.1286 109.354 29.6729C109.354 30.0146 109.346 30.3971 109.33 30.8203C109.33 31.2272 109.33 31.5202 109.33 31.6992C109.33 31.7806 109.322 32.0492 109.306 32.5049C109.306 32.9606 109.281 33.5059 109.232 34.1406C109.184 34.7754 109.11 35.459 109.013 36.1914C108.915 36.9076 108.769 37.5749 108.573 38.1934C108.394 38.8118 108.166 39.3327 107.89 39.7559C107.613 40.179 107.271 40.4069 106.864 40.4395C106.539 40.293 106.262 40.0488 106.034 39.707C105.823 39.349 105.644 38.9339 105.497 38.4619C105.351 37.9899 105.237 37.4854 105.155 36.9482C105.074 36.4111 105.009 35.8903 104.96 35.3857C104.911 34.8649 104.879 34.3848 104.862 33.9453C104.862 33.5059 104.862 33.1478 104.862 32.8711C104.862 32.3828 104.887 31.7725 104.936 31.04C105.001 30.2913 105.098 29.5101 105.229 28.6963C105.359 27.8825 105.53 27.0687 105.741 26.2549C105.953 25.4411 106.205 24.7168 106.498 24.082C106.807 23.431 107.157 22.902 107.548 22.4951C107.955 22.0882 108.419 21.8848 108.939 21.8848C109.184 21.8848 109.444 22.0231 109.721 22.2998C109.997 22.5765 110.274 22.9427 110.551 23.3984C110.827 23.8379 111.096 24.3343 111.356 24.8877C111.617 25.4411 111.861 26.0026 112.089 26.5723C112.333 27.1257 112.545 27.6628 112.724 28.1836C112.903 28.6882 113.049 29.1195 113.163 29.4775C113.293 29.0869 113.456 28.6312 113.651 28.1104C113.847 27.5895 114.058 27.0524 114.286 26.499C114.53 25.9294 114.791 25.376 115.067 24.8389C115.36 24.2855 115.661 23.7972 115.971 23.374C116.28 22.9346 116.589 22.5846 116.898 22.3242C117.224 22.0475 117.549 21.9092 117.875 21.9092C118.445 21.9092 118.933 22.1208 119.34 22.5439C119.747 22.9671 120.089 23.5205 120.365 24.2041C120.642 24.8714 120.862 25.6283 121.024 26.4746C121.187 27.3047 121.309 28.1348 121.391 28.9648C121.488 29.7786 121.545 30.5436 121.562 31.2598C121.594 31.9759 121.61 32.5537 121.61 32.9932C121.61 33.1722 121.61 33.4163 121.61 33.7256C121.61 34.0348 121.602 34.3848 121.586 34.7754C121.586 35.166 121.57 35.5811 121.537 36.0205C121.505 36.46 121.464 36.8994 121.415 37.3389ZM129.935 40.8057C128.942 40.8057 128.079 40.5534 127.347 40.0488C126.614 39.5605 126.004 38.9014 125.516 38.0713C125.044 37.2249 124.686 36.2484 124.441 35.1416C124.214 34.0348 124.1 32.8711 124.1 31.6504C124.1 30.5111 124.222 29.3555 124.466 28.1836C124.726 27.0117 125.117 25.9538 125.638 25.0098C126.159 24.0658 126.818 23.2926 127.615 22.6904C128.413 22.0882 129.365 21.7871 130.472 21.7871C131.546 21.7871 132.441 22.0801 133.157 22.666C133.89 23.2357 134.467 23.9844 134.891 24.9121C135.33 25.8236 135.639 26.849 135.818 27.9883C136.014 29.1276 136.111 30.2669 136.111 31.4062C136.111 32.6758 135.981 33.8802 135.721 35.0195C135.477 36.1426 135.094 37.1354 134.573 37.998C134.069 38.8607 133.426 39.5443 132.645 40.0488C131.88 40.5534 130.976 40.8057 129.935 40.8057ZM130.228 27.1826C129.918 27.1826 129.65 27.3047 129.422 27.5488C129.21 27.793 129.031 28.1185 128.885 28.5254C128.738 28.916 128.632 29.3636 128.567 29.8682C128.502 30.3564 128.47 30.8529 128.47 31.3574C128.47 31.9271 128.502 32.4967 128.567 33.0664C128.649 33.6361 128.763 34.1488 128.909 34.6045C129.056 35.0602 129.235 35.4264 129.446 35.7031C129.674 35.9798 129.943 36.1182 130.252 36.1182C130.61 36.1182 130.895 35.9391 131.106 35.5811C131.318 35.223 131.481 34.7917 131.595 34.2871C131.725 33.7826 131.806 33.2617 131.839 32.7246C131.888 32.1875 131.912 31.7399 131.912 31.3818C131.912 30.9424 131.88 30.4785 131.814 29.9902C131.766 29.502 131.676 29.0544 131.546 28.6475C131.416 28.2243 131.245 27.8743 131.033 27.5977C130.822 27.321 130.553 27.1826 130.228 27.1826ZM150.393 27.1582C150.393 28.2812 150.132 29.2904 149.611 30.1855C149.09 31.0807 148.399 31.8701 147.536 32.5537C147.797 32.9443 148.065 33.4001 148.342 33.9209C148.618 34.4417 148.863 34.9951 149.074 35.5811C149.302 36.1507 149.481 36.7285 149.611 37.3145C149.758 37.8841 149.831 38.4131 149.831 38.9014C149.831 39.4222 149.701 39.8861 149.44 40.293C149.196 40.7161 148.773 40.9277 148.171 40.9277C147.666 40.9277 147.227 40.6836 146.853 40.1953C146.494 39.707 146.169 39.1292 145.876 38.4619C145.599 37.7783 145.339 37.0866 145.095 36.3867C144.867 35.6868 144.647 35.1253 144.436 34.7021C144.143 34.7998 143.858 34.9137 143.581 35.0439C143.304 35.1579 143.02 35.2718 142.727 35.3857C142.71 35.7438 142.678 36.2402 142.629 36.875C142.596 37.4935 142.507 38.112 142.36 38.7305C142.23 39.349 142.027 39.8861 141.75 40.3418C141.473 40.7975 141.091 41.0254 140.603 41.0254C140.065 41.0254 139.65 40.8057 139.357 40.3662C139.064 39.9268 138.853 39.4059 138.723 38.8037C138.609 38.2015 138.544 37.5911 138.527 36.9727C138.511 36.3379 138.503 35.8415 138.503 35.4834C138.503 34.7184 138.519 33.9697 138.552 33.2373C138.584 32.4886 138.601 31.7318 138.601 30.9668C138.601 30.2669 138.584 29.5671 138.552 28.8672C138.535 28.1673 138.527 27.4593 138.527 26.7432C138.527 26.5804 138.527 26.377 138.527 26.1328C138.527 25.8724 138.535 25.612 138.552 25.3516C138.584 25.0749 138.617 24.8145 138.649 24.5703C138.682 24.3262 138.739 24.1309 138.82 23.9844C138.983 23.6426 139.349 23.3171 139.919 23.0078C140.505 22.6986 141.14 22.43 141.823 22.2021C142.523 21.958 143.199 21.7708 143.85 21.6406C144.517 21.4941 145.013 21.4209 145.339 21.4209C146.169 21.4209 146.901 21.5755 147.536 21.8848C148.171 22.194 148.7 22.6172 149.123 23.1543C149.546 23.6751 149.864 24.2855 150.075 24.9854C150.287 25.6689 150.393 26.3932 150.393 27.1582ZM145.876 27.5C145.876 27.0768 145.778 26.7594 145.583 26.5479C145.388 26.32 145.07 26.2061 144.631 26.2061C144.305 26.2061 143.972 26.263 143.63 26.377C143.304 26.4909 143.003 26.6211 142.727 26.7676C142.792 28.0534 142.816 29.3311 142.8 30.6006C143.142 30.4867 143.492 30.3402 143.85 30.1611C144.208 29.9821 144.533 29.7624 144.826 29.502C145.135 29.2415 145.388 28.9486 145.583 28.623C145.778 28.2975 145.876 27.9232 145.876 27.5ZM162.892 36.167C162.892 36.4762 162.81 36.7773 162.647 37.0703C162.485 37.347 162.102 37.6725 161.5 38.0469C160.898 38.4212 160.23 38.7793 159.498 39.1211C158.766 39.4466 158.058 39.7314 157.374 39.9756C156.69 40.2035 156.186 40.3174 155.86 40.3174C155.632 40.3174 155.364 40.2604 155.055 40.1465C154.745 40.0488 154.436 39.9186 154.127 39.7559C153.818 39.5931 153.533 39.4059 153.272 39.1943C153.028 38.9827 152.849 38.7793 152.735 38.584C152.67 38.4701 152.605 38.2422 152.54 37.9004C152.491 37.5586 152.442 37.1598 152.394 36.7041C152.361 36.2484 152.328 35.7682 152.296 35.2637C152.263 34.7428 152.231 34.2546 152.198 33.7988C152.182 33.3268 152.166 32.9118 152.149 32.5537C152.149 32.1956 152.149 31.9352 152.149 31.7725C152.149 31.1702 152.166 30.4785 152.198 29.6973C152.247 28.916 152.328 28.1348 152.442 27.3535C152.556 26.556 152.719 25.7992 152.931 25.083C153.159 24.3506 153.46 23.7321 153.834 23.2275C153.948 23.0811 154.176 22.9264 154.518 22.7637C154.859 22.6009 155.258 22.4463 155.714 22.2998C156.186 22.1533 156.69 22.015 157.228 21.8848C157.765 21.7546 158.277 21.6488 158.766 21.5674C159.27 21.4697 159.726 21.3965 160.133 21.3477C160.54 21.2826 160.849 21.25 161.061 21.25C161.305 21.25 161.533 21.307 161.744 21.4209C161.972 21.5186 162.159 21.6569 162.306 21.8359C162.468 22.015 162.59 22.2184 162.672 22.4463C162.77 22.6579 162.818 22.8857 162.818 23.1299C162.818 23.3415 162.786 23.5205 162.721 23.667C162.672 23.8135 162.59 23.9762 162.477 24.1553C162.314 24.3669 161.972 24.6191 161.451 24.9121C160.93 25.2051 160.361 25.498 159.742 25.791C159.14 26.0677 158.554 26.32 157.984 26.5479C157.431 26.7757 157.04 26.9385 156.812 27.0361C156.747 27.4105 156.674 27.793 156.593 28.1836C156.528 28.5579 156.479 28.9404 156.446 29.3311C156.951 29.0706 157.521 28.8265 158.155 28.5986C158.79 28.3708 159.392 28.2568 159.962 28.2568C161.118 28.2568 161.695 28.8265 161.695 29.9658C161.695 30.2425 161.638 30.4867 161.524 30.6982C161.427 30.9098 161.288 31.097 161.109 31.2598C160.947 31.4225 160.751 31.569 160.523 31.6992C160.312 31.8132 160.1 31.9271 159.889 32.041C159.368 32.3177 158.823 32.5618 158.253 32.7734C157.683 32.9688 157.114 33.1641 156.544 33.3594C156.511 33.4896 156.479 33.6361 156.446 33.7988C156.414 33.9453 156.397 34.0918 156.397 34.2383C156.397 34.4661 156.414 34.694 156.446 34.9219C156.479 35.1497 156.511 35.3776 156.544 35.6055C156.739 35.5404 157.049 35.4346 157.472 35.2881C157.911 35.1416 158.367 34.9951 158.839 34.8486C159.311 34.7021 159.767 34.5801 160.206 34.4824C160.646 34.3685 160.971 34.3115 161.183 34.3115C161.427 34.3115 161.655 34.3685 161.866 34.4824C162.078 34.5801 162.257 34.7184 162.403 34.8975C162.55 35.0602 162.664 35.2555 162.745 35.4834C162.843 35.7113 162.892 35.9391 162.892 36.167Z" fill="white"/>
</g>
<path d="M176.961 25.0469C176.993 24.7421 176.874 24.4371 176.646 24.2304L174.315 21.4187V21H181.561L187.164 33.2857L192.09 21H199V21.4187L197.005 23.331C196.834 23.4602 196.747 23.6772 196.783 23.8892V37.9476C196.747 38.1594 196.834 38.3765 197.005 38.5058L198.954 40.4181V40.8368H189.149V40.4181L191.17 38.4593C191.366 38.2629 191.366 38.2008 191.366 37.901V26.5407L185.748 40.8006H184.988L178.455 26.5407V36.0973C178.398 36.5004 178.533 36.9036 178.817 37.193L181.443 40.3768V40.7955H174V40.3819L176.626 37.193C176.905 36.9036 177.034 36.4952 176.961 36.0973V25.0469Z" fill="white"/>
<defs>
<filter id="filter0_d_88_32" x="0.769989" y="0.77002" width="231.46" height="71.77" filterUnits="userSpaceOnUse" color-interpolation-filters="sRGB">
<feFlood flood-opacity="0" result="BackgroundImageFix"/>
<feColorMatrix in="SourceAlpha" type="matrix" values="0 0 0 0 0 0 0 0 0 0 0 0 0 0 0 0 0 0 127 0" result="hardAlpha"/>
<feOffset dy="6.31"/>
<feComposite in2="hardAlpha" operator="out"/>
<feColorMatrix type="matrix" values="0 0 0 0 0 0 0 0 0 0 0 0 0 0 0 0 0 0 0.15 0"/>
<feBlend mode="normal" in2="BackgroundImageFix" result="effect1_dropShadow_88_32"/>
<feBlend mode="normal" in="SourceGraphic" in2="effect1_dropShadow_88_32" result="shape"/>
</filter>
<filter id="filter1_d_88_32" x="41.7568" y="21.25" width="121.135" height="21.9254" filterUnits="userSpaceOnUse" color-interpolation-filters="sRGB">
<feFlood flood-opacity="0" result="BackgroundImageFix"/>
<feColorMatrix in="SourceAlpha" type="matrix" values="0 0 0 0 0 0 0 0 0 0 0 0 0 0 0 0 0 0 127 0" result="hardAlpha"/>
<feOffset dy="2.15"/>
<feComposite in2="hardAlpha" operator="out"/>
<feColorMatrix type="matrix" values="0 0 0 0 0 0 0 0 0 0 0 0 0 0 0 0 0 0 0.15 0"/>
<feBlend mode="normal" in2="BackgroundImageFix" result="effect1_dropShadow_88_32"/>
<feBlend mode="normal" in="SourceGraphic" in2="effect1_dropShadow_88_32" result="shape"/>
</filter>
</defs>
</svg>
