<svg width="288" height="513" viewBox="0 0 288 513" fill="none" xmlns="http://www.w3.org/2000/svg">
<g opacity="0.2">
<path d="M146.02 512.423C221.459 512.423 282.614 502.576 282.614 490.428C282.614 478.28 221.459 468.432 146.02 468.432C70.5807 468.432 9.42529 478.28 9.42529 490.428C9.42529 502.576 70.5807 512.423 146.02 512.423Z" fill="#001477"/>
</g>
<path d="M282.058 261.597C278.547 270.772 272.43 278.719 264.46 284.461C258.525 288.858 252.321 292.881 245.885 296.507C236.658 301.724 226.893 305.928 216.761 309.045C213.832 309.941 210.877 310.747 207.886 311.427C206.847 311.678 205.79 311.902 204.733 312.126C209.077 354.595 199.584 389.343 181.403 400.923C163.223 412.503 168.373 436.155 168.373 436.155C179.317 457.39 172.564 471.701 162.91 481.687C153.255 491.673 118.023 505.33 106.766 488.108C104.819 485.284 103.545 482.052 103.04 478.66C101.473 466.865 112.309 459.557 112.309 459.557C102.906 438.565 88.424 428.436 88.424 428.436C87.7076 428.839 86.9818 429.215 86.2564 429.564C68.5596 437.956 46.6536 428.104 33.193 413.3C19.0338 397.735 14.1711 376.725 33.2381 365.691C18.5147 325.157 26.2344 282.5 48.6956 238.455L206.112 248.181C212.193 246.865 218.651 245.154 224.983 243.336C239.402 239.172 252.916 234.38 258.71 232.303C261.569 231.224 264.612 230.715 267.666 230.807C274.284 231.067 279.174 233.861 281.995 238.455C285.291 244.017 285.542 252.167 282.058 261.597Z" fill="#FAA327"/>
<g opacity="0.7">
<path d="M74.9731 371.826C96.1626 348.845 119.065 345.23 143.682 360.98C143.682 360.98 126.935 340.525 105.629 347.851C84.323 355.177 73.567 359.709 70.4414 366.802" fill="white"/>
</g>
<g opacity="0.7">
<path d="M74.973 432.564C40.099 435.305 -0.256376 385.098 33.2295 365.709C18.5061 325.175 26.2263 282.518 48.6875 238.473L54.061 238.805C31.7252 282.688 24.086 325.273 38.7736 365.709C7.04302 384.068 41.5946 430.092 74.973 432.564Z" fill="white"/>
</g>
<g opacity="0.7">
<path d="M269.664 230.986C267.815 231.22 265.998 231.659 264.246 232.293C258.461 234.398 244.946 239.163 230.527 243.327C224.258 245.118 217.738 246.856 211.657 248.172L207.314 247.904C213.037 246.632 219.082 245.029 224.975 243.327C239.394 239.163 252.908 234.371 258.702 232.293C261.561 231.214 264.604 230.706 267.658 230.798C268.321 230.852 269.01 230.905 269.664 230.986Z" fill="white"/>
</g>
<g opacity="0.7">
<path d="M207.314 247.931L206.104 248.199L54.0698 238.805C54.1236 238.697 54.1772 238.581 54.2399 238.473L207.314 247.931Z" fill="white"/>
</g>
<path d="M149.208 274.073C135.201 283.924 129.38 298.737 134.324 320.025C134.324 320.025 157.492 331.471 157.931 331.668C158.37 331.865 190.889 344.027 193.137 323.115C195.385 302.203 193.137 298.182 193.137 298.182C193.137 298.182 176.873 278.3 149.208 274.073Z" fill="#FFF3E9"/>
<path d="M69.5727 367.831C93.037 376.25 103.56 393.382 98.8226 420.787C98.8226 420.787 88.9262 427.558 83.3646 430.782C77.803 434.006 55.9597 435.179 38.8093 418.781C21.6589 402.383 20.0828 388.752 21.0948 381.498C22.1068 374.244 28.3582 362.753 43.01 364.07C57.6617 365.387 67.1907 371.181 67.1907 371.181L69.5727 367.831Z" fill="#FFF3E9"/>
<path d="M109.292 451.013C109.292 451.013 130.042 428.812 167.558 436.773C167.558 436.773 179.38 457.22 170.514 471.253C161.647 485.287 134.019 503.011 116.644 495.774C99.27 488.538 99.2699 468.504 112.301 458.16L109.292 451.013Z" fill="#FFF3E9"/>
<path d="M282.06 261.597C278.549 270.772 272.432 278.719 264.461 284.461C258.526 288.858 252.322 292.881 245.887 296.507L243.585 295.737C222.602 288.716 222.602 246.354 222.602 246.354C222.602 246.354 223.497 245.172 224.993 243.354C239.412 239.19 252.926 234.398 258.721 232.321C261.579 231.241 264.622 230.733 267.676 230.825C282.212 231.398 288.436 244.339 282.06 261.597Z" fill="#FFF3E9"/>
<path d="M83.4895 310.281C83.4895 310.281 71.8917 337.148 81.6984 356.851C105.037 343.704 125.824 341.51 142.025 358.911C156.945 359.645 168.83 353.538 175.305 335.304C152.62 335.286 115.417 308.23 83.4895 310.281Z" fill="#FFF3E9"/>
<path d="M175.287 269.308C175.287 269.308 176.245 272.81 176.371 283.19L154.411 274.072L175.287 269.308Z" fill="white"/>
<path d="M259.616 384.05C252.29 414.742 195.904 423.94 182.174 400.431C188.372 396.266 193.047 389.397 196.889 381.023C199.376 381.832 202.042 381.907 204.571 381.24C207.099 380.573 209.382 379.192 211.147 377.262C213.388 374.994 214.803 372.04 215.167 368.872C215.531 365.704 214.822 362.506 213.153 359.789C210.976 356.523 207.908 353.949 204.313 352.373C205.693 340.782 205.912 329.081 204.967 317.446C215.58 316.255 224.84 317.114 232.658 319.685C245.197 323.795 253.964 332.294 258.523 343.821C262.902 354.863 263.395 368.664 259.616 384.05Z" fill="#FAA327"/>
<path d="M48.0693 99.0578C48.0693 99.0578 66.7957 38.3103 105.772 5.49613C108.016 3.62343 110.9 2.69692 113.815 2.91253C116.73 3.12813 119.447 4.46896 121.391 6.65144C128.43 14.4788 137.843 30.6352 141.022 62.509" fill="#FAA327"/>
<g opacity="0.3">
<path d="M141.022 62.5089L48.0693 99.0577C48.0693 99.0577 48.4185 97.9562 49.0992 95.9321L134.099 62.5089C130.92 30.6351 121.516 14.4788 114.477 6.65138C113.131 5.1515 111.409 4.03842 109.489 3.42728C111.57 2.75621 113.802 2.70363 115.913 3.27592C118.024 3.8482 119.924 5.02077 121.382 6.65138C128.421 14.4788 137.843 30.6351 141.022 62.5089Z" fill="#001477"/>
</g>
<g opacity="0.7">
<path d="M122.297 7.65436C120.281 6.37722 117.912 5.77551 115.532 5.93655C113.151 6.0976 110.885 7.01302 109.06 8.54995C76.819 35.722 58.3965 82.0416 53.023 97.2128L48.1152 99.1383C48.1152 99.1383 66.8418 38.3908 105.827 5.57662C108.067 3.70285 110.949 2.77546 113.862 2.99114C116.774 3.20682 119.488 4.54861 121.428 6.73191C121.678 6.97372 121.965 7.30509 122.297 7.65436Z" fill="white"/>
</g>
<path d="M188.927 81.2712C188.927 81.2712 225.413 62.464 264.3 68.9659C266.946 69.3929 269.337 70.7936 271.004 72.8929C272.671 74.9922 273.493 77.6387 273.309 80.3129C270.327 116.733 254.179 150.818 227.885 176.194" fill="#FAA327"/>
<g opacity="0.3">
<path d="M273.31 80.3038C270.327 116.728 254.179 150.82 227.886 176.203L188.937 81.271C188.937 81.271 189.993 80.7247 191.955 79.856L224.662 159.563C249.082 135.984 264.815 104.843 269.306 71.1957C270.665 72.2732 271.74 73.6662 272.438 75.2535C273.135 76.8408 273.435 78.5744 273.31 80.3038Z" fill="#001477"/>
</g>
<g opacity="0.7">
<path d="M273.211 77.8771C272.391 76.6068 271.314 75.5225 270.049 74.6941C268.784 73.8657 267.36 73.3117 265.868 73.0678C228.119 66.7987 192.635 84.2984 190.593 85.3283L188.937 81.2713C188.937 81.2713 225.414 62.4641 264.309 68.966C266.542 69.3258 268.604 70.3808 270.203 71.9807C271.801 73.5806 272.854 75.644 273.211 77.8771Z" fill="white"/>
</g>
<path d="M75.376 77.8503C75.376 77.8503 88.2548 40.1104 109.489 21.7778C109.489 21.7778 121.364 32.1397 120.093 62.509" fill="#FFF3E9"/>
<path d="M202.308 93.0574C202.308 93.0574 226.148 80.1341 255.506 82.8567C256.088 82.9125 256.652 83.0903 257.16 83.3785C257.669 83.6667 258.112 84.0589 258.459 84.5295C258.806 85.0001 259.051 85.5386 259.176 86.1098C259.301 86.6811 259.305 87.2723 259.186 87.8451C256.831 99.5593 248.6 131.639 226.435 151.351" fill="#FFF3E9"/>
<path d="M227.885 185.213C227.106 203.572 223.318 219.128 217.013 231.783C194.785 276.562 141.282 285.205 78.9229 254.719C15.6051 224.735 -7.6622 194.392 7.27614 155.202C10.6525 146.353 15.9725 137.057 23.2178 127.215C28.6216 119.957 34.4247 113.005 40.6008 106.392C67.8624 78.3785 95.5629 62.1684 130.321 61.9804C149.614 61.9486 168.486 67.6193 184.566 78.28C220.506 101.914 228.423 135.929 227.885 185.213Z" fill="#FAA327"/>
<g opacity="0.7">
<path d="M215.114 111.202C208.648 100.84 199.791 91.8033 187.826 83.9132C171.746 73.2525 152.874 67.5818 133.58 67.6136C98.8228 67.8106 71.1223 84.0118 43.8607 112.035C37.6786 118.654 31.8721 125.615 26.4685 132.884C19.2232 142.735 13.9305 152.022 10.5273 160.862C4.40151 176.884 4.67018 191.419 11.4229 205.059C1.6252 189.834 0.299398 173.472 7.276 155.22C10.6523 146.371 15.9724 137.075 23.2177 127.233C28.6214 119.975 34.4245 113.023 40.6006 106.41C67.8622 78.3964 95.5628 62.1864 130.32 61.9983C149.613 61.9665 168.486 67.6372 184.566 78.2979C198.689 87.5583 208.478 98.4307 215.114 111.202Z" fill="white"/>
</g>
<path d="M217.013 231.774C194.785 276.553 141.282 285.196 78.9229 254.71C15.6051 224.726 -7.6622 194.384 7.27614 155.193C10.6794 154.736 23.5313 148.539 27.5435 159.554C32.6215 173.427 46.6195 177.896 59.7846 172.46C72.9496 167.023 85.9535 165.913 99.7902 170.74C113.627 175.567 127.67 184.828 133.661 200.662C139.653 216.496 147.408 223.347 159.633 221.17C171.858 218.994 206.141 215.125 217.013 231.774Z" fill="#FFF3E9"/>
<g opacity="0.3">
<path d="M227.885 185.213C227.106 203.572 223.318 219.128 217.013 231.783C194.784 276.562 141.282 285.205 78.9227 254.719C48.1146 240.13 26.7821 225.451 14.7275 209.716C27.1403 219.979 44.3442 229.884 66.4025 239.754C128.753 268.52 182.255 260.352 204.484 218.098C210.753 206.16 214.577 191.482 215.356 174.152C215.894 127.636 207.977 95.5288 172.073 73.2019C167.597 70.4199 162.911 67.9915 158.057 65.9387C167.464 68.7123 176.409 72.862 184.602 78.253C220.506 101.914 228.423 135.929 227.885 185.213Z" fill="#001477"/>
</g>
<path d="M147.371 275.586C126.137 275.586 102.369 269.389 77.6594 257.316C11.816 226.123 -10.7259 194.303 4.61549 154.154C8.09036 145.064 13.4278 135.687 20.9328 125.495C26.399 118.152 32.2713 111.119 38.5222 104.431C68.8646 73.2378 97.1653 59.2667 130.347 59.0786C150.215 59.034 169.651 64.874 186.204 75.8619C203.874 87.5045 215.758 102.317 222.636 121.152C228.574 137.505 231.091 157.279 230.795 185.257C230.799 185.287 230.799 185.317 230.795 185.347C230.016 203.698 226.254 219.755 219.618 233.082C208.298 255.865 188.891 270.132 163.501 274.278C158.169 275.156 152.775 275.594 147.371 275.586ZM130.884 64.8641H130.355C98.8577 65.0432 71.8289 78.468 42.7045 108.407C36.6155 114.922 30.8959 121.772 25.5721 128.925C18.4701 138.553 13.2308 147.732 9.99774 156.223C2.87785 174.851 4.87504 191.356 16.0788 206.698C27.399 222.191 48.3198 237.04 80.1489 252.095C110.267 266.818 138.747 272.523 162.543 268.592C186.016 264.723 203.954 251.575 214.415 230.493C220.684 217.955 224.266 202.65 224.992 185.141C225.493 138.051 218.642 104.162 183.007 80.6891C167.558 70.4147 149.428 64.9113 130.875 64.8641H130.884Z" fill="#001477"/>
<path d="M48.0697 101.959C47.7809 101.958 47.4939 101.913 47.2187 101.825C46.4926 101.6 45.8846 101.097 45.5259 100.427C45.1673 99.7566 45.0866 98.9719 45.302 98.2427C46.0812 95.7262 64.7276 36.2952 103.909 3.31085C106.723 0.943035 110.35 -0.231481 114.018 0.0378983C117.686 0.307277 121.103 1.99921 123.541 4.75272C131.046 13.0996 140.664 29.8291 143.897 62.2582C143.936 62.6363 143.899 63.0183 143.79 63.3824C143.68 63.7464 143.5 64.0853 143.26 64.3797C143.02 64.6742 142.724 64.9183 142.389 65.0983C142.054 65.2783 141.687 65.3905 141.309 65.4285C140.93 65.4669 140.547 65.4301 140.183 65.3202C139.818 65.2103 139.479 65.0295 139.184 64.7882C138.89 64.5469 138.646 64.2499 138.466 63.9141C138.287 63.5783 138.175 63.2103 138.138 62.8314C135.058 31.9874 126.156 16.3326 119.233 8.62165C117.8 6.98934 115.786 5.98192 113.62 5.81458C111.455 5.64724 109.31 6.33325 107.644 7.72607C69.7787 39.5999 51.025 99.3354 50.8369 99.9712C50.6442 100.552 50.2731 101.057 49.776 101.414C49.279 101.771 48.6817 101.962 48.0697 101.959Z" fill="#001477"/>
<path d="M75.3758 80.2682C75.1104 80.2673 74.8473 80.2219 74.597 80.1338C74.2967 80.0319 74.0196 79.8718 73.7814 79.6626C73.5432 79.4534 73.3483 79.1992 73.2085 78.9147C73.0688 78.6302 72.9867 78.3208 72.9667 78.0044C72.9467 77.688 72.9894 77.3708 73.0922 77.0709C73.6296 75.5037 86.4274 38.4981 107.912 19.9506C108.35 19.5676 108.912 19.3566 109.493 19.3566C110.075 19.3566 110.637 19.5676 111.074 19.9506C111.594 20.3984 123.809 31.432 122.502 62.5983C122.491 62.9155 122.418 63.2275 122.286 63.5161C122.154 63.8047 121.965 64.064 121.732 64.2791C121.498 64.4942 121.225 64.6606 120.926 64.7688C120.628 64.8769 120.311 64.9245 119.994 64.9089C119.678 64.8962 119.367 64.8213 119.079 64.6883C118.792 64.5554 118.533 64.3671 118.319 64.1342C118.104 63.9013 117.938 63.6283 117.829 63.331C117.72 63.0336 117.67 62.7177 117.683 62.4013C118.579 39.9042 112.229 28.9602 109.31 25.1718C89.8306 43.4059 77.7852 78.2621 77.6598 78.6203C77.4989 79.0991 77.1921 79.5155 76.7826 79.811C76.373 80.1065 75.8809 80.2664 75.3758 80.2682Z" fill="#001477"/>
<path d="M227.885 179.096C227.496 179.095 227.111 179.016 226.754 178.862C226.397 178.708 226.075 178.483 225.807 178.2C225.542 177.928 225.334 177.605 225.194 177.252C225.054 176.899 224.985 176.521 224.99 176.141C224.996 175.761 225.077 175.386 225.228 175.037C225.379 174.688 225.597 174.372 225.87 174.107C251.595 149.175 267.42 115.77 270.416 80.0712C270.561 78.1155 269.962 76.1773 268.74 74.6434C267.518 73.1095 265.763 72.0927 263.825 71.796C226.38 65.5806 190.611 83.6356 190.252 83.8237C189.915 83.9985 189.546 84.1048 189.167 84.1363C188.787 84.1679 188.406 84.1242 188.044 84.0076C187.681 83.8911 187.346 83.704 187.057 83.4573C186.767 83.2105 186.529 82.9089 186.357 82.5699C186.005 81.8881 185.939 81.0948 186.172 80.3642C186.406 79.6337 186.92 79.0258 187.602 78.6741C189.133 77.8859 225.395 59.5444 264.774 66.0822C268.14 66.6124 271.184 68.39 273.299 71.0615C275.415 73.733 276.448 77.1028 276.193 80.5011C273.073 117.607 256.629 152.329 229.9 178.254C229.365 178.788 228.641 179.09 227.885 179.096Z" fill="#001477"/>
<path d="M226.434 153.769C226.095 153.767 225.761 153.694 225.452 153.553C225.143 153.413 224.867 153.209 224.643 152.954C224.433 152.717 224.271 152.442 224.167 152.143C224.062 151.844 224.018 151.527 224.037 151.211C224.055 150.895 224.135 150.586 224.273 150.301C224.411 150.016 224.604 149.761 224.84 149.551C246.245 130.519 254.341 99.7203 256.831 87.3702C256.88 87.1235 256.877 86.8692 256.821 86.6239C256.766 86.3785 256.659 86.1476 256.508 85.9462C256.366 85.7511 256.184 85.5886 255.974 85.4696C255.764 85.3507 255.531 85.2781 255.29 85.2566C226.99 82.6326 203.696 95.0543 203.463 95.1797C203.184 95.3307 202.878 95.4252 202.563 95.4578C202.248 95.4904 201.929 95.4606 201.626 95.3699C201.322 95.2792 201.04 95.1295 200.794 94.9293C200.548 94.7292 200.344 94.4825 200.194 94.2035C199.891 93.6413 199.823 92.9821 200.004 92.3696C200.185 91.7572 200.601 91.2413 201.161 90.9346C202.164 90.3973 225.987 77.6979 255.738 80.4473C256.651 80.5355 257.535 80.8137 258.334 81.2641C259.133 81.7144 259.829 82.327 260.377 83.0624C260.931 83.8073 261.322 84.6601 261.526 85.5656C261.729 86.4711 261.741 87.4093 261.559 88.3195C258.98 101.153 250.535 133.161 228.047 153.151C227.605 153.55 227.03 153.771 226.434 153.769Z" fill="#001477"/>
<path d="M167.201 191.554C160.233 184.138 152.209 182.651 142.662 181.299C142.032 181.34 141.406 181.17 140.884 180.814C140.362 180.459 139.974 179.939 139.781 179.338C139.589 178.737 139.603 178.088 139.821 177.496C140.04 176.904 140.45 176.401 140.987 176.069C146.987 170.812 155.737 167.937 163.708 170.095C171.625 172.048 177.186 179.186 178.78 186.726C169.681 172.46 157.94 172.442 144.426 180.735L142.751 175.505C148.071 174.949 153.391 176.759 157.806 179.633C162.213 182.41 165.531 186.619 167.201 191.554Z" fill="#001477"/>
<path d="M164.792 148.718C171.081 148.977 177.29 150.219 183.196 152.399C185.82 153.357 187.092 152.819 186.993 150.813C186.917 149.678 186.519 148.588 185.847 147.67C181.584 141.661 177.007 136.726 171.159 136.117C168.899 135.923 166.63 136.38 164.621 137.433C154.644 142.431 157.708 149.004 164.792 148.718Z" fill="white"/>
<path d="M68.9549 100.392C73.8986 94.1229 92.0344 92.6094 91.8015 106.5C91.798 107.149 91.6312 107.787 91.3165 108.355C91.0019 108.922 90.5493 109.402 90.0007 109.749C89.4521 110.096 88.825 110.299 88.1772 110.34C87.5293 110.381 86.8813 110.259 86.2933 109.984C81.09 107.459 75.6672 105.415 70.0923 103.876C69.7405 103.782 69.4179 103.602 69.1535 103.351C68.889 103.101 68.691 102.789 68.578 102.443C68.465 102.096 68.4405 101.728 68.5063 101.369C68.5721 101.011 68.7263 100.675 68.9549 100.392Z" fill="white"/>
<path d="M91.9259 213.119C89.0447 213.162 86.2301 212.252 83.9194 210.531C77.8652 205.856 77.552 194.151 78.1252 192.458C78.2936 191.972 78.6071 191.549 79.0234 191.246C79.4398 190.943 79.9387 190.776 80.4534 190.766V195.575C80.9832 195.581 81.4997 195.408 81.9179 195.082C82.3361 194.757 82.6315 194.299 82.7553 193.784C82.5762 195.037 83.0599 203.778 86.8751 206.734C88.0738 207.549 89.448 208.07 90.886 208.253C92.324 208.437 93.7849 208.278 95.1501 207.791C96.4214 207.419 97.5816 206.741 98.5282 205.814C99.4748 204.888 100.179 203.743 100.577 202.48L105.207 203.814C104.601 205.839 103.501 207.681 102.006 209.175C100.512 210.669 98.67 211.769 96.6456 212.376C95.1217 212.872 93.5286 213.123 91.9259 213.119Z" fill="#001477"/>
<path d="M102.898 203.124C100.721 210.665 90.7088 212.725 85.398 208.623C80.0872 204.521 80.0872 193.183 80.4544 193.183H90.7448C90.7448 193.183 95.742 198.754 95.4554 199.264C95.1688 199.775 102.898 203.124 102.898 203.124Z" fill="#001477"/>
<path d="M110.385 176.767C107.698 171.743 96.7452 166.746 90.6821 168.035C90.1966 168.146 89.7599 168.411 89.4371 168.79C89.1144 169.17 88.9228 169.643 88.891 170.14C88.7298 172.361 89.1506 176.651 93.4852 181.156C94.3145 182.026 95.3101 182.72 96.4133 183.197C97.5165 183.674 98.7046 183.924 99.9065 183.932C103.455 184.042 106.92 182.844 109.642 180.565C110.173 180.106 110.534 179.483 110.669 178.794C110.804 178.106 110.704 177.392 110.385 176.767Z" fill="#001477"/>
<path d="M76.8633 178.979C75.0273 182.741 74.0063 187.416 78.6544 189.386C82.2368 190.819 87.0014 191.41 90.7002 190.004C91.0155 189.851 91.3608 189.771 91.7112 189.77C92.0616 189.768 92.408 189.846 92.7245 189.996C93.0409 190.147 93.3195 190.366 93.5396 190.639C93.7597 190.912 93.9154 191.23 93.9957 191.571C94.7649 193.779 95.9171 195.835 97.3992 197.643C100.301 201.226 105.737 202.462 109.722 199.838C110.767 199.136 111.658 198.228 112.34 197.17C113.022 196.112 113.482 194.926 113.69 193.685C113.718 193.573 113.786 193.474 113.88 193.407C113.973 193.339 114.088 193.307 114.203 193.316C114.319 193.324 114.427 193.373 114.51 193.454C114.593 193.534 114.645 193.642 114.657 193.757C115.15 200.366 109.042 205.569 102.585 205.05C95.9842 204.781 90.494 199.193 89.3476 192.861C89.3476 192.861 92.6704 194.419 92.6436 194.419C87.3686 196.56 81.2876 196.47 76.3709 193.219C70.4511 189.306 71.4807 182.687 76.084 178.415C76.1678 178.341 76.2746 178.297 76.3866 178.291C76.4987 178.286 76.6093 178.319 76.7001 178.384C76.791 178.45 76.8568 178.545 76.8864 178.653C76.9161 178.761 76.9079 178.877 76.8633 178.979Z" fill="#001477"/>
<path d="M91.6754 194.625C91.436 194.627 91.1976 194.594 90.9678 194.527C90.3573 194.339 89.8461 193.917 89.5457 193.353C89.2454 192.789 89.1802 192.129 89.3647 191.518C90.932 186.341 92.6336 182.786 94.7382 180.332C94.9437 180.09 95.1948 179.892 95.4772 179.747C95.7597 179.603 96.068 179.516 96.3842 179.491C96.7004 179.466 97.0184 179.504 97.32 179.602C97.6216 179.7 97.9004 179.857 98.1413 180.063C98.6285 180.478 98.9314 181.07 98.9835 181.707C99.0355 182.345 98.8325 182.978 98.4189 183.466C96.7979 185.365 95.3471 188.455 93.9948 192.915C93.8442 193.412 93.5369 193.847 93.1189 194.155C92.7009 194.464 92.1947 194.628 91.6754 194.625Z" fill="#001477"/>
<path d="M97.667 209.591C96.6623 213.446 96.335 217.446 96.6997 221.412C97.4251 227.207 92.2219 231.264 85.4424 229.294C78.6628 227.323 76.4866 219.084 79.0032 213.173C81.5198 207.262 86.9648 205.292 90.7441 207.8C90.7441 207.737 96.1355 206.528 97.667 209.591Z" fill="#FC4F8B"/>
<path d="M88.8546 232.231C87.464 232.224 86.082 232.012 84.7527 231.604C83.0636 231.097 81.5026 230.234 80.1742 229.074C78.8459 227.914 77.7807 226.484 77.0506 224.878C76.1289 222.899 75.6289 220.749 75.5826 218.566C75.5364 216.383 75.945 214.214 76.7821 212.197C77.4337 210.458 78.4585 208.883 79.7846 207.583C81.1107 206.284 82.7056 205.291 84.4571 204.674C86.6889 203.964 89.1095 204.157 91.2007 205.211C93.2964 204.934 97.9537 204.772 99.8255 208.507C100.092 209.043 100.149 209.659 99.9864 210.236C99.0798 213.787 98.7771 217.465 99.0908 221.117C99.3293 222.717 99.1578 224.352 98.5923 225.868C98.0269 227.385 97.0861 228.733 95.8579 229.786C93.8915 231.413 91.4065 232.281 88.8546 232.231ZM87.1977 209.089C86.7452 209.093 86.2955 209.162 85.863 209.295C84.7916 209.705 83.8224 210.344 83.0228 211.167C82.2232 211.99 81.6124 212.977 81.2329 214.06C80.6629 215.453 80.3848 216.948 80.4156 218.453C80.4464 219.958 80.7856 221.441 81.4122 222.81C81.853 223.802 82.5018 224.688 83.3145 225.408C84.1272 226.128 85.0847 226.665 86.1228 226.983C88.7469 227.762 91.1563 227.44 92.7325 226.087C93.35 225.551 93.8191 224.865 94.0952 224.095C94.3712 223.325 94.4446 222.497 94.3086 221.69C93.9261 217.855 94.1679 213.984 95.0249 210.227C93.8075 209.839 92.5084 209.786 91.2637 210.074C90.9491 210.145 90.6235 210.151 90.3064 210.093C89.9894 210.034 89.6874 209.912 89.4187 209.734C88.7584 209.304 87.9855 209.08 87.1977 209.089Z" fill="#001477"/>
<path d="M92.2219 209.653C92.3473 209.519 92.2219 209.582 92.2219 209.582C90.2785 210.71 89.3649 213.048 88.5858 215.116C88.3708 215.752 88.0125 217.06 87.8603 217.713C87.1282 214.915 87.0515 211.985 87.6364 209.152C87.8844 207.915 88.4599 206.768 89.3025 205.829L92.249 209.653H92.2219Z" fill="#001477"/>
<g opacity="0.3">
<path d="M110.904 23.3359C110.009 23.8643 95.1869 50.6602 96.3063 67.8286L76.9258 73.6767C76.9258 73.6767 89.1596 46.5853 94.5331 39.2415C99.9066 31.8977 105.11 25.9331 105.11 25.9331" fill="#001477"/>
</g>
<g opacity="0.3">
<path d="M254.95 82.8024C226.748 87.8266 213.754 100.132 219.682 121.518L203.284 92.5822C203.284 92.5822 219.405 88.1938 219.682 87.2713C219.96 86.3489 236.698 82.883 237.379 82.5068" fill="#001477"/>
</g>
<path d="M81.6572 151.113C85.9673 140.884 82.2709 129.562 73.401 125.825C64.5311 122.087 53.8465 127.349 49.5364 137.577C45.2264 147.806 48.9229 159.127 57.7928 162.865C66.6627 166.602 77.3472 161.341 81.6572 151.113Z" fill="#00046A"/>
<path d="M77.4176 143.028C78.958 139.372 77.8641 135.422 74.9743 134.204C72.0845 132.986 68.4931 134.963 66.9527 138.618C65.4123 142.274 66.5062 146.224 69.396 147.442C72.2858 148.66 75.8772 146.684 77.4176 143.028Z" fill="white"/>
<g opacity="0.2">
<path d="M59.8852 149.27C60.9282 146.795 60.4766 144.242 58.8767 143.568C57.2768 142.894 55.1345 144.354 54.0916 146.829C53.0487 149.304 53.5001 151.857 55.0999 152.531C56.6998 153.205 58.8423 151.745 59.8852 149.27Z" fill="white"/>
</g>
<g opacity="0.7">
<path d="M104.361 175.249C104.713 174.415 102.685 172.764 99.8314 171.561C96.9781 170.359 94.38 170.06 94.0285 170.895C93.6771 171.729 95.7052 173.38 98.5585 174.582C101.412 175.784 104.01 176.083 104.361 175.249Z" fill="white"/>
</g>
<path d="M126.515 218.251L123.255 225.604L163.243 237.318L165.231 230.001L126.515 218.251Z" fill="#E30613"/>
<path d="M122.108 229.472L118.849 236.825L158.836 248.539L160.824 241.222L122.108 229.472Z" fill="#1CA75E"/>
<path d="M30.5346 170.677L25.4121 176.893L60.7964 198.897L64.6744 192.386L30.5346 170.677Z" fill="#FFD500"/>
<path d="M24.5429 180.86L19.4204 187.067L54.8047 209.08L58.6827 202.569L24.5429 180.86Z" fill="#004F9F"/>
<path d="M124.982 499.231C123.791 499.231 122.618 499.178 121.471 499.07C113.814 498.345 107.903 495.112 104.375 489.711C95.204 475.704 102.378 464.098 108.745 458.688C103.864 448.39 96.8412 439.252 88.1467 431.883C77.7042 437.096 65.0404 436.764 52.2425 430.889C40.4476 425.471 29.6738 415.754 23.4316 404.917C14.0817 388.671 16.5538 373.402 29.7457 364.509C16.5986 326.222 21.9721 284.551 46.126 237.183C46.2983 236.845 46.5356 236.543 46.8244 236.296C47.1132 236.049 47.4478 235.861 47.8092 235.744C48.1705 235.626 48.5515 235.581 48.9304 235.61C49.3093 235.64 49.6783 235.744 50.0171 235.916C50.3558 236.088 50.6573 236.326 50.9043 236.615C51.1513 236.903 51.339 237.238 51.4566 237.599C51.5743 237.961 51.6196 238.342 51.59 238.721C51.5605 239.099 51.4567 239.469 51.2844 239.807C27.435 286.584 22.4196 327.449 35.9698 364.741C36.2038 365.38 36.2047 366.081 35.972 366.72C35.7393 367.359 35.288 367.895 34.6981 368.234C17.2969 378.301 24.5332 395.218 28.429 402.025C38.8089 420.071 66.1064 437.902 86.9735 425.955C87.4503 425.682 87.995 425.55 88.5438 425.576C89.0925 425.601 89.6226 425.782 90.0722 426.098C90.6901 426.528 105.297 436.934 114.943 458.411C115.223 459.032 115.275 459.733 115.088 460.389C114.901 461.045 114.488 461.613 113.921 461.993C111.397 463.872 109.292 466.257 107.742 468.996C104.697 474.549 105.181 480.46 109.175 486.559C111.745 490.481 116.044 492.765 121.973 493.329C136.096 494.664 154.706 486.021 160.823 479.708C172.708 467.411 174.257 454.004 165.785 437.517C165.675 437.291 165.591 437.054 165.534 436.809C165.31 435.761 160.16 411.043 179.863 398.514C197.166 387.498 206.006 352.911 201.868 312.457C201.795 311.744 201.989 311.029 202.412 310.45C202.836 309.871 203.459 309.469 204.161 309.323C218.303 306.319 231.897 301.151 244.462 293.999C250.793 290.429 256.897 286.472 262.741 282.151C270.261 276.746 276.031 269.254 279.336 260.603C282.479 252.104 282.408 244.411 279.13 239.503C276.739 235.921 272.718 233.932 267.487 233.735C264.817 233.663 262.158 234.113 259.66 235.061C254.394 236.968 240.548 241.885 225.744 246.148C218.732 248.181 212.31 249.829 206.686 251.047C205.936 251.209 205.152 251.065 204.507 250.649C203.862 250.232 203.409 249.577 203.247 248.826C203.086 248.075 203.229 247.291 203.645 246.646C204.062 246.001 204.718 245.548 205.468 245.387C210.967 244.196 217.245 242.584 224.141 240.587C238.775 236.368 252.468 231.505 257.681 229.616C260.882 228.407 264.291 227.841 267.711 227.95C274.742 228.219 280.5 231.183 283.912 236.288C288.301 242.852 288.596 252.202 284.745 262.618C281.045 272.323 274.581 280.73 266.153 286.799C260.119 291.271 253.811 295.36 247.265 299.041C234.941 306.046 221.668 311.232 207.859 314.436C211.648 356.529 201.967 391.287 182.962 403.395C167.684 413.13 170.585 432.295 171.131 435.224C180.445 453.556 178.386 469.874 164.988 483.72C158.441 490.472 140.323 499.231 124.982 499.231Z" fill="#001477"/>
<path d="M143.548 269.774C162.356 274.126 187.432 281.067 196.388 300.062C199.451 306.788 199.63 314.508 197.982 321.556C196.71 328.721 191.847 334.99 184.727 337.05C172.449 340.328 159.651 336.101 148.725 330.664C145.285 328.873 140.306 326.581 136.778 325.121C129.685 322.165 122.26 320.204 114.836 318.296C109.543 316.908 104.089 315.529 98.7153 314.392C90.0281 312.484 81.0903 311.123 72.439 308.973L79.1646 309.099C94.9179 309.296 110.994 310.084 126.076 315.099C132.592 317.189 138.98 319.662 145.205 322.506C156.561 328.237 169.386 334.596 182.381 331.685C184.735 331.103 186.88 329.873 188.572 328.136C190.264 326.398 191.435 324.221 191.954 321.852C193.246 317.413 193.552 312.746 192.85 308.176C190.629 295.361 178.583 287.784 167.415 283.1C159.282 279.813 150.868 277.269 142.277 275.496C141.906 275.414 141.554 275.26 141.243 275.041C140.932 274.823 140.666 274.546 140.462 274.226C140.258 273.905 140.119 273.547 140.053 273.173C139.987 272.799 139.996 272.415 140.078 272.044C140.16 271.673 140.315 271.322 140.533 271.01C140.751 270.699 141.028 270.434 141.349 270.23C141.669 270.025 142.027 269.886 142.401 269.821C142.776 269.755 143.159 269.763 143.53 269.845L143.548 269.774Z" fill="#001477"/>
<path d="M193.503 315.314C192.267 311.346 189.988 307.782 186.903 304.997C185.798 304.007 184.598 303.128 183.321 302.373C184.802 302.7 186.248 303.171 187.637 303.779C192.103 305.749 195.946 308.902 198.752 312.896L193.503 315.341V315.314Z" fill="#001477"/>
<path d="M186.393 332.742C184.817 327.441 181.199 322.891 177.186 319.103C176.577 318.538 175.923 318.01 175.288 317.455C176.854 318.117 178.382 318.868 179.864 319.703C184.494 322.39 188.865 325.909 191.74 330.521L186.366 332.742H186.393Z" fill="#001477"/>
<path d="M88.416 431.346C87.8452 431.346 87.2872 431.178 86.812 430.862C86.3367 430.546 85.9656 430.096 85.7454 429.569C85.5252 429.043 85.4657 428.463 85.5744 427.902C85.6831 427.342 85.9552 426.826 86.3563 426.42C100.032 412.557 119.027 411.195 142.429 410.918C165.365 410.613 177.168 400.421 177.285 400.314C177.864 399.842 178.603 399.612 179.348 399.671C180.092 399.731 180.785 400.075 181.282 400.632C181.779 401.189 182.043 401.917 182.017 402.663C181.992 403.41 181.679 404.118 181.145 404.64C180.607 405.114 167.756 416.372 142.509 416.703C119.708 417.008 102.638 418.172 90.4761 430.486C90.2068 430.759 89.886 430.975 89.5324 431.123C89.1788 431.27 88.7992 431.346 88.416 431.346Z" fill="#001477"/>
<path d="M33.803 362.87C33.5252 362.789 33.2303 362.789 32.9525 362.87H33.0058H33.1226L33.5971 362.744C45.777 359.323 58.8974 361.535 68.2025 370.437L63.7246 370.993C77.9823 349.499 108.745 336.226 133.123 348.075C140.106 352.356 145.221 359.109 147.453 366.989C143.87 363.147 140.512 359.753 136.329 357.013C133.568 355.23 130.673 353.664 127.669 352.329C114.101 346.113 97.3537 350.538 85.1469 358.123C78.5258 362.167 72.8728 367.615 68.5874 374.082C68.1717 374.733 67.5152 375.193 66.7617 375.36C66.0081 375.528 65.2189 375.391 64.5664 374.978C58.1182 369.076 50.8372 366.416 42.0605 367.115C39.4038 367.354 36.7747 367.837 34.2062 368.557C33.6741 368.674 33.1256 368.699 32.5852 368.628C31.8322 368.477 31.1699 368.034 30.7441 367.395C30.3184 366.756 30.1639 365.974 30.3147 365.221C30.4655 364.468 30.9093 363.805 31.5483 363.38C32.1874 362.954 32.9696 362.799 33.7226 362.95L33.803 362.87Z" fill="#001477"/>
<path d="M68.4446 370.617C71.1469 375.408 73.0808 380.594 74.1763 385.985C71.4085 381.595 67.9696 377.667 63.9846 374.342C63.6593 374.062 63.399 373.715 63.222 373.324C63.045 372.933 62.9553 372.508 62.9596 372.079C62.9639 371.65 63.0621 371.227 63.2469 370.84C63.4317 370.452 63.6988 370.11 64.0297 369.837C64.3605 369.564 64.747 369.366 65.1623 369.258C65.5775 369.149 66.0113 369.133 66.4335 369.21C66.8557 369.287 67.2559 369.455 67.6063 369.702C67.9568 369.95 68.2492 370.271 68.4626 370.644L68.4446 370.617Z" fill="#001477"/>
<path d="M58.5298 397.574C56.3999 396.452 53.9436 396.116 51.5908 396.624C49.2379 397.131 47.1388 398.45 45.6606 400.35C44.6624 401.493 43.9031 402.824 43.4278 404.266C42.9525 405.707 42.7706 407.229 42.893 408.742C43.7885 416.802 48.759 419.041 54.3117 420.33C59.8643 421.62 65.8111 419.121 65.8917 413.649C65.9544 409.315 65.8199 401.425 58.5298 397.574Z" fill="#001477"/>
<path d="M52.825 379.447C54.8042 382.501 54.4997 386.218 52.1353 387.749C49.771 389.281 46.2511 388.045 44.2719 384.991C42.2926 381.937 43.0987 378.722 45.4631 377.217C47.8274 375.713 50.8457 376.384 52.825 379.447Z" fill="#001477"/>
<path d="M39.3034 394.761C41.8192 393.533 42.6416 390.044 41.14 386.968C39.6385 383.892 36.3818 382.394 33.866 383.622C31.3502 384.85 30.5282 388.339 32.0298 391.415C33.5313 394.491 36.7877 395.989 39.3034 394.761Z" fill="#001477"/>
<path d="M32.741 407.883C34.9768 406.792 35.6971 403.669 34.3497 400.909C33.0022 398.149 30.0972 396.796 27.8615 397.888C25.6257 398.979 24.9058 402.101 26.2533 404.862C27.6007 407.622 30.5053 408.975 32.741 407.883Z" fill="#001477"/>
<path d="M110.591 457.246C118.628 452.928 127.985 451.754 136.84 453.951C128.512 453.713 120.386 456.546 114.012 461.912C110.698 464.868 106.776 459.53 110.591 457.246Z" fill="#001477"/>
<path d="M122.905 498.148C116.027 491.933 112.793 481.66 116.322 472.928C115.784 476.48 116.21 480.11 117.556 483.441C118.901 486.771 121.117 489.679 123.97 491.861C124.678 492.441 125.436 492.956 126.236 493.401L122.905 498.148Z" fill="#001477"/>
<path d="M140.109 494.699C132.944 488.036 129.102 477.11 135.066 468.468C131.735 476.528 135.568 484.544 142.348 489.263C142.634 489.451 143.243 489.899 143.53 490.024L140.109 494.699Z" fill="#001477"/>
<path d="M201.913 312.896C200.176 302.696 197.23 292.738 193.137 283.235C197.555 289.775 201.366 296.705 204.52 303.941C205.585 306.385 206.588 308.795 207.529 311.392C207.667 311.774 207.723 312.181 207.695 312.586C207.666 312.992 207.553 313.386 207.362 313.745C207.172 314.104 206.908 314.42 206.589 314.671C206.269 314.922 205.901 315.103 205.507 315.203C205.113 315.303 204.702 315.319 204.302 315.251C203.901 315.182 203.519 315.031 203.181 314.806C202.842 314.581 202.555 314.288 202.337 313.945C202.118 313.602 201.974 313.218 201.913 312.816V312.896Z" fill="#001477"/>
<path d="M252.03 253.438C252.4 252.493 253.055 251.687 253.904 251.132C254.753 250.577 255.754 250.3 256.768 250.34C259.651 250.411 263.986 251.074 265.929 254.146C268.992 258.973 268.267 269.371 265.535 271.681C262.804 273.992 255.236 268.995 253.06 262.833C251.564 258.561 251.179 255.785 252.03 253.438Z" fill="#001477"/>
<path d="M265.483 244.124C267.14 241.899 266.953 238.955 265.065 237.549C263.177 236.142 260.302 236.806 258.645 239.031C256.987 241.257 257.174 244.201 259.062 245.608C260.951 247.014 263.825 246.35 265.483 244.124Z" fill="#001477"/>
<path d="M276.648 250.26C278.921 248.668 279.553 245.649 278.06 243.519C276.567 241.388 273.514 240.952 271.241 242.544C268.969 244.136 268.337 247.154 269.83 249.285C271.323 251.416 274.376 251.852 276.648 250.26Z" fill="#001477"/>
<path d="M278.554 264.956C280.656 263.483 281.392 260.906 280.197 259.201C279.002 257.495 276.329 257.307 274.226 258.78C272.124 260.253 271.389 262.83 272.584 264.535C273.779 266.241 276.452 266.429 278.554 264.956Z" fill="#001477"/>
<path d="M212.06 416.578C197.364 416.578 185.193 411.205 179.676 401.9C179.3 401.26 179.183 400.501 179.35 399.778C179.517 399.055 179.954 398.423 180.571 398.013C185.828 394.52 190.351 388.564 194.399 379.805C194.697 379.166 195.218 378.656 195.864 378.373C196.51 378.089 197.238 378.051 197.91 378.265C204.394 380.325 209.964 376.196 211.917 371.262C213.869 366.327 212.634 359.44 203.284 354.989C202.737 354.729 202.285 354.304 201.993 353.773C201.7 353.243 201.582 352.635 201.653 352.033C203.021 340.636 203.24 329.129 202.307 317.688C202.247 316.936 202.481 316.19 202.961 315.609C203.441 315.027 204.128 314.655 204.878 314.571C226.273 312.207 243.325 317.527 254.189 329.93C265.545 342.916 268.742 362.386 263.198 384.749C258.595 403.816 237.934 413.408 221.625 415.853C218.459 416.332 215.262 416.575 212.06 416.578ZM186.151 401.094C192.42 408.858 205.612 412.387 220.774 410.13C236.438 407.792 253.911 398.613 257.565 383.37C262.652 362.879 259.902 345.263 249.827 333.746C240.728 323.348 226.408 318.646 208.29 320.07C208.954 330.285 208.735 340.539 207.636 350.717C218.858 356.986 219.941 366.694 217.3 373.393C214.658 380.092 207.376 385.86 198.626 384.382C194.964 391.779 190.853 397.278 186.151 401.094Z" fill="#001477"/>
<g opacity="0.3">
<path d="M61.0107 245.629C61.0107 245.629 99.1537 297.17 164.728 278.837C164.728 278.837 207.376 273.535 208.343 247.492C208.343 247.492 183.975 273.858 148.017 272.622C112.059 271.386 61.0107 245.629 61.0107 245.629Z" fill="#001477"/>
</g>
<g opacity="0.3">
<path d="M189.75 294.796C189.75 294.796 204.563 330.96 165.391 317.455C126.218 303.949 101.58 301.549 74.9365 309.341C74.9365 309.341 119.617 322.004 132.558 331.632C145.499 341.259 184.171 355.741 194.103 326.455C204.035 297.17 189.75 294.796 189.75 294.796Z" fill="#001477"/>
</g>
<g opacity="0.3">
<path d="M282.059 261.597C278.549 270.772 272.432 278.719 264.461 284.462C258.526 288.858 252.322 292.881 245.887 296.507C236.659 301.724 226.894 305.928 216.762 309.045C209.356 309.744 204.224 310.147 204.224 310.147L200.212 294.797C278.083 287.587 281.898 238.473 281.898 238.473C285.292 244.017 285.543 252.167 282.059 261.597Z" fill="#001477"/>
</g>
<g opacity="0.3">
<path d="M204.689 312.144C209.032 354.613 199.539 389.361 181.359 400.941C163.178 412.521 168.328 436.173 168.328 436.173C179.272 457.408 172.519 471.719 162.865 481.705C153.21 491.691 117.978 505.348 106.721 488.126C104.774 485.302 103.5 482.07 102.995 478.678C103.784 479.06 104.457 479.644 104.947 480.37C111.709 490.464 118.524 488.995 134.296 482.609C150.067 476.224 156.426 459.02 149.968 435.072C143.511 411.124 133.785 413.685 133.785 413.685C133.785 413.685 111.226 417.518 96.5827 422.641C91.3256 424.495 88.1373 427.038 86.2118 429.564C68.515 437.956 46.6091 428.104 33.1484 413.3C55.0634 429.555 73.5482 420.062 91.7554 404.944C110.742 389.173 141.783 389.263 141.783 389.263C206.265 363.121 200.175 294.779 200.175 294.779L207.841 311.427C206.838 311.696 205.781 311.92 204.689 312.144Z" fill="#001477"/>
</g>
<g opacity="0.3">
<path d="M260.385 384.05C252.979 414.742 196.037 423.94 182.174 400.431C188.443 396.266 193.154 389.397 197.032 381.023C199.541 381.834 202.23 381.91 204.781 381.244C207.333 380.577 209.64 379.196 211.432 377.262C202.566 401.344 261.344 405.921 259.275 343.839C263.69 354.863 264.2 368.664 260.385 384.05Z" fill="#001477"/>
</g>
<g opacity="0.3">
<path d="M232.66 319.694C232.66 319.694 205.55 329.402 213.163 359.78C210.986 356.514 207.918 353.94 204.323 352.365C205.703 340.773 205.922 329.072 204.977 317.437C215.581 316.264 224.841 317.123 232.66 319.694Z" fill="#001477"/>
</g>
</svg>
