<svg width="317" height="533" viewBox="0 0 317 533" fill="none" xmlns="http://www.w3.org/2000/svg">
<g opacity="0.2">
<path d="M166.595 532.423C242.034 532.423 303.189 522.576 303.189 510.428C303.189 498.28 242.034 488.432 166.595 488.432C91.1557 488.432 30.0002 498.28 30.0002 510.428C30.0002 522.576 91.1557 532.423 166.595 532.423Z" fill="#001477"/>
</g>
<path d="M302.633 281.597C299.122 290.772 293.005 298.719 285.035 304.461C279.1 308.858 272.896 312.881 266.46 316.507C257.233 321.724 247.468 325.928 237.336 329.045C234.407 329.941 231.452 330.747 228.461 331.427C227.422 331.678 226.365 331.902 225.308 332.126C229.652 374.595 220.159 409.343 201.978 420.923C183.798 432.503 188.948 456.155 188.948 456.155C199.892 477.39 193.139 491.701 183.485 501.687C173.83 511.673 138.598 525.33 127.341 508.108C125.394 505.284 124.12 502.052 123.615 498.66C122.047 486.865 132.884 479.557 132.884 479.557C123.481 458.565 108.999 448.436 108.999 448.436C108.283 448.839 107.557 449.215 106.831 449.564C89.1346 457.956 67.2286 448.104 53.768 433.3C39.6088 417.735 34.746 396.724 53.813 385.691C39.0896 345.157 46.8093 302.5 69.2706 258.455L226.687 268.181C232.768 266.865 239.226 265.154 245.558 263.336C259.977 259.172 273.491 254.38 279.285 252.303C282.144 251.224 285.187 250.715 288.241 250.807C294.859 251.067 299.749 253.861 302.57 258.455C305.866 264.017 306.117 272.167 302.633 281.597Z" fill="#FAA327"/>
<g opacity="0.7">
<path d="M95.5478 391.826C116.737 368.845 139.64 365.23 164.257 380.98C164.257 380.98 147.51 360.525 126.204 367.851C104.898 375.177 94.1417 379.708 91.0161 386.801" fill="white"/>
</g>
<g opacity="0.7">
<path d="M95.5477 452.564C60.6737 455.305 20.3183 405.098 53.8042 385.709C39.0808 345.175 46.801 302.518 69.2622 258.473L74.6357 258.805C52.2999 302.688 44.6607 345.273 59.3483 385.709C27.6177 404.068 62.1693 450.092 95.5477 452.564Z" fill="white"/>
</g>
<g opacity="0.7">
<path d="M290.239 250.986C288.39 251.22 286.573 251.659 284.821 252.293C279.035 254.398 265.521 259.162 251.102 263.327C244.833 265.118 238.313 266.856 232.232 268.172L227.889 267.903C233.611 266.632 239.656 265.029 245.549 263.327C259.968 259.162 273.483 254.371 279.277 252.293C282.136 251.214 285.179 250.706 288.233 250.798C288.896 250.851 289.585 250.905 290.239 250.986Z" fill="white"/>
</g>
<g opacity="0.7">
<path d="M227.888 267.931L226.679 268.199L74.6448 258.805C74.6985 258.697 74.7522 258.581 74.8149 258.473L227.888 267.931Z" fill="white"/>
</g>
<path d="M169.783 294.073C155.776 303.924 149.955 318.737 154.898 340.025C154.898 340.025 178.067 351.471 178.506 351.668C178.945 351.865 211.463 364.027 213.711 343.115C215.959 322.203 213.711 318.182 213.711 318.182C213.711 318.182 197.447 298.3 169.783 294.073Z" fill="#FFF3E9"/>
<path d="M90.1472 387.831C113.611 396.25 124.135 413.382 119.397 440.787C119.397 440.787 109.501 447.558 103.939 450.782C98.3775 454.006 76.5342 455.179 59.3838 438.781C42.2333 422.383 40.6573 408.752 41.6693 401.498C42.6813 394.244 48.9327 382.753 63.5844 384.07C78.2362 385.387 87.7652 391.181 87.7652 391.181L90.1472 387.831Z" fill="#FFF3E9"/>
<path d="M129.866 471.013C129.866 471.013 150.617 448.812 188.133 456.773C188.133 456.773 199.955 477.22 191.088 491.253C182.222 505.287 154.593 523.011 137.219 515.774C119.845 508.538 119.845 488.504 132.875 478.16L129.866 471.013Z" fill="#FFF3E9"/>
<path d="M302.634 281.597C299.123 290.772 293.006 298.719 285.036 304.461C279.101 308.858 272.897 312.881 266.461 316.507L264.16 315.737C243.176 308.716 243.176 266.354 243.176 266.354C243.176 266.354 244.072 265.172 245.567 263.354C259.986 259.19 273.501 254.398 279.295 252.321C282.154 251.241 285.197 250.733 288.251 250.825C302.786 251.398 309.011 264.339 302.634 281.597Z" fill="#FFF3E9"/>
<path d="M104.064 330.281C104.064 330.281 92.4662 357.148 102.273 376.851C125.612 363.704 146.398 361.51 162.599 378.911C177.52 379.645 189.404 373.537 195.879 355.303C173.194 355.285 135.992 328.23 104.064 330.281Z" fill="#FFF3E9"/>
<path d="M195.862 289.308C195.862 289.308 196.82 292.81 196.946 303.189L174.986 294.072L195.862 289.308Z" fill="white"/>
<path d="M280.19 404.05C272.864 434.742 216.478 443.94 202.749 420.431C208.946 416.266 213.622 409.397 217.464 401.023C219.95 401.832 222.617 401.907 225.146 401.24C227.674 400.573 229.957 399.192 231.721 397.262C233.962 394.994 235.378 392.04 235.742 388.872C236.105 385.704 235.396 382.506 233.728 379.789C231.551 376.523 228.483 373.949 224.888 372.373C226.268 360.782 226.487 349.081 225.542 337.446C236.154 336.255 245.415 337.114 253.233 339.685C265.771 343.795 274.539 352.294 279.098 363.821C283.477 374.863 283.97 388.664 280.19 404.05Z" fill="#FAA327"/>
<path d="M63.6745 133.692C63.6745 133.692 72.62 70.7567 105.954 32.2243C107.876 30.0221 110.579 28.6537 113.491 28.4085C116.404 28.1633 119.298 29.0604 121.561 30.9102C129.743 37.5339 141.578 52.01 149.727 82.9879" fill="#FAA327"/>
<g opacity="0.3">
<path d="M149.727 82.9879L63.6744 133.692C63.6744 133.692 63.8462 132.55 64.2002 130.444L142.89 84.076C134.741 53.098 122.914 38.6206 114.732 31.9969C113.167 30.7272 111.292 29.8986 109.299 29.5969C111.25 28.6069 113.445 28.2043 115.62 28.4377C117.795 28.671 119.855 29.5304 121.551 30.9116C129.734 37.5353 141.578 52.0099 149.727 82.9879Z" fill="#001477"/>
</g>
<g opacity="0.7">
<path d="M122.612 31.7583C120.422 30.8138 117.987 30.592 115.661 31.1252C113.336 31.6583 111.241 32.9186 109.681 34.7233C82.1115 66.6251 71.1985 115.265 68.2763 131.092L63.7322 133.765C63.7322 133.765 72.6779 70.8289 106.02 32.2951C107.938 30.0925 110.639 28.7236 113.549 28.4789C116.459 28.2341 119.35 29.1326 121.609 30.9839C121.895 31.1833 122.23 31.4655 122.612 31.7583Z" fill="white"/>
</g>
<path d="M199.986 93.9873C199.986 93.9873 233.063 69.679 272.488 69.9881C275.168 69.9939 277.75 71.0013 279.726 72.8125C281.702 74.6237 282.93 77.108 283.169 79.778C285.948 116.214 275.358 152.414 253.379 181.607" fill="#FAA327"/>
<g opacity="0.3">
<path d="M283.168 79.7688C285.947 116.21 275.358 152.415 253.381 181.616L199.996 93.9855C199.996 93.9855 200.953 93.2799 202.754 92.1137L247.582 165.689C267.993 138.565 278.636 105.338 277.783 71.4032C279.293 72.2538 280.574 73.4605 281.513 74.9184C282.451 76.3763 283.019 78.0413 283.168 79.7688Z" fill="#001477"/>
</g>
<g opacity="0.7">
<path d="M282.689 77.3879C281.679 76.2623 280.445 75.3607 279.066 74.7415C277.686 74.1222 276.193 73.799 274.681 73.7926C236.416 73.5347 204.124 96.3941 202.269 97.7321L199.996 93.9859C199.996 93.9859 233.063 69.6791 272.497 69.9868C274.758 69.9912 276.961 70.7089 278.791 72.0377C280.621 73.3665 281.985 75.2388 282.689 77.3879Z" fill="white"/>
</g>
<path d="M87.3084 108.457C87.3084 108.457 94.0953 69.1615 112.184 47.7193C112.184 47.7193 125.541 56.0858 129.058 86.2775" fill="#FFF3E9"/>
<path d="M215.053 103.524C215.053 103.524 236.566 87.0141 265.986 85.0885C266.57 85.0521 267.154 85.1391 267.702 85.3438C268.25 85.5484 268.749 85.8662 269.166 86.2763C269.583 86.6865 269.909 87.1799 270.122 87.7244C270.336 88.2688 270.432 88.8522 270.405 89.4364C269.92 101.375 266.834 134.35 248.042 157.301" fill="#FFF3E9"/>
<path d="M254.797 190.513C256.913 208.767 255.617 224.726 251.379 238.214C236.466 285.93 184.987 302.875 118.611 282.569C51.3672 262.91 23.62 236.602 32.2128 195.55C34.1564 186.281 37.9492 176.264 43.5574 165.405C47.7532 157.388 52.3916 149.611 57.4515 142.11C79.9711 110.159 104.78 89.7966 139.076 84.1478C158.124 81.084 177.653 83.7179 195.209 91.7187C234.416 109.411 247.581 141.758 254.797 190.513Z" fill="#FAA327"/>
<g opacity="0.7">
<path d="M230.552 119.43C222.537 110.213 212.37 102.681 199.313 96.7696C181.757 88.7688 162.229 86.1349 143.18 89.1987C108.886 94.8564 84.0758 115.21 61.5576 147.169C56.4928 154.678 51.8525 162.465 47.6586 170.493C42.0518 181.361 38.2846 191.365 36.313 200.629C32.7817 217.415 35.3316 231.727 44.1443 244.136C32.0753 230.64 28.1942 214.69 32.2153 195.568C34.159 186.299 37.9517 176.282 43.5599 165.423C47.7558 157.406 52.3941 149.629 57.4541 142.127C79.9737 110.177 104.782 89.8144 139.078 84.1656C158.126 81.1018 177.655 83.7357 195.211 91.7365C210.614 98.6619 221.991 107.86 230.552 119.43Z" fill="white"/>
</g>
<path d="M251.378 238.205C236.464 285.922 184.985 302.866 118.609 282.561C51.3657 262.901 23.6185 236.593 32.2113 195.541C35.5004 194.556 47.2185 186.415 52.9123 196.663C60.1076 209.565 74.634 211.778 86.781 204.341C98.928 196.903 111.596 193.762 126.019 196.354C140.443 198.947 155.766 205.885 164.172 220.58C172.578 235.276 181.314 240.823 193.045 236.752C204.775 232.681 238.024 223.472 251.378 238.205Z" fill="#FFF3E9"/>
<g opacity="0.3">
<path d="M254.797 190.513C256.913 208.767 255.617 224.726 251.379 238.214C236.465 285.93 184.986 302.875 118.61 282.569C85.8922 273.004 62.5177 261.861 48.1397 248.216C62.0114 256.4 80.5583 263.478 103.894 269.758C169.991 288.367 221.544 271.891 236.855 226.669C241.17 213.894 242.639 198.796 240.685 181.56C233.904 135.537 221.039 105.074 182.072 88.6675C177.215 86.6236 172.205 84.9619 167.089 83.6975C176.815 84.958 186.301 87.6502 195.239 91.6865C234.416 109.41 247.581 141.758 254.797 190.513Z" fill="#001477"/>
</g>
<path d="M189.488 292.418C168.518 295.756 144.071 293.371 117.771 285.333C47.8435 264.876 20.5803 236.995 29.4205 194.934C31.4234 185.41 35.2207 175.311 41.0305 164.066C45.2745 155.955 49.9686 148.087 55.0905 140.499C80.1529 104.925 105.906 86.6791 138.645 81.278C158.259 78.1111 178.372 80.8236 196.446 89.0732C215.726 97.7938 229.791 110.555 239.544 128.074C247.979 143.29 253.572 162.424 257.678 190.1C257.687 190.129 257.691 190.159 257.692 190.189C259.806 208.434 258.616 224.883 254.156 239.087C246.558 263.367 229.634 280.506 205.212 288.592C200.084 290.297 194.826 291.577 189.488 292.418ZM140.085 86.9072L139.563 86.9902C108.485 92.1178 83.9024 109.624 59.8458 143.769C54.8565 151.16 50.2845 158.823 46.1512 166.725C40.6508 177.349 36.9194 187.238 35.061 196.131C30.9575 215.646 35.5242 231.633 49 245.023C62.6147 258.544 85.6095 269.92 119.409 279.785C151.467 289.592 180.49 290.749 203.372 283.126C225.945 275.616 241.594 259.813 248.611 237.349C252.831 223.981 253.964 208.303 251.928 190.897C245.022 144.314 232.929 111.923 194.048 94.3429C177.176 86.6244 158.406 84.039 140.076 86.9085L140.085 86.9072Z" fill="#001477"/>
<path d="M64.1308 136.558C63.8454 136.602 63.5548 136.602 63.2693 136.559C62.5167 136.451 61.8374 136.05 61.3778 135.444C60.9182 134.839 60.7152 134.076 60.8134 133.322C61.1873 130.715 70.2608 69.0917 103.771 30.3588C106.178 27.5782 109.575 25.8481 113.24 25.5377C116.904 25.2273 120.545 26.361 123.385 28.6972C132.109 35.7607 144.237 50.7704 152.527 82.2883C152.624 82.6557 152.648 83.0387 152.598 83.4154C152.547 83.7921 152.422 84.1551 152.231 84.4836C152.04 84.8122 151.786 85.0998 151.484 85.3302C151.182 85.5605 150.837 85.729 150.469 85.8261C150.101 85.9235 149.717 85.9473 149.34 85.8961C148.963 85.8448 148.599 85.7196 148.271 85.5276C147.942 85.3356 147.654 85.0806 147.424 84.7772C147.194 84.4738 147.026 84.1279 146.93 83.7595C139.039 53.7832 127.788 39.7221 119.739 33.1951C118.067 31.8083 115.92 31.13 113.755 31.3051C111.59 31.4801 109.58 32.4947 108.153 34.1322C75.7684 71.5614 66.6369 133.502 66.5511 134.16C66.4521 134.763 66.165 135.321 65.7302 135.751C65.2955 136.182 64.7356 136.464 64.1308 136.558Z" fill="#001477"/>
<path d="M87.6885 110.844C87.4262 110.885 87.1593 110.882 86.8982 110.834C86.5857 110.781 86.2868 110.666 86.0187 110.497C85.7506 110.328 85.5182 110.107 85.3354 109.848C85.1527 109.589 85.023 109.297 84.9535 108.987C84.8841 108.678 84.8763 108.358 84.9308 108.046C85.2151 106.413 92.0374 67.8564 110.34 46.1624C110.712 45.7155 111.234 45.4187 111.808 45.3273C112.382 45.2359 112.97 45.3561 113.463 45.6655C114.046 46.0261 127.844 55.0025 131.451 85.987C131.491 86.3019 131.468 86.6215 131.383 86.9272C131.297 87.233 131.152 87.5188 130.955 87.7679C130.759 88.0169 130.514 88.2243 130.237 88.378C129.959 88.5317 129.654 88.6286 129.338 88.663C129.024 88.7002 128.705 88.6751 128.4 88.589C128.095 88.5029 127.81 88.3575 127.562 88.1612C127.313 87.9649 127.106 87.7216 126.951 87.445C126.797 87.1685 126.699 86.8643 126.662 86.5497C124.01 64.1915 116.019 54.3815 112.541 51.0992C96.1698 72.1683 89.7526 108.484 89.6851 108.858C89.6015 109.356 89.364 109.815 89.0059 110.172C88.6479 110.528 88.187 110.763 87.6885 110.844Z" fill="#001477"/>
<path d="M253.835 184.473C253.451 184.534 253.058 184.515 252.681 184.419C252.304 184.324 251.951 184.152 251.642 183.915C251.338 183.687 251.081 183.402 250.887 183.075C250.693 182.748 250.566 182.386 250.512 182.01C250.458 181.633 250.479 181.25 250.573 180.882C250.667 180.513 250.833 180.167 251.061 179.863C272.547 151.198 282.925 115.72 280.273 79.994C280.108 78.0399 279.213 76.2199 277.765 74.8971C276.317 73.5743 274.424 72.8461 272.463 72.8577C234.507 72.605 202.02 96.0577 201.696 96.2998C201.389 96.5255 201.042 96.6885 200.672 96.7792C200.303 96.87 199.919 96.8868 199.543 96.8286C199.167 96.7704 198.807 96.6384 198.482 96.4402C198.157 96.2421 197.875 95.9816 197.651 95.6739C197.197 95.0558 197.007 94.2828 197.123 93.5246C197.238 92.7665 197.65 92.0853 198.268 91.6308C199.657 90.6118 232.585 66.7987 272.502 67.0657C275.91 67.0603 279.195 68.3374 281.704 70.6432C284.214 72.949 285.763 76.1146 286.045 79.5106C288.796 116.645 278.015 153.521 255.693 183.325C255.248 183.936 254.581 184.348 253.835 184.473Z" fill="#001477"/>
<path d="M248.422 159.689C248.086 159.74 247.744 159.72 247.417 159.63C247.09 159.54 246.786 159.382 246.525 159.165C246.279 158.965 246.076 158.718 245.927 158.439C245.777 158.16 245.683 157.855 245.652 157.54C245.62 157.225 245.651 156.907 245.742 156.603C245.834 156.3 245.984 156.018 246.185 155.773C264.332 133.614 267.486 101.926 268.004 89.3376C268.014 89.0863 267.971 88.8356 267.877 88.6021C267.784 88.3685 267.642 88.1573 267.462 87.9821C267.291 87.8117 267.085 87.6798 266.859 87.5954C266.633 87.5109 266.391 87.4758 266.15 87.4925C237.789 89.3492 216.737 105.278 216.527 105.438C216.275 105.631 215.988 105.773 215.682 105.854C215.376 105.936 215.057 105.957 214.742 105.915C214.428 105.873 214.126 105.77 213.852 105.611C213.578 105.451 213.337 105.24 213.145 104.988C212.757 104.48 212.586 103.84 212.669 103.207C212.752 102.574 213.082 101.999 213.587 101.608C214.493 100.919 236.023 84.6335 265.837 82.6726C266.752 82.6161 267.669 82.7519 268.529 83.0711C269.389 83.3903 270.173 83.8858 270.829 84.526C271.493 85.1746 272.013 85.9553 272.357 86.8175C272.7 87.6798 272.859 88.6045 272.823 89.5319C272.293 102.612 268.984 135.549 249.917 158.825C249.543 159.289 249.01 159.597 248.422 159.689Z" fill="#001477"/>
<path d="M186.751 164.389C193.003 163.657 199.331 163.907 205.505 165.132C208.247 165.665 209.419 164.935 209.006 162.969C208.752 161.86 208.188 160.846 207.38 160.045C202.225 154.78 196.93 150.626 191.059 150.944C188.796 151.108 186.627 151.915 184.809 153.272C175.742 159.775 179.8 165.786 186.751 164.389Z" fill="white"/>
<path d="M84.5103 131.727C88.4071 124.759 106.08 120.414 108.033 134.168C108.131 134.81 108.067 135.466 107.845 136.076C107.624 136.686 107.252 137.231 106.765 137.66C106.278 138.089 105.691 138.388 105.057 138.531C104.424 138.673 103.765 138.654 103.141 138.475C97.6053 136.799 91.9286 135.633 86.1811 134.989C85.8189 134.952 85.472 134.824 85.1715 134.619C84.871 134.413 84.6263 134.136 84.4603 133.812C84.2943 133.488 84.2121 133.127 84.2208 132.763C84.2295 132.399 84.329 132.043 84.5103 131.727Z" fill="white"/>
<path d="M124.914 239.443C122.075 239.938 119.153 239.482 116.6 238.145C109.886 234.48 107.737 222.969 108.037 221.208C108.127 220.701 108.37 220.234 108.734 219.869C109.097 219.505 109.564 219.261 110.07 219.17L110.826 223.92C111.351 223.843 111.833 223.59 112.195 223.203C112.557 222.816 112.777 222.317 112.818 221.789C112.838 223.055 114.69 231.612 118.922 233.931C120.234 234.547 121.673 234.845 123.122 234.801C124.571 234.756 125.989 234.37 127.26 233.674C128.458 233.107 129.497 232.255 130.286 231.191C131.075 230.127 131.59 228.886 131.785 227.576L136.568 228.166C136.287 230.26 135.49 232.253 134.249 233.963C133.008 235.674 131.362 237.05 129.458 237.967C128.031 238.697 126.497 239.195 124.914 239.443Z" fill="#001477"/>
<path d="M134.178 227.848C133.214 235.637 123.65 239.245 117.76 236.029C111.871 232.813 110.089 221.616 110.451 221.558L120.614 219.94C120.614 219.94 126.425 224.656 126.222 225.205C126.019 225.755 134.178 227.848 134.178 227.848Z" fill="#001477"/>
<path d="M137.429 200.642C133.986 196.102 122.384 192.888 116.599 195.115C116.137 195.301 115.747 195.631 115.488 196.056C115.229 196.482 115.114 196.979 115.161 197.475C115.351 199.694 116.441 203.864 121.43 207.632C122.385 208.361 123.478 208.89 124.642 209.187C125.807 209.485 127.019 209.545 128.207 209.364C131.729 208.915 134.962 207.187 137.292 204.509C137.744 203.972 138.003 203.3 138.028 202.599C138.053 201.898 137.843 201.209 137.429 200.642Z" fill="#001477"/>
<path d="M104.672 208.095C103.45 212.098 103.177 216.876 108.077 218.091C111.84 218.943 116.638 218.778 120.07 216.808C120.357 216.607 120.686 216.474 121.032 216.417C121.378 216.361 121.732 216.383 122.068 216.482C122.404 216.581 122.714 216.754 122.974 216.988C123.234 217.223 123.438 217.513 123.571 217.838C124.678 219.897 126.139 221.746 127.887 223.299C131.315 226.381 136.878 226.747 140.401 223.529C141.323 222.672 142.06 221.636 142.568 220.484C143.075 219.332 143.342 218.088 143.352 216.829C143.363 216.714 143.414 216.606 143.496 216.525C143.578 216.444 143.686 216.394 143.801 216.384C143.917 216.374 144.032 216.405 144.126 216.472C144.221 216.539 144.289 216.636 144.319 216.748C145.844 223.198 140.63 229.297 134.172 229.799C127.611 230.571 121.311 225.915 119.183 219.842C119.183 219.842 122.71 220.858 122.683 220.863C117.81 223.806 111.791 224.673 106.424 222.235C99.9628 219.301 99.9394 212.603 103.814 207.66C103.885 207.573 103.984 207.513 104.093 207.49C104.203 207.467 104.318 207.482 104.418 207.533C104.518 207.584 104.598 207.667 104.644 207.769C104.69 207.871 104.7 207.986 104.672 208.095Z" fill="#001477"/>
<path d="M121.76 221.218C121.524 221.258 121.283 221.262 121.046 221.232C120.413 221.142 119.842 220.806 119.457 220.296C119.071 219.787 118.903 219.145 118.989 218.512C119.724 213.154 120.845 209.375 122.538 206.621C122.703 206.35 122.92 206.114 123.176 205.927C123.432 205.74 123.723 205.606 124.031 205.532C124.34 205.457 124.66 205.444 124.973 205.494C125.286 205.544 125.586 205.655 125.856 205.821C126.403 206.154 126.795 206.69 126.947 207.312C127.098 207.934 126.997 208.591 126.666 209.138C125.363 211.268 124.416 214.547 123.781 219.164C123.711 219.679 123.476 220.157 123.111 220.527C122.747 220.897 122.273 221.14 121.76 221.218Z" fill="#001477"/>
<path d="M130.029 235.056C129.643 239.021 129.948 243.022 130.932 246.883C132.559 252.491 128.058 257.315 121.053 256.435C114.048 255.555 110.604 247.76 112.16 241.527C113.716 235.294 118.784 232.493 122.911 234.375C122.901 234.313 128.035 232.272 130.029 235.056Z" fill="#FC4F8B"/>
<path d="M124.884 258.8C123.51 259.011 122.112 259.02 120.735 258.825C118.987 258.59 117.31 257.984 115.816 257.047C114.322 256.11 113.045 254.865 112.072 253.394C110.85 251.584 110.018 249.539 109.63 247.391C109.241 245.242 109.303 243.036 109.813 240.912C110.183 239.093 110.948 237.376 112.053 235.884C113.158 234.392 114.577 233.161 116.21 232.276C118.303 231.225 120.724 231.035 122.954 231.747C124.98 231.144 129.555 230.252 131.99 233.646C132.338 234.134 132.491 234.733 132.421 235.328C132.084 238.978 132.363 242.658 133.247 246.215C133.734 247.758 133.821 249.4 133.501 250.986C133.181 252.572 132.464 254.051 131.416 255.285C129.73 257.201 127.413 258.448 124.884 258.8ZM119.611 236.206C119.164 236.28 118.731 236.42 118.325 236.619C117.331 237.193 116.475 237.976 115.814 238.914C115.154 239.852 114.706 240.923 114.501 242.052C114.157 243.518 114.118 245.038 114.385 246.52C114.652 248.001 115.22 249.412 116.054 250.665C116.645 251.576 117.425 252.349 118.341 252.932C119.256 253.516 120.287 253.896 121.362 254.046C124.076 254.403 126.404 253.706 127.749 252.123C128.274 251.496 128.629 250.745 128.781 249.941C128.933 249.137 128.875 248.308 128.614 247.533C127.633 243.806 127.264 239.944 127.519 236.099C126.256 235.907 124.965 236.06 123.781 236.54C123.481 236.659 123.161 236.716 122.839 236.708C122.516 236.701 122.199 236.627 121.906 236.494C121.186 236.173 120.387 236.073 119.611 236.206Z" fill="#001477"/>
<path d="M124.661 235.973C124.764 235.821 124.65 235.903 124.65 235.903C122.908 237.323 122.373 239.775 121.929 241.94C121.816 242.602 121.668 243.95 121.621 244.619C120.458 241.97 119.921 239.089 120.054 236.199C120.104 234.939 120.492 233.715 121.177 232.656L124.688 235.969L124.661 235.973Z" fill="#001477"/>
<g opacity="0.3">
<path d="M113.827 49.0356C113.025 49.6982 102.599 78.4906 106.403 95.2696L88.1829 104.091C88.1829 104.091 96.0065 75.4137 100.159 67.3166C104.311 59.2195 108.513 52.5112 108.513 52.5112" fill="#001477"/>
</g>
<g opacity="0.3">
<path d="M265.429 85.1221C238.367 94.5165 227.468 108.711 236.685 128.9L215.942 102.901C215.942 102.901 231.173 96.0334 231.302 95.0788C231.431 94.1242 247.417 88.0705 248.03 87.592" fill="#001477"/>
</g>
<path d="M105.026 179.821C107.675 169.043 102.245 158.442 92.8982 156.145C83.5511 153.848 73.8263 160.724 71.1775 171.503C68.5286 182.281 73.9587 192.881 83.3058 195.178C92.653 197.475 102.378 190.6 105.026 179.821Z" fill="#00046A"/>
<path d="M99.5692 172.503C100.516 168.651 98.8146 164.921 95.7694 164.173C92.7241 163.425 89.488 165.941 88.5413 169.793C87.5946 173.645 89.2958 177.375 92.3411 178.123C95.3864 178.872 98.6225 176.355 99.5692 172.503Z" fill="white"/>
<g opacity="0.2">
<path d="M83.2359 181.423C83.8769 178.815 83.0297 176.365 81.3437 175.951C79.6578 175.536 77.7715 177.315 77.1306 179.923C76.4896 182.531 77.3367 184.981 79.0226 185.396C80.7086 185.81 82.595 184.031 83.2359 181.423Z" fill="white"/>
</g>
<path d="M202.467 202.884C205.116 192.105 199.686 181.505 190.339 179.208C180.991 176.911 171.267 183.787 168.618 194.565C165.969 205.344 171.399 215.944 180.746 218.241C190.093 220.538 199.818 213.662 202.467 202.884Z" fill="#00046A"/>
<path d="M197.01 195.566C197.956 191.714 196.255 187.984 193.21 187.236C190.165 186.487 186.928 189.004 185.982 192.856C185.035 196.708 186.736 200.437 189.782 201.186C192.827 201.934 196.063 199.418 197.01 195.566Z" fill="white"/>
<g opacity="0.2">
<path d="M180.676 204.486C181.317 201.878 180.47 199.428 178.784 199.013C177.098 198.599 175.212 200.377 174.571 202.985C173.93 205.594 174.777 208.044 176.463 208.458C178.149 208.873 180.035 207.094 180.676 204.486Z" fill="white"/>
</g>
<g opacity="0.7">
<path d="M131.242 200.088C131.458 199.209 129.196 197.898 126.189 197.159C123.182 196.42 120.57 196.534 120.354 197.413C120.138 198.292 122.4 199.603 125.407 200.342C128.414 201.081 131.026 200.967 131.242 200.088Z" fill="white"/>
</g>
<path d="M159.879 239.074L157.815 246.848L199.147 252.131L199.961 244.593L159.879 239.074Z" fill="#E30613"/>
<path d="M157.291 250.849L155.228 258.623L196.56 263.906L197.373 256.368L157.291 250.849Z" fill="#1CA75E"/>
<path d="M57.6147 207.178L53.5328 214.121L91.9359 230.291L94.7423 223.251L57.6147 207.178Z" fill="#FFD500"/>
<path d="M53.2981 218.176L49.2148 225.11L87.6193 241.289L90.4257 234.249L53.2981 218.176Z" fill="#004F9F"/>
<path d="M145.557 519.231C144.366 519.231 143.192 519.177 142.046 519.07C134.389 518.345 128.478 515.111 124.95 509.711C115.779 495.704 122.952 484.097 129.32 478.688C124.438 468.39 117.416 459.251 108.721 451.883C98.2789 457.095 85.6151 456.764 72.8172 450.889C61.0223 445.471 50.2485 435.754 44.0063 424.917C34.6564 408.671 37.1285 393.402 50.3204 384.508C37.1733 346.222 40.5468 309.551 64.7007 262.183C64.873 261.845 65.1103 261.543 65.3991 261.296C65.6879 261.049 66.0225 260.861 66.3839 260.744C66.7452 260.626 67.1262 260.581 67.5051 260.61C67.884 260.64 68.2531 260.744 68.5918 260.916C68.9305 261.088 69.2321 261.326 69.479 261.614C69.726 261.903 69.9137 262.238 70.0314 262.599C70.149 262.961 70.1943 263.342 70.1647 263.72C70.1352 264.099 70.0314 264.469 69.8591 264.807C46.0097 311.584 42.9943 347.449 56.5445 384.741C56.7785 385.38 56.7794 386.081 56.5467 386.72C56.314 387.359 55.8627 387.895 55.2728 388.234C37.8716 398.3 45.1079 415.218 49.0037 422.024C59.3836 440.07 86.6811 457.902 107.548 445.954C108.025 445.682 108.57 445.55 109.119 445.576C109.667 445.601 110.197 445.782 110.647 446.098C111.265 446.528 125.872 456.934 135.517 478.41C135.798 479.032 135.85 479.733 135.663 480.389C135.476 481.044 135.062 481.613 134.496 481.993C131.971 483.872 129.867 486.257 128.317 488.996C125.272 494.549 125.755 500.46 129.75 506.559C132.32 510.481 136.619 512.765 142.548 513.329C156.671 514.664 175.281 506.021 181.398 499.707C193.282 487.411 194.832 474.004 186.36 457.516C186.25 457.291 186.165 457.053 186.109 456.809C185.885 455.761 180.735 431.043 200.438 418.514C217.741 407.498 226.58 372.911 222.443 332.457C222.37 331.744 222.564 331.029 222.987 330.45C223.41 329.871 224.033 329.469 224.735 329.323C238.878 326.319 252.472 321.151 265.037 313.999C271.367 310.429 277.472 306.472 283.315 302.151C290.836 296.746 296.606 289.254 299.911 280.603C303.054 272.104 302.983 264.411 299.705 259.503C297.314 255.92 293.292 253.932 288.062 253.735C285.392 253.663 282.732 254.113 280.235 255.061C274.968 256.968 261.123 261.885 246.319 266.148C239.306 268.181 239.885 269.829 234.261 271.047C233.51 271.208 232.726 271.065 232.081 270.649C231.436 270.232 230.983 269.576 230.822 268.826C230.66 268.075 230.803 267.291 231.22 266.646C231.636 266.001 232.292 265.548 233.043 265.387C238.542 264.196 237.82 262.584 244.716 260.586C259.35 256.368 273.043 251.505 278.255 249.616C281.457 248.407 284.866 247.841 288.286 247.95C295.316 248.218 301.075 251.183 304.487 256.288C308.875 262.852 309.171 272.202 305.32 282.618C301.62 292.322 295.156 300.729 286.728 306.799C280.694 311.271 274.386 315.36 267.84 319.041C255.516 326.046 242.243 331.232 228.434 334.436C232.222 376.529 222.541 411.286 203.537 423.395C188.258 433.13 191.16 452.295 191.706 455.224C201.02 473.556 198.96 489.874 185.562 503.72C179.016 510.472 160.898 519.231 145.557 519.231Z" fill="#001477"/>
<path d="M164.123 289.774C182.93 294.126 208.007 301.067 216.962 320.062C220.025 326.788 220.204 334.508 218.556 341.556C217.285 348.721 212.422 354.99 205.302 357.05C193.023 360.328 180.225 356.101 169.299 350.664C165.86 348.873 160.881 346.581 157.352 345.121C150.259 342.165 142.835 340.204 135.41 338.296C130.118 336.908 124.663 335.529 119.29 334.392C110.603 332.484 101.665 331.123 93.0137 328.973L99.7393 329.099C115.493 329.296 131.569 330.084 146.65 335.099C153.167 337.189 159.555 339.662 165.78 342.506C177.136 348.237 189.96 354.596 202.955 351.685C205.31 351.103 207.455 349.873 209.147 348.136C210.839 346.398 212.01 344.221 212.529 341.852C213.821 337.413 214.127 332.746 213.425 328.176C211.204 315.361 199.158 307.784 187.99 303.1C179.857 299.813 171.443 297.269 162.851 295.496C162.48 295.414 162.129 295.26 161.818 295.041C161.506 294.823 161.241 294.546 161.037 294.226C160.833 293.905 160.694 293.547 160.628 293.173C160.562 292.799 160.57 292.415 160.653 292.044C160.735 291.673 160.89 291.322 161.108 291.01C161.326 290.699 161.603 290.434 161.923 290.23C162.244 290.025 162.602 289.886 162.976 289.821C163.35 289.755 163.734 289.763 164.105 289.845L164.123 289.774Z" fill="#001477"/>
<path d="M214.078 335.314C212.842 331.346 210.563 327.782 207.478 324.997C206.373 324.007 205.173 323.128 203.896 322.373C205.377 322.7 206.822 323.171 208.212 323.779C212.678 325.749 216.521 328.902 219.326 332.896L214.078 335.341V335.314Z" fill="#001477"/>
<path d="M206.968 352.742C205.391 347.44 201.774 342.891 197.761 339.103C197.152 338.538 196.498 338.01 195.863 337.455C197.429 338.117 198.957 338.868 200.439 339.703C205.069 342.389 209.44 345.909 212.315 350.521L206.941 352.742H206.968Z" fill="#001477"/>
<path d="M108.99 451.346C108.42 451.346 107.862 451.178 107.386 450.862C106.911 450.545 106.54 450.096 106.32 449.569C106.1 449.043 106.04 448.463 106.149 447.902C106.258 447.342 106.53 446.826 106.931 446.42C120.606 432.556 139.602 431.195 163.003 430.918C185.939 430.613 197.743 420.421 197.859 420.314C198.438 419.842 199.177 419.612 199.922 419.671C200.667 419.73 201.359 420.075 201.857 420.632C202.354 421.189 202.617 421.917 202.592 422.663C202.566 423.41 202.254 424.118 201.719 424.64C201.182 425.114 188.33 436.372 163.084 436.703C140.282 437.008 123.213 438.172 111.051 450.486C110.781 450.759 110.46 450.975 110.107 451.123C109.753 451.27 109.374 451.346 108.99 451.346Z" fill="#001477"/>
<path d="M54.3777 382.87C54.0999 382.789 53.805 382.789 53.5272 382.87H53.5805H53.6973L54.1718 382.744C66.3517 379.323 79.4721 381.535 88.7773 390.437L84.2993 390.993C98.557 369.499 129.32 356.226 153.698 368.075C160.68 372.356 165.796 379.108 168.027 386.989C164.445 383.147 161.087 379.753 156.904 377.012C154.143 375.23 151.247 373.664 148.244 372.329C134.676 366.113 117.928 370.537 105.722 378.123C99.1005 382.167 93.4475 387.615 89.1621 394.082C88.7464 394.733 88.09 395.192 87.3364 395.36C86.5828 395.528 85.7936 395.391 85.1411 394.978C78.6929 389.076 71.4119 386.416 62.6352 387.115C59.9785 387.354 57.3494 387.837 54.7809 388.557C54.2488 388.674 53.7003 388.698 53.1599 388.628C52.4069 388.477 51.7446 388.034 51.3188 387.395C50.8931 386.755 50.7386 385.973 50.8894 385.221C51.0402 384.468 51.484 383.805 52.123 383.38C52.7621 382.954 53.5443 382.799 54.2973 382.95L54.3777 382.87Z" fill="#001477"/>
<path d="M89.0193 390.617C91.7216 395.408 93.6555 400.594 94.751 405.985C91.9832 401.595 88.5443 397.667 84.5594 394.342C84.234 394.062 83.9737 393.715 83.7967 393.324C83.6197 392.933 83.53 392.508 83.5343 392.079C83.5386 391.65 83.6368 391.227 83.8216 390.84C84.0064 390.452 84.2735 390.11 84.6044 389.837C84.9353 389.563 85.3218 389.366 85.737 389.257C86.1522 389.149 86.586 389.133 87.0082 389.21C87.4304 389.286 87.8306 389.455 88.181 389.702C88.5315 389.95 88.8239 390.271 89.0373 390.643L89.0193 390.617Z" fill="#001477"/>
<path d="M79.1045 417.573C76.9746 416.452 74.5184 416.116 72.1655 416.624C69.8126 417.131 67.7135 418.45 66.2353 420.35C65.2371 421.493 64.4778 422.824 64.0025 424.266C63.5272 425.707 63.3453 427.229 63.4677 428.741C64.3633 436.802 69.3337 439.041 74.8864 440.33C80.439 441.62 86.3858 439.121 86.4664 433.649C86.5291 429.315 86.3946 421.424 79.1045 417.573Z" fill="#001477"/>
<path d="M73.3994 399.447C75.3787 402.501 75.0741 406.218 72.7098 407.749C70.3455 409.281 66.8256 408.045 64.8463 404.991C62.8671 401.937 63.6732 398.722 66.0375 397.217C68.4019 395.713 71.4202 396.384 73.3994 399.447Z" fill="#001477"/>
<path d="M59.8781 414.761C62.3939 413.533 63.2163 410.043 61.7148 406.968C60.2132 403.892 56.9565 402.394 54.4407 403.622C51.9249 404.85 51.103 408.339 52.6045 411.415C54.106 414.491 57.3624 415.989 59.8781 414.761Z" fill="#001477"/>
<path d="M53.3158 427.883C55.5515 426.792 56.2718 423.669 54.9244 420.909C53.5769 418.149 50.6719 416.796 48.4362 417.888C46.2004 418.979 45.4805 422.101 46.828 424.862C48.1754 427.622 51.08 428.975 53.3158 427.883Z" fill="#001477"/>
<path d="M131.165 477.246C139.203 472.928 148.559 471.754 157.415 473.95C149.086 473.712 140.96 476.546 134.586 481.912C131.272 484.868 127.35 479.53 131.165 477.246Z" fill="#001477"/>
<path d="M143.479 518.148C136.601 511.933 133.368 501.66 136.896 492.928C136.359 496.48 136.785 500.11 138.13 503.441C139.475 506.771 141.691 509.679 144.545 511.861C145.253 512.441 146.011 512.956 146.81 513.401L143.479 518.148Z" fill="#001477"/>
<path d="M160.683 514.699C153.519 508.036 149.676 497.11 155.641 488.468C152.309 496.528 156.143 504.544 162.922 509.263C163.209 509.451 163.818 509.899 164.104 510.024L160.683 514.699Z" fill="#001477"/>
<path d="M222.488 332.896C220.751 322.695 217.805 312.738 213.711 303.234C218.13 309.774 221.94 316.705 225.094 323.94C226.16 326.385 227.163 328.794 228.103 331.392C228.241 331.774 228.298 332.181 228.269 332.586C228.241 332.991 228.127 333.386 227.937 333.745C227.746 334.104 227.483 334.419 227.163 334.67C226.844 334.921 226.475 335.103 226.081 335.203C225.688 335.302 225.277 335.319 224.876 335.25C224.476 335.182 224.094 335.031 223.755 334.806C223.417 334.581 223.129 334.288 222.911 333.945C222.693 333.602 222.548 333.217 222.488 332.816V332.896Z" fill="#001477"/>
<path d="M272.605 273.438C272.975 272.493 273.63 271.687 274.479 271.132C275.328 270.577 276.329 270.3 277.343 270.34C280.226 270.411 284.561 271.074 286.504 274.146C289.567 278.973 288.842 289.371 286.11 291.681C283.379 293.992 275.811 288.995 273.635 282.833C272.139 278.561 271.754 275.785 272.605 273.438Z" fill="#001477"/>
<path d="M286.058 264.124C287.715 261.899 287.528 258.955 285.64 257.549C283.752 256.142 280.877 256.806 279.22 259.031C277.562 261.257 277.749 264.201 279.637 265.607C281.526 267.014 284.4 266.35 286.058 264.124Z" fill="#001477"/>
<path d="M297.223 270.26C299.496 268.667 300.128 265.649 298.635 263.518C297.142 261.388 294.089 260.952 291.816 262.544C289.544 264.136 288.912 267.154 290.405 269.285C291.898 271.416 294.951 271.852 297.223 270.26Z" fill="#001477"/>
<path d="M299.129 284.956C301.231 283.483 301.966 280.906 300.771 279.201C299.576 277.495 296.903 277.307 294.801 278.78C292.699 280.253 291.963 282.83 293.158 284.535C294.353 286.241 297.026 286.429 299.129 284.956Z" fill="#001477"/>
<path d="M232.635 436.578C217.938 436.578 205.767 431.205 200.25 421.899C199.875 421.26 199.758 420.501 199.925 419.778C200.091 419.055 200.528 418.423 201.146 418.013C206.403 414.52 210.926 408.564 214.974 399.805C215.272 399.166 215.793 398.656 216.439 398.373C217.085 398.089 217.812 398.051 218.485 398.265C224.969 400.325 230.539 396.196 232.492 391.261C234.444 386.327 233.208 379.44 223.858 374.989C223.312 374.729 222.86 374.304 222.568 373.773C222.275 373.243 222.156 372.635 222.228 372.033C223.595 360.635 223.814 349.129 222.882 337.688C222.821 336.936 223.056 336.19 223.536 335.609C224.015 335.027 224.703 334.655 225.452 334.571C246.848 332.207 263.9 337.526 274.763 349.93C286.119 362.916 289.317 382.386 283.773 404.749C279.17 423.816 258.509 433.408 242.2 435.853C239.034 436.332 235.837 436.575 232.635 436.578ZM206.726 421.093C212.995 428.858 226.187 432.387 241.349 430.13C257.013 427.792 274.486 418.613 278.14 403.37C283.227 382.879 280.477 365.263 270.402 353.745C261.303 343.348 246.982 338.646 228.865 340.07C229.528 350.285 229.31 360.539 228.211 370.717C239.432 376.986 240.516 386.694 237.874 393.393C235.232 400.092 227.951 405.86 219.201 404.382C215.538 411.779 211.427 417.278 206.726 421.093Z" fill="#001477"/>
<g opacity="0.3">
<path d="M81.5854 265.629C81.5854 265.629 119.728 317.17 185.303 298.837C185.303 298.837 227.951 293.535 228.918 267.491C228.918 267.491 204.549 293.857 168.592 292.622C132.634 291.386 81.5854 265.629 81.5854 265.629Z" fill="#001477"/>
</g>
<g opacity="0.3">
<path d="M210.325 314.796C210.325 314.796 225.138 350.96 185.965 337.455C146.792 323.949 122.155 321.549 95.5112 329.341C95.5112 329.341 140.192 342.004 153.133 351.632C166.074 361.259 204.746 375.741 214.678 346.455C224.61 317.17 210.325 314.796 210.325 314.796Z" fill="#001477"/>
</g>
<g opacity="0.3">
<path d="M302.634 281.597C299.123 290.772 293.006 298.719 285.036 304.462C279.101 308.858 272.897 312.881 266.461 316.507C257.234 321.724 247.469 325.928 237.337 329.045C229.931 329.744 224.799 330.147 224.799 330.147L220.787 314.797C298.658 307.587 302.473 258.473 302.473 258.473C305.867 264.017 306.118 272.167 302.634 281.597Z" fill="#001477"/>
</g>
<g opacity="0.3">
<path d="M225.263 332.144C229.607 374.612 220.114 409.361 201.934 420.941C183.753 432.521 188.903 456.173 188.903 456.173C199.847 477.408 193.094 491.719 183.439 501.705C173.785 511.69 138.553 525.348 127.295 508.126C125.349 505.302 124.075 502.07 123.57 498.678C124.359 499.06 125.032 499.644 125.522 500.37C132.284 510.464 139.099 508.995 154.87 502.609C170.642 496.224 177 479.02 170.543 455.072C164.086 431.124 154.36 433.685 154.36 433.685C154.36 433.685 131.8 437.518 117.157 442.641C111.9 444.495 108.712 447.038 106.786 449.564C89.0898 457.955 67.1838 448.104 53.7231 433.3C75.6381 449.555 94.1229 440.062 112.33 424.944C131.316 409.173 162.357 409.263 162.357 409.263C226.839 383.12 220.75 314.778 220.75 314.778L228.416 331.427C227.413 331.696 226.356 331.92 225.263 332.144Z" fill="#001477"/>
</g>
<g opacity="0.3">
<path d="M280.96 404.05C273.554 434.742 216.612 443.94 202.749 420.431C209.018 416.266 213.729 409.397 217.607 401.023C220.116 401.834 222.805 401.91 225.356 401.244C227.908 400.577 230.215 399.196 232.007 397.262C223.141 421.344 281.919 425.921 279.85 363.839C284.265 374.863 284.775 388.664 280.96 404.05Z" fill="#001477"/>
</g>
<g opacity="0.3">
<path d="M253.234 339.694C253.234 339.694 226.125 349.402 233.737 379.78C231.56 376.514 228.493 373.94 224.898 372.365C226.278 360.773 226.496 349.072 225.551 337.437C236.155 336.264 245.416 337.123 253.234 339.694Z" fill="#001477"/>
</g>
</svg>
