<svg version="1.2" xmlns="http://www.w3.org/2000/svg" viewBox="0 0 288 513" width="288" height="513">
	<title>normal-svg</title>
	<style>
		.s0 { fill: #001477 } 
		.s1 { fill: #faa327 } 
		.s2 { fill: #ffffff } 
		.s3 { fill: #fff3e9 } 
		.s4 { fill: #fc4f8b } 
		.s5 { fill: #00046a } 
		.s6 { fill: #e30613 } 
		.s7 { fill: #1ca75e } 
		.s8 { fill: #ffd500 } 
		.s9 { fill: #004f9f } 
	</style>
	<g id="Layer 1">
		<g id="Layer" style="opacity: .2">
			<path id="Layer" class="s0" d="m145.6 512.4c75.4 0 136.6-9.8 136.6-22 0-12.1-61.2-22-136.6-22-75.4 0-136.6 9.9-136.6 22 0 12.2 61.2 22 136.6 22z"/>
		</g>
		<path id="Layer" class="s1" d="m281.6 261.6c-3.5 9.2-9.6 17.1-17.6 22.9q-8.9 6.6-18.5 12c-9.3 5.2-19 9.4-29.2 12.5q-4.4 1.4-8.8 2.4-1.6 0.4-3.2 0.7c4.4 42.5-5.1 77.2-23.3 88.8-18.2 11.6-13.1 35.3-13.1 35.3 11 21.2 4.2 35.5-5.4 45.5-9.7 10-44.9 23.6-56.2 6.4-1.9-2.8-3.2-6-3.7-9.4-1.6-11.8 9.3-19.1 9.3-19.1-9.4-21-23.9-31.2-23.9-31.2q-1.1 0.6-2.2 1.2c-17.7 8.4-39.6-1.5-53-16.3-14.2-15.6-19.1-36.6 0-47.6-14.7-40.5-7-83.2 15.5-127.2l157.4 9.7c6.1-1.3 12.5-3 18.9-4.9 14.4-4.1 27.9-8.9 33.7-11 2.8-1.1 5.9-1.6 8.9-1.5 6.7 0.3 11.5 3.1 14.4 7.7 3.3 5.5 3.5 13.7 0 23.1z"/>
		<g id="Layer" style="opacity: .7">
			<path id="Layer" class="s2" d="m74.5 371.8q31.8-34.4 68.8-10.8c0 0-16.8-20.5-38.1-13.1-21.3 7.3-32.1 11.8-35.2 18.9"/>
		</g>
		<g id="Layer" style="opacity: .7">
			<path id="Layer" class="s2" d="m74.5 432.6c-34.8 2.7-75.2-47.5-41.7-66.9-14.7-40.5-7-83.2 15.5-127.2l5.3 0.3c-22.3 43.9-29.9 86.5-15.3 126.9-31.7 18.4 2.9 64.4 36.2 66.9z"/>
		</g>
		<g id="Layer" style="opacity: .7">
			<path id="Layer" class="s2" d="m269.2 231q-2.7 0.3-5.4 1.3c-5.8 2.1-19.3 6.9-33.7 11-6.3 1.8-12.8 3.6-18.9 4.9l-4.3-0.3c5.7-1.3 11.8-2.9 17.6-4.6 14.5-4.1 28-8.9 33.8-11 2.8-1.1 5.9-1.6 8.9-1.5 0.7 0.1 1.4 0.1 2 0.2z"/>
		</g>
		<g id="Layer" style="opacity: .7">
			<path id="Layer" class="s2" d="m206.9 247.9l-1.2 0.3-152.1-9.4q0.1-0.2 0.2-0.3z"/>
		</g>
		<path id="Layer" class="s3" d="m148.8 274.1c-14 9.8-19.8 24.6-14.9 45.9 0 0 23.2 11.5 23.6 11.7 0.4 0.2 33 12.3 35.2-8.6 2.3-20.9 0-24.9 0-24.9 0 0-16.3-19.9-43.9-24.1z"/>
		<path id="Layer" class="s3" d="m69.1 367.8c23.5 8.4 34 25.6 29.3 53 0 0-9.9 6.8-15.5 10-5.5 3.2-27.4 4.4-44.5-12-17.2-16.4-18.7-30-17.7-37.3 1-7.3 7.2-18.7 21.9-17.4 14.6 1.3 24.2 7.1 24.2 7.1z"/>
		<path id="Layer" class="s3" d="m108.9 451c0 0 20.7-22.2 58.2-14.2 0 0 11.9 20.4 3 34.5-8.9 14-36.5 31.7-53.9 24.5-17.4-7.3-17.4-27.3-4.3-37.6z"/>
		<path id="Layer" class="s3" d="m281.6 261.6c-3.5 9.2-9.6 17.1-17.6 22.9q-8.9 6.6-18.5 12l-2.3-0.8c-21-7-21-49.3-21-49.3 0 0 0.9-1.2 2.4-3 14.4-4.2 27.9-9 33.7-11.1q4.4-1.7 9-1.5c14.5 0.6 20.7 13.5 14.3 30.8z"/>
		<path id="Layer" class="s3" d="m83.1 310.3c0 0-11.6 26.8-1.8 46.6 23.3-13.2 44.1-15.4 60.3 2 14.9 0.7 26.8-5.4 33.3-23.6-22.7 0-59.9-27.1-91.8-25z"/>
		<path id="Layer" class="s2" d="m174.9 269.3c0 0 0.9 3.5 1 13.9l-21.9-9.1z"/>
		<path id="Layer" class="s1" d="m259.2 384.1c-7.3 30.6-63.7 39.8-77.5 16.3 6.2-4.1 10.9-11 14.8-19.4 2.4 0.8 5.1 0.9 7.6 0.2 2.6-0.6 4.9-2 6.6-3.9 2.3-2.3 3.7-5.3 4-8.4 0.4-3.2-0.3-6.4-2-9.1-2.1-3.3-5.2-5.9-8.8-7.4 1.4-11.6 1.6-23.3 0.6-35 10.7-1.1 19.9-0.3 27.7 2.3 12.6 4.1 21.3 12.6 25.9 24.1 4.4 11.1 4.9 24.9 1.1 40.2z"/>
		<path id="Layer" class="s1" d="m42.7 113.7c0 0 8.9-62.9 42.3-101.5 1.9-2.2 4.6-3.5 7.5-3.8 2.9-0.2 5.8 0.7 8.1 2.5 8.1 6.6 20 21.1 28.1 52.1"/>
		<g id="Layer" style="opacity: .3">
			<path id="Layer" class="s0" d="m128.7 63l-86 50.7c0 0 0.1-1.1 0.5-3.3l78.7-46.3c-8.2-31-20-45.5-28.2-52.1-1.5-1.3-3.4-2.1-5.4-2.4 1.9-1 4.1-1.4 6.3-1.2 2.2 0.3 4.3 1.1 6 2.5 8.1 6.6 20 21.1 28.1 52.1z"/>
		</g>
		<g id="Layer" style="opacity: .7">
			<path id="Layer" class="s2" d="m101.6 11.8c-2.2-1-4.6-1.2-6.9-0.7-2.4 0.6-4.5 1.8-6 3.6-27.6 31.9-38.5 80.6-41.4 96.4l-4.6 2.7c0 0 9-63 42.3-101.5 1.9-2.2 4.6-3.6 7.5-3.8 3-0.3 5.9 0.6 8.1 2.5 0.3 0.2 0.6 0.5 1 0.8z"/>
		</g>
		<path id="Layer" class="s1" d="m179 74c0 0 33.1-24.3 72.5-24 2.7 0 5.3 1 7.2 2.8 2 1.8 3.2 4.3 3.5 7 2.7 36.4-7.8 72.6-29.8 101.8"/>
		<g id="Layer" style="opacity: .3">
			<path id="Layer" class="s0" d="m262.2 59.8c2.7 36.4-7.8 72.6-29.8 101.8l-53.4-87.6c0 0 1-0.7 2.8-1.9l44.8 73.6c20.4-27.1 31-60.4 30.2-94.3 1.5 0.9 2.8 2.1 3.7 3.5 1 1.5 1.5 3.1 1.7 4.9z"/>
		</g>
		<g id="Layer" style="opacity: .7">
			<path id="Layer" class="s2" d="m261.7 57.4c-1-1.1-2.3-2-3.6-2.7-1.4-0.6-2.9-0.9-4.4-0.9-38.3-0.3-70.6 22.6-72.4 23.9l-2.3-3.7c0 0 33.1-24.3 72.5-24 2.3 0 4.5 0.7 6.3 2 1.8 1.4 3.2 3.2 3.9 5.4z"/>
		</g>
		<path id="Layer" class="s3" d="m66.3 88.5c0 0 6.8-39.3 24.9-60.8 0 0 13.3 8.4 16.9 38.6"/>
		<path id="Layer" class="s3" d="m194.1 83.5c0 0 21.5-16.5 50.9-18.4q0.9-0.1 1.7 0.2 0.8 0.4 1.5 1 0.6 0.6 0.9 1.4 0.3 0.9 0.3 1.7c-0.5 12-3.6 44.9-22.4 67.9"/>
		<path id="Layer" class="s1" d="m233.8 170.5c2.1 18.3 0.8 34.2-3.4 47.7-14.9 47.7-66.4 64.7-132.8 44.4-67.2-19.7-95-46-86.4-87 2-9.3 5.7-19.3 11.4-30.2q6.3-12 13.9-23.3c22.5-31.9 47.3-52.3 81.6-58 19-3 38.6-0.4 56.1 7.6 39.2 17.7 52.4 50.1 59.6 98.8z"/>
		<g id="Layer" style="opacity: .7">
			<path id="Layer" class="s2" d="m209.6 99.4c-8.1-9.2-18.2-16.7-31.3-22.6-17.5-8-37.1-10.7-56.1-7.6-34.3 5.7-59.1 26-81.6 58q-7.6 11.2-13.9 23.3c-5.6 10.9-9.4 20.9-11.4 30.1-3.5 16.8-1 31.1 7.8 43.5-12-13.5-15.9-29.4-11.9-48.5 2-9.3 5.8-19.3 11.4-30.2q6.3-12 13.9-23.3c22.5-31.9 47.3-52.3 81.6-57.9 19-3.1 38.6-0.5 56.1 7.5 15.4 7 26.8 16.2 35.4 27.7z"/>
		</g>
		<path id="Layer" class="s3" d="m230.4 218.2c-14.9 47.7-66.4 64.7-132.8 44.4-67.2-19.7-95-46-86.4-87.1 3.3-0.9 15-9.1 20.7 1.2 7.2 12.9 21.7 15.1 33.9 7.6 12.1-7.4 24.8-10.5 39.2-7.9 14.4 2.5 29.8 9.5 38.2 24.2 8.4 14.7 17.1 20.2 28.8 16.2 11.8-4.1 45-13.3 58.4 1.4z"/>
		<g id="Layer" style="opacity: .3">
			<path id="Layer" class="s0" d="m233.8 170.5c2.1 18.3 0.8 34.2-3.4 47.7-14.9 47.7-66.4 64.7-132.8 44.4-32.7-9.6-56.1-20.7-70.5-34.4 13.9 8.2 32.5 15.3 55.8 21.6 66.1 18.6 117.6 2.1 133-43.1 4.3-12.8 5.7-27.9 3.8-45.1-6.8-46.1-19.7-76.5-58.6-92.9q-7.3-3.1-15-5c9.7 1.3 19.2 4 28.1 8 39.2 17.7 52.4 50.1 59.6 98.8z"/>
		</g>
		<path id="Layer" class="s0" d="m168.5 272.4c-21 3.4-45.4 1-71.7-7.1-70-20.4-97.2-48.3-88.4-90.4 2-9.5 5.8-19.6 11.6-30.8q6.4-12.2 14.1-23.6c25.1-35.6 50.8-53.8 83.5-59.2 19.7-3.2 39.8-0.5 57.8 7.8 19.3 8.7 33.4 21.5 43.1 39 8.5 15.2 14.1 34.3 18.2 62q0 0 0 0.1c2.1 18.2 0.9 34.7-3.5 48.9-7.6 24.3-24.6 41.4-49 49.5q-7.7 2.6-15.7 3.8zm-49.4-205.5l-0.5 0.1c-31.1 5.1-55.7 22.6-79.8 56.8q-7.4 11.1-13.6 22.9c-5.5 10.6-9.3 20.5-11.1 29.4-4.1 19.5 0.4 35.5 13.9 48.9 13.6 13.5 36.6 24.9 70.4 34.8 32.1 9.8 61.1 10.9 84 3.3 22.5-7.5 38.2-23.3 45.2-45.8 4.2-13.3 5.4-29 3.3-46.4-6.9-46.6-19-79-57.9-96.6-16.8-7.7-35.6-10.3-53.9-7.4z"/>
		<path id="Layer" class="s0" d="m43.1 116.6q-0.4 0-0.8 0c-0.8-0.1-1.5-0.5-1.9-1.2q-0.7-0.9-0.6-2.1c0.4-2.6 9.5-64.2 43-102.9 2.4-2.8 5.8-4.6 9.4-4.9 3.7-0.3 7.3 0.9 10.2 3.2 8.7 7.1 20.8 22.1 29.1 53.6q0.2 0.5 0.1 1.1-0.1 0.6-0.4 1.1-0.3 0.5-0.7 0.8-0.5 0.4-1 0.5-0.6 0.2-1.2 0.1-0.5-0.1-1-0.4-0.5-0.3-0.9-0.7-0.3-0.5-0.5-1c-7.9-30-19.1-44.1-27.2-50.6-1.6-1.4-3.8-2.1-5.9-1.9-2.2 0.2-4.2 1.2-5.6 2.8-32.4 37.5-41.6 99.4-41.6 100.1-0.1 0.6-0.4 1.1-0.9 1.6-0.4 0.4-1 0.7-1.6 0.8z"/>
		<path id="Layer" class="s0" d="m66.7 90.8q-0.4 0.1-0.8 0-0.5 0-0.9-0.3-0.4-0.3-0.7-0.7-0.2-0.3-0.3-0.8-0.2-0.5-0.1-1c0.3-1.6 7.1-40.1 25.4-61.8q0.6-0.7 1.5-0.9c0.6-0.1 1.2 0.1 1.7 0.4 0.5 0.3 14.3 9.3 18 40.3q0 0.5-0.1 0.9-0.1 0.5-0.4 0.9-0.3 0.3-0.8 0.6-0.4 0.2-0.9 0.3-0.4 0-0.9-0.1-0.5-0.1-0.8-0.4-0.4-0.3-0.6-0.8-0.3-0.4-0.3-0.9c-2.7-22.3-10.7-32.1-14.2-35.4-16.3 21.1-22.7 57.4-22.8 57.8-0.1 0.5-0.3 0.9-0.7 1.3-0.4 0.3-0.8 0.6-1.3 0.6z"/>
		<path id="Layer" class="s0" d="m232.8 164.5q-0.5 0.1-1.1-0.1-0.6-0.1-1.1-0.5-0.4-0.3-0.7-0.8-0.3-0.5-0.4-1.1-0.1-0.6 0.1-1.1 0.1-0.6 0.5-1c21.4-28.7 31.8-64.2 29.2-99.9-0.2-2-1.1-3.8-2.5-5.1-1.5-1.3-3.4-2.1-5.3-2-38-0.3-70.5 23.2-70.8 23.4q-0.5 0.3-1 0.5-0.6 0.1-1.2 0-0.5-0.1-1-0.4-0.5-0.3-0.8-0.7c-0.5-0.6-0.7-1.4-0.6-2.2 0.1-0.7 0.5-1.4 1.2-1.9 1.4-1 34.3-24.8 74.2-24.5 3.4 0 6.7 1.2 9.2 3.5 2.5 2.3 4.1 5.5 4.3 8.9 2.8 37.1-8 74-30.3 103.8-0.5 0.6-1.1 1-1.9 1.2z"/>
		<path id="Layer" class="s0" d="m227.4 139.7q-0.5 0.1-1-0.1-0.5-0.1-0.9-0.4-0.3-0.3-0.6-0.8-0.2-0.4-0.2-0.9-0.1-0.4 0-0.9 0.2-0.5 0.5-0.8c18.1-22.2 21.3-53.9 21.8-66.5q0-0.3-0.1-0.7-0.2-0.4-0.4-0.6-0.3-0.3-0.6-0.4-0.4-0.1-0.8-0.1c-28.3 1.8-49.4 17.8-49.6 17.9q-0.4 0.3-0.8 0.5-0.5 0.1-1 0-0.4 0-0.8-0.3-0.5-0.2-0.8-0.6c-0.3-0.5-0.5-1.2-0.4-1.8 0.1-0.6 0.4-1.2 0.9-1.6 0.9-0.7 22.4-17 52.2-18.9q1.4-0.1 2.7 0.4 1.3 0.5 2.3 1.4 1 1 1.6 2.3 0.5 1.3 0.4 2.7c-0.5 13.1-3.8 46-22.9 69.3q-0.6 0.7-1.5 0.9z"/>
		<path id="Layer" class="s2" d="m165.8 144.4c6.2-0.7 12.5-0.5 18.7 0.7q4.1 0.8 3.5-2.1c-0.2-1.1-0.8-2.2-1.6-3-5.2-5.2-10.5-9.4-16.3-9.1-2.3 0.2-4.5 1-6.3 2.4-9.1 6.5-5 12.5 2 11.1z"/>
		<path id="Layer" class="s2" d="m63.5 111.7c3.9-6.9 21.6-11.3 23.5 2.5q0.2 0.9-0.2 1.9-0.3 0.9-1 1.6-0.8 0.6-1.7 0.8-1 0.2-2 0c-5.5-1.7-11.2-2.9-16.9-3.5q-0.6-0.1-1-0.4-0.5-0.3-0.7-0.8-0.3-0.5-0.3-1 0-0.6 0.3-1.1z"/>
		<path id="Layer" class="s0" d="m103.9 219.4c-2.8 0.5-5.7 0.1-8.3-1.3-6.7-3.6-8.9-15.1-8.6-16.9 0.1-0.5 0.4-1 0.7-1.3 0.4-0.4 0.9-0.6 1.4-0.7l0.7 4.7c0.6-0.1 1-0.3 1.4-0.7 0.4-0.4 0.6-0.9 0.6-1.4 0 1.3 1.9 9.8 6.1 12.1 1.3 0.6 2.8 0.9 4.2 0.9 1.5 0 2.9-0.4 4.2-1.1 1.2-0.6 2.2-1.4 3-2.5q1.2-1.7 1.5-3.6l4.8 0.6c-0.3 2.1-1.1 4.1-2.4 5.8-1.2 1.7-2.8 3.1-4.7 4q-2.2 1.1-4.6 1.4z"/>
		<path id="Layer" class="s0" d="m113.2 207.8c-1 7.8-10.5 11.4-16.4 8.2-5.9-3.2-7.7-14.4-7.3-14.4l10.1-1.7c0 0 5.8 4.8 5.6 5.3-0.2 0.6 8 2.6 8 2.6z"/>
		<path id="Layer" class="s0" d="m116.4 180.6c-3.4-4.5-15-7.7-20.8-5.5-0.5 0.2-0.9 0.5-1.1 1-0.3 0.4-0.4 0.9-0.3 1.4 0.2 2.2 1.2 6.4 6.2 10.1 1 0.8 2.1 1.3 3.2 1.6 1.2 0.3 2.4 0.3 3.6 0.2 3.5-0.5 6.8-2.2 9.1-4.9 0.4-0.5 0.7-1.2 0.7-1.9 0.1-0.7-0.2-1.4-0.6-2z"/>
		<path id="Layer" class="s0" d="m83.7 188.1c-1.3 4-1.5 8.8 3.4 10 3.7 0.8 8.5 0.7 12-1.3q0.4-0.3 0.9-0.4 0.6-0.1 1.1 0.1 0.5 0.1 0.9 0.5 0.4 0.3 0.6 0.8c1.1 2.1 2.5 3.9 4.3 5.5 3.4 3.1 9 3.4 12.5 0.2 0.9-0.8 1.7-1.9 2.2-3 0.5-1.2 0.7-2.4 0.8-3.7q0-0.1 0.1-0.3 0.1-0.1 0.3-0.1 0.2 0 0.3 0.1 0.2 0.1 0.2 0.2c1.5 6.5-3.7 12.6-10.1 13.1-6.6 0.8-12.9-3.9-15-10l3.5 1.1c-4.9 2.9-10.9 3.8-16.3 1.3-6.4-2.9-6.5-9.6-2.6-14.5q0.1-0.2 0.3-0.2 0.2 0 0.3 0 0.2 0.1 0.2 0.3 0.1 0.1 0.1 0.3z"/>
		<path id="Layer" class="s0" d="m100.8 201.2q-0.4 0.1-0.8 0c-0.6-0.1-1.2-0.4-1.5-0.9-0.4-0.5-0.6-1.2-0.5-1.8 0.7-5.3 1.8-9.1 3.5-11.9q0.3-0.4 0.7-0.7 0.4-0.3 0.8-0.4 0.5-0.1 1 0 0.4 0.1 0.9 0.3c0.5 0.4 0.9 0.9 1 1.5 0.2 0.6 0.1 1.3-0.2 1.8-1.3 2.2-2.3 5.4-2.9 10.1-0.1 0.5-0.3 1-0.7 1.3-0.4 0.4-0.8 0.6-1.3 0.7z"/>
		<path id="Layer" class="s4" d="m109 215.1c-0.4 3.9-0.1 7.9 0.9 11.8 1.7 5.6-2.8 10.4-9.8 9.5-7.1-0.8-10.5-8.6-8.9-14.9 1.5-6.2 6.6-9 10.7-7.1 0-0.1 5.1-2.1 7.1 0.7z"/>
		<path id="Layer" class="s0" d="m103.9 238.8q-2.1 0.3-4.2 0c-1.7-0.2-3.4-0.8-4.9-1.8-1.5-0.9-2.8-2.1-3.7-3.6-1.3-1.8-2.1-3.9-2.5-6-0.4-2.2-0.3-4.4 0.2-6.5 0.4-1.8 1.1-3.5 2.3-5 1.1-1.5 2.5-2.7 4.1-3.6 2.1-1.1 4.5-1.3 6.8-0.6 2-0.6 6.6-1.4 9 1.9 0.3 0.5 0.5 1.1 0.4 1.7-0.3 3.7 0 7.4 0.8 10.9q0.7 2.4 0.3 4.8c-0.3 1.6-1 3.1-2.1 4.3-1.7 1.9-4 3.1-6.5 3.5zm-5.3-22.6q-0.7 0.1-1.3 0.4c-1 0.6-1.8 1.4-2.5 2.3-0.6 1-1.1 2-1.3 3.2-0.3 1.4-0.4 2.9-0.1 4.4 0.3 1.5 0.8 2.9 1.7 4.2 0.5 0.9 1.3 1.6 2.2 2.2 1 0.6 2 1 3.1 1.1 2.7 0.4 5-0.3 6.3-1.9 0.6-0.6 0.9-1.4 1.1-2.2 0.1-0.8 0.1-1.6-0.2-2.4-1-3.7-1.3-7.6-1.1-11.4-1.2-0.2-2.5 0-3.7 0.4q-0.5 0.2-1 0.2-0.5 0-0.9-0.2c-0.7-0.3-1.5-0.4-2.3-0.3z"/>
		<path id="Layer" class="s0" d="m103.7 216c0.1-0.2 0-0.1 0-0.1-1.8 1.4-2.3 3.9-2.8 6-0.1 0.7-0.2 2-0.3 2.7-1.1-2.6-1.7-5.5-1.5-8.4 0-1.3 0.4-2.5 1.1-3.5z"/>
		<g id="Layer" style="opacity: .3">
			<path id="Layer" class="s0" d="m92.8 29c-0.8 0.7-11.2 29.5-7.4 46.3l-18.2 8.8c0 0 7.8-28.7 12-36.8 4.1-8.1 8.3-14.8 8.3-14.8"/>
		</g>
		<g id="Layer" style="opacity: .3">
			<path id="Layer" class="s0" d="m244.4 65.1c-27 9.4-37.9 23.6-28.7 43.8l-20.8-26c0 0 15.3-6.9 15.4-7.8 0.1-1 16.1-7 16.7-7.5"/>
		</g>
		<path id="Layer" class="s5" d="m84 159.8c2.7-10.8-2.8-21.4-12.1-23.7-9.3-2.3-19.1 4.6-21.7 15.4-2.7 10.8 2.8 21.4 12.1 23.7 9.4 2.3 19.1-4.6 21.7-15.4z"/>
		<path id="Layer" class="s2" d="m78.6 152.5c0.9-3.8-0.8-7.6-3.8-8.3-3.1-0.8-6.3 1.7-7.3 5.6-0.9 3.8 0.8 7.6 3.8 8.3 3.1 0.8 6.3-1.7 7.3-5.6z"/>
		<g id="Layer" style="opacity: .2">
			<path id="Layer" class="s2" d="m62.2 161.4c0.7-2.6-0.2-5-1.9-5.4-1.6-0.5-3.5 1.3-4.2 3.9-0.6 2.6 0.2 5.1 1.9 5.5 1.7 0.4 3.6-1.4 4.2-4z"/>
		</g>
		<path id="Layer" class="s5" d="m181.5 182.9c2.6-10.8-2.8-21.4-12.2-23.7-9.3-2.3-19 4.6-21.7 15.4-2.6 10.7 2.8 21.3 12.1 23.6 9.4 2.3 19.1-4.5 21.8-15.3z"/>
		<path id="Layer" class="s2" d="m176 175.6c1-3.9-0.7-7.6-3.8-8.4-3-0.7-6.3 1.8-7.2 5.7-1 3.8 0.7 7.5 3.8 8.3 3 0.7 6.3-1.8 7.2-5.6z"/>
		<g id="Layer" style="opacity: .2">
			<path id="Layer" class="s2" d="m159.7 184.5c0.6-2.6-0.2-5.1-1.9-5.5-1.7-0.4-3.6 1.4-4.2 4-0.7 2.6 0.2 5 1.9 5.5 1.6 0.4 3.5-1.4 4.2-4z"/>
		</g>
		<g id="Layer" style="opacity: .7">
			<path id="Layer" class="s2" d="m110.2 180.1c0.3-0.9-2-2.2-5-2.9-3-0.8-5.6-0.7-5.8 0.2-0.3 0.9 2 2.2 5 2.9 3 0.8 5.6 0.7 5.8-0.2z"/>
		</g>
		<path id="Layer" class="s6" d="m138.9 219.1l-2.1 7.7 41.3 5.3 0.9-7.5z"/>
		<path id="Layer" class="s7" d="m136.3 230.8l-2.1 7.8 41.4 5.3 0.8-7.5z"/>
		<path id="Layer" class="s8" d="m36.6 187.2l-4.1 6.9 38.4 16.2 2.8-7z"/>
		<path id="Layer" class="s9" d="m32.3 198.2l-4.1 6.9 38.4 16.2 2.8-7.1z"/>
		<path id="Layer" class="s0" d="m124.6 499.2q-1.8 0-3.6-0.1c-7.6-0.8-13.5-4-17-9.4-9.2-14-2-25.6 4.3-31-4.9-10.3-11.9-19.4-20.6-26.8-10.4 5.2-23.1 4.9-35.9-1-11.8-5.4-22.6-15.1-28.8-26-9.3-16.2-6.9-31.5 6.3-40.4-13.1-38.3-9.8-74.9 14.4-122.3q0.3-0.5 0.7-0.9 0.4-0.4 1-0.6 0.5-0.1 1.1-0.1 0.6 0.1 1.1 0.3 0.5 0.3 0.9 0.7 0.4 0.5 0.5 1 0.2 0.5 0.2 1.1-0.1 0.6-0.3 1.1c-23.9 46.8-26.9 82.6-13.4 119.9 0.3 0.7 0.3 1.4 0 2q-0.3 1-1.2 1.5c-17.4 10.1-10.2 27-6.3 33.8 10.4 18.1 37.7 35.9 58.5 24 0.5-0.3 1.1-0.4 1.6-0.4 0.6 0 1.1 0.2 1.5 0.5 0.7 0.4 15.3 10.8 24.9 32.3 0.3 0.6 0.4 1.3 0.2 2-0.2 0.6-0.6 1.2-1.2 1.6-2.5 1.9-4.6 4.3-6.2 7-3 5.5-2.5 11.5 1.5 17.6 2.5 3.9 6.8 6.2 12.7 6.7 14.2 1.4 32.8-7.3 38.9-13.6 11.9-12.3 13.4-25.7 5-42.2q-0.2-0.3-0.3-0.7c-0.2-1-5.4-25.8 14.3-38.3 17.3-11 26.2-45.6 22-86q0-1.2 0.6-2.1c0.4-0.5 1-0.9 1.7-1.1 14.2-3 27.8-8.1 40.3-15.3q9.5-5.4 18.3-11.8c7.5-5.5 13.3-12.9 16.6-21.6 3.2-8.5 3.1-16.2-0.2-21.1-2.4-3.6-6.4-5.6-11.6-5.8-2.7 0-5.4 0.4-7.9 1.4-5.2 1.9-19.1 6.8-33.9 11-7 2.1-6.4 3.7-12 4.9-0.8 0.2-1.6 0.1-2.2-0.4-0.7-0.4-1.1-1-1.3-1.8-0.1-0.7 0-1.5 0.4-2.2 0.4-0.6 1.1-1.1 1.8-1.2 5.5-1.2 4.8-2.8 11.7-4.8 14.7-4.2 28.3-9.1 33.6-11 3.2-1.2 6.6-1.8 10-1.7 7 0.3 12.8 3.3 16.2 8.4 4.4 6.6 4.7 15.9 0.8 26.3-3.7 9.7-10.1 18.1-18.6 24.2q-9 6.7-18.9 12.2c-12.3 7-25.6 12.2-39.4 15.4 3.8 42.1-5.9 76.9-24.9 89-15.2 9.7-12.3 28.9-11.8 31.8 9.3 18.4 7.3 34.7-6.1 48.5-6.6 6.8-24.7 15.5-40 15.5z"/>
		<path id="Layer" class="s0" d="m143.1 269.8c18.8 4.3 43.9 11.3 52.9 30.3 3 6.7 3.2 14.4 1.6 21.5-1.3 7.1-6.2 13.4-13.3 15.4-12.3 3.3-25.1-0.9-36-6.3-3.4-1.8-8.4-4.1-11.9-5.6-7.1-2.9-14.6-4.9-22-6.8-5.3-1.4-10.7-2.8-16.1-3.9-8.7-1.9-17.6-3.3-26.3-5.4l6.7 0.1c15.8 0.2 31.9 1 47 6q9.7 3.1 19.1 7.4c11.3 5.7 24.2 12.1 37.2 9.2 2.3-0.6 4.5-1.8 6.1-3.6 1.7-1.7 2.9-3.9 3.4-6.2 1.3-4.5 1.6-9.2 0.9-13.7-2.2-12.8-14.2-20.4-25.4-25.1-8.1-3.3-16.6-5.8-25.1-7.6q-0.6-0.1-1.1-0.5-0.5-0.3-0.8-0.8-0.3-0.5-0.4-1-0.1-0.6 0.1-1.2 0.1-0.5 0.4-1 0.3-0.5 0.8-0.8 0.5-0.3 1.1-0.4 0.5-0.1 1.1 0z"/>
		<path id="Layer" class="s0" d="m193.1 315.3c-1.3-4-3.5-7.5-6.6-10.3q-1.7-1.5-3.6-2.6 2.2 0.5 4.3 1.4c4.5 1.9 8.3 5.1 11.1 9.1z"/>
		<path id="Layer" class="s0" d="m186 332.7c-1.6-5.3-5.2-9.8-9.2-13.6-0.6-0.6-1.3-1.1-1.9-1.6q2.3 0.9 4.5 2.2c4.7 2.7 9 6.2 11.9 10.8l-5.4 2.2z"/>
		<path id="Layer" class="s0" d="m88 431.3c-0.6 0-1.1-0.1-1.6-0.4-0.5-0.4-0.9-0.8-1.1-1.3-0.2-0.6-0.3-1.1-0.2-1.7 0.2-0.6 0.4-1.1 0.8-1.5 13.7-13.8 32.7-15.2 56.1-15.5 22.9-0.3 34.7-10.5 34.9-10.6 0.5-0.5 1.3-0.7 2-0.6 0.8 0 1.5 0.4 2 0.9 0.5 0.6 0.7 1.3 0.7 2.1 0 0.7-0.3 1.4-0.9 1.9-0.5 0.5-13.4 11.8-38.6 12.1-22.8 0.3-39.9 1.5-52 13.8q-0.5 0.4-1 0.6-0.5 0.2-1.1 0.2z"/>
		<path id="Layer" class="s0" d="m33.4 362.9q-0.4-0.2-0.9 0h0.1 0.1l0.5-0.2c12.2-3.4 25.3-1.2 34.6 7.7l-4.5 0.6c14.3-21.5 45-34.8 69.4-22.9 7 4.3 12.1 11 14.3 18.9-3.6-3.9-6.9-7.2-11.1-10q-4.1-2.7-8.7-4.7c-13.5-6.2-30.3-1.8-42.5 5.8-6.6 4.1-12.3 9.5-16.5 16-0.5 0.6-1.1 1.1-1.9 1.3-0.7 0.1-1.5 0-2.2-0.4-6.4-5.9-13.7-8.6-22.5-7.9q-4 0.4-7.8 1.5-0.8 0.1-1.6 0c-0.8-0.1-1.5-0.6-1.9-1.2-0.4-0.6-0.6-1.4-0.4-2.2 0.1-0.7 0.6-1.4 1.2-1.8 0.7-0.4 1.4-0.6 2.2-0.4z"/>
		<path id="Layer" class="s0" d="m68 370.6c2.7 4.8 4.7 10 5.8 15.4-2.8-4.4-6.3-8.3-10.2-11.7q-0.5-0.4-0.8-1-0.3-0.6-0.3-1.2 0-0.7 0.3-1.3 0.3-0.5 0.8-1 0.5-0.4 1.1-0.5 0.7-0.2 1.3-0.1 0.6 0.1 1.2 0.5 0.5 0.4 0.8 0.9z"/>
		<path id="Layer" class="s0" d="m58.1 397.6c-2.1-1.1-4.6-1.5-6.9-1-2.4 0.5-4.5 1.8-6 3.8-1 1.1-1.7 2.4-2.2 3.9-0.5 1.4-0.7 2.9-0.5 4.4 0.9 8.1 5.8 10.3 11.4 11.6 5.5 1.3 11.5-1.2 11.6-6.7 0-4.3-0.1-12.2-7.4-16z"/>
		<path id="Layer" class="s0" d="m52.4 379.4c2 3.1 1.7 6.8-0.7 8.3-2.4 1.6-5.9 0.3-7.9-2.7-1.9-3.1-1.1-6.3 1.2-7.8 2.4-1.5 5.4-0.8 7.4 2.2z"/>
		<path id="Layer" class="s0" d="m38.9 394.8c2.5-1.3 3.3-4.8 1.8-7.8-1.5-3.1-4.7-4.6-7.3-3.4-2.5 1.3-3.3 4.7-1.8 7.8 1.5 3.1 4.8 4.6 7.3 3.4z"/>
		<path id="Layer" class="s0" d="m32.3 407.9c2.3-1.1 3-4.2 1.6-7-1.3-2.8-4.2-4.1-6.5-3-2.2 1.1-2.9 4.2-1.6 7 1.4 2.7 4.3 4.1 6.5 3z"/>
		<path id="Layer" class="s0" d="m110.2 457.2c8-4.3 17.4-5.4 26.2-3.3-8.3-0.2-16.4 2.6-22.8 8-3.3 3-7.3-2.4-3.4-4.7z"/>
		<path id="Layer" class="s0" d="m122.5 498.1c-6.9-6.2-10.1-16.4-6.6-25.2-0.5 3.6-0.1 7.2 1.2 10.5 1.4 3.4 3.6 6.3 6.4 8.5q1.1 0.8 2.3 1.5z"/>
		<path id="Layer" class="s0" d="m139.7 494.7c-7.2-6.7-11-17.6-5.1-26.2-3.3 8 0.5 16 7.3 20.8 0.3 0.2 0.9 0.6 1.2 0.7z"/>
		<path id="Layer" class="s0" d="m201.5 312.9c-1.7-10.2-4.7-20.2-8.8-29.7q6.6 9.9 11.4 20.7c1.1 2.5 2.1 4.9 3 7.5q0.2 0.6 0.2 1.2-0.1 0.6-0.4 1.1-0.3 0.6-0.7 1-0.5 0.3-1.1 0.5-0.6 0.2-1.2 0.1-0.6-0.2-1.1-0.5-0.6-0.3-0.9-0.9-0.3-0.5-0.4-1.1z"/>
		<path id="Layer" class="s0" d="m251.6 253.4c0.4-0.9 1-1.7 1.9-2.3 0.8-0.5 1.8-0.8 2.8-0.8 2.9 0.1 7.3 0.8 9.2 3.8 3.1 4.9 2.3 15.3-0.4 17.6-2.7 2.3-10.3-2.7-12.5-8.9-1.5-4.2-1.8-7-1-9.4z"/>
		<path id="Layer" class="s0" d="m265.1 244.1c1.6-2.2 1.4-5.1-0.5-6.6-1.8-1.4-4.7-0.7-6.4 1.5-1.6 2.3-1.5 5.2 0.4 6.6 1.9 1.4 4.8 0.8 6.5-1.5z"/>
		<path id="Layer" class="s0" d="m276.2 250.3c2.3-1.6 2.9-4.7 1.4-6.8-1.5-2.1-4.5-2.5-6.8-1-2.3 1.6-2.9 4.7-1.4 6.8 1.5 2.1 4.6 2.6 6.8 1z"/>
		<path id="Layer" class="s0" d="m278.1 265c2.1-1.5 2.9-4.1 1.7-5.8-1.2-1.7-3.9-1.9-6-0.4-2.1 1.5-2.8 4-1.6 5.7 1.2 1.7 3.8 1.9 5.9 0.5z"/>
		<path id="Layer" class="s0" d="m211.6 416.6c-14.7 0-26.8-5.4-32.3-14.7-0.4-0.6-0.5-1.4-0.4-2.1 0.2-0.7 0.6-1.4 1.2-1.8 5.3-3.5 9.8-9.4 13.9-18.2 0.3-0.6 0.8-1.1 1.4-1.4 0.7-0.3 1.4-0.3 2.1-0.1 6.5 2 12-2.1 14-7 1.9-5 0.7-11.9-8.6-16.3-0.6-0.3-1-0.7-1.3-1.2-0.3-0.6-0.4-1.2-0.4-1.8 1.4-11.4 1.6-22.9 0.7-34.3-0.1-0.8 0.2-1.5 0.6-2.1 0.5-0.6 1.2-0.9 2-1 21.3-2.4 38.4 2.9 49.3 15.3 11.3 13 14.5 32.5 9 54.8-4.6 19.1-25.3 28.7-41.6 31.2q-4.8 0.7-9.6 0.7zm-25.9-15.5c6.3 7.8 19.5 11.3 34.6 9 15.7-2.3 33.2-11.5 36.8-26.7 5.1-20.5 2.4-38.1-7.7-49.7-9.1-10.4-23.4-15.1-41.5-13.6 0.6 10.2 0.4 20.4-0.7 30.6 11.2 6.3 12.3 16 9.7 22.7-2.7 6.7-9.9 12.5-18.7 11-3.7 7.4-7.8 12.9-12.5 16.7z"/>
		<g id="Layer" style="opacity: .3">
			<path id="Layer" class="s0" d="m60.6 245.6c0 0 38.1 51.6 103.7 33.2 0 0 42.7-5.3 43.6-31.3 0 0-24.4 26.4-60.3 25.1-36-1.2-87-27-87-27z"/>
		</g>
		<g id="Layer" style="opacity: .3">
			<path id="Layer" class="s0" d="m189.3 294.8c0 0 14.8 36.2-24.3 22.7-39.2-13.6-63.8-16-90.5-8.2 0 0 44.7 12.7 57.6 22.3 13 9.7 51.6 24.1 61.6-5.1 9.9-29.3-4.4-31.7-4.4-31.7z"/>
		</g>
		<g id="Layer" style="opacity: .3">
			<path id="Layer" class="s0" d="m281.6 261.6c-3.5 9.2-9.6 17.1-17.6 22.9q-8.9 6.6-18.5 12c-9.3 5.2-19 9.4-29.2 12.5-7.4 0.7-12.5 1.1-12.5 1.1l-4-15.3c77.9-7.2 81.7-56.3 81.7-56.3 3.4 5.5 3.6 13.7 0.1 23.1z"/>
		</g>
		<g id="Layer" style="opacity: .3">
			<path id="Layer" class="s0" d="m204.3 312.1c4.3 42.5-5.2 77.3-23.4 88.8-18.1 11.6-13 35.3-13 35.3 10.9 21.2 4.2 35.5-5.5 45.5-9.6 10-44.8 23.6-56.1 6.4-2-2.8-3.2-6-3.7-9.4 0.8 0.4 1.4 0.9 1.9 1.7 6.8 10.1 13.6 8.6 29.4 2.2 15.7-6.4 22.1-23.6 15.6-47.5-6.4-24-16.1-21.4-16.1-21.4 0 0-22.6 3.8-37.2 8.9-5.3 1.9-8.5 4.4-10.4 7-17.7 8.4-39.6-1.5-53.1-16.3 21.9 16.3 40.4 6.8 58.6-8.4 19-15.7 50.1-15.6 50.1-15.6 64.4-26.2 58.3-94.5 58.3-94.5l7.7 16.6q-1.5 0.4-3.1 0.7z"/>
		</g>
		<g id="Layer" style="opacity: .3">
			<path id="Layer" class="s0" d="m260 384.1c-7.4 30.6-64.4 39.8-78.3 16.3 6.3-4.1 11-11 14.9-19.4 2.5 0.8 5.2 0.9 7.8 0.2 2.5-0.6 4.8-2 6.6-3.9-8.9 24 49.9 28.6 47.9-33.5 4.4 11.1 4.9 24.9 1.1 40.2z"/>
		</g>
		<g id="Layer" style="opacity: .3">
			<path id="Layer" class="s0" d="m232.2 319.7c0 0-27.1 9.7-19.5 40.1-2.1-3.3-5.2-5.9-8.8-7.4 1.4-11.6 1.6-23.3 0.7-35 10.6-1.1 19.8-0.3 27.6 2.3z"/>
		</g>
	</g>
</svg>