<svg width="65" height="67" viewBox="0 0 65 67" fill="none" xmlns="http://www.w3.org/2000/svg">
<path opacity="0.22" d="M33.2339 66.1497C49.7431 66.1497 63.1265 52.7664 63.1265 36.2572C63.1265 19.748 49.7431 6.36462 33.2339 6.36462C16.7247 6.36462 3.34155 19.748 3.34155 36.2572C3.34155 52.7664 16.7247 66.1497 33.2339 66.1497Z" fill="black"/>
<path d="M32.7061 61.7851C49.2153 61.7851 62.5987 48.4017 62.5987 31.8925C62.5987 15.3833 49.2153 2 32.7061 2C16.1969 2 2.81348 15.3833 2.81348 31.8925C2.81348 48.4017 16.1969 61.7851 32.7061 61.7851Z" fill="#FFCB01" stroke="white" stroke-width="4" stroke-miterlimit="10"/>
<path d="M42.7414 24.4069C41.14 23.5088 39.5135 22.8055 37.9811 21.9326L38.0376 21.7944L39.84 20.9906L41.724 20.1491C42.095 19.9526 42.4814 19.7866 42.8794 19.653C43.0803 19.609 43.3504 19.7723 43.5702 19.879C44.4557 20.3186 45.3412 20.7834 46.2266 21.2355C46.7039 21.4804 47.1875 21.7191 47.6522 21.9891C47.709 22.0383 47.7545 22.099 47.7859 22.1673C47.8173 22.2355 47.8339 22.3096 47.8343 22.3848C47.8092 23.9589 47.7695 25.531 47.7151 27.101C47.7061 27.1688 47.6824 27.2337 47.6455 27.2913C47.6085 27.3488 47.5595 27.3975 47.5016 27.4338C47.0809 27.6662 46.6474 27.8734 46.2141 28.0618L43.8655 29.1671L41.1021 30.467L38.7848 31.566L35.9779 32.866C35.0673 33.293 34.1629 33.7389 33.246 34.1659C32.3292 34.593 31.3619 35.0326 30.4011 35.4722C29.66 35.8176 28.9318 36.1881 28.1908 36.5335L25.3897 37.8397C24.8182 38.1097 24.253 38.3672 23.6878 38.6435C23.5571 38.7217 23.4316 38.8076 23.3113 38.901C23.7132 39.1145 24.0647 39.3155 24.4164 39.4913L27.8704 41.212C27.9332 41.2434 28.0085 41.3439 28.0022 41.3941C27.9899 41.4385 27.9685 41.4799 27.9394 41.5156C27.9102 41.5513 27.8737 41.5805 27.8327 41.6014C26.8655 42.0284 25.8985 42.4429 24.9251 42.8574C24.4102 43.0772 23.8889 43.3032 23.3803 43.5482C23.254 43.6027 23.1159 43.6249 22.9789 43.6129C22.8418 43.6008 22.7101 43.5548 22.5953 43.4791C21.22 42.7883 19.8508 42.0912 18.4943 41.3753C18.4145 41.3305 18.3468 41.2672 18.2965 41.1907C18.2462 41.1142 18.2149 41.0268 18.2054 40.9357C18.2054 39.3532 18.2432 37.7685 18.3186 36.1818C18.34 36.0917 18.3801 36.0071 18.4363 35.9335C18.4926 35.8599 18.5638 35.799 18.6452 35.7548C19.5558 35.3152 20.4851 34.9195 21.3957 34.4988C22.3063 34.078 23.2105 33.6196 24.1211 33.1863C25.0317 32.7529 25.9488 32.3322 26.8594 31.9303L30.1815 30.3603L33.001 29.0729C33.7358 28.7275 34.4707 28.3633 35.2055 28.0116L37.937 26.7242L40.8384 25.3552L42.4964 24.5702C42.5717 24.5325 42.6158 24.4885 42.7414 24.4069Z" fill="white"/>
<path d="M31.2931 37.953C31.6762 37.7583 32.0025 37.5825 32.3354 37.4318C33.5599 36.8791 34.7973 36.3453 36.0156 35.7801C36.4741 35.5729 36.7942 35.8429 37.1333 36.0125C38.54 36.7096 39.9406 37.4318 41.341 38.1477L42.597 38.8196C42.597 38.6501 42.6533 38.5056 42.6595 38.3675C42.6595 36.226 42.6595 34.0845 42.6595 31.9431C42.6344 31.7725 42.6741 31.5987 42.7706 31.4558C42.867 31.3128 43.0132 31.2111 43.1808 31.1707C44.0035 30.8629 44.7886 30.4736 45.5861 30.1156C46.1827 29.8519 46.7666 29.5756 47.3695 29.3306C47.7903 29.1548 47.8657 29.2239 47.8657 29.6949C47.8657 33.4628 47.8657 37.2308 47.8657 40.9988C47.8838 41.1589 47.8429 41.3201 47.7504 41.452C47.6578 41.5839 47.5201 41.6774 47.3634 41.7147C46.5281 42.035 45.7181 42.4306 44.8891 42.7886C44.2611 43.0586 43.6331 43.3035 43.0051 43.5861C42.8726 43.6441 42.7281 43.6693 42.5838 43.6595C42.4395 43.6496 42.2994 43.6051 42.176 43.5296L36.524 40.6911L31.7954 38.311C31.676 38.2042 31.5254 38.0911 31.2931 37.953Z" fill="white"/>
<path d="M23.4681 24.5448C23.4384 24.6982 23.4194 24.8535 23.4114 25.0095C23.4114 27.1635 23.4114 29.3113 23.4114 31.4653C23.4262 31.5895 23.3998 31.7152 23.3363 31.8229C23.2728 31.9307 23.1755 32.0147 23.0597 32.0619C22.4317 32.3319 21.8037 32.5894 21.1757 32.872C20.3845 33.2174 19.5932 33.5691 18.8207 33.9459C18.3497 34.1782 18.1927 34.1154 18.1927 33.6068V22.6483C18.1927 21.7879 18.1929 21.8067 18.9968 21.4739C20.0581 21.0343 21.1068 20.5633 22.1367 20.1049C22.4859 19.9187 22.8545 19.7713 23.2357 19.6653C23.4949 19.665 23.7482 19.7415 23.964 19.8851C25.1572 20.4817 26.3442 21.0908 27.5311 21.6937L31.0415 23.4835L34.1315 25.0409C34.3073 25.1288 34.4832 25.2419 34.7595 25.3989C34.345 25.5998 34.0057 25.7819 33.6541 25.9389L31.6382 26.8056C31.0416 27.0693 30.4577 27.3394 29.8548 27.5843C29.4717 27.7413 29.1952 27.421 28.8938 27.2829C28.1779 26.9563 27.4872 26.5732 26.7838 26.2153L24.0897 24.8525C23.9578 24.752 23.7256 24.6641 23.4681 24.5448Z" fill="white"/>
<path d="M39.1486 18.0202C38.64 18.3782 38.2067 18.6985 37.7608 18.9999C36.8753 19.5965 35.9773 20.1868 35.0918 20.7897C35.0211 20.8507 34.931 20.8842 34.8376 20.8842C34.7442 20.8842 34.6538 20.8507 34.5831 20.7897C34.1435 20.5197 33.679 20.2873 33.2143 20.0612C33.1556 20.0365 33.0924 20.0238 33.0288 20.0238C32.9651 20.0238 32.9022 20.0365 32.8435 20.0612C32.3725 20.2999 31.9204 20.5699 31.4431 20.8023C31.3832 20.8303 31.318 20.8448 31.2518 20.8448C31.1856 20.8448 31.1201 20.8303 31.0601 20.8023C29.8041 19.9733 28.5482 19.1318 27.2922 18.2903L26.8715 18.0202L28.8306 16.9401L31.3425 15.6088C31.8198 15.3513 32.2783 15.0687 32.7681 14.8426C32.8557 14.8119 32.9486 14.7989 33.0413 14.8043C33.134 14.8097 33.2249 14.8334 33.3084 14.874C34.2881 15.3827 35.2613 15.9102 36.2347 16.4314L39.1486 18.0202Z" fill="white"/>
<path d="M39.1742 45.5326L37.2274 46.6002L34.6841 47.9504C34.2131 48.2079 33.742 48.4779 33.2647 48.7228C32.8942 48.9112 32.6369 48.6161 32.3669 48.4716C30.7718 47.6364 29.1892 46.7761 27.6066 45.922L26.9786 45.5515C27.3743 45.2689 27.7197 45.0051 28.0776 44.7602C29.0699 44.082 30.0684 43.4121 31.0732 42.7506C31.1246 42.7171 31.1826 42.6952 31.2434 42.6866C31.3041 42.6779 31.3662 42.6826 31.4249 42.7004C31.8896 42.9265 32.329 43.1965 32.7937 43.4226C32.8699 43.4613 32.9534 43.4841 33.0387 43.4894C33.124 43.4948 33.2094 43.4828 33.2899 43.454C33.7671 43.2279 34.2131 42.9453 34.6841 42.7129C34.7398 42.6853 34.8011 42.6709 34.8632 42.6709C34.9253 42.6709 34.9864 42.6853 35.042 42.7129C36.298 43.5419 37.554 44.3834 38.81 45.2249L39.1742 45.5326Z" fill="white"/>
</svg>
