<svg width="64" height="67" viewBox="0 0 64 67" fill="none" xmlns="http://www.w3.org/2000/svg">
<path opacity="0.22" d="M32.9071 66.1497C49.4163 66.1497 62.7997 52.7664 62.7997 36.2572C62.7997 19.748 49.4163 6.36462 32.9071 6.36462C16.3979 6.36462 3.01453 19.748 3.01453 36.2572C3.01453 52.7664 16.3979 66.1497 32.9071 66.1497Z" fill="black"/>
<path d="M32.1162 61.7851C48.6254 61.7851 62.0089 48.4017 62.0089 31.8925C62.0089 15.3833 48.6254 2 32.1162 2C15.607 2 2.22363 15.3833 2.22363 31.8925C2.22363 48.4017 15.607 61.7851 32.1162 61.7851Z" fill="#1B1F28" stroke="white" stroke-width="4" stroke-miterlimit="10"/>
<path d="M47.8667 23.1009H47.9734C48.0247 23.3293 48.1256 23.5437 48.2687 23.7289C48.3127 23.798 48.2687 23.911 48.3064 23.999C48.6204 24.1183 48.6141 24.3883 48.6204 24.6584L48.7648 24.6898C48.8214 24.8028 48.6958 24.9849 48.9218 24.9975V25.2926H49.0663C49.0663 25.2926 49.0663 25.3429 49.0663 25.3617C49.1102 25.5124 49.016 25.7008 49.2107 25.8139C49.2484 25.8139 49.2107 25.9834 49.2107 26.0902C49.374 26.0902 49.3803 26.1969 49.3803 26.3163C49.3803 26.4356 49.3803 26.5675 49.3803 26.6931C49.3803 26.8187 49.4241 26.8061 49.4367 26.8689C49.4492 26.9317 49.5309 27.1138 49.487 27.1515C49.3111 27.3273 49.3928 27.5409 49.3677 27.7355V27.8297H49.3174C49.2688 27.9112 49.2288 27.9975 49.1981 28.0872C49.1667 28.1814 49.2358 28.3133 49.0663 28.3384C49.0595 28.3884 49.0595 28.4391 49.0663 28.4891H49.016L48.8841 28.7278C48.815 28.8534 48.7584 28.9852 48.6517 28.9978L48.2813 29.4123C48.2813 29.519 48.187 29.6132 48.0991 29.7263C48.0172 29.826 47.9268 29.9184 47.829 30.0026L47.5089 30.3292C47.4021 30.4171 47.2952 30.505 47.201 30.5992C47.1165 30.6825 47.0369 30.7706 46.9624 30.863L46.6233 31.1832L46.328 31.4721C46.1835 31.6102 46.0769 31.7233 45.9701 31.83L45.65 32.1315H45.6813L45.248 32.3764C45.2463 32.4099 45.2463 32.4434 45.248 32.4769H45.2167L44.8902 32.7783L44.5572 33.086L44.1052 33.2996C44.0502 33.412 43.9708 33.5108 43.873 33.589C43.7753 33.6672 43.6615 33.7227 43.5397 33.7517L43.1567 34.1034L42.9243 34.386H42.6545V23.2831L42.4975 23.2328C42.4939 23.212 42.4939 23.1908 42.4975 23.17C42.4975 23.0633 42.4974 22.9565 42.3843 22.8623C42.2713 22.7681 42.2524 22.6111 42.1896 22.4855C42.1268 22.3599 41.8883 22.4855 41.882 22.3034C41.769 22.2406 41.5868 22.3662 41.5303 22.1652C41.5303 22.1652 41.4549 22.1652 41.4172 22.1652H38.3713C38.3315 22.1582 38.2904 22.1641 38.2542 22.1822C38.218 22.2003 38.1888 22.2296 38.1705 22.2657C38.1705 22.3222 37.9882 22.3034 37.8752 22.3222V22.4666H37.8126C37.7089 22.4693 37.6091 22.5075 37.5302 22.575C37.4513 22.6425 37.3978 22.735 37.3791 22.8372C37.3791 22.8874 37.3039 22.9314 37.2285 22.9628C37.2285 23.1009 37.2285 23.2391 37.2285 23.371C37.2002 23.4465 37.1666 23.52 37.1279 23.5908C37.0989 23.6474 37.0817 23.7094 37.0776 23.7729V36.741C37.0871 36.9188 37.0871 37.097 37.0776 37.2748C37.0776 37.3376 37.0086 37.4004 36.9835 37.4632C36.9671 37.5181 36.9371 37.5678 36.8958 37.6076L36.5628 37.9279C36.5762 37.935 36.587 37.9459 36.5941 37.9593C36.4747 37.997 36.318 37.9593 36.2427 38.1037C36.2427 38.1414 36.0856 38.1037 35.9977 38.1037C35.9097 38.1037 35.8154 38.1037 35.8342 38.267C35.7086 38.3047 35.5768 38.267 35.4638 38.4052C35.3508 38.5433 35.1812 38.4052 35.0054 38.4052V27.3713C35.0054 27.2457 35.0367 27.0761 34.9677 27.0071C34.9296 26.9674 34.901 26.9198 34.8836 26.8676C34.8663 26.8155 34.8604 26.7602 34.8671 26.7056L34.5031 26.3477L34.3084 26.2221V26.1781H34.0131C34.0131 26.1279 34.0132 26.0776 33.9818 26.0211H30.5088C30.5088 26.0672 30.4962 26.1174 30.4711 26.1718H30.2013L29.9814 26.4544L29.6613 26.781L29.6987 26.8249H29.5668C29.5652 26.8416 29.5652 26.8585 29.5668 26.8752C29.5668 27.1201 29.5668 27.365 29.5668 27.6099V39.253C29.5668 39.3848 29.6234 39.523 29.4601 39.6423C29.2969 39.7616 29.4288 39.9123 29.4163 40.0191C29.2907 40.1447 29.1776 40.2452 29.0646 40.3519L29.1023 40.3896C29.052 40.4587 28.8572 40.3457 28.9263 40.5215C28.7693 40.6283 28.5182 40.4461 28.4491 40.735H28.1352C28.0661 40.735 27.9844 40.735 27.9782 40.8292C27.9782 40.8292 27.928 40.8669 27.8966 40.8669H27.3563V30.662H27.2999L27.0487 30.3857C26.9734 30.304 26.9044 30.2161 26.8227 30.1407C26.772 30.095 26.7256 30.0446 26.6844 29.99C26.5777 29.9335 26.4144 29.99 26.3579 29.8267C26.3579 29.8267 26.2826 29.8267 26.2386 29.8267H22.9668C22.86 29.8267 22.747 29.8268 22.6905 29.9398C22.6905 29.9398 22.59 29.9398 22.5712 29.9712L22.1879 30.4108L22.2195 30.4485H22.0938C21.8821 31.0002 21.8173 31.5974 21.9055 32.1817C21.9055 35.0642 21.9055 37.953 21.9055 40.8418V41.1369H21.8552C21.8072 41.2109 21.7651 41.2886 21.7295 41.3693C21.7295 41.4258 21.7295 41.4886 21.6353 41.5263C21.5411 41.564 21.5789 41.6896 21.5538 41.7963L21.2711 41.834C21.2692 41.8675 21.2692 41.901 21.2711 41.9345C21.1996 41.9923 21.1242 42.0447 21.0451 42.0915C20.9792 42.1186 20.909 42.1335 20.8378 42.1354C20.4987 42.1354 20.1533 42.1354 19.8142 42.1354C19.7577 42.1354 19.7012 42.192 19.6447 42.2108C19.6061 42.2326 19.5631 42.2455 19.5189 42.2485C19.1547 42.2485 18.7906 42.2485 18.4264 42.2485C18.3573 42.2485 18.2943 42.1857 18.2252 42.1669C18.1561 42.148 17.9994 42.1292 17.8864 42.1103C17.7733 42.0915 17.7482 42.1103 17.7042 42.0161C17.6603 41.9219 17.5282 41.9659 17.4905 41.9596L17.095 41.5765L16.8187 41.2814C16.7559 41.1809 16.6869 41.0804 16.6304 40.9799C16.5739 40.8795 16.6304 40.9046 16.6304 40.8732C16.6304 40.8418 16.6617 40.6848 16.5172 40.6722C16.5172 40.6722 16.5174 40.6094 16.486 40.578C16.4546 40.5466 16.486 40.4901 16.486 40.4901C16.2913 40.4901 16.3541 40.308 16.329 40.1887C16.1092 40.1573 16.2222 39.9752 16.172 39.8496C16.0275 39.8496 16.0211 39.7365 16.0085 39.6172C15.996 39.4979 16.0714 39.3974 15.8893 39.366C15.8893 39.366 15.8578 39.1901 15.839 39.0897L15.701 39.052C15.6696 38.9138 15.7009 38.7757 15.5753 38.6501C15.4497 38.5245 15.544 38.4114 15.5314 38.2796H15.3805C15.3805 38.1728 15.3805 38.0723 15.3805 37.9718C15.3805 37.8714 15.3804 37.8086 15.28 37.796C15.2648 37.749 15.2544 37.7006 15.2487 37.6516C15.2173 37.5323 15.3176 37.3564 15.0978 37.3124C15.0978 37.3124 15.0978 37.2434 15.0978 37.212C15.0978 37.1806 15.0978 37.011 15.0978 36.9105C15.0978 36.81 15.0978 36.7849 15.0978 36.7724C14.8466 36.584 15.035 36.3076 14.9283 36.069C14.8813 36.0599 14.8353 36.0473 14.7903 36.0313C14.7903 35.9057 14.7903 35.7676 14.7903 35.6294C14.7903 35.4913 14.828 35.4222 14.6836 35.3782C14.6836 35.3782 14.6836 35.2777 14.6836 35.2275C14.6836 34.9072 14.6836 34.5995 14.6836 34.2604C14.6836 34.2039 14.6207 34.1536 14.5955 34.0971C14.5592 34.0287 14.5358 33.9542 14.5266 33.8773C14.5266 33.1174 14.5266 32.3576 14.5266 31.604C14.5266 31.0765 14.5266 30.5552 14.5266 30.0277C14.5266 29.9461 14.4888 29.8268 14.6458 29.8142C14.6458 29.8142 14.6897 29.7263 14.6897 29.6823C14.6897 29.3934 14.6897 29.1108 14.6897 28.822C14.6897 28.7717 14.74 28.7215 14.7651 28.6712C14.7881 28.6328 14.8029 28.59 14.809 28.5456C14.809 28.3824 14.809 28.2254 14.809 28.0495C14.9974 28.0495 14.9787 27.9177 14.9976 27.7983C15.0164 27.679 14.9284 27.4969 15.1168 27.3776C15.1671 27.3462 15.1168 27.1641 15.1168 27.051C15.1168 26.938 15.0666 26.7998 15.2487 26.7559C15.2801 26.7559 15.2486 26.6114 15.2925 26.5423C15.3365 26.4733 15.2423 26.3163 15.4118 26.266C15.4495 26.266 15.4118 26.0776 15.4118 25.9583C15.5688 25.9583 15.5751 25.8704 15.5814 25.7511C15.5877 25.6317 15.5816 25.5438 15.6884 25.4496C15.7952 25.3554 15.726 25.1796 15.7448 25.0226L15.8702 24.9912C15.9456 24.7965 16.0148 24.6081 16.1027 24.3946H16.1968C16.2722 24.2816 16.1216 24.0869 16.3603 24.068C16.3603 23.9738 16.3603 23.8859 16.3603 23.7854H16.4795L16.8374 22.9691H16.9818C16.9818 22.8811 16.9818 22.7932 16.9818 22.7179C17.0226 22.6708 17.0669 22.6267 17.114 22.586L17.271 22.4604C17.271 22.2657 17.3837 22.1212 17.6098 22.0145C17.6098 21.9266 17.5595 21.757 17.7542 21.7005C17.7542 21.7005 17.7542 21.6251 17.7542 21.5686H17.9051C17.9742 21.2672 18.0685 21.1353 18.1627 21.1165L18.527 20.7397C18.6526 20.6078 18.6901 20.4194 18.8597 20.3001C19.0292 20.1808 19.0105 20.1054 19.1047 20.0238C19.1989 19.9421 19.2742 19.8165 19.3684 19.716C19.4626 19.6156 19.5568 19.5465 19.6824 19.4397C19.6824 19.3267 19.833 19.2639 19.9461 19.1822C20.0368 19.1028 20.1169 19.012 20.1846 18.9122L20.3481 18.7552C20.3481 18.7552 20.3481 18.7552 20.3858 18.7552C20.5993 18.7552 20.687 18.5919 20.8001 18.4538C20.8001 18.4161 20.9007 18.4161 20.9258 18.3721L21.2524 18.0581L21.2901 18.0895C21.2936 18.0414 21.2936 17.9932 21.2901 17.9451C21.5036 17.9451 21.6918 17.8634 21.7546 17.6185L22.2256 17.405C22.2633 17.2543 22.4142 17.1475 22.6779 17.1161C22.7219 16.934 22.8787 16.8273 23.155 16.8021C23.155 16.7519 23.155 16.7079 23.155 16.6828L23.9652 16.3186C23.9652 16.1302 24.2352 16.2181 24.2666 16.149C24.342 15.9481 24.499 16.0674 24.6183 15.9983C24.6183 15.8539 24.7314 15.8539 24.8508 15.8413C24.9701 15.8288 25.0642 15.8853 25.0893 15.7283C25.0893 15.7283 25.1774 15.7283 25.215 15.6969C25.2904 15.6644 25.3586 15.6174 25.4159 15.5587C25.5415 15.5022 25.686 15.5587 25.8053 15.4143C25.9246 15.2698 26.044 15.3766 26.1822 15.364C26.1822 15.3201 26.1821 15.2698 26.2135 15.2133H26.5149C26.5902 15.2133 26.6906 15.251 26.7032 15.1128C26.7032 15.1128 26.7851 15.1128 26.8227 15.0752C26.9546 15.0438 27.1365 15.1442 27.1867 14.9244C27.1867 14.9244 27.2496 14.9244 27.2873 14.9244C27.325 14.9244 27.5134 14.9244 27.6264 14.9244C27.7395 14.9244 27.8022 14.9558 27.8147 14.824C27.8147 14.824 27.8841 14.7926 27.9217 14.7926H28.2796C28.3926 14.7926 28.4615 14.7926 28.4427 14.6167C28.5934 14.6167 28.7318 14.6167 28.8637 14.6167C28.9956 14.6167 29.0708 14.6544 29.121 14.51C29.121 14.51 29.2152 14.51 29.2654 14.51H30.2013C30.3143 14.51 30.4021 14.51 30.3896 14.3467H34.321V14.4032C34.4004 14.4512 34.4873 14.4852 34.5782 14.5037C34.8483 14.5037 35.1246 14.5037 35.4009 14.5037C35.5014 14.5037 35.6271 14.4534 35.6837 14.6104C35.6837 14.6104 35.7841 14.6104 35.8407 14.6104H36.2739L36.3242 14.7926C36.4351 14.7863 36.5461 14.7863 36.6569 14.7926C36.7637 14.7926 36.9146 14.7235 36.9648 14.9119C36.9648 14.9119 37.0274 14.9119 37.0651 14.9119H37.4232C37.5049 14.9119 37.5864 14.9119 37.6115 15.0249C37.6115 15.0249 37.756 15.0626 37.8314 15.0877C37.9067 15.1128 38.0511 15.0249 38.0825 15.2008C38.0825 15.2008 38.2209 15.2008 38.2962 15.2008C38.3716 15.2008 38.5725 15.1694 38.5599 15.3703C38.7106 15.4017 38.8423 15.3703 38.9616 15.4896C39.0809 15.609 39.1942 15.5273 39.3323 15.5462C39.3323 15.5838 39.3322 15.6341 39.3636 15.6906H39.577C39.6084 15.6906 39.6589 15.6906 39.6589 15.6906C39.6966 15.8916 39.866 15.7722 39.9916 15.8288V15.9669H40.0732C40.2051 15.9983 40.3685 15.9292 40.4439 16.1113C40.4439 16.1113 40.5444 16.1113 40.6009 16.1113C40.6574 16.1113 40.6009 16.2118 40.6009 16.2683H40.8898C40.8898 16.4819 41.0905 16.3751 41.1847 16.463L41.3608 16.5509C41.4361 16.5509 41.5176 16.5509 41.549 16.6765C41.5804 16.8021 41.6747 16.7833 41.7312 16.8587H42.0013C42.0013 16.9089 42.0013 16.9529 42.0013 16.9905L42.4533 17.2229C42.4516 17.2564 42.4516 17.2899 42.4533 17.3234L42.8866 17.5243L43.2322 17.8697C43.2975 17.9208 43.3692 17.963 43.4456 17.9953C43.5824 18.0448 43.6979 18.1402 43.7722 18.2654L44.1052 18.5731L44.4002 18.8557C44.4755 18.931 44.5447 19.0127 44.62 19.0755C44.6954 19.1383 44.8337 19.3016 44.9027 19.3644C44.977 19.438 45.0589 19.5033 45.1474 19.559L45.493 19.961L45.857 20.3315C45.97 20.4382 46.0705 20.545 46.1836 20.6643C46.2966 20.7836 46.284 20.8025 46.328 20.8778C46.3719 20.9532 46.4476 21.1542 46.6171 21.1856C46.6862 21.33 46.7614 21.4681 46.8493 21.644C46.9381 21.6824 47.0122 21.7482 47.0609 21.8319C47.1095 21.9155 47.13 22.0125 47.1194 22.1087C47.3769 22.1087 47.3958 22.3787 47.5466 22.5106C47.6973 22.6425 47.7098 22.8748 47.7977 23.0946L47.8667 23.1009Z" fill="white"/>
<path d="M46.8739 42.6377L46.6792 43.0333L46.3401 43.3975H46.3716C46.3214 43.4289 46.2271 43.4541 46.2334 43.4792C46.2334 43.6425 46.1016 43.7115 46.0451 43.8308C45.9886 43.9502 45.9446 43.8748 45.9258 43.9188L45.6179 44.239L45.2978 44.6158L44.9145 44.9738L44.4938 45.338L44.1172 45.7085C44.1172 45.7965 43.9851 45.8844 43.8281 45.9346C43.7634 45.9646 43.7042 46.0049 43.6524 46.0539L43.2881 46.3805L43.3258 46.4245C43.2002 46.4245 43.0432 46.4245 42.9867 46.5815C42.9867 46.5815 42.8989 46.5815 42.8613 46.5815C42.8306 46.679 42.7682 46.7636 42.684 46.8216C42.5998 46.8796 42.4985 46.9078 42.3964 46.9017C42.3769 46.9782 42.3357 47.0473 42.2777 47.1008C42.2198 47.1543 42.1476 47.1899 42.0698 47.2032C41.9254 47.2346 41.9192 47.2032 41.8941 47.3727C41.7748 47.4104 41.6178 47.3727 41.555 47.5235C41.555 47.5235 41.4671 47.5235 41.4106 47.5235C41.407 47.5757 41.407 47.6282 41.4106 47.6805H41.2787C41.2096 47.6805 41.0966 47.6491 41.0966 47.7935H41.0588C40.8893 47.7433 40.8013 47.9128 40.6694 47.9505C40.5375 47.9882 40.6193 48.0447 40.6004 48.1012C40.5816 48.1577 40.3366 48.0635 40.2613 48.2394C40.2613 48.2833 40.0918 48.2394 39.9976 48.2394C39.9034 48.2394 39.9975 48.3273 39.9598 48.3901H39.7526C39.6646 48.3901 39.5768 48.3901 39.514 48.4968C39.4512 48.6036 39.3319 48.5408 39.2251 48.5596C39.1184 48.5785 39.2251 48.6476 39.1874 48.7041C39.0975 48.6976 39.0072 48.6976 38.9173 48.7041C38.8294 48.7041 38.7414 48.7041 38.6848 48.8234C38.6283 48.9427 38.4966 48.8234 38.3773 48.8548C38.3773 48.9992 38.3017 49.0181 38.1887 49.0244C38.0757 49.0306 37.9565 49.0244 37.856 49.1374C37.7555 49.2504 37.6049 49.1374 37.473 49.1688C37.3411 49.2002 37.2405 49.1688 37.2719 49.3446H36.9014C36.8261 49.3446 36.7132 49.307 36.7006 49.4514C36.6635 49.4607 36.6245 49.4607 36.5874 49.4514H36.1416C36.0348 49.4514 35.9093 49.4514 35.9407 49.6272H35.413C35.3063 49.6272 35.1871 49.5896 35.118 49.7277C35.118 49.7277 35.03 49.7277 34.9797 49.7277H33.9059C33.8243 49.7277 33.7237 49.7277 33.6986 49.8407C33.6986 49.8407 33.6233 49.8847 33.5793 49.8847H31.0673C31.0297 49.8847 30.9606 49.8847 30.9606 49.8533C30.9167 49.6838 30.7785 49.7277 30.6718 49.7214C30.4457 49.7214 30.2259 49.7214 30.0061 49.7214C29.7863 49.7214 29.7297 49.7717 29.6418 49.6147C29.6418 49.6147 29.5665 49.6147 29.5225 49.6147H28.8945C28.8945 49.4326 28.794 49.4263 28.6872 49.4263H28.2917C28.21 49.4263 28.1032 49.464 28.0844 49.3195C28.0844 49.3195 28.0152 49.3195 27.9712 49.3195C27.9273 49.3195 27.7453 49.3195 27.6385 49.3195C27.5624 49.2977 27.4904 49.2638 27.4251 49.219C27.4281 49.194 27.4281 49.1687 27.4251 49.1437H27.0357C26.9477 49.1437 26.841 49.1751 26.7845 49.0306C26.7845 48.9867 26.6025 49.0306 26.5208 48.9553C26.4518 48.9064 26.3781 48.8643 26.301 48.8297C26.1879 48.7983 26.0684 48.8611 25.968 48.7166C25.8675 48.5722 25.6981 48.679 25.5411 48.6664C25.5411 48.6224 25.5097 48.5722 25.4908 48.522H25.3902C25.3086 48.522 25.1955 48.5596 25.1704 48.4026C25.1704 48.4026 25.0072 48.3712 24.9067 48.3524C24.9067 48.3147 24.9067 48.2645 24.9067 48.208C24.6118 48.2132 24.324 48.1179 24.0904 47.9379C23.9774 47.7307 23.7386 47.7935 23.613 47.6239C23.5753 47.5737 23.4373 47.5862 23.3306 47.5674C23.3306 47.5234 23.3306 47.4795 23.3306 47.4167H23.2048C23.1358 47.4167 23.0291 47.4167 23.0166 47.3037C23.0166 47.3037 22.9159 47.3037 22.8783 47.2283L22.6648 47.0839C22.5455 47.0022 22.4262 46.9206 22.3131 46.8327L22.3444 46.7887H22.0871L21.886 46.5312L21.9237 46.4747H22.2628C22.357 46.4747 22.4826 46.5124 22.5391 46.3742C22.5391 46.3742 22.6146 46.3742 22.6523 46.3742H23.3306C23.3306 46.1921 23.4248 46.1921 23.5378 46.1921C23.68 46.2016 23.8225 46.2016 23.9647 46.1921C24.0966 46.1921 24.2474 46.2361 24.3541 46.0853C24.3541 46.0414 24.4985 46.0853 24.5801 46.0853H25.0762C25.0762 45.9158 25.1957 45.9032 25.3213 45.9032C25.4278 45.9126 25.5348 45.9126 25.6414 45.9032C25.7356 45.9032 25.8489 45.9409 25.8928 45.7965C25.8928 45.7965 25.968 45.7965 26.0057 45.7965H26.3638C26.4015 45.7965 26.4705 45.7965 26.4831 45.7965C26.5961 45.5516 26.8223 45.6834 26.9918 45.6395C27.0596 45.6145 27.1245 45.5829 27.1862 45.5453C27.2221 45.5291 27.2603 45.5185 27.2994 45.5139H27.7955C27.7955 45.3129 27.9338 45.3317 28.0531 45.3317C28.1724 45.3317 28.279 45.3317 28.3355 45.3317C28.4988 45.1873 28.75 45.2815 28.8694 45.181C28.9887 45.0806 29.2337 45.1057 29.4284 45.0492C29.4284 44.8922 29.5289 44.8922 29.6482 44.8859C29.7485 44.8953 29.8494 44.8953 29.9496 44.8859C29.9936 44.8859 30.0313 44.8294 30.0815 44.8105C30.1424 44.7872 30.2054 44.7703 30.2698 44.7603C30.3828 44.7603 30.5337 44.8168 30.5776 44.6158C30.5776 44.6158 30.7281 44.6158 30.8098 44.5782C30.8914 44.5405 31.0108 44.6284 31.0296 44.4714C31.0624 44.4616 31.0974 44.4616 31.1302 44.4714H31.5006C31.5006 44.327 31.5887 44.2956 31.7143 44.2956C31.8399 44.2956 31.9467 44.3332 32.0158 44.1888C32.0158 44.1448 32.1727 44.1888 32.2543 44.1574H32.4616C32.4616 44.1072 32.4616 44.0569 32.4616 43.9941C32.4616 43.9313 32.6373 43.9941 32.7189 43.9941C32.8005 43.9941 32.8446 43.9941 32.8572 43.9941C32.9263 43.8246 33.0832 43.9062 33.215 43.856C33.215 43.8183 33.2152 43.768 33.2592 43.7178H33.5667C33.6484 43.7178 33.7177 43.7178 33.7553 43.611C33.793 43.5043 33.9186 43.611 34.019 43.5671C34.1195 43.5231 34.019 43.4729 34.019 43.4227C34.1258 43.4227 34.2198 43.4227 34.314 43.4227C34.4082 43.4227 34.4271 43.3473 34.4962 43.3284C34.5951 43.2974 34.6957 43.2723 34.7976 43.2531C34.7976 43.2531 34.7976 43.1777 34.8353 43.1212H35.03H35.1116C35.1618 42.9265 35.3253 43.0145 35.4446 42.9831V42.9328C35.5262 42.8951 35.6078 42.8449 35.6957 42.8135C35.7837 42.7821 35.8965 42.8135 35.9656 42.6942C36.0347 42.5749 36.1415 42.6628 36.2483 42.6502C36.2571 42.5991 36.2697 42.5487 36.286 42.4995H36.3992C36.4745 42.4995 36.5937 42.4995 36.6 42.3864L37.1903 42.1918C37.1926 42.1499 37.1926 42.108 37.1903 42.0662H37.3286C37.3977 42.0662 37.4793 42.0662 37.5233 41.9657C37.5673 41.8652 37.6991 41.9155 37.8122 41.8966C37.8122 41.8589 37.8122 41.8087 37.8122 41.7647C37.9378 41.7208 38.0946 41.7961 38.17 41.6203C38.17 41.5826 38.3334 41.6203 38.4276 41.5826C38.5218 41.5449 38.4275 41.4884 38.4589 41.4382C38.5644 41.4422 38.6689 41.4144 38.7584 41.3584C38.848 41.3024 38.9184 41.2208 38.9611 41.1242C39.049 41.074 39.2188 41.1744 39.269 40.9797C39.269 40.9483 39.4322 40.9797 39.5201 40.9421C39.5578 40.8432 39.6266 40.7591 39.7161 40.7025C39.8055 40.6459 39.9107 40.6198 40.0163 40.6281V40.4711C40.1481 40.4397 40.3113 40.5088 40.3615 40.3204C40.3615 40.3204 40.4497 40.3204 40.4937 40.3204V40.2638C40.5615 40.22 40.6328 40.1822 40.7071 40.1508C40.7699 40.1508 40.8577 40.1508 40.8577 40.0503C40.8577 40.0503 40.8579 40.0126 40.8893 40.0126C41.0777 40.0691 41.1467 39.8745 41.2723 39.8117C41.3979 39.7489 41.4293 39.6484 41.5173 39.5856C41.606 39.5508 41.6989 39.5276 41.7935 39.5165C41.8202 39.4269 41.8748 39.3481 41.9493 39.2917C42.0239 39.2352 42.1146 39.204 42.2081 39.2025L42.478 38.9074L42.723 38.876C42.723 38.832 42.7228 38.7818 42.7542 38.7315L42.7858 38.7629L43.1311 38.4489C43.2065 38.3736 43.3699 38.4489 43.4138 38.2668C43.4138 38.2668 43.5015 38.2668 43.5141 38.2668L43.7591 37.9591C43.8533 37.9151 44.0542 38.0156 44.0354 37.8398L44.4061 37.5069L44.7952 37.149C44.882 37.1334 44.9635 37.0965 45.0326 37.0417C45.1016 36.9869 45.1562 36.9159 45.1911 36.835C45.2351 36.7596 45.3479 36.7157 45.4232 36.6529C45.487 36.5975 45.5478 36.5388 45.6054 36.477C45.7121 36.364 45.8252 36.2572 45.9319 36.1505L46.2524 35.8365L46.5725 35.5288L46.9055 35.1959L47.2069 34.8631L47.5271 34.5302L47.8349 34.21C47.9291 34.1095 48.0357 34.0216 48.1173 33.9148C48.199 33.808 48.1865 33.739 48.2305 33.6699L48.538 33.337C48.6128 33.2994 48.6783 33.2454 48.7294 33.1791C48.7805 33.1128 48.816 33.0359 48.8333 32.954C48.8333 32.91 48.8962 32.866 48.9339 32.8284C48.9716 32.7907 48.9839 32.8284 48.9965 32.797C49.0462 32.7022 49.1009 32.61 49.1599 32.5207C49.1599 32.4893 49.2542 32.5207 49.2982 32.483L49.5178 32.0308L49.6496 31.9303C49.6988 31.8875 49.7451 31.8414 49.7879 31.7922C49.8256 31.7168 49.7124 31.5159 49.951 31.5347C49.9586 31.4541 49.9954 31.379 50.0544 31.3235C50.1133 31.2681 50.1906 31.236 50.2715 31.2333C50.2746 31.2898 50.2746 31.3464 50.2715 31.4028C50.2715 32.1501 50.2715 32.8912 50.2715 33.6385C50.2715 33.6887 50.2716 33.7704 50.2276 33.7704C50.0895 33.7704 50.1145 33.896 50.1145 33.9839C50.1145 34.3356 50.1145 34.6872 50.1145 35.0389C50.0953 35.1049 50.0679 35.1682 50.0329 35.2273C50.0095 35.2812 49.9945 35.3384 49.9888 35.3969C49.9888 35.5978 49.9888 35.7988 49.9888 36.0249C49.9679 36.0983 49.9362 36.1682 49.8946 36.2321H49.8192C49.8192 36.3514 49.8192 36.4707 49.8192 36.5838C49.8192 36.6968 49.8569 36.7973 49.7125 36.835C49.7125 36.835 49.7125 36.9166 49.7125 36.9606C49.7125 37.0045 49.7125 37.1867 49.7125 37.3185C49.5429 37.3185 49.5368 37.4253 49.5368 37.5446C49.5368 37.6639 49.5368 37.733 49.5368 37.8272C49.5368 37.9214 49.5368 37.9089 49.5368 37.9151C49.3546 37.9968 49.4426 38.1663 49.4049 38.2919C49.3949 38.3259 49.377 38.3572 49.3531 38.3833C49.3291 38.4094 49.2996 38.4297 49.2666 38.4426C49.1913 38.7001 49.1223 38.9576 49.0406 39.2465H48.94C48.8898 39.3721 48.9777 39.5354 48.7956 39.5982C48.7642 39.5982 48.7956 39.7426 48.7956 39.7866C48.6328 39.9808 48.5091 40.2047 48.4313 40.4459C48.3371 40.5917 48.2514 40.7427 48.1741 40.8981C48.0987 41.0677 48.042 41.2435 47.9729 41.4382L47.8475 41.4696C47.8506 41.5093 47.8506 41.5492 47.8475 41.5889C47.8475 41.658 47.8472 41.7647 47.7405 41.7773C47.7405 41.7773 47.7029 41.8778 47.6589 41.9155C47.6028 41.9796 47.5565 42.0515 47.5209 42.129C47.5025 42.2055 47.4642 42.2758 47.4102 42.3331C47.3563 42.3904 47.2883 42.4326 47.2131 42.4555C47.2181 42.5558 47.1901 42.6549 47.1333 42.7377C47.0766 42.8206 46.9944 42.8825 46.8991 42.914L46.8739 42.6377Z" fill="white"/>
</svg>
