<svg width="64" height="67" viewBox="0 0 64 67" fill="none" xmlns="http://www.w3.org/2000/svg">
<path opacity="0.22" d="M31.8923 66.1497C48.4015 66.1497 61.7849 52.7664 61.7849 36.2572C61.7849 19.748 48.4015 6.36462 31.8923 6.36462C15.3831 6.36462 2 19.748 2 36.2572C2 52.7664 15.3831 66.1497 31.8923 66.1497Z" fill="black"/>
<path d="M31.8923 61.7851C48.4015 61.7851 61.7849 48.4017 61.7849 31.8925C61.7849 15.3833 48.4015 2 31.8923 2C15.3831 2 2 15.3833 2 31.8925C2 48.4017 15.3831 61.7851 31.8923 61.7851Z" fill="#FE0002" stroke="white" stroke-width="4" stroke-miterlimit="10"/>
<path d="M46.0471 22.0517V22.6797C46.0471 22.6797 46.0471 22.73 46.0471 22.7614C46.0393 22.8437 46.0267 22.9255 46.0094 23.0063C45.9278 23.4459 45.8399 23.8729 45.7583 24.3C45.5196 25.4178 45.2851 26.5335 45.0548 27.6472L44.5274 30.1592L44.138 32.0431L43.2524 36.2444L42.8507 38.1284C42.7 38.838 42.5553 39.554 42.4046 40.2636L41.4816 44.6596C41.3952 45.123 41.2272 45.5674 40.9854 45.9721C40.8546 46.204 40.6742 46.4042 40.4571 46.5584C40.24 46.7125 39.9915 46.8168 39.7295 46.8638H39.6792H39.5786H39.2398H39.1769H39.0576C38.9346 46.8443 38.8129 46.817 38.6933 46.7822C38.2566 46.643 37.8467 46.4307 37.4812 46.1542L34.0588 43.5731L31.4272 41.595L28.6328 44.2514L28.4068 44.4649C28.2436 44.6282 28.0675 44.7914 27.8917 44.9484C27.6921 45.1474 27.4439 45.2904 27.1717 45.3632C26.8995 45.4359 26.6129 45.4358 26.3407 45.3629C26.0949 45.2893 25.8679 45.1629 25.6759 44.9926C25.4839 44.8224 25.3316 44.6122 25.2292 44.377C25.158 44.2331 25.1336 44.0706 25.1599 43.9123C25.2164 43.2843 25.2668 42.606 25.3233 41.9592L25.3923 41.1177C25.4237 40.766 25.4489 40.4143 25.4803 40.0626L25.518 39.554C25.518 39.24 25.5682 38.926 25.5996 38.6182C25.6148 38.4209 25.7046 38.2368 25.8507 38.1033L29.7193 34.5865L37.9648 27.0883L37.3368 27.4965L26.0767 34.4798L23.2697 36.2256C23.1762 36.2814 23.0719 36.3169 22.9637 36.3299C22.8555 36.3429 22.7459 36.333 22.6417 36.3009L18.5785 35.0073L17.6806 34.7247L17.1091 34.5426L15.8908 34.1532C15.5589 34.0409 15.2609 33.8465 15.0242 33.588C14.8243 33.3669 14.702 33.0865 14.6759 32.7896C14.6498 32.4926 14.7215 32.1952 14.8798 31.9427C15.116 31.5553 15.4641 31.2488 15.8782 31.0635C16.1357 30.9442 16.393 30.8437 16.6442 30.7432L16.8012 30.6867C17.5988 30.3727 18.3902 30.0587 19.1878 29.7635L37.5128 22.6609L39.987 21.7064L41.4439 21.1412C41.9714 20.9402 42.4925 20.733 43.02 20.5132C43.3838 20.3656 43.7708 20.2827 44.1631 20.2682C44.4311 20.2453 44.7007 20.2843 44.9512 20.3823C45.2017 20.4803 45.4262 20.6347 45.6074 20.8335C45.8538 21.119 46.0111 21.4705 46.0597 21.8445V21.9827V22.0769L46.0471 22.0517ZM44.7911 22.5604V22.1522V22.0266C44.7788 21.8871 44.7263 21.7541 44.6403 21.6436C44.5712 21.5619 44.4707 21.4928 44.1818 21.5054C43.9299 21.5166 43.6816 21.5697 43.4471 21.6624L41.8836 22.2904L40.4203 22.8619L37.9522 23.8164L19.6272 30.9128L17.2409 31.8359L17.0778 31.8987C16.8392 31.9929 16.613 32.0808 16.3995 32.1813C16.2108 32.2558 16.0517 32.3905 15.9472 32.5644C15.8907 32.6586 15.9472 32.69 15.9472 32.7151C16.0333 32.8132 16.144 32.8869 16.2677 32.9286L17.4669 33.3117L18.0449 33.4938L18.9492 33.7827L22.7862 35.0073L25.3987 33.3871L36.6523 26.4038L38.6366 25.1478L38.8187 25.0347C39.0448 24.8903 39.2711 24.7459 39.516 24.614C39.8457 24.4249 40.223 24.3355 40.6025 24.3565C40.7524 24.3634 40.8978 24.4086 41.0253 24.4878C41.1528 24.5669 41.258 24.6774 41.3307 24.8087C41.3946 24.9422 41.4227 25.0901 41.4117 25.2378C41.4007 25.3854 41.3512 25.5276 41.2682 25.6502C41.1749 25.8015 41.0608 25.939 40.929 26.0584C40.3387 26.6047 39.7358 27.1511 39.1392 27.6911L30.5607 35.4846L26.8304 38.882C26.8304 39.1269 26.7864 39.3718 26.7676 39.6168L26.7298 40.1317C26.7298 40.4834 26.6673 40.8351 26.6421 41.1867L26.5728 42.0283C26.5163 42.6563 26.4661 43.2843 26.4158 43.9123C26.4402 43.9618 26.4746 44.0057 26.5167 44.0414C26.5589 44.077 26.608 44.1036 26.6608 44.1195C26.7488 44.1195 26.8554 44.1572 27.0313 43.9939C27.2071 43.8306 27.358 43.6862 27.5213 43.5355L27.7473 43.3157L30.6171 40.5902L30.8308 40.3892L31.3205 39.9245L32.3254 40.6781L34.8373 42.5621L38.26 45.1431C38.5052 45.3385 38.7841 45.4875 39.0828 45.5827L39.3023 45.633H39.3842H39.5286C39.6155 45.6117 39.6968 45.5722 39.7672 45.517C39.8376 45.4617 39.8954 45.3921 39.9367 45.3127C40.0948 45.0314 40.2052 44.7258 40.2633 44.4084L41.1863 40.0124C41.337 39.3028 41.4877 38.5869 41.6321 37.8772L42.0341 35.9932L42.9197 31.792L43.3091 29.908L43.8366 27.396C44.071 26.2865 44.3055 25.1708 44.54 24.0488L44.7911 22.7928C44.7911 22.7551 44.7911 22.6986 44.7911 22.6484V22.5855V22.5604Z" fill="white"/>
<path d="M44.7845 22.1524V22.6234C44.7845 22.68 44.7845 22.7302 44.7845 22.7679C44.6966 23.22 44.6152 23.6282 44.5272 24.0239L43.8299 27.3774L43.3025 29.8893L42.9131 31.7733L42.0278 35.9746L41.6258 37.8586C41.4814 38.5745 41.3307 39.2842 41.18 40.0001L40.2567 44.396C40.1996 44.7137 40.0892 45.0195 39.9301 45.3003C39.891 45.3813 39.8341 45.4522 39.7633 45.5077C39.6926 45.5632 39.6099 45.6019 39.522 45.6206H39.4591H39.3776H39.296L39.0761 45.5704C38.7769 45.4765 38.4978 45.3274 38.2534 45.1308L34.831 42.5497L32.3191 40.6657L31.3142 39.9184L30.8242 40.3769L30.6108 40.5778L27.7409 43.3033L27.5147 43.5231L27.0249 43.9878C26.8491 44.1448 26.7424 44.1323 26.6545 44.1072C26.6024 44.0917 26.5537 44.0659 26.5116 44.0314C26.4696 43.9969 26.4349 43.9543 26.4095 43.9062L26.5601 42.0222L26.6355 41.1807C26.6355 40.829 26.6921 40.4836 26.7235 40.1319L26.7612 39.617C26.7612 39.3658 26.799 39.1209 26.8241 38.876L30.5544 35.4785L39.1074 27.7039L40.8973 26.0711C41.0278 25.9506 41.1418 25.8134 41.2364 25.6629C41.3216 25.5386 41.3714 25.3934 41.3802 25.2429C41.3891 25.0924 41.3568 24.9423 41.2867 24.8089C41.2169 24.6765 41.1133 24.5649 40.9865 24.4855C40.8596 24.4061 40.7141 24.3616 40.5646 24.3567C40.1854 24.3289 39.8066 24.4165 39.4781 24.6079C39.2332 24.7461 39.0006 24.8905 38.7808 25.0287L38.599 25.1417L36.6144 26.3977L25.3608 33.381L22.7483 35.0012L18.9113 33.7766L18.007 33.494L17.429 33.3056L16.2233 32.9226C16.1 32.8801 15.9899 32.8065 15.9032 32.709C15.9032 32.709 15.8529 32.6525 15.9032 32.5646C16.0147 32.3929 16.1741 32.2575 16.3616 32.1753C16.5751 32.0748 16.8013 31.9869 17.0399 31.8989L17.203 31.8299L19.5896 30.9067L37.9143 23.8104L40.3824 22.8558L41.8457 22.2906L43.4092 21.6626C43.6445 21.5723 43.8923 21.5193 44.1439 21.5056C44.4328 21.5056 44.5333 21.5684 44.6024 21.6438C44.6884 21.7543 44.7409 21.8873 44.7532 22.0269V22.1524H44.7845Z" fill="white"/>
</svg>
