<svg width="65" height="67" viewBox="0 0 65 67" fill="none" xmlns="http://www.w3.org/2000/svg">
<path opacity="0.22" d="M32.5655 66.1497C49.0747 66.1497 62.4581 52.7664 62.4581 36.2572C62.4581 19.748 49.0747 6.36462 32.5655 6.36462C16.0563 6.36462 2.67285 19.748 2.67285 36.2572C2.67285 52.7664 16.0563 66.1497 32.5655 66.1497Z" fill="black"/>
<path d="M32.3018 61.7851C48.811 61.7851 62.1944 48.4017 62.1944 31.8925C62.1944 15.3833 48.811 2 32.3018 2C15.7926 2 2.40918 15.3833 2.40918 31.8925C2.40918 48.4017 15.7926 61.7851 32.3018 61.7851Z" fill="#01BA5D" stroke="white" stroke-width="4" stroke-miterlimit="10"/>
<path d="M47.901 44.3709H47.4739C44.6793 44.3709 41.8847 44.3709 39.0901 44.3709C38.9728 44.3783 38.8558 44.3543 38.7509 44.3013C38.646 44.2484 38.5572 44.1683 38.4937 44.0694C36.2329 41.0969 33.9677 38.1328 31.6986 35.177L31.548 34.9886L30.744 35.8992C28.3744 38.6038 26.0071 41.3125 23.6417 44.0255C23.5532 44.1411 23.4375 44.2331 23.305 44.2933C23.1724 44.3536 23.0271 44.3802 22.8818 44.3709C21.6258 44.3709 20.4072 44.3709 19.1638 44.3709H18.806L29.4506 32.2066L18.178 17.5178H18.5548C21.4562 17.5178 24.3576 17.5178 27.2652 17.5178C27.3677 17.5115 27.4698 17.5326 27.5614 17.579C27.653 17.6253 27.7306 17.6953 27.7862 17.7816C29.846 20.5196 31.908 23.2514 33.972 25.9769L34.0787 26.0899L35.0271 25.0098C37.1204 22.5983 39.2283 20.1889 41.3509 17.7816C41.4168 17.6952 41.5027 17.6261 41.6011 17.5801C41.6996 17.5342 41.8075 17.5128 41.9161 17.5178C43.172 17.5178 44.4658 17.5178 45.7469 17.5178H46.1363L36.1825 28.8908L47.901 44.3709ZM23.5285 20.0989C23.5913 20.1993 23.6291 20.2559 23.6668 20.3061L26.0782 23.4461C30.6249 29.3869 35.1672 35.3277 39.7055 41.2686C39.7835 41.3916 39.8943 41.4907 40.025 41.555C40.1558 41.6193 40.3016 41.6462 40.4466 41.6328C41.0181 41.6014 41.5896 41.6328 42.1611 41.6328H42.4815C42.3936 41.5072 42.3307 41.413 42.2616 41.3251L30.8069 26.1841C29.3332 24.229 27.8553 22.2801 26.3732 20.3375C26.3056 20.2274 26.1973 20.1483 26.0718 20.1177C25.2428 20.0926 24.414 20.0989 23.5285 20.0989Z" fill="white"/>
</svg>
